<?xml version="1.0" encoding="utf-8"?>
<svg xmlns="http://www.w3.org/2000/svg" xmlns:xlink="http://www.w3.org/1999/xlink" width="600" height="400" viewBox="0 0 2400 1600">
<defs>
  <clipPath id="clip940">
    <rect x="0" y="0" width="2400" height="1600"/>
  </clipPath>
</defs>
<path clip-path="url(#clip940)" d="M0 1600 L2400 1600 L2400 0 L0 0  Z" fill="#ffffff" fill-rule="evenodd" fill-opacity="1"/>
<defs>
  <clipPath id="clip941">
    <rect x="480" y="0" width="1681" height="1600"/>
  </clipPath>
</defs>
<path clip-path="url(#clip940)" d="M249.542 1321.26 L2352.76 1321.26 L2352.76 123.472 L249.542 123.472  Z" fill="#ffffff" fill-rule="evenodd" fill-opacity="1"/>
<defs>
  <clipPath id="clip942">
    <rect x="249" y="123" width="2104" height="1199"/>
  </clipPath>
</defs>
<polyline clip-path="url(#clip942)" style="stroke:#000000; stroke-linecap:round; stroke-linejoin:round; stroke-width:2; stroke-opacity:0.1; fill:none" points="472.143,1321.26 472.143,123.472 "/>
<polyline clip-path="url(#clip942)" style="stroke:#000000; stroke-linecap:round; stroke-linejoin:round; stroke-width:2; stroke-opacity:0.1; fill:none" points="1074.78,1321.26 1074.78,123.472 "/>
<polyline clip-path="url(#clip942)" style="stroke:#000000; stroke-linecap:round; stroke-linejoin:round; stroke-width:2; stroke-opacity:0.1; fill:none" points="1677.41,1321.26 1677.41,123.472 "/>
<polyline clip-path="url(#clip942)" style="stroke:#000000; stroke-linecap:round; stroke-linejoin:round; stroke-width:2; stroke-opacity:0.1; fill:none" points="2116.97,1321.26 2116.97,123.472 "/>
<polyline clip-path="url(#clip940)" style="stroke:#000000; stroke-linecap:round; stroke-linejoin:round; stroke-width:4; stroke-opacity:1; fill:none" points="249.542,1321.26 2352.76,1321.26 "/>
<polyline clip-path="url(#clip940)" style="stroke:#000000; stroke-linecap:round; stroke-linejoin:round; stroke-width:4; stroke-opacity:1; fill:none" points="472.143,1321.26 472.143,1302.36 "/>
<polyline clip-path="url(#clip940)" style="stroke:#000000; stroke-linecap:round; stroke-linejoin:round; stroke-width:4; stroke-opacity:1; fill:none" points="1074.78,1321.26 1074.78,1302.36 "/>
<polyline clip-path="url(#clip940)" style="stroke:#000000; stroke-linecap:round; stroke-linejoin:round; stroke-width:4; stroke-opacity:1; fill:none" points="1677.41,1321.26 1677.41,1302.36 "/>
<polyline clip-path="url(#clip940)" style="stroke:#000000; stroke-linecap:round; stroke-linejoin:round; stroke-width:4; stroke-opacity:1; fill:none" points="2116.97,1321.26 2116.97,1302.36 "/>
<path clip-path="url(#clip940)" d="M342.794 1490.44 L353.859 1501.51 L350.847 1504.52 L339.88 1493.55 Q337.278 1490.95 334.97 1490.67 Q332.662 1490.39 330.632 1492.42 Q328.193 1494.86 328.341 1497.82 Q328.488 1500.79 331.172 1503.47 L341.533 1513.83 L338.505 1516.86 L320.173 1498.53 L323.201 1495.5 L326.049 1498.35 Q325.476 1495.61 326.115 1493.34 Q326.769 1491.05 328.684 1489.13 Q331.844 1485.97 335.428 1486.32 Q338.996 1486.64 342.794 1490.44 Z" fill="#000000" fill-rule="nonzero" fill-opacity="1" /><path clip-path="url(#clip940)" d="M358.982 1477.95 Q355.332 1481.6 354.759 1483.85 Q354.186 1486.09 356.199 1488.1 Q357.803 1489.71 359.8 1489.61 Q361.797 1489.48 363.614 1487.66 Q366.118 1485.16 365.856 1481.88 Q365.595 1478.58 362.648 1475.63 L361.977 1474.96 L358.982 1477.95 M363.745 1470.7 L374.204 1481.16 L371.192 1484.17 L368.41 1481.39 Q369.048 1484.09 368.312 1486.43 Q367.559 1488.76 365.333 1490.98 Q362.517 1493.8 359.277 1493.9 Q356.036 1493.96 353.384 1491.31 Q350.29 1488.22 350.781 1484.58 Q351.289 1480.93 355.397 1476.82 L359.62 1472.6 L359.326 1472.31 Q357.247 1470.23 354.743 1470.47 Q352.238 1470.69 349.767 1473.16 Q348.195 1474.73 347.082 1476.59 Q345.969 1478.46 345.347 1480.59 L342.565 1477.81 Q343.579 1475.51 344.823 1473.65 Q346.051 1471.77 347.524 1470.29 Q351.502 1466.32 355.528 1466.41 Q359.555 1466.51 363.745 1470.7 Z" fill="#000000" fill-rule="nonzero" fill-opacity="1" /><path clip-path="url(#clip940)" d="M362.075 1456.63 L365.087 1453.61 L383.419 1471.95 L380.408 1474.96 L362.075 1456.63 M354.939 1449.49 L357.951 1446.48 L361.764 1450.29 L358.753 1453.3 L354.939 1449.49 Z" fill="#000000" fill-rule="nonzero" fill-opacity="1" /><path clip-path="url(#clip940)" d="M369.228 1449.47 L372.42 1446.28 L393.535 1455.94 L383.878 1434.82 L387.07 1431.63 L398.527 1456.84 L394.435 1460.93 L369.228 1449.47 Z" fill="#000000" fill-rule="nonzero" fill-opacity="1" /><path clip-path="url(#clip940)" d="M415.321 1420.21 L416.794 1421.68 L402.947 1435.53 Q406.253 1438.44 409.559 1438.41 Q412.866 1438.34 415.861 1435.35 Q417.596 1433.61 418.791 1431.57 Q420.002 1429.5 420.755 1427.05 L423.603 1429.9 Q422.67 1432.2 421.328 1434.27 Q419.986 1436.33 418.234 1438.08 Q413.848 1442.47 408.725 1442.48 Q403.618 1442.48 399.264 1438.13 Q394.763 1433.63 394.55 1428.57 Q394.337 1423.48 398.462 1419.36 Q402.161 1415.66 406.695 1415.9 Q411.229 1416.11 415.321 1420.21 M411.425 1422.33 Q408.921 1419.9 406.089 1419.78 Q403.274 1419.65 401.048 1421.88 Q398.527 1424.4 398.429 1427.34 Q398.347 1430.27 400.704 1433.09 L411.425 1422.33 Z" fill="#000000" fill-rule="nonzero" fill-opacity="1" /><path clip-path="url(#clip940)" d="M422.638 1381.86 Q424.209 1387.81 426.828 1392.56 Q429.447 1397.31 433.228 1401.09 Q437.009 1404.87 441.788 1407.52 Q446.568 1410.14 452.493 1411.71 L449.874 1414.33 Q443.572 1412.94 438.629 1410.45 Q433.702 1407.95 430.036 1404.28 Q426.386 1400.63 423.898 1395.72 Q421.41 1390.81 420.019 1384.47 L422.638 1381.86 Z" fill="#000000" fill-rule="nonzero" fill-opacity="1" /><path clip-path="url(#clip940)" d="M449.792 1360.46 L453.279 1363.95 Q450.054 1364.06 447.386 1365.19 Q444.734 1366.31 442.607 1368.43 Q438.416 1372.62 438.76 1377.42 Q439.087 1382.2 443.932 1387.04 Q448.761 1391.87 453.557 1392.22 Q458.336 1392.54 462.527 1388.35 Q464.654 1386.23 465.768 1383.57 Q466.897 1380.91 467.012 1377.68 L470.465 1381.14 Q469.909 1384.05 468.55 1386.59 Q467.208 1389.11 465.047 1391.27 Q459.499 1396.82 452.919 1396.62 Q446.322 1396.41 440.446 1390.53 Q434.554 1384.64 434.357 1378.06 Q434.144 1371.46 439.693 1365.91 Q441.886 1363.72 444.407 1362.38 Q446.928 1361 449.792 1360.46 Z" fill="#000000" fill-rule="nonzero" fill-opacity="1" /><path clip-path="url(#clip940)" d="M451.413 1353.08 L454.032 1350.46 Q460.35 1351.87 465.26 1354.36 Q470.187 1356.83 473.837 1360.48 Q477.503 1364.15 479.991 1369.09 Q482.496 1374.02 483.887 1380.32 L481.268 1382.94 Q479.697 1377.01 477.062 1372.25 Q474.426 1367.45 470.645 1363.67 Q466.864 1359.89 462.101 1357.29 Q457.354 1354.67 451.413 1353.08 Z" fill="#000000" fill-rule="nonzero" fill-opacity="1" /><path clip-path="url(#clip940)" d="M958.948 1476.92 L970.013 1487.99 L967.001 1491 L956.034 1480.03 Q953.432 1477.43 951.124 1477.15 Q948.816 1476.87 946.786 1478.9 Q944.347 1481.34 944.495 1484.3 Q944.642 1487.27 947.326 1489.95 L957.687 1500.31 L954.659 1503.34 L936.327 1485.01 L939.355 1481.98 L942.203 1484.83 Q941.63 1482.09 942.269 1479.82 Q942.923 1477.53 944.838 1475.61 Q947.997 1472.45 951.582 1472.8 Q955.15 1473.12 958.948 1476.92 Z" fill="#000000" fill-rule="nonzero" fill-opacity="1" /><path clip-path="url(#clip940)" d="M975.136 1464.43 Q971.486 1468.08 970.913 1470.33 Q970.34 1472.57 972.353 1474.58 Q973.957 1476.19 975.954 1476.09 Q977.951 1475.96 979.768 1474.14 Q982.272 1471.64 982.01 1468.36 Q981.748 1465.06 978.802 1462.11 L978.131 1461.44 L975.136 1464.43 M979.899 1457.18 L990.358 1467.64 L987.346 1470.65 L984.564 1467.87 Q985.202 1470.57 984.466 1472.91 Q983.713 1475.24 981.487 1477.46 Q978.671 1480.28 975.43 1480.38 Q972.189 1480.44 969.538 1477.79 Q966.444 1474.7 966.935 1471.06 Q967.443 1467.41 971.551 1463.3 L975.774 1459.08 L975.479 1458.79 Q973.401 1456.71 970.896 1456.95 Q968.392 1457.17 965.92 1459.64 Q964.349 1461.21 963.236 1463.07 Q962.123 1464.94 961.501 1467.07 L958.718 1464.29 Q959.733 1461.99 960.977 1460.13 Q962.205 1458.25 963.678 1456.77 Q967.655 1452.8 971.682 1452.89 Q975.709 1452.99 979.899 1457.18 Z" fill="#000000" fill-rule="nonzero" fill-opacity="1" /><path clip-path="url(#clip940)" d="M978.229 1443.11 L981.241 1440.09 L999.573 1458.43 L996.562 1461.44 L978.229 1443.11 M971.093 1435.97 L974.105 1432.96 L977.918 1436.77 L974.907 1439.78 L971.093 1435.97 Z" fill="#000000" fill-rule="nonzero" fill-opacity="1" /><path clip-path="url(#clip940)" d="M985.382 1435.95 L988.574 1432.76 L1009.69 1442.42 L1000.03 1421.3 L1003.22 1418.11 L1014.68 1443.32 L1010.59 1447.41 L985.382 1435.95 Z" fill="#000000" fill-rule="nonzero" fill-opacity="1" /><path clip-path="url(#clip940)" d="M1031.47 1406.69 L1032.95 1408.16 L1019.1 1422.01 Q1022.41 1424.92 1025.71 1424.89 Q1029.02 1424.82 1032.01 1421.83 Q1033.75 1420.09 1034.94 1418.05 Q1036.16 1415.98 1036.91 1413.53 L1039.76 1416.38 Q1038.82 1418.68 1037.48 1420.75 Q1036.14 1422.81 1034.39 1424.56 Q1030 1428.95 1024.88 1428.96 Q1019.77 1428.96 1015.42 1424.61 Q1010.92 1420.11 1010.7 1415.05 Q1010.49 1409.96 1014.62 1405.84 Q1018.31 1402.14 1022.85 1402.38 Q1027.38 1402.59 1031.47 1406.69 M1027.58 1408.81 Q1025.07 1406.38 1022.24 1406.26 Q1019.43 1406.13 1017.2 1408.36 Q1014.68 1410.88 1014.58 1413.82 Q1014.5 1416.75 1016.86 1419.57 L1027.58 1408.81 Z" fill="#000000" fill-rule="nonzero" fill-opacity="1" /><path clip-path="url(#clip940)" d="M1038.79 1368.34 Q1040.36 1374.29 1042.98 1379.04 Q1045.6 1383.79 1049.38 1387.57 Q1053.16 1391.35 1057.94 1394 Q1062.72 1396.62 1068.65 1398.19 L1066.03 1400.81 Q1059.73 1399.42 1054.78 1396.93 Q1049.86 1394.43 1046.19 1390.76 Q1042.54 1387.11 1040.05 1382.2 Q1037.56 1377.29 1036.17 1370.95 L1038.79 1368.34 Z" fill="#000000" fill-rule="nonzero" fill-opacity="1" /><path clip-path="url(#clip940)" d="M1045.76 1363.36 L1049.07 1360.05 L1071.81 1382.79 Q1076.23 1387.21 1076.54 1390.89 Q1076.86 1394.56 1073.15 1398.27 L1071.89 1399.53 L1069.11 1396.75 L1070.14 1395.72 Q1072.33 1393.53 1072 1391.4 Q1071.67 1389.27 1068.5 1386.1 L1045.76 1363.36 Z" fill="#000000" fill-rule="nonzero" fill-opacity="1" /><path clip-path="url(#clip940)" d="M1054.05 1353.08 L1056.67 1350.46 Q1062.98 1351.87 1067.89 1354.36 Q1072.82 1356.83 1076.47 1360.48 Q1080.14 1364.15 1082.63 1369.09 Q1085.13 1374.02 1086.52 1380.32 L1083.9 1382.94 Q1082.33 1377.01 1079.7 1372.25 Q1077.06 1367.45 1073.28 1363.67 Q1069.5 1359.89 1064.73 1357.29 Q1059.99 1354.67 1054.05 1353.08 Z" fill="#000000" fill-rule="nonzero" fill-opacity="1" /><path clip-path="url(#clip940)" d="M1525.85 1512.65 L1536.91 1523.72 L1533.9 1526.73 L1522.94 1515.76 Q1520.33 1513.16 1518.03 1512.88 Q1515.72 1512.6 1513.69 1514.63 Q1511.25 1517.07 1511.4 1520.04 Q1511.54 1523 1514.23 1525.68 L1524.59 1536.04 L1521.56 1539.07 L1503.23 1520.74 L1506.26 1517.71 L1509.11 1520.56 Q1508.53 1517.83 1509.17 1515.55 Q1509.83 1513.26 1511.74 1511.34 Q1514.9 1508.19 1518.48 1508.53 Q1522.05 1508.86 1525.85 1512.65 Z" fill="#000000" fill-rule="nonzero" fill-opacity="1" /><path clip-path="url(#clip940)" d="M1535.38 1510.79 L1524.28 1499.69 L1527.29 1496.68 L1538.27 1507.66 Q1540.88 1510.26 1543.2 1510.56 Q1545.51 1510.84 1547.54 1508.81 Q1549.98 1506.37 1549.83 1503.41 Q1549.7 1500.43 1547.01 1497.74 L1536.62 1487.35 L1539.63 1484.34 L1557.96 1502.67 L1554.95 1505.68 L1552.14 1502.87 Q1552.71 1505.63 1552.07 1507.91 Q1551.43 1510.15 1549.52 1512.06 Q1546.36 1515.22 1542.76 1514.9 Q1539.16 1514.57 1535.38 1510.79 M1531.41 1491.67 L1531.41 1491.67 Z" fill="#000000" fill-rule="nonzero" fill-opacity="1" /><path clip-path="url(#clip940)" d="M1563.63 1467.38 Q1562.73 1464.22 1563.33 1461.68 Q1563.94 1459.15 1566.07 1457.02 Q1568.93 1454.15 1572.5 1454.61 Q1576.05 1455.05 1579.75 1458.75 L1590.81 1469.82 L1587.79 1472.85 L1576.82 1461.88 Q1574.18 1459.24 1571.98 1458.9 Q1569.77 1458.56 1567.85 1460.47 Q1565.51 1462.81 1565.71 1465.73 Q1565.9 1468.64 1568.59 1471.32 L1578.95 1481.69 L1575.92 1484.71 L1564.95 1473.75 Q1562.3 1471.1 1560.11 1470.77 Q1557.9 1470.42 1555.95 1472.37 Q1553.64 1474.68 1553.86 1477.61 Q1554.05 1480.52 1556.72 1483.19 L1567.08 1493.55 L1564.05 1496.58 L1545.72 1478.25 L1548.75 1475.22 L1551.6 1478.07 Q1550.94 1475.35 1551.58 1473.11 Q1552.22 1470.87 1554.2 1468.89 Q1556.2 1466.89 1558.6 1466.51 Q1561.02 1466.12 1563.63 1467.38 Z" fill="#000000" fill-rule="nonzero" fill-opacity="1" /><path clip-path="url(#clip940)" d="M1600.83 1441.5 Q1597.51 1438.18 1594.25 1437.67 Q1590.99 1437.13 1588.61 1439.52 Q1586.22 1441.91 1586.74 1445.18 Q1587.26 1448.43 1590.59 1451.75 Q1593.91 1455.07 1597.17 1455.61 Q1600.42 1456.12 1602.81 1453.73 Q1605.2 1451.34 1604.68 1448.1 Q1604.15 1444.82 1600.83 1441.5 M1584.19 1445.35 Q1583.5 1442.76 1584.15 1440.54 Q1584.81 1438.28 1586.82 1436.26 Q1590.16 1432.92 1594.89 1433.5 Q1599.64 1434.05 1603.96 1438.38 Q1608.28 1442.7 1608.84 1447.44 Q1609.41 1452.17 1606.07 1455.51 Q1604.06 1457.53 1601.81 1458.2 Q1599.57 1458.84 1596.99 1458.15 L1599.74 1460.9 L1596.71 1463.93 L1571.24 1438.46 L1574.27 1435.43 L1584.19 1445.35 Z" fill="#000000" fill-rule="nonzero" fill-opacity="1" /><path clip-path="url(#clip940)" d="M1617.22 1424.99 Q1613.57 1428.64 1612.99 1430.88 Q1612.42 1433.12 1614.43 1435.13 Q1616.04 1436.74 1618.04 1436.64 Q1620.03 1436.51 1621.85 1434.69 Q1624.35 1432.19 1624.09 1428.91 Q1623.83 1425.61 1620.88 1422.66 L1620.21 1421.99 L1617.22 1424.99 M1621.98 1417.73 L1632.44 1428.19 L1629.43 1431.21 L1626.64 1428.42 Q1627.28 1431.12 1626.55 1433.46 Q1625.79 1435.79 1623.57 1438.02 Q1620.75 1440.83 1617.51 1440.93 Q1614.27 1440.99 1611.62 1438.34 Q1608.53 1435.25 1609.02 1431.62 Q1609.52 1427.97 1613.63 1423.86 L1617.86 1419.63 L1617.56 1419.34 Q1615.48 1417.26 1612.98 1417.51 Q1610.47 1417.72 1608 1420.19 Q1606.43 1421.76 1605.32 1423.63 Q1604.2 1425.49 1603.58 1427.62 L1600.8 1424.84 Q1601.81 1422.55 1603.06 1420.68 Q1604.29 1418.8 1605.76 1417.33 Q1609.74 1413.35 1613.76 1413.45 Q1617.79 1413.54 1621.98 1417.73 Z" fill="#000000" fill-rule="nonzero" fill-opacity="1" /><path clip-path="url(#clip940)" d="M1631.1 1378.66 Q1632.67 1384.62 1635.29 1389.37 Q1637.91 1394.12 1641.69 1397.9 Q1645.47 1401.68 1650.25 1404.33 Q1655.03 1406.95 1660.95 1408.52 L1658.33 1411.14 Q1652.03 1409.75 1647.09 1407.26 Q1642.16 1404.76 1638.5 1401.09 Q1634.85 1397.44 1632.36 1392.53 Q1629.87 1387.62 1628.48 1381.28 L1631.1 1378.66 Z" fill="#000000" fill-rule="nonzero" fill-opacity="1" /><path clip-path="url(#clip940)" d="M1644.09 1373.1 L1653.28 1382.28 L1657.43 1378.12 Q1659.74 1375.82 1659.81 1373.36 Q1659.87 1370.91 1657.66 1368.7 Q1655.47 1366.5 1653.01 1366.57 Q1650.56 1366.63 1648.25 1368.94 L1644.09 1373.1 M1638.07 1373.69 L1645.53 1366.22 Q1649.64 1362.12 1653.6 1361.89 Q1657.56 1361.63 1661.15 1365.21 Q1664.77 1368.83 1664.5 1372.79 Q1664.26 1376.73 1660.15 1380.84 L1655.99 1385 L1665.81 1394.82 L1662.51 1398.13 L1638.07 1373.69 Z" fill="#000000" fill-rule="nonzero" fill-opacity="1" /><path clip-path="url(#clip940)" d="M1656.68 1353.08 L1659.3 1350.46 Q1665.62 1351.87 1670.53 1354.36 Q1675.45 1356.83 1679.1 1360.48 Q1682.77 1364.15 1685.26 1369.09 Q1687.76 1374.02 1689.15 1380.32 L1686.54 1382.94 Q1684.96 1377.01 1682.33 1372.25 Q1679.69 1367.45 1675.91 1363.67 Q1672.13 1359.89 1667.37 1357.29 Q1662.62 1354.67 1656.68 1353.08 Z" fill="#000000" fill-rule="nonzero" fill-opacity="1" /><path clip-path="url(#clip940)" d="M1966.11 1511.95 L1977.18 1523.01 L1974.16 1526.03 L1963.2 1515.06 Q1960.6 1512.46 1958.29 1512.18 Q1955.98 1511.9 1953.95 1513.93 Q1951.51 1516.37 1951.66 1519.33 Q1951.81 1522.29 1954.49 1524.98 L1964.85 1535.34 L1961.82 1538.37 L1943.49 1520.04 L1946.52 1517.01 L1949.37 1519.86 Q1948.79 1517.12 1949.43 1514.85 Q1950.09 1512.56 1952 1510.64 Q1955.16 1507.48 1958.75 1507.83 Q1962.31 1508.15 1966.11 1511.95 Z" fill="#000000" fill-rule="nonzero" fill-opacity="1" /><path clip-path="url(#clip940)" d="M1975.64 1510.08 L1964.54 1498.99 L1967.55 1495.97 L1978.53 1506.96 Q1981.14 1509.56 1983.46 1509.85 Q1985.77 1510.13 1987.8 1508.1 Q1990.24 1505.66 1990.09 1502.7 Q1989.96 1499.72 1987.28 1497.04 L1976.88 1486.64 L1979.89 1483.63 L1998.23 1501.97 L1995.21 1504.98 L1992.4 1502.16 Q1992.97 1504.93 1992.33 1507.2 Q1991.69 1509.45 1989.78 1511.36 Q1986.62 1514.52 1983.02 1514.19 Q1979.42 1513.86 1975.64 1510.08 M1971.68 1490.97 L1971.68 1490.97 Z" fill="#000000" fill-rule="nonzero" fill-opacity="1" /><path clip-path="url(#clip940)" d="M2003.89 1466.68 Q2002.99 1463.52 2003.59 1460.98 Q2004.2 1458.44 2006.33 1456.31 Q2009.19 1453.45 2012.76 1453.91 Q2016.31 1454.35 2020.01 1458.05 L2031.08 1469.11 L2028.05 1472.14 L2017.08 1461.18 Q2014.45 1458.54 2012.24 1458.2 Q2010.03 1457.85 2008.11 1459.77 Q2005.77 1462.11 2005.97 1465.02 Q2006.16 1467.94 2008.85 1470.62 L2019.21 1480.98 L2016.18 1484.01 L2005.21 1473.04 Q2002.56 1470.39 2000.37 1470.06 Q1998.16 1469.72 1996.21 1471.67 Q1993.9 1473.98 1994.12 1476.91 Q1994.31 1479.82 1996.98 1482.49 L2007.34 1492.85 L2004.31 1495.88 L1985.98 1477.54 L1989.01 1474.52 L1991.86 1477.36 Q1991.2 1474.65 1991.84 1472.4 Q1992.48 1470.16 1994.46 1468.18 Q1996.46 1466.18 1998.86 1465.81 Q2001.29 1465.42 2003.89 1466.68 Z" fill="#000000" fill-rule="nonzero" fill-opacity="1" /><path clip-path="url(#clip940)" d="M2037.25 1457.44 L2046.97 1467.17 L2043.94 1470.19 L2018.64 1444.89 L2021.66 1441.86 L2024.45 1444.64 Q2023.76 1442.06 2024.41 1439.83 Q2025.07 1437.57 2027.08 1435.56 Q2030.42 1432.22 2035.15 1432.79 Q2039.9 1433.35 2044.22 1437.67 Q2048.54 1441.99 2049.1 1446.74 Q2049.67 1451.47 2046.33 1454.81 Q2044.32 1456.82 2042.08 1457.49 Q2039.83 1458.13 2037.25 1457.44 M2041.09 1440.8 Q2037.77 1437.47 2034.51 1436.97 Q2031.26 1436.43 2028.87 1438.82 Q2026.48 1441.21 2027 1444.48 Q2027.52 1447.72 2030.85 1451.04 Q2034.17 1454.37 2037.43 1454.91 Q2040.68 1455.41 2043.07 1453.02 Q2045.46 1450.63 2044.94 1447.39 Q2044.42 1444.12 2041.09 1440.8 Z" fill="#000000" fill-rule="nonzero" fill-opacity="1" /><path clip-path="url(#clip940)" d="M2067.69 1435.9 Q2069.69 1440.45 2069.48 1442.66 Q2069.26 1444.87 2067.23 1446.9 L2064.83 1449.31 L2062.31 1446.79 L2064.07 1445.02 Q2065.32 1443.78 2065.42 1442.5 Q2065.52 1441.22 2064.16 1438.2 L2063.32 1436.28 L2037.87 1425.66 L2041.06 1422.47 L2061.13 1431.07 L2052.52 1411.01 L2055.71 1407.82 L2067.69 1435.9 Z" fill="#000000" fill-rule="nonzero" fill-opacity="1" /><path clip-path="url(#clip940)" d="M2070.65 1378.66 Q2072.23 1384.62 2074.84 1389.37 Q2077.46 1394.12 2081.24 1397.9 Q2085.03 1401.68 2089.81 1404.33 Q2094.58 1406.95 2100.51 1408.52 L2097.89 1411.14 Q2091.59 1409.75 2086.65 1407.26 Q2081.72 1404.76 2078.05 1401.09 Q2074.4 1397.44 2071.92 1392.53 Q2069.43 1387.62 2068.04 1381.28 L2070.65 1378.66 Z" fill="#000000" fill-rule="nonzero" fill-opacity="1" /><path clip-path="url(#clip940)" d="M2083.65 1373.1 L2092.83 1382.28 L2096.99 1378.12 Q2099.3 1375.82 2099.36 1373.36 Q2099.43 1370.91 2097.22 1368.7 Q2095.03 1366.5 2092.57 1366.57 Q2090.12 1366.63 2087.81 1368.94 L2083.65 1373.1 M2077.63 1373.69 L2085.09 1366.22 Q2089.2 1362.12 2093.16 1361.89 Q2097.12 1361.63 2100.71 1365.21 Q2104.32 1368.83 2104.06 1372.79 Q2103.82 1376.73 2099.71 1380.84 L2095.55 1385 L2105.37 1394.82 L2102.07 1398.13 L2077.63 1373.69 Z" fill="#000000" fill-rule="nonzero" fill-opacity="1" /><path clip-path="url(#clip940)" d="M2096.24 1353.08 L2098.86 1350.46 Q2105.18 1351.87 2110.09 1354.36 Q2115.01 1356.83 2118.66 1360.48 Q2122.33 1364.15 2124.82 1369.09 Q2127.32 1374.02 2128.71 1380.32 L2126.09 1382.94 Q2124.52 1377.01 2121.89 1372.25 Q2119.25 1367.45 2115.47 1363.67 Q2111.69 1359.89 2106.93 1357.29 Q2102.18 1354.67 2096.24 1353.08 Z" fill="#000000" fill-rule="nonzero" fill-opacity="1" /><polyline clip-path="url(#clip942)" style="stroke:#000000; stroke-linecap:round; stroke-linejoin:round; stroke-width:2; stroke-opacity:0.1; fill:none" points="249.542,1321.26 2352.76,1321.26 "/>
<polyline clip-path="url(#clip942)" style="stroke:#000000; stroke-linecap:round; stroke-linejoin:round; stroke-width:2; stroke-opacity:0.1; fill:none" points="249.542,1071.41 2352.76,1071.41 "/>
<polyline clip-path="url(#clip942)" style="stroke:#000000; stroke-linecap:round; stroke-linejoin:round; stroke-width:2; stroke-opacity:0.1; fill:none" points="249.542,821.571 2352.76,821.571 "/>
<polyline clip-path="url(#clip942)" style="stroke:#000000; stroke-linecap:round; stroke-linejoin:round; stroke-width:2; stroke-opacity:0.1; fill:none" points="249.542,571.728 2352.76,571.728 "/>
<polyline clip-path="url(#clip942)" style="stroke:#000000; stroke-linecap:round; stroke-linejoin:round; stroke-width:2; stroke-opacity:0.1; fill:none" points="249.542,321.885 2352.76,321.885 "/>
<polyline clip-path="url(#clip940)" style="stroke:#000000; stroke-linecap:round; stroke-linejoin:round; stroke-width:4; stroke-opacity:1; fill:none" points="249.542,1321.26 249.542,123.472 "/>
<polyline clip-path="url(#clip940)" style="stroke:#000000; stroke-linecap:round; stroke-linejoin:round; stroke-width:4; stroke-opacity:1; fill:none" points="249.542,1321.26 268.44,1321.26 "/>
<polyline clip-path="url(#clip940)" style="stroke:#000000; stroke-linecap:round; stroke-linejoin:round; stroke-width:4; stroke-opacity:1; fill:none" points="249.542,1071.41 268.44,1071.41 "/>
<polyline clip-path="url(#clip940)" style="stroke:#000000; stroke-linecap:round; stroke-linejoin:round; stroke-width:4; stroke-opacity:1; fill:none" points="249.542,821.571 268.44,821.571 "/>
<polyline clip-path="url(#clip940)" style="stroke:#000000; stroke-linecap:round; stroke-linejoin:round; stroke-width:4; stroke-opacity:1; fill:none" points="249.542,571.728 268.44,571.728 "/>
<polyline clip-path="url(#clip940)" style="stroke:#000000; stroke-linecap:round; stroke-linejoin:round; stroke-width:4; stroke-opacity:1; fill:none" points="249.542,321.885 268.44,321.885 "/>
<path clip-path="url(#clip940)" d="M126.205 1307.06 Q122.593 1307.06 120.765 1310.62 Q118.959 1314.16 118.959 1321.29 Q118.959 1328.4 120.765 1331.96 Q122.593 1335.5 126.205 1335.5 Q129.839 1335.5 131.644 1331.96 Q133.473 1328.4 133.473 1321.29 Q133.473 1314.16 131.644 1310.62 Q129.839 1307.06 126.205 1307.06 M126.205 1303.35 Q132.015 1303.35 135.07 1307.96 Q138.149 1312.54 138.149 1321.29 Q138.149 1330.02 135.07 1334.62 Q132.015 1339.21 126.205 1339.21 Q120.394 1339.21 117.316 1334.62 Q114.26 1330.02 114.26 1321.29 Q114.26 1312.54 117.316 1307.96 Q120.394 1303.35 126.205 1303.35 Z" fill="#000000" fill-rule="nonzero" fill-opacity="1" /><path clip-path="url(#clip940)" d="M146.366 1332.66 L151.251 1332.66 L151.251 1338.54 L146.366 1338.54 L146.366 1332.66 Z" fill="#000000" fill-rule="nonzero" fill-opacity="1" /><path clip-path="url(#clip940)" d="M171.436 1307.06 Q167.825 1307.06 165.996 1310.62 Q164.19 1314.16 164.19 1321.29 Q164.19 1328.4 165.996 1331.96 Q167.825 1335.5 171.436 1335.5 Q175.07 1335.5 176.876 1331.96 Q178.704 1328.4 178.704 1321.29 Q178.704 1314.16 176.876 1310.62 Q175.07 1307.06 171.436 1307.06 M171.436 1303.35 Q177.246 1303.35 180.301 1307.96 Q183.38 1312.54 183.38 1321.29 Q183.38 1330.02 180.301 1334.62 Q177.246 1339.21 171.436 1339.21 Q165.626 1339.21 162.547 1334.62 Q159.491 1330.02 159.491 1321.29 Q159.491 1312.54 162.547 1307.96 Q165.626 1303.35 171.436 1303.35 Z" fill="#000000" fill-rule="nonzero" fill-opacity="1" /><path clip-path="url(#clip940)" d="M201.598 1307.06 Q197.987 1307.06 196.158 1310.62 Q194.352 1314.16 194.352 1321.29 Q194.352 1328.4 196.158 1331.96 Q197.987 1335.5 201.598 1335.5 Q205.232 1335.5 207.037 1331.96 Q208.866 1328.4 208.866 1321.29 Q208.866 1314.16 207.037 1310.62 Q205.232 1307.06 201.598 1307.06 M201.598 1303.35 Q207.408 1303.35 210.463 1307.96 Q213.542 1312.54 213.542 1321.29 Q213.542 1330.02 210.463 1334.62 Q207.408 1339.21 201.598 1339.21 Q195.787 1339.21 192.709 1334.62 Q189.653 1330.02 189.653 1321.29 Q189.653 1312.54 192.709 1307.96 Q195.787 1303.35 201.598 1303.35 Z" fill="#000000" fill-rule="nonzero" fill-opacity="1" /><path clip-path="url(#clip940)" d="M127.2 1057.21 Q123.589 1057.21 121.76 1060.78 Q119.955 1064.32 119.955 1071.45 Q119.955 1078.56 121.76 1082.12 Q123.589 1085.66 127.2 1085.66 Q130.834 1085.66 132.64 1082.12 Q134.468 1078.56 134.468 1071.45 Q134.468 1064.32 132.64 1060.78 Q130.834 1057.21 127.2 1057.21 M127.2 1053.51 Q133.01 1053.51 136.066 1058.12 Q139.144 1062.7 139.144 1071.45 Q139.144 1080.18 136.066 1084.78 Q133.01 1089.37 127.2 1089.37 Q121.39 1089.37 118.311 1084.78 Q115.256 1080.18 115.256 1071.45 Q115.256 1062.7 118.311 1058.12 Q121.39 1053.51 127.2 1053.51 Z" fill="#000000" fill-rule="nonzero" fill-opacity="1" /><path clip-path="url(#clip940)" d="M147.362 1082.81 L152.246 1082.81 L152.246 1088.69 L147.362 1088.69 L147.362 1082.81 Z" fill="#000000" fill-rule="nonzero" fill-opacity="1" /><path clip-path="url(#clip940)" d="M166.459 1084.76 L182.778 1084.76 L182.778 1088.69 L160.834 1088.69 L160.834 1084.76 Q163.496 1082 168.079 1077.37 Q172.686 1072.72 173.866 1071.38 Q176.112 1068.86 176.991 1067.12 Q177.894 1065.36 177.894 1063.67 Q177.894 1060.92 175.95 1059.18 Q174.028 1057.44 170.927 1057.44 Q168.727 1057.44 166.274 1058.21 Q163.843 1058.97 161.065 1060.52 L161.065 1055.8 Q163.89 1054.67 166.343 1054.09 Q168.797 1053.51 170.834 1053.51 Q176.204 1053.51 179.399 1056.19 Q182.593 1058.88 182.593 1063.37 Q182.593 1065.5 181.783 1067.42 Q180.996 1069.32 178.889 1071.91 Q178.311 1072.58 175.209 1075.8 Q172.107 1078.99 166.459 1084.76 Z" fill="#000000" fill-rule="nonzero" fill-opacity="1" /><path clip-path="url(#clip940)" d="M192.639 1054.13 L210.996 1054.13 L210.996 1058.07 L196.922 1058.07 L196.922 1066.54 Q197.94 1066.19 198.959 1066.03 Q199.977 1065.85 200.996 1065.85 Q206.783 1065.85 210.162 1069.02 Q213.542 1072.19 213.542 1077.61 Q213.542 1083.18 210.07 1086.29 Q206.598 1089.37 200.278 1089.37 Q198.102 1089.37 195.834 1088.99 Q193.588 1088.62 191.181 1087.88 L191.181 1083.18 Q193.264 1084.32 195.487 1084.87 Q197.709 1085.43 200.186 1085.43 Q204.19 1085.43 206.528 1083.32 Q208.866 1081.22 208.866 1077.61 Q208.866 1073.99 206.528 1071.89 Q204.19 1069.78 200.186 1069.78 Q198.311 1069.78 196.436 1070.2 Q194.584 1070.62 192.639 1071.49 L192.639 1054.13 Z" fill="#000000" fill-rule="nonzero" fill-opacity="1" /><path clip-path="url(#clip940)" d="M126.205 807.37 Q122.593 807.37 120.765 810.934 Q118.959 814.476 118.959 821.606 Q118.959 828.712 120.765 832.277 Q122.593 835.819 126.205 835.819 Q129.839 835.819 131.644 832.277 Q133.473 828.712 133.473 821.606 Q133.473 814.476 131.644 810.934 Q129.839 807.37 126.205 807.37 M126.205 803.666 Q132.015 803.666 135.07 808.272 Q138.149 812.856 138.149 821.606 Q138.149 830.332 135.07 834.939 Q132.015 839.522 126.205 839.522 Q120.394 839.522 117.316 834.939 Q114.26 830.332 114.26 821.606 Q114.26 812.856 117.316 808.272 Q120.394 803.666 126.205 803.666 Z" fill="#000000" fill-rule="nonzero" fill-opacity="1" /><path clip-path="url(#clip940)" d="M146.366 832.971 L151.251 832.971 L151.251 838.851 L146.366 838.851 L146.366 832.971 Z" fill="#000000" fill-rule="nonzero" fill-opacity="1" /><path clip-path="url(#clip940)" d="M161.482 804.291 L179.839 804.291 L179.839 808.226 L165.765 808.226 L165.765 816.698 Q166.783 816.351 167.802 816.189 Q168.82 816.004 169.839 816.004 Q175.626 816.004 179.005 819.175 Q182.385 822.346 182.385 827.763 Q182.385 833.342 178.913 836.444 Q175.44 839.522 169.121 839.522 Q166.945 839.522 164.677 839.152 Q162.431 838.782 160.024 838.041 L160.024 833.342 Q162.107 834.476 164.329 835.032 Q166.552 835.587 169.028 835.587 Q173.033 835.587 175.371 833.481 Q177.709 831.374 177.709 827.763 Q177.709 824.152 175.371 822.045 Q173.033 819.939 169.028 819.939 Q167.153 819.939 165.278 820.356 Q163.427 820.772 161.482 821.652 L161.482 804.291 Z" fill="#000000" fill-rule="nonzero" fill-opacity="1" /><path clip-path="url(#clip940)" d="M201.598 807.37 Q197.987 807.37 196.158 810.934 Q194.352 814.476 194.352 821.606 Q194.352 828.712 196.158 832.277 Q197.987 835.819 201.598 835.819 Q205.232 835.819 207.037 832.277 Q208.866 828.712 208.866 821.606 Q208.866 814.476 207.037 810.934 Q205.232 807.37 201.598 807.37 M201.598 803.666 Q207.408 803.666 210.463 808.272 Q213.542 812.856 213.542 821.606 Q213.542 830.332 210.463 834.939 Q207.408 839.522 201.598 839.522 Q195.787 839.522 192.709 834.939 Q189.653 830.332 189.653 821.606 Q189.653 812.856 192.709 808.272 Q195.787 803.666 201.598 803.666 Z" fill="#000000" fill-rule="nonzero" fill-opacity="1" /><path clip-path="url(#clip940)" d="M127.2 557.527 Q123.589 557.527 121.76 561.091 Q119.955 564.633 119.955 571.763 Q119.955 578.869 121.76 582.434 Q123.589 585.976 127.2 585.976 Q130.834 585.976 132.64 582.434 Q134.468 578.869 134.468 571.763 Q134.468 564.633 132.64 561.091 Q130.834 557.527 127.2 557.527 M127.2 553.823 Q133.01 553.823 136.066 558.429 Q139.144 563.013 139.144 571.763 Q139.144 580.489 136.066 585.096 Q133.01 589.679 127.2 589.679 Q121.39 589.679 118.311 585.096 Q115.256 580.489 115.256 571.763 Q115.256 563.013 118.311 558.429 Q121.39 553.823 127.2 553.823 Z" fill="#000000" fill-rule="nonzero" fill-opacity="1" /><path clip-path="url(#clip940)" d="M147.362 583.128 L152.246 583.128 L152.246 589.008 L147.362 589.008 L147.362 583.128 Z" fill="#000000" fill-rule="nonzero" fill-opacity="1" /><path clip-path="url(#clip940)" d="M161.251 554.448 L183.473 554.448 L183.473 556.439 L170.927 589.008 L166.042 589.008 L177.848 558.383 L161.251 558.383 L161.251 554.448 Z" fill="#000000" fill-rule="nonzero" fill-opacity="1" /><path clip-path="url(#clip940)" d="M192.639 554.448 L210.996 554.448 L210.996 558.383 L196.922 558.383 L196.922 566.855 Q197.94 566.508 198.959 566.346 Q199.977 566.161 200.996 566.161 Q206.783 566.161 210.162 569.332 Q213.542 572.503 213.542 577.92 Q213.542 583.499 210.07 586.601 Q206.598 589.679 200.278 589.679 Q198.102 589.679 195.834 589.309 Q193.588 588.938 191.181 588.198 L191.181 583.499 Q193.264 584.633 195.487 585.189 Q197.709 585.744 200.186 585.744 Q204.19 585.744 206.528 583.638 Q208.866 581.531 208.866 577.92 Q208.866 574.309 206.528 572.202 Q204.19 570.096 200.186 570.096 Q198.311 570.096 196.436 570.513 Q194.584 570.929 192.639 571.809 L192.639 554.448 Z" fill="#000000" fill-rule="nonzero" fill-opacity="1" /><path clip-path="url(#clip940)" d="M117.015 335.23 L124.654 335.23 L124.654 308.864 L116.343 310.531 L116.343 306.272 L124.607 304.605 L129.283 304.605 L129.283 335.23 L136.922 335.23 L136.922 339.165 L117.015 339.165 L117.015 335.23 Z" fill="#000000" fill-rule="nonzero" fill-opacity="1" /><path clip-path="url(#clip940)" d="M146.366 333.285 L151.251 333.285 L151.251 339.165 L146.366 339.165 L146.366 333.285 Z" fill="#000000" fill-rule="nonzero" fill-opacity="1" /><path clip-path="url(#clip940)" d="M171.436 307.684 Q167.825 307.684 165.996 311.248 Q164.19 314.79 164.19 321.92 Q164.19 329.026 165.996 332.591 Q167.825 336.133 171.436 336.133 Q175.07 336.133 176.876 332.591 Q178.704 329.026 178.704 321.92 Q178.704 314.79 176.876 311.248 Q175.07 307.684 171.436 307.684 M171.436 303.98 Q177.246 303.98 180.301 308.586 Q183.38 313.17 183.38 321.92 Q183.38 330.646 180.301 335.253 Q177.246 339.836 171.436 339.836 Q165.626 339.836 162.547 335.253 Q159.491 330.646 159.491 321.92 Q159.491 313.17 162.547 308.586 Q165.626 303.98 171.436 303.98 Z" fill="#000000" fill-rule="nonzero" fill-opacity="1" /><path clip-path="url(#clip940)" d="M201.598 307.684 Q197.987 307.684 196.158 311.248 Q194.352 314.79 194.352 321.92 Q194.352 329.026 196.158 332.591 Q197.987 336.133 201.598 336.133 Q205.232 336.133 207.037 332.591 Q208.866 329.026 208.866 321.92 Q208.866 314.79 207.037 311.248 Q205.232 307.684 201.598 307.684 M201.598 303.98 Q207.408 303.98 210.463 308.586 Q213.542 313.17 213.542 321.92 Q213.542 330.646 210.463 335.253 Q207.408 339.836 201.598 339.836 Q195.787 339.836 192.709 335.253 Q189.653 330.646 189.653 321.92 Q189.653 313.17 192.709 308.586 Q195.787 303.98 201.598 303.98 Z" fill="#000000" fill-rule="nonzero" fill-opacity="1" /><path clip-path="url(#clip940)" d="M18.0438 831.361 L24.314 831.361 Q22.5634 835.022 21.704 838.268 Q20.8447 841.515 20.8447 844.538 Q20.8447 849.79 22.8817 852.655 Q24.9187 855.487 28.6745 855.487 Q31.8255 855.487 33.4488 853.61 Q35.0402 851.7 36.0269 846.416 L36.8226 842.533 Q38.1912 835.34 41.6605 831.934 Q45.098 828.497 50.8908 828.497 Q57.7976 828.497 61.3624 833.144 Q64.9272 837.759 64.9272 846.703 Q64.9272 850.077 64.1633 853.896 Q63.3994 857.684 61.9035 861.758 L55.2831 861.758 Q57.4793 857.843 58.5933 854.087 Q59.7073 850.331 59.7073 846.703 Q59.7073 841.196 57.543 838.204 Q55.3786 835.213 51.3682 835.213 Q47.8671 835.213 45.8937 837.377 Q43.9204 839.509 42.9337 844.411 L42.1698 848.326 Q40.7375 855.519 37.682 858.734 Q34.6264 861.949 29.1837 861.949 Q22.8817 861.949 19.2532 857.524 Q15.6248 853.068 15.6248 845.27 Q15.6248 841.928 16.2295 838.459 Q16.8343 834.99 18.0438 831.361 Z" fill="#000000" fill-rule="nonzero" fill-opacity="1" /><path clip-path="url(#clip940)" d="M58.657 813.06 L77.5631 813.06 L77.5631 818.948 L28.3562 818.948 L28.3562 813.06 L33.7671 813.06 Q30.5842 811.214 29.0564 808.413 Q27.4968 805.58 27.4968 801.665 Q27.4968 795.172 32.6531 791.13 Q37.8093 787.056 46.212 787.056 Q54.6147 787.056 59.771 791.13 Q64.9272 795.172 64.9272 801.665 Q64.9272 805.58 63.3994 808.413 Q61.8398 811.214 58.657 813.06 M46.212 793.135 Q39.7508 793.135 36.0905 795.809 Q32.3984 798.451 32.3984 803.098 Q32.3984 807.745 36.0905 810.418 Q39.7508 813.06 46.212 813.06 Q52.6732 813.06 56.3653 810.418 Q60.0256 807.745 60.0256 803.098 Q60.0256 798.451 56.3653 795.809 Q52.6732 793.135 46.212 793.135 Z" fill="#000000" fill-rule="nonzero" fill-opacity="1" /><path clip-path="url(#clip940)" d="M44.7161 746.857 L47.5806 746.857 L47.5806 773.784 Q53.6281 773.402 56.8109 770.155 Q59.9619 766.877 59.9619 761.052 Q59.9619 757.678 59.1344 754.527 Q58.3069 751.344 56.6518 748.225 L62.1899 748.225 Q63.5267 751.376 64.227 754.686 Q64.9272 757.997 64.9272 761.402 Q64.9272 769.932 59.9619 774.929 Q54.9967 779.895 46.5303 779.895 Q37.7774 779.895 32.6531 775.184 Q27.4968 770.442 27.4968 762.421 Q27.4968 755.228 32.1438 751.058 Q36.7589 746.857 44.7161 746.857 M42.9973 752.713 Q38.1912 752.777 35.3266 755.418 Q32.4621 758.028 32.4621 762.357 Q32.4621 767.259 35.2312 770.219 Q38.0002 773.147 43.0292 773.593 L42.9973 752.713 Z" fill="#000000" fill-rule="nonzero" fill-opacity="1" /><path clip-path="url(#clip940)" d="M44.7161 706.753 L47.5806 706.753 L47.5806 733.68 Q53.6281 733.298 56.8109 730.051 Q59.9619 726.773 59.9619 720.948 Q59.9619 717.574 59.1344 714.423 Q58.3069 711.24 56.6518 708.121 L62.1899 708.121 Q63.5267 711.272 64.227 714.582 Q64.9272 717.893 64.9272 721.298 Q64.9272 729.828 59.9619 734.825 Q54.9967 739.791 46.5303 739.791 Q37.7774 739.791 32.6531 735.08 Q27.4968 730.338 27.4968 722.317 Q27.4968 715.124 32.1438 710.954 Q36.7589 706.753 44.7161 706.753 M42.9973 712.609 Q38.1912 712.673 35.3266 715.315 Q32.4621 717.924 32.4621 722.253 Q32.4621 727.155 35.2312 730.115 Q38.0002 733.043 43.0292 733.489 L42.9973 712.609 Z" fill="#000000" fill-rule="nonzero" fill-opacity="1" /><path clip-path="url(#clip940)" d="M33.7671 673.683 L14.479 673.683 L14.479 667.826 L64.0042 667.826 L64.0042 673.683 L58.657 673.683 Q61.8398 675.529 63.3994 678.362 Q64.9272 681.163 64.9272 685.109 Q64.9272 691.57 59.771 695.644 Q54.6147 699.687 46.212 699.687 Q37.8093 699.687 32.6531 695.644 Q27.4968 691.57 27.4968 685.109 Q27.4968 681.163 29.0564 678.362 Q30.5842 675.529 33.7671 673.683 M46.212 693.639 Q52.6732 693.639 56.3653 690.998 Q60.0256 688.324 60.0256 683.677 Q60.0256 679.03 56.3653 676.356 Q52.6732 673.683 46.212 673.683 Q39.7508 673.683 36.0905 676.356 Q32.3984 679.03 32.3984 683.677 Q32.3984 688.324 36.0905 690.998 Q39.7508 693.639 46.212 693.639 Z" fill="#000000" fill-rule="nonzero" fill-opacity="1" /><path clip-path="url(#clip940)" d="M49.9359 656.368 L28.3562 656.368 L28.3562 650.512 L49.7131 650.512 Q54.7739 650.512 57.3202 648.538 Q59.8346 646.565 59.8346 642.618 Q59.8346 637.876 56.8109 635.138 Q53.7872 632.369 48.5673 632.369 L28.3562 632.369 L28.3562 626.513 L64.0042 626.513 L64.0042 632.369 L58.5296 632.369 Q61.7762 634.502 63.3676 637.335 Q64.9272 640.136 64.9272 643.859 Q64.9272 650.002 61.1078 653.185 Q57.2883 656.368 49.9359 656.368 M27.4968 641.631 L27.4968 641.631 Z" fill="#000000" fill-rule="nonzero" fill-opacity="1" /><path clip-path="url(#clip940)" d="M58.657 608.784 L77.5631 608.784 L77.5631 614.673 L28.3562 614.673 L28.3562 608.784 L33.7671 608.784 Q30.5842 606.938 29.0564 604.137 Q27.4968 601.305 27.4968 597.39 Q27.4968 590.897 32.6531 586.855 Q37.8093 582.781 46.212 582.781 Q54.6147 582.781 59.771 586.855 Q64.9272 590.897 64.9272 597.39 Q64.9272 601.305 63.3994 604.137 Q61.8398 606.938 58.657 608.784 M46.212 588.86 Q39.7508 588.86 36.0905 591.533 Q32.3984 594.175 32.3984 598.822 Q32.3984 603.469 36.0905 606.143 Q39.7508 608.784 46.212 608.784 Q52.6732 608.784 56.3653 606.143 Q60.0256 603.469 60.0256 598.822 Q60.0256 594.175 56.3653 591.533 Q52.6732 588.86 46.212 588.86 Z" fill="#000000" fill-rule="nonzero" fill-opacity="1" /><path clip-path="url(#clip940)" d="M687.64 14.0809 L687.64 22.0612 Q682.981 19.8332 678.849 18.7395 Q674.717 17.6457 670.869 17.6457 Q664.185 17.6457 660.539 20.2383 Q656.934 22.8309 656.934 27.611 Q656.934 31.6214 659.324 33.6873 Q661.754 35.7128 668.479 36.9686 L673.421 37.9813 Q682.576 39.7232 686.91 44.1387 Q691.285 48.5136 691.285 55.8863 Q691.285 64.6767 685.371 69.2137 Q679.497 73.7508 668.114 73.7508 Q663.82 73.7508 658.959 72.7785 Q654.139 71.8063 648.953 69.9024 L648.953 61.4765 Q653.936 64.2716 658.716 65.6895 Q663.496 67.1073 668.114 67.1073 Q675.122 67.1073 678.93 64.3527 Q682.738 61.598 682.738 56.4939 Q682.738 52.0379 679.983 49.5264 Q677.269 47.0148 671.031 45.759 L666.048 44.7868 Q656.893 42.9639 652.802 39.075 Q648.71 35.1862 648.71 28.2591 Q648.71 20.2383 654.341 15.6203 Q660.012 11.0023 669.937 11.0023 Q674.191 11.0023 678.606 11.7719 Q683.021 12.5416 687.64 14.0809 Z" fill="#000000" fill-rule="nonzero" fill-opacity="1" /><path clip-path="url(#clip940)" d="M710.932 65.7705 L710.932 89.8329 L703.438 89.8329 L703.438 27.2059 L710.932 27.2059 L710.932 34.0924 Q713.282 30.0415 716.847 28.0971 Q720.452 26.1121 725.434 26.1121 Q733.698 26.1121 738.843 32.6746 Q744.028 39.2371 744.028 49.9314 Q744.028 60.6258 738.843 67.1883 Q733.698 73.7508 725.434 73.7508 Q720.452 73.7508 716.847 71.8063 Q713.282 69.8214 710.932 65.7705 M736.291 49.9314 Q736.291 41.7081 732.888 37.0496 Q729.526 32.3505 723.612 32.3505 Q717.697 32.3505 714.294 37.0496 Q710.932 41.7081 710.932 49.9314 Q710.932 58.1548 714.294 62.8538 Q717.697 67.5124 723.612 67.5124 Q729.526 67.5124 732.888 62.8538 Q736.291 58.1548 736.291 49.9314 Z" fill="#000000" fill-rule="nonzero" fill-opacity="1" /><path clip-path="url(#clip940)" d="M795.191 48.0275 L795.191 51.6733 L760.92 51.6733 Q761.406 59.3701 765.538 63.421 Q769.711 67.4314 777.124 67.4314 Q781.418 67.4314 785.428 66.3781 Q789.479 65.3249 793.449 63.2184 L793.449 70.267 Q789.439 71.9684 785.226 72.8596 Q781.013 73.7508 776.678 73.7508 Q765.822 73.7508 759.462 67.4314 Q753.143 61.1119 753.143 50.3365 Q753.143 39.1965 759.138 32.6746 Q765.174 26.1121 775.382 26.1121 Q784.537 26.1121 789.844 32.0264 Q795.191 37.9003 795.191 48.0275 M787.737 45.84 Q787.656 39.7232 784.294 36.0774 Q780.972 32.4315 775.463 32.4315 Q769.225 32.4315 765.457 35.9558 Q761.731 39.4801 761.163 45.8805 L787.737 45.84 Z" fill="#000000" fill-rule="nonzero" fill-opacity="1" /><path clip-path="url(#clip940)" d="M846.232 48.0275 L846.232 51.6733 L811.962 51.6733 Q812.448 59.3701 816.58 63.421 Q820.752 67.4314 828.165 67.4314 Q832.459 67.4314 836.47 66.3781 Q840.521 65.3249 844.491 63.2184 L844.491 70.267 Q840.48 71.9684 836.267 72.8596 Q832.054 73.7508 827.72 73.7508 Q816.863 73.7508 810.503 67.4314 Q804.184 61.1119 804.184 50.3365 Q804.184 39.1965 810.179 32.6746 Q816.215 26.1121 826.424 26.1121 Q835.579 26.1121 840.885 32.0264 Q846.232 37.9003 846.232 48.0275 M838.779 45.84 Q838.698 39.7232 835.335 36.0774 Q832.014 32.4315 826.505 32.4315 Q820.266 32.4315 816.499 35.9558 Q812.772 39.4801 812.205 45.8805 L838.779 45.84 Z" fill="#000000" fill-rule="nonzero" fill-opacity="1" /><path clip-path="url(#clip940)" d="M888.321 34.0924 L888.321 9.54393 L895.775 9.54393 L895.775 72.576 L888.321 72.576 L888.321 65.7705 Q885.972 69.8214 882.366 71.8063 Q878.802 73.7508 873.779 73.7508 Q865.555 73.7508 860.37 67.1883 Q855.225 60.6258 855.225 49.9314 Q855.225 39.2371 860.37 32.6746 Q865.555 26.1121 873.779 26.1121 Q878.802 26.1121 882.366 28.0971 Q885.972 30.0415 888.321 34.0924 M862.922 49.9314 Q862.922 58.1548 866.284 62.8538 Q869.687 67.5124 875.601 67.5124 Q881.516 67.5124 884.919 62.8538 Q888.321 58.1548 888.321 49.9314 Q888.321 41.7081 884.919 37.0496 Q881.516 32.3505 875.601 32.3505 Q869.687 32.3505 866.284 37.0496 Q862.922 41.7081 862.922 49.9314 Z" fill="#000000" fill-rule="nonzero" fill-opacity="1" /><path clip-path="url(#clip940)" d="M910.358 54.671 L910.358 27.2059 L917.812 27.2059 L917.812 54.3874 Q917.812 60.8284 920.323 64.0691 Q922.835 67.2693 927.858 67.2693 Q933.894 67.2693 937.378 63.421 Q940.902 59.5726 940.902 52.9291 L940.902 27.2059 L948.356 27.2059 L948.356 72.576 L940.902 72.576 L940.902 65.6084 Q938.188 69.7404 934.583 71.7658 Q931.018 73.7508 926.278 73.7508 Q918.46 73.7508 914.409 68.8897 Q910.358 64.0286 910.358 54.671 M929.114 26.1121 L929.114 26.1121 Z" fill="#000000" fill-rule="nonzero" fill-opacity="1" /><path clip-path="url(#clip940)" d="M970.919 65.7705 L970.919 89.8329 L963.425 89.8329 L963.425 27.2059 L970.919 27.2059 L970.919 34.0924 Q973.269 30.0415 976.834 28.0971 Q980.439 26.1121 985.421 26.1121 Q993.685 26.1121 998.83 32.6746 Q1004.02 39.2371 1004.02 49.9314 Q1004.02 60.6258 998.83 67.1883 Q993.685 73.7508 985.421 73.7508 Q980.439 73.7508 976.834 71.8063 Q973.269 69.8214 970.919 65.7705 M996.278 49.9314 Q996.278 41.7081 992.875 37.0496 Q989.513 32.3505 983.599 32.3505 Q977.684 32.3505 974.282 37.0496 Q970.919 41.7081 970.919 49.9314 Q970.919 58.1548 974.282 62.8538 Q977.684 67.5124 983.599 67.5124 Q989.513 67.5124 992.875 62.8538 Q996.278 58.1548 996.278 49.9314 Z" fill="#000000" fill-rule="nonzero" fill-opacity="1" /><path clip-path="url(#clip940)" d="M1042.74 9.54393 L1050.2 9.54393 L1050.2 72.576 L1042.74 72.576 L1042.74 9.54393 Z" fill="#000000" fill-rule="nonzero" fill-opacity="1" /><path clip-path="url(#clip940)" d="M1065.02 54.671 L1065.02 27.2059 L1072.48 27.2059 L1072.48 54.3874 Q1072.48 60.8284 1074.99 64.0691 Q1077.5 67.2693 1082.52 67.2693 Q1088.56 67.2693 1092.04 63.421 Q1095.57 59.5726 1095.57 52.9291 L1095.57 27.2059 L1103.02 27.2059 L1103.02 72.576 L1095.57 72.576 L1095.57 65.6084 Q1092.85 69.7404 1089.25 71.7658 Q1085.68 73.7508 1080.94 73.7508 Q1073.12 73.7508 1069.07 68.8897 Q1065.02 64.0286 1065.02 54.671 M1083.78 26.1121 L1083.78 26.1121 Z" fill="#000000" fill-rule="nonzero" fill-opacity="1" /><path clip-path="url(#clip940)" d="M1120.28 62.2867 L1128.82 62.2867 L1128.82 69.2543 L1122.18 82.2172 L1116.95 82.2172 L1120.28 69.2543 L1120.28 62.2867 Z" fill="#000000" fill-rule="nonzero" fill-opacity="1" /><path clip-path="url(#clip940)" d="M1178.33 65.7705 L1178.33 89.8329 L1170.83 89.8329 L1170.83 27.2059 L1178.33 27.2059 L1178.33 34.0924 Q1180.68 30.0415 1184.24 28.0971 Q1187.85 26.1121 1192.83 26.1121 Q1201.09 26.1121 1206.24 32.6746 Q1211.42 39.2371 1211.42 49.9314 Q1211.42 60.6258 1206.24 67.1883 Q1201.09 73.7508 1192.83 73.7508 Q1187.85 73.7508 1184.24 71.8063 Q1180.68 69.8214 1178.33 65.7705 M1203.68 49.9314 Q1203.68 41.7081 1200.28 37.0496 Q1196.92 32.3505 1191 32.3505 Q1185.09 32.3505 1181.69 37.0496 Q1178.33 41.7081 1178.33 49.9314 Q1178.33 58.1548 1181.69 62.8538 Q1185.09 67.5124 1191 67.5124 Q1196.92 67.5124 1200.28 62.8538 Q1203.68 58.1548 1203.68 49.9314 Z" fill="#000000" fill-rule="nonzero" fill-opacity="1" /><path clip-path="url(#clip940)" d="M1250.07 34.1734 Q1248.81 33.4443 1247.31 33.1202 Q1245.85 32.7556 1244.07 32.7556 Q1237.75 32.7556 1234.35 36.8875 Q1230.99 40.9789 1230.99 48.6757 L1230.99 72.576 L1223.49 72.576 L1223.49 27.2059 L1230.99 27.2059 L1230.99 34.2544 Q1233.34 30.1225 1237.1 28.1376 Q1240.87 26.1121 1246.26 26.1121 Q1247.03 26.1121 1247.96 26.2337 Q1248.89 26.3147 1250.03 26.5172 L1250.07 34.1734 Z" fill="#000000" fill-rule="nonzero" fill-opacity="1" /><path clip-path="url(#clip940)" d="M1294.87 48.0275 L1294.87 51.6733 L1260.6 51.6733 Q1261.09 59.3701 1265.22 63.421 Q1269.39 67.4314 1276.8 67.4314 Q1281.1 67.4314 1285.11 66.3781 Q1289.16 65.3249 1293.13 63.2184 L1293.13 70.267 Q1289.12 71.9684 1284.9 72.8596 Q1280.69 73.7508 1276.36 73.7508 Q1265.5 73.7508 1259.14 67.4314 Q1252.82 61.1119 1252.82 50.3365 Q1252.82 39.1965 1258.82 32.6746 Q1264.85 26.1121 1275.06 26.1121 Q1284.22 26.1121 1289.52 32.0264 Q1294.87 37.9003 1294.87 48.0275 M1287.42 45.84 Q1287.34 39.7232 1283.97 36.0774 Q1280.65 32.4315 1275.14 32.4315 Q1268.9 32.4315 1265.14 35.9558 Q1261.41 39.4801 1260.84 45.8805 L1287.42 45.84 Z" fill="#000000" fill-rule="nonzero" fill-opacity="1" /><path clip-path="url(#clip940)" d="M1336.03 28.5427 L1336.03 35.5912 Q1332.87 33.9709 1329.46 33.1607 Q1326.06 32.3505 1322.42 32.3505 Q1316.87 32.3505 1314.07 34.0519 Q1311.32 35.7533 1311.32 39.156 Q1311.32 41.7486 1313.3 43.2475 Q1315.29 44.7058 1321.28 46.0426 L1323.83 46.6097 Q1331.77 48.3111 1335.1 51.4303 Q1338.46 54.509 1338.46 60.0587 Q1338.46 66.3781 1333.43 70.0644 Q1328.45 73.7508 1319.7 73.7508 Q1316.06 73.7508 1312.09 73.0216 Q1308.16 72.3329 1303.78 70.9151 L1303.78 63.2184 Q1307.91 65.3654 1311.92 66.4591 Q1315.93 67.5124 1319.86 67.5124 Q1325.13 67.5124 1327.97 65.73 Q1330.8 63.9071 1330.8 60.6258 Q1330.8 57.5877 1328.74 55.9673 Q1326.71 54.3469 1319.78 52.8481 L1317.19 52.2405 Q1310.26 50.7821 1307.18 47.7845 Q1304.11 44.7463 1304.11 39.4801 Q1304.11 33.0797 1308.64 29.5959 Q1313.18 26.1121 1321.53 26.1121 Q1325.66 26.1121 1329.3 26.7198 Q1332.95 27.3274 1336.03 28.5427 Z" fill="#000000" fill-rule="nonzero" fill-opacity="1" /><path clip-path="url(#clip940)" d="M1389.13 48.0275 L1389.13 51.6733 L1354.86 51.6733 Q1355.35 59.3701 1359.48 63.421 Q1363.65 67.4314 1371.07 67.4314 Q1375.36 67.4314 1379.37 66.3781 Q1383.42 65.3249 1387.39 63.2184 L1387.39 70.267 Q1383.38 71.9684 1379.17 72.8596 Q1374.96 73.7508 1370.62 73.7508 Q1359.77 73.7508 1353.41 67.4314 Q1347.09 61.1119 1347.09 50.3365 Q1347.09 39.1965 1353.08 32.6746 Q1359.12 26.1121 1369.33 26.1121 Q1378.48 26.1121 1383.79 32.0264 Q1389.13 37.9003 1389.13 48.0275 M1381.68 45.84 Q1381.6 39.7232 1378.24 36.0774 Q1374.92 32.4315 1369.41 32.4315 Q1363.17 32.4315 1359.4 35.9558 Q1355.67 39.4801 1355.11 45.8805 L1381.68 45.84 Z" fill="#000000" fill-rule="nonzero" fill-opacity="1" /><path clip-path="url(#clip940)" d="M1408.74 14.324 L1408.74 27.2059 L1424.09 27.2059 L1424.09 32.9987 L1408.74 32.9987 L1408.74 57.6282 Q1408.74 63.1779 1410.24 64.7578 Q1411.78 66.3376 1416.44 66.3376 L1424.09 66.3376 L1424.09 72.576 L1416.44 72.576 Q1407.81 72.576 1404.53 69.3758 Q1401.25 66.1351 1401.25 57.6282 L1401.25 32.9987 L1395.78 32.9987 L1395.78 27.2059 L1401.25 27.2059 L1401.25 14.324 L1408.74 14.324 Z" fill="#000000" fill-rule="nonzero" fill-opacity="1" /><path clip-path="url(#clip940)" d="M1467.32 12.096 L1467.32 34.5785 L1460.43 34.5785 L1460.43 12.096 L1467.32 12.096 Z" fill="#000000" fill-rule="nonzero" fill-opacity="1" /><path clip-path="url(#clip940)" d="M1490.29 65.7705 L1490.29 89.8329 L1482.79 89.8329 L1482.79 27.2059 L1490.29 27.2059 L1490.29 34.0924 Q1492.64 30.0415 1496.2 28.0971 Q1499.81 26.1121 1504.79 26.1121 Q1513.05 26.1121 1518.2 32.6746 Q1523.38 39.2371 1523.38 49.9314 Q1523.38 60.6258 1518.2 67.1883 Q1513.05 73.7508 1504.79 73.7508 Q1499.81 73.7508 1496.2 71.8063 Q1492.64 69.8214 1490.29 65.7705 M1515.64 49.9314 Q1515.64 41.7081 1512.24 37.0496 Q1508.88 32.3505 1502.97 32.3505 Q1497.05 32.3505 1493.65 37.0496 Q1490.29 41.7081 1490.29 49.9314 Q1490.29 58.1548 1493.65 62.8538 Q1497.05 67.5124 1502.97 67.5124 Q1508.88 67.5124 1512.24 62.8538 Q1515.64 58.1548 1515.64 49.9314 Z" fill="#000000" fill-rule="nonzero" fill-opacity="1" /><path clip-path="url(#clip940)" d="M1556.36 49.7694 Q1547.32 49.7694 1543.84 51.8354 Q1540.35 53.9013 1540.35 58.8839 Q1540.35 62.8538 1542.95 65.2034 Q1545.58 67.5124 1550.08 67.5124 Q1556.27 67.5124 1560 63.1374 Q1563.77 58.7219 1563.77 51.4303 L1563.77 49.7694 L1556.36 49.7694 M1571.22 46.6907 L1571.22 72.576 L1563.77 72.576 L1563.77 65.6895 Q1561.22 69.8214 1557.41 71.8063 Q1553.6 73.7508 1548.09 73.7508 Q1541.12 73.7508 1536.99 69.8619 Q1532.9 65.9325 1532.9 59.3701 Q1532.9 51.7138 1538.01 47.825 Q1543.15 43.9361 1553.32 43.9361 L1563.77 43.9361 L1563.77 43.2069 Q1563.77 38.0623 1560.37 35.2672 Q1557 32.4315 1550.89 32.4315 Q1547 32.4315 1543.31 33.3632 Q1539.63 34.295 1536.22 36.1584 L1536.22 29.2718 Q1540.31 27.692 1544.16 26.9223 Q1548.01 26.1121 1551.66 26.1121 Q1561.5 26.1121 1566.36 31.2163 Q1571.22 36.3204 1571.22 46.6907 Z" fill="#000000" fill-rule="nonzero" fill-opacity="1" /><path clip-path="url(#clip940)" d="M1593.79 65.7705 L1593.79 89.8329 L1586.29 89.8329 L1586.29 27.2059 L1593.79 27.2059 L1593.79 34.0924 Q1596.14 30.0415 1599.7 28.0971 Q1603.31 26.1121 1608.29 26.1121 Q1616.55 26.1121 1621.7 32.6746 Q1626.88 39.2371 1626.88 49.9314 Q1626.88 60.6258 1621.7 67.1883 Q1616.55 73.7508 1608.29 73.7508 Q1603.31 73.7508 1599.7 71.8063 Q1596.14 69.8214 1593.79 65.7705 M1619.14 49.9314 Q1619.14 41.7081 1615.74 37.0496 Q1612.38 32.3505 1606.47 32.3505 Q1600.55 32.3505 1597.15 37.0496 Q1593.79 41.7081 1593.79 49.9314 Q1593.79 58.1548 1597.15 62.8538 Q1600.55 67.5124 1606.47 67.5124 Q1612.38 67.5124 1615.74 62.8538 Q1619.14 58.1548 1619.14 49.9314 Z" fill="#000000" fill-rule="nonzero" fill-opacity="1" /><path clip-path="url(#clip940)" d="M1678.05 48.0275 L1678.05 51.6733 L1643.77 51.6733 Q1644.26 59.3701 1648.39 63.421 Q1652.56 67.4314 1659.98 67.4314 Q1664.27 67.4314 1668.28 66.3781 Q1672.33 65.3249 1676.3 63.2184 L1676.3 70.267 Q1672.29 71.9684 1668.08 72.8596 Q1663.87 73.7508 1659.53 73.7508 Q1648.68 73.7508 1642.32 67.4314 Q1636 61.1119 1636 50.3365 Q1636 39.1965 1641.99 32.6746 Q1648.03 26.1121 1658.24 26.1121 Q1667.39 26.1121 1672.7 32.0264 Q1678.05 37.9003 1678.05 48.0275 M1670.59 45.84 Q1670.51 39.7232 1667.15 36.0774 Q1663.83 32.4315 1658.32 32.4315 Q1652.08 32.4315 1648.31 35.9558 Q1644.58 39.4801 1644.02 45.8805 L1670.59 45.84 Z" fill="#000000" fill-rule="nonzero" fill-opacity="1" /><path clip-path="url(#clip940)" d="M1716.57 34.1734 Q1715.31 33.4443 1713.81 33.1202 Q1712.36 32.7556 1710.57 32.7556 Q1704.25 32.7556 1700.85 36.8875 Q1697.49 40.9789 1697.49 48.6757 L1697.49 72.576 L1690 72.576 L1690 27.2059 L1697.49 27.2059 L1697.49 34.2544 Q1699.84 30.1225 1703.61 28.1376 Q1707.37 26.1121 1712.76 26.1121 Q1713.53 26.1121 1714.46 26.2337 Q1715.39 26.3147 1716.53 26.5172 L1716.57 34.1734 Z" fill="#000000" fill-rule="nonzero" fill-opacity="1" /><path clip-path="url(#clip940)" d="M1731.44 12.096 L1731.44 34.5785 L1724.55 34.5785 L1724.55 12.096 L1731.44 12.096 Z" fill="#000000" fill-rule="nonzero" fill-opacity="1" /><path clip-path="url(#clip940)" d="M1749.1 62.2867 L1757.65 62.2867 L1757.65 69.2543 L1751 82.2172 L1745.78 82.2172 L1749.1 69.2543 L1749.1 62.2867 Z" fill="#000000" fill-rule="nonzero" fill-opacity="1" /><path clip-path="url(#clip940)" d="M1845.55 16.7545 L1845.55 25.383 Q1841.42 21.5346 1836.72 19.6307 Q1832.06 17.7268 1826.79 17.7268 Q1816.42 17.7268 1810.91 24.0867 Q1805.41 30.4061 1805.41 42.3968 Q1805.41 54.3469 1810.91 60.7069 Q1816.42 67.0263 1826.79 67.0263 Q1832.06 67.0263 1836.72 65.1223 Q1841.42 63.2184 1845.55 59.3701 L1845.55 67.9175 Q1841.26 70.8341 1836.44 72.2924 Q1831.66 73.7508 1826.31 73.7508 Q1812.58 73.7508 1804.68 65.3654 Q1796.78 56.9395 1796.78 42.3968 Q1796.78 27.8135 1804.68 19.4281 Q1812.58 11.0023 1826.31 11.0023 Q1831.74 11.0023 1836.52 12.4606 Q1841.34 13.8784 1845.55 16.7545 Z" fill="#000000" fill-rule="nonzero" fill-opacity="1" /><path clip-path="url(#clip940)" d="M1866.37 18.8205 L1866.37 41.5461 L1876.66 41.5461 Q1882.37 41.5461 1885.49 38.5889 Q1888.61 35.6318 1888.61 30.163 Q1888.61 24.7348 1885.49 21.7777 Q1882.37 18.8205 1876.66 18.8205 L1866.37 18.8205 M1858.19 12.096 L1876.66 12.096 Q1886.83 12.096 1892.01 16.714 Q1897.24 21.2916 1897.24 30.163 Q1897.24 39.1155 1892.01 43.6931 Q1886.83 48.2706 1876.66 48.2706 L1866.37 48.2706 L1866.37 72.576 L1858.19 72.576 L1858.19 12.096 Z" fill="#000000" fill-rule="nonzero" fill-opacity="1" /><path clip-path="url(#clip940)" d="M1907.29 12.096 L1915.51 12.096 L1915.51 48.8377 Q1915.51 58.5599 1919.03 62.8538 Q1922.56 67.1073 1930.46 67.1073 Q1938.32 67.1073 1941.84 62.8538 Q1945.36 58.5599 1945.36 48.8377 L1945.36 12.096 L1953.59 12.096 L1953.59 49.8504 Q1953.59 61.6791 1947.71 67.7149 Q1941.88 73.7508 1930.46 73.7508 Q1918.99 73.7508 1913.12 67.7149 Q1907.29 61.6791 1907.29 49.8504 L1907.29 12.096 Z" fill="#000000" fill-rule="nonzero" fill-opacity="1" /><path clip-path="url(#clip942)" d="M318.298 321.885 L318.298 1321.26 L625.988 1321.26 L625.988 321.885 L318.298 321.885 L318.298 321.885  Z" fill="#808080" fill-rule="evenodd" fill-opacity="1"/>
<polyline clip-path="url(#clip942)" style="stroke:#000000; stroke-linecap:round; stroke-linejoin:round; stroke-width:4; stroke-opacity:1; fill:none" points="318.298,321.885 318.298,1321.26 625.988,1321.26 625.988,321.885 318.298,321.885 "/>
<circle clip-path="url(#clip942)" style="fill:#808080; stroke:none; fill-opacity:0" cx="472.143" cy="321.885" r="2"/>
<polyline clip-path="url(#clip942)" style="stroke:#000000; stroke-linecap:round; stroke-linejoin:round; stroke-width:4; stroke-opacity:1; fill:none" points="472.143,321.885 472.143,321.885 "/>
<line clip-path="url(#clip942)" x1="488.143" y1="321.885" x2="456.143" y2="321.885" style="stroke:#000000; stroke-width:4; stroke-opacity:1"/>
<line clip-path="url(#clip942)" x1="488.143" y1="321.885" x2="456.143" y2="321.885" style="stroke:#000000; stroke-width:4; stroke-opacity:1"/>
<path clip-path="url(#clip942)" d="M920.931 232.362 L920.931 1321.26 L1228.62 1321.26 L1228.62 232.362 L920.931 232.362 L920.931 232.362  Z" fill="#17913e" fill-rule="evenodd" fill-opacity="1"/>
<polyline clip-path="url(#clip942)" style="stroke:#000000; stroke-linecap:round; stroke-linejoin:round; stroke-width:4; stroke-opacity:1; fill:none" points="920.931,232.362 920.931,1321.26 1228.62,1321.26 1228.62,232.362 920.931,232.362 "/>
<circle clip-path="url(#clip942)" style="fill:#17913e; stroke:none; fill-opacity:0" cx="1074.78" cy="232.362" r="2"/>
<polyline clip-path="url(#clip942)" style="stroke:#000000; stroke-linecap:round; stroke-linejoin:round; stroke-width:4; stroke-opacity:1; fill:none" points="1074.78,232.362 1074.78,232.362 "/>
<line clip-path="url(#clip942)" x1="1090.78" y1="232.362" x2="1058.78" y2="232.362" style="stroke:#000000; stroke-width:4; stroke-opacity:1"/>
<line clip-path="url(#clip942)" x1="1090.78" y1="232.362" x2="1058.78" y2="232.362" style="stroke:#000000; stroke-width:4; stroke-opacity:1"/>
<path clip-path="url(#clip942)" d="M1523.57 519.685 L1523.57 1321.26 L1831.26 1321.26 L1831.26 519.685 L1523.57 519.685 L1523.57 519.685  Z" fill="#3065a6" fill-rule="evenodd" fill-opacity="1"/>
<polyline clip-path="url(#clip942)" style="stroke:#000000; stroke-linecap:round; stroke-linejoin:round; stroke-width:4; stroke-opacity:1; fill:none" points="1523.57,519.685 1523.57,1321.26 1831.26,1321.26 1831.26,519.685 1523.57,519.685 "/>
<path clip-path="url(#clip942)" d="M1963.12 896.979 L1963.12 1321.26 L2270.81 1321.26 L2270.81 896.979 L1963.12 896.979 L1963.12 896.979  Z" fill="#3065a6" fill-rule="evenodd" fill-opacity="1"/>
<polyline clip-path="url(#clip942)" style="stroke:#000000; stroke-linecap:round; stroke-linejoin:round; stroke-width:4; stroke-opacity:1; fill:none" points="1963.12,896.979 1963.12,1321.26 2270.81,1321.26 2270.81,896.979 1963.12,896.979 "/>
<circle clip-path="url(#clip942)" style="fill:#3065a6; stroke:none; fill-opacity:0" cx="1677.41" cy="519.685" r="2"/>
<circle clip-path="url(#clip942)" style="fill:#3065a6; stroke:none; fill-opacity:0" cx="2116.97" cy="896.979" r="2"/>
<polyline clip-path="url(#clip942)" style="stroke:#000000; stroke-linecap:round; stroke-linejoin:round; stroke-width:4; stroke-opacity:1; fill:none" points="1677.41,535.102 1677.41,502.079 "/>
<polyline clip-path="url(#clip942)" style="stroke:#000000; stroke-linecap:round; stroke-linejoin:round; stroke-width:4; stroke-opacity:1; fill:none" points="2116.97,898.063 2116.97,893.191 "/>
<line clip-path="url(#clip942)" x1="1693.41" y1="535.102" x2="1661.41" y2="535.102" style="stroke:#000000; stroke-width:4; stroke-opacity:1"/>
<line clip-path="url(#clip942)" x1="1693.41" y1="502.079" x2="1661.41" y2="502.079" style="stroke:#000000; stroke-width:4; stroke-opacity:1"/>
<line clip-path="url(#clip942)" x1="2132.97" y1="898.063" x2="2100.97" y2="898.063" style="stroke:#000000; stroke-width:4; stroke-opacity:1"/>
<line clip-path="url(#clip942)" x1="2132.97" y1="893.191" x2="2100.97" y2="893.191" style="stroke:#000000; stroke-width:4; stroke-opacity:1"/>
<path clip-path="url(#clip940)" d="M1914.83 370.758 L2282.65 370.758 L2282.65 163.398 L1914.83 163.398  Z" fill="#ffffff" fill-rule="evenodd" fill-opacity="1"/>
<polyline clip-path="url(#clip940)" style="stroke:#000000; stroke-linecap:round; stroke-linejoin:round; stroke-width:4; stroke-opacity:1; fill:none" points="1914.83,370.758 2282.65,370.758 2282.65,163.398 1914.83,163.398 1914.83,370.758 "/>
<path clip-path="url(#clip940)" d="M1938.2 235.974 L2078.41 235.974 L2078.41 194.502 L1938.2 194.502 L1938.2 235.974  Z" fill="#808080" fill-rule="evenodd" fill-opacity="1"/>
<polyline clip-path="url(#clip940)" style="stroke:#000000; stroke-linecap:round; stroke-linejoin:round; stroke-width:4; stroke-opacity:1; fill:none" points="1938.2,235.974 2078.41,235.974 2078.41,194.502 1938.2,194.502 1938.2,235.974 "/>
<path clip-path="url(#clip940)" d="M2129.65 200.62 L2129.65 205.551 Q2127.29 203.352 2124.6 202.264 Q2121.94 201.176 2118.93 201.176 Q2113.01 201.176 2109.86 204.81 Q2106.71 208.421 2106.71 215.273 Q2106.71 222.102 2109.86 225.736 Q2113.01 229.347 2118.93 229.347 Q2121.94 229.347 2124.6 228.259 Q2127.29 227.171 2129.65 224.972 L2129.65 229.856 Q2127.2 231.523 2124.44 232.356 Q2121.71 233.19 2118.66 233.19 Q2110.81 233.19 2106.29 228.398 Q2101.78 223.583 2101.78 215.273 Q2101.78 206.94 2106.29 202.148 Q2110.81 197.333 2118.66 197.333 Q2121.76 197.333 2124.49 198.167 Q2127.24 198.977 2129.65 200.62 Z" fill="#000000" fill-rule="nonzero" fill-opacity="1" /><path clip-path="url(#clip940)" d="M1938.2 287.814 L2078.41 287.814 L2078.41 246.342 L1938.2 246.342 L1938.2 287.814  Z" fill="#17913e" fill-rule="evenodd" fill-opacity="1"/>
<polyline clip-path="url(#clip940)" style="stroke:#000000; stroke-linecap:round; stroke-linejoin:round; stroke-width:4; stroke-opacity:1; fill:none" points="1938.2,287.814 2078.41,287.814 2078.41,246.342 1938.2,246.342 1938.2,287.814 "/>
<path clip-path="url(#clip940)" d="M2107.1 258.433 L2111.36 258.433 L2111.36 284.821 Q2111.36 289.775 2109.47 291.997 Q2107.59 294.219 2103.4 294.219 L2101.78 294.219 L2101.78 290.608 L2102.91 290.608 Q2105.35 290.608 2106.22 289.474 Q2107.1 288.363 2107.1 284.821 L2107.1 258.433 M2107.1 248.34 L2111.36 248.34 L2111.36 253.733 L2107.1 253.733 L2107.1 248.34 Z" fill="#000000" fill-rule="nonzero" fill-opacity="1" /><path clip-path="url(#clip940)" d="M2119.84 274.127 L2119.84 258.433 L2124.1 258.433 L2124.1 273.965 Q2124.1 277.645 2125.53 279.497 Q2126.97 281.326 2129.84 281.326 Q2133.29 281.326 2135.28 279.127 Q2137.29 276.928 2137.29 273.131 L2137.29 258.433 L2141.55 258.433 L2141.55 284.358 L2137.29 284.358 L2137.29 280.377 Q2135.74 282.738 2133.68 283.895 Q2131.64 285.03 2128.93 285.03 Q2124.47 285.03 2122.15 282.252 Q2119.84 279.474 2119.84 274.127 M2130.55 257.808 L2130.55 257.808 Z" fill="#000000" fill-rule="nonzero" fill-opacity="1" /><path clip-path="url(#clip940)" d="M2150.32 248.34 L2154.58 248.34 L2154.58 284.358 L2150.32 284.358 L2150.32 248.34 Z" fill="#000000" fill-rule="nonzero" fill-opacity="1" /><path clip-path="url(#clip940)" d="M2163.49 258.433 L2167.75 258.433 L2167.75 284.358 L2163.49 284.358 L2163.49 258.433 M2163.49 248.34 L2167.75 248.34 L2167.75 253.733 L2163.49 253.733 L2163.49 248.34 Z" fill="#000000" fill-rule="nonzero" fill-opacity="1" /><path clip-path="url(#clip940)" d="M2188.45 271.326 Q2183.28 271.326 2181.29 272.506 Q2179.3 273.687 2179.3 276.534 Q2179.3 278.803 2180.78 280.145 Q2182.29 281.465 2184.86 281.465 Q2188.4 281.465 2190.53 278.965 Q2192.68 276.442 2192.68 272.275 L2192.68 271.326 L2188.45 271.326 M2196.94 269.567 L2196.94 284.358 L2192.68 284.358 L2192.68 280.423 Q2191.22 282.784 2189.05 283.918 Q2186.87 285.03 2183.72 285.03 Q2179.74 285.03 2177.38 282.807 Q2175.04 280.562 2175.04 276.812 Q2175.04 272.437 2177.96 270.215 Q2180.9 267.993 2186.71 267.993 L2192.68 267.993 L2192.68 267.576 Q2192.68 264.636 2190.74 263.039 Q2188.82 261.419 2185.32 261.419 Q2183.1 261.419 2180.99 261.951 Q2178.89 262.483 2176.94 263.548 L2176.94 259.613 Q2179.28 258.71 2181.48 258.27 Q2183.68 257.808 2185.76 257.808 Q2191.39 257.808 2194.16 260.724 Q2196.94 263.641 2196.94 269.567 Z" fill="#000000" fill-rule="nonzero" fill-opacity="1" /><path clip-path="url(#clip940)" d="M1938.2 339.654 L2078.41 339.654 L2078.41 298.182 L1938.2 298.182 L1938.2 339.654  Z" fill="#3065a6" fill-rule="evenodd" fill-opacity="1"/>
<polyline clip-path="url(#clip940)" style="stroke:#000000; stroke-linecap:round; stroke-linejoin:round; stroke-width:4; stroke-opacity:1; fill:none" points="1938.2,339.654 2078.41,339.654 2078.41,298.182 1938.2,298.182 1938.2,339.654 "/>
<path clip-path="url(#clip940)" d="M2106.06 332.309 L2106.06 346.059 L2101.78 346.059 L2101.78 310.273 L2106.06 310.273 L2106.06 314.208 Q2107.41 311.893 2109.44 310.782 Q2111.5 309.648 2114.35 309.648 Q2119.07 309.648 2122.01 313.397 Q2124.97 317.147 2124.97 323.259 Q2124.97 329.37 2122.01 333.12 Q2119.07 336.87 2114.35 336.87 Q2111.5 336.87 2109.44 335.758 Q2107.41 334.624 2106.06 332.309 M2120.55 323.259 Q2120.55 318.559 2118.61 315.897 Q2116.69 313.212 2113.31 313.212 Q2109.93 313.212 2107.98 315.897 Q2106.06 318.559 2106.06 323.259 Q2106.06 327.958 2107.98 330.643 Q2109.93 333.305 2113.31 333.305 Q2116.69 333.305 2118.61 330.643 Q2120.55 327.958 2120.55 323.259 Z" fill="#000000" fill-rule="nonzero" fill-opacity="1" /><path clip-path="url(#clip940)" d="M2142.82 338.606 Q2141.02 343.235 2139.3 344.647 Q2137.59 346.059 2134.72 346.059 L2131.32 346.059 L2131.32 342.495 L2133.82 342.495 Q2135.58 342.495 2136.55 341.661 Q2137.52 340.828 2138.7 337.726 L2139.47 335.782 L2128.98 310.273 L2133.49 310.273 L2141.6 330.55 L2149.7 310.273 L2154.21 310.273 L2142.82 338.606 Z" fill="#000000" fill-rule="nonzero" fill-opacity="1" /><path clip-path="url(#clip940)" d="M2164.3 302.911 L2164.3 310.273 L2173.08 310.273 L2173.08 313.583 L2164.3 313.583 L2164.3 327.657 Q2164.3 330.828 2165.16 331.731 Q2166.04 332.633 2168.7 332.633 L2173.08 332.633 L2173.08 336.198 L2168.7 336.198 Q2163.77 336.198 2161.9 334.37 Q2160.02 332.518 2160.02 327.657 L2160.02 313.583 L2156.9 313.583 L2156.9 310.273 L2160.02 310.273 L2160.02 302.911 L2164.3 302.911 Z" fill="#000000" fill-rule="nonzero" fill-opacity="1" /><path clip-path="url(#clip940)" d="M2200.23 320.55 L2200.23 336.198 L2195.97 336.198 L2195.97 320.689 Q2195.97 317.009 2194.53 315.18 Q2193.1 313.351 2190.23 313.351 Q2186.78 313.351 2184.79 315.55 Q2182.8 317.749 2182.8 321.546 L2182.8 336.198 L2178.52 336.198 L2178.52 300.18 L2182.8 300.18 L2182.8 314.3 Q2184.33 311.962 2186.39 310.805 Q2188.47 309.648 2191.18 309.648 Q2195.65 309.648 2197.94 312.425 Q2200.23 315.18 2200.23 320.55 Z" fill="#000000" fill-rule="nonzero" fill-opacity="1" /><path clip-path="url(#clip940)" d="M2218.77 313.259 Q2215.34 313.259 2213.35 315.944 Q2211.36 318.606 2211.36 323.259 Q2211.36 327.911 2213.33 330.596 Q2215.32 333.258 2218.77 333.258 Q2222.17 333.258 2224.16 330.573 Q2226.15 327.888 2226.15 323.259 Q2226.15 318.652 2224.16 315.967 Q2222.17 313.259 2218.77 313.259 M2218.77 309.648 Q2224.33 309.648 2227.5 313.259 Q2230.67 316.87 2230.67 323.259 Q2230.67 329.624 2227.5 333.258 Q2224.33 336.87 2218.77 336.87 Q2213.19 336.87 2210.02 333.258 Q2206.87 329.624 2206.87 323.259 Q2206.87 316.87 2210.02 313.259 Q2213.19 309.648 2218.77 309.648 Z" fill="#000000" fill-rule="nonzero" fill-opacity="1" /><path clip-path="url(#clip940)" d="M2259.28 320.55 L2259.28 336.198 L2255.02 336.198 L2255.02 320.689 Q2255.02 317.009 2253.59 315.18 Q2252.15 313.351 2249.28 313.351 Q2245.83 313.351 2243.84 315.55 Q2241.85 317.749 2241.85 321.546 L2241.85 336.198 L2237.57 336.198 L2237.57 310.273 L2241.85 310.273 L2241.85 314.3 Q2243.38 311.962 2245.44 310.805 Q2247.52 309.648 2250.23 309.648 Q2254.7 309.648 2256.99 312.425 Q2259.28 315.18 2259.28 320.55 Z" fill="#000000" fill-rule="nonzero" fill-opacity="1" /></svg>
