<?xml version="1.0" encoding="utf-8"?>
<svg xmlns="http://www.w3.org/2000/svg" xmlns:xlink="http://www.w3.org/1999/xlink" width="600" height="400" viewBox="0 0 2400 1600">
<defs>
  <clipPath id="clip300">
    <rect x="0" y="0" width="2400" height="1600"/>
  </clipPath>
</defs>
<path clip-path="url(#clip300)" d="M0 1600 L2400 1600 L2400 0 L0 0  Z" fill="#ffffff" fill-rule="evenodd" fill-opacity="1"/>
<defs>
  <clipPath id="clip301">
    <rect x="480" y="0" width="1681" height="1600"/>
  </clipPath>
</defs>
<path clip-path="url(#clip300)" d="M175.445 1336.06 L2352.76 1336.06 L2352.76 123.472 L175.445 123.472  Z" fill="#ffffff" fill-rule="evenodd" fill-opacity="1"/>
<defs>
  <clipPath id="clip302">
    <rect x="175" y="123" width="2178" height="1214"/>
  </clipPath>
</defs>
<polyline clip-path="url(#clip302)" style="stroke:#000000; stroke-linecap:round; stroke-linejoin:round; stroke-width:2; stroke-opacity:0.1; fill:none" points="597.72,1336.06 597.72,123.472 "/>
<polyline clip-path="url(#clip302)" style="stroke:#000000; stroke-linecap:round; stroke-linejoin:round; stroke-width:2; stroke-opacity:0.1; fill:none" points="1930.48,1336.06 1930.48,123.472 "/>
<polyline clip-path="url(#clip300)" style="stroke:#000000; stroke-linecap:round; stroke-linejoin:round; stroke-width:4; stroke-opacity:1; fill:none" points="175.445,1336.06 2352.76,1336.06 "/>
<polyline clip-path="url(#clip300)" style="stroke:#000000; stroke-linecap:round; stroke-linejoin:round; stroke-width:4; stroke-opacity:1; fill:none" points="597.72,1336.06 597.72,1317.17 "/>
<polyline clip-path="url(#clip300)" style="stroke:#000000; stroke-linecap:round; stroke-linejoin:round; stroke-width:4; stroke-opacity:1; fill:none" points="1930.48,1336.06 1930.48,1317.17 "/>
<path clip-path="url(#clip300)" d="M468.371 1505.25 L479.435 1516.31 L476.424 1519.33 L465.457 1508.36 Q462.855 1505.76 460.547 1505.48 Q458.239 1505.2 456.209 1507.23 Q453.77 1509.67 453.918 1512.63 Q454.065 1515.59 456.749 1518.28 L467.11 1528.64 L464.082 1531.67 L445.75 1513.34 L448.778 1510.31 L451.626 1513.16 Q451.053 1510.42 451.691 1508.15 Q452.346 1505.86 454.261 1503.94 Q457.42 1500.78 461.005 1501.13 Q464.573 1501.45 468.371 1505.25 Z" fill="#000000" fill-rule="nonzero" fill-opacity="1" /><path clip-path="url(#clip300)" d="M484.559 1492.76 Q480.909 1496.41 480.336 1498.65 Q479.763 1500.9 481.776 1502.91 Q483.38 1504.51 485.377 1504.42 Q487.374 1504.28 489.191 1502.47 Q491.695 1499.96 491.433 1496.69 Q491.171 1493.38 488.225 1490.44 L487.554 1489.77 L484.559 1492.76 M489.322 1485.51 L499.781 1495.97 L496.769 1498.98 L493.987 1496.2 Q494.625 1498.9 493.889 1501.24 Q493.136 1503.56 490.91 1505.79 Q488.094 1508.61 484.853 1508.7 Q481.612 1508.77 478.961 1506.12 Q475.867 1503.02 476.358 1499.39 Q476.866 1495.74 480.974 1491.63 L485.197 1487.41 L484.902 1487.11 Q482.824 1485.04 480.319 1485.28 Q477.815 1485.49 475.343 1487.97 Q473.772 1489.54 472.659 1491.4 Q471.546 1493.27 470.924 1495.4 L468.141 1492.61 Q469.156 1490.32 470.4 1488.46 Q471.628 1486.57 473.101 1485.1 Q477.078 1481.12 481.105 1481.22 Q485.132 1481.32 489.322 1485.51 Z" fill="#000000" fill-rule="nonzero" fill-opacity="1" /><path clip-path="url(#clip300)" d="M487.652 1471.43 L490.664 1468.42 L508.996 1486.75 L505.985 1489.77 L487.652 1471.43 M480.516 1464.3 L483.527 1461.29 L487.341 1465.1 L484.33 1468.11 L480.516 1464.3 Z" fill="#000000" fill-rule="nonzero" fill-opacity="1" /><path clip-path="url(#clip300)" d="M494.805 1464.28 L497.997 1461.09 L519.112 1470.75 L509.455 1449.63 L512.646 1446.44 L524.104 1471.65 L520.012 1475.74 L494.805 1464.28 Z" fill="#000000" fill-rule="nonzero" fill-opacity="1" /><path clip-path="url(#clip300)" d="M540.898 1435.01 L542.371 1436.49 L528.523 1450.33 Q531.83 1453.25 535.136 1453.22 Q538.443 1453.15 541.438 1450.15 Q543.173 1448.42 544.368 1446.37 Q545.579 1444.31 546.332 1441.86 L549.18 1444.7 Q548.247 1447.01 546.905 1449.07 Q545.563 1451.14 543.811 1452.89 Q539.425 1457.27 534.301 1457.29 Q529.195 1457.29 524.841 1452.94 Q520.339 1448.44 520.127 1443.38 Q519.914 1438.29 524.039 1434.16 Q527.738 1430.46 532.272 1430.71 Q536.806 1430.92 540.898 1435.01 M537.002 1437.14 Q534.498 1434.7 531.666 1434.59 Q528.851 1434.46 526.625 1436.68 Q524.104 1439.2 524.006 1442.15 Q523.924 1445.08 526.281 1447.9 L537.002 1437.14 Z" fill="#000000" fill-rule="nonzero" fill-opacity="1" /><path clip-path="url(#clip300)" d="M548.214 1396.66 Q549.786 1402.62 552.405 1407.37 Q555.023 1412.12 558.804 1415.9 Q562.586 1419.68 567.365 1422.33 Q572.145 1424.95 578.07 1426.52 L575.451 1429.14 Q569.149 1427.75 564.206 1425.26 Q559.279 1422.75 555.613 1419.09 Q551.963 1415.44 549.475 1410.53 Q546.987 1405.62 545.595 1399.28 L548.214 1396.66 Z" fill="#000000" fill-rule="nonzero" fill-opacity="1" /><path clip-path="url(#clip300)" d="M575.369 1375.27 L578.855 1378.76 Q575.631 1378.87 572.963 1380 Q570.311 1381.11 568.183 1383.24 Q563.993 1387.43 564.337 1392.23 Q564.664 1397.01 569.509 1401.85 Q574.338 1406.68 579.134 1407.02 Q583.913 1407.35 588.103 1403.16 Q590.231 1401.03 591.344 1398.38 Q592.474 1395.71 592.588 1392.49 L596.042 1395.94 Q595.485 1398.86 594.127 1401.39 Q592.785 1403.91 590.624 1406.08 Q585.075 1411.62 578.495 1411.43 Q571.899 1411.22 566.023 1405.34 Q560.13 1399.45 559.934 1392.87 Q559.721 1386.27 565.27 1380.72 Q567.463 1378.53 569.984 1377.19 Q572.505 1375.81 575.369 1375.27 Z" fill="#000000" fill-rule="nonzero" fill-opacity="1" /><path clip-path="url(#clip300)" d="M576.989 1367.89 L579.608 1365.27 Q585.926 1366.68 590.837 1369.17 Q595.764 1371.64 599.414 1375.29 Q603.08 1378.95 605.568 1383.9 Q608.073 1388.82 609.464 1395.13 L606.845 1397.74 Q605.274 1391.82 602.638 1387.06 Q600.003 1382.26 596.222 1378.48 Q592.441 1374.7 587.678 1372.1 Q582.931 1369.48 576.989 1367.89 Z" fill="#000000" fill-rule="nonzero" fill-opacity="1" /><path clip-path="url(#clip300)" d="M1814.65 1491.73 L1825.72 1502.79 L1822.71 1505.81 L1811.74 1494.84 Q1809.14 1492.24 1806.83 1491.96 Q1804.52 1491.68 1802.49 1493.71 Q1800.05 1496.15 1800.2 1499.11 Q1800.35 1502.07 1803.03 1504.76 L1813.39 1515.12 L1810.36 1518.15 L1792.03 1499.82 L1795.06 1496.79 L1797.91 1499.64 Q1797.33 1496.9 1797.97 1494.63 Q1798.63 1492.34 1800.54 1490.42 Q1803.7 1487.26 1807.29 1487.61 Q1810.85 1487.93 1814.65 1491.73 Z" fill="#000000" fill-rule="nonzero" fill-opacity="1" /><path clip-path="url(#clip300)" d="M1830.84 1479.24 Q1827.19 1482.89 1826.62 1485.13 Q1826.04 1487.38 1828.06 1489.39 Q1829.66 1490.99 1831.66 1490.9 Q1833.66 1490.76 1835.47 1488.95 Q1837.98 1486.44 1837.72 1483.17 Q1837.45 1479.86 1834.51 1476.92 L1833.84 1476.25 L1830.84 1479.24 M1835.6 1471.99 L1846.06 1482.45 L1843.05 1485.46 L1840.27 1482.68 Q1840.91 1485.38 1840.17 1487.72 Q1839.42 1490.04 1837.19 1492.27 Q1834.38 1495.09 1831.14 1495.18 Q1827.89 1495.25 1825.24 1492.6 Q1822.15 1489.5 1822.64 1485.87 Q1823.15 1482.22 1827.26 1478.11 L1831.48 1473.89 L1831.18 1473.59 Q1829.11 1471.52 1826.6 1471.76 Q1824.1 1471.97 1821.63 1474.45 Q1820.05 1476.02 1818.94 1477.88 Q1817.83 1479.75 1817.21 1481.88 L1814.42 1479.09 Q1815.44 1476.8 1816.68 1474.94 Q1817.91 1473.05 1819.38 1471.58 Q1823.36 1467.6 1827.39 1467.7 Q1831.41 1467.8 1835.6 1471.99 Z" fill="#000000" fill-rule="nonzero" fill-opacity="1" /><path clip-path="url(#clip300)" d="M1833.93 1457.91 L1836.95 1454.9 L1855.28 1473.23 L1852.27 1476.25 L1833.93 1457.91 M1826.8 1450.78 L1829.81 1447.77 L1833.62 1451.58 L1830.61 1454.59 L1826.8 1450.78 Z" fill="#000000" fill-rule="nonzero" fill-opacity="1" /><path clip-path="url(#clip300)" d="M1841.09 1450.76 L1844.28 1447.57 L1865.39 1457.23 L1855.74 1436.11 L1858.93 1432.92 L1870.39 1458.13 L1866.29 1462.22 L1841.09 1450.76 Z" fill="#000000" fill-rule="nonzero" fill-opacity="1" /><path clip-path="url(#clip300)" d="M1887.18 1421.49 L1888.65 1422.97 L1874.81 1436.81 Q1878.11 1439.73 1881.42 1439.7 Q1884.72 1439.63 1887.72 1436.63 Q1889.45 1434.9 1890.65 1432.85 Q1891.86 1430.79 1892.61 1428.34 L1895.46 1431.18 Q1894.53 1433.49 1893.19 1435.55 Q1891.84 1437.62 1890.09 1439.37 Q1885.71 1443.75 1880.58 1443.77 Q1875.48 1443.77 1871.12 1439.42 Q1866.62 1434.92 1866.41 1429.86 Q1866.2 1424.77 1870.32 1420.64 Q1874.02 1416.94 1878.55 1417.19 Q1883.09 1417.4 1887.18 1421.49 M1883.28 1423.62 Q1880.78 1421.18 1877.95 1421.07 Q1875.13 1420.94 1872.91 1423.16 Q1870.39 1425.68 1870.29 1428.63 Q1870.21 1431.56 1872.56 1434.38 L1883.28 1423.62 Z" fill="#000000" fill-rule="nonzero" fill-opacity="1" /><path clip-path="url(#clip300)" d="M1894.5 1383.14 Q1896.07 1389.1 1898.69 1393.85 Q1901.31 1398.6 1905.09 1402.38 Q1908.87 1406.16 1913.65 1408.81 Q1918.43 1411.43 1924.35 1413 L1921.73 1415.62 Q1915.43 1414.23 1910.49 1411.74 Q1905.56 1409.23 1901.89 1405.57 Q1898.24 1401.92 1895.76 1397.01 Q1893.27 1392.1 1891.88 1385.76 L1894.5 1383.14 Z" fill="#000000" fill-rule="nonzero" fill-opacity="1" /><path clip-path="url(#clip300)" d="M1901.47 1378.17 L1904.78 1374.86 L1927.51 1397.6 Q1931.93 1402.02 1932.24 1405.7 Q1932.57 1409.37 1928.85 1413.08 L1927.59 1414.34 L1924.81 1411.56 L1925.84 1410.53 Q1928.03 1408.33 1927.71 1406.21 Q1927.38 1404.08 1924.2 1400.9 L1901.47 1378.17 Z" fill="#000000" fill-rule="nonzero" fill-opacity="1" /><path clip-path="url(#clip300)" d="M1909.75 1367.89 L1912.37 1365.27 Q1918.69 1366.68 1923.6 1369.17 Q1928.53 1371.64 1932.18 1375.29 Q1935.84 1378.95 1938.33 1383.9 Q1940.83 1388.82 1942.23 1395.13 L1939.61 1397.74 Q1938.04 1391.82 1935.4 1387.06 Q1932.76 1382.26 1928.98 1378.48 Q1925.2 1374.7 1920.44 1372.1 Q1915.69 1369.48 1909.75 1367.89 Z" fill="#000000" fill-rule="nonzero" fill-opacity="1" /><polyline clip-path="url(#clip302)" style="stroke:#000000; stroke-linecap:round; stroke-linejoin:round; stroke-width:2; stroke-opacity:0.1; fill:none" points="175.445,1336.06 2352.76,1336.06 "/>
<polyline clip-path="url(#clip302)" style="stroke:#000000; stroke-linecap:round; stroke-linejoin:round; stroke-width:2; stroke-opacity:0.1; fill:none" points="175.445,1037.97 2352.76,1037.97 "/>
<polyline clip-path="url(#clip302)" style="stroke:#000000; stroke-linecap:round; stroke-linejoin:round; stroke-width:2; stroke-opacity:0.1; fill:none" points="175.445,739.879 2352.76,739.879 "/>
<polyline clip-path="url(#clip302)" style="stroke:#000000; stroke-linecap:round; stroke-linejoin:round; stroke-width:2; stroke-opacity:0.1; fill:none" points="175.445,441.786 2352.76,441.786 "/>
<polyline clip-path="url(#clip302)" style="stroke:#000000; stroke-linecap:round; stroke-linejoin:round; stroke-width:2; stroke-opacity:0.1; fill:none" points="175.445,143.693 2352.76,143.693 "/>
<polyline clip-path="url(#clip300)" style="stroke:#000000; stroke-linecap:round; stroke-linejoin:round; stroke-width:4; stroke-opacity:1; fill:none" points="175.445,1336.06 175.445,123.472 "/>
<polyline clip-path="url(#clip300)" style="stroke:#000000; stroke-linecap:round; stroke-linejoin:round; stroke-width:4; stroke-opacity:1; fill:none" points="175.445,1336.06 194.343,1336.06 "/>
<polyline clip-path="url(#clip300)" style="stroke:#000000; stroke-linecap:round; stroke-linejoin:round; stroke-width:4; stroke-opacity:1; fill:none" points="175.445,1037.97 194.343,1037.97 "/>
<polyline clip-path="url(#clip300)" style="stroke:#000000; stroke-linecap:round; stroke-linejoin:round; stroke-width:4; stroke-opacity:1; fill:none" points="175.445,739.879 194.343,739.879 "/>
<polyline clip-path="url(#clip300)" style="stroke:#000000; stroke-linecap:round; stroke-linejoin:round; stroke-width:4; stroke-opacity:1; fill:none" points="175.445,441.786 194.343,441.786 "/>
<polyline clip-path="url(#clip300)" style="stroke:#000000; stroke-linecap:round; stroke-linejoin:round; stroke-width:4; stroke-opacity:1; fill:none" points="175.445,143.693 194.343,143.693 "/>
<path clip-path="url(#clip300)" d="M127.501 1321.86 Q123.89 1321.86 122.061 1325.43 Q120.255 1328.97 120.255 1336.1 Q120.255 1343.21 122.061 1346.77 Q123.89 1350.31 127.501 1350.31 Q131.135 1350.31 132.941 1346.77 Q134.769 1343.21 134.769 1336.1 Q134.769 1328.97 132.941 1325.43 Q131.135 1321.86 127.501 1321.86 M127.501 1318.16 Q133.311 1318.16 136.367 1322.77 Q139.445 1327.35 139.445 1336.1 Q139.445 1344.83 136.367 1349.43 Q133.311 1354.02 127.501 1354.02 Q121.691 1354.02 118.612 1349.43 Q115.556 1344.83 115.556 1336.1 Q115.556 1327.35 118.612 1322.77 Q121.691 1318.16 127.501 1318.16 Z" fill="#000000" fill-rule="nonzero" fill-opacity="1" /><path clip-path="url(#clip300)" d="M119.538 1051.32 L127.177 1051.32 L127.177 1024.95 L118.867 1026.62 L118.867 1022.36 L127.13 1020.69 L131.806 1020.69 L131.806 1051.32 L139.445 1051.32 L139.445 1055.25 L119.538 1055.25 L119.538 1051.32 Z" fill="#000000" fill-rule="nonzero" fill-opacity="1" /><path clip-path="url(#clip300)" d="M123.126 753.224 L139.445 753.224 L139.445 757.159 L117.501 757.159 L117.501 753.224 Q120.163 750.469 124.746 745.839 Q129.353 741.187 130.533 739.844 Q132.779 737.321 133.658 735.585 Q134.561 733.826 134.561 732.136 Q134.561 729.381 132.617 727.645 Q130.695 725.909 127.593 725.909 Q125.394 725.909 122.941 726.673 Q120.51 727.437 117.732 728.988 L117.732 724.265 Q120.556 723.131 123.01 722.553 Q125.464 721.974 127.501 721.974 Q132.871 721.974 136.066 724.659 Q139.26 727.344 139.26 731.835 Q139.26 733.965 138.45 735.886 Q137.663 737.784 135.556 740.377 Q134.978 741.048 131.876 744.265 Q128.774 747.46 123.126 753.224 Z" fill="#000000" fill-rule="nonzero" fill-opacity="1" /><path clip-path="url(#clip300)" d="M132.316 440.432 Q135.672 441.149 137.547 443.418 Q139.445 445.686 139.445 449.02 Q139.445 454.135 135.927 456.936 Q132.408 459.737 125.927 459.737 Q123.751 459.737 121.436 459.297 Q119.144 458.881 116.691 458.024 L116.691 453.51 Q118.635 454.645 120.95 455.223 Q123.265 455.802 125.788 455.802 Q130.186 455.802 132.478 454.066 Q134.792 452.33 134.792 449.02 Q134.792 445.964 132.64 444.251 Q130.51 442.515 126.691 442.515 L122.663 442.515 L122.663 438.673 L126.876 438.673 Q130.325 438.673 132.154 437.307 Q133.982 435.918 133.982 433.325 Q133.982 430.663 132.084 429.251 Q130.209 427.816 126.691 427.816 Q124.769 427.816 122.57 428.233 Q120.371 428.649 117.732 429.529 L117.732 425.362 Q120.394 424.622 122.709 424.251 Q125.047 423.881 127.107 423.881 Q132.431 423.881 135.533 426.311 Q138.635 428.719 138.635 432.839 Q138.635 435.71 136.992 437.7 Q135.348 439.668 132.316 440.432 Z" fill="#000000" fill-rule="nonzero" fill-opacity="1" /><path clip-path="url(#clip300)" d="M129.862 130.487 L118.056 148.936 L129.862 148.936 L129.862 130.487 M128.635 126.413 L134.515 126.413 L134.515 148.936 L139.445 148.936 L139.445 152.825 L134.515 152.825 L134.515 160.973 L129.862 160.973 L129.862 152.825 L114.26 152.825 L114.26 148.311 L128.635 126.413 Z" fill="#000000" fill-rule="nonzero" fill-opacity="1" /><path clip-path="url(#clip300)" d="M18.0438 838.765 L24.314 838.765 Q22.5634 842.425 21.704 845.672 Q20.8447 848.919 20.8447 851.942 Q20.8447 857.194 22.8817 860.058 Q24.9187 862.891 28.6745 862.891 Q31.8255 862.891 33.4488 861.013 Q35.0402 859.104 36.0269 853.82 L36.8226 849.937 Q38.1912 842.744 41.6605 839.338 Q45.098 835.901 50.8908 835.901 Q57.7976 835.901 61.3624 840.548 Q64.9272 845.163 64.9272 854.107 Q64.9272 857.48 64.1633 861.3 Q63.3994 865.087 61.9035 869.161 L55.2831 869.161 Q57.4793 865.247 58.5933 861.491 Q59.7073 857.735 59.7073 854.107 Q59.7073 848.6 57.543 845.608 Q55.3786 842.616 51.3682 842.616 Q47.8671 842.616 45.8937 844.781 Q43.9204 846.913 42.9337 851.815 L42.1698 855.73 Q40.7375 862.923 37.682 866.138 Q34.6264 869.352 29.1837 869.352 Q22.8817 869.352 19.2532 864.928 Q15.6248 860.472 15.6248 852.674 Q15.6248 849.332 16.2295 845.863 Q16.8343 842.394 18.0438 838.765 Z" fill="#000000" fill-rule="nonzero" fill-opacity="1" /><path clip-path="url(#clip300)" d="M58.657 820.464 L77.5631 820.464 L77.5631 826.352 L28.3562 826.352 L28.3562 820.464 L33.7671 820.464 Q30.5842 818.618 29.0564 815.817 Q27.4968 812.984 27.4968 809.069 Q27.4968 802.576 32.6531 798.534 Q37.8093 794.46 46.212 794.46 Q54.6147 794.46 59.771 798.534 Q64.9272 802.576 64.9272 809.069 Q64.9272 812.984 63.3994 815.817 Q61.8398 818.618 58.657 820.464 M46.212 800.539 Q39.7508 800.539 36.0905 803.213 Q32.3984 805.855 32.3984 810.501 Q32.3984 815.148 36.0905 817.822 Q39.7508 820.464 46.212 820.464 Q52.6732 820.464 56.3653 817.822 Q60.0256 815.148 60.0256 810.501 Q60.0256 805.855 56.3653 803.213 Q52.6732 800.539 46.212 800.539 Z" fill="#000000" fill-rule="nonzero" fill-opacity="1" /><path clip-path="url(#clip300)" d="M44.7161 754.26 L47.5806 754.26 L47.5806 781.187 Q53.6281 780.805 56.8109 777.559 Q59.9619 774.281 59.9619 768.456 Q59.9619 765.082 59.1344 761.931 Q58.3069 758.748 56.6518 755.629 L62.1899 755.629 Q63.5267 758.78 64.227 762.09 Q64.9272 765.4 64.9272 768.806 Q64.9272 777.336 59.9619 782.333 Q54.9967 787.298 46.5303 787.298 Q37.7774 787.298 32.6531 782.588 Q27.4968 777.845 27.4968 769.825 Q27.4968 762.631 32.1438 758.462 Q36.7589 754.26 44.7161 754.26 M42.9973 760.117 Q38.1912 760.181 35.3266 762.822 Q32.4621 765.432 32.4621 769.761 Q32.4621 774.663 35.2312 777.623 Q38.0002 780.551 43.0292 780.996 L42.9973 760.117 Z" fill="#000000" fill-rule="nonzero" fill-opacity="1" /><path clip-path="url(#clip300)" d="M44.7161 714.156 L47.5806 714.156 L47.5806 741.083 Q53.6281 740.701 56.8109 737.455 Q59.9619 734.177 59.9619 728.352 Q59.9619 724.978 59.1344 721.827 Q58.3069 718.644 56.6518 715.525 L62.1899 715.525 Q63.5267 718.676 64.227 721.986 Q64.9272 725.296 64.9272 728.702 Q64.9272 737.232 59.9619 742.229 Q54.9967 747.195 46.5303 747.195 Q37.7774 747.195 32.6531 742.484 Q27.4968 737.741 27.4968 729.721 Q27.4968 722.527 32.1438 718.358 Q36.7589 714.156 44.7161 714.156 M42.9973 720.013 Q38.1912 720.077 35.3266 722.718 Q32.4621 725.328 32.4621 729.657 Q32.4621 734.559 35.2312 737.519 Q38.0002 740.447 43.0292 740.892 L42.9973 720.013 Z" fill="#000000" fill-rule="nonzero" fill-opacity="1" /><path clip-path="url(#clip300)" d="M33.7671 681.087 L14.479 681.087 L14.479 675.23 L64.0042 675.23 L64.0042 681.087 L58.657 681.087 Q61.8398 682.933 63.3994 685.765 Q64.9272 688.566 64.9272 692.513 Q64.9272 698.974 59.771 703.048 Q54.6147 707.091 46.212 707.091 Q37.8093 707.091 32.6531 703.048 Q27.4968 698.974 27.4968 692.513 Q27.4968 688.566 29.0564 685.765 Q30.5842 682.933 33.7671 681.087 M46.212 701.043 Q52.6732 701.043 56.3653 698.401 Q60.0256 695.728 60.0256 691.081 Q60.0256 686.434 56.3653 683.76 Q52.6732 681.087 46.212 681.087 Q39.7508 681.087 36.0905 683.76 Q32.3984 686.434 32.3984 691.081 Q32.3984 695.728 36.0905 698.401 Q39.7508 701.043 46.212 701.043 Z" fill="#000000" fill-rule="nonzero" fill-opacity="1" /><path clip-path="url(#clip300)" d="M49.9359 663.772 L28.3562 663.772 L28.3562 657.915 L49.7131 657.915 Q54.7739 657.915 57.3202 655.942 Q59.8346 653.969 59.8346 650.022 Q59.8346 645.28 56.8109 642.542 Q53.7872 639.773 48.5673 639.773 L28.3562 639.773 L28.3562 633.917 L64.0042 633.917 L64.0042 639.773 L58.5296 639.773 Q61.7762 641.906 63.3676 644.738 Q64.9272 647.539 64.9272 651.263 Q64.9272 657.406 61.1078 660.589 Q57.2883 663.772 49.9359 663.772 M27.4968 649.035 L27.4968 649.035 Z" fill="#000000" fill-rule="nonzero" fill-opacity="1" /><path clip-path="url(#clip300)" d="M58.657 616.188 L77.5631 616.188 L77.5631 622.077 L28.3562 622.077 L28.3562 616.188 L33.7671 616.188 Q30.5842 614.342 29.0564 611.541 Q27.4968 608.709 27.4968 604.794 Q27.4968 598.301 32.6531 594.258 Q37.8093 590.184 46.212 590.184 Q54.6147 590.184 59.771 594.258 Q64.9272 598.301 64.9272 604.794 Q64.9272 608.709 63.3994 611.541 Q61.8398 614.342 58.657 616.188 M46.212 596.264 Q39.7508 596.264 36.0905 598.937 Q32.3984 601.579 32.3984 606.226 Q32.3984 610.873 36.0905 613.547 Q39.7508 616.188 46.212 616.188 Q52.6732 616.188 56.3653 613.547 Q60.0256 610.873 60.0256 606.226 Q60.0256 601.579 56.3653 598.937 Q52.6732 596.264 46.212 596.264 Z" fill="#000000" fill-rule="nonzero" fill-opacity="1" /><path clip-path="url(#clip300)" d="M461.637 14.0809 L461.637 22.0612 Q456.978 19.8332 452.846 18.7395 Q448.714 17.6457 444.866 17.6457 Q438.182 17.6457 434.536 20.2383 Q430.931 22.8309 430.931 27.611 Q430.931 31.6214 433.321 33.6873 Q435.751 35.7128 442.476 36.9686 L447.418 37.9813 Q456.573 39.7232 460.908 44.1387 Q465.282 48.5136 465.282 55.8863 Q465.282 64.6767 459.368 69.2137 Q453.494 73.7508 442.111 73.7508 Q437.817 73.7508 432.956 72.7785 Q428.136 71.8063 422.951 69.9024 L422.951 61.4765 Q427.933 64.2716 432.713 65.6895 Q437.493 67.1073 442.111 67.1073 Q449.119 67.1073 452.927 64.3527 Q456.735 61.598 456.735 56.4939 Q456.735 52.0379 453.98 49.5264 Q451.266 47.0148 445.028 45.759 L440.045 44.7868 Q430.89 42.9639 426.799 39.075 Q422.707 35.1862 422.707 28.2591 Q422.707 20.2383 428.338 15.6203 Q434.01 11.0023 443.934 11.0023 Q448.188 11.0023 452.603 11.7719 Q457.019 12.5416 461.637 14.0809 Z" fill="#000000" fill-rule="nonzero" fill-opacity="1" /><path clip-path="url(#clip300)" d="M484.929 65.7705 L484.929 89.8329 L477.435 89.8329 L477.435 27.2059 L484.929 27.2059 L484.929 34.0924 Q487.279 30.0415 490.844 28.0971 Q494.449 26.1121 499.432 26.1121 Q507.695 26.1121 512.84 32.6746 Q518.025 39.2371 518.025 49.9314 Q518.025 60.6258 512.84 67.1883 Q507.695 73.7508 499.432 73.7508 Q494.449 73.7508 490.844 71.8063 Q487.279 69.8214 484.929 65.7705 M510.288 49.9314 Q510.288 41.7081 506.885 37.0496 Q503.523 32.3505 497.609 32.3505 Q491.694 32.3505 488.292 37.0496 Q484.929 41.7081 484.929 49.9314 Q484.929 58.1548 488.292 62.8538 Q491.694 67.5124 497.609 67.5124 Q503.523 67.5124 506.885 62.8538 Q510.288 58.1548 510.288 49.9314 Z" fill="#000000" fill-rule="nonzero" fill-opacity="1" /><path clip-path="url(#clip300)" d="M569.188 48.0275 L569.188 51.6733 L534.918 51.6733 Q535.404 59.3701 539.536 63.421 Q543.708 67.4314 551.121 67.4314 Q555.415 67.4314 559.426 66.3781 Q563.476 65.3249 567.446 63.2184 L567.446 70.267 Q563.436 71.9684 559.223 72.8596 Q555.01 73.7508 550.676 73.7508 Q539.819 73.7508 533.459 67.4314 Q527.14 61.1119 527.14 50.3365 Q527.14 39.1965 533.135 32.6746 Q539.171 26.1121 549.379 26.1121 Q558.534 26.1121 563.841 32.0264 Q569.188 37.9003 569.188 48.0275 M561.735 45.84 Q561.654 39.7232 558.291 36.0774 Q554.97 32.4315 549.46 32.4315 Q543.222 32.4315 539.455 35.9558 Q535.728 39.4801 535.161 45.8805 L561.735 45.84 Z" fill="#000000" fill-rule="nonzero" fill-opacity="1" /><path clip-path="url(#clip300)" d="M620.23 48.0275 L620.23 51.6733 L585.959 51.6733 Q586.445 59.3701 590.577 63.421 Q594.749 67.4314 602.163 67.4314 Q606.457 67.4314 610.467 66.3781 Q614.518 65.3249 618.488 63.2184 L618.488 70.267 Q614.477 71.9684 610.264 72.8596 Q606.051 73.7508 601.717 73.7508 Q590.861 73.7508 584.501 67.4314 Q578.181 61.1119 578.181 50.3365 Q578.181 39.1965 584.177 32.6746 Q590.212 26.1121 600.421 26.1121 Q609.576 26.1121 614.882 32.0264 Q620.23 37.9003 620.23 48.0275 M612.776 45.84 Q612.695 39.7232 609.333 36.0774 Q606.011 32.4315 600.502 32.4315 Q594.263 32.4315 590.496 35.9558 Q586.769 39.4801 586.202 45.8805 L612.776 45.84 Z" fill="#000000" fill-rule="nonzero" fill-opacity="1" /><path clip-path="url(#clip300)" d="M662.318 34.0924 L662.318 9.54393 L669.772 9.54393 L669.772 72.576 L662.318 72.576 L662.318 65.7705 Q659.969 69.8214 656.364 71.8063 Q652.799 73.7508 647.776 73.7508 Q639.552 73.7508 634.367 67.1883 Q629.223 60.6258 629.223 49.9314 Q629.223 39.2371 634.367 32.6746 Q639.552 26.1121 647.776 26.1121 Q652.799 26.1121 656.364 28.0971 Q659.969 30.0415 662.318 34.0924 M636.919 49.9314 Q636.919 58.1548 640.282 62.8538 Q643.684 67.5124 649.599 67.5124 Q655.513 67.5124 658.916 62.8538 Q662.318 58.1548 662.318 49.9314 Q662.318 41.7081 658.916 37.0496 Q655.513 32.3505 649.599 32.3505 Q643.684 32.3505 640.282 37.0496 Q636.919 41.7081 636.919 49.9314 Z" fill="#000000" fill-rule="nonzero" fill-opacity="1" /><path clip-path="url(#clip300)" d="M684.355 54.671 L684.355 27.2059 L691.809 27.2059 L691.809 54.3874 Q691.809 60.8284 694.321 64.0691 Q696.832 67.2693 701.855 67.2693 Q707.891 67.2693 711.375 63.421 Q714.899 59.5726 714.899 52.9291 L714.899 27.2059 L722.353 27.2059 L722.353 72.576 L714.899 72.576 L714.899 65.6084 Q712.185 69.7404 708.58 71.7658 Q705.015 73.7508 700.275 73.7508 Q692.457 73.7508 688.406 68.8897 Q684.355 64.0286 684.355 54.671 M703.111 26.1121 L703.111 26.1121 Z" fill="#000000" fill-rule="nonzero" fill-opacity="1" /><path clip-path="url(#clip300)" d="M744.916 65.7705 L744.916 89.8329 L737.422 89.8329 L737.422 27.2059 L744.916 27.2059 L744.916 34.0924 Q747.266 30.0415 750.831 28.0971 Q754.436 26.1121 759.419 26.1121 Q767.682 26.1121 772.827 32.6746 Q778.012 39.2371 778.012 49.9314 Q778.012 60.6258 772.827 67.1883 Q767.682 73.7508 759.419 73.7508 Q754.436 73.7508 750.831 71.8063 Q747.266 69.8214 744.916 65.7705 M770.275 49.9314 Q770.275 41.7081 766.872 37.0496 Q763.51 32.3505 757.596 32.3505 Q751.681 32.3505 748.279 37.0496 Q744.916 41.7081 744.916 49.9314 Q744.916 58.1548 748.279 62.8538 Q751.681 67.5124 757.596 67.5124 Q763.51 67.5124 766.872 62.8538 Q770.275 58.1548 770.275 49.9314 Z" fill="#000000" fill-rule="nonzero" fill-opacity="1" /><path clip-path="url(#clip300)" d="M849.389 28.9478 L849.389 35.9153 Q846.23 34.1734 843.029 33.3227 Q839.87 32.4315 836.629 32.4315 Q829.378 32.4315 825.367 37.0496 Q821.357 41.6271 821.357 49.9314 Q821.357 58.2358 825.367 62.8538 Q829.378 67.4314 836.629 67.4314 Q839.87 67.4314 843.029 66.5807 Q846.23 65.6895 849.389 63.9476 L849.389 70.8341 Q846.27 72.2924 842.908 73.0216 Q839.586 73.7508 835.819 73.7508 Q825.57 73.7508 819.534 67.3098 Q813.498 60.8689 813.498 49.9314 Q813.498 38.832 819.575 32.472 Q825.691 26.1121 836.305 26.1121 Q839.748 26.1121 843.029 26.8413 Q846.311 27.5299 849.389 28.9478 Z" fill="#000000" fill-rule="nonzero" fill-opacity="1" /><path clip-path="url(#clip300)" d="M879.933 32.4315 Q873.938 32.4315 870.454 37.1306 Q866.97 41.7891 866.97 49.9314 Q866.97 58.0738 870.413 62.7728 Q873.897 67.4314 879.933 67.4314 Q885.888 67.4314 889.372 62.7323 Q892.855 58.0333 892.855 49.9314 Q892.855 41.8701 889.372 37.1711 Q885.888 32.4315 879.933 32.4315 M879.933 26.1121 Q889.655 26.1121 895.205 32.4315 Q900.755 38.7509 900.755 49.9314 Q900.755 61.0714 895.205 67.4314 Q889.655 73.7508 879.933 73.7508 Q870.17 73.7508 864.621 67.4314 Q859.111 61.0714 859.111 49.9314 Q859.111 38.7509 864.621 32.4315 Q870.17 26.1121 879.933 26.1121 Z" fill="#000000" fill-rule="nonzero" fill-opacity="1" /><path clip-path="url(#clip300)" d="M907.763 27.2059 L915.662 27.2059 L929.84 65.2844 L944.018 27.2059 L951.918 27.2059 L934.904 72.576 L924.777 72.576 L907.763 27.2059 Z" fill="#000000" fill-rule="nonzero" fill-opacity="1" /><path clip-path="url(#clip300)" d="M982.826 49.7694 Q973.793 49.7694 970.309 51.8354 Q966.825 53.9013 966.825 58.8839 Q966.825 62.8538 969.418 65.2034 Q972.051 67.5124 976.547 67.5124 Q982.745 67.5124 986.472 63.1374 Q990.239 58.7219 990.239 51.4303 L990.239 49.7694 L982.826 49.7694 M997.693 46.6907 L997.693 72.576 L990.239 72.576 L990.239 65.6895 Q987.687 69.8214 983.879 71.8063 Q980.071 73.7508 974.562 73.7508 Q967.595 73.7508 963.463 69.8619 Q959.371 65.9325 959.371 59.3701 Q959.371 51.7138 964.475 47.825 Q969.62 43.9361 979.788 43.9361 L990.239 43.9361 L990.239 43.2069 Q990.239 38.0623 986.836 35.2672 Q983.474 32.4315 977.357 32.4315 Q973.468 32.4315 969.782 33.3632 Q966.096 34.295 962.693 36.1584 L962.693 29.2718 Q966.784 27.692 970.633 26.9223 Q974.481 26.1121 978.127 26.1121 Q987.971 26.1121 992.832 31.2163 Q997.693 36.3204 997.693 46.6907 Z" fill="#000000" fill-rule="nonzero" fill-opacity="1" /><path clip-path="url(#clip300)" d="M1039.34 34.1734 Q1038.08 33.4443 1036.58 33.1202 Q1035.12 32.7556 1033.34 32.7556 Q1027.02 32.7556 1023.62 36.8875 Q1020.26 40.9789 1020.26 48.6757 L1020.26 72.576 L1012.76 72.576 L1012.76 27.2059 L1020.26 27.2059 L1020.26 34.2544 Q1022.61 30.1225 1026.37 28.1376 Q1030.14 26.1121 1035.53 26.1121 Q1036.3 26.1121 1037.23 26.2337 Q1038.16 26.3147 1039.3 26.5172 L1039.34 34.1734 Z" fill="#000000" fill-rule="nonzero" fill-opacity="1" /><path clip-path="url(#clip300)" d="M1047.15 27.2059 L1054.61 27.2059 L1054.61 72.576 L1047.15 72.576 L1047.15 27.2059 M1047.15 9.54393 L1054.61 9.54393 L1054.61 18.9825 L1047.15 18.9825 L1047.15 9.54393 Z" fill="#000000" fill-rule="nonzero" fill-opacity="1" /><path clip-path="url(#clip300)" d="M1090.82 49.7694 Q1081.79 49.7694 1078.31 51.8354 Q1074.82 53.9013 1074.82 58.8839 Q1074.82 62.8538 1077.41 65.2034 Q1080.05 67.5124 1084.54 67.5124 Q1090.74 67.5124 1094.47 63.1374 Q1098.24 58.7219 1098.24 51.4303 L1098.24 49.7694 L1090.82 49.7694 M1105.69 46.6907 L1105.69 72.576 L1098.24 72.576 L1098.24 65.6895 Q1095.68 69.8214 1091.88 71.8063 Q1088.07 73.7508 1082.56 73.7508 Q1075.59 73.7508 1071.46 69.8619 Q1067.37 65.9325 1067.37 59.3701 Q1067.37 51.7138 1072.47 47.825 Q1077.62 43.9361 1087.78 43.9361 L1098.24 43.9361 L1098.24 43.2069 Q1098.24 38.0623 1094.83 35.2672 Q1091.47 32.4315 1085.35 32.4315 Q1081.47 32.4315 1077.78 33.3632 Q1074.09 34.295 1070.69 36.1584 L1070.69 29.2718 Q1074.78 27.692 1078.63 26.9223 Q1082.48 26.1121 1086.12 26.1121 Q1095.97 26.1121 1100.83 31.2163 Q1105.69 36.3204 1105.69 46.6907 Z" fill="#000000" fill-rule="nonzero" fill-opacity="1" /><path clip-path="url(#clip300)" d="M1158.76 45.1919 L1158.76 72.576 L1151.3 72.576 L1151.3 45.4349 Q1151.3 38.994 1148.79 35.7938 Q1146.28 32.5936 1141.26 32.5936 Q1135.22 32.5936 1131.74 36.4419 Q1128.25 40.2903 1128.25 46.9338 L1128.25 72.576 L1120.76 72.576 L1120.76 27.2059 L1128.25 27.2059 L1128.25 34.2544 Q1130.93 30.163 1134.53 28.1376 Q1138.18 26.1121 1142.92 26.1121 Q1150.74 26.1121 1154.75 30.9732 Q1158.76 35.7938 1158.76 45.1919 Z" fill="#000000" fill-rule="nonzero" fill-opacity="1" /><path clip-path="url(#clip300)" d="M1206.27 28.9478 L1206.27 35.9153 Q1203.11 34.1734 1199.91 33.3227 Q1196.75 32.4315 1193.51 32.4315 Q1186.26 32.4315 1182.25 37.0496 Q1178.24 41.6271 1178.24 49.9314 Q1178.24 58.2358 1182.25 62.8538 Q1186.26 67.4314 1193.51 67.4314 Q1196.75 67.4314 1199.91 66.5807 Q1203.11 65.6895 1206.27 63.9476 L1206.27 70.8341 Q1203.15 72.2924 1199.79 73.0216 Q1196.47 73.7508 1192.7 73.7508 Q1182.45 73.7508 1176.42 67.3098 Q1170.38 60.8689 1170.38 49.9314 Q1170.38 38.832 1176.46 32.472 Q1182.58 26.1121 1193.19 26.1121 Q1196.63 26.1121 1199.91 26.8413 Q1203.2 27.5299 1206.27 28.9478 Z" fill="#000000" fill-rule="nonzero" fill-opacity="1" /><path clip-path="url(#clip300)" d="M1258.04 48.0275 L1258.04 51.6733 L1223.77 51.6733 Q1224.26 59.3701 1228.39 63.421 Q1232.56 67.4314 1239.98 67.4314 Q1244.27 67.4314 1248.28 66.3781 Q1252.33 65.3249 1256.3 63.2184 L1256.3 70.267 Q1252.29 71.9684 1248.08 72.8596 Q1243.87 73.7508 1239.53 73.7508 Q1228.68 73.7508 1222.32 67.4314 Q1216 61.1119 1216 50.3365 Q1216 39.1965 1221.99 32.6746 Q1228.03 26.1121 1238.24 26.1121 Q1247.39 26.1121 1252.7 32.0264 Q1258.04 37.9003 1258.04 48.0275 M1250.59 45.84 Q1250.51 39.7232 1247.15 36.0774 Q1243.83 32.4315 1238.32 32.4315 Q1232.08 32.4315 1228.31 35.9558 Q1224.58 39.4801 1224.02 45.8805 L1250.59 45.84 Z" fill="#000000" fill-rule="nonzero" fill-opacity="1" /><path clip-path="url(#clip300)" d="M1272.18 62.2867 L1280.73 62.2867 L1280.73 69.2543 L1274.09 82.2172 L1268.86 82.2172 L1272.18 69.2543 L1272.18 62.2867 Z" fill="#000000" fill-rule="nonzero" fill-opacity="1" /><path clip-path="url(#clip300)" d="M1330.23 65.7705 L1330.23 89.8329 L1322.74 89.8329 L1322.74 27.2059 L1330.23 27.2059 L1330.23 34.0924 Q1332.58 30.0415 1336.15 28.0971 Q1339.75 26.1121 1344.73 26.1121 Q1353 26.1121 1358.14 32.6746 Q1363.33 39.2371 1363.33 49.9314 Q1363.33 60.6258 1358.14 67.1883 Q1353 73.7508 1344.73 73.7508 Q1339.75 73.7508 1336.15 71.8063 Q1332.58 69.8214 1330.23 65.7705 M1355.59 49.9314 Q1355.59 41.7081 1352.19 37.0496 Q1348.83 32.3505 1342.91 32.3505 Q1337 32.3505 1333.59 37.0496 Q1330.23 41.7081 1330.23 49.9314 Q1330.23 58.1548 1333.59 62.8538 Q1337 67.5124 1342.91 67.5124 Q1348.83 67.5124 1352.19 62.8538 Q1355.59 58.1548 1355.59 49.9314 Z" fill="#000000" fill-rule="nonzero" fill-opacity="1" /><path clip-path="url(#clip300)" d="M1401.97 34.1734 Q1400.72 33.4443 1399.22 33.1202 Q1397.76 32.7556 1395.98 32.7556 Q1389.66 32.7556 1386.26 36.8875 Q1382.89 40.9789 1382.89 48.6757 L1382.89 72.576 L1375.4 72.576 L1375.4 27.2059 L1382.89 27.2059 L1382.89 34.2544 Q1385.24 30.1225 1389.01 28.1376 Q1392.78 26.1121 1398.17 26.1121 Q1398.93 26.1121 1399.87 26.2337 Q1400.8 26.3147 1401.93 26.5172 L1401.97 34.1734 Z" fill="#000000" fill-rule="nonzero" fill-opacity="1" /><path clip-path="url(#clip300)" d="M1446.78 48.0275 L1446.78 51.6733 L1412.51 51.6733 Q1412.99 59.3701 1417.12 63.421 Q1421.3 67.4314 1428.71 67.4314 Q1433 67.4314 1437.01 66.3781 Q1441.06 65.3249 1445.03 63.2184 L1445.03 70.267 Q1441.02 71.9684 1436.81 72.8596 Q1432.6 73.7508 1428.26 73.7508 Q1417.41 73.7508 1411.05 67.4314 Q1404.73 61.1119 1404.73 50.3365 Q1404.73 39.1965 1410.72 32.6746 Q1416.76 26.1121 1426.97 26.1121 Q1436.12 26.1121 1441.43 32.0264 Q1446.78 37.9003 1446.78 48.0275 M1439.32 45.84 Q1439.24 39.7232 1435.88 36.0774 Q1432.56 32.4315 1427.05 32.4315 Q1420.81 32.4315 1417.04 35.9558 Q1413.32 39.4801 1412.75 45.8805 L1439.32 45.84 Z" fill="#000000" fill-rule="nonzero" fill-opacity="1" /><path clip-path="url(#clip300)" d="M1487.93 28.5427 L1487.93 35.5912 Q1484.77 33.9709 1481.37 33.1607 Q1477.97 32.3505 1474.32 32.3505 Q1468.77 32.3505 1465.98 34.0519 Q1463.22 35.7533 1463.22 39.156 Q1463.22 41.7486 1465.21 43.2475 Q1467.19 44.7058 1473.19 46.0426 L1475.74 46.6097 Q1483.68 48.3111 1487 51.4303 Q1490.36 54.509 1490.36 60.0587 Q1490.36 66.3781 1485.34 70.0644 Q1480.36 73.7508 1471.61 73.7508 Q1467.96 73.7508 1463.99 73.0216 Q1460.06 72.3329 1455.69 70.9151 L1455.69 63.2184 Q1459.82 65.3654 1463.83 66.4591 Q1467.84 67.5124 1471.77 67.5124 Q1477.04 67.5124 1479.87 65.73 Q1482.71 63.9071 1482.71 60.6258 Q1482.71 57.5877 1480.64 55.9673 Q1478.62 54.3469 1471.69 52.8481 L1469.1 52.2405 Q1462.17 50.7821 1459.09 47.7845 Q1456.01 44.7463 1456.01 39.4801 Q1456.01 33.0797 1460.55 29.5959 Q1465.09 26.1121 1473.43 26.1121 Q1477.56 26.1121 1481.21 26.7198 Q1484.85 27.3274 1487.93 28.5427 Z" fill="#000000" fill-rule="nonzero" fill-opacity="1" /><path clip-path="url(#clip300)" d="M1541.04 48.0275 L1541.04 51.6733 L1506.77 51.6733 Q1507.26 59.3701 1511.39 63.421 Q1515.56 67.4314 1522.97 67.4314 Q1527.27 67.4314 1531.28 66.3781 Q1535.33 65.3249 1539.3 63.2184 L1539.3 70.267 Q1535.29 71.9684 1531.08 72.8596 Q1526.86 73.7508 1522.53 73.7508 Q1511.67 73.7508 1505.31 67.4314 Q1498.99 61.1119 1498.99 50.3365 Q1498.99 39.1965 1504.99 32.6746 Q1511.02 26.1121 1521.23 26.1121 Q1530.39 26.1121 1535.69 32.0264 Q1541.04 37.9003 1541.04 48.0275 M1533.59 45.84 Q1533.51 39.7232 1530.14 36.0774 Q1526.82 32.4315 1521.31 32.4315 Q1515.07 32.4315 1511.31 35.9558 Q1507.58 39.4801 1507.01 45.8805 L1533.59 45.84 Z" fill="#000000" fill-rule="nonzero" fill-opacity="1" /><path clip-path="url(#clip300)" d="M1560.65 14.324 L1560.65 27.2059 L1576 27.2059 L1576 32.9987 L1560.65 32.9987 L1560.65 57.6282 Q1560.65 63.1779 1562.15 64.7578 Q1563.69 66.3376 1568.34 66.3376 L1576 66.3376 L1576 72.576 L1568.34 72.576 Q1559.72 72.576 1556.43 69.3758 Q1553.15 66.1351 1553.15 57.6282 L1553.15 32.9987 L1547.68 32.9987 L1547.68 27.2059 L1553.15 27.2059 L1553.15 14.324 L1560.65 14.324 Z" fill="#000000" fill-rule="nonzero" fill-opacity="1" /><path clip-path="url(#clip300)" d="M1619.22 12.096 L1619.22 34.5785 L1612.34 34.5785 L1612.34 12.096 L1619.22 12.096 Z" fill="#000000" fill-rule="nonzero" fill-opacity="1" /><path clip-path="url(#clip300)" d="M1642.19 65.7705 L1642.19 89.8329 L1634.7 89.8329 L1634.7 27.2059 L1642.19 27.2059 L1642.19 34.0924 Q1644.54 30.0415 1648.11 28.0971 Q1651.71 26.1121 1656.69 26.1121 Q1664.96 26.1121 1670.1 32.6746 Q1675.29 39.2371 1675.29 49.9314 Q1675.29 60.6258 1670.1 67.1883 Q1664.96 73.7508 1656.69 73.7508 Q1651.71 73.7508 1648.11 71.8063 Q1644.54 69.8214 1642.19 65.7705 M1667.55 49.9314 Q1667.55 41.7081 1664.15 37.0496 Q1660.79 32.3505 1654.87 32.3505 Q1648.96 32.3505 1645.55 37.0496 Q1642.19 41.7081 1642.19 49.9314 Q1642.19 58.1548 1645.55 62.8538 Q1648.96 67.5124 1654.87 67.5124 Q1660.79 67.5124 1664.15 62.8538 Q1667.55 58.1548 1667.55 49.9314 Z" fill="#000000" fill-rule="nonzero" fill-opacity="1" /><path clip-path="url(#clip300)" d="M1708.26 49.7694 Q1699.23 49.7694 1695.74 51.8354 Q1692.26 53.9013 1692.26 58.8839 Q1692.26 62.8538 1694.85 65.2034 Q1697.49 67.5124 1701.98 67.5124 Q1708.18 67.5124 1711.91 63.1374 Q1715.68 58.7219 1715.68 51.4303 L1715.68 49.7694 L1708.26 49.7694 M1723.13 46.6907 L1723.13 72.576 L1715.68 72.576 L1715.68 65.6895 Q1713.12 69.8214 1709.32 71.8063 Q1705.51 73.7508 1700 73.7508 Q1693.03 73.7508 1688.9 69.8619 Q1684.81 65.9325 1684.81 59.3701 Q1684.81 51.7138 1689.91 47.825 Q1695.06 43.9361 1705.22 43.9361 L1715.68 43.9361 L1715.68 43.2069 Q1715.68 38.0623 1712.27 35.2672 Q1708.91 32.4315 1702.79 32.4315 Q1698.9 32.4315 1695.22 33.3632 Q1691.53 34.295 1688.13 36.1584 L1688.13 29.2718 Q1692.22 27.692 1696.07 26.9223 Q1699.92 26.1121 1703.56 26.1121 Q1713.41 26.1121 1718.27 31.2163 Q1723.13 36.3204 1723.13 46.6907 Z" fill="#000000" fill-rule="nonzero" fill-opacity="1" /><path clip-path="url(#clip300)" d="M1745.69 65.7705 L1745.69 89.8329 L1738.2 89.8329 L1738.2 27.2059 L1745.69 27.2059 L1745.69 34.0924 Q1748.04 30.0415 1751.61 28.0971 Q1755.21 26.1121 1760.19 26.1121 Q1768.46 26.1121 1773.6 32.6746 Q1778.79 39.2371 1778.79 49.9314 Q1778.79 60.6258 1773.6 67.1883 Q1768.46 73.7508 1760.19 73.7508 Q1755.21 73.7508 1751.61 71.8063 Q1748.04 69.8214 1745.69 65.7705 M1771.05 49.9314 Q1771.05 41.7081 1767.65 37.0496 Q1764.29 32.3505 1758.37 32.3505 Q1752.46 32.3505 1749.05 37.0496 Q1745.69 41.7081 1745.69 49.9314 Q1745.69 58.1548 1749.05 62.8538 Q1752.46 67.5124 1758.37 67.5124 Q1764.29 67.5124 1767.65 62.8538 Q1771.05 58.1548 1771.05 49.9314 Z" fill="#000000" fill-rule="nonzero" fill-opacity="1" /><path clip-path="url(#clip300)" d="M1829.95 48.0275 L1829.95 51.6733 L1795.68 51.6733 Q1796.17 59.3701 1800.3 63.421 Q1804.47 67.4314 1811.88 67.4314 Q1816.18 67.4314 1820.19 66.3781 Q1824.24 65.3249 1828.21 63.2184 L1828.21 70.267 Q1824.2 71.9684 1819.99 72.8596 Q1815.77 73.7508 1811.44 73.7508 Q1800.58 73.7508 1794.22 67.4314 Q1787.9 61.1119 1787.9 50.3365 Q1787.9 39.1965 1793.9 32.6746 Q1799.93 26.1121 1810.14 26.1121 Q1819.3 26.1121 1824.6 32.0264 Q1829.95 37.9003 1829.95 48.0275 M1822.5 45.84 Q1822.42 39.7232 1819.05 36.0774 Q1815.73 32.4315 1810.22 32.4315 Q1803.98 32.4315 1800.22 35.9558 Q1796.49 39.4801 1795.92 45.8805 L1822.5 45.84 Z" fill="#000000" fill-rule="nonzero" fill-opacity="1" /><path clip-path="url(#clip300)" d="M1868.48 34.1734 Q1867.22 33.4443 1865.72 33.1202 Q1864.26 32.7556 1862.48 32.7556 Q1856.16 32.7556 1852.76 36.8875 Q1849.4 40.9789 1849.4 48.6757 L1849.4 72.576 L1841.9 72.576 L1841.9 27.2059 L1849.4 27.2059 L1849.4 34.2544 Q1851.74 30.1225 1855.51 28.1376 Q1859.28 26.1121 1864.67 26.1121 Q1865.44 26.1121 1866.37 26.2337 Q1867.3 26.3147 1868.43 26.5172 L1868.48 34.1734 Z" fill="#000000" fill-rule="nonzero" fill-opacity="1" /><path clip-path="url(#clip300)" d="M1883.34 12.096 L1883.34 34.5785 L1876.46 34.5785 L1876.46 12.096 L1883.34 12.096 Z" fill="#000000" fill-rule="nonzero" fill-opacity="1" /><path clip-path="url(#clip300)" d="M1901 62.2867 L1909.55 62.2867 L1909.55 69.2543 L1902.91 82.2172 L1897.68 82.2172 L1901 69.2543 L1901 62.2867 Z" fill="#000000" fill-rule="nonzero" fill-opacity="1" /><path clip-path="url(#clip300)" d="M1997.46 16.7545 L1997.46 25.383 Q1993.32 21.5346 1988.63 19.6307 Q1983.97 17.7268 1978.7 17.7268 Q1968.33 17.7268 1962.82 24.0867 Q1957.31 30.4061 1957.31 42.3968 Q1957.31 54.3469 1962.82 60.7069 Q1968.33 67.0263 1978.7 67.0263 Q1983.97 67.0263 1988.63 65.1223 Q1993.32 63.2184 1997.46 59.3701 L1997.46 67.9175 Q1993.16 70.8341 1988.34 72.2924 Q1983.56 73.7508 1978.21 73.7508 Q1964.48 73.7508 1956.58 65.3654 Q1948.68 56.9395 1948.68 42.3968 Q1948.68 27.8135 1956.58 19.4281 Q1964.48 11.0023 1978.21 11.0023 Q1983.64 11.0023 1988.42 12.4606 Q1993.24 13.8784 1997.46 16.7545 Z" fill="#000000" fill-rule="nonzero" fill-opacity="1" /><path clip-path="url(#clip300)" d="M2018.28 18.8205 L2018.28 41.5461 L2028.57 41.5461 Q2034.28 41.5461 2037.4 38.5889 Q2040.52 35.6318 2040.52 30.163 Q2040.52 24.7348 2037.4 21.7777 Q2034.28 18.8205 2028.57 18.8205 L2018.28 18.8205 M2010.09 12.096 L2028.57 12.096 Q2038.73 12.096 2043.92 16.714 Q2049.15 21.2916 2049.15 30.163 Q2049.15 39.1155 2043.92 43.6931 Q2038.73 48.2706 2028.57 48.2706 L2018.28 48.2706 L2018.28 72.576 L2010.09 72.576 L2010.09 12.096 Z" fill="#000000" fill-rule="nonzero" fill-opacity="1" /><path clip-path="url(#clip300)" d="M2059.19 12.096 L2067.42 12.096 L2067.42 48.8377 Q2067.42 58.5599 2070.94 62.8538 Q2074.46 67.1073 2082.36 67.1073 Q2090.22 67.1073 2093.75 62.8538 Q2097.27 58.5599 2097.27 48.8377 L2097.27 12.096 L2105.49 12.096 L2105.49 49.8504 Q2105.49 61.6791 2099.62 67.7149 Q2093.79 73.7508 2082.36 73.7508 Q2070.9 73.7508 2065.03 67.7149 Q2059.19 61.6791 2059.19 49.8504 L2059.19 12.096 Z" fill="#000000" fill-rule="nonzero" fill-opacity="1" /><path clip-path="url(#clip302)" d="M257.482 1037.97 L257.482 1336.06 L937.958 1336.06 L937.958 1037.97 L257.482 1037.97 L257.482 1037.97  Z" fill="#808080" fill-rule="evenodd" fill-opacity="1"/>
<polyline clip-path="url(#clip302)" style="stroke:#000000; stroke-linecap:round; stroke-linejoin:round; stroke-width:4; stroke-opacity:1; fill:none" points="257.482,1037.97 257.482,1336.06 937.958,1336.06 937.958,1037.97 257.482,1037.97 "/>
<circle clip-path="url(#clip302)" style="fill:#808080; stroke:none; fill-opacity:0" cx="597.72" cy="1037.97" r="2"/>
<polyline clip-path="url(#clip302)" style="stroke:#000000; stroke-linecap:round; stroke-linejoin:round; stroke-width:4; stroke-opacity:1; fill:none" points="597.72,1037.97 597.72,1035.2 "/>
<line clip-path="url(#clip302)" x1="613.72" y1="1037.97" x2="581.72" y2="1037.97" style="stroke:#000000; stroke-width:4; stroke-opacity:1"/>
<line clip-path="url(#clip302)" x1="613.72" y1="1035.2" x2="581.72" y2="1035.2" style="stroke:#000000; stroke-width:4; stroke-opacity:1"/>
<path clip-path="url(#clip302)" d="M1590.24 267.834 L1590.24 1336.06 L2270.72 1336.06 L2270.72 267.834 L1590.24 267.834 L1590.24 267.834  Z" fill="#17913e" fill-rule="evenodd" fill-opacity="1"/>
<polyline clip-path="url(#clip302)" style="stroke:#000000; stroke-linecap:round; stroke-linejoin:round; stroke-width:4; stroke-opacity:1; fill:none" points="1590.24,267.834 1590.24,1336.06 2270.72,1336.06 2270.72,267.834 1590.24,267.834 "/>
<circle clip-path="url(#clip302)" style="fill:#17913e; stroke:none; fill-opacity:0" cx="1930.48" cy="267.834" r="2"/>
<polyline clip-path="url(#clip302)" style="stroke:#000000; stroke-linecap:round; stroke-linejoin:round; stroke-width:4; stroke-opacity:1; fill:none" points="1930.48,396.059 1930.48,233.708 "/>
<line clip-path="url(#clip302)" x1="1946.48" y1="396.059" x2="1914.48" y2="396.059" style="stroke:#000000; stroke-width:4; stroke-opacity:1"/>
<line clip-path="url(#clip302)" x1="1946.48" y1="233.708" x2="1914.48" y2="233.708" style="stroke:#000000; stroke-width:4; stroke-opacity:1"/>
<path clip-path="url(#clip300)" d="M248.022 371.252 L623.252 371.252 L623.252 163.892 L248.022 163.892  Z" fill="#ffffff" fill-rule="evenodd" fill-opacity="1"/>
<polyline clip-path="url(#clip300)" style="stroke:#000000; stroke-linecap:round; stroke-linejoin:round; stroke-width:4; stroke-opacity:1; fill:none" points="248.022,371.252 623.252,371.252 623.252,163.892 248.022,163.892 248.022,371.252 "/>
<path clip-path="url(#clip300)" d="M272.215 236.468 L417.369 236.468 L417.369 194.996 L272.215 194.996 L272.215 236.468  Z" fill="#808080" fill-rule="evenodd" fill-opacity="1"/>
<polyline clip-path="url(#clip300)" style="stroke:#000000; stroke-linecap:round; stroke-linejoin:round; stroke-width:4; stroke-opacity:1; fill:none" points="272.215,236.468 417.369,236.468 417.369,194.996 272.215,194.996 272.215,236.468 "/>
<path clip-path="url(#clip300)" d="M469.431 201.114 L469.431 206.044 Q467.07 203.845 464.385 202.757 Q461.723 201.669 458.714 201.669 Q452.788 201.669 449.64 205.304 Q446.491 208.915 446.491 215.767 Q446.491 222.595 449.64 226.23 Q452.788 229.841 458.714 229.841 Q461.723 229.841 464.385 228.753 Q467.07 227.665 469.431 225.466 L469.431 230.35 Q466.977 232.017 464.223 232.85 Q461.491 233.683 458.436 233.683 Q450.589 233.683 446.075 228.892 Q441.561 224.077 441.561 215.767 Q441.561 207.433 446.075 202.642 Q450.589 197.827 458.436 197.827 Q461.538 197.827 464.269 198.66 Q467.024 199.47 469.431 201.114 Z" fill="#000000" fill-rule="nonzero" fill-opacity="1" /><path clip-path="url(#clip300)" d="M272.215 288.308 L417.369 288.308 L417.369 246.836 L272.215 246.836 L272.215 288.308  Z" fill="#17913e" fill-rule="evenodd" fill-opacity="1"/>
<polyline clip-path="url(#clip300)" style="stroke:#000000; stroke-linecap:round; stroke-linejoin:round; stroke-width:4; stroke-opacity:1; fill:none" points="272.215,288.308 417.369,288.308 417.369,246.836 272.215,246.836 272.215,288.308 "/>
<path clip-path="url(#clip300)" d="M446.885 258.926 L451.144 258.926 L451.144 285.315 Q451.144 290.269 449.246 292.491 Q447.371 294.713 443.181 294.713 L441.561 294.713 L441.561 291.102 L442.695 291.102 Q445.126 291.102 446.005 289.968 Q446.885 288.856 446.885 285.315 L446.885 258.926 M446.885 248.834 L451.144 248.834 L451.144 254.227 L446.885 254.227 L446.885 248.834 Z" fill="#000000" fill-rule="nonzero" fill-opacity="1" /><path clip-path="url(#clip300)" d="M459.616 274.62 L459.616 258.926 L463.876 258.926 L463.876 274.458 Q463.876 278.139 465.311 279.991 Q466.746 281.819 469.616 281.819 Q473.065 281.819 475.056 279.62 Q477.07 277.421 477.07 273.625 L477.07 258.926 L481.329 258.926 L481.329 284.852 L477.07 284.852 L477.07 280.87 Q475.519 283.232 473.459 284.389 Q471.422 285.523 468.714 285.523 Q464.246 285.523 461.931 282.745 Q459.616 279.968 459.616 274.62 M470.334 258.301 L470.334 258.301 Z" fill="#000000" fill-rule="nonzero" fill-opacity="1" /><path clip-path="url(#clip300)" d="M490.102 248.834 L494.362 248.834 L494.362 284.852 L490.102 284.852 L490.102 248.834 Z" fill="#000000" fill-rule="nonzero" fill-opacity="1" /><path clip-path="url(#clip300)" d="M503.274 258.926 L507.533 258.926 L507.533 284.852 L503.274 284.852 L503.274 258.926 M503.274 248.834 L507.533 248.834 L507.533 254.227 L503.274 254.227 L503.274 248.834 Z" fill="#000000" fill-rule="nonzero" fill-opacity="1" /><path clip-path="url(#clip300)" d="M528.227 271.82 Q523.065 271.82 521.074 273 Q519.084 274.181 519.084 277.028 Q519.084 279.296 520.565 280.639 Q522.07 281.958 524.639 281.958 Q528.181 281.958 530.31 279.458 Q532.463 276.935 532.463 272.769 L532.463 271.82 L528.227 271.82 M536.722 270.06 L536.722 284.852 L532.463 284.852 L532.463 280.917 Q531.005 283.278 528.829 284.412 Q526.653 285.523 523.505 285.523 Q519.524 285.523 517.162 283.301 Q514.824 281.056 514.824 277.306 Q514.824 272.931 517.741 270.708 Q520.681 268.486 526.491 268.486 L532.463 268.486 L532.463 268.07 Q532.463 265.13 530.519 263.533 Q528.598 261.912 525.102 261.912 Q522.88 261.912 520.773 262.445 Q518.667 262.977 516.723 264.042 L516.723 260.107 Q519.061 259.204 521.26 258.764 Q523.459 258.301 525.542 258.301 Q531.167 258.301 533.945 261.218 Q536.722 264.134 536.722 270.06 Z" fill="#000000" fill-rule="nonzero" fill-opacity="1" /><path clip-path="url(#clip300)" d="M272.215 340.148 L417.369 340.148 L417.369 298.676 L272.215 298.676 L272.215 340.148  Z" fill="#3065a6" fill-rule="evenodd" fill-opacity="1"/>
<polyline clip-path="url(#clip300)" style="stroke:#000000; stroke-linecap:round; stroke-linejoin:round; stroke-width:4; stroke-opacity:1; fill:none" points="272.215,340.148 417.369,340.148 417.369,298.676 272.215,298.676 272.215,340.148 "/>
<path clip-path="url(#clip300)" d="M445.843 332.803 L445.843 346.553 L441.561 346.553 L441.561 310.766 L445.843 310.766 L445.843 314.701 Q447.186 312.386 449.223 311.275 Q451.283 310.141 454.13 310.141 Q458.853 310.141 461.792 313.891 Q464.755 317.641 464.755 323.752 Q464.755 329.863 461.792 333.613 Q458.853 337.363 454.13 337.363 Q451.283 337.363 449.223 336.252 Q447.186 335.118 445.843 332.803 M460.334 323.752 Q460.334 319.053 458.39 316.391 Q456.468 313.706 453.089 313.706 Q449.709 313.706 447.765 316.391 Q445.843 319.053 445.843 323.752 Q445.843 328.451 447.765 331.136 Q449.709 333.798 453.089 333.798 Q456.468 333.798 458.39 331.136 Q460.334 328.451 460.334 323.752 Z" fill="#000000" fill-rule="nonzero" fill-opacity="1" /><path clip-path="url(#clip300)" d="M482.602 339.099 Q480.797 343.729 479.084 345.141 Q477.371 346.553 474.501 346.553 L471.098 346.553 L471.098 342.988 L473.598 342.988 Q475.357 342.988 476.329 342.155 Q477.302 341.321 478.482 338.22 L479.246 336.275 L468.76 310.766 L473.274 310.766 L481.376 331.044 L489.477 310.766 L493.991 310.766 L482.602 339.099 Z" fill="#000000" fill-rule="nonzero" fill-opacity="1" /><path clip-path="url(#clip300)" d="M504.084 303.405 L504.084 310.766 L512.857 310.766 L512.857 314.076 L504.084 314.076 L504.084 328.15 Q504.084 331.322 504.94 332.224 Q505.82 333.127 508.482 333.127 L512.857 333.127 L512.857 336.692 L508.482 336.692 Q503.551 336.692 501.676 334.863 Q499.801 333.011 499.801 328.15 L499.801 314.076 L496.676 314.076 L496.676 310.766 L499.801 310.766 L499.801 303.405 L504.084 303.405 Z" fill="#000000" fill-rule="nonzero" fill-opacity="1" /><path clip-path="url(#clip300)" d="M540.01 321.044 L540.01 336.692 L535.75 336.692 L535.75 321.183 Q535.75 317.502 534.315 315.673 Q532.88 313.845 530.01 313.845 Q526.561 313.845 524.57 316.044 Q522.579 318.243 522.579 322.039 L522.579 336.692 L518.297 336.692 L518.297 300.674 L522.579 300.674 L522.579 314.794 Q524.107 312.456 526.167 311.298 Q528.25 310.141 530.959 310.141 Q535.426 310.141 537.718 312.919 Q540.01 315.673 540.01 321.044 Z" fill="#000000" fill-rule="nonzero" fill-opacity="1" /><path clip-path="url(#clip300)" d="M558.551 313.752 Q555.125 313.752 553.134 316.437 Q551.144 319.099 551.144 323.752 Q551.144 328.405 553.111 331.09 Q555.102 333.752 558.551 333.752 Q561.954 333.752 563.945 331.067 Q565.935 328.382 565.935 323.752 Q565.935 319.146 563.945 316.461 Q561.954 313.752 558.551 313.752 M558.551 310.141 Q564.107 310.141 567.278 313.752 Q570.449 317.363 570.449 323.752 Q570.449 330.118 567.278 333.752 Q564.107 337.363 558.551 337.363 Q552.972 337.363 549.801 333.752 Q546.653 330.118 546.653 323.752 Q546.653 317.363 549.801 313.752 Q552.972 310.141 558.551 310.141 Z" fill="#000000" fill-rule="nonzero" fill-opacity="1" /><path clip-path="url(#clip300)" d="M599.06 321.044 L599.06 336.692 L594.801 336.692 L594.801 321.183 Q594.801 317.502 593.366 315.673 Q591.931 313.845 589.06 313.845 Q585.611 313.845 583.62 316.044 Q581.63 318.243 581.63 322.039 L581.63 336.692 L577.347 336.692 L577.347 310.766 L581.63 310.766 L581.63 314.794 Q583.157 312.456 585.218 311.298 Q587.301 310.141 590.009 310.141 Q594.477 310.141 596.768 312.919 Q599.06 315.673 599.06 321.044 Z" fill="#000000" fill-rule="nonzero" fill-opacity="1" /></svg>
