<?xml version="1.0" encoding="utf-8"?>
<svg xmlns="http://www.w3.org/2000/svg" xmlns:xlink="http://www.w3.org/1999/xlink" width="600" height="400" viewBox="0 0 2400 1600">
<defs>
  <clipPath id="clip020">
    <rect x="0" y="0" width="2400" height="1600"/>
  </clipPath>
</defs>
<path clip-path="url(#clip020)" d="M0 1600 L2400 1600 L2400 0 L0 0  Z" fill="#ffffff" fill-rule="evenodd" fill-opacity="1"/>
<defs>
  <clipPath id="clip021">
    <rect x="480" y="0" width="1681" height="1600"/>
  </clipPath>
</defs>
<path clip-path="url(#clip020)" d="M249.542 1282.36 L2352.76 1282.36 L2352.76 123.472 L249.542 123.472  Z" fill="#ffffff" fill-rule="evenodd" fill-opacity="1"/>
<defs>
  <clipPath id="clip022">
    <rect x="249" y="123" width="2104" height="1160"/>
  </clipPath>
</defs>
<polyline clip-path="url(#clip022)" style="stroke:#000000; stroke-linecap:round; stroke-linejoin:round; stroke-width:2; stroke-opacity:0.1; fill:none" points="657.446,1282.36 657.446,123.472 "/>
<polyline clip-path="url(#clip022)" style="stroke:#000000; stroke-linecap:round; stroke-linejoin:round; stroke-width:2; stroke-opacity:0.1; fill:none" points="1944.85,1282.36 1944.85,123.472 "/>
<polyline clip-path="url(#clip020)" style="stroke:#000000; stroke-linecap:round; stroke-linejoin:round; stroke-width:4; stroke-opacity:1; fill:none" points="249.542,1282.36 2352.76,1282.36 "/>
<polyline clip-path="url(#clip020)" style="stroke:#000000; stroke-linecap:round; stroke-linejoin:round; stroke-width:4; stroke-opacity:1; fill:none" points="657.446,1282.36 657.446,1263.46 "/>
<polyline clip-path="url(#clip020)" style="stroke:#000000; stroke-linecap:round; stroke-linejoin:round; stroke-width:4; stroke-opacity:1; fill:none" points="1944.85,1282.36 1944.85,1263.46 "/>
<path clip-path="url(#clip020)" d="M447.533 1532.1 L458.598 1543.17 L455.586 1546.18 L444.619 1535.21 Q442.017 1532.61 439.709 1532.33 Q437.401 1532.06 435.371 1534.09 Q432.933 1536.52 433.08 1539.49 Q433.227 1542.45 435.912 1545.13 L446.273 1555.49 L443.245 1558.52 L424.912 1540.19 L427.94 1537.16 L430.788 1540.01 Q430.215 1537.28 430.854 1535 Q431.509 1532.71 433.424 1530.8 Q436.583 1527.64 440.167 1527.98 Q443.736 1528.31 447.533 1532.1 Z" fill="#000000" fill-rule="nonzero" fill-opacity="1" /><path clip-path="url(#clip020)" d="M463.721 1519.62 Q460.071 1523.27 459.498 1525.51 Q458.925 1527.75 460.938 1529.76 Q462.543 1531.37 464.539 1531.27 Q466.536 1531.14 468.353 1529.32 Q470.858 1526.82 470.596 1523.54 Q470.334 1520.24 467.387 1517.29 L466.716 1516.62 L463.721 1519.62 M468.484 1512.36 L478.943 1522.82 L475.932 1525.84 L473.149 1523.05 Q473.787 1525.75 473.051 1528.09 Q472.298 1530.42 470.072 1532.64 Q467.257 1535.46 464.016 1535.56 Q460.775 1535.62 458.123 1532.97 Q455.03 1529.88 455.521 1526.24 Q456.028 1522.59 460.136 1518.49 L464.359 1514.26 L464.065 1513.97 Q461.986 1511.89 459.482 1512.14 Q456.977 1512.35 454.506 1514.82 Q452.934 1516.39 451.821 1518.26 Q450.708 1520.12 450.086 1522.25 L447.304 1519.47 Q448.319 1517.18 449.563 1515.31 Q450.79 1513.43 452.263 1511.96 Q456.241 1507.98 460.267 1508.08 Q464.294 1508.17 468.484 1512.36 Z" fill="#000000" fill-rule="nonzero" fill-opacity="1" /><path clip-path="url(#clip020)" d="M466.815 1498.29 L469.826 1495.28 L488.159 1513.61 L485.147 1516.62 L466.815 1498.29 M459.678 1491.15 L462.69 1488.14 L466.504 1491.95 L463.492 1494.97 L459.678 1491.15 Z" fill="#000000" fill-rule="nonzero" fill-opacity="1" /><path clip-path="url(#clip020)" d="M473.967 1491.14 L477.159 1487.94 L498.274 1497.6 L488.617 1476.49 L491.809 1473.29 L503.266 1498.5 L499.174 1502.59 L473.967 1491.14 Z" fill="#000000" fill-rule="nonzero" fill-opacity="1" /><path clip-path="url(#clip020)" d="M520.06 1461.87 L521.533 1463.34 L507.686 1477.19 Q510.992 1480.1 514.299 1480.07 Q517.605 1480 520.6 1477.01 Q522.335 1475.27 523.53 1473.23 Q524.741 1471.17 525.494 1468.71 L528.342 1471.56 Q527.409 1473.87 526.067 1475.93 Q524.725 1477.99 522.974 1479.74 Q518.587 1484.13 513.464 1484.15 Q508.357 1484.15 504.003 1479.79 Q499.502 1475.29 499.289 1470.23 Q499.076 1465.14 503.201 1461.02 Q506.9 1457.32 511.434 1457.56 Q515.968 1457.78 520.06 1461.87 M516.164 1464 Q513.66 1461.56 510.828 1461.44 Q508.013 1461.31 505.787 1463.54 Q503.266 1466.06 503.168 1469.01 Q503.086 1471.94 505.443 1474.75 L516.164 1464 Z" fill="#000000" fill-rule="nonzero" fill-opacity="1" /><path clip-path="url(#clip020)" d="M554.417 1458.48 L556.757 1460.82 L539.342 1478.24 L537.001 1475.9 L554.417 1458.48 Z" fill="#000000" fill-rule="nonzero" fill-opacity="1" /><path clip-path="url(#clip020)" d="M554.368 1428.64 Q551.094 1425.37 547.935 1424.93 Q544.792 1424.47 542.353 1426.91 Q539.931 1429.33 540.373 1432.49 Q540.831 1435.63 544.105 1438.9 Q547.362 1442.16 550.505 1442.62 Q553.664 1443.06 556.086 1440.64 Q558.525 1438.2 558.067 1435.06 Q557.625 1431.9 554.368 1428.64 M564.483 1432.73 Q569.164 1437.41 569.361 1441.77 Q569.574 1446.14 565.285 1450.43 Q563.698 1452.02 562.044 1453.18 Q560.408 1454.36 558.591 1455.19 L555.661 1452.26 Q557.707 1451.66 559.344 1450.71 Q560.98 1449.76 562.323 1448.41 Q565.285 1445.45 565.203 1442.42 Q565.138 1439.41 562.012 1436.29 L560.522 1434.8 Q561.21 1437.35 560.555 1439.61 Q559.9 1441.87 557.87 1443.9 Q554.499 1447.27 549.866 1446.76 Q545.234 1446.25 540.995 1442.01 Q536.739 1437.76 536.232 1433.13 Q535.724 1428.49 539.096 1425.12 Q541.126 1423.09 543.385 1422.44 Q545.643 1421.78 548.197 1422.47 L545.414 1419.69 L548.426 1416.68 L564.483 1432.73 Z" fill="#000000" fill-rule="nonzero" fill-opacity="1" /><path clip-path="url(#clip020)" d="M573.126 1423.14 L582.848 1432.86 L579.82 1435.89 L554.515 1410.59 L557.543 1407.56 L560.326 1410.34 Q559.638 1407.76 560.293 1405.53 Q560.948 1403.27 562.961 1401.26 Q566.3 1397.92 571.03 1398.49 Q575.777 1399.05 580.098 1403.37 Q584.42 1407.69 584.976 1412.44 Q585.549 1417.17 582.21 1420.51 Q580.197 1422.52 577.954 1423.19 Q575.712 1423.83 573.126 1423.14 M576.972 1406.5 Q573.649 1403.17 570.392 1402.67 Q567.135 1402.13 564.745 1404.51 Q562.355 1406.9 562.879 1410.18 Q563.403 1413.42 566.726 1416.74 Q570.048 1420.06 573.306 1420.6 Q576.563 1421.11 578.953 1418.72 Q581.342 1416.33 580.819 1413.09 Q580.295 1409.82 576.972 1406.5 Z" fill="#000000" fill-rule="nonzero" fill-opacity="1" /><path clip-path="url(#clip020)" d="M586.695 1400.6 L575.597 1389.51 L578.609 1386.49 L589.592 1397.48 Q592.194 1400.08 594.519 1400.37 Q596.827 1400.65 598.856 1398.62 Q601.295 1396.18 601.148 1393.22 Q601.017 1390.24 598.332 1387.56 L587.939 1377.16 L590.95 1374.15 L609.283 1392.48 L606.271 1395.5 L603.456 1392.68 Q604.029 1395.45 603.39 1397.72 Q602.752 1399.96 600.837 1401.88 Q597.678 1405.04 594.077 1404.71 Q590.476 1404.38 586.695 1400.6 M582.734 1381.49 L582.734 1381.49 Z" fill="#000000" fill-rule="nonzero" fill-opacity="1" /><path clip-path="url(#clip020)" d="M607.941 1342.95 Q609.512 1348.91 612.131 1353.66 Q614.75 1358.41 618.531 1362.19 Q622.312 1365.97 627.091 1368.62 Q631.871 1371.24 637.796 1372.81 L635.177 1375.43 Q628.875 1374.04 623.932 1371.55 Q619.005 1369.05 615.339 1365.38 Q611.689 1361.73 609.201 1356.82 Q606.713 1351.91 605.322 1345.57 L607.941 1342.95 Z" fill="#000000" fill-rule="nonzero" fill-opacity="1" /><path clip-path="url(#clip020)" d="M635.095 1321.56 L638.582 1325.05 Q635.357 1325.16 632.689 1326.29 Q630.038 1327.4 627.91 1329.53 Q623.719 1333.72 624.063 1338.52 Q624.391 1343.3 629.236 1348.14 Q634.064 1352.97 638.86 1353.32 Q643.639 1353.64 647.83 1349.45 Q649.958 1347.32 651.071 1344.67 Q652.2 1342.01 652.315 1338.78 L655.768 1342.23 Q655.212 1345.15 653.853 1347.68 Q652.511 1350.21 650.35 1352.37 Q644.802 1357.91 638.222 1357.72 Q631.625 1357.51 625.749 1351.63 Q619.857 1345.74 619.66 1339.16 Q619.447 1332.56 624.996 1327.01 Q627.189 1324.82 629.71 1323.48 Q632.231 1322.1 635.095 1321.56 Z" fill="#000000" fill-rule="nonzero" fill-opacity="1" /><path clip-path="url(#clip020)" d="M636.716 1314.18 L639.335 1311.56 Q645.653 1312.97 650.563 1315.46 Q655.49 1317.93 659.14 1321.58 Q662.807 1325.24 665.294 1330.19 Q667.799 1335.11 669.19 1341.42 L666.571 1344.03 Q665 1338.11 662.365 1333.35 Q659.729 1328.55 655.948 1324.77 Q652.167 1320.99 647.404 1318.39 Q642.657 1315.77 636.716 1314.18 Z" fill="#000000" fill-rule="nonzero" fill-opacity="1" /><path clip-path="url(#clip020)" d="M1748.46 1518.58 L1759.52 1529.65 L1756.51 1532.66 L1745.55 1521.69 Q1742.94 1519.09 1740.64 1518.81 Q1738.33 1518.54 1736.3 1520.56 Q1733.86 1523 1734.01 1525.97 Q1734.15 1528.93 1736.84 1531.61 L1747.2 1541.97 L1744.17 1545 L1725.84 1526.67 L1728.87 1523.64 L1731.71 1526.49 Q1731.14 1523.76 1731.78 1521.48 Q1732.43 1519.19 1734.35 1517.27 Q1737.51 1514.12 1741.09 1514.46 Q1744.66 1514.79 1748.46 1518.58 Z" fill="#000000" fill-rule="nonzero" fill-opacity="1" /><path clip-path="url(#clip020)" d="M1764.65 1506.1 Q1761 1509.75 1760.42 1511.99 Q1759.85 1514.23 1761.86 1516.24 Q1763.47 1517.85 1765.47 1517.75 Q1767.46 1517.62 1769.28 1515.8 Q1771.78 1513.3 1771.52 1510.02 Q1771.26 1506.72 1768.31 1503.77 L1767.64 1503.1 L1764.65 1506.1 M1769.41 1498.84 L1779.87 1509.3 L1776.86 1512.32 L1774.08 1509.53 Q1774.71 1512.23 1773.98 1514.57 Q1773.22 1516.9 1771 1519.12 Q1768.18 1521.94 1764.94 1522.04 Q1761.7 1522.1 1759.05 1519.45 Q1755.96 1516.36 1756.45 1512.72 Q1756.95 1509.07 1761.06 1504.97 L1765.29 1500.74 L1764.99 1500.45 Q1762.91 1498.37 1760.41 1498.62 Q1757.9 1498.83 1755.43 1501.3 Q1753.86 1502.87 1752.75 1504.74 Q1751.63 1506.6 1751.01 1508.73 L1748.23 1505.95 Q1749.24 1503.66 1750.49 1501.79 Q1751.72 1499.91 1753.19 1498.44 Q1757.17 1494.46 1761.19 1494.56 Q1765.22 1494.65 1769.41 1498.84 Z" fill="#000000" fill-rule="nonzero" fill-opacity="1" /><path clip-path="url(#clip020)" d="M1767.74 1484.77 L1770.75 1481.76 L1789.08 1500.09 L1786.07 1503.1 L1767.74 1484.77 M1760.6 1477.63 L1763.62 1474.62 L1767.43 1478.43 L1764.42 1481.45 L1760.6 1477.63 Z" fill="#000000" fill-rule="nonzero" fill-opacity="1" /><path clip-path="url(#clip020)" d="M1774.89 1477.62 L1778.09 1474.42 L1799.2 1484.08 L1789.54 1462.97 L1792.73 1459.77 L1804.19 1484.98 L1800.1 1489.07 L1774.89 1477.62 Z" fill="#000000" fill-rule="nonzero" fill-opacity="1" /><path clip-path="url(#clip020)" d="M1820.99 1448.35 L1822.46 1449.82 L1808.61 1463.67 Q1811.92 1466.58 1815.22 1466.55 Q1818.53 1466.48 1821.53 1463.49 Q1823.26 1461.75 1824.46 1459.71 Q1825.67 1457.65 1826.42 1455.19 L1829.27 1458.04 Q1828.34 1460.35 1826.99 1462.41 Q1825.65 1464.47 1823.9 1466.22 Q1819.51 1470.61 1814.39 1470.63 Q1809.28 1470.63 1804.93 1466.27 Q1800.43 1461.77 1800.22 1456.71 Q1800 1451.62 1804.13 1447.5 Q1807.83 1443.8 1812.36 1444.04 Q1816.89 1444.26 1820.99 1448.35 M1817.09 1450.48 Q1814.59 1448.04 1811.75 1447.92 Q1808.94 1447.79 1806.71 1450.02 Q1804.19 1452.54 1804.09 1455.49 Q1804.01 1458.42 1806.37 1461.23 L1817.09 1450.48 Z" fill="#000000" fill-rule="nonzero" fill-opacity="1" /><path clip-path="url(#clip020)" d="M1855.34 1444.96 L1857.68 1447.3 L1840.27 1464.72 L1837.93 1462.38 L1855.34 1444.96 Z" fill="#000000" fill-rule="nonzero" fill-opacity="1" /><path clip-path="url(#clip020)" d="M1855.29 1415.12 Q1852.02 1411.85 1848.86 1411.41 Q1845.72 1410.95 1843.28 1413.39 Q1840.86 1415.81 1841.3 1418.97 Q1841.76 1422.11 1845.03 1425.38 Q1848.29 1428.64 1851.43 1429.1 Q1854.59 1429.54 1857.01 1427.12 Q1859.45 1424.68 1858.99 1421.54 Q1858.55 1418.38 1855.29 1415.12 M1865.41 1419.21 Q1870.09 1423.89 1870.29 1428.25 Q1870.5 1432.62 1866.21 1436.91 Q1864.62 1438.5 1862.97 1439.66 Q1861.33 1440.84 1859.52 1441.67 L1856.59 1438.74 Q1858.63 1438.14 1860.27 1437.19 Q1861.91 1436.24 1863.25 1434.89 Q1866.21 1431.93 1866.13 1428.9 Q1866.06 1425.89 1862.94 1422.77 L1861.45 1421.28 Q1862.14 1423.83 1861.48 1426.09 Q1860.83 1428.35 1858.8 1430.38 Q1855.42 1433.75 1850.79 1433.24 Q1846.16 1432.73 1841.92 1428.49 Q1837.67 1424.24 1837.16 1419.61 Q1836.65 1414.97 1840.02 1411.6 Q1842.05 1409.57 1844.31 1408.92 Q1846.57 1408.26 1849.12 1408.95 L1846.34 1406.17 L1849.35 1403.16 L1865.41 1419.21 Z" fill="#000000" fill-rule="nonzero" fill-opacity="1" /><path clip-path="url(#clip020)" d="M1874.05 1409.62 L1883.77 1419.34 L1880.75 1422.37 L1855.44 1397.07 L1858.47 1394.04 L1861.25 1396.82 Q1860.56 1394.24 1861.22 1392.01 Q1861.87 1389.75 1863.89 1387.74 Q1867.23 1384.4 1871.96 1384.97 Q1876.7 1385.53 1881.02 1389.85 Q1885.35 1394.17 1885.9 1398.92 Q1886.48 1403.65 1883.14 1406.99 Q1881.12 1409 1878.88 1409.67 Q1876.64 1410.31 1874.05 1409.62 M1877.9 1392.98 Q1874.58 1389.65 1871.32 1389.15 Q1868.06 1388.61 1865.67 1390.99 Q1863.28 1393.38 1863.81 1396.66 Q1864.33 1399.9 1867.65 1403.22 Q1870.97 1406.54 1874.23 1407.08 Q1877.49 1407.59 1879.88 1405.2 Q1882.27 1402.81 1881.74 1399.57 Q1881.22 1396.3 1877.9 1392.98 Z" fill="#000000" fill-rule="nonzero" fill-opacity="1" /><path clip-path="url(#clip020)" d="M1887.62 1387.08 L1876.52 1375.99 L1879.53 1372.97 L1890.52 1383.96 Q1893.12 1386.56 1895.44 1386.85 Q1897.75 1387.13 1899.78 1385.1 Q1902.22 1382.66 1902.07 1379.7 Q1901.94 1376.72 1899.26 1374.04 L1888.86 1363.64 L1891.88 1360.63 L1910.21 1378.96 L1907.2 1381.98 L1904.38 1379.16 Q1904.95 1381.93 1904.32 1384.2 Q1903.68 1386.44 1901.76 1388.36 Q1898.6 1391.52 1895 1391.19 Q1891.4 1390.86 1887.62 1387.08 M1883.66 1367.96 L1883.66 1367.96 Z" fill="#000000" fill-rule="nonzero" fill-opacity="1" /><path clip-path="url(#clip020)" d="M1908.87 1329.43 Q1910.44 1335.39 1913.06 1340.14 Q1915.68 1344.89 1919.46 1348.67 Q1923.24 1352.45 1928.02 1355.1 Q1932.8 1357.72 1938.72 1359.29 L1936.1 1361.91 Q1929.8 1360.52 1924.86 1358.03 Q1919.93 1355.53 1916.27 1351.86 Q1912.61 1348.21 1910.13 1343.3 Q1907.64 1338.39 1906.25 1332.05 L1908.87 1329.43 Z" fill="#000000" fill-rule="nonzero" fill-opacity="1" /><path clip-path="url(#clip020)" d="M1915.84 1324.46 L1919.15 1321.15 L1941.88 1343.89 Q1946.3 1348.31 1946.61 1351.99 Q1946.94 1355.66 1943.22 1359.37 L1941.96 1360.63 L1939.18 1357.85 L1940.21 1356.82 Q1942.4 1354.62 1942.08 1352.5 Q1941.75 1350.37 1938.57 1347.19 L1915.84 1324.46 Z" fill="#000000" fill-rule="nonzero" fill-opacity="1" /><path clip-path="url(#clip020)" d="M1924.12 1314.18 L1926.74 1311.56 Q1933.06 1312.97 1937.97 1315.46 Q1942.9 1317.93 1946.55 1321.58 Q1950.21 1325.24 1952.7 1330.19 Q1955.2 1335.11 1956.6 1341.42 L1953.98 1344.03 Q1952.41 1338.11 1949.77 1333.35 Q1947.14 1328.55 1943.35 1324.77 Q1939.57 1320.99 1934.81 1318.39 Q1930.06 1315.77 1924.12 1314.18 Z" fill="#000000" fill-rule="nonzero" fill-opacity="1" /><polyline clip-path="url(#clip022)" style="stroke:#000000; stroke-linecap:round; stroke-linejoin:round; stroke-width:2; stroke-opacity:0.1; fill:none" points="249.542,1282.36 2352.76,1282.36 "/>
<polyline clip-path="url(#clip022)" style="stroke:#000000; stroke-linecap:round; stroke-linejoin:round; stroke-width:2; stroke-opacity:0.1; fill:none" points="249.542,1021.1 2352.76,1021.1 "/>
<polyline clip-path="url(#clip022)" style="stroke:#000000; stroke-linecap:round; stroke-linejoin:round; stroke-width:2; stroke-opacity:0.1; fill:none" points="249.542,759.849 2352.76,759.849 "/>
<polyline clip-path="url(#clip022)" style="stroke:#000000; stroke-linecap:round; stroke-linejoin:round; stroke-width:2; stroke-opacity:0.1; fill:none" points="249.542,498.597 2352.76,498.597 "/>
<polyline clip-path="url(#clip022)" style="stroke:#000000; stroke-linecap:round; stroke-linejoin:round; stroke-width:2; stroke-opacity:0.1; fill:none" points="249.542,237.344 2352.76,237.344 "/>
<polyline clip-path="url(#clip020)" style="stroke:#000000; stroke-linecap:round; stroke-linejoin:round; stroke-width:4; stroke-opacity:1; fill:none" points="249.542,1282.36 249.542,123.472 "/>
<polyline clip-path="url(#clip020)" style="stroke:#000000; stroke-linecap:round; stroke-linejoin:round; stroke-width:4; stroke-opacity:1; fill:none" points="249.542,1282.36 268.44,1282.36 "/>
<polyline clip-path="url(#clip020)" style="stroke:#000000; stroke-linecap:round; stroke-linejoin:round; stroke-width:4; stroke-opacity:1; fill:none" points="249.542,1021.1 268.44,1021.1 "/>
<polyline clip-path="url(#clip020)" style="stroke:#000000; stroke-linecap:round; stroke-linejoin:round; stroke-width:4; stroke-opacity:1; fill:none" points="249.542,759.849 268.44,759.849 "/>
<polyline clip-path="url(#clip020)" style="stroke:#000000; stroke-linecap:round; stroke-linejoin:round; stroke-width:4; stroke-opacity:1; fill:none" points="249.542,498.597 268.44,498.597 "/>
<polyline clip-path="url(#clip020)" style="stroke:#000000; stroke-linecap:round; stroke-linejoin:round; stroke-width:4; stroke-opacity:1; fill:none" points="249.542,237.344 268.44,237.344 "/>
<path clip-path="url(#clip020)" d="M126.205 1268.15 Q122.593 1268.15 120.765 1271.72 Q118.959 1275.26 118.959 1282.39 Q118.959 1289.5 120.765 1293.06 Q122.593 1296.6 126.205 1296.6 Q129.839 1296.6 131.644 1293.06 Q133.473 1289.5 133.473 1282.39 Q133.473 1275.26 131.644 1271.72 Q129.839 1268.15 126.205 1268.15 M126.205 1264.45 Q132.015 1264.45 135.07 1269.06 Q138.149 1273.64 138.149 1282.39 Q138.149 1291.12 135.07 1295.72 Q132.015 1300.31 126.205 1300.31 Q120.394 1300.31 117.316 1295.72 Q114.26 1291.12 114.26 1282.39 Q114.26 1273.64 117.316 1269.06 Q120.394 1264.45 126.205 1264.45 Z" fill="#000000" fill-rule="nonzero" fill-opacity="1" /><path clip-path="url(#clip020)" d="M146.366 1293.76 L151.251 1293.76 L151.251 1299.64 L146.366 1299.64 L146.366 1293.76 Z" fill="#000000" fill-rule="nonzero" fill-opacity="1" /><path clip-path="url(#clip020)" d="M171.436 1268.15 Q167.825 1268.15 165.996 1271.72 Q164.19 1275.26 164.19 1282.39 Q164.19 1289.5 165.996 1293.06 Q167.825 1296.6 171.436 1296.6 Q175.07 1296.6 176.876 1293.06 Q178.704 1289.5 178.704 1282.39 Q178.704 1275.26 176.876 1271.72 Q175.07 1268.15 171.436 1268.15 M171.436 1264.45 Q177.246 1264.45 180.301 1269.06 Q183.38 1273.64 183.38 1282.39 Q183.38 1291.12 180.301 1295.72 Q177.246 1300.31 171.436 1300.31 Q165.626 1300.31 162.547 1295.72 Q159.491 1291.12 159.491 1282.39 Q159.491 1273.64 162.547 1269.06 Q165.626 1264.45 171.436 1264.45 Z" fill="#000000" fill-rule="nonzero" fill-opacity="1" /><path clip-path="url(#clip020)" d="M201.598 1268.15 Q197.987 1268.15 196.158 1271.72 Q194.352 1275.26 194.352 1282.39 Q194.352 1289.5 196.158 1293.06 Q197.987 1296.6 201.598 1296.6 Q205.232 1296.6 207.037 1293.06 Q208.866 1289.5 208.866 1282.39 Q208.866 1275.26 207.037 1271.72 Q205.232 1268.15 201.598 1268.15 M201.598 1264.45 Q207.408 1264.45 210.463 1269.06 Q213.542 1273.64 213.542 1282.39 Q213.542 1291.12 210.463 1295.72 Q207.408 1300.31 201.598 1300.31 Q195.787 1300.31 192.709 1295.72 Q189.653 1291.12 189.653 1282.39 Q189.653 1273.64 192.709 1269.06 Q195.787 1264.45 201.598 1264.45 Z" fill="#000000" fill-rule="nonzero" fill-opacity="1" /><path clip-path="url(#clip020)" d="M127.2 1006.9 Q123.589 1006.9 121.76 1010.47 Q119.955 1014.01 119.955 1021.14 Q119.955 1028.24 121.76 1031.81 Q123.589 1035.35 127.2 1035.35 Q130.834 1035.35 132.64 1031.81 Q134.468 1028.24 134.468 1021.14 Q134.468 1014.01 132.64 1010.47 Q130.834 1006.9 127.2 1006.9 M127.2 1003.2 Q133.01 1003.2 136.066 1007.8 Q139.144 1012.39 139.144 1021.14 Q139.144 1029.86 136.066 1034.47 Q133.01 1039.05 127.2 1039.05 Q121.39 1039.05 118.311 1034.47 Q115.256 1029.86 115.256 1021.14 Q115.256 1012.39 118.311 1007.8 Q121.39 1003.2 127.2 1003.2 Z" fill="#000000" fill-rule="nonzero" fill-opacity="1" /><path clip-path="url(#clip020)" d="M147.362 1032.5 L152.246 1032.5 L152.246 1038.38 L147.362 1038.38 L147.362 1032.5 Z" fill="#000000" fill-rule="nonzero" fill-opacity="1" /><path clip-path="url(#clip020)" d="M166.459 1034.45 L182.778 1034.45 L182.778 1038.38 L160.834 1038.38 L160.834 1034.45 Q163.496 1031.69 168.079 1027.06 Q172.686 1022.41 173.866 1021.07 Q176.112 1018.54 176.991 1016.81 Q177.894 1015.05 177.894 1013.36 Q177.894 1010.6 175.95 1008.87 Q174.028 1007.13 170.927 1007.13 Q168.727 1007.13 166.274 1007.9 Q163.843 1008.66 161.065 1010.21 L161.065 1005.49 Q163.89 1004.35 166.343 1003.78 Q168.797 1003.2 170.834 1003.2 Q176.204 1003.2 179.399 1005.88 Q182.593 1008.57 182.593 1013.06 Q182.593 1015.19 181.783 1017.11 Q180.996 1019.01 178.889 1021.6 Q178.311 1022.27 175.209 1025.49 Q172.107 1028.68 166.459 1034.45 Z" fill="#000000" fill-rule="nonzero" fill-opacity="1" /><path clip-path="url(#clip020)" d="M192.639 1003.82 L210.996 1003.82 L210.996 1007.76 L196.922 1007.76 L196.922 1016.23 Q197.94 1015.88 198.959 1015.72 Q199.977 1015.54 200.996 1015.54 Q206.783 1015.54 210.162 1018.71 Q213.542 1021.88 213.542 1027.29 Q213.542 1032.87 210.07 1035.98 Q206.598 1039.05 200.278 1039.05 Q198.102 1039.05 195.834 1038.68 Q193.588 1038.31 191.181 1037.57 L191.181 1032.87 Q193.264 1034.01 195.487 1034.56 Q197.709 1035.12 200.186 1035.12 Q204.19 1035.12 206.528 1033.01 Q208.866 1030.91 208.866 1027.29 Q208.866 1023.68 206.528 1021.58 Q204.19 1019.47 200.186 1019.47 Q198.311 1019.47 196.436 1019.89 Q194.584 1020.3 192.639 1021.18 L192.639 1003.82 Z" fill="#000000" fill-rule="nonzero" fill-opacity="1" /><path clip-path="url(#clip020)" d="M126.205 745.648 Q122.593 745.648 120.765 749.213 Q118.959 752.755 118.959 759.884 Q118.959 766.991 120.765 770.555 Q122.593 774.097 126.205 774.097 Q129.839 774.097 131.644 770.555 Q133.473 766.991 133.473 759.884 Q133.473 752.755 131.644 749.213 Q129.839 745.648 126.205 745.648 M126.205 741.944 Q132.015 741.944 135.07 746.551 Q138.149 751.134 138.149 759.884 Q138.149 768.611 135.07 773.217 Q132.015 777.801 126.205 777.801 Q120.394 777.801 117.316 773.217 Q114.26 768.611 114.26 759.884 Q114.26 751.134 117.316 746.551 Q120.394 741.944 126.205 741.944 Z" fill="#000000" fill-rule="nonzero" fill-opacity="1" /><path clip-path="url(#clip020)" d="M146.366 771.25 L151.251 771.25 L151.251 777.129 L146.366 777.129 L146.366 771.25 Z" fill="#000000" fill-rule="nonzero" fill-opacity="1" /><path clip-path="url(#clip020)" d="M161.482 742.569 L179.839 742.569 L179.839 746.505 L165.765 746.505 L165.765 754.977 Q166.783 754.63 167.802 754.468 Q168.82 754.282 169.839 754.282 Q175.626 754.282 179.005 757.454 Q182.385 760.625 182.385 766.042 Q182.385 771.62 178.913 774.722 Q175.44 777.801 169.121 777.801 Q166.945 777.801 164.677 777.43 Q162.431 777.06 160.024 776.319 L160.024 771.62 Q162.107 772.754 164.329 773.31 Q166.552 773.866 169.028 773.866 Q173.033 773.866 175.371 771.759 Q177.709 769.653 177.709 766.042 Q177.709 762.43 175.371 760.324 Q173.033 758.218 169.028 758.218 Q167.153 758.218 165.278 758.634 Q163.427 759.051 161.482 759.93 L161.482 742.569 Z" fill="#000000" fill-rule="nonzero" fill-opacity="1" /><path clip-path="url(#clip020)" d="M201.598 745.648 Q197.987 745.648 196.158 749.213 Q194.352 752.755 194.352 759.884 Q194.352 766.991 196.158 770.555 Q197.987 774.097 201.598 774.097 Q205.232 774.097 207.037 770.555 Q208.866 766.991 208.866 759.884 Q208.866 752.755 207.037 749.213 Q205.232 745.648 201.598 745.648 M201.598 741.944 Q207.408 741.944 210.463 746.551 Q213.542 751.134 213.542 759.884 Q213.542 768.611 210.463 773.217 Q207.408 777.801 201.598 777.801 Q195.787 777.801 192.709 773.217 Q189.653 768.611 189.653 759.884 Q189.653 751.134 192.709 746.551 Q195.787 741.944 201.598 741.944 Z" fill="#000000" fill-rule="nonzero" fill-opacity="1" /><path clip-path="url(#clip020)" d="M127.2 484.395 Q123.589 484.395 121.76 487.96 Q119.955 491.502 119.955 498.631 Q119.955 505.738 121.76 509.302 Q123.589 512.844 127.2 512.844 Q130.834 512.844 132.64 509.302 Q134.468 505.738 134.468 498.631 Q134.468 491.502 132.64 487.96 Q130.834 484.395 127.2 484.395 M127.2 480.692 Q133.01 480.692 136.066 485.298 Q139.144 489.881 139.144 498.631 Q139.144 507.358 136.066 511.964 Q133.01 516.548 127.2 516.548 Q121.39 516.548 118.311 511.964 Q115.256 507.358 115.256 498.631 Q115.256 489.881 118.311 485.298 Q121.39 480.692 127.2 480.692 Z" fill="#000000" fill-rule="nonzero" fill-opacity="1" /><path clip-path="url(#clip020)" d="M147.362 509.997 L152.246 509.997 L152.246 515.877 L147.362 515.877 L147.362 509.997 Z" fill="#000000" fill-rule="nonzero" fill-opacity="1" /><path clip-path="url(#clip020)" d="M161.251 481.317 L183.473 481.317 L183.473 483.307 L170.927 515.877 L166.042 515.877 L177.848 485.252 L161.251 485.252 L161.251 481.317 Z" fill="#000000" fill-rule="nonzero" fill-opacity="1" /><path clip-path="url(#clip020)" d="M192.639 481.317 L210.996 481.317 L210.996 485.252 L196.922 485.252 L196.922 493.724 Q197.94 493.377 198.959 493.215 Q199.977 493.029 200.996 493.029 Q206.783 493.029 210.162 496.201 Q213.542 499.372 213.542 504.789 Q213.542 510.367 210.07 513.469 Q206.598 516.548 200.278 516.548 Q198.102 516.548 195.834 516.177 Q193.588 515.807 191.181 515.066 L191.181 510.367 Q193.264 511.502 195.487 512.057 Q197.709 512.613 200.186 512.613 Q204.19 512.613 206.528 510.506 Q208.866 508.4 208.866 504.789 Q208.866 501.178 206.528 499.071 Q204.19 496.965 200.186 496.965 Q198.311 496.965 196.436 497.381 Q194.584 497.798 192.639 498.678 L192.639 481.317 Z" fill="#000000" fill-rule="nonzero" fill-opacity="1" /><path clip-path="url(#clip020)" d="M117.015 250.688 L124.654 250.688 L124.654 224.323 L116.343 225.989 L116.343 221.73 L124.607 220.064 L129.283 220.064 L129.283 250.688 L136.922 250.688 L136.922 254.624 L117.015 254.624 L117.015 250.688 Z" fill="#000000" fill-rule="nonzero" fill-opacity="1" /><path clip-path="url(#clip020)" d="M146.366 248.744 L151.251 248.744 L151.251 254.624 L146.366 254.624 L146.366 248.744 Z" fill="#000000" fill-rule="nonzero" fill-opacity="1" /><path clip-path="url(#clip020)" d="M171.436 223.142 Q167.825 223.142 165.996 226.707 Q164.19 230.249 164.19 237.378 Q164.19 244.485 165.996 248.05 Q167.825 251.591 171.436 251.591 Q175.07 251.591 176.876 248.05 Q178.704 244.485 178.704 237.378 Q178.704 230.249 176.876 226.707 Q175.07 223.142 171.436 223.142 M171.436 219.439 Q177.246 219.439 180.301 224.045 Q183.38 228.628 183.38 237.378 Q183.38 246.105 180.301 250.712 Q177.246 255.295 171.436 255.295 Q165.626 255.295 162.547 250.712 Q159.491 246.105 159.491 237.378 Q159.491 228.628 162.547 224.045 Q165.626 219.439 171.436 219.439 Z" fill="#000000" fill-rule="nonzero" fill-opacity="1" /><path clip-path="url(#clip020)" d="M201.598 223.142 Q197.987 223.142 196.158 226.707 Q194.352 230.249 194.352 237.378 Q194.352 244.485 196.158 248.05 Q197.987 251.591 201.598 251.591 Q205.232 251.591 207.037 248.05 Q208.866 244.485 208.866 237.378 Q208.866 230.249 207.037 226.707 Q205.232 223.142 201.598 223.142 M201.598 219.439 Q207.408 219.439 210.463 224.045 Q213.542 228.628 213.542 237.378 Q213.542 246.105 210.463 250.712 Q207.408 255.295 201.598 255.295 Q195.787 255.295 192.709 250.712 Q189.653 246.105 189.653 237.378 Q189.653 228.628 192.709 224.045 Q195.787 219.439 201.598 219.439 Z" fill="#000000" fill-rule="nonzero" fill-opacity="1" /><path clip-path="url(#clip020)" d="M18.0438 811.911 L24.314 811.911 Q22.5634 815.571 21.704 818.817 Q20.8447 822.064 20.8447 825.088 Q20.8447 830.339 22.8817 833.204 Q24.9187 836.037 28.6745 836.037 Q31.8255 836.037 33.4488 834.159 Q35.0402 832.249 36.0269 826.965 L36.8226 823.082 Q38.1912 815.889 41.6605 812.483 Q45.098 809.046 50.8908 809.046 Q57.7976 809.046 61.3624 813.693 Q64.9272 818.308 64.9272 827.252 Q64.9272 830.626 64.1633 834.445 Q63.3994 838.233 61.9035 842.307 L55.2831 842.307 Q57.4793 838.392 58.5933 834.636 Q59.7073 830.88 59.7073 827.252 Q59.7073 821.746 57.543 818.754 Q55.3786 815.762 51.3682 815.762 Q47.8671 815.762 45.8937 817.926 Q43.9204 820.059 42.9337 824.96 L42.1698 828.875 Q40.7375 836.068 37.682 839.283 Q34.6264 842.498 29.1837 842.498 Q22.8817 842.498 19.2532 838.074 Q15.6248 833.618 15.6248 825.82 Q15.6248 822.478 16.2295 819.008 Q16.8343 815.539 18.0438 811.911 Z" fill="#000000" fill-rule="nonzero" fill-opacity="1" /><path clip-path="url(#clip020)" d="M58.657 793.609 L77.5631 793.609 L77.5631 799.497 L28.3562 799.497 L28.3562 793.609 L33.7671 793.609 Q30.5842 791.763 29.0564 788.962 Q27.4968 786.129 27.4968 782.215 Q27.4968 775.722 32.6531 771.679 Q37.8093 767.605 46.212 767.605 Q54.6147 767.605 59.771 771.679 Q64.9272 775.722 64.9272 782.215 Q64.9272 786.129 63.3994 788.962 Q61.8398 791.763 58.657 793.609 M46.212 773.684 Q39.7508 773.684 36.0905 776.358 Q32.3984 779 32.3984 783.647 Q32.3984 788.294 36.0905 790.967 Q39.7508 793.609 46.212 793.609 Q52.6732 793.609 56.3653 790.967 Q60.0256 788.294 60.0256 783.647 Q60.0256 779 56.3653 776.358 Q52.6732 773.684 46.212 773.684 Z" fill="#000000" fill-rule="nonzero" fill-opacity="1" /><path clip-path="url(#clip020)" d="M44.7161 727.406 L47.5806 727.406 L47.5806 754.333 Q53.6281 753.951 56.8109 750.704 Q59.9619 747.426 59.9619 741.601 Q59.9619 738.228 59.1344 735.076 Q58.3069 731.894 56.6518 728.774 L62.1899 728.774 Q63.5267 731.925 64.227 735.236 Q64.9272 738.546 64.9272 741.951 Q64.9272 750.481 59.9619 755.479 Q54.9967 760.444 46.5303 760.444 Q37.7774 760.444 32.6531 755.733 Q27.4968 750.991 27.4968 742.97 Q27.4968 735.777 32.1438 731.607 Q36.7589 727.406 44.7161 727.406 M42.9973 733.262 Q38.1912 733.326 35.3266 735.968 Q32.4621 738.578 32.4621 742.906 Q32.4621 747.808 35.2312 750.768 Q38.0002 753.696 43.0292 754.142 L42.9973 733.262 Z" fill="#000000" fill-rule="nonzero" fill-opacity="1" /><path clip-path="url(#clip020)" d="M44.7161 687.302 L47.5806 687.302 L47.5806 714.229 Q53.6281 713.847 56.8109 710.6 Q59.9619 707.322 59.9619 701.497 Q59.9619 698.124 59.1344 694.973 Q58.3069 691.79 56.6518 688.67 L62.1899 688.67 Q63.5267 691.822 64.227 695.132 Q64.9272 698.442 64.9272 701.847 Q64.9272 710.378 59.9619 715.375 Q54.9967 720.34 46.5303 720.34 Q37.7774 720.34 32.6531 715.629 Q27.4968 710.887 27.4968 702.866 Q27.4968 695.673 32.1438 691.503 Q36.7589 687.302 44.7161 687.302 M42.9973 693.158 Q38.1912 693.222 35.3266 695.864 Q32.4621 698.474 32.4621 702.802 Q32.4621 707.704 35.2312 710.664 Q38.0002 713.592 43.0292 714.038 L42.9973 693.158 Z" fill="#000000" fill-rule="nonzero" fill-opacity="1" /><path clip-path="url(#clip020)" d="M33.7671 654.232 L14.479 654.232 L14.479 648.376 L64.0042 648.376 L64.0042 654.232 L58.657 654.232 Q61.8398 656.078 63.3994 658.911 Q64.9272 661.712 64.9272 665.658 Q64.9272 672.12 59.771 676.194 Q54.6147 680.236 46.212 680.236 Q37.8093 680.236 32.6531 676.194 Q27.4968 672.12 27.4968 665.658 Q27.4968 661.712 29.0564 658.911 Q30.5842 656.078 33.7671 654.232 M46.212 674.189 Q52.6732 674.189 56.3653 671.547 Q60.0256 668.873 60.0256 664.226 Q60.0256 659.579 56.3653 656.906 Q52.6732 654.232 46.212 654.232 Q39.7508 654.232 36.0905 656.906 Q32.3984 659.579 32.3984 664.226 Q32.3984 668.873 36.0905 671.547 Q39.7508 674.189 46.212 674.189 Z" fill="#000000" fill-rule="nonzero" fill-opacity="1" /><path clip-path="url(#clip020)" d="M49.9359 636.917 L28.3562 636.917 L28.3562 631.061 L49.7131 631.061 Q54.7739 631.061 57.3202 629.087 Q59.8346 627.114 59.8346 623.167 Q59.8346 618.425 56.8109 615.688 Q53.7872 612.919 48.5673 612.919 L28.3562 612.919 L28.3562 607.062 L64.0042 607.062 L64.0042 612.919 L58.5296 612.919 Q61.7762 615.051 63.3676 617.884 Q64.9272 620.685 64.9272 624.409 Q64.9272 630.552 61.1078 633.734 Q57.2883 636.917 49.9359 636.917 M27.4968 622.181 L27.4968 622.181 Z" fill="#000000" fill-rule="nonzero" fill-opacity="1" /><path clip-path="url(#clip020)" d="M58.657 589.334 L77.5631 589.334 L77.5631 595.222 L28.3562 595.222 L28.3562 589.334 L33.7671 589.334 Q30.5842 587.488 29.0564 584.687 Q27.4968 581.854 27.4968 577.939 Q27.4968 571.446 32.6531 567.404 Q37.8093 563.33 46.212 563.33 Q54.6147 563.33 59.771 567.404 Q64.9272 571.446 64.9272 577.939 Q64.9272 581.854 63.3994 584.687 Q61.8398 587.488 58.657 589.334 M46.212 569.409 Q39.7508 569.409 36.0905 572.083 Q32.3984 574.724 32.3984 579.371 Q32.3984 584.018 36.0905 586.692 Q39.7508 589.334 46.212 589.334 Q52.6732 589.334 56.3653 586.692 Q60.0256 584.018 60.0256 579.371 Q60.0256 574.724 56.3653 572.083 Q52.6732 569.409 46.212 569.409 Z" fill="#000000" fill-rule="nonzero" fill-opacity="1" /><path clip-path="url(#clip020)" d="M684.46 14.0809 L684.46 22.0612 Q679.801 19.8332 675.669 18.7395 Q671.537 17.6457 667.689 17.6457 Q661.005 17.6457 657.359 20.2383 Q653.754 22.8309 653.754 27.611 Q653.754 31.6214 656.144 33.6873 Q658.574 35.7128 665.299 36.9686 L670.241 37.9813 Q679.396 39.7232 683.73 44.1387 Q688.105 48.5136 688.105 55.8863 Q688.105 64.6767 682.191 69.2137 Q676.317 73.7508 664.934 73.7508 Q660.64 73.7508 655.779 72.7785 Q650.959 71.8063 645.773 69.9024 L645.773 61.4765 Q650.756 64.2716 655.536 65.6895 Q660.316 67.1073 664.934 67.1073 Q671.942 67.1073 675.75 64.3527 Q679.558 61.598 679.558 56.4939 Q679.558 52.0379 676.803 49.5264 Q674.089 47.0148 667.851 45.759 L662.868 44.7868 Q653.713 42.9639 649.622 39.075 Q645.53 35.1862 645.53 28.2591 Q645.53 20.2383 651.161 15.6203 Q656.832 11.0023 666.757 11.0023 Q671.011 11.0023 675.426 11.7719 Q679.842 12.5416 684.46 14.0809 Z" fill="#000000" fill-rule="nonzero" fill-opacity="1" /><path clip-path="url(#clip020)" d="M707.752 65.7705 L707.752 89.8329 L700.258 89.8329 L700.258 27.2059 L707.752 27.2059 L707.752 34.0924 Q710.102 30.0415 713.667 28.0971 Q717.272 26.1121 722.255 26.1121 Q730.518 26.1121 735.663 32.6746 Q740.848 39.2371 740.848 49.9314 Q740.848 60.6258 735.663 67.1883 Q730.518 73.7508 722.255 73.7508 Q717.272 73.7508 713.667 71.8063 Q710.102 69.8214 707.752 65.7705 M733.111 49.9314 Q733.111 41.7081 729.708 37.0496 Q726.346 32.3505 720.432 32.3505 Q714.517 32.3505 711.115 37.0496 Q707.752 41.7081 707.752 49.9314 Q707.752 58.1548 711.115 62.8538 Q714.517 67.5124 720.432 67.5124 Q726.346 67.5124 729.708 62.8538 Q733.111 58.1548 733.111 49.9314 Z" fill="#000000" fill-rule="nonzero" fill-opacity="1" /><path clip-path="url(#clip020)" d="M792.011 48.0275 L792.011 51.6733 L757.74 51.6733 Q758.227 59.3701 762.358 63.421 Q766.531 67.4314 773.944 67.4314 Q778.238 67.4314 782.248 66.3781 Q786.299 65.3249 790.269 63.2184 L790.269 70.267 Q786.259 71.9684 782.046 72.8596 Q777.833 73.7508 773.498 73.7508 Q762.642 73.7508 756.282 67.4314 Q749.963 61.1119 749.963 50.3365 Q749.963 39.1965 755.958 32.6746 Q761.994 26.1121 772.202 26.1121 Q781.357 26.1121 786.664 32.0264 Q792.011 37.9003 792.011 48.0275 M784.557 45.84 Q784.476 39.7232 781.114 36.0774 Q777.792 32.4315 772.283 32.4315 Q766.045 32.4315 762.277 35.9558 Q758.551 39.4801 757.983 45.8805 L784.557 45.84 Z" fill="#000000" fill-rule="nonzero" fill-opacity="1" /><path clip-path="url(#clip020)" d="M843.052 48.0275 L843.052 51.6733 L808.782 51.6733 Q809.268 59.3701 813.4 63.421 Q817.572 67.4314 824.985 67.4314 Q829.279 67.4314 833.29 66.3781 Q837.341 65.3249 841.311 63.2184 L841.311 70.267 Q837.3 71.9684 833.087 72.8596 Q828.874 73.7508 824.54 73.7508 Q813.683 73.7508 807.323 67.4314 Q801.004 61.1119 801.004 50.3365 Q801.004 39.1965 806.999 32.6746 Q813.035 26.1121 823.244 26.1121 Q832.399 26.1121 837.705 32.0264 Q843.052 37.9003 843.052 48.0275 M835.599 45.84 Q835.518 39.7232 832.156 36.0774 Q828.834 32.4315 823.325 32.4315 Q817.086 32.4315 813.319 35.9558 Q809.592 39.4801 809.025 45.8805 L835.599 45.84 Z" fill="#000000" fill-rule="nonzero" fill-opacity="1" /><path clip-path="url(#clip020)" d="M885.141 34.0924 L885.141 9.54393 L892.595 9.54393 L892.595 72.576 L885.141 72.576 L885.141 65.7705 Q882.792 69.8214 879.187 71.8063 Q875.622 73.7508 870.599 73.7508 Q862.375 73.7508 857.19 67.1883 Q852.045 60.6258 852.045 49.9314 Q852.045 39.2371 857.19 32.6746 Q862.375 26.1121 870.599 26.1121 Q875.622 26.1121 879.187 28.0971 Q882.792 30.0415 885.141 34.0924 M859.742 49.9314 Q859.742 58.1548 863.104 62.8538 Q866.507 67.5124 872.422 67.5124 Q878.336 67.5124 881.739 62.8538 Q885.141 58.1548 885.141 49.9314 Q885.141 41.7081 881.739 37.0496 Q878.336 32.3505 872.422 32.3505 Q866.507 32.3505 863.104 37.0496 Q859.742 41.7081 859.742 49.9314 Z" fill="#000000" fill-rule="nonzero" fill-opacity="1" /><path clip-path="url(#clip020)" d="M907.178 54.671 L907.178 27.2059 L914.632 27.2059 L914.632 54.3874 Q914.632 60.8284 917.144 64.0691 Q919.655 67.2693 924.678 67.2693 Q930.714 67.2693 934.198 63.421 Q937.722 59.5726 937.722 52.9291 L937.722 27.2059 L945.176 27.2059 L945.176 72.576 L937.722 72.576 L937.722 65.6084 Q935.008 69.7404 931.403 71.7658 Q927.838 73.7508 923.098 73.7508 Q915.28 73.7508 911.229 68.8897 Q907.178 64.0286 907.178 54.671 M925.934 26.1121 L925.934 26.1121 Z" fill="#000000" fill-rule="nonzero" fill-opacity="1" /><path clip-path="url(#clip020)" d="M967.739 65.7705 L967.739 89.8329 L960.245 89.8329 L960.245 27.2059 L967.739 27.2059 L967.739 34.0924 Q970.089 30.0415 973.654 28.0971 Q977.259 26.1121 982.242 26.1121 Q990.505 26.1121 995.65 32.6746 Q1000.84 39.2371 1000.84 49.9314 Q1000.84 60.6258 995.65 67.1883 Q990.505 73.7508 982.242 73.7508 Q977.259 73.7508 973.654 71.8063 Q970.089 69.8214 967.739 65.7705 M993.098 49.9314 Q993.098 41.7081 989.695 37.0496 Q986.333 32.3505 980.419 32.3505 Q974.504 32.3505 971.102 37.0496 Q967.739 41.7081 967.739 49.9314 Q967.739 58.1548 971.102 62.8538 Q974.504 67.5124 980.419 67.5124 Q986.333 67.5124 989.695 62.8538 Q993.098 58.1548 993.098 49.9314 Z" fill="#000000" fill-rule="nonzero" fill-opacity="1" /><path clip-path="url(#clip020)" d="M1039.56 9.54393 L1047.02 9.54393 L1047.02 72.576 L1039.56 72.576 L1039.56 9.54393 Z" fill="#000000" fill-rule="nonzero" fill-opacity="1" /><path clip-path="url(#clip020)" d="M1061.84 54.671 L1061.84 27.2059 L1069.3 27.2059 L1069.3 54.3874 Q1069.3 60.8284 1071.81 64.0691 Q1074.32 67.2693 1079.34 67.2693 Q1085.38 67.2693 1088.86 63.421 Q1092.39 59.5726 1092.39 52.9291 L1092.39 27.2059 L1099.84 27.2059 L1099.84 72.576 L1092.39 72.576 L1092.39 65.6084 Q1089.67 69.7404 1086.07 71.7658 Q1082.5 73.7508 1077.76 73.7508 Q1069.94 73.7508 1065.89 68.8897 Q1061.84 64.0286 1061.84 54.671 M1080.6 26.1121 L1080.6 26.1121 Z" fill="#000000" fill-rule="nonzero" fill-opacity="1" /><path clip-path="url(#clip020)" d="M1117.1 62.2867 L1125.64 62.2867 L1125.64 69.2543 L1119 82.2172 L1113.77 82.2172 L1117.1 69.2543 L1117.1 62.2867 Z" fill="#000000" fill-rule="nonzero" fill-opacity="1" /><path clip-path="url(#clip020)" d="M1175.15 65.7705 L1175.15 89.8329 L1167.65 89.8329 L1167.65 27.2059 L1175.15 27.2059 L1175.15 34.0924 Q1177.5 30.0415 1181.06 28.0971 Q1184.67 26.1121 1189.65 26.1121 Q1197.91 26.1121 1203.06 32.6746 Q1208.24 39.2371 1208.24 49.9314 Q1208.24 60.6258 1203.06 67.1883 Q1197.91 73.7508 1189.65 73.7508 Q1184.67 73.7508 1181.06 71.8063 Q1177.5 69.8214 1175.15 65.7705 M1200.5 49.9314 Q1200.5 41.7081 1197.1 37.0496 Q1193.74 32.3505 1187.82 32.3505 Q1181.91 32.3505 1178.51 37.0496 Q1175.15 41.7081 1175.15 49.9314 Q1175.15 58.1548 1178.51 62.8538 Q1181.91 67.5124 1187.82 67.5124 Q1193.74 67.5124 1197.1 62.8538 Q1200.5 58.1548 1200.5 49.9314 Z" fill="#000000" fill-rule="nonzero" fill-opacity="1" /><path clip-path="url(#clip020)" d="M1246.89 34.1734 Q1245.63 33.4443 1244.13 33.1202 Q1242.67 32.7556 1240.89 32.7556 Q1234.57 32.7556 1231.17 36.8875 Q1227.81 40.9789 1227.81 48.6757 L1227.81 72.576 L1220.31 72.576 L1220.31 27.2059 L1227.81 27.2059 L1227.81 34.2544 Q1230.16 30.1225 1233.92 28.1376 Q1237.69 26.1121 1243.08 26.1121 Q1243.85 26.1121 1244.78 26.2337 Q1245.71 26.3147 1246.85 26.5172 L1246.89 34.1734 Z" fill="#000000" fill-rule="nonzero" fill-opacity="1" /><path clip-path="url(#clip020)" d="M1291.69 48.0275 L1291.69 51.6733 L1257.42 51.6733 Q1257.91 59.3701 1262.04 63.421 Q1266.21 67.4314 1273.62 67.4314 Q1277.92 67.4314 1281.93 66.3781 Q1285.98 65.3249 1289.95 63.2184 L1289.95 70.267 Q1285.94 71.9684 1281.72 72.8596 Q1277.51 73.7508 1273.18 73.7508 Q1262.32 73.7508 1255.96 67.4314 Q1249.64 61.1119 1249.64 50.3365 Q1249.64 39.1965 1255.64 32.6746 Q1261.67 26.1121 1271.88 26.1121 Q1281.04 26.1121 1286.34 32.0264 Q1291.69 37.9003 1291.69 48.0275 M1284.24 45.84 Q1284.16 39.7232 1280.79 36.0774 Q1277.47 32.4315 1271.96 32.4315 Q1265.72 32.4315 1261.96 35.9558 Q1258.23 39.4801 1257.66 45.8805 L1284.24 45.84 Z" fill="#000000" fill-rule="nonzero" fill-opacity="1" /><path clip-path="url(#clip020)" d="M1332.85 28.5427 L1332.85 35.5912 Q1329.69 33.9709 1326.28 33.1607 Q1322.88 32.3505 1319.24 32.3505 Q1313.69 32.3505 1310.89 34.0519 Q1308.14 35.7533 1308.14 39.156 Q1308.14 41.7486 1310.12 43.2475 Q1312.11 44.7058 1318.1 46.0426 L1320.65 46.6097 Q1328.59 48.3111 1331.92 51.4303 Q1335.28 54.509 1335.28 60.0587 Q1335.28 66.3781 1330.25 70.0644 Q1325.27 73.7508 1316.52 73.7508 Q1312.88 73.7508 1308.91 73.0216 Q1304.98 72.3329 1300.6 70.9151 L1300.6 63.2184 Q1304.73 65.3654 1308.74 66.4591 Q1312.75 67.5124 1316.68 67.5124 Q1321.95 67.5124 1324.79 65.73 Q1327.62 63.9071 1327.62 60.6258 Q1327.62 57.5877 1325.56 55.9673 Q1323.53 54.3469 1316.6 52.8481 L1314.01 52.2405 Q1307.08 50.7821 1304 47.7845 Q1300.93 44.7463 1300.93 39.4801 Q1300.93 33.0797 1305.46 29.5959 Q1310 26.1121 1318.35 26.1121 Q1322.48 26.1121 1326.12 26.7198 Q1329.77 27.3274 1332.85 28.5427 Z" fill="#000000" fill-rule="nonzero" fill-opacity="1" /><path clip-path="url(#clip020)" d="M1385.95 48.0275 L1385.95 51.6733 L1351.68 51.6733 Q1352.17 59.3701 1356.3 63.421 Q1360.47 67.4314 1367.89 67.4314 Q1372.18 67.4314 1376.19 66.3781 Q1380.24 65.3249 1384.21 63.2184 L1384.21 70.267 Q1380.2 71.9684 1375.99 72.8596 Q1371.78 73.7508 1367.44 73.7508 Q1356.59 73.7508 1350.23 67.4314 Q1343.91 61.1119 1343.91 50.3365 Q1343.91 39.1965 1349.9 32.6746 Q1355.94 26.1121 1366.15 26.1121 Q1375.3 26.1121 1380.61 32.0264 Q1385.95 37.9003 1385.95 48.0275 M1378.5 45.84 Q1378.42 39.7232 1375.06 36.0774 Q1371.74 32.4315 1366.23 32.4315 Q1359.99 32.4315 1356.22 35.9558 Q1352.49 39.4801 1351.93 45.8805 L1378.5 45.84 Z" fill="#000000" fill-rule="nonzero" fill-opacity="1" /><path clip-path="url(#clip020)" d="M1405.56 14.324 L1405.56 27.2059 L1420.91 27.2059 L1420.91 32.9987 L1405.56 32.9987 L1405.56 57.6282 Q1405.56 63.1779 1407.06 64.7578 Q1408.6 66.3376 1413.26 66.3376 L1420.91 66.3376 L1420.91 72.576 L1413.26 72.576 Q1404.63 72.576 1401.35 69.3758 Q1398.07 66.1351 1398.07 57.6282 L1398.07 32.9987 L1392.6 32.9987 L1392.6 27.2059 L1398.07 27.2059 L1398.07 14.324 L1405.56 14.324 Z" fill="#000000" fill-rule="nonzero" fill-opacity="1" /><path clip-path="url(#clip020)" d="M1464.14 12.096 L1464.14 34.5785 L1457.25 34.5785 L1457.25 12.096 L1464.14 12.096 Z" fill="#000000" fill-rule="nonzero" fill-opacity="1" /><path clip-path="url(#clip020)" d="M1487.11 65.7705 L1487.11 89.8329 L1479.61 89.8329 L1479.61 27.2059 L1487.11 27.2059 L1487.11 34.0924 Q1489.46 30.0415 1493.02 28.0971 Q1496.63 26.1121 1501.61 26.1121 Q1509.87 26.1121 1515.02 32.6746 Q1520.2 39.2371 1520.2 49.9314 Q1520.2 60.6258 1515.02 67.1883 Q1509.87 73.7508 1501.61 73.7508 Q1496.63 73.7508 1493.02 71.8063 Q1489.46 69.8214 1487.11 65.7705 M1512.46 49.9314 Q1512.46 41.7081 1509.06 37.0496 Q1505.7 32.3505 1499.79 32.3505 Q1493.87 32.3505 1490.47 37.0496 Q1487.11 41.7081 1487.11 49.9314 Q1487.11 58.1548 1490.47 62.8538 Q1493.87 67.5124 1499.79 67.5124 Q1505.7 67.5124 1509.06 62.8538 Q1512.46 58.1548 1512.46 49.9314 Z" fill="#000000" fill-rule="nonzero" fill-opacity="1" /><path clip-path="url(#clip020)" d="M1553.18 49.7694 Q1544.14 49.7694 1540.66 51.8354 Q1537.17 53.9013 1537.17 58.8839 Q1537.17 62.8538 1539.77 65.2034 Q1542.4 67.5124 1546.9 67.5124 Q1553.09 67.5124 1556.82 63.1374 Q1560.59 58.7219 1560.59 51.4303 L1560.59 49.7694 L1553.18 49.7694 M1568.04 46.6907 L1568.04 72.576 L1560.59 72.576 L1560.59 65.6895 Q1558.04 69.8214 1554.23 71.8063 Q1550.42 73.7508 1544.91 73.7508 Q1537.94 73.7508 1533.81 69.8619 Q1529.72 65.9325 1529.72 59.3701 Q1529.72 51.7138 1534.83 47.825 Q1539.97 43.9361 1550.14 43.9361 L1560.59 43.9361 L1560.59 43.2069 Q1560.59 38.0623 1557.19 35.2672 Q1553.82 32.4315 1547.71 32.4315 Q1543.82 32.4315 1540.13 33.3632 Q1536.45 34.295 1533.04 36.1584 L1533.04 29.2718 Q1537.13 27.692 1540.98 26.9223 Q1544.83 26.1121 1548.48 26.1121 Q1558.32 26.1121 1563.18 31.2163 Q1568.04 36.3204 1568.04 46.6907 Z" fill="#000000" fill-rule="nonzero" fill-opacity="1" /><path clip-path="url(#clip020)" d="M1590.61 65.7705 L1590.61 89.8329 L1583.11 89.8329 L1583.11 27.2059 L1590.61 27.2059 L1590.61 34.0924 Q1592.96 30.0415 1596.52 28.0971 Q1600.13 26.1121 1605.11 26.1121 Q1613.37 26.1121 1618.52 32.6746 Q1623.7 39.2371 1623.7 49.9314 Q1623.7 60.6258 1618.52 67.1883 Q1613.37 73.7508 1605.11 73.7508 Q1600.13 73.7508 1596.52 71.8063 Q1592.96 69.8214 1590.61 65.7705 M1615.96 49.9314 Q1615.96 41.7081 1612.56 37.0496 Q1609.2 32.3505 1603.29 32.3505 Q1597.37 32.3505 1593.97 37.0496 Q1590.61 41.7081 1590.61 49.9314 Q1590.61 58.1548 1593.97 62.8538 Q1597.37 67.5124 1603.29 67.5124 Q1609.2 67.5124 1612.56 62.8538 Q1615.96 58.1548 1615.96 49.9314 Z" fill="#000000" fill-rule="nonzero" fill-opacity="1" /><path clip-path="url(#clip020)" d="M1674.87 48.0275 L1674.87 51.6733 L1640.59 51.6733 Q1641.08 59.3701 1645.21 63.421 Q1649.38 67.4314 1656.8 67.4314 Q1661.09 67.4314 1665.1 66.3781 Q1669.15 65.3249 1673.12 63.2184 L1673.12 70.267 Q1669.11 71.9684 1664.9 72.8596 Q1660.69 73.7508 1656.35 73.7508 Q1645.5 73.7508 1639.14 67.4314 Q1632.82 61.1119 1632.82 50.3365 Q1632.82 39.1965 1638.81 32.6746 Q1644.85 26.1121 1655.06 26.1121 Q1664.21 26.1121 1669.52 32.0264 Q1674.87 37.9003 1674.87 48.0275 M1667.41 45.84 Q1667.33 39.7232 1663.97 36.0774 Q1660.65 32.4315 1655.14 32.4315 Q1648.9 32.4315 1645.13 35.9558 Q1641.4 39.4801 1640.84 45.8805 L1667.41 45.84 Z" fill="#000000" fill-rule="nonzero" fill-opacity="1" /><path clip-path="url(#clip020)" d="M1713.39 34.1734 Q1712.13 33.4443 1710.63 33.1202 Q1709.18 32.7556 1707.39 32.7556 Q1701.07 32.7556 1697.67 36.8875 Q1694.31 40.9789 1694.31 48.6757 L1694.31 72.576 L1686.82 72.576 L1686.82 27.2059 L1694.31 27.2059 L1694.31 34.2544 Q1696.66 30.1225 1700.43 28.1376 Q1704.19 26.1121 1709.58 26.1121 Q1710.35 26.1121 1711.28 26.2337 Q1712.21 26.3147 1713.35 26.5172 L1713.39 34.1734 Z" fill="#000000" fill-rule="nonzero" fill-opacity="1" /><path clip-path="url(#clip020)" d="M1728.26 12.096 L1728.26 34.5785 L1721.37 34.5785 L1721.37 12.096 L1728.26 12.096 Z" fill="#000000" fill-rule="nonzero" fill-opacity="1" /><path clip-path="url(#clip020)" d="M1745.92 62.2867 L1754.47 62.2867 L1754.47 69.2543 L1747.82 82.2172 L1742.6 82.2172 L1745.92 69.2543 L1745.92 62.2867 Z" fill="#000000" fill-rule="nonzero" fill-opacity="1" /><path clip-path="url(#clip020)" d="M1838.32 63.9476 L1838.32 47.7034 L1824.95 47.7034 L1824.95 40.9789 L1846.42 40.9789 L1846.42 66.9452 Q1841.68 70.3075 1835.97 72.0494 Q1830.26 73.7508 1823.78 73.7508 Q1809.6 73.7508 1801.58 65.4869 Q1793.6 57.1826 1793.6 42.3968 Q1793.6 27.5705 1801.58 19.3066 Q1809.6 11.0023 1823.78 11.0023 Q1829.69 11.0023 1835 12.4606 Q1840.34 13.9189 1844.84 16.7545 L1844.84 25.464 Q1840.3 21.6156 1835.2 19.6712 Q1830.1 17.7268 1824.47 17.7268 Q1813.37 17.7268 1807.78 23.9246 Q1802.23 30.1225 1802.23 42.3968 Q1802.23 54.6305 1807.78 60.8284 Q1813.37 67.0263 1824.47 67.0263 Q1828.8 67.0263 1832.2 66.2971 Q1835.61 65.5274 1838.32 63.9476 Z" fill="#000000" fill-rule="nonzero" fill-opacity="1" /><path clip-path="url(#clip020)" d="M1869.55 18.8205 L1869.55 41.5461 L1879.84 41.5461 Q1885.55 41.5461 1888.67 38.5889 Q1891.79 35.6318 1891.79 30.163 Q1891.79 24.7348 1888.67 21.7777 Q1885.55 18.8205 1879.84 18.8205 L1869.55 18.8205 M1861.37 12.096 L1879.84 12.096 Q1890.01 12.096 1895.19 16.714 Q1900.42 21.2916 1900.42 30.163 Q1900.42 39.1155 1895.19 43.6931 Q1890.01 48.2706 1879.84 48.2706 L1869.55 48.2706 L1869.55 72.576 L1861.37 72.576 L1861.37 12.096 Z" fill="#000000" fill-rule="nonzero" fill-opacity="1" /><path clip-path="url(#clip020)" d="M1910.47 12.096 L1918.69 12.096 L1918.69 48.8377 Q1918.69 58.5599 1922.21 62.8538 Q1925.74 67.1073 1933.64 67.1073 Q1941.5 67.1073 1945.02 62.8538 Q1948.54 58.5599 1948.54 48.8377 L1948.54 12.096 L1956.77 12.096 L1956.77 49.8504 Q1956.77 61.6791 1950.89 67.7149 Q1945.06 73.7508 1933.64 73.7508 Q1922.17 73.7508 1916.3 67.7149 Q1910.47 61.6791 1910.47 49.8504 L1910.47 12.096 Z" fill="#000000" fill-rule="nonzero" fill-opacity="1" /><path clip-path="url(#clip022)" d="M328.787 237.344 L328.787 1282.36 L986.105 1282.36 L986.105 237.344 L328.787 237.344 L328.787 237.344  Z" fill="#808080" fill-rule="evenodd" fill-opacity="1"/>
<polyline clip-path="url(#clip022)" style="stroke:#000000; stroke-linecap:round; stroke-linejoin:round; stroke-width:4; stroke-opacity:1; fill:none" points="328.787,237.344 328.787,1282.36 986.105,1282.36 986.105,237.344 328.787,237.344 "/>
<circle clip-path="url(#clip022)" style="fill:#808080; stroke:none; fill-opacity:0" cx="657.446" cy="237.344" r="2"/>
<polyline clip-path="url(#clip022)" style="stroke:#000000; stroke-linecap:round; stroke-linejoin:round; stroke-width:4; stroke-opacity:1; fill:none" points="657.446,243.376 657.446,228.825 "/>
<line clip-path="url(#clip022)" x1="673.446" y1="243.376" x2="641.446" y2="243.376" style="stroke:#000000; stroke-width:4; stroke-opacity:1"/>
<line clip-path="url(#clip022)" x1="673.446" y1="228.825" x2="641.446" y2="228.825" style="stroke:#000000; stroke-width:4; stroke-opacity:1"/>
<path clip-path="url(#clip022)" d="M1616.19 941.208 L1616.19 1282.36 L2273.51 1282.36 L2273.51 941.208 L1616.19 941.208 L1616.19 941.208  Z" fill="#17913e" fill-rule="evenodd" fill-opacity="1"/>
<polyline clip-path="url(#clip022)" style="stroke:#000000; stroke-linecap:round; stroke-linejoin:round; stroke-width:4; stroke-opacity:1; fill:none" points="1616.19,941.208 1616.19,1282.36 2273.51,1282.36 2273.51,941.208 1616.19,941.208 "/>
<circle clip-path="url(#clip022)" style="fill:#17913e; stroke:none; fill-opacity:0" cx="1944.85" cy="941.208" r="2"/>
<polyline clip-path="url(#clip022)" style="stroke:#000000; stroke-linecap:round; stroke-linejoin:round; stroke-width:4; stroke-opacity:1; fill:none" points="1944.85,948.604 1944.85,935.516 "/>
<line clip-path="url(#clip022)" x1="1960.85" y1="948.604" x2="1928.85" y2="948.604" style="stroke:#000000; stroke-width:4; stroke-opacity:1"/>
<line clip-path="url(#clip022)" x1="1960.85" y1="935.516" x2="1928.85" y2="935.516" style="stroke:#000000; stroke-width:4; stroke-opacity:1"/>
<path clip-path="url(#clip020)" d="M1914.83 369.462 L2282.65 369.462 L2282.65 162.102 L1914.83 162.102  Z" fill="#ffffff" fill-rule="evenodd" fill-opacity="1"/>
<polyline clip-path="url(#clip020)" style="stroke:#000000; stroke-linecap:round; stroke-linejoin:round; stroke-width:4; stroke-opacity:1; fill:none" points="1914.83,369.462 2282.65,369.462 2282.65,162.102 1914.83,162.102 1914.83,369.462 "/>
<path clip-path="url(#clip020)" d="M1938.2 234.678 L2078.41 234.678 L2078.41 193.206 L1938.2 193.206 L1938.2 234.678  Z" fill="#808080" fill-rule="evenodd" fill-opacity="1"/>
<polyline clip-path="url(#clip020)" style="stroke:#000000; stroke-linecap:round; stroke-linejoin:round; stroke-width:4; stroke-opacity:1; fill:none" points="1938.2,234.678 2078.41,234.678 2078.41,193.206 1938.2,193.206 1938.2,234.678 "/>
<path clip-path="url(#clip020)" d="M2129.65 199.324 L2129.65 204.254 Q2127.29 202.055 2124.6 200.967 Q2121.94 199.879 2118.93 199.879 Q2113.01 199.879 2109.86 203.513 Q2106.71 207.124 2106.71 213.976 Q2106.71 220.805 2109.86 224.439 Q2113.01 228.05 2118.93 228.05 Q2121.94 228.05 2124.6 226.962 Q2127.29 225.874 2129.65 223.675 L2129.65 228.56 Q2127.2 230.226 2124.44 231.06 Q2121.71 231.893 2118.66 231.893 Q2110.81 231.893 2106.29 227.101 Q2101.78 222.286 2101.78 213.976 Q2101.78 205.643 2106.29 200.851 Q2110.81 196.037 2118.66 196.037 Q2121.76 196.037 2124.49 196.87 Q2127.24 197.68 2129.65 199.324 Z" fill="#000000" fill-rule="nonzero" fill-opacity="1" /><path clip-path="url(#clip020)" d="M1938.2 286.518 L2078.41 286.518 L2078.41 245.046 L1938.2 245.046 L1938.2 286.518  Z" fill="#17913e" fill-rule="evenodd" fill-opacity="1"/>
<polyline clip-path="url(#clip020)" style="stroke:#000000; stroke-linecap:round; stroke-linejoin:round; stroke-width:4; stroke-opacity:1; fill:none" points="1938.2,286.518 2078.41,286.518 2078.41,245.046 1938.2,245.046 1938.2,286.518 "/>
<path clip-path="url(#clip020)" d="M2107.1 257.136 L2111.36 257.136 L2111.36 283.525 Q2111.36 288.478 2109.47 290.7 Q2107.59 292.923 2103.4 292.923 L2101.78 292.923 L2101.78 289.312 L2102.91 289.312 Q2105.35 289.312 2106.22 288.177 Q2107.1 287.066 2107.1 283.525 L2107.1 257.136 M2107.1 247.043 L2111.36 247.043 L2111.36 252.437 L2107.1 252.437 L2107.1 247.043 Z" fill="#000000" fill-rule="nonzero" fill-opacity="1" /><path clip-path="url(#clip020)" d="M2119.84 272.83 L2119.84 257.136 L2124.1 257.136 L2124.1 272.668 Q2124.1 276.349 2125.53 278.2 Q2126.97 280.029 2129.84 280.029 Q2133.29 280.029 2135.28 277.83 Q2137.29 275.631 2137.29 271.835 L2137.29 257.136 L2141.55 257.136 L2141.55 283.062 L2137.29 283.062 L2137.29 279.08 Q2135.74 281.441 2133.68 282.599 Q2131.64 283.733 2128.93 283.733 Q2124.47 283.733 2122.15 280.955 Q2119.84 278.177 2119.84 272.83 M2130.55 256.511 L2130.55 256.511 Z" fill="#000000" fill-rule="nonzero" fill-opacity="1" /><path clip-path="url(#clip020)" d="M2150.32 247.043 L2154.58 247.043 L2154.58 283.062 L2150.32 283.062 L2150.32 247.043 Z" fill="#000000" fill-rule="nonzero" fill-opacity="1" /><path clip-path="url(#clip020)" d="M2163.49 257.136 L2167.75 257.136 L2167.75 283.062 L2163.49 283.062 L2163.49 257.136 M2163.49 247.043 L2167.75 247.043 L2167.75 252.437 L2163.49 252.437 L2163.49 247.043 Z" fill="#000000" fill-rule="nonzero" fill-opacity="1" /><path clip-path="url(#clip020)" d="M2188.45 270.029 Q2183.28 270.029 2181.29 271.21 Q2179.3 272.39 2179.3 275.238 Q2179.3 277.506 2180.78 278.849 Q2182.29 280.168 2184.86 280.168 Q2188.4 280.168 2190.53 277.668 Q2192.68 275.145 2192.68 270.978 L2192.68 270.029 L2188.45 270.029 M2196.94 268.27 L2196.94 283.062 L2192.68 283.062 L2192.68 279.126 Q2191.22 281.488 2189.05 282.622 Q2186.87 283.733 2183.72 283.733 Q2179.74 283.733 2177.38 281.511 Q2175.04 279.265 2175.04 275.515 Q2175.04 271.14 2177.96 268.918 Q2180.9 266.696 2186.71 266.696 L2192.68 266.696 L2192.68 266.279 Q2192.68 263.339 2190.74 261.742 Q2188.82 260.122 2185.32 260.122 Q2183.1 260.122 2180.99 260.654 Q2178.89 261.187 2176.94 262.251 L2176.94 258.316 Q2179.28 257.414 2181.48 256.974 Q2183.68 256.511 2185.76 256.511 Q2191.39 256.511 2194.16 259.427 Q2196.94 262.344 2196.94 268.27 Z" fill="#000000" fill-rule="nonzero" fill-opacity="1" /><path clip-path="url(#clip020)" d="M1938.2 338.358 L2078.41 338.358 L2078.41 296.886 L1938.2 296.886 L1938.2 338.358  Z" fill="#3065a6" fill-rule="evenodd" fill-opacity="1"/>
<polyline clip-path="url(#clip020)" style="stroke:#000000; stroke-linecap:round; stroke-linejoin:round; stroke-width:4; stroke-opacity:1; fill:none" points="1938.2,338.358 2078.41,338.358 2078.41,296.886 1938.2,296.886 1938.2,338.358 "/>
<path clip-path="url(#clip020)" d="M2106.06 331.013 L2106.06 344.763 L2101.78 344.763 L2101.78 308.976 L2106.06 308.976 L2106.06 312.911 Q2107.41 310.596 2109.44 309.485 Q2111.5 308.351 2114.35 308.351 Q2119.07 308.351 2122.01 312.101 Q2124.97 315.851 2124.97 321.962 Q2124.97 328.073 2122.01 331.823 Q2119.07 335.573 2114.35 335.573 Q2111.5 335.573 2109.44 334.462 Q2107.41 333.328 2106.06 331.013 M2120.55 321.962 Q2120.55 317.263 2118.61 314.601 Q2116.69 311.916 2113.31 311.916 Q2109.93 311.916 2107.98 314.601 Q2106.06 317.263 2106.06 321.962 Q2106.06 326.661 2107.98 329.346 Q2109.93 332.008 2113.31 332.008 Q2116.69 332.008 2118.61 329.346 Q2120.55 326.661 2120.55 321.962 Z" fill="#000000" fill-rule="nonzero" fill-opacity="1" /><path clip-path="url(#clip020)" d="M2142.82 337.309 Q2141.02 341.939 2139.3 343.351 Q2137.59 344.763 2134.72 344.763 L2131.32 344.763 L2131.32 341.198 L2133.82 341.198 Q2135.58 341.198 2136.55 340.365 Q2137.52 339.531 2138.7 336.429 L2139.47 334.485 L2128.98 308.976 L2133.49 308.976 L2141.6 329.253 L2149.7 308.976 L2154.21 308.976 L2142.82 337.309 Z" fill="#000000" fill-rule="nonzero" fill-opacity="1" /><path clip-path="url(#clip020)" d="M2164.3 301.615 L2164.3 308.976 L2173.08 308.976 L2173.08 312.286 L2164.3 312.286 L2164.3 326.36 Q2164.3 329.531 2165.16 330.434 Q2166.04 331.337 2168.7 331.337 L2173.08 331.337 L2173.08 334.902 L2168.7 334.902 Q2163.77 334.902 2161.9 333.073 Q2160.02 331.221 2160.02 326.36 L2160.02 312.286 L2156.9 312.286 L2156.9 308.976 L2160.02 308.976 L2160.02 301.615 L2164.3 301.615 Z" fill="#000000" fill-rule="nonzero" fill-opacity="1" /><path clip-path="url(#clip020)" d="M2200.23 319.254 L2200.23 334.902 L2195.97 334.902 L2195.97 319.392 Q2195.97 315.712 2194.53 313.883 Q2193.1 312.054 2190.23 312.054 Q2186.78 312.054 2184.79 314.254 Q2182.8 316.453 2182.8 320.249 L2182.8 334.902 L2178.52 334.902 L2178.52 298.883 L2182.8 298.883 L2182.8 313.004 Q2184.33 310.666 2186.39 309.508 Q2188.47 308.351 2191.18 308.351 Q2195.65 308.351 2197.94 311.129 Q2200.23 313.883 2200.23 319.254 Z" fill="#000000" fill-rule="nonzero" fill-opacity="1" /><path clip-path="url(#clip020)" d="M2218.77 311.962 Q2215.34 311.962 2213.35 314.647 Q2211.36 317.309 2211.36 321.962 Q2211.36 326.615 2213.33 329.3 Q2215.32 331.962 2218.77 331.962 Q2222.17 331.962 2224.16 329.277 Q2226.15 326.591 2226.15 321.962 Q2226.15 317.355 2224.16 314.67 Q2222.17 311.962 2218.77 311.962 M2218.77 308.351 Q2224.33 308.351 2227.5 311.962 Q2230.67 315.573 2230.67 321.962 Q2230.67 328.328 2227.5 331.962 Q2224.33 335.573 2218.77 335.573 Q2213.19 335.573 2210.02 331.962 Q2206.87 328.328 2206.87 321.962 Q2206.87 315.573 2210.02 311.962 Q2213.19 308.351 2218.77 308.351 Z" fill="#000000" fill-rule="nonzero" fill-opacity="1" /><path clip-path="url(#clip020)" d="M2259.28 319.254 L2259.28 334.902 L2255.02 334.902 L2255.02 319.392 Q2255.02 315.712 2253.59 313.883 Q2252.15 312.054 2249.28 312.054 Q2245.83 312.054 2243.84 314.254 Q2241.85 316.453 2241.85 320.249 L2241.85 334.902 L2237.57 334.902 L2237.57 308.976 L2241.85 308.976 L2241.85 313.004 Q2243.38 310.666 2245.44 309.508 Q2247.52 308.351 2250.23 308.351 Q2254.7 308.351 2256.99 311.129 Q2259.28 313.883 2259.28 319.254 Z" fill="#000000" fill-rule="nonzero" fill-opacity="1" /></svg>
