<?xml version="1.0" encoding="utf-8"?>
<svg xmlns="http://www.w3.org/2000/svg" xmlns:xlink="http://www.w3.org/1999/xlink" width="600" height="400" viewBox="0 0 2400 1600">
<defs>
  <clipPath id="clip380">
    <rect x="0" y="0" width="2400" height="1600"/>
  </clipPath>
</defs>
<path clip-path="url(#clip380)" d="M0 1600 L2400 1600 L2400 0 L0 0  Z" fill="#ffffff" fill-rule="evenodd" fill-opacity="1"/>
<defs>
  <clipPath id="clip381">
    <rect x="480" y="0" width="1681" height="1600"/>
  </clipPath>
</defs>
<path clip-path="url(#clip380)" d="M249.542 1212.17 L2352.76 1212.17 L2352.76 123.472 L249.542 123.472  Z" fill="#ffffff" fill-rule="evenodd" fill-opacity="1"/>
<defs>
  <clipPath id="clip382">
    <rect x="249" y="123" width="2104" height="1090"/>
  </clipPath>
</defs>
<polyline clip-path="url(#clip382)" style="stroke:#000000; stroke-linecap:round; stroke-linejoin:round; stroke-width:2; stroke-opacity:0.1; fill:none" points="498.372,1212.17 498.372,123.472 "/>
<polyline clip-path="url(#clip382)" style="stroke:#000000; stroke-linecap:round; stroke-linejoin:round; stroke-width:2; stroke-opacity:0.1; fill:none" points="970.455,1212.17 970.455,123.472 "/>
<polyline clip-path="url(#clip382)" style="stroke:#000000; stroke-linecap:round; stroke-linejoin:round; stroke-width:2; stroke-opacity:0.1; fill:none" points="1631.84,1212.17 1631.84,123.472 "/>
<polyline clip-path="url(#clip382)" style="stroke:#000000; stroke-linecap:round; stroke-linejoin:round; stroke-width:2; stroke-opacity:0.1; fill:none" points="2103.93,1212.17 2103.93,123.472 "/>
<polyline clip-path="url(#clip380)" style="stroke:#000000; stroke-linecap:round; stroke-linejoin:round; stroke-width:4; stroke-opacity:1; fill:none" points="249.542,1212.17 2352.76,1212.17 "/>
<polyline clip-path="url(#clip380)" style="stroke:#000000; stroke-linecap:round; stroke-linejoin:round; stroke-width:4; stroke-opacity:1; fill:none" points="498.372,1212.17 498.372,1193.27 "/>
<polyline clip-path="url(#clip380)" style="stroke:#000000; stroke-linecap:round; stroke-linejoin:round; stroke-width:4; stroke-opacity:1; fill:none" points="970.455,1212.17 970.455,1193.27 "/>
<polyline clip-path="url(#clip380)" style="stroke:#000000; stroke-linecap:round; stroke-linejoin:round; stroke-width:4; stroke-opacity:1; fill:none" points="1631.84,1212.17 1631.84,1193.27 "/>
<polyline clip-path="url(#clip380)" style="stroke:#000000; stroke-linecap:round; stroke-linejoin:round; stroke-width:4; stroke-opacity:1; fill:none" points="2103.93,1212.17 2103.93,1193.27 "/>
<path clip-path="url(#clip380)" d="M288.459 1461.92 L299.524 1472.98 L296.512 1475.99 L285.546 1465.03 Q282.943 1462.43 280.635 1462.15 Q278.327 1461.87 276.298 1463.9 Q273.859 1466.34 274.006 1469.3 Q274.153 1472.26 276.838 1474.95 L287.199 1485.31 L284.171 1488.34 L265.838 1470 L268.866 1466.98 L271.715 1469.82 Q271.142 1467.09 271.78 1464.82 Q272.435 1462.52 274.35 1460.61 Q277.509 1457.45 281.093 1457.79 Q284.662 1458.12 288.459 1461.92 Z" fill="#000000" fill-rule="nonzero" fill-opacity="1" /><path clip-path="url(#clip380)" d="M304.647 1449.43 Q300.997 1453.08 300.424 1455.32 Q299.851 1457.56 301.865 1459.58 Q303.469 1461.18 305.466 1461.08 Q307.463 1460.95 309.279 1459.14 Q311.784 1456.63 311.522 1453.36 Q311.26 1450.05 308.314 1447.1 L307.643 1446.43 L304.647 1449.43 M309.41 1442.18 L319.87 1452.64 L316.858 1455.65 L314.075 1452.87 Q314.714 1455.57 313.977 1457.91 Q313.224 1460.23 310.998 1462.46 Q308.183 1465.27 304.942 1465.37 Q301.701 1465.44 299.049 1462.79 Q295.956 1459.69 296.447 1456.06 Q296.954 1452.41 301.063 1448.3 L305.286 1444.08 L304.991 1443.78 Q302.912 1441.7 300.408 1441.95 Q297.904 1442.16 295.432 1444.63 Q293.861 1446.2 292.748 1448.07 Q291.635 1449.94 291.013 1452.06 L288.23 1449.28 Q289.245 1446.99 290.489 1445.12 Q291.716 1443.24 293.19 1441.77 Q297.167 1437.79 301.194 1437.89 Q305.22 1437.99 309.41 1442.18 Z" fill="#000000" fill-rule="nonzero" fill-opacity="1" /><path clip-path="url(#clip380)" d="M307.741 1428.1 L310.753 1425.09 L329.085 1443.42 L326.073 1446.43 L307.741 1428.1 M300.604 1420.96 L303.616 1417.95 L307.43 1421.77 L304.418 1424.78 L300.604 1420.96 Z" fill="#000000" fill-rule="nonzero" fill-opacity="1" /><path clip-path="url(#clip380)" d="M314.894 1420.95 L318.085 1417.76 L339.2 1427.41 L329.543 1406.3 L332.735 1403.11 L344.193 1428.31 L340.101 1432.41 L314.894 1420.95 Z" fill="#000000" fill-rule="nonzero" fill-opacity="1" /><path clip-path="url(#clip380)" d="M360.986 1391.68 L362.459 1393.16 L348.612 1407 Q351.918 1409.92 355.225 1409.88 Q358.531 1409.82 361.526 1406.82 Q363.261 1405.09 364.456 1403.04 Q365.668 1400.98 366.421 1398.52 L369.269 1401.37 Q368.336 1403.68 366.993 1405.74 Q365.651 1407.8 363.9 1409.56 Q359.513 1413.94 354.39 1413.96 Q349.283 1413.96 344.929 1409.61 Q340.428 1405.1 340.215 1400.05 Q340.002 1394.96 344.127 1390.83 Q347.826 1387.13 352.36 1387.38 Q356.894 1387.59 360.986 1391.68 M357.091 1393.81 Q354.586 1391.37 351.755 1391.26 Q348.939 1391.13 346.713 1393.35 Q344.193 1395.87 344.094 1398.82 Q344.013 1401.75 346.37 1404.56 L357.091 1393.81 Z" fill="#000000" fill-rule="nonzero" fill-opacity="1" /><path clip-path="url(#clip380)" d="M395.343 1388.29 L397.684 1390.63 L380.268 1408.05 L377.927 1405.71 L395.343 1388.29 Z" fill="#000000" fill-rule="nonzero" fill-opacity="1" /><path clip-path="url(#clip380)" d="M395.294 1358.46 Q392.02 1355.18 388.861 1354.74 Q385.719 1354.28 383.28 1356.72 Q380.857 1359.14 381.299 1362.3 Q381.757 1365.44 385.031 1368.72 Q388.288 1371.98 391.431 1372.43 Q394.59 1372.88 397.013 1370.45 Q399.451 1368.01 398.993 1364.87 Q398.551 1361.71 395.294 1358.46 M405.409 1362.55 Q410.091 1367.23 410.287 1371.58 Q410.5 1375.95 406.211 1380.24 Q404.624 1381.83 402.971 1382.99 Q401.334 1384.17 399.517 1385 L396.587 1382.07 Q398.633 1381.47 400.27 1380.52 Q401.907 1379.57 403.249 1378.23 Q406.211 1375.27 406.13 1372.24 Q406.064 1369.23 402.938 1366.1 L401.448 1364.61 Q402.136 1367.16 401.481 1369.42 Q400.826 1371.68 398.797 1373.71 Q395.425 1377.08 390.793 1376.57 Q386.16 1376.07 381.921 1371.83 Q377.665 1367.57 377.158 1362.94 Q376.651 1358.31 380.022 1354.94 Q382.052 1352.91 384.311 1352.25 Q386.57 1351.6 389.123 1352.28 L386.341 1349.5 L389.352 1346.49 L405.409 1362.55 Z" fill="#000000" fill-rule="nonzero" fill-opacity="1" /><path clip-path="url(#clip380)" d="M414.052 1352.96 L423.774 1362.68 L420.746 1365.71 L395.441 1340.4 L398.469 1337.37 L401.252 1340.16 Q400.564 1337.57 401.219 1335.34 Q401.874 1333.08 403.887 1331.07 Q407.226 1327.73 411.957 1328.3 Q416.703 1328.86 421.025 1333.18 Q425.346 1337.5 425.902 1342.25 Q426.475 1346.98 423.136 1350.32 Q421.123 1352.33 418.88 1353 Q416.638 1353.64 414.052 1352.96 M417.898 1336.31 Q414.576 1332.99 411.318 1332.48 Q408.061 1331.94 405.671 1334.33 Q403.282 1336.72 403.805 1339.99 Q404.329 1343.23 407.652 1346.56 Q410.975 1349.88 414.232 1350.42 Q417.489 1350.93 419.879 1348.54 Q422.269 1346.15 421.745 1342.91 Q421.221 1339.63 417.898 1336.31 Z" fill="#000000" fill-rule="nonzero" fill-opacity="1" /><path clip-path="url(#clip380)" d="M427.621 1330.42 L416.523 1319.32 L419.535 1316.31 L430.518 1327.29 Q433.121 1329.89 435.445 1330.19 Q437.753 1330.47 439.782 1328.44 Q442.221 1326 442.074 1323.03 Q441.943 1320.06 439.259 1317.37 L428.865 1306.98 L431.877 1303.97 L450.209 1322.3 L447.197 1325.31 L444.382 1322.49 Q444.955 1325.26 444.316 1327.54 Q443.678 1329.78 441.763 1331.69 Q438.604 1334.85 435.003 1334.52 Q431.402 1334.2 427.621 1330.42 M423.66 1311.3 L423.66 1311.3 Z" fill="#000000" fill-rule="nonzero" fill-opacity="1" /><path clip-path="url(#clip380)" d="M448.867 1272.77 Q450.438 1278.73 453.057 1283.47 Q455.676 1288.22 459.457 1292 Q463.238 1295.78 468.017 1298.43 Q472.797 1301.05 478.722 1302.62 L476.103 1305.24 Q469.802 1303.85 464.858 1301.36 Q459.932 1298.86 456.265 1295.19 Q452.615 1291.54 450.127 1286.63 Q447.639 1281.72 446.248 1275.39 L448.867 1272.77 Z" fill="#000000" fill-rule="nonzero" fill-opacity="1" /><path clip-path="url(#clip380)" d="M476.021 1251.37 L479.508 1254.86 Q476.283 1254.98 473.615 1256.11 Q470.964 1257.22 468.836 1259.35 Q464.646 1263.54 464.989 1268.33 Q465.317 1273.11 470.162 1277.96 Q474.99 1282.79 479.786 1283.13 Q484.566 1283.46 488.756 1279.27 Q490.884 1277.14 491.997 1274.49 Q493.126 1271.82 493.241 1268.59 L496.694 1272.05 Q496.138 1274.96 494.779 1277.5 Q493.437 1280.02 491.277 1282.18 Q485.728 1287.73 479.148 1287.53 Q472.551 1287.32 466.675 1281.44 Q460.783 1275.55 460.586 1268.97 Q460.374 1262.37 465.922 1256.83 Q468.116 1254.63 470.636 1253.29 Q473.157 1251.91 476.021 1251.37 Z" fill="#000000" fill-rule="nonzero" fill-opacity="1" /><path clip-path="url(#clip380)" d="M477.642 1243.99 L480.261 1241.37 Q486.579 1242.78 491.489 1245.27 Q496.416 1247.74 500.066 1251.39 Q503.733 1255.06 506.221 1260 Q508.725 1264.93 510.116 1271.23 L507.497 1273.85 Q505.926 1267.92 503.291 1263.16 Q500.656 1258.36 496.874 1254.58 Q493.093 1250.8 488.33 1248.2 Q483.584 1245.58 477.642 1243.99 Z" fill="#000000" fill-rule="nonzero" fill-opacity="1" /><path clip-path="url(#clip380)" d="M865.871 1343.46 L868.686 1346.28 Q866.706 1346.85 865.069 1347.8 Q863.432 1348.72 862.123 1350.03 Q859.193 1352.96 859.438 1356.44 Q859.667 1359.91 863.023 1363.27 Q866.378 1366.62 869.865 1366.87 Q873.335 1367.1 876.265 1364.17 Q877.574 1362.86 878.507 1361.24 Q879.44 1359.58 880.013 1357.6 L882.795 1360.39 Q882.124 1362.24 881.06 1363.89 Q880.013 1365.53 878.491 1367.05 Q874.35 1371.19 869.308 1371.03 Q864.267 1370.86 859.847 1366.44 Q855.362 1361.96 855.248 1356.93 Q855.15 1351.89 859.438 1347.6 Q860.829 1346.21 862.45 1345.18 Q864.054 1344.13 865.871 1343.46 Z" fill="#000000" fill-rule="nonzero" fill-opacity="1" /><path clip-path="url(#clip380)" d="M884.301 1325.03 L887.117 1327.85 Q885.136 1328.42 883.499 1329.37 Q881.862 1330.29 880.553 1331.59 Q877.623 1334.52 877.869 1338.01 Q878.098 1341.48 881.453 1344.84 Q884.809 1348.19 888.295 1348.44 Q891.765 1348.67 894.695 1345.74 Q896.005 1344.43 896.938 1342.81 Q897.871 1341.15 898.443 1339.17 L901.226 1341.96 Q900.555 1343.81 899.491 1345.46 Q898.443 1347.1 896.921 1348.62 Q892.78 1352.76 887.739 1352.6 Q882.697 1352.43 878.278 1348.01 Q873.793 1343.53 873.678 1338.5 Q873.58 1333.46 877.869 1329.17 Q879.26 1327.78 880.88 1326.75 Q882.484 1325.7 884.301 1325.03 Z" fill="#000000" fill-rule="nonzero" fill-opacity="1" /><path clip-path="url(#clip380)" d="M895.121 1306.36 L899.818 1327.75 L908.166 1319.4 L895.121 1306.36 M891.372 1304.34 L895.53 1300.18 L911.456 1316.11 L914.942 1312.62 L917.692 1315.37 L914.206 1318.86 L919.967 1324.62 L916.677 1327.91 L910.916 1322.15 L899.884 1333.18 L896.692 1329.99 L891.372 1304.34 Z" fill="#000000" fill-rule="nonzero" fill-opacity="1" /><path clip-path="url(#clip380)" d="M920.95 1272.77 Q922.521 1278.73 925.14 1283.47 Q927.759 1288.22 931.54 1292 Q935.321 1295.78 940.1 1298.43 Q944.88 1301.05 950.805 1302.62 L948.186 1305.24 Q941.884 1303.85 936.941 1301.36 Q932.014 1298.86 928.348 1295.19 Q924.698 1291.54 922.21 1286.63 Q919.722 1281.72 918.331 1275.39 L920.95 1272.77 Z" fill="#000000" fill-rule="nonzero" fill-opacity="1" /><path clip-path="url(#clip380)" d="M948.104 1251.37 L951.591 1254.86 Q948.366 1254.98 945.698 1256.11 Q943.047 1257.22 940.919 1259.35 Q936.728 1263.54 937.072 1268.33 Q937.4 1273.11 942.245 1277.96 Q947.073 1282.79 951.869 1283.13 Q956.648 1283.46 960.839 1279.27 Q962.967 1277.14 964.08 1274.49 Q965.209 1271.82 965.324 1268.59 L968.777 1272.05 Q968.221 1274.96 966.862 1277.5 Q965.52 1280.02 963.359 1282.18 Q957.811 1287.73 951.231 1287.53 Q944.634 1287.32 938.758 1281.44 Q932.866 1275.55 932.669 1268.97 Q932.456 1262.37 938.005 1256.83 Q940.198 1254.63 942.719 1253.29 Q945.24 1251.91 948.104 1251.37 Z" fill="#000000" fill-rule="nonzero" fill-opacity="1" /><path clip-path="url(#clip380)" d="M949.725 1243.99 L952.344 1241.37 Q958.662 1242.78 963.572 1245.27 Q968.499 1247.74 972.149 1251.39 Q975.816 1255.06 978.303 1260 Q980.808 1264.93 982.199 1271.23 L979.58 1273.85 Q978.009 1267.92 975.374 1263.16 Q972.738 1258.36 968.957 1254.58 Q965.176 1250.8 960.413 1248.2 Q955.666 1245.58 949.725 1243.99 Z" fill="#000000" fill-rule="nonzero" fill-opacity="1" /><path clip-path="url(#clip380)" d="M1326.95 1572.06 L1320.38 1565.5 L1314.98 1570.9 L1312.26 1568.18 L1320.94 1559.5 L1331.43 1570 Q1330.87 1573.27 1329.27 1576.28 Q1327.65 1579.28 1325.03 1581.9 Q1319.3 1587.63 1312.72 1587.53 Q1306.14 1587.4 1300.17 1581.42 Q1294.18 1575.43 1294.06 1568.87 Q1293.95 1562.27 1299.68 1556.54 Q1302.07 1554.15 1304.8 1552.6 Q1307.55 1551.03 1310.51 1550.35 L1314.03 1553.87 Q1310.64 1554.15 1307.8 1555.43 Q1304.95 1556.71 1302.67 1558.98 Q1298.19 1563.47 1298.43 1568.23 Q1298.69 1572.98 1303.65 1577.94 Q1308.6 1582.88 1313.34 1583.14 Q1318.11 1583.39 1322.59 1578.9 Q1324.34 1577.15 1325.42 1575.48 Q1326.49 1573.79 1326.95 1572.06 Z" fill="#000000" fill-rule="nonzero" fill-opacity="1" /><path clip-path="url(#clip380)" d="M1321.33 1541.21 L1330.51 1550.39 L1334.67 1546.23 Q1336.98 1543.92 1337.04 1541.47 Q1337.11 1539.01 1334.9 1536.8 Q1332.71 1534.61 1330.25 1534.67 Q1327.8 1534.74 1325.49 1537.05 L1321.33 1541.21 M1315.31 1541.79 L1322.77 1534.33 Q1326.88 1530.22 1330.84 1529.99 Q1334.8 1529.73 1338.39 1533.32 Q1342 1536.93 1341.74 1540.89 Q1341.5 1544.84 1337.39 1548.95 L1333.23 1553.1 L1343.05 1562.93 L1339.75 1566.23 L1315.31 1541.79 Z" fill="#000000" fill-rule="nonzero" fill-opacity="1" /><path clip-path="url(#clip380)" d="M1335.15 1521.96 L1338.47 1518.63 L1353.31 1533.48 Q1357.24 1537.41 1360.4 1537.72 Q1363.54 1538.01 1366.74 1534.82 Q1369.91 1531.65 1369.62 1528.5 Q1369.31 1525.34 1365.38 1521.42 L1350.53 1506.57 L1353.85 1503.25 L1369.11 1518.5 Q1373.89 1523.28 1373.95 1528.09 Q1374.04 1532.89 1369.42 1537.51 Q1364.79 1542.14 1359.98 1542.07 Q1355.18 1541.99 1350.4 1537.21 L1335.15 1521.96 Z" fill="#000000" fill-rule="nonzero" fill-opacity="1" /><path clip-path="url(#clip380)" d="M1403.86 1513.25 L1406.2 1515.59 L1388.78 1533 L1386.44 1530.66 L1403.86 1513.25 Z" fill="#000000" fill-rule="nonzero" fill-opacity="1" /><path clip-path="url(#clip380)" d="M1389.08 1473.78 L1393.78 1495.18 L1402.12 1486.83 L1389.08 1473.78 M1385.33 1471.77 L1389.49 1467.61 L1405.41 1483.54 L1408.9 1480.05 L1411.65 1482.8 L1408.16 1486.29 L1413.93 1492.05 L1410.64 1495.34 L1404.87 1489.58 L1393.84 1500.61 L1390.65 1497.42 L1385.33 1471.77 Z" fill="#000000" fill-rule="nonzero" fill-opacity="1" /><path clip-path="url(#clip380)" d="M1441.95 1475.16 L1444.29 1477.5 L1426.87 1494.92 L1424.53 1492.58 L1441.95 1475.16 Z" fill="#000000" fill-rule="nonzero" fill-opacity="1" /><path clip-path="url(#clip380)" d="M1418.66 1440.25 L1423.86 1445.45 L1430.06 1439.25 L1432.41 1441.59 L1426.2 1447.79 L1436.15 1457.74 Q1438.4 1459.99 1439.64 1460.02 Q1440.9 1460.04 1442.78 1458.15 L1445.88 1455.06 L1448.4 1457.58 L1445.3 1460.67 Q1441.82 1464.16 1439.2 1464.19 Q1436.56 1464.21 1433.13 1460.77 L1423.17 1450.82 L1420.96 1453.03 L1418.62 1450.69 L1420.83 1448.48 L1415.63 1443.27 L1418.66 1440.25 Z" fill="#000000" fill-rule="nonzero" fill-opacity="1" /><path clip-path="url(#clip380)" d="M1447.46 1427.48 Q1446.66 1427.69 1445.93 1428.17 Q1445.19 1428.61 1444.47 1429.33 Q1441.92 1431.88 1442.21 1434.93 Q1442.5 1437.94 1445.61 1441.05 L1455.27 1450.71 L1452.24 1453.73 L1433.91 1435.4 L1436.94 1432.37 L1439.79 1435.22 Q1439.07 1432.6 1439.79 1430.28 Q1440.49 1427.94 1442.67 1425.76 Q1442.98 1425.45 1443.4 1425.12 Q1443.81 1424.78 1444.35 1424.4 L1447.46 1427.48 Z" fill="#000000" fill-rule="nonzero" fill-opacity="1" /><path clip-path="url(#clip380)" d="M1447.81 1421.51 L1450.82 1418.49 L1469.15 1436.83 L1466.14 1439.84 L1447.81 1421.51 M1440.67 1414.37 L1443.68 1411.36 L1447.5 1415.17 L1444.49 1418.18 L1440.67 1414.37 Z" fill="#000000" fill-rule="nonzero" fill-opacity="1" /><path clip-path="url(#clip380)" d="M1474.57 1412.98 Q1470.92 1416.63 1470.35 1418.87 Q1469.77 1421.11 1471.79 1423.13 Q1473.39 1424.73 1475.39 1424.63 Q1477.39 1424.5 1479.2 1422.68 Q1481.71 1420.18 1481.44 1416.91 Q1481.18 1413.6 1478.24 1410.65 L1477.57 1409.98 L1474.57 1412.98 M1479.33 1405.73 L1489.79 1416.19 L1486.78 1419.2 L1484 1416.41 Q1484.64 1419.12 1483.9 1421.46 Q1483.15 1423.78 1480.92 1426.01 Q1478.11 1428.82 1474.86 1428.92 Q1471.62 1428.99 1468.97 1426.33 Q1465.88 1423.24 1466.37 1419.61 Q1466.88 1415.96 1470.99 1411.85 L1475.21 1407.62 L1474.91 1407.33 Q1472.83 1405.25 1470.33 1405.5 Q1467.83 1405.71 1465.35 1408.18 Q1463.78 1409.75 1462.67 1411.62 Q1461.56 1413.48 1460.94 1415.61 L1458.15 1412.83 Q1459.17 1410.54 1460.41 1408.67 Q1461.64 1406.79 1463.11 1405.32 Q1467.09 1401.34 1471.12 1401.44 Q1475.14 1401.54 1479.33 1405.73 Z" fill="#000000" fill-rule="nonzero" fill-opacity="1" /><path clip-path="url(#clip380)" d="M1500.17 1383.68 L1511.23 1394.74 L1508.22 1397.75 L1497.26 1386.79 Q1494.65 1384.19 1492.35 1383.91 Q1490.04 1383.63 1488.01 1385.66 Q1485.57 1388.1 1485.72 1391.06 Q1485.86 1394.02 1488.55 1396.71 L1498.91 1407.07 L1495.88 1410.1 L1477.55 1391.76 L1480.58 1388.74 L1483.43 1391.58 Q1482.85 1388.85 1483.49 1386.58 Q1484.15 1384.28 1486.06 1382.37 Q1489.22 1379.21 1492.8 1379.55 Q1496.37 1379.88 1500.17 1383.68 Z" fill="#000000" fill-rule="nonzero" fill-opacity="1" /><path clip-path="url(#clip380)" d="M1519.93 1367.29 Q1516.65 1364.02 1513.49 1363.58 Q1510.35 1363.12 1507.91 1365.56 Q1505.49 1367.98 1505.93 1371.14 Q1506.39 1374.28 1509.66 1377.56 Q1512.92 1380.81 1516.06 1381.27 Q1519.22 1381.71 1521.64 1379.29 Q1524.08 1376.85 1523.63 1373.71 Q1523.18 1370.55 1519.93 1367.29 M1530.04 1371.39 Q1534.72 1376.07 1534.92 1380.42 Q1535.13 1384.79 1530.84 1389.08 Q1529.26 1390.67 1527.6 1391.83 Q1525.97 1393.01 1524.15 1393.84 L1521.22 1390.91 Q1523.27 1390.31 1524.9 1389.36 Q1526.54 1388.41 1527.88 1387.07 Q1530.84 1384.1 1530.76 1381.08 Q1530.7 1378.06 1527.57 1374.94 L1526.08 1373.45 Q1526.77 1376 1526.11 1378.26 Q1525.46 1380.52 1523.43 1382.55 Q1520.06 1385.92 1515.42 1385.41 Q1510.79 1384.91 1506.55 1380.67 Q1502.3 1376.41 1501.79 1371.78 Q1501.28 1367.15 1504.65 1363.77 Q1506.68 1361.75 1508.94 1361.09 Q1511.2 1360.44 1513.76 1361.12 L1510.97 1358.34 L1513.98 1355.33 L1530.04 1371.39 Z" fill="#000000" fill-rule="nonzero" fill-opacity="1" /><path clip-path="url(#clip380)" d="M1530.97 1360.53 L1519.88 1349.44 L1522.89 1346.42 L1533.87 1357.41 Q1536.47 1360.01 1538.8 1360.3 Q1541.11 1360.58 1543.14 1358.55 Q1545.57 1356.11 1545.43 1353.15 Q1545.3 1350.17 1542.61 1347.49 L1532.22 1337.09 L1535.23 1334.08 L1553.56 1352.42 L1550.55 1355.43 L1547.74 1352.61 Q1548.31 1355.38 1547.67 1357.65 Q1547.03 1359.9 1545.12 1361.81 Q1541.96 1364.97 1538.36 1364.64 Q1534.76 1364.31 1530.97 1360.53 M1527.01 1341.42 L1527.01 1341.42 Z" fill="#000000" fill-rule="nonzero" fill-opacity="1" /><path clip-path="url(#clip380)" d="M1534.3 1320.74 L1537.31 1317.73 L1562.78 1343.2 L1559.77 1346.21 L1534.3 1320.74 Z" fill="#000000" fill-rule="nonzero" fill-opacity="1" /><path clip-path="url(#clip380)" d="M1568.2 1319.35 Q1564.55 1323 1563.97 1325.24 Q1563.4 1327.49 1565.41 1329.5 Q1567.02 1331.1 1569.01 1331.01 Q1571.01 1330.87 1572.83 1329.06 Q1575.33 1326.55 1575.07 1323.28 Q1574.81 1319.97 1571.86 1317.03 L1571.19 1316.36 L1568.2 1319.35 M1572.96 1312.1 L1583.42 1322.56 L1580.41 1325.57 L1577.62 1322.79 Q1578.26 1325.49 1577.53 1327.83 Q1576.77 1330.15 1574.55 1332.38 Q1571.73 1335.2 1568.49 1335.29 Q1565.25 1335.36 1562.6 1332.71 Q1559.5 1329.61 1560 1325.98 Q1560.5 1322.33 1564.61 1318.22 L1568.83 1314 L1568.54 1313.7 Q1566.46 1311.63 1563.96 1311.87 Q1561.45 1312.08 1558.98 1314.56 Q1557.41 1316.13 1556.3 1317.99 Q1555.18 1319.86 1554.56 1321.99 L1551.78 1319.2 Q1552.79 1316.91 1554.04 1315.05 Q1555.26 1313.16 1556.74 1311.69 Q1560.72 1307.71 1564.74 1307.81 Q1568.77 1307.91 1572.96 1312.1 Z" fill="#000000" fill-rule="nonzero" fill-opacity="1" /><path clip-path="url(#clip380)" d="M1584.73 1290.22 Q1583.93 1290.43 1583.19 1290.9 Q1582.45 1291.35 1581.73 1292.07 Q1579.18 1294.62 1579.47 1297.66 Q1579.77 1300.68 1582.88 1303.79 L1592.53 1313.44 L1589.51 1316.47 L1571.17 1298.14 L1574.2 1295.11 L1577.05 1297.96 Q1576.33 1295.34 1577.05 1293.02 Q1577.75 1290.67 1579.93 1288.5 Q1580.24 1288.19 1580.67 1287.86 Q1581.08 1287.52 1581.62 1287.14 L1584.73 1290.22 Z" fill="#000000" fill-rule="nonzero" fill-opacity="1" /><path clip-path="url(#clip380)" d="M1595.86 1259.25 Q1597.43 1265.21 1600.05 1269.95 Q1602.67 1274.7 1606.45 1278.48 Q1610.23 1282.26 1615.01 1284.91 Q1619.79 1287.53 1625.71 1289.1 L1623.09 1291.72 Q1616.79 1290.33 1611.85 1287.84 Q1606.92 1285.34 1603.26 1281.67 Q1599.61 1278.02 1597.12 1273.11 Q1594.63 1268.2 1593.24 1261.87 L1595.86 1259.25 Z" fill="#000000" fill-rule="nonzero" fill-opacity="1" /><path clip-path="url(#clip380)" d="M1602.83 1254.27 L1606.14 1250.97 L1628.87 1273.7 Q1633.29 1278.12 1633.6 1281.8 Q1633.93 1285.47 1630.21 1289.19 L1628.95 1290.45 L1626.17 1287.66 L1627.2 1286.63 Q1629.4 1284.44 1629.07 1282.31 Q1628.74 1280.18 1625.57 1277.01 L1602.83 1254.27 Z" fill="#000000" fill-rule="nonzero" fill-opacity="1" /><path clip-path="url(#clip380)" d="M1611.11 1243.99 L1613.73 1241.37 Q1620.05 1242.78 1624.96 1245.27 Q1629.89 1247.74 1633.54 1251.39 Q1637.2 1255.06 1639.69 1260 Q1642.2 1264.93 1643.59 1271.23 L1640.97 1273.85 Q1639.4 1267.92 1636.76 1263.16 Q1634.13 1258.36 1630.35 1254.58 Q1626.56 1250.8 1621.8 1248.2 Q1617.05 1245.58 1611.11 1243.99 Z" fill="#000000" fill-rule="nonzero" fill-opacity="1" /><path clip-path="url(#clip380)" d="M1907.53 1448.4 L1918.6 1459.46 L1915.59 1462.47 L1904.62 1451.51 Q1902.02 1448.91 1899.71 1448.63 Q1897.4 1448.35 1895.37 1450.38 Q1892.93 1452.82 1893.08 1455.78 Q1893.23 1458.74 1895.91 1461.43 L1906.27 1471.79 L1903.24 1474.82 L1884.91 1456.48 L1887.94 1453.46 L1890.79 1456.3 Q1890.22 1453.57 1890.85 1451.3 Q1891.51 1449 1893.42 1447.09 Q1896.58 1443.93 1900.17 1444.27 Q1903.74 1444.6 1907.53 1448.4 Z" fill="#000000" fill-rule="nonzero" fill-opacity="1" /><path clip-path="url(#clip380)" d="M1923.72 1435.91 Q1920.07 1439.56 1919.5 1441.8 Q1918.93 1444.04 1920.94 1446.06 Q1922.54 1447.66 1924.54 1447.56 Q1926.54 1447.43 1928.35 1445.62 Q1930.86 1443.11 1930.6 1439.84 Q1930.33 1436.53 1927.39 1433.58 L1926.72 1432.91 L1923.72 1435.91 M1928.48 1428.66 L1938.94 1439.12 L1935.93 1442.13 L1933.15 1439.35 Q1933.79 1442.05 1933.05 1444.39 Q1932.3 1446.71 1930.07 1448.94 Q1927.26 1451.75 1924.02 1451.85 Q1920.77 1451.92 1918.12 1449.27 Q1915.03 1446.17 1915.52 1442.54 Q1916.03 1438.89 1920.14 1434.78 L1924.36 1430.56 L1924.06 1430.26 Q1921.99 1428.18 1919.48 1428.43 Q1916.98 1428.64 1914.51 1431.11 Q1912.93 1432.68 1911.82 1434.55 Q1910.71 1436.42 1910.09 1438.54 L1907.3 1435.76 Q1908.32 1433.47 1909.56 1431.6 Q1910.79 1429.72 1912.26 1428.25 Q1916.24 1424.27 1920.27 1424.37 Q1924.29 1424.47 1928.48 1428.66 Z" fill="#000000" fill-rule="nonzero" fill-opacity="1" /><path clip-path="url(#clip380)" d="M1926.81 1414.58 L1929.83 1411.57 L1948.16 1429.9 L1945.15 1432.91 L1926.81 1414.58 M1919.68 1407.44 L1922.69 1404.43 L1926.5 1408.25 L1923.49 1411.26 L1919.68 1407.44 Z" fill="#000000" fill-rule="nonzero" fill-opacity="1" /><path clip-path="url(#clip380)" d="M1933.97 1407.43 L1937.16 1404.24 L1958.27 1413.89 L1948.62 1392.78 L1951.81 1389.59 L1963.27 1414.79 L1959.17 1418.89 L1933.97 1407.43 Z" fill="#000000" fill-rule="nonzero" fill-opacity="1" /><path clip-path="url(#clip380)" d="M1980.06 1378.16 L1981.53 1379.64 L1967.69 1393.48 Q1970.99 1396.4 1974.3 1396.36 Q1977.6 1396.3 1980.6 1393.3 Q1982.34 1391.57 1983.53 1389.52 Q1984.74 1387.46 1985.49 1385 L1988.34 1387.85 Q1987.41 1390.16 1986.07 1392.22 Q1984.72 1394.28 1982.97 1396.04 Q1978.59 1400.42 1973.46 1400.44 Q1968.36 1400.44 1964 1396.09 Q1959.5 1391.58 1959.29 1386.53 Q1959.08 1381.44 1963.2 1377.31 Q1966.9 1373.61 1971.43 1373.86 Q1975.97 1374.07 1980.06 1378.16 M1976.16 1380.29 Q1973.66 1377.85 1970.83 1377.74 Q1968.01 1377.61 1965.79 1379.83 Q1963.27 1382.35 1963.17 1385.3 Q1963.09 1388.23 1965.44 1391.04 L1976.16 1380.29 Z" fill="#000000" fill-rule="nonzero" fill-opacity="1" /><path clip-path="url(#clip380)" d="M2014.42 1374.77 L2016.76 1377.11 L1999.34 1394.53 L1997 1392.19 L2014.42 1374.77 Z" fill="#000000" fill-rule="nonzero" fill-opacity="1" /><path clip-path="url(#clip380)" d="M2014.37 1344.94 Q2011.09 1341.66 2007.93 1341.22 Q2004.79 1340.76 2002.35 1343.2 Q1999.93 1345.62 2000.37 1348.78 Q2000.83 1351.92 2004.1 1355.2 Q2007.36 1358.46 2010.5 1358.91 Q2013.66 1359.36 2016.09 1356.93 Q2018.53 1354.49 2018.07 1351.35 Q2017.62 1348.19 2014.37 1344.94 M2024.48 1349.03 Q2029.16 1353.71 2029.36 1358.06 Q2029.57 1362.43 2025.29 1366.72 Q2023.7 1368.31 2022.04 1369.47 Q2020.41 1370.65 2018.59 1371.48 L2015.66 1368.55 Q2017.71 1367.95 2019.34 1367 Q2020.98 1366.05 2022.32 1364.71 Q2025.29 1361.75 2025.2 1358.72 Q2025.14 1355.71 2022.01 1352.58 L2020.52 1351.09 Q2021.21 1353.64 2020.55 1355.9 Q2019.9 1358.16 2017.87 1360.19 Q2014.5 1363.56 2009.87 1363.05 Q2005.23 1362.55 2000.99 1358.31 Q1996.74 1354.05 1996.23 1349.42 Q1995.72 1344.79 1999.1 1341.42 Q2001.13 1339.39 2003.38 1338.73 Q2005.64 1338.08 2008.2 1338.76 L2005.41 1335.98 L2008.43 1332.97 L2024.48 1349.03 Z" fill="#000000" fill-rule="nonzero" fill-opacity="1" /><path clip-path="url(#clip380)" d="M2033.13 1339.44 L2042.85 1349.16 L2039.82 1352.19 L2014.51 1326.88 L2017.54 1323.85 L2020.33 1326.64 Q2019.64 1324.05 2020.29 1321.82 Q2020.95 1319.56 2022.96 1317.55 Q2026.3 1314.21 2031.03 1314.78 Q2035.78 1315.34 2040.1 1319.66 Q2044.42 1323.98 2044.98 1328.73 Q2045.55 1333.46 2042.21 1336.8 Q2040.2 1338.81 2037.95 1339.48 Q2035.71 1340.12 2033.13 1339.44 M2036.97 1322.79 Q2033.65 1319.47 2030.39 1318.96 Q2027.13 1318.42 2024.74 1320.81 Q2022.36 1323.2 2022.88 1326.47 Q2023.4 1329.71 2026.73 1333.04 Q2030.05 1336.36 2033.31 1336.9 Q2036.56 1337.41 2038.95 1335.02 Q2041.34 1332.63 2040.82 1329.39 Q2040.29 1326.11 2036.97 1322.79 Z" fill="#000000" fill-rule="nonzero" fill-opacity="1" /><path clip-path="url(#clip380)" d="M2046.69 1316.9 L2035.6 1305.8 L2038.61 1302.79 L2049.59 1313.77 Q2052.19 1316.37 2054.52 1316.67 Q2056.83 1316.95 2058.86 1314.92 Q2061.29 1312.48 2061.15 1309.51 Q2061.02 1306.54 2058.33 1303.85 L2047.94 1293.46 L2050.95 1290.45 L2069.28 1308.78 L2066.27 1311.79 L2063.46 1308.97 Q2064.03 1311.74 2063.39 1314.02 Q2062.75 1316.26 2060.84 1318.17 Q2057.68 1321.33 2054.08 1321 Q2050.48 1320.68 2046.69 1316.9 M2042.73 1297.78 L2042.73 1297.78 Z" fill="#000000" fill-rule="nonzero" fill-opacity="1" /><path clip-path="url(#clip380)" d="M2067.94 1259.25 Q2069.51 1265.21 2072.13 1269.95 Q2074.75 1274.7 2078.53 1278.48 Q2082.31 1282.26 2087.09 1284.91 Q2091.87 1287.53 2097.8 1289.1 L2095.18 1291.72 Q2088.88 1290.33 2083.93 1287.84 Q2079.01 1285.34 2075.34 1281.67 Q2071.69 1278.02 2069.2 1273.11 Q2066.71 1268.2 2065.32 1261.87 L2067.94 1259.25 Z" fill="#000000" fill-rule="nonzero" fill-opacity="1" /><path clip-path="url(#clip380)" d="M2074.91 1254.27 L2078.22 1250.97 L2100.95 1273.7 Q2105.37 1278.12 2105.69 1281.8 Q2106.01 1285.47 2102.3 1289.19 L2101.04 1290.45 L2098.25 1287.66 L2099.29 1286.63 Q2101.48 1284.44 2101.15 1282.31 Q2100.82 1280.18 2097.65 1277.01 L2074.91 1254.27 Z" fill="#000000" fill-rule="nonzero" fill-opacity="1" /><path clip-path="url(#clip380)" d="M2083.2 1243.99 L2085.81 1241.37 Q2092.13 1242.78 2097.04 1245.27 Q2101.97 1247.74 2105.62 1251.39 Q2109.29 1255.06 2111.77 1260 Q2114.28 1264.93 2115.67 1271.23 L2113.05 1273.85 Q2111.48 1267.92 2108.84 1263.16 Q2106.21 1258.36 2102.43 1254.58 Q2098.65 1250.8 2093.88 1248.2 Q2089.14 1245.58 2083.2 1243.99 Z" fill="#000000" fill-rule="nonzero" fill-opacity="1" /><polyline clip-path="url(#clip382)" style="stroke:#000000; stroke-linecap:round; stroke-linejoin:round; stroke-width:2; stroke-opacity:0.1; fill:none" points="249.542,1212.17 2352.76,1212.17 "/>
<polyline clip-path="url(#clip382)" style="stroke:#000000; stroke-linecap:round; stroke-linejoin:round; stroke-width:2; stroke-opacity:0.1; fill:none" points="249.542,965.588 2352.76,965.588 "/>
<polyline clip-path="url(#clip382)" style="stroke:#000000; stroke-linecap:round; stroke-linejoin:round; stroke-width:2; stroke-opacity:0.1; fill:none" points="249.542,719.006 2352.76,719.006 "/>
<polyline clip-path="url(#clip382)" style="stroke:#000000; stroke-linecap:round; stroke-linejoin:round; stroke-width:2; stroke-opacity:0.1; fill:none" points="249.542,472.425 2352.76,472.425 "/>
<polyline clip-path="url(#clip382)" style="stroke:#000000; stroke-linecap:round; stroke-linejoin:round; stroke-width:2; stroke-opacity:0.1; fill:none" points="249.542,225.844 2352.76,225.844 "/>
<polyline clip-path="url(#clip380)" style="stroke:#000000; stroke-linecap:round; stroke-linejoin:round; stroke-width:4; stroke-opacity:1; fill:none" points="249.542,1212.17 249.542,123.472 "/>
<polyline clip-path="url(#clip380)" style="stroke:#000000; stroke-linecap:round; stroke-linejoin:round; stroke-width:4; stroke-opacity:1; fill:none" points="249.542,1212.17 268.44,1212.17 "/>
<polyline clip-path="url(#clip380)" style="stroke:#000000; stroke-linecap:round; stroke-linejoin:round; stroke-width:4; stroke-opacity:1; fill:none" points="249.542,965.588 268.44,965.588 "/>
<polyline clip-path="url(#clip380)" style="stroke:#000000; stroke-linecap:round; stroke-linejoin:round; stroke-width:4; stroke-opacity:1; fill:none" points="249.542,719.006 268.44,719.006 "/>
<polyline clip-path="url(#clip380)" style="stroke:#000000; stroke-linecap:round; stroke-linejoin:round; stroke-width:4; stroke-opacity:1; fill:none" points="249.542,472.425 268.44,472.425 "/>
<polyline clip-path="url(#clip380)" style="stroke:#000000; stroke-linecap:round; stroke-linejoin:round; stroke-width:4; stroke-opacity:1; fill:none" points="249.542,225.844 268.44,225.844 "/>
<path clip-path="url(#clip380)" d="M126.205 1197.97 Q122.593 1197.97 120.765 1201.53 Q118.959 1205.07 118.959 1212.2 Q118.959 1219.31 120.765 1222.87 Q122.593 1226.42 126.205 1226.42 Q129.839 1226.42 131.644 1222.87 Q133.473 1219.31 133.473 1212.2 Q133.473 1205.07 131.644 1201.53 Q129.839 1197.97 126.205 1197.97 M126.205 1194.26 Q132.015 1194.26 135.07 1198.87 Q138.149 1203.45 138.149 1212.2 Q138.149 1220.93 135.07 1225.54 Q132.015 1230.12 126.205 1230.12 Q120.394 1230.12 117.316 1225.54 Q114.26 1220.93 114.26 1212.2 Q114.26 1203.45 117.316 1198.87 Q120.394 1194.26 126.205 1194.26 Z" fill="#000000" fill-rule="nonzero" fill-opacity="1" /><path clip-path="url(#clip380)" d="M146.366 1223.57 L151.251 1223.57 L151.251 1229.45 L146.366 1229.45 L146.366 1223.57 Z" fill="#000000" fill-rule="nonzero" fill-opacity="1" /><path clip-path="url(#clip380)" d="M171.436 1197.97 Q167.825 1197.97 165.996 1201.53 Q164.19 1205.07 164.19 1212.2 Q164.19 1219.31 165.996 1222.87 Q167.825 1226.42 171.436 1226.42 Q175.07 1226.42 176.876 1222.87 Q178.704 1219.31 178.704 1212.2 Q178.704 1205.07 176.876 1201.53 Q175.07 1197.97 171.436 1197.97 M171.436 1194.26 Q177.246 1194.26 180.301 1198.87 Q183.38 1203.45 183.38 1212.2 Q183.38 1220.93 180.301 1225.54 Q177.246 1230.12 171.436 1230.12 Q165.626 1230.12 162.547 1225.54 Q159.491 1220.93 159.491 1212.2 Q159.491 1203.45 162.547 1198.87 Q165.626 1194.26 171.436 1194.26 Z" fill="#000000" fill-rule="nonzero" fill-opacity="1" /><path clip-path="url(#clip380)" d="M201.598 1197.97 Q197.987 1197.97 196.158 1201.53 Q194.352 1205.07 194.352 1212.2 Q194.352 1219.31 196.158 1222.87 Q197.987 1226.42 201.598 1226.42 Q205.232 1226.42 207.037 1222.87 Q208.866 1219.31 208.866 1212.2 Q208.866 1205.07 207.037 1201.53 Q205.232 1197.97 201.598 1197.97 M201.598 1194.26 Q207.408 1194.26 210.463 1198.87 Q213.542 1203.45 213.542 1212.2 Q213.542 1220.93 210.463 1225.54 Q207.408 1230.12 201.598 1230.12 Q195.787 1230.12 192.709 1225.54 Q189.653 1220.93 189.653 1212.2 Q189.653 1203.45 192.709 1198.87 Q195.787 1194.26 201.598 1194.26 Z" fill="#000000" fill-rule="nonzero" fill-opacity="1" /><path clip-path="url(#clip380)" d="M127.2 951.386 Q123.589 951.386 121.76 954.951 Q119.955 958.493 119.955 965.622 Q119.955 972.729 121.76 976.294 Q123.589 979.835 127.2 979.835 Q130.834 979.835 132.64 976.294 Q134.468 972.729 134.468 965.622 Q134.468 958.493 132.64 954.951 Q130.834 951.386 127.2 951.386 M127.2 947.683 Q133.01 947.683 136.066 952.289 Q139.144 956.872 139.144 965.622 Q139.144 974.349 136.066 978.956 Q133.01 983.539 127.2 983.539 Q121.39 983.539 118.311 978.956 Q115.256 974.349 115.256 965.622 Q115.256 956.872 118.311 952.289 Q121.39 947.683 127.2 947.683 Z" fill="#000000" fill-rule="nonzero" fill-opacity="1" /><path clip-path="url(#clip380)" d="M147.362 976.988 L152.246 976.988 L152.246 982.868 L147.362 982.868 L147.362 976.988 Z" fill="#000000" fill-rule="nonzero" fill-opacity="1" /><path clip-path="url(#clip380)" d="M166.459 978.933 L182.778 978.933 L182.778 982.868 L160.834 982.868 L160.834 978.933 Q163.496 976.178 168.079 971.548 Q172.686 966.896 173.866 965.553 Q176.112 963.03 176.991 961.294 Q177.894 959.534 177.894 957.845 Q177.894 955.09 175.95 953.354 Q174.028 951.618 170.927 951.618 Q168.727 951.618 166.274 952.382 Q163.843 953.146 161.065 954.697 L161.065 949.974 Q163.89 948.84 166.343 948.261 Q168.797 947.683 170.834 947.683 Q176.204 947.683 179.399 950.368 Q182.593 953.053 182.593 957.544 Q182.593 959.673 181.783 961.595 Q180.996 963.493 178.889 966.085 Q178.311 966.757 175.209 969.974 Q172.107 973.169 166.459 978.933 Z" fill="#000000" fill-rule="nonzero" fill-opacity="1" /><path clip-path="url(#clip380)" d="M192.639 948.308 L210.996 948.308 L210.996 952.243 L196.922 952.243 L196.922 960.715 Q197.94 960.368 198.959 960.206 Q199.977 960.021 200.996 960.021 Q206.783 960.021 210.162 963.192 Q213.542 966.363 213.542 971.78 Q213.542 977.358 210.07 980.46 Q206.598 983.539 200.278 983.539 Q198.102 983.539 195.834 983.169 Q193.588 982.798 191.181 982.057 L191.181 977.358 Q193.264 978.493 195.487 979.048 Q197.709 979.604 200.186 979.604 Q204.19 979.604 206.528 977.497 Q208.866 975.391 208.866 971.78 Q208.866 968.169 206.528 966.062 Q204.19 963.956 200.186 963.956 Q198.311 963.956 196.436 964.372 Q194.584 964.789 192.639 965.669 L192.639 948.308 Z" fill="#000000" fill-rule="nonzero" fill-opacity="1" /><path clip-path="url(#clip380)" d="M126.205 704.805 Q122.593 704.805 120.765 708.37 Q118.959 711.912 118.959 719.041 Q118.959 726.148 120.765 729.712 Q122.593 733.254 126.205 733.254 Q129.839 733.254 131.644 729.712 Q133.473 726.148 133.473 719.041 Q133.473 711.912 131.644 708.37 Q129.839 704.805 126.205 704.805 M126.205 701.101 Q132.015 701.101 135.07 705.708 Q138.149 710.291 138.149 719.041 Q138.149 727.768 135.07 732.374 Q132.015 736.958 126.205 736.958 Q120.394 736.958 117.316 732.374 Q114.26 727.768 114.26 719.041 Q114.26 710.291 117.316 705.708 Q120.394 701.101 126.205 701.101 Z" fill="#000000" fill-rule="nonzero" fill-opacity="1" /><path clip-path="url(#clip380)" d="M146.366 730.407 L151.251 730.407 L151.251 736.286 L146.366 736.286 L146.366 730.407 Z" fill="#000000" fill-rule="nonzero" fill-opacity="1" /><path clip-path="url(#clip380)" d="M161.482 701.726 L179.839 701.726 L179.839 705.662 L165.765 705.662 L165.765 714.134 Q166.783 713.787 167.802 713.625 Q168.82 713.439 169.839 713.439 Q175.626 713.439 179.005 716.611 Q182.385 719.782 182.385 725.199 Q182.385 730.777 178.913 733.879 Q175.44 736.958 169.121 736.958 Q166.945 736.958 164.677 736.587 Q162.431 736.217 160.024 735.476 L160.024 730.777 Q162.107 731.911 164.329 732.467 Q166.552 733.023 169.028 733.023 Q173.033 733.023 175.371 730.916 Q177.709 728.81 177.709 725.199 Q177.709 721.587 175.371 719.481 Q173.033 717.375 169.028 717.375 Q167.153 717.375 165.278 717.791 Q163.427 718.208 161.482 719.087 L161.482 701.726 Z" fill="#000000" fill-rule="nonzero" fill-opacity="1" /><path clip-path="url(#clip380)" d="M201.598 704.805 Q197.987 704.805 196.158 708.37 Q194.352 711.912 194.352 719.041 Q194.352 726.148 196.158 729.712 Q197.987 733.254 201.598 733.254 Q205.232 733.254 207.037 729.712 Q208.866 726.148 208.866 719.041 Q208.866 711.912 207.037 708.37 Q205.232 704.805 201.598 704.805 M201.598 701.101 Q207.408 701.101 210.463 705.708 Q213.542 710.291 213.542 719.041 Q213.542 727.768 210.463 732.374 Q207.408 736.958 201.598 736.958 Q195.787 736.958 192.709 732.374 Q189.653 727.768 189.653 719.041 Q189.653 710.291 192.709 705.708 Q195.787 701.101 201.598 701.101 Z" fill="#000000" fill-rule="nonzero" fill-opacity="1" /><path clip-path="url(#clip380)" d="M127.2 458.224 Q123.589 458.224 121.76 461.789 Q119.955 465.33 119.955 472.46 Q119.955 479.566 121.76 483.131 Q123.589 486.673 127.2 486.673 Q130.834 486.673 132.64 483.131 Q134.468 479.566 134.468 472.46 Q134.468 465.33 132.64 461.789 Q130.834 458.224 127.2 458.224 M127.2 454.52 Q133.01 454.52 136.066 459.127 Q139.144 463.71 139.144 472.46 Q139.144 481.187 136.066 485.793 Q133.01 490.377 127.2 490.377 Q121.39 490.377 118.311 485.793 Q115.256 481.187 115.256 472.46 Q115.256 463.71 118.311 459.127 Q121.39 454.52 127.2 454.52 Z" fill="#000000" fill-rule="nonzero" fill-opacity="1" /><path clip-path="url(#clip380)" d="M147.362 483.826 L152.246 483.826 L152.246 489.705 L147.362 489.705 L147.362 483.826 Z" fill="#000000" fill-rule="nonzero" fill-opacity="1" /><path clip-path="url(#clip380)" d="M161.251 455.145 L183.473 455.145 L183.473 457.136 L170.927 489.705 L166.042 489.705 L177.848 459.08 L161.251 459.08 L161.251 455.145 Z" fill="#000000" fill-rule="nonzero" fill-opacity="1" /><path clip-path="url(#clip380)" d="M192.639 455.145 L210.996 455.145 L210.996 459.08 L196.922 459.08 L196.922 467.553 Q197.94 467.205 198.959 467.043 Q199.977 466.858 200.996 466.858 Q206.783 466.858 210.162 470.029 Q213.542 473.201 213.542 478.617 Q213.542 484.196 210.07 487.298 Q206.598 490.377 200.278 490.377 Q198.102 490.377 195.834 490.006 Q193.588 489.636 191.181 488.895 L191.181 484.196 Q193.264 485.33 195.487 485.886 Q197.709 486.441 200.186 486.441 Q204.19 486.441 206.528 484.335 Q208.866 482.228 208.866 478.617 Q208.866 475.006 206.528 472.9 Q204.19 470.793 200.186 470.793 Q198.311 470.793 196.436 471.21 Q194.584 471.627 192.639 472.506 L192.639 455.145 Z" fill="#000000" fill-rule="nonzero" fill-opacity="1" /><path clip-path="url(#clip380)" d="M117.015 239.189 L124.654 239.189 L124.654 212.823 L116.343 214.49 L116.343 210.231 L124.607 208.564 L129.283 208.564 L129.283 239.189 L136.922 239.189 L136.922 243.124 L117.015 243.124 L117.015 239.189 Z" fill="#000000" fill-rule="nonzero" fill-opacity="1" /><path clip-path="url(#clip380)" d="M146.366 237.244 L151.251 237.244 L151.251 243.124 L146.366 243.124 L146.366 237.244 Z" fill="#000000" fill-rule="nonzero" fill-opacity="1" /><path clip-path="url(#clip380)" d="M171.436 211.643 Q167.825 211.643 165.996 215.208 Q164.19 218.749 164.19 225.879 Q164.19 232.985 165.996 236.55 Q167.825 240.092 171.436 240.092 Q175.07 240.092 176.876 236.55 Q178.704 232.985 178.704 225.879 Q178.704 218.749 176.876 215.208 Q175.07 211.643 171.436 211.643 M171.436 207.939 Q177.246 207.939 180.301 212.546 Q183.38 217.129 183.38 225.879 Q183.38 234.606 180.301 239.212 Q177.246 243.795 171.436 243.795 Q165.626 243.795 162.547 239.212 Q159.491 234.606 159.491 225.879 Q159.491 217.129 162.547 212.546 Q165.626 207.939 171.436 207.939 Z" fill="#000000" fill-rule="nonzero" fill-opacity="1" /><path clip-path="url(#clip380)" d="M201.598 211.643 Q197.987 211.643 196.158 215.208 Q194.352 218.749 194.352 225.879 Q194.352 232.985 196.158 236.55 Q197.987 240.092 201.598 240.092 Q205.232 240.092 207.037 236.55 Q208.866 232.985 208.866 225.879 Q208.866 218.749 207.037 215.208 Q205.232 211.643 201.598 211.643 M201.598 207.939 Q207.408 207.939 210.463 212.546 Q213.542 217.129 213.542 225.879 Q213.542 234.606 210.463 239.212 Q207.408 243.795 201.598 243.795 Q195.787 243.795 192.709 239.212 Q189.653 234.606 189.653 225.879 Q189.653 217.129 192.709 212.546 Q195.787 207.939 201.598 207.939 Z" fill="#000000" fill-rule="nonzero" fill-opacity="1" /><path clip-path="url(#clip380)" d="M18.0438 776.817 L24.314 776.817 Q22.5634 780.478 21.704 783.724 Q20.8447 786.971 20.8447 789.994 Q20.8447 795.246 22.8817 798.111 Q24.9187 800.943 28.6745 800.943 Q31.8255 800.943 33.4488 799.065 Q35.0402 797.156 36.0269 791.872 L36.8226 787.989 Q38.1912 780.796 41.6605 777.39 Q45.098 773.953 50.8908 773.953 Q57.7976 773.953 61.3624 778.6 Q64.9272 783.215 64.9272 792.159 Q64.9272 795.532 64.1633 799.352 Q63.3994 803.14 61.9035 807.214 L55.2831 807.214 Q57.4793 803.299 58.5933 799.543 Q59.7073 795.787 59.7073 792.159 Q59.7073 786.652 57.543 783.66 Q55.3786 780.669 51.3682 780.669 Q47.8671 780.669 45.8937 782.833 Q43.9204 784.965 42.9337 789.867 L42.1698 793.782 Q40.7375 800.975 37.682 804.19 Q34.6264 807.405 29.1837 807.405 Q22.8817 807.405 19.2532 802.98 Q15.6248 798.524 15.6248 790.726 Q15.6248 787.384 16.2295 783.915 Q16.8343 780.446 18.0438 776.817 Z" fill="#000000" fill-rule="nonzero" fill-opacity="1" /><path clip-path="url(#clip380)" d="M58.657 758.516 L77.5631 758.516 L77.5631 764.404 L28.3562 764.404 L28.3562 758.516 L33.7671 758.516 Q30.5842 756.67 29.0564 753.869 Q27.4968 751.036 27.4968 747.121 Q27.4968 740.628 32.6531 736.586 Q37.8093 732.512 46.212 732.512 Q54.6147 732.512 59.771 736.586 Q64.9272 740.628 64.9272 747.121 Q64.9272 751.036 63.3994 753.869 Q61.8398 756.67 58.657 758.516 M46.212 738.591 Q39.7508 738.591 36.0905 741.265 Q32.3984 743.907 32.3984 748.554 Q32.3984 753.201 36.0905 755.874 Q39.7508 758.516 46.212 758.516 Q52.6732 758.516 56.3653 755.874 Q60.0256 753.201 60.0256 748.554 Q60.0256 743.907 56.3653 741.265 Q52.6732 738.591 46.212 738.591 Z" fill="#000000" fill-rule="nonzero" fill-opacity="1" /><path clip-path="url(#clip380)" d="M44.7161 692.313 L47.5806 692.313 L47.5806 719.239 Q53.6281 718.858 56.8109 715.611 Q59.9619 712.333 59.9619 706.508 Q59.9619 703.134 59.1344 699.983 Q58.3069 696.8 56.6518 693.681 L62.1899 693.681 Q63.5267 696.832 64.227 700.142 Q64.9272 703.453 64.9272 706.858 Q64.9272 715.388 59.9619 720.385 Q54.9967 725.351 46.5303 725.351 Q37.7774 725.351 32.6531 720.64 Q27.4968 715.897 27.4968 707.877 Q27.4968 700.683 32.1438 696.514 Q36.7589 692.313 44.7161 692.313 M42.9973 698.169 Q38.1912 698.233 35.3266 700.874 Q32.4621 703.484 32.4621 707.813 Q32.4621 712.715 35.2312 715.675 Q38.0002 718.603 43.0292 719.049 L42.9973 698.169 Z" fill="#000000" fill-rule="nonzero" fill-opacity="1" /><path clip-path="url(#clip380)" d="M44.7161 652.209 L47.5806 652.209 L47.5806 679.136 Q53.6281 678.754 56.8109 675.507 Q59.9619 672.229 59.9619 666.404 Q59.9619 663.03 59.1344 659.879 Q58.3069 656.696 56.6518 653.577 L62.1899 653.577 Q63.5267 656.728 64.227 660.038 Q64.9272 663.349 64.9272 666.754 Q64.9272 675.284 59.9619 680.281 Q54.9967 685.247 46.5303 685.247 Q37.7774 685.247 32.6531 680.536 Q27.4968 675.794 27.4968 667.773 Q27.4968 660.58 32.1438 656.41 Q36.7589 652.209 44.7161 652.209 M42.9973 658.065 Q38.1912 658.129 35.3266 660.77 Q32.4621 663.38 32.4621 667.709 Q32.4621 672.611 35.2312 675.571 Q38.0002 678.499 43.0292 678.945 L42.9973 658.065 Z" fill="#000000" fill-rule="nonzero" fill-opacity="1" /><path clip-path="url(#clip380)" d="M33.7671 619.139 L14.479 619.139 L14.479 613.282 L64.0042 613.282 L64.0042 619.139 L58.657 619.139 Q61.8398 620.985 63.3994 623.818 Q64.9272 626.618 64.9272 630.565 Q64.9272 637.026 59.771 641.1 Q54.6147 645.143 46.212 645.143 Q37.8093 645.143 32.6531 641.1 Q27.4968 637.026 27.4968 630.565 Q27.4968 626.618 29.0564 623.818 Q30.5842 620.985 33.7671 619.139 M46.212 639.095 Q52.6732 639.095 56.3653 636.453 Q60.0256 633.78 60.0256 629.133 Q60.0256 624.486 56.3653 621.812 Q52.6732 619.139 46.212 619.139 Q39.7508 619.139 36.0905 621.812 Q32.3984 624.486 32.3984 629.133 Q32.3984 633.78 36.0905 636.453 Q39.7508 639.095 46.212 639.095 Z" fill="#000000" fill-rule="nonzero" fill-opacity="1" /><path clip-path="url(#clip380)" d="M49.9359 601.824 L28.3562 601.824 L28.3562 595.968 L49.7131 595.968 Q54.7739 595.968 57.3202 593.994 Q59.8346 592.021 59.8346 588.074 Q59.8346 583.332 56.8109 580.594 Q53.7872 577.825 48.5673 577.825 L28.3562 577.825 L28.3562 571.969 L64.0042 571.969 L64.0042 577.825 L58.5296 577.825 Q61.7762 579.958 63.3676 582.791 Q64.9272 585.591 64.9272 589.315 Q64.9272 595.458 61.1078 598.641 Q57.2883 601.824 49.9359 601.824 M27.4968 587.087 L27.4968 587.087 Z" fill="#000000" fill-rule="nonzero" fill-opacity="1" /><path clip-path="url(#clip380)" d="M58.657 554.24 L77.5631 554.24 L77.5631 560.129 L28.3562 560.129 L28.3562 554.24 L33.7671 554.24 Q30.5842 552.394 29.0564 549.593 Q27.4968 546.761 27.4968 542.846 Q27.4968 536.353 32.6531 532.311 Q37.8093 528.236 46.212 528.236 Q54.6147 528.236 59.771 532.311 Q64.9272 536.353 64.9272 542.846 Q64.9272 546.761 63.3994 549.593 Q61.8398 552.394 58.657 554.24 M46.212 534.316 Q39.7508 534.316 36.0905 536.989 Q32.3984 539.631 32.3984 544.278 Q32.3984 548.925 36.0905 551.599 Q39.7508 554.24 46.212 554.24 Q52.6732 554.24 56.3653 551.599 Q60.0256 548.925 60.0256 544.278 Q60.0256 539.631 56.3653 536.989 Q52.6732 534.316 46.212 534.316 Z" fill="#000000" fill-rule="nonzero" fill-opacity="1" /><path clip-path="url(#clip380)" d="M495.505 14.0809 L495.505 22.0612 Q490.847 19.8332 486.715 18.7395 Q482.583 17.6457 478.734 17.6457 Q472.05 17.6457 468.405 20.2383 Q464.799 22.8309 464.799 27.611 Q464.799 31.6214 467.189 33.6873 Q469.62 35.7128 476.344 36.9686 L481.286 37.9813 Q490.442 39.7232 494.776 44.1387 Q499.151 48.5136 499.151 55.8863 Q499.151 64.6767 493.237 69.2137 Q487.363 73.7508 475.98 73.7508 Q471.686 73.7508 466.825 72.7785 Q462.004 71.8063 456.819 69.9024 L456.819 61.4765 Q461.802 64.2716 466.582 65.6895 Q471.362 67.1073 475.98 67.1073 Q482.988 67.1073 486.796 64.3527 Q490.604 61.598 490.604 56.4939 Q490.604 52.0379 487.849 49.5264 Q485.135 47.0148 478.896 45.759 L473.914 44.7868 Q464.759 42.9639 460.667 39.075 Q456.576 35.1862 456.576 28.2591 Q456.576 20.2383 462.207 15.6203 Q467.878 11.0023 477.803 11.0023 Q482.056 11.0023 486.472 11.7719 Q490.887 12.5416 495.505 14.0809 Z" fill="#000000" fill-rule="nonzero" fill-opacity="1" /><path clip-path="url(#clip380)" d="M518.798 65.7705 L518.798 89.8329 L511.304 89.8329 L511.304 27.2059 L518.798 27.2059 L518.798 34.0924 Q521.147 30.0415 524.712 28.0971 Q528.317 26.1121 533.3 26.1121 Q541.564 26.1121 546.709 32.6746 Q551.894 39.2371 551.894 49.9314 Q551.894 60.6258 546.709 67.1883 Q541.564 73.7508 533.3 73.7508 Q528.317 73.7508 524.712 71.8063 Q521.147 69.8214 518.798 65.7705 M544.156 49.9314 Q544.156 41.7081 540.754 37.0496 Q537.391 32.3505 531.477 32.3505 Q525.563 32.3505 522.16 37.0496 Q518.798 41.7081 518.798 49.9314 Q518.798 58.1548 522.16 62.8538 Q525.563 67.5124 531.477 67.5124 Q537.391 67.5124 540.754 62.8538 Q544.156 58.1548 544.156 49.9314 Z" fill="#000000" fill-rule="nonzero" fill-opacity="1" /><path clip-path="url(#clip380)" d="M603.057 48.0275 L603.057 51.6733 L568.786 51.6733 Q569.272 59.3701 573.404 63.421 Q577.576 67.4314 584.99 67.4314 Q589.284 67.4314 593.294 66.3781 Q597.345 65.3249 601.315 63.2184 L601.315 70.267 Q597.304 71.9684 593.091 72.8596 Q588.878 73.7508 584.544 73.7508 Q573.688 73.7508 567.328 67.4314 Q561.008 61.1119 561.008 50.3365 Q561.008 39.1965 567.004 32.6746 Q573.039 26.1121 583.248 26.1121 Q592.403 26.1121 597.709 32.0264 Q603.057 37.9003 603.057 48.0275 M595.603 45.84 Q595.522 39.7232 592.16 36.0774 Q588.838 32.4315 583.329 32.4315 Q577.09 32.4315 573.323 35.9558 Q569.596 39.4801 569.029 45.8805 L595.603 45.84 Z" fill="#000000" fill-rule="nonzero" fill-opacity="1" /><path clip-path="url(#clip380)" d="M654.098 48.0275 L654.098 51.6733 L619.827 51.6733 Q620.313 59.3701 624.445 63.421 Q628.618 67.4314 636.031 67.4314 Q640.325 67.4314 644.335 66.3781 Q648.386 65.3249 652.356 63.2184 L652.356 70.267 Q648.346 71.9684 644.133 72.8596 Q639.92 73.7508 635.585 73.7508 Q624.729 73.7508 618.369 67.4314 Q612.05 61.1119 612.05 50.3365 Q612.05 39.1965 618.045 32.6746 Q624.081 26.1121 634.289 26.1121 Q643.444 26.1121 648.751 32.0264 Q654.098 37.9003 654.098 48.0275 M646.644 45.84 Q646.563 39.7232 643.201 36.0774 Q639.879 32.4315 634.37 32.4315 Q628.132 32.4315 624.364 35.9558 Q620.638 39.4801 620.07 45.8805 L646.644 45.84 Z" fill="#000000" fill-rule="nonzero" fill-opacity="1" /><path clip-path="url(#clip380)" d="M696.187 34.0924 L696.187 9.54393 L703.641 9.54393 L703.641 72.576 L696.187 72.576 L696.187 65.7705 Q693.837 69.8214 690.232 71.8063 Q686.667 73.7508 681.644 73.7508 Q673.421 73.7508 668.236 67.1883 Q663.091 60.6258 663.091 49.9314 Q663.091 39.2371 668.236 32.6746 Q673.421 26.1121 681.644 26.1121 Q686.667 26.1121 690.232 28.0971 Q693.837 30.0415 696.187 34.0924 M670.788 49.9314 Q670.788 58.1548 674.15 62.8538 Q677.553 67.5124 683.467 67.5124 Q689.381 67.5124 692.784 62.8538 Q696.187 58.1548 696.187 49.9314 Q696.187 41.7081 692.784 37.0496 Q689.381 32.3505 683.467 32.3505 Q677.553 32.3505 674.15 37.0496 Q670.788 41.7081 670.788 49.9314 Z" fill="#000000" fill-rule="nonzero" fill-opacity="1" /><path clip-path="url(#clip380)" d="M718.224 54.671 L718.224 27.2059 L725.678 27.2059 L725.678 54.3874 Q725.678 60.8284 728.189 64.0691 Q730.701 67.2693 735.724 67.2693 Q741.76 67.2693 745.243 63.421 Q748.768 59.5726 748.768 52.9291 L748.768 27.2059 L756.221 27.2059 L756.221 72.576 L748.768 72.576 L748.768 65.6084 Q746.054 69.7404 742.448 71.7658 Q738.883 73.7508 734.144 73.7508 Q726.326 73.7508 722.275 68.8897 Q718.224 64.0286 718.224 54.671 M736.98 26.1121 L736.98 26.1121 Z" fill="#000000" fill-rule="nonzero" fill-opacity="1" /><path clip-path="url(#clip380)" d="M778.785 65.7705 L778.785 89.8329 L771.291 89.8329 L771.291 27.2059 L778.785 27.2059 L778.785 34.0924 Q781.134 30.0415 784.699 28.0971 Q788.304 26.1121 793.287 26.1121 Q801.551 26.1121 806.696 32.6746 Q811.881 39.2371 811.881 49.9314 Q811.881 60.6258 806.696 67.1883 Q801.551 73.7508 793.287 73.7508 Q788.304 73.7508 784.699 71.8063 Q781.134 69.8214 778.785 65.7705 M804.144 49.9314 Q804.144 41.7081 800.741 37.0496 Q797.379 32.3505 791.464 32.3505 Q785.55 32.3505 782.147 37.0496 Q778.785 41.7081 778.785 49.9314 Q778.785 58.1548 782.147 62.8538 Q785.55 67.5124 791.464 67.5124 Q797.379 67.5124 800.741 62.8538 Q804.144 58.1548 804.144 49.9314 Z" fill="#000000" fill-rule="nonzero" fill-opacity="1" /><path clip-path="url(#clip380)" d="M883.258 28.9478 L883.258 35.9153 Q880.098 34.1734 876.898 33.3227 Q873.738 32.4315 870.497 32.4315 Q863.246 32.4315 859.236 37.0496 Q855.225 41.6271 855.225 49.9314 Q855.225 58.2358 859.236 62.8538 Q863.246 67.4314 870.497 67.4314 Q873.738 67.4314 876.898 66.5807 Q880.098 65.6895 883.258 63.9476 L883.258 70.8341 Q880.138 72.2924 876.776 73.0216 Q873.455 73.7508 869.687 73.7508 Q859.438 73.7508 853.403 67.3098 Q847.367 60.8689 847.367 49.9314 Q847.367 38.832 853.443 32.472 Q859.56 26.1121 870.173 26.1121 Q873.617 26.1121 876.898 26.8413 Q880.179 27.5299 883.258 28.9478 Z" fill="#000000" fill-rule="nonzero" fill-opacity="1" /><path clip-path="url(#clip380)" d="M913.802 32.4315 Q907.806 32.4315 904.322 37.1306 Q900.839 41.7891 900.839 49.9314 Q900.839 58.0738 904.282 62.7728 Q907.766 67.4314 913.802 67.4314 Q919.756 67.4314 923.24 62.7323 Q926.724 58.0333 926.724 49.9314 Q926.724 41.8701 923.24 37.1711 Q919.756 32.4315 913.802 32.4315 M913.802 26.1121 Q923.524 26.1121 929.073 32.4315 Q934.623 38.7509 934.623 49.9314 Q934.623 61.0714 929.073 67.4314 Q923.524 73.7508 913.802 73.7508 Q904.039 73.7508 898.489 67.4314 Q892.98 61.0714 892.98 49.9314 Q892.98 38.7509 898.489 32.4315 Q904.039 26.1121 913.802 26.1121 Z" fill="#000000" fill-rule="nonzero" fill-opacity="1" /><path clip-path="url(#clip380)" d="M941.631 27.2059 L949.53 27.2059 L963.709 65.2844 L977.887 27.2059 L985.786 27.2059 L968.772 72.576 L958.645 72.576 L941.631 27.2059 Z" fill="#000000" fill-rule="nonzero" fill-opacity="1" /><path clip-path="url(#clip380)" d="M1016.69 49.7694 Q1007.66 49.7694 1004.18 51.8354 Q1000.69 53.9013 1000.69 58.8839 Q1000.69 62.8538 1003.29 65.2034 Q1005.92 67.5124 1010.42 67.5124 Q1016.61 67.5124 1020.34 63.1374 Q1024.11 58.7219 1024.11 51.4303 L1024.11 49.7694 L1016.69 49.7694 M1031.56 46.6907 L1031.56 72.576 L1024.11 72.576 L1024.11 65.6895 Q1021.56 69.8214 1017.75 71.8063 Q1013.94 73.7508 1008.43 73.7508 Q1001.46 73.7508 997.331 69.8619 Q993.24 65.9325 993.24 59.3701 Q993.24 51.7138 998.344 47.825 Q1003.49 43.9361 1013.66 43.9361 L1024.11 43.9361 L1024.11 43.2069 Q1024.11 38.0623 1020.7 35.2672 Q1017.34 32.4315 1011.23 32.4315 Q1007.34 32.4315 1003.65 33.3632 Q999.964 34.295 996.561 36.1584 L996.561 29.2718 Q1000.65 27.692 1004.5 26.9223 Q1008.35 26.1121 1012 26.1121 Q1021.84 26.1121 1026.7 31.2163 Q1031.56 36.3204 1031.56 46.6907 Z" fill="#000000" fill-rule="nonzero" fill-opacity="1" /><path clip-path="url(#clip380)" d="M1073.2 34.1734 Q1071.95 33.4443 1070.45 33.1202 Q1068.99 32.7556 1067.21 32.7556 Q1060.89 32.7556 1057.49 36.8875 Q1054.12 40.9789 1054.12 48.6757 L1054.12 72.576 L1046.63 72.576 L1046.63 27.2059 L1054.12 27.2059 L1054.12 34.2544 Q1056.47 30.1225 1060.24 28.1376 Q1064.01 26.1121 1069.4 26.1121 Q1070.17 26.1121 1071.1 26.2337 Q1072.03 26.3147 1073.16 26.5172 L1073.2 34.1734 Z" fill="#000000" fill-rule="nonzero" fill-opacity="1" /><path clip-path="url(#clip380)" d="M1081.02 27.2059 L1088.48 27.2059 L1088.48 72.576 L1081.02 72.576 L1081.02 27.2059 M1081.02 9.54393 L1088.48 9.54393 L1088.48 18.9825 L1081.02 18.9825 L1081.02 9.54393 Z" fill="#000000" fill-rule="nonzero" fill-opacity="1" /><path clip-path="url(#clip380)" d="M1124.69 49.7694 Q1115.66 49.7694 1112.17 51.8354 Q1108.69 53.9013 1108.69 58.8839 Q1108.69 62.8538 1111.28 65.2034 Q1113.92 67.5124 1118.41 67.5124 Q1124.61 67.5124 1128.34 63.1374 Q1132.1 58.7219 1132.1 51.4303 L1132.1 49.7694 L1124.69 49.7694 M1139.56 46.6907 L1139.56 72.576 L1132.1 72.576 L1132.1 65.6895 Q1129.55 69.8214 1125.74 71.8063 Q1121.94 73.7508 1116.43 73.7508 Q1109.46 73.7508 1105.33 69.8619 Q1101.24 65.9325 1101.24 59.3701 Q1101.24 51.7138 1106.34 47.825 Q1111.49 43.9361 1121.65 43.9361 L1132.1 43.9361 L1132.1 43.2069 Q1132.1 38.0623 1128.7 35.2672 Q1125.34 32.4315 1119.22 32.4315 Q1115.33 32.4315 1111.65 33.3632 Q1107.96 34.295 1104.56 36.1584 L1104.56 29.2718 Q1108.65 27.692 1112.5 26.9223 Q1116.35 26.1121 1119.99 26.1121 Q1129.84 26.1121 1134.7 31.2163 Q1139.56 36.3204 1139.56 46.6907 Z" fill="#000000" fill-rule="nonzero" fill-opacity="1" /><path clip-path="url(#clip380)" d="M1192.63 45.1919 L1192.63 72.576 L1185.17 72.576 L1185.17 45.4349 Q1185.17 38.994 1182.66 35.7938 Q1180.15 32.5936 1175.13 32.5936 Q1169.09 32.5936 1165.61 36.4419 Q1162.12 40.2903 1162.12 46.9338 L1162.12 72.576 L1154.63 72.576 L1154.63 27.2059 L1162.12 27.2059 L1162.12 34.2544 Q1164.8 30.163 1168.4 28.1376 Q1172.05 26.1121 1176.79 26.1121 Q1184.6 26.1121 1188.61 30.9732 Q1192.63 35.7938 1192.63 45.1919 Z" fill="#000000" fill-rule="nonzero" fill-opacity="1" /><path clip-path="url(#clip380)" d="M1240.14 28.9478 L1240.14 35.9153 Q1236.98 34.1734 1233.78 33.3227 Q1230.62 32.4315 1227.38 32.4315 Q1220.13 32.4315 1216.12 37.0496 Q1212.11 41.6271 1212.11 49.9314 Q1212.11 58.2358 1216.12 62.8538 Q1220.13 67.4314 1227.38 67.4314 Q1230.62 67.4314 1233.78 66.5807 Q1236.98 65.6895 1240.14 63.9476 L1240.14 70.8341 Q1237.02 72.2924 1233.66 73.0216 Q1230.34 73.7508 1226.57 73.7508 Q1216.32 73.7508 1210.29 67.3098 Q1204.25 60.8689 1204.25 49.9314 Q1204.25 38.832 1210.33 32.472 Q1216.44 26.1121 1227.06 26.1121 Q1230.5 26.1121 1233.78 26.8413 Q1237.06 27.5299 1240.14 28.9478 Z" fill="#000000" fill-rule="nonzero" fill-opacity="1" /><path clip-path="url(#clip380)" d="M1291.91 48.0275 L1291.91 51.6733 L1257.64 51.6733 Q1258.13 59.3701 1262.26 63.421 Q1266.43 67.4314 1273.85 67.4314 Q1278.14 67.4314 1282.15 66.3781 Q1286.2 65.3249 1290.17 63.2184 L1290.17 70.267 Q1286.16 71.9684 1281.95 72.8596 Q1277.73 73.7508 1273.4 73.7508 Q1262.54 73.7508 1256.18 67.4314 Q1249.86 61.1119 1249.86 50.3365 Q1249.86 39.1965 1255.86 32.6746 Q1261.9 26.1121 1272.1 26.1121 Q1281.26 26.1121 1286.57 32.0264 Q1291.91 37.9003 1291.91 48.0275 M1284.46 45.84 Q1284.38 39.7232 1281.02 36.0774 Q1277.69 32.4315 1272.19 32.4315 Q1265.95 32.4315 1262.18 35.9558 Q1258.45 39.4801 1257.89 45.8805 L1284.46 45.84 Z" fill="#000000" fill-rule="nonzero" fill-opacity="1" /><path clip-path="url(#clip380)" d="M1306.05 62.2867 L1314.6 62.2867 L1314.6 69.2543 L1307.95 82.2172 L1302.73 82.2172 L1306.05 69.2543 L1306.05 62.2867 Z" fill="#000000" fill-rule="nonzero" fill-opacity="1" /><path clip-path="url(#clip380)" d="M1364.1 65.7705 L1364.1 89.8329 L1356.61 89.8329 L1356.61 27.2059 L1364.1 27.2059 L1364.1 34.0924 Q1366.45 30.0415 1370.01 28.0971 Q1373.62 26.1121 1378.6 26.1121 Q1386.87 26.1121 1392.01 32.6746 Q1397.2 39.2371 1397.2 49.9314 Q1397.2 60.6258 1392.01 67.1883 Q1386.87 73.7508 1378.6 73.7508 Q1373.62 73.7508 1370.01 71.8063 Q1366.45 69.8214 1364.1 65.7705 M1389.46 49.9314 Q1389.46 41.7081 1386.06 37.0496 Q1382.69 32.3505 1376.78 32.3505 Q1370.87 32.3505 1367.46 37.0496 Q1364.1 41.7081 1364.1 49.9314 Q1364.1 58.1548 1367.46 62.8538 Q1370.87 67.5124 1376.78 67.5124 Q1382.69 67.5124 1386.06 62.8538 Q1389.46 58.1548 1389.46 49.9314 Z" fill="#000000" fill-rule="nonzero" fill-opacity="1" /><path clip-path="url(#clip380)" d="M1435.84 34.1734 Q1434.59 33.4443 1433.09 33.1202 Q1431.63 32.7556 1429.85 32.7556 Q1423.53 32.7556 1420.12 36.8875 Q1416.76 40.9789 1416.76 48.6757 L1416.76 72.576 L1409.27 72.576 L1409.27 27.2059 L1416.76 27.2059 L1416.76 34.2544 Q1419.11 30.1225 1422.88 28.1376 Q1426.65 26.1121 1432.03 26.1121 Q1432.8 26.1121 1433.74 26.2337 Q1434.67 26.3147 1435.8 26.5172 L1435.84 34.1734 Z" fill="#000000" fill-rule="nonzero" fill-opacity="1" /><path clip-path="url(#clip380)" d="M1480.64 48.0275 L1480.64 51.6733 L1446.37 51.6733 Q1446.86 59.3701 1450.99 63.421 Q1455.16 67.4314 1462.58 67.4314 Q1466.87 67.4314 1470.88 66.3781 Q1474.93 65.3249 1478.9 63.2184 L1478.9 70.267 Q1474.89 71.9684 1470.68 72.8596 Q1466.47 73.7508 1462.13 73.7508 Q1451.28 73.7508 1444.92 67.4314 Q1438.6 61.1119 1438.6 50.3365 Q1438.6 39.1965 1444.59 32.6746 Q1450.63 26.1121 1460.84 26.1121 Q1469.99 26.1121 1475.3 32.0264 Q1480.64 37.9003 1480.64 48.0275 M1473.19 45.84 Q1473.11 39.7232 1469.75 36.0774 Q1466.43 32.4315 1460.92 32.4315 Q1454.68 32.4315 1450.91 35.9558 Q1447.18 39.4801 1446.62 45.8805 L1473.19 45.84 Z" fill="#000000" fill-rule="nonzero" fill-opacity="1" /><path clip-path="url(#clip380)" d="M1521.8 28.5427 L1521.8 35.5912 Q1518.64 33.9709 1515.24 33.1607 Q1511.84 32.3505 1508.19 32.3505 Q1502.64 32.3505 1499.85 34.0519 Q1497.09 35.7533 1497.09 39.156 Q1497.09 41.7486 1499.08 43.2475 Q1501.06 44.7058 1507.06 46.0426 L1509.61 46.6097 Q1517.55 48.3111 1520.87 51.4303 Q1524.23 54.509 1524.23 60.0587 Q1524.23 66.3781 1519.21 70.0644 Q1514.23 73.7508 1505.48 73.7508 Q1501.83 73.7508 1497.86 73.0216 Q1493.93 72.3329 1489.56 70.9151 L1489.56 63.2184 Q1493.69 65.3654 1497.7 66.4591 Q1501.71 67.5124 1505.64 67.5124 Q1510.9 67.5124 1513.74 65.73 Q1516.58 63.9071 1516.58 60.6258 Q1516.58 57.5877 1514.51 55.9673 Q1512.48 54.3469 1505.56 52.8481 L1502.97 52.2405 Q1496.04 50.7821 1492.96 47.7845 Q1489.88 44.7463 1489.88 39.4801 Q1489.88 33.0797 1494.42 29.5959 Q1498.95 26.1121 1507.3 26.1121 Q1511.43 26.1121 1515.08 26.7198 Q1518.72 27.3274 1521.8 28.5427 Z" fill="#000000" fill-rule="nonzero" fill-opacity="1" /><path clip-path="url(#clip380)" d="M1574.91 48.0275 L1574.91 51.6733 L1540.64 51.6733 Q1541.12 59.3701 1545.26 63.421 Q1549.43 67.4314 1556.84 67.4314 Q1561.14 67.4314 1565.15 66.3781 Q1569.2 65.3249 1573.17 63.2184 L1573.17 70.267 Q1569.16 71.9684 1564.94 72.8596 Q1560.73 73.7508 1556.4 73.7508 Q1545.54 73.7508 1539.18 67.4314 Q1532.86 61.1119 1532.86 50.3365 Q1532.86 39.1965 1538.86 32.6746 Q1544.89 26.1121 1555.1 26.1121 Q1564.26 26.1121 1569.56 32.0264 Q1574.91 37.9003 1574.91 48.0275 M1567.46 45.84 Q1567.37 39.7232 1564.01 36.0774 Q1560.69 32.4315 1555.18 32.4315 Q1548.94 32.4315 1545.18 35.9558 Q1541.45 39.4801 1540.88 45.8805 L1567.46 45.84 Z" fill="#000000" fill-rule="nonzero" fill-opacity="1" /><path clip-path="url(#clip380)" d="M1594.52 14.324 L1594.52 27.2059 L1609.87 27.2059 L1609.87 32.9987 L1594.52 32.9987 L1594.52 57.6282 Q1594.52 63.1779 1596.01 64.7578 Q1597.55 66.3376 1602.21 66.3376 L1609.87 66.3376 L1609.87 72.576 L1602.21 72.576 Q1593.58 72.576 1590.3 69.3758 Q1587.02 66.1351 1587.02 57.6282 L1587.02 32.9987 L1581.55 32.9987 L1581.55 27.2059 L1587.02 27.2059 L1587.02 14.324 L1594.52 14.324 Z" fill="#000000" fill-rule="nonzero" fill-opacity="1" /><path clip-path="url(#clip380)" d="M1653.09 12.096 L1653.09 34.5785 L1646.2 34.5785 L1646.2 12.096 L1653.09 12.096 Z" fill="#000000" fill-rule="nonzero" fill-opacity="1" /><path clip-path="url(#clip380)" d="M1676.06 65.7705 L1676.06 89.8329 L1668.57 89.8329 L1668.57 27.2059 L1676.06 27.2059 L1676.06 34.0924 Q1678.41 30.0415 1681.97 28.0971 Q1685.58 26.1121 1690.56 26.1121 Q1698.83 26.1121 1703.97 32.6746 Q1709.16 39.2371 1709.16 49.9314 Q1709.16 60.6258 1703.97 67.1883 Q1698.83 73.7508 1690.56 73.7508 Q1685.58 73.7508 1681.97 71.8063 Q1678.41 69.8214 1676.06 65.7705 M1701.42 49.9314 Q1701.42 41.7081 1698.02 37.0496 Q1694.65 32.3505 1688.74 32.3505 Q1682.83 32.3505 1679.42 37.0496 Q1676.06 41.7081 1676.06 49.9314 Q1676.06 58.1548 1679.42 62.8538 Q1682.83 67.5124 1688.74 67.5124 Q1694.65 67.5124 1698.02 62.8538 Q1701.42 58.1548 1701.42 49.9314 Z" fill="#000000" fill-rule="nonzero" fill-opacity="1" /><path clip-path="url(#clip380)" d="M1742.13 49.7694 Q1733.1 49.7694 1729.61 51.8354 Q1726.13 53.9013 1726.13 58.8839 Q1726.13 62.8538 1728.72 65.2034 Q1731.35 67.5124 1735.85 67.5124 Q1742.05 67.5124 1745.78 63.1374 Q1749.54 58.7219 1749.54 51.4303 L1749.54 49.7694 L1742.13 49.7694 M1757 46.6907 L1757 72.576 L1749.54 72.576 L1749.54 65.6895 Q1746.99 69.8214 1743.18 71.8063 Q1739.38 73.7508 1733.87 73.7508 Q1726.9 73.7508 1722.77 69.8619 Q1718.68 65.9325 1718.68 59.3701 Q1718.68 51.7138 1723.78 47.825 Q1728.92 43.9361 1739.09 43.9361 L1749.54 43.9361 L1749.54 43.2069 Q1749.54 38.0623 1746.14 35.2672 Q1742.78 32.4315 1736.66 32.4315 Q1732.77 32.4315 1729.09 33.3632 Q1725.4 34.295 1722 36.1584 L1722 29.2718 Q1726.09 27.692 1729.94 26.9223 Q1733.79 26.1121 1737.43 26.1121 Q1747.28 26.1121 1752.14 31.2163 Q1757 36.3204 1757 46.6907 Z" fill="#000000" fill-rule="nonzero" fill-opacity="1" /><path clip-path="url(#clip380)" d="M1779.56 65.7705 L1779.56 89.8329 L1772.07 89.8329 L1772.07 27.2059 L1779.56 27.2059 L1779.56 34.0924 Q1781.91 30.0415 1785.48 28.0971 Q1789.08 26.1121 1794.06 26.1121 Q1802.33 26.1121 1807.47 32.6746 Q1812.66 39.2371 1812.66 49.9314 Q1812.66 60.6258 1807.47 67.1883 Q1802.33 73.7508 1794.06 73.7508 Q1789.08 73.7508 1785.48 71.8063 Q1781.91 69.8214 1779.56 65.7705 M1804.92 49.9314 Q1804.92 41.7081 1801.52 37.0496 Q1798.15 32.3505 1792.24 32.3505 Q1786.33 32.3505 1782.92 37.0496 Q1779.56 41.7081 1779.56 49.9314 Q1779.56 58.1548 1782.92 62.8538 Q1786.33 67.5124 1792.24 67.5124 Q1798.15 67.5124 1801.52 62.8538 Q1804.92 58.1548 1804.92 49.9314 Z" fill="#000000" fill-rule="nonzero" fill-opacity="1" /><path clip-path="url(#clip380)" d="M1863.82 48.0275 L1863.82 51.6733 L1829.55 51.6733 Q1830.04 59.3701 1834.17 63.421 Q1838.34 67.4314 1845.75 67.4314 Q1850.05 67.4314 1854.06 66.3781 Q1858.11 65.3249 1862.08 63.2184 L1862.08 70.267 Q1858.07 71.9684 1853.85 72.8596 Q1849.64 73.7508 1845.31 73.7508 Q1834.45 73.7508 1828.09 67.4314 Q1821.77 61.1119 1821.77 50.3365 Q1821.77 39.1965 1827.77 32.6746 Q1833.8 26.1121 1844.01 26.1121 Q1853.17 26.1121 1858.47 32.0264 Q1863.82 37.9003 1863.82 48.0275 M1856.37 45.84 Q1856.28 39.7232 1852.92 36.0774 Q1849.6 32.4315 1844.09 32.4315 Q1837.85 32.4315 1834.09 35.9558 Q1830.36 39.4801 1829.79 45.8805 L1856.37 45.84 Z" fill="#000000" fill-rule="nonzero" fill-opacity="1" /><path clip-path="url(#clip380)" d="M1902.34 34.1734 Q1901.09 33.4443 1899.59 33.1202 Q1898.13 32.7556 1896.35 32.7556 Q1890.03 32.7556 1886.63 36.8875 Q1883.26 40.9789 1883.26 48.6757 L1883.26 72.576 L1875.77 72.576 L1875.77 27.2059 L1883.26 27.2059 L1883.26 34.2544 Q1885.61 30.1225 1889.38 28.1376 Q1893.15 26.1121 1898.54 26.1121 Q1899.31 26.1121 1900.24 26.2337 Q1901.17 26.3147 1902.3 26.5172 L1902.34 34.1734 Z" fill="#000000" fill-rule="nonzero" fill-opacity="1" /><path clip-path="url(#clip380)" d="M1917.21 12.096 L1917.21 34.5785 L1910.32 34.5785 L1910.32 12.096 L1917.21 12.096 Z" fill="#000000" fill-rule="nonzero" fill-opacity="1" /><path clip-path="url(#clip380)" d="M1934.87 62.2867 L1943.42 62.2867 L1943.42 69.2543 L1936.78 82.2172 L1931.55 82.2172 L1934.87 69.2543 L1934.87 62.2867 Z" fill="#000000" fill-rule="nonzero" fill-opacity="1" /><path clip-path="url(#clip380)" d="M2027.27 63.9476 L2027.27 47.7034 L2013.91 47.7034 L2013.91 40.9789 L2035.38 40.9789 L2035.38 66.9452 Q2030.64 70.3075 2024.92 72.0494 Q2019.21 73.7508 2012.73 73.7508 Q1998.55 73.7508 1990.53 65.4869 Q1982.55 57.1826 1982.55 42.3968 Q1982.55 27.5705 1990.53 19.3066 Q1998.55 11.0023 2012.73 11.0023 Q2018.65 11.0023 2023.95 12.4606 Q2029.3 13.9189 2033.8 16.7545 L2033.8 25.464 Q2029.26 21.6156 2024.15 19.6712 Q2019.05 17.7268 2013.42 17.7268 Q2002.32 17.7268 1996.73 23.9246 Q1991.18 30.1225 1991.18 42.3968 Q1991.18 54.6305 1996.73 60.8284 Q2002.32 67.0263 2013.42 67.0263 Q2017.75 67.0263 2021.16 66.2971 Q2024.56 65.5274 2027.27 63.9476 Z" fill="#000000" fill-rule="nonzero" fill-opacity="1" /><path clip-path="url(#clip380)" d="M2058.51 18.8205 L2058.51 41.5461 L2068.8 41.5461 Q2074.51 41.5461 2077.63 38.5889 Q2080.75 35.6318 2080.75 30.163 Q2080.75 24.7348 2077.63 21.7777 Q2074.51 18.8205 2068.8 18.8205 L2058.51 18.8205 M2050.32 12.096 L2068.8 12.096 Q2078.96 12.096 2084.15 16.714 Q2089.37 21.2916 2089.37 30.163 Q2089.37 39.1155 2084.15 43.6931 Q2078.96 48.2706 2068.8 48.2706 L2058.51 48.2706 L2058.51 72.576 L2050.32 72.576 L2050.32 12.096 Z" fill="#000000" fill-rule="nonzero" fill-opacity="1" /><path clip-path="url(#clip380)" d="M2099.42 12.096 L2107.64 12.096 L2107.64 48.8377 Q2107.64 58.5599 2111.17 62.8538 Q2114.69 67.1073 2122.59 67.1073 Q2130.45 67.1073 2133.97 62.8538 Q2137.5 58.5599 2137.5 48.8377 L2137.5 12.096 L2145.72 12.096 L2145.72 49.8504 Q2145.72 61.6791 2139.85 67.7149 Q2134.01 73.7508 2122.59 73.7508 Q2111.13 73.7508 2105.25 67.7149 Q2099.42 61.6791 2099.42 49.8504 L2099.42 12.096 Z" fill="#000000" fill-rule="nonzero" fill-opacity="1" /><path clip-path="url(#clip382)" d="M333.143 225.844 L333.143 1212.17 L663.601 1212.17 L663.601 225.844 L333.143 225.844 L333.143 225.844  Z" fill="#808080" fill-rule="evenodd" fill-opacity="1"/>
<polyline clip-path="url(#clip382)" style="stroke:#000000; stroke-linecap:round; stroke-linejoin:round; stroke-width:4; stroke-opacity:1; fill:none" points="333.143,225.844 333.143,1212.17 663.601,1212.17 663.601,225.844 333.143,225.844 "/>
<path clip-path="url(#clip382)" d="M805.226 223.601 L805.226 1212.17 L1135.68 1212.17 L1135.68 223.601 L805.226 223.601 L805.226 223.601  Z" fill="#808080" fill-rule="evenodd" fill-opacity="1"/>
<polyline clip-path="url(#clip382)" style="stroke:#000000; stroke-linecap:round; stroke-linejoin:round; stroke-width:4; stroke-opacity:1; fill:none" points="805.226,223.601 805.226,1212.17 1135.68,1212.17 1135.68,223.601 805.226,223.601 "/>
<circle clip-path="url(#clip382)" style="fill:#808080; stroke:none; fill-opacity:0" cx="498.372" cy="225.844" r="2"/>
<circle clip-path="url(#clip382)" style="fill:#808080; stroke:none; fill-opacity:0" cx="970.455" cy="223.601" r="2"/>
<polyline clip-path="url(#clip382)" style="stroke:#000000; stroke-linecap:round; stroke-linejoin:round; stroke-width:4; stroke-opacity:1; fill:none" points="498.372,230.771 498.372,222.799 "/>
<polyline clip-path="url(#clip382)" style="stroke:#000000; stroke-linecap:round; stroke-linejoin:round; stroke-width:4; stroke-opacity:1; fill:none" points="970.455,224.908 970.455,222.445 "/>
<line clip-path="url(#clip382)" x1="514.372" y1="230.771" x2="482.372" y2="230.771" style="stroke:#000000; stroke-width:4; stroke-opacity:1"/>
<line clip-path="url(#clip382)" x1="514.372" y1="222.799" x2="482.372" y2="222.799" style="stroke:#000000; stroke-width:4; stroke-opacity:1"/>
<line clip-path="url(#clip382)" x1="986.455" y1="224.908" x2="954.455" y2="224.908" style="stroke:#000000; stroke-width:4; stroke-opacity:1"/>
<line clip-path="url(#clip382)" x1="986.455" y1="222.445" x2="954.455" y2="222.445" style="stroke:#000000; stroke-width:4; stroke-opacity:1"/>
<path clip-path="url(#clip382)" d="M1466.61 533.092 L1466.61 1212.17 L1797.07 1212.17 L1797.07 533.092 L1466.61 533.092 L1466.61 533.092  Z" fill="#17913e" fill-rule="evenodd" fill-opacity="1"/>
<polyline clip-path="url(#clip382)" style="stroke:#000000; stroke-linecap:round; stroke-linejoin:round; stroke-width:4; stroke-opacity:1; fill:none" points="1466.61,533.092 1466.61,1212.17 1797.07,1212.17 1797.07,533.092 1466.61,533.092 "/>
<path clip-path="url(#clip382)" d="M1938.7 887.553 L1938.7 1212.17 L2269.15 1212.17 L2269.15 887.553 L1938.7 887.553 L1938.7 887.553  Z" fill="#17913e" fill-rule="evenodd" fill-opacity="1"/>
<polyline clip-path="url(#clip382)" style="stroke:#000000; stroke-linecap:round; stroke-linejoin:round; stroke-width:4; stroke-opacity:1; fill:none" points="1938.7,887.553 1938.7,1212.17 2269.15,1212.17 2269.15,887.553 1938.7,887.553 "/>
<circle clip-path="url(#clip382)" style="fill:#17913e; stroke:none; fill-opacity:0" cx="1631.84" cy="533.092" r="2"/>
<circle clip-path="url(#clip382)" style="fill:#17913e; stroke:none; fill-opacity:0" cx="2103.93" cy="887.553" r="2"/>
<polyline clip-path="url(#clip382)" style="stroke:#000000; stroke-linecap:round; stroke-linejoin:round; stroke-width:4; stroke-opacity:1; fill:none" points="1631.84,718.304 1631.84,490.068 "/>
<polyline clip-path="url(#clip382)" style="stroke:#000000; stroke-linecap:round; stroke-linejoin:round; stroke-width:4; stroke-opacity:1; fill:none" points="2103.93,888.996 2103.93,886.477 "/>
<line clip-path="url(#clip382)" x1="1647.84" y1="718.304" x2="1615.84" y2="718.304" style="stroke:#000000; stroke-width:4; stroke-opacity:1"/>
<line clip-path="url(#clip382)" x1="1647.84" y1="490.068" x2="1615.84" y2="490.068" style="stroke:#000000; stroke-width:4; stroke-opacity:1"/>
<line clip-path="url(#clip382)" x1="2119.93" y1="888.996" x2="2087.93" y2="888.996" style="stroke:#000000; stroke-width:4; stroke-opacity:1"/>
<line clip-path="url(#clip382)" x1="2119.93" y1="886.477" x2="2087.93" y2="886.477" style="stroke:#000000; stroke-width:4; stroke-opacity:1"/>
<path clip-path="url(#clip380)" d="M1914.83 367.122 L2282.65 367.122 L2282.65 159.762 L1914.83 159.762  Z" fill="#ffffff" fill-rule="evenodd" fill-opacity="1"/>
<polyline clip-path="url(#clip380)" style="stroke:#000000; stroke-linecap:round; stroke-linejoin:round; stroke-width:4; stroke-opacity:1; fill:none" points="1914.83,367.122 2282.65,367.122 2282.65,159.762 1914.83,159.762 1914.83,367.122 "/>
<path clip-path="url(#clip380)" d="M1938.2 232.338 L2078.41 232.338 L2078.41 190.866 L1938.2 190.866 L1938.2 232.338  Z" fill="#808080" fill-rule="evenodd" fill-opacity="1"/>
<polyline clip-path="url(#clip380)" style="stroke:#000000; stroke-linecap:round; stroke-linejoin:round; stroke-width:4; stroke-opacity:1; fill:none" points="1938.2,232.338 2078.41,232.338 2078.41,190.866 1938.2,190.866 1938.2,232.338 "/>
<path clip-path="url(#clip380)" d="M2129.65 196.984 L2129.65 201.915 Q2127.29 199.716 2124.6 198.628 Q2121.94 197.54 2118.93 197.54 Q2113.01 197.54 2109.86 201.174 Q2106.71 204.785 2106.71 211.637 Q2106.71 218.465 2109.86 222.1 Q2113.01 225.711 2118.93 225.711 Q2121.94 225.711 2124.6 224.623 Q2127.29 223.535 2129.65 221.336 L2129.65 226.22 Q2127.2 227.887 2124.44 228.72 Q2121.71 229.553 2118.66 229.553 Q2110.81 229.553 2106.29 224.762 Q2101.78 219.947 2101.78 211.637 Q2101.78 203.303 2106.29 198.512 Q2110.81 193.697 2118.66 193.697 Q2121.76 193.697 2124.49 194.53 Q2127.24 195.341 2129.65 196.984 Z" fill="#000000" fill-rule="nonzero" fill-opacity="1" /><path clip-path="url(#clip380)" d="M1938.2 284.178 L2078.41 284.178 L2078.41 242.706 L1938.2 242.706 L1938.2 284.178  Z" fill="#17913e" fill-rule="evenodd" fill-opacity="1"/>
<polyline clip-path="url(#clip380)" style="stroke:#000000; stroke-linecap:round; stroke-linejoin:round; stroke-width:4; stroke-opacity:1; fill:none" points="1938.2,284.178 2078.41,284.178 2078.41,242.706 1938.2,242.706 1938.2,284.178 "/>
<path clip-path="url(#clip380)" d="M2107.1 254.796 L2111.36 254.796 L2111.36 281.185 Q2111.36 286.139 2109.47 288.361 Q2107.59 290.583 2103.4 290.583 L2101.78 290.583 L2101.78 286.972 L2102.91 286.972 Q2105.35 286.972 2106.22 285.838 Q2107.1 284.727 2107.1 281.185 L2107.1 254.796 M2107.1 244.704 L2111.36 244.704 L2111.36 250.097 L2107.1 250.097 L2107.1 244.704 Z" fill="#000000" fill-rule="nonzero" fill-opacity="1" /><path clip-path="url(#clip380)" d="M2119.84 270.491 L2119.84 254.796 L2124.1 254.796 L2124.1 270.329 Q2124.1 274.009 2125.53 275.861 Q2126.97 277.69 2129.84 277.69 Q2133.29 277.69 2135.28 275.491 Q2137.29 273.292 2137.29 269.495 L2137.29 254.796 L2141.55 254.796 L2141.55 280.722 L2137.29 280.722 L2137.29 276.741 Q2135.74 279.102 2133.68 280.259 Q2131.64 281.393 2128.93 281.393 Q2124.47 281.393 2122.15 278.616 Q2119.84 275.838 2119.84 270.491 M2130.55 254.171 L2130.55 254.171 Z" fill="#000000" fill-rule="nonzero" fill-opacity="1" /><path clip-path="url(#clip380)" d="M2150.32 244.704 L2154.58 244.704 L2154.58 280.722 L2150.32 280.722 L2150.32 244.704 Z" fill="#000000" fill-rule="nonzero" fill-opacity="1" /><path clip-path="url(#clip380)" d="M2163.49 254.796 L2167.75 254.796 L2167.75 280.722 L2163.49 280.722 L2163.49 254.796 M2163.49 244.704 L2167.75 244.704 L2167.75 250.097 L2163.49 250.097 L2163.49 244.704 Z" fill="#000000" fill-rule="nonzero" fill-opacity="1" /><path clip-path="url(#clip380)" d="M2188.45 267.69 Q2183.28 267.69 2181.29 268.87 Q2179.3 270.051 2179.3 272.898 Q2179.3 275.166 2180.78 276.509 Q2182.29 277.829 2184.86 277.829 Q2188.4 277.829 2190.53 275.329 Q2192.68 272.805 2192.68 268.639 L2192.68 267.69 L2188.45 267.69 M2196.94 265.93 L2196.94 280.722 L2192.68 280.722 L2192.68 276.787 Q2191.22 279.148 2189.05 280.282 Q2186.87 281.393 2183.72 281.393 Q2179.74 281.393 2177.38 279.171 Q2175.04 276.926 2175.04 273.176 Q2175.04 268.801 2177.96 266.579 Q2180.9 264.356 2186.71 264.356 L2192.68 264.356 L2192.68 263.94 Q2192.68 261 2190.74 259.403 Q2188.82 257.782 2185.32 257.782 Q2183.1 257.782 2180.99 258.315 Q2178.89 258.847 2176.94 259.912 L2176.94 255.977 Q2179.28 255.074 2181.48 254.634 Q2183.68 254.171 2185.76 254.171 Q2191.39 254.171 2194.16 257.088 Q2196.94 260.005 2196.94 265.93 Z" fill="#000000" fill-rule="nonzero" fill-opacity="1" /><path clip-path="url(#clip380)" d="M1938.2 336.018 L2078.41 336.018 L2078.41 294.546 L1938.2 294.546 L1938.2 336.018  Z" fill="#3065a6" fill-rule="evenodd" fill-opacity="1"/>
<polyline clip-path="url(#clip380)" style="stroke:#000000; stroke-linecap:round; stroke-linejoin:round; stroke-width:4; stroke-opacity:1; fill:none" points="1938.2,336.018 2078.41,336.018 2078.41,294.546 1938.2,294.546 1938.2,336.018 "/>
<path clip-path="url(#clip380)" d="M2106.06 328.673 L2106.06 342.423 L2101.78 342.423 L2101.78 306.636 L2106.06 306.636 L2106.06 310.571 Q2107.41 308.257 2109.44 307.145 Q2111.5 306.011 2114.35 306.011 Q2119.07 306.011 2122.01 309.761 Q2124.97 313.511 2124.97 319.622 Q2124.97 325.733 2122.01 329.483 Q2119.07 333.233 2114.35 333.233 Q2111.5 333.233 2109.44 332.122 Q2107.41 330.988 2106.06 328.673 M2120.55 319.622 Q2120.55 314.923 2118.61 312.261 Q2116.69 309.576 2113.31 309.576 Q2109.93 309.576 2107.98 312.261 Q2106.06 314.923 2106.06 319.622 Q2106.06 324.321 2107.98 327.006 Q2109.93 329.669 2113.31 329.669 Q2116.69 329.669 2118.61 327.006 Q2120.55 324.321 2120.55 319.622 Z" fill="#000000" fill-rule="nonzero" fill-opacity="1" /><path clip-path="url(#clip380)" d="M2142.82 334.969 Q2141.02 339.599 2139.3 341.011 Q2137.59 342.423 2134.72 342.423 L2131.32 342.423 L2131.32 338.858 L2133.82 338.858 Q2135.58 338.858 2136.55 338.025 Q2137.52 337.192 2138.7 334.09 L2139.47 332.145 L2128.98 306.636 L2133.49 306.636 L2141.6 326.914 L2149.7 306.636 L2154.21 306.636 L2142.82 334.969 Z" fill="#000000" fill-rule="nonzero" fill-opacity="1" /><path clip-path="url(#clip380)" d="M2164.3 299.275 L2164.3 306.636 L2173.08 306.636 L2173.08 309.946 L2164.3 309.946 L2164.3 324.02 Q2164.3 327.192 2165.16 328.094 Q2166.04 328.997 2168.7 328.997 L2173.08 328.997 L2173.08 332.562 L2168.7 332.562 Q2163.77 332.562 2161.9 330.733 Q2160.02 328.881 2160.02 324.02 L2160.02 309.946 L2156.9 309.946 L2156.9 306.636 L2160.02 306.636 L2160.02 299.275 L2164.3 299.275 Z" fill="#000000" fill-rule="nonzero" fill-opacity="1" /><path clip-path="url(#clip380)" d="M2200.23 316.914 L2200.23 332.562 L2195.97 332.562 L2195.97 317.053 Q2195.97 313.372 2194.53 311.544 Q2193.1 309.715 2190.23 309.715 Q2186.78 309.715 2184.79 311.914 Q2182.8 314.113 2182.8 317.909 L2182.8 332.562 L2178.52 332.562 L2178.52 296.544 L2182.8 296.544 L2182.8 310.664 Q2184.33 308.326 2186.39 307.169 Q2188.47 306.011 2191.18 306.011 Q2195.65 306.011 2197.94 308.789 Q2200.23 311.544 2200.23 316.914 Z" fill="#000000" fill-rule="nonzero" fill-opacity="1" /><path clip-path="url(#clip380)" d="M2218.77 309.622 Q2215.34 309.622 2213.35 312.307 Q2211.36 314.97 2211.36 319.622 Q2211.36 324.275 2213.33 326.96 Q2215.32 329.622 2218.77 329.622 Q2222.17 329.622 2224.16 326.937 Q2226.15 324.252 2226.15 319.622 Q2226.15 315.016 2224.16 312.331 Q2222.17 309.622 2218.77 309.622 M2218.77 306.011 Q2224.33 306.011 2227.5 309.622 Q2230.67 313.233 2230.67 319.622 Q2230.67 325.988 2227.5 329.622 Q2224.33 333.233 2218.77 333.233 Q2213.19 333.233 2210.02 329.622 Q2206.87 325.988 2206.87 319.622 Q2206.87 313.233 2210.02 309.622 Q2213.19 306.011 2218.77 306.011 Z" fill="#000000" fill-rule="nonzero" fill-opacity="1" /><path clip-path="url(#clip380)" d="M2259.28 316.914 L2259.28 332.562 L2255.02 332.562 L2255.02 317.053 Q2255.02 313.372 2253.59 311.544 Q2252.15 309.715 2249.28 309.715 Q2245.83 309.715 2243.84 311.914 Q2241.85 314.113 2241.85 317.909 L2241.85 332.562 L2237.57 332.562 L2237.57 306.636 L2241.85 306.636 L2241.85 310.664 Q2243.38 308.326 2245.44 307.169 Q2247.52 306.011 2250.23 306.011 Q2254.7 306.011 2256.99 308.789 Q2259.28 311.544 2259.28 316.914 Z" fill="#000000" fill-rule="nonzero" fill-opacity="1" /></svg>
