<?xml version="1.0" encoding="utf-8"?>
<svg xmlns="http://www.w3.org/2000/svg" xmlns:xlink="http://www.w3.org/1999/xlink" width="600" height="400" viewBox="0 0 2400 1600">
<defs>
  <clipPath id="clip340">
    <rect x="0" y="0" width="2400" height="1600"/>
  </clipPath>
</defs>
<path clip-path="url(#clip340)" d="M0 1600 L2400 1600 L2400 0 L0 0  Z" fill="#ffffff" fill-rule="evenodd" fill-opacity="1"/>
<defs>
  <clipPath id="clip341">
    <rect x="480" y="0" width="1681" height="1600"/>
  </clipPath>
</defs>
<path clip-path="url(#clip340)" d="M219.38 1282.36 L2352.76 1282.36 L2352.76 123.472 L219.38 123.472  Z" fill="#ffffff" fill-rule="evenodd" fill-opacity="1"/>
<defs>
  <clipPath id="clip342">
    <rect x="219" y="123" width="2134" height="1160"/>
  </clipPath>
</defs>
<polyline clip-path="url(#clip342)" style="stroke:#000000; stroke-linecap:round; stroke-linejoin:round; stroke-width:2; stroke-opacity:0.1; fill:none" points="457.369,1282.36 457.369,123.472 "/>
<polyline clip-path="url(#clip342)" style="stroke:#000000; stroke-linecap:round; stroke-linejoin:round; stroke-width:2; stroke-opacity:0.1; fill:none" points="900.287,1282.36 900.287,123.472 "/>
<polyline clip-path="url(#clip342)" style="stroke:#000000; stroke-linecap:round; stroke-linejoin:round; stroke-width:2; stroke-opacity:0.1; fill:none" points="1520.81,1282.36 1520.81,123.472 "/>
<polyline clip-path="url(#clip342)" style="stroke:#000000; stroke-linecap:round; stroke-linejoin:round; stroke-width:2; stroke-opacity:0.1; fill:none" points="2128.05,1282.36 2128.05,123.472 "/>
<polyline clip-path="url(#clip340)" style="stroke:#000000; stroke-linecap:round; stroke-linejoin:round; stroke-width:4; stroke-opacity:1; fill:none" points="219.38,1282.36 2352.76,1282.36 "/>
<polyline clip-path="url(#clip340)" style="stroke:#000000; stroke-linecap:round; stroke-linejoin:round; stroke-width:4; stroke-opacity:1; fill:none" points="457.369,1282.36 457.369,1263.46 "/>
<polyline clip-path="url(#clip340)" style="stroke:#000000; stroke-linecap:round; stroke-linejoin:round; stroke-width:4; stroke-opacity:1; fill:none" points="900.287,1282.36 900.287,1263.46 "/>
<polyline clip-path="url(#clip340)" style="stroke:#000000; stroke-linecap:round; stroke-linejoin:round; stroke-width:4; stroke-opacity:1; fill:none" points="1520.81,1282.36 1520.81,1263.46 "/>
<polyline clip-path="url(#clip340)" style="stroke:#000000; stroke-linecap:round; stroke-linejoin:round; stroke-width:4; stroke-opacity:1; fill:none" points="2128.05,1282.36 2128.05,1263.46 "/>
<path clip-path="url(#clip340)" d="M247.456 1532.1 L258.521 1543.17 L255.509 1546.18 L244.542 1535.21 Q241.94 1532.61 239.632 1532.33 Q237.324 1532.06 235.294 1534.09 Q232.855 1536.52 233.003 1539.49 Q233.15 1542.45 235.834 1545.13 L246.195 1555.49 L243.167 1558.52 L224.835 1540.19 L227.863 1537.16 L230.711 1540.01 Q230.138 1537.28 230.777 1535 Q231.431 1532.71 233.346 1530.8 Q236.505 1527.64 240.09 1527.98 Q243.658 1528.31 247.456 1532.1 Z" fill="#000000" fill-rule="nonzero" fill-opacity="1" /><path clip-path="url(#clip340)" d="M263.644 1519.62 Q259.994 1523.27 259.421 1525.51 Q258.848 1527.75 260.861 1529.76 Q262.465 1531.37 264.462 1531.27 Q266.459 1531.14 268.276 1529.32 Q270.78 1526.82 270.518 1523.54 Q270.257 1520.24 267.31 1517.29 L266.639 1516.62 L263.644 1519.62 M268.407 1512.36 L278.866 1522.82 L275.854 1525.84 L273.072 1523.05 Q273.71 1525.75 272.974 1528.09 Q272.221 1530.42 269.995 1532.64 Q267.179 1535.46 263.938 1535.56 Q260.698 1535.62 258.046 1532.97 Q254.952 1529.88 255.443 1526.24 Q255.951 1522.59 260.059 1518.49 L264.282 1514.26 L263.988 1513.97 Q261.909 1511.89 259.404 1512.14 Q256.9 1512.35 254.429 1514.82 Q252.857 1516.39 251.744 1518.26 Q250.631 1520.12 250.009 1522.25 L247.227 1519.47 Q248.241 1517.18 249.485 1515.31 Q250.713 1513.43 252.186 1511.96 Q256.164 1507.98 260.19 1508.08 Q264.217 1508.17 268.407 1512.36 Z" fill="#000000" fill-rule="nonzero" fill-opacity="1" /><path clip-path="url(#clip340)" d="M266.737 1498.29 L269.749 1495.28 L288.081 1513.61 L285.07 1516.62 L266.737 1498.29 M259.601 1491.15 L262.613 1488.14 L266.426 1491.95 L263.415 1494.97 L259.601 1491.15 Z" fill="#000000" fill-rule="nonzero" fill-opacity="1" /><path clip-path="url(#clip340)" d="M273.89 1491.14 L277.082 1487.94 L298.197 1497.6 L288.54 1476.49 L291.732 1473.29 L303.189 1498.5 L299.097 1502.59 L273.89 1491.14 Z" fill="#000000" fill-rule="nonzero" fill-opacity="1" /><path clip-path="url(#clip340)" d="M319.983 1461.87 L321.456 1463.34 L307.609 1477.19 Q310.915 1480.1 314.221 1480.07 Q317.528 1480 320.523 1477.01 Q322.258 1475.27 323.453 1473.23 Q324.664 1471.17 325.417 1468.71 L328.265 1471.56 Q327.332 1473.87 325.99 1475.93 Q324.648 1477.99 322.896 1479.74 Q318.51 1484.13 313.387 1484.15 Q308.28 1484.15 303.926 1479.79 Q299.425 1475.29 299.212 1470.23 Q298.999 1465.14 303.124 1461.02 Q306.823 1457.32 311.357 1457.56 Q315.891 1457.78 319.983 1461.87 M316.087 1464 Q313.583 1461.56 310.751 1461.44 Q307.936 1461.31 305.71 1463.54 Q303.189 1466.06 303.091 1469.01 Q303.009 1471.94 305.366 1474.75 L316.087 1464 Z" fill="#000000" fill-rule="nonzero" fill-opacity="1" /><path clip-path="url(#clip340)" d="M354.34 1458.48 L356.68 1460.82 L339.265 1478.24 L336.924 1475.9 L354.34 1458.48 Z" fill="#000000" fill-rule="nonzero" fill-opacity="1" /><path clip-path="url(#clip340)" d="M354.291 1428.64 Q351.017 1425.37 347.858 1424.93 Q344.715 1424.47 342.276 1426.91 Q339.854 1429.33 340.296 1432.49 Q340.754 1435.63 344.028 1438.9 Q347.285 1442.16 350.428 1442.62 Q353.587 1443.06 356.009 1440.64 Q358.448 1438.2 357.99 1435.06 Q357.548 1431.9 354.291 1428.64 M364.406 1432.73 Q369.087 1437.41 369.284 1441.77 Q369.496 1446.14 365.208 1450.43 Q363.62 1452.02 361.967 1453.18 Q360.33 1454.36 358.513 1455.19 L355.584 1452.26 Q357.63 1451.66 359.266 1450.71 Q360.903 1449.76 362.245 1448.41 Q365.208 1445.45 365.126 1442.42 Q365.061 1439.41 361.934 1436.29 L360.445 1434.8 Q361.132 1437.35 360.478 1439.61 Q359.823 1441.87 357.793 1443.9 Q354.421 1447.27 349.789 1446.76 Q345.157 1446.25 340.918 1442.01 Q336.662 1437.76 336.155 1433.13 Q335.647 1428.49 339.019 1425.12 Q341.049 1423.09 343.307 1422.44 Q345.566 1421.78 348.12 1422.47 L345.337 1419.69 L348.349 1416.68 L364.406 1432.73 Z" fill="#000000" fill-rule="nonzero" fill-opacity="1" /><path clip-path="url(#clip340)" d="M373.048 1423.14 L382.771 1432.86 L379.743 1435.89 L354.438 1410.59 L357.466 1407.56 L360.248 1410.34 Q359.561 1407.76 360.216 1405.53 Q360.87 1403.27 362.884 1401.26 Q366.223 1397.92 370.953 1398.49 Q375.7 1399.05 380.021 1403.37 Q384.342 1407.69 384.899 1412.44 Q385.472 1417.17 382.133 1420.51 Q380.119 1422.52 377.877 1423.19 Q375.635 1423.83 373.048 1423.14 M376.895 1406.5 Q373.572 1403.17 370.315 1402.67 Q367.058 1402.13 364.668 1404.51 Q362.278 1406.9 362.802 1410.18 Q363.326 1413.42 366.648 1416.74 Q369.971 1420.06 373.228 1420.6 Q376.486 1421.11 378.875 1418.72 Q381.265 1416.33 380.741 1413.09 Q380.218 1409.82 376.895 1406.5 Z" fill="#000000" fill-rule="nonzero" fill-opacity="1" /><path clip-path="url(#clip340)" d="M386.618 1400.6 L375.52 1389.51 L378.532 1386.49 L389.515 1397.48 Q392.117 1400.08 394.442 1400.37 Q396.749 1400.65 398.779 1398.62 Q401.218 1396.18 401.071 1393.22 Q400.94 1390.24 398.255 1387.56 L387.862 1377.16 L390.873 1374.15 L409.206 1392.48 L406.194 1395.5 L403.379 1392.68 Q403.951 1395.45 403.313 1397.72 Q402.675 1399.96 400.76 1401.88 Q397.601 1405.04 394 1404.71 Q390.399 1404.38 386.618 1400.6 M382.656 1381.49 L382.656 1381.49 Z" fill="#000000" fill-rule="nonzero" fill-opacity="1" /><path clip-path="url(#clip340)" d="M407.863 1342.95 Q409.435 1348.91 412.054 1353.66 Q414.673 1358.41 418.454 1362.19 Q422.235 1365.97 427.014 1368.62 Q431.794 1371.24 437.719 1372.81 L435.1 1375.43 Q428.798 1374.04 423.855 1371.55 Q418.928 1369.05 415.262 1365.38 Q411.612 1361.73 409.124 1356.82 Q406.636 1351.91 405.244 1345.57 L407.863 1342.95 Z" fill="#000000" fill-rule="nonzero" fill-opacity="1" /><path clip-path="url(#clip340)" d="M435.018 1321.56 L438.505 1325.05 Q435.28 1325.16 432.612 1326.29 Q429.96 1327.4 427.832 1329.53 Q423.642 1333.72 423.986 1338.52 Q424.313 1343.3 429.158 1348.14 Q433.987 1352.97 438.783 1353.32 Q443.562 1353.64 447.752 1349.45 Q449.88 1347.32 450.993 1344.67 Q452.123 1342.01 452.237 1338.78 L455.691 1342.23 Q455.135 1345.15 453.776 1347.68 Q452.434 1350.21 450.273 1352.37 Q444.724 1357.91 438.144 1357.72 Q431.548 1357.51 425.672 1351.63 Q419.779 1345.74 419.583 1339.16 Q419.37 1332.56 424.919 1327.01 Q427.112 1324.82 429.633 1323.48 Q432.154 1322.1 435.018 1321.56 Z" fill="#000000" fill-rule="nonzero" fill-opacity="1" /><path clip-path="url(#clip340)" d="M436.639 1314.18 L439.257 1311.56 Q445.576 1312.97 450.486 1315.46 Q455.413 1317.93 459.063 1321.58 Q462.729 1325.24 465.217 1330.19 Q467.722 1335.11 469.113 1341.42 L466.494 1344.03 Q464.923 1338.11 462.287 1333.35 Q459.652 1328.55 455.871 1324.77 Q452.09 1320.99 447.327 1318.39 Q442.58 1315.77 436.639 1314.18 Z" fill="#000000" fill-rule="nonzero" fill-opacity="1" /><path clip-path="url(#clip340)" d="M795.702 1413.65 L798.518 1416.46 Q796.537 1417.04 794.9 1417.99 Q793.264 1418.9 791.954 1420.21 Q789.024 1423.14 789.27 1426.63 Q789.499 1430.1 792.854 1433.45 Q796.21 1436.81 799.696 1437.05 Q803.166 1437.28 806.096 1434.35 Q807.406 1433.04 808.339 1431.42 Q809.272 1429.77 809.845 1427.79 L812.627 1430.57 Q811.956 1432.42 810.892 1434.08 Q809.845 1435.71 808.322 1437.23 Q804.181 1441.38 799.14 1441.21 Q794.098 1441.05 789.679 1436.63 Q785.194 1432.14 785.08 1427.12 Q784.981 1422.08 789.27 1417.79 Q790.661 1416.4 792.282 1415.37 Q793.886 1414.32 795.702 1413.65 Z" fill="#000000" fill-rule="nonzero" fill-opacity="1" /><path clip-path="url(#clip340)" d="M814.133 1395.22 L816.948 1398.03 Q814.968 1398.61 813.331 1399.56 Q811.694 1400.47 810.385 1401.78 Q807.455 1404.71 807.7 1408.2 Q807.929 1411.67 811.285 1415.02 Q814.64 1418.38 818.127 1418.62 Q821.597 1418.85 824.527 1415.92 Q825.836 1414.61 826.769 1412.99 Q827.702 1411.34 828.275 1409.36 L831.058 1412.14 Q830.387 1413.99 829.323 1415.65 Q828.275 1417.28 826.753 1418.8 Q822.612 1422.95 817.57 1422.78 Q812.529 1422.62 808.11 1418.2 Q803.625 1413.71 803.51 1408.69 Q803.412 1403.65 807.7 1399.36 Q809.092 1397.97 810.712 1396.94 Q812.316 1395.89 814.133 1395.22 Z" fill="#000000" fill-rule="nonzero" fill-opacity="1" /><path clip-path="url(#clip340)" d="M813.02 1382.71 L826 1369.73 L828.782 1372.52 L818.831 1382.47 L824.821 1388.46 Q825.296 1387.49 825.902 1386.66 Q826.491 1385.81 827.211 1385.09 Q831.303 1380.99 835.935 1380.85 Q840.567 1380.7 844.398 1384.53 Q848.342 1388.47 848.08 1393.12 Q847.802 1397.75 843.334 1402.22 Q841.795 1403.76 839.929 1405.1 Q838.08 1406.43 835.853 1407.61 L832.531 1404.29 Q834.806 1403.61 836.77 1402.44 Q838.734 1401.26 840.486 1399.51 Q843.317 1396.67 843.481 1393.53 Q843.645 1390.39 841.091 1387.84 Q838.538 1385.28 835.395 1385.45 Q832.252 1385.61 829.421 1388.44 Q828.095 1389.77 827.064 1391.39 Q826.049 1392.99 825.296 1394.99 L813.02 1382.71 Z" fill="#000000" fill-rule="nonzero" fill-opacity="1" /><path clip-path="url(#clip340)" d="M850.781 1342.95 Q852.353 1348.91 854.971 1353.66 Q857.59 1358.41 861.371 1362.19 Q865.152 1365.97 869.932 1368.62 Q874.711 1371.24 880.637 1372.81 L878.018 1375.43 Q871.716 1374.04 866.773 1371.55 Q861.846 1369.05 858.18 1365.38 Q854.53 1361.73 852.042 1356.82 Q849.554 1351.91 848.162 1345.57 L850.781 1342.95 Z" fill="#000000" fill-rule="nonzero" fill-opacity="1" /><path clip-path="url(#clip340)" d="M877.936 1321.56 L881.422 1325.05 Q878.198 1325.16 875.53 1326.29 Q872.878 1327.4 870.75 1329.53 Q866.56 1333.72 866.904 1338.52 Q867.231 1343.3 872.076 1348.14 Q876.905 1352.97 881.701 1353.32 Q886.48 1353.64 890.67 1349.45 Q892.798 1347.32 893.911 1344.67 Q895.041 1342.01 895.155 1338.78 L898.609 1342.23 Q898.052 1345.15 896.694 1347.68 Q895.352 1350.21 893.191 1352.37 Q887.642 1357.91 881.062 1357.72 Q874.466 1357.51 868.59 1351.63 Q862.697 1345.74 862.501 1339.16 Q862.288 1332.56 867.837 1327.01 Q870.03 1324.82 872.551 1323.48 Q875.072 1322.1 877.936 1321.56 Z" fill="#000000" fill-rule="nonzero" fill-opacity="1" /><path clip-path="url(#clip340)" d="M879.556 1314.18 L882.175 1311.56 Q888.493 1312.97 893.404 1315.46 Q898.331 1317.93 901.981 1321.58 Q905.647 1325.24 908.135 1330.19 Q910.639 1335.11 912.031 1341.42 L909.412 1344.03 Q907.84 1338.11 905.205 1333.35 Q902.57 1328.55 898.789 1324.77 Q895.008 1320.99 890.245 1318.39 Q885.498 1315.77 879.556 1314.18 Z" fill="#000000" fill-rule="nonzero" fill-opacity="1" /><path clip-path="url(#clip340)" d="M1324.42 1518.58 L1335.49 1529.65 L1332.47 1532.66 L1321.51 1521.69 Q1318.91 1519.09 1316.6 1518.81 Q1314.29 1518.54 1312.26 1520.56 Q1309.82 1523 1309.97 1525.97 Q1310.12 1528.93 1312.8 1531.61 L1323.16 1541.97 L1320.13 1545 L1301.8 1526.67 L1304.83 1523.64 L1307.68 1526.49 Q1307.1 1523.76 1307.74 1521.48 Q1308.4 1519.19 1310.31 1517.27 Q1313.47 1514.12 1317.06 1514.46 Q1320.62 1514.79 1324.42 1518.58 Z" fill="#000000" fill-rule="nonzero" fill-opacity="1" /><path clip-path="url(#clip340)" d="M1340.61 1506.1 Q1336.96 1509.75 1336.39 1511.99 Q1335.81 1514.23 1337.83 1516.24 Q1339.43 1517.85 1341.43 1517.75 Q1343.42 1517.62 1345.24 1515.8 Q1347.75 1513.3 1347.48 1510.02 Q1347.22 1506.72 1344.28 1503.77 L1343.6 1503.1 L1340.61 1506.1 M1345.37 1498.84 L1355.83 1509.3 L1352.82 1512.32 L1350.04 1509.53 Q1350.68 1512.23 1349.94 1514.57 Q1349.19 1516.9 1346.96 1519.12 Q1344.15 1521.94 1340.9 1522.04 Q1337.66 1522.1 1335.01 1519.45 Q1331.92 1516.36 1332.41 1512.72 Q1332.92 1509.07 1337.02 1504.97 L1341.25 1500.74 L1340.95 1500.45 Q1338.87 1498.37 1336.37 1498.62 Q1333.87 1498.83 1331.39 1501.3 Q1329.82 1502.87 1328.71 1504.74 Q1327.6 1506.6 1326.97 1508.73 L1324.19 1505.95 Q1325.21 1503.66 1326.45 1501.79 Q1327.68 1499.91 1329.15 1498.44 Q1333.13 1494.46 1337.16 1494.56 Q1341.18 1494.65 1345.37 1498.84 Z" fill="#000000" fill-rule="nonzero" fill-opacity="1" /><path clip-path="url(#clip340)" d="M1343.7 1484.77 L1346.71 1481.76 L1365.05 1500.09 L1362.04 1503.1 L1343.7 1484.77 M1336.57 1477.63 L1339.58 1474.62 L1343.39 1478.43 L1340.38 1481.45 L1336.57 1477.63 Z" fill="#000000" fill-rule="nonzero" fill-opacity="1" /><path clip-path="url(#clip340)" d="M1350.86 1477.62 L1354.05 1474.42 L1375.16 1484.08 L1365.51 1462.97 L1368.7 1459.77 L1380.16 1484.98 L1376.06 1489.07 L1350.86 1477.62 Z" fill="#000000" fill-rule="nonzero" fill-opacity="1" /><path clip-path="url(#clip340)" d="M1396.95 1448.35 L1398.42 1449.82 L1384.57 1463.67 Q1387.88 1466.58 1391.19 1466.55 Q1394.49 1466.48 1397.49 1463.49 Q1399.22 1461.75 1400.42 1459.71 Q1401.63 1457.65 1402.38 1455.19 L1405.23 1458.04 Q1404.3 1460.35 1402.96 1462.41 Q1401.61 1464.47 1399.86 1466.22 Q1395.48 1470.61 1390.35 1470.63 Q1385.25 1470.63 1380.89 1466.27 Q1376.39 1461.77 1376.18 1456.71 Q1375.96 1451.62 1380.09 1447.5 Q1383.79 1443.8 1388.32 1444.04 Q1392.86 1444.26 1396.95 1448.35 M1393.05 1450.48 Q1390.55 1448.04 1387.72 1447.92 Q1384.9 1447.79 1382.68 1450.02 Q1380.16 1452.54 1380.06 1455.49 Q1379.97 1458.42 1382.33 1461.23 L1393.05 1450.48 Z" fill="#000000" fill-rule="nonzero" fill-opacity="1" /><path clip-path="url(#clip340)" d="M1431.31 1444.96 L1433.65 1447.3 L1416.23 1464.72 L1413.89 1462.38 L1431.31 1444.96 Z" fill="#000000" fill-rule="nonzero" fill-opacity="1" /><path clip-path="url(#clip340)" d="M1431.26 1415.12 Q1427.98 1411.85 1424.82 1411.41 Q1421.68 1410.95 1419.24 1413.39 Q1416.82 1415.81 1417.26 1418.97 Q1417.72 1422.11 1420.99 1425.38 Q1424.25 1428.64 1427.39 1429.1 Q1430.55 1429.54 1432.97 1427.12 Q1435.41 1424.68 1434.96 1421.54 Q1434.51 1418.38 1431.26 1415.12 M1441.37 1419.21 Q1446.05 1423.89 1446.25 1428.25 Q1446.46 1432.62 1442.17 1436.91 Q1440.59 1438.5 1438.93 1439.66 Q1437.3 1440.84 1435.48 1441.67 L1432.55 1438.74 Q1434.6 1438.14 1436.23 1437.19 Q1437.87 1436.24 1439.21 1434.89 Q1442.17 1431.93 1442.09 1428.9 Q1442.03 1425.89 1438.9 1422.77 L1437.41 1421.28 Q1438.1 1423.83 1437.44 1426.09 Q1436.79 1428.35 1434.76 1430.38 Q1431.39 1433.75 1426.76 1433.24 Q1422.12 1432.73 1417.88 1428.49 Q1413.63 1424.24 1413.12 1419.61 Q1412.61 1414.97 1415.98 1411.6 Q1418.01 1409.57 1420.27 1408.92 Q1422.53 1408.26 1425.09 1408.95 L1422.3 1406.17 L1425.31 1403.16 L1441.37 1419.21 Z" fill="#000000" fill-rule="nonzero" fill-opacity="1" /><path clip-path="url(#clip340)" d="M1450.01 1409.62 L1459.74 1419.34 L1456.71 1422.37 L1431.4 1397.07 L1434.43 1394.04 L1437.21 1396.82 Q1436.53 1394.24 1437.18 1392.01 Q1437.84 1389.75 1439.85 1387.74 Q1443.19 1384.4 1447.92 1384.97 Q1452.67 1385.53 1456.99 1389.85 Q1461.31 1394.17 1461.86 1398.92 Q1462.44 1403.65 1459.1 1406.99 Q1457.09 1409 1454.84 1409.67 Q1452.6 1410.31 1450.01 1409.62 M1453.86 1392.98 Q1450.54 1389.65 1447.28 1389.15 Q1444.02 1388.61 1441.63 1390.99 Q1439.24 1393.38 1439.77 1396.66 Q1440.29 1399.9 1443.61 1403.22 Q1446.94 1406.54 1450.19 1407.08 Q1453.45 1407.59 1455.84 1405.2 Q1458.23 1402.81 1457.71 1399.57 Q1457.18 1396.3 1453.86 1392.98 Z" fill="#000000" fill-rule="nonzero" fill-opacity="1" /><path clip-path="url(#clip340)" d="M1463.58 1387.08 L1452.49 1375.99 L1455.5 1372.97 L1466.48 1383.96 Q1469.08 1386.56 1471.41 1386.85 Q1473.72 1387.13 1475.74 1385.1 Q1478.18 1382.66 1478.04 1379.7 Q1477.91 1376.72 1475.22 1374.04 L1464.83 1363.64 L1467.84 1360.63 L1486.17 1378.96 L1483.16 1381.98 L1480.34 1379.16 Q1480.92 1381.93 1480.28 1384.2 Q1479.64 1386.44 1477.73 1388.36 Q1474.57 1391.52 1470.97 1391.19 Q1467.36 1390.86 1463.58 1387.08 M1459.62 1367.96 L1459.62 1367.96 Z" fill="#000000" fill-rule="nonzero" fill-opacity="1" /><path clip-path="url(#clip340)" d="M1484.83 1329.43 Q1486.4 1335.39 1489.02 1340.14 Q1491.64 1344.89 1495.42 1348.67 Q1499.2 1352.45 1503.98 1355.1 Q1508.76 1357.72 1514.68 1359.29 L1512.07 1361.91 Q1505.76 1360.52 1500.82 1358.03 Q1495.89 1355.53 1492.23 1351.86 Q1488.58 1348.21 1486.09 1343.3 Q1483.6 1338.39 1482.21 1332.05 L1484.83 1329.43 Z" fill="#000000" fill-rule="nonzero" fill-opacity="1" /><path clip-path="url(#clip340)" d="M1491.8 1324.46 L1495.11 1321.15 L1517.84 1343.89 Q1522.26 1348.31 1522.57 1351.99 Q1522.9 1355.66 1519.19 1359.37 L1517.93 1360.63 L1515.14 1357.85 L1516.17 1356.82 Q1518.37 1354.62 1518.04 1352.5 Q1517.71 1350.37 1514.54 1347.19 L1491.8 1324.46 Z" fill="#000000" fill-rule="nonzero" fill-opacity="1" /><path clip-path="url(#clip340)" d="M1500.08 1314.18 L1502.7 1311.56 Q1509.02 1312.97 1513.93 1315.46 Q1518.86 1317.93 1522.51 1321.58 Q1526.18 1325.24 1528.66 1330.19 Q1531.17 1335.11 1532.56 1341.42 L1529.94 1344.03 Q1528.37 1338.11 1525.73 1333.35 Q1523.1 1328.55 1519.32 1324.77 Q1515.54 1320.99 1510.77 1318.39 Q1506.03 1315.77 1500.08 1314.18 Z" fill="#000000" fill-rule="nonzero" fill-opacity="1" /><path clip-path="url(#clip340)" d="M2004.06 1433.06 L2006.87 1435.88 Q2004.89 1436.45 2003.26 1437.4 Q2001.62 1438.32 2000.31 1439.62 Q1997.38 1442.55 1997.63 1446.04 Q1997.85 1449.51 2001.21 1452.87 Q2004.57 1456.22 2008.05 1456.47 Q2011.52 1456.7 2014.45 1453.77 Q2015.76 1452.46 2016.69 1450.84 Q2017.63 1449.18 2018.2 1447.2 L2020.98 1449.99 Q2020.31 1451.84 2019.25 1453.49 Q2018.2 1455.13 2016.68 1456.65 Q2012.54 1460.79 2007.5 1460.62 Q2002.45 1460.46 1998.03 1456.04 Q1993.55 1451.56 1993.44 1446.53 Q1993.34 1441.49 1997.63 1437.2 Q1999.02 1435.81 2000.64 1434.78 Q2002.24 1433.73 2004.06 1433.06 Z" fill="#000000" fill-rule="nonzero" fill-opacity="1" /><path clip-path="url(#clip340)" d="M2019.38 1438.53 L2008.28 1427.43 L2011.29 1424.42 L2022.28 1435.4 Q2024.88 1438 2027.2 1438.3 Q2029.51 1438.58 2031.54 1436.55 Q2033.98 1434.11 2033.83 1431.15 Q2033.7 1428.17 2031.02 1425.48 L2020.62 1415.09 L2023.63 1412.08 L2041.97 1430.41 L2038.95 1433.42 L2036.14 1430.61 Q2036.71 1433.37 2036.07 1435.65 Q2035.44 1437.89 2033.52 1439.8 Q2030.36 1442.96 2026.76 1442.64 Q2023.16 1442.31 2019.38 1438.53 M2015.42 1419.41 L2015.42 1419.41 Z" fill="#000000" fill-rule="nonzero" fill-opacity="1" /><path clip-path="url(#clip340)" d="M2048.33 1418.54 L2058.06 1428.27 L2055.03 1431.29 L2029.72 1405.99 L2032.75 1402.96 L2035.53 1405.74 Q2034.85 1403.16 2035.5 1400.93 Q2036.16 1398.67 2038.17 1396.66 Q2041.51 1393.32 2046.24 1393.89 Q2050.99 1394.45 2055.31 1398.77 Q2059.63 1403.09 2060.18 1407.84 Q2060.76 1412.57 2057.42 1415.91 Q2055.4 1417.92 2053.16 1418.59 Q2050.92 1419.23 2048.33 1418.54 M2052.18 1401.9 Q2048.86 1398.57 2045.6 1398.07 Q2042.34 1397.53 2039.95 1399.92 Q2037.56 1402.31 2038.09 1405.58 Q2038.61 1408.82 2041.93 1412.14 Q2045.26 1415.47 2048.51 1416.01 Q2051.77 1416.51 2054.16 1414.12 Q2056.55 1411.73 2056.03 1408.49 Q2055.5 1405.22 2052.18 1401.9 Z" fill="#000000" fill-rule="nonzero" fill-opacity="1" /><path clip-path="url(#clip340)" d="M2078.78 1397 Q2080.78 1401.55 2080.56 1403.76 Q2080.35 1405.97 2078.32 1408 L2075.91 1410.41 L2073.39 1407.89 L2075.16 1406.12 Q2076.41 1404.88 2076.5 1403.6 Q2076.6 1402.32 2075.24 1399.29 L2074.41 1397.38 L2048.96 1386.76 L2052.15 1383.56 L2072.21 1392.17 L2063.61 1372.11 L2066.8 1368.91 L2078.78 1397 Z" fill="#000000" fill-rule="nonzero" fill-opacity="1" /><path clip-path="url(#clip340)" d="M2081.74 1339.76 Q2083.31 1345.72 2085.93 1350.47 Q2088.55 1355.21 2092.33 1359 Q2096.11 1362.78 2100.89 1365.43 Q2105.67 1368.05 2111.6 1369.62 L2108.98 1372.24 Q2102.68 1370.85 2097.73 1368.36 Q2092.81 1365.85 2089.14 1362.19 Q2085.49 1358.54 2083 1353.63 Q2080.51 1348.72 2079.12 1342.38 L2081.74 1339.76 Z" fill="#000000" fill-rule="nonzero" fill-opacity="1" /><path clip-path="url(#clip340)" d="M2094.74 1334.2 L2103.92 1343.38 L2108.08 1339.22 Q2110.39 1336.91 2110.45 1334.46 Q2110.52 1332 2108.31 1329.79 Q2106.11 1327.6 2103.66 1327.67 Q2101.2 1327.73 2098.9 1330.04 L2094.74 1334.2 M2088.71 1334.79 L2096.18 1327.32 Q2100.29 1323.21 2104.25 1322.99 Q2108.21 1322.72 2111.79 1326.31 Q2115.41 1329.93 2115.15 1333.89 Q2114.9 1337.83 2110.79 1341.94 L2106.64 1346.1 L2116.46 1355.92 L2113.15 1359.22 L2088.71 1334.79 Z" fill="#000000" fill-rule="nonzero" fill-opacity="1" /><path clip-path="url(#clip340)" d="M2107.32 1314.18 L2109.94 1311.56 Q2116.26 1312.97 2121.17 1315.46 Q2126.1 1317.93 2129.75 1321.58 Q2133.42 1325.24 2135.9 1330.19 Q2138.41 1335.11 2139.8 1341.42 L2137.18 1344.03 Q2135.61 1338.11 2132.97 1333.35 Q2130.34 1328.55 2126.56 1324.77 Q2122.78 1320.99 2118.01 1318.39 Q2113.27 1315.77 2107.32 1314.18 Z" fill="#000000" fill-rule="nonzero" fill-opacity="1" /><polyline clip-path="url(#clip342)" style="stroke:#000000; stroke-linecap:round; stroke-linejoin:round; stroke-width:2; stroke-opacity:0.1; fill:none" points="219.38,1282.36 2352.76,1282.36 "/>
<polyline clip-path="url(#clip342)" style="stroke:#000000; stroke-linecap:round; stroke-linejoin:round; stroke-width:2; stroke-opacity:0.1; fill:none" points="219.38,983.458 2352.76,983.458 "/>
<polyline clip-path="url(#clip342)" style="stroke:#000000; stroke-linecap:round; stroke-linejoin:round; stroke-width:2; stroke-opacity:0.1; fill:none" points="219.38,684.561 2352.76,684.561 "/>
<polyline clip-path="url(#clip342)" style="stroke:#000000; stroke-linecap:round; stroke-linejoin:round; stroke-width:2; stroke-opacity:0.1; fill:none" points="219.38,385.665 2352.76,385.665 "/>
<polyline clip-path="url(#clip340)" style="stroke:#000000; stroke-linecap:round; stroke-linejoin:round; stroke-width:4; stroke-opacity:1; fill:none" points="219.38,1282.36 219.38,123.472 "/>
<polyline clip-path="url(#clip340)" style="stroke:#000000; stroke-linecap:round; stroke-linejoin:round; stroke-width:4; stroke-opacity:1; fill:none" points="219.38,1282.36 238.278,1282.36 "/>
<polyline clip-path="url(#clip340)" style="stroke:#000000; stroke-linecap:round; stroke-linejoin:round; stroke-width:4; stroke-opacity:1; fill:none" points="219.38,983.458 238.278,983.458 "/>
<polyline clip-path="url(#clip340)" style="stroke:#000000; stroke-linecap:round; stroke-linejoin:round; stroke-width:4; stroke-opacity:1; fill:none" points="219.38,684.561 238.278,684.561 "/>
<polyline clip-path="url(#clip340)" style="stroke:#000000; stroke-linecap:round; stroke-linejoin:round; stroke-width:4; stroke-opacity:1; fill:none" points="219.38,385.665 238.278,385.665 "/>
<path clip-path="url(#clip340)" d="M126.205 1268.15 Q122.593 1268.15 120.765 1271.72 Q118.959 1275.26 118.959 1282.39 Q118.959 1289.5 120.765 1293.06 Q122.593 1296.6 126.205 1296.6 Q129.839 1296.6 131.644 1293.06 Q133.473 1289.5 133.473 1282.39 Q133.473 1275.26 131.644 1271.72 Q129.839 1268.15 126.205 1268.15 M126.205 1264.45 Q132.015 1264.45 135.07 1269.06 Q138.149 1273.64 138.149 1282.39 Q138.149 1291.12 135.07 1295.72 Q132.015 1300.31 126.205 1300.31 Q120.394 1300.31 117.316 1295.72 Q114.26 1291.12 114.26 1282.39 Q114.26 1273.64 117.316 1269.06 Q120.394 1264.45 126.205 1264.45 Z" fill="#000000" fill-rule="nonzero" fill-opacity="1" /><path clip-path="url(#clip340)" d="M146.366 1293.76 L151.251 1293.76 L151.251 1299.64 L146.366 1299.64 L146.366 1293.76 Z" fill="#000000" fill-rule="nonzero" fill-opacity="1" /><path clip-path="url(#clip340)" d="M171.436 1268.15 Q167.825 1268.15 165.996 1271.72 Q164.19 1275.26 164.19 1282.39 Q164.19 1289.5 165.996 1293.06 Q167.825 1296.6 171.436 1296.6 Q175.07 1296.6 176.876 1293.06 Q178.704 1289.5 178.704 1282.39 Q178.704 1275.26 176.876 1271.72 Q175.07 1268.15 171.436 1268.15 M171.436 1264.45 Q177.246 1264.45 180.301 1269.06 Q183.38 1273.64 183.38 1282.39 Q183.38 1291.12 180.301 1295.72 Q177.246 1300.31 171.436 1300.31 Q165.626 1300.31 162.547 1295.72 Q159.491 1291.12 159.491 1282.39 Q159.491 1273.64 162.547 1269.06 Q165.626 1264.45 171.436 1264.45 Z" fill="#000000" fill-rule="nonzero" fill-opacity="1" /><path clip-path="url(#clip340)" d="M127.2 969.257 Q123.589 969.257 121.76 972.822 Q119.955 976.364 119.955 983.493 Q119.955 990.6 121.76 994.164 Q123.589 997.706 127.2 997.706 Q130.834 997.706 132.64 994.164 Q134.468 990.6 134.468 983.493 Q134.468 976.364 132.64 972.822 Q130.834 969.257 127.2 969.257 M127.2 965.553 Q133.01 965.553 136.066 970.16 Q139.144 974.743 139.144 983.493 Q139.144 992.22 136.066 996.826 Q133.01 1001.41 127.2 1001.41 Q121.39 1001.41 118.311 996.826 Q115.256 992.22 115.256 983.493 Q115.256 974.743 118.311 970.16 Q121.39 965.553 127.2 965.553 Z" fill="#000000" fill-rule="nonzero" fill-opacity="1" /><path clip-path="url(#clip340)" d="M147.362 994.859 L152.246 994.859 L152.246 1000.74 L147.362 1000.74 L147.362 994.859 Z" fill="#000000" fill-rule="nonzero" fill-opacity="1" /><path clip-path="url(#clip340)" d="M162.477 966.178 L180.834 966.178 L180.834 970.114 L166.76 970.114 L166.76 978.586 Q167.778 978.239 168.797 978.077 Q169.815 977.891 170.834 977.891 Q176.621 977.891 180.001 981.063 Q183.38 984.234 183.38 989.651 Q183.38 995.229 179.908 998.331 Q176.436 1001.41 170.116 1001.41 Q167.94 1001.41 165.672 1001.04 Q163.427 1000.67 161.019 999.928 L161.019 995.229 Q163.102 996.363 165.325 996.919 Q167.547 997.475 170.024 997.475 Q174.028 997.475 176.366 995.368 Q178.704 993.262 178.704 989.651 Q178.704 986.039 176.366 983.933 Q174.028 981.826 170.024 981.826 Q168.149 981.826 166.274 982.243 Q164.422 982.66 162.477 983.539 L162.477 966.178 Z" fill="#000000" fill-rule="nonzero" fill-opacity="1" /><path clip-path="url(#clip340)" d="M117.015 697.906 L124.654 697.906 L124.654 671.541 L116.343 673.207 L116.343 668.948 L124.607 667.281 L129.283 667.281 L129.283 697.906 L136.922 697.906 L136.922 701.841 L117.015 701.841 L117.015 697.906 Z" fill="#000000" fill-rule="nonzero" fill-opacity="1" /><path clip-path="url(#clip340)" d="M146.366 695.962 L151.251 695.962 L151.251 701.841 L146.366 701.841 L146.366 695.962 Z" fill="#000000" fill-rule="nonzero" fill-opacity="1" /><path clip-path="url(#clip340)" d="M171.436 670.36 Q167.825 670.36 165.996 673.925 Q164.19 677.467 164.19 684.596 Q164.19 691.703 165.996 695.267 Q167.825 698.809 171.436 698.809 Q175.07 698.809 176.876 695.267 Q178.704 691.703 178.704 684.596 Q178.704 677.467 176.876 673.925 Q175.07 670.36 171.436 670.36 M171.436 666.656 Q177.246 666.656 180.301 671.263 Q183.38 675.846 183.38 684.596 Q183.38 693.323 180.301 697.929 Q177.246 702.513 171.436 702.513 Q165.626 702.513 162.547 697.929 Q159.491 693.323 159.491 684.596 Q159.491 675.846 162.547 671.263 Q165.626 666.656 171.436 666.656 Z" fill="#000000" fill-rule="nonzero" fill-opacity="1" /><path clip-path="url(#clip340)" d="M118.01 399.009 L125.649 399.009 L125.649 372.644 L117.339 374.31 L117.339 370.051 L125.603 368.385 L130.279 368.385 L130.279 399.009 L137.917 399.009 L137.917 402.945 L118.01 402.945 L118.01 399.009 Z" fill="#000000" fill-rule="nonzero" fill-opacity="1" /><path clip-path="url(#clip340)" d="M147.362 397.065 L152.246 397.065 L152.246 402.945 L147.362 402.945 L147.362 397.065 Z" fill="#000000" fill-rule="nonzero" fill-opacity="1" /><path clip-path="url(#clip340)" d="M162.477 368.385 L180.834 368.385 L180.834 372.32 L166.76 372.32 L166.76 380.792 Q167.778 380.445 168.797 380.283 Q169.815 380.097 170.834 380.097 Q176.621 380.097 180.001 383.269 Q183.38 386.44 183.38 391.857 Q183.38 397.435 179.908 400.537 Q176.436 403.616 170.116 403.616 Q167.94 403.616 165.672 403.245 Q163.427 402.875 161.019 402.134 L161.019 397.435 Q163.102 398.57 165.325 399.125 Q167.547 399.681 170.024 399.681 Q174.028 399.681 176.366 397.574 Q178.704 395.468 178.704 391.857 Q178.704 388.246 176.366 386.139 Q174.028 384.033 170.024 384.033 Q168.149 384.033 166.274 384.449 Q164.422 384.866 162.477 385.746 L162.477 368.385 Z" fill="#000000" fill-rule="nonzero" fill-opacity="1" /><path clip-path="url(#clip340)" d="M18.0438 811.911 L24.314 811.911 Q22.5634 815.571 21.704 818.817 Q20.8447 822.064 20.8447 825.088 Q20.8447 830.339 22.8817 833.204 Q24.9187 836.037 28.6745 836.037 Q31.8255 836.037 33.4488 834.159 Q35.0402 832.249 36.0269 826.965 L36.8226 823.082 Q38.1912 815.889 41.6605 812.483 Q45.098 809.046 50.8908 809.046 Q57.7976 809.046 61.3624 813.693 Q64.9272 818.308 64.9272 827.252 Q64.9272 830.626 64.1633 834.445 Q63.3994 838.233 61.9035 842.307 L55.2831 842.307 Q57.4793 838.392 58.5933 834.636 Q59.7073 830.88 59.7073 827.252 Q59.7073 821.746 57.543 818.754 Q55.3786 815.762 51.3682 815.762 Q47.8671 815.762 45.8937 817.926 Q43.9204 820.059 42.9337 824.96 L42.1698 828.875 Q40.7375 836.068 37.682 839.283 Q34.6264 842.498 29.1837 842.498 Q22.8817 842.498 19.2532 838.074 Q15.6248 833.618 15.6248 825.82 Q15.6248 822.478 16.2295 819.008 Q16.8343 815.539 18.0438 811.911 Z" fill="#000000" fill-rule="nonzero" fill-opacity="1" /><path clip-path="url(#clip340)" d="M58.657 793.609 L77.5631 793.609 L77.5631 799.497 L28.3562 799.497 L28.3562 793.609 L33.7671 793.609 Q30.5842 791.763 29.0564 788.962 Q27.4968 786.129 27.4968 782.215 Q27.4968 775.722 32.6531 771.679 Q37.8093 767.605 46.212 767.605 Q54.6147 767.605 59.771 771.679 Q64.9272 775.722 64.9272 782.215 Q64.9272 786.129 63.3994 788.962 Q61.8398 791.763 58.657 793.609 M46.212 773.684 Q39.7508 773.684 36.0905 776.358 Q32.3984 779 32.3984 783.647 Q32.3984 788.294 36.0905 790.967 Q39.7508 793.609 46.212 793.609 Q52.6732 793.609 56.3653 790.967 Q60.0256 788.294 60.0256 783.647 Q60.0256 779 56.3653 776.358 Q52.6732 773.684 46.212 773.684 Z" fill="#000000" fill-rule="nonzero" fill-opacity="1" /><path clip-path="url(#clip340)" d="M44.7161 727.406 L47.5806 727.406 L47.5806 754.333 Q53.6281 753.951 56.8109 750.704 Q59.9619 747.426 59.9619 741.601 Q59.9619 738.228 59.1344 735.076 Q58.3069 731.894 56.6518 728.774 L62.1899 728.774 Q63.5267 731.925 64.227 735.236 Q64.9272 738.546 64.9272 741.951 Q64.9272 750.481 59.9619 755.479 Q54.9967 760.444 46.5303 760.444 Q37.7774 760.444 32.6531 755.733 Q27.4968 750.991 27.4968 742.97 Q27.4968 735.777 32.1438 731.607 Q36.7589 727.406 44.7161 727.406 M42.9973 733.262 Q38.1912 733.326 35.3266 735.968 Q32.4621 738.578 32.4621 742.906 Q32.4621 747.808 35.2312 750.768 Q38.0002 753.696 43.0292 754.142 L42.9973 733.262 Z" fill="#000000" fill-rule="nonzero" fill-opacity="1" /><path clip-path="url(#clip340)" d="M44.7161 687.302 L47.5806 687.302 L47.5806 714.229 Q53.6281 713.847 56.8109 710.6 Q59.9619 707.322 59.9619 701.497 Q59.9619 698.124 59.1344 694.973 Q58.3069 691.79 56.6518 688.67 L62.1899 688.67 Q63.5267 691.822 64.227 695.132 Q64.9272 698.442 64.9272 701.847 Q64.9272 710.378 59.9619 715.375 Q54.9967 720.34 46.5303 720.34 Q37.7774 720.34 32.6531 715.629 Q27.4968 710.887 27.4968 702.866 Q27.4968 695.673 32.1438 691.503 Q36.7589 687.302 44.7161 687.302 M42.9973 693.158 Q38.1912 693.222 35.3266 695.864 Q32.4621 698.474 32.4621 702.802 Q32.4621 707.704 35.2312 710.664 Q38.0002 713.592 43.0292 714.038 L42.9973 693.158 Z" fill="#000000" fill-rule="nonzero" fill-opacity="1" /><path clip-path="url(#clip340)" d="M33.7671 654.232 L14.479 654.232 L14.479 648.376 L64.0042 648.376 L64.0042 654.232 L58.657 654.232 Q61.8398 656.078 63.3994 658.911 Q64.9272 661.712 64.9272 665.658 Q64.9272 672.12 59.771 676.194 Q54.6147 680.236 46.212 680.236 Q37.8093 680.236 32.6531 676.194 Q27.4968 672.12 27.4968 665.658 Q27.4968 661.712 29.0564 658.911 Q30.5842 656.078 33.7671 654.232 M46.212 674.189 Q52.6732 674.189 56.3653 671.547 Q60.0256 668.873 60.0256 664.226 Q60.0256 659.579 56.3653 656.906 Q52.6732 654.232 46.212 654.232 Q39.7508 654.232 36.0905 656.906 Q32.3984 659.579 32.3984 664.226 Q32.3984 668.873 36.0905 671.547 Q39.7508 674.189 46.212 674.189 Z" fill="#000000" fill-rule="nonzero" fill-opacity="1" /><path clip-path="url(#clip340)" d="M49.9359 636.917 L28.3562 636.917 L28.3562 631.061 L49.7131 631.061 Q54.7739 631.061 57.3202 629.087 Q59.8346 627.114 59.8346 623.167 Q59.8346 618.425 56.8109 615.688 Q53.7872 612.919 48.5673 612.919 L28.3562 612.919 L28.3562 607.062 L64.0042 607.062 L64.0042 612.919 L58.5296 612.919 Q61.7762 615.051 63.3676 617.884 Q64.9272 620.685 64.9272 624.409 Q64.9272 630.552 61.1078 633.734 Q57.2883 636.917 49.9359 636.917 M27.4968 622.181 L27.4968 622.181 Z" fill="#000000" fill-rule="nonzero" fill-opacity="1" /><path clip-path="url(#clip340)" d="M58.657 589.334 L77.5631 589.334 L77.5631 595.222 L28.3562 595.222 L28.3562 589.334 L33.7671 589.334 Q30.5842 587.488 29.0564 584.687 Q27.4968 581.854 27.4968 577.939 Q27.4968 571.446 32.6531 567.404 Q37.8093 563.33 46.212 563.33 Q54.6147 563.33 59.771 567.404 Q64.9272 571.446 64.9272 577.939 Q64.9272 581.854 63.3994 584.687 Q61.8398 587.488 58.657 589.334 M46.212 569.409 Q39.7508 569.409 36.0905 572.083 Q32.3984 574.724 32.3984 579.371 Q32.3984 584.018 36.0905 586.692 Q39.7508 589.334 46.212 589.334 Q52.6732 589.334 56.3653 586.692 Q60.0256 584.018 60.0256 579.371 Q60.0256 574.724 56.3653 572.083 Q52.6732 569.409 46.212 569.409 Z" fill="#000000" fill-rule="nonzero" fill-opacity="1" /><path clip-path="url(#clip340)" d="M579.287 14.0809 L579.287 22.0612 Q574.628 19.8332 570.496 18.7395 Q566.364 17.6457 562.516 17.6457 Q555.832 17.6457 552.186 20.2383 Q548.581 22.8309 548.581 27.611 Q548.581 31.6214 550.971 33.6873 Q553.401 35.7128 560.126 36.9686 L565.068 37.9813 Q574.223 39.7232 578.557 44.1387 Q582.932 48.5136 582.932 55.8863 Q582.932 64.6767 577.018 69.2137 Q571.144 73.7508 559.761 73.7508 Q555.467 73.7508 550.606 72.7785 Q545.786 71.8063 540.6 69.9024 L540.6 61.4765 Q545.583 64.2716 550.363 65.6895 Q555.143 67.1073 559.761 67.1073 Q566.769 67.1073 570.577 64.3527 Q574.385 61.598 574.385 56.4939 Q574.385 52.0379 571.63 49.5264 Q568.916 47.0148 562.678 45.759 L557.695 44.7868 Q548.54 42.9639 544.449 39.075 Q540.357 35.1862 540.357 28.2591 Q540.357 20.2383 545.988 15.6203 Q551.659 11.0023 561.584 11.0023 Q565.838 11.0023 570.253 11.7719 Q574.668 12.5416 579.287 14.0809 Z" fill="#000000" fill-rule="nonzero" fill-opacity="1" /><path clip-path="url(#clip340)" d="M602.579 65.7705 L602.579 89.8329 L595.085 89.8329 L595.085 27.2059 L602.579 27.2059 L602.579 34.0924 Q604.929 30.0415 608.494 28.0971 Q612.099 26.1121 617.081 26.1121 Q625.345 26.1121 630.49 32.6746 Q635.675 39.2371 635.675 49.9314 Q635.675 60.6258 630.49 67.1883 Q625.345 73.7508 617.081 73.7508 Q612.099 73.7508 608.494 71.8063 Q604.929 69.8214 602.579 65.7705 M627.938 49.9314 Q627.938 41.7081 624.535 37.0496 Q621.173 32.3505 615.259 32.3505 Q609.344 32.3505 605.941 37.0496 Q602.579 41.7081 602.579 49.9314 Q602.579 58.1548 605.941 62.8538 Q609.344 67.5124 615.259 67.5124 Q621.173 67.5124 624.535 62.8538 Q627.938 58.1548 627.938 49.9314 Z" fill="#000000" fill-rule="nonzero" fill-opacity="1" /><path clip-path="url(#clip340)" d="M686.838 48.0275 L686.838 51.6733 L652.567 51.6733 Q653.053 59.3701 657.185 63.421 Q661.358 67.4314 668.771 67.4314 Q673.065 67.4314 677.075 66.3781 Q681.126 65.3249 685.096 63.2184 L685.096 70.267 Q681.086 71.9684 676.873 72.8596 Q672.66 73.7508 668.325 73.7508 Q657.469 73.7508 651.109 67.4314 Q644.79 61.1119 644.79 50.3365 Q644.79 39.1965 650.785 32.6746 Q656.821 26.1121 667.029 26.1121 Q676.184 26.1121 681.491 32.0264 Q686.838 37.9003 686.838 48.0275 M679.384 45.84 Q679.303 39.7232 675.941 36.0774 Q672.619 32.4315 667.11 32.4315 Q660.872 32.4315 657.104 35.9558 Q653.378 39.4801 652.81 45.8805 L679.384 45.84 Z" fill="#000000" fill-rule="nonzero" fill-opacity="1" /><path clip-path="url(#clip340)" d="M737.879 48.0275 L737.879 51.6733 L703.609 51.6733 Q704.095 59.3701 708.227 63.421 Q712.399 67.4314 719.812 67.4314 Q724.106 67.4314 728.117 66.3781 Q732.168 65.3249 736.138 63.2184 L736.138 70.267 Q732.127 71.9684 727.914 72.8596 Q723.701 73.7508 719.367 73.7508 Q708.51 73.7508 702.15 67.4314 Q695.831 61.1119 695.831 50.3365 Q695.831 39.1965 701.826 32.6746 Q707.862 26.1121 718.07 26.1121 Q727.226 26.1121 732.532 32.0264 Q737.879 37.9003 737.879 48.0275 M730.426 45.84 Q730.345 39.7232 726.982 36.0774 Q723.661 32.4315 718.152 32.4315 Q711.913 32.4315 708.146 35.9558 Q704.419 39.4801 703.852 45.8805 L730.426 45.84 Z" fill="#000000" fill-rule="nonzero" fill-opacity="1" /><path clip-path="url(#clip340)" d="M779.968 34.0924 L779.968 9.54393 L787.422 9.54393 L787.422 72.576 L779.968 72.576 L779.968 65.7705 Q777.619 69.8214 774.013 71.8063 Q770.449 73.7508 765.426 73.7508 Q757.202 73.7508 752.017 67.1883 Q746.872 60.6258 746.872 49.9314 Q746.872 39.2371 752.017 32.6746 Q757.202 26.1121 765.426 26.1121 Q770.449 26.1121 774.013 28.0971 Q777.619 30.0415 779.968 34.0924 M754.569 49.9314 Q754.569 58.1548 757.931 62.8538 Q761.334 67.5124 767.248 67.5124 Q773.163 67.5124 776.566 62.8538 Q779.968 58.1548 779.968 49.9314 Q779.968 41.7081 776.566 37.0496 Q773.163 32.3505 767.248 32.3505 Q761.334 32.3505 757.931 37.0496 Q754.569 41.7081 754.569 49.9314 Z" fill="#000000" fill-rule="nonzero" fill-opacity="1" /><path clip-path="url(#clip340)" d="M802.005 54.671 L802.005 27.2059 L809.459 27.2059 L809.459 54.3874 Q809.459 60.8284 811.97 64.0691 Q814.482 67.2693 819.505 67.2693 Q825.541 67.2693 829.025 63.421 Q832.549 59.5726 832.549 52.9291 L832.549 27.2059 L840.003 27.2059 L840.003 72.576 L832.549 72.576 L832.549 65.6084 Q829.835 69.7404 826.23 71.7658 Q822.665 73.7508 817.925 73.7508 Q810.107 73.7508 806.056 68.8897 Q802.005 64.0286 802.005 54.671 M820.761 26.1121 L820.761 26.1121 Z" fill="#000000" fill-rule="nonzero" fill-opacity="1" /><path clip-path="url(#clip340)" d="M862.566 65.7705 L862.566 89.8329 L855.072 89.8329 L855.072 27.2059 L862.566 27.2059 L862.566 34.0924 Q864.916 30.0415 868.481 28.0971 Q872.086 26.1121 877.068 26.1121 Q885.332 26.1121 890.477 32.6746 Q895.662 39.2371 895.662 49.9314 Q895.662 60.6258 890.477 67.1883 Q885.332 73.7508 877.068 73.7508 Q872.086 73.7508 868.481 71.8063 Q864.916 69.8214 862.566 65.7705 M887.925 49.9314 Q887.925 41.7081 884.522 37.0496 Q881.16 32.3505 875.246 32.3505 Q869.331 32.3505 865.929 37.0496 Q862.566 41.7081 862.566 49.9314 Q862.566 58.1548 865.929 62.8538 Q869.331 67.5124 875.246 67.5124 Q881.16 67.5124 884.522 62.8538 Q887.925 58.1548 887.925 49.9314 Z" fill="#000000" fill-rule="nonzero" fill-opacity="1" /><path clip-path="url(#clip340)" d="M941.761 14.324 L941.761 27.2059 L957.114 27.2059 L957.114 32.9987 L941.761 32.9987 L941.761 57.6282 Q941.761 63.1779 943.26 64.7578 Q944.8 66.3376 949.458 66.3376 L957.114 66.3376 L957.114 72.576 L949.458 72.576 Q940.83 72.576 937.548 69.3758 Q934.267 66.1351 934.267 57.6282 L934.267 32.9987 L928.799 32.9987 L928.799 27.2059 L934.267 27.2059 L934.267 14.324 L941.761 14.324 Z" fill="#000000" fill-rule="nonzero" fill-opacity="1" /><path clip-path="url(#clip340)" d="M993.208 34.1734 Q991.952 33.4443 990.453 33.1202 Q988.995 32.7556 987.213 32.7556 Q980.893 32.7556 977.49 36.8875 Q974.128 40.9789 974.128 48.6757 L974.128 72.576 L966.634 72.576 L966.634 27.2059 L974.128 27.2059 L974.128 34.2544 Q976.478 30.1225 980.245 28.1376 Q984.012 26.1121 989.4 26.1121 Q990.17 26.1121 991.101 26.2337 Q992.033 26.3147 993.167 26.5172 L993.208 34.1734 Z" fill="#000000" fill-rule="nonzero" fill-opacity="1" /><path clip-path="url(#clip340)" d="M1001.03 27.2059 L1008.48 27.2059 L1008.48 72.576 L1001.03 72.576 L1001.03 27.2059 M1001.03 9.54393 L1008.48 9.54393 L1008.48 18.9825 L1001.03 18.9825 L1001.03 9.54393 Z" fill="#000000" fill-rule="nonzero" fill-opacity="1" /><path clip-path="url(#clip340)" d="M1053 28.5427 L1053 35.5912 Q1049.84 33.9709 1046.44 33.1607 Q1043.03 32.3505 1039.39 32.3505 Q1033.84 32.3505 1031.04 34.0519 Q1028.29 35.7533 1028.29 39.156 Q1028.29 41.7486 1030.27 43.2475 Q1032.26 44.7058 1038.25 46.0426 L1040.81 46.6097 Q1048.75 48.3111 1052.07 51.4303 Q1055.43 54.509 1055.43 60.0587 Q1055.43 66.3781 1050.41 70.0644 Q1045.42 73.7508 1036.67 73.7508 Q1033.03 73.7508 1029.06 73.0216 Q1025.13 72.3329 1020.75 70.9151 L1020.75 63.2184 Q1024.89 65.3654 1028.9 66.4591 Q1032.91 67.5124 1036.84 67.5124 Q1042.1 67.5124 1044.94 65.73 Q1047.77 63.9071 1047.77 60.6258 Q1047.77 57.5877 1045.71 55.9673 Q1043.68 54.3469 1036.76 52.8481 L1034.16 52.2405 Q1027.24 50.7821 1024.16 47.7845 Q1021.08 44.7463 1021.08 39.4801 Q1021.08 33.0797 1025.62 29.5959 Q1030.15 26.1121 1038.5 26.1121 Q1042.63 26.1121 1046.27 26.7198 Q1049.92 27.3274 1053 28.5427 Z" fill="#000000" fill-rule="nonzero" fill-opacity="1" /><path clip-path="url(#clip340)" d="M1084.88 32.4315 Q1078.88 32.4315 1075.4 37.1306 Q1071.92 41.7891 1071.92 49.9314 Q1071.92 58.0738 1075.36 62.7728 Q1078.84 67.4314 1084.88 67.4314 Q1090.83 67.4314 1094.32 62.7323 Q1097.8 58.0333 1097.8 49.9314 Q1097.8 41.8701 1094.32 37.1711 Q1090.83 32.4315 1084.88 32.4315 M1084.88 26.1121 Q1094.6 26.1121 1100.15 32.4315 Q1105.7 38.7509 1105.7 49.9314 Q1105.7 61.0714 1100.15 67.4314 Q1094.6 73.7508 1084.88 73.7508 Q1075.12 73.7508 1069.57 67.4314 Q1064.06 61.0714 1064.06 49.9314 Q1064.06 38.7509 1069.57 32.4315 Q1075.12 26.1121 1084.88 26.1121 Z" fill="#000000" fill-rule="nonzero" fill-opacity="1" /><path clip-path="url(#clip340)" d="M1118.06 9.54393 L1125.51 9.54393 L1125.51 72.576 L1118.06 72.576 L1118.06 9.54393 Z" fill="#000000" fill-rule="nonzero" fill-opacity="1" /><path clip-path="url(#clip340)" d="M1135.76 27.2059 L1143.66 27.2059 L1157.84 65.2844 L1172.01 27.2059 L1179.91 27.2059 L1162.9 72.576 L1152.77 72.576 L1135.76 27.2059 Z" fill="#000000" fill-rule="nonzero" fill-opacity="1" /><path clip-path="url(#clip340)" d="M1192.11 62.2867 L1200.65 62.2867 L1200.65 69.2543 L1194.01 82.2172 L1188.79 82.2172 L1192.11 69.2543 L1192.11 62.2867 Z" fill="#000000" fill-rule="nonzero" fill-opacity="1" /><path clip-path="url(#clip340)" d="M1250.16 65.7705 L1250.16 89.8329 L1242.66 89.8329 L1242.66 27.2059 L1250.16 27.2059 L1250.16 34.0924 Q1252.51 30.0415 1256.07 28.0971 Q1259.68 26.1121 1264.66 26.1121 Q1272.92 26.1121 1278.07 32.6746 Q1283.25 39.2371 1283.25 49.9314 Q1283.25 60.6258 1278.07 67.1883 Q1272.92 73.7508 1264.66 73.7508 Q1259.68 73.7508 1256.07 71.8063 Q1252.51 69.8214 1250.16 65.7705 M1275.52 49.9314 Q1275.52 41.7081 1272.11 37.0496 Q1268.75 32.3505 1262.84 32.3505 Q1256.92 32.3505 1253.52 37.0496 Q1250.16 41.7081 1250.16 49.9314 Q1250.16 58.1548 1253.52 62.8538 Q1256.92 67.5124 1262.84 67.5124 Q1268.75 67.5124 1272.11 62.8538 Q1275.52 58.1548 1275.52 49.9314 Z" fill="#000000" fill-rule="nonzero" fill-opacity="1" /><path clip-path="url(#clip340)" d="M1321.9 34.1734 Q1320.64 33.4443 1319.14 33.1202 Q1317.69 32.7556 1315.9 32.7556 Q1309.58 32.7556 1306.18 36.8875 Q1302.82 40.9789 1302.82 48.6757 L1302.82 72.576 L1295.32 72.576 L1295.32 27.2059 L1302.82 27.2059 L1302.82 34.2544 Q1305.17 30.1225 1308.94 28.1376 Q1312.7 26.1121 1318.09 26.1121 Q1318.86 26.1121 1319.79 26.2337 Q1320.72 26.3147 1321.86 26.5172 L1321.9 34.1734 Z" fill="#000000" fill-rule="nonzero" fill-opacity="1" /><path clip-path="url(#clip340)" d="M1366.7 48.0275 L1366.7 51.6733 L1332.43 51.6733 Q1332.92 59.3701 1337.05 63.421 Q1341.22 67.4314 1348.63 67.4314 Q1352.93 67.4314 1356.94 66.3781 Q1360.99 65.3249 1364.96 63.2184 L1364.96 70.267 Q1360.95 71.9684 1356.74 72.8596 Q1352.52 73.7508 1348.19 73.7508 Q1337.33 73.7508 1330.97 67.4314 Q1324.65 61.1119 1324.65 50.3365 Q1324.65 39.1965 1330.65 32.6746 Q1336.68 26.1121 1346.89 26.1121 Q1356.05 26.1121 1361.35 32.0264 Q1366.7 37.9003 1366.7 48.0275 M1359.25 45.84 Q1359.17 39.7232 1355.8 36.0774 Q1352.48 32.4315 1346.97 32.4315 Q1340.73 32.4315 1336.97 35.9558 Q1333.24 39.4801 1332.67 45.8805 L1359.25 45.84 Z" fill="#000000" fill-rule="nonzero" fill-opacity="1" /><path clip-path="url(#clip340)" d="M1407.86 28.5427 L1407.86 35.5912 Q1404.7 33.9709 1401.3 33.1607 Q1397.89 32.3505 1394.25 32.3505 Q1388.7 32.3505 1385.9 34.0519 Q1383.15 35.7533 1383.15 39.156 Q1383.15 41.7486 1385.13 43.2475 Q1387.12 44.7058 1393.11 46.0426 L1395.67 46.6097 Q1403.61 48.3111 1406.93 51.4303 Q1410.29 54.509 1410.29 60.0587 Q1410.29 66.3781 1405.27 70.0644 Q1400.28 73.7508 1391.53 73.7508 Q1387.89 73.7508 1383.92 73.0216 Q1379.99 72.3329 1375.61 70.9151 L1375.61 63.2184 Q1379.75 65.3654 1383.76 66.4591 Q1387.77 67.5124 1391.7 67.5124 Q1396.96 67.5124 1399.8 65.73 Q1402.63 63.9071 1402.63 60.6258 Q1402.63 57.5877 1400.57 55.9673 Q1398.54 54.3469 1391.61 52.8481 L1389.02 52.2405 Q1382.09 50.7821 1379.02 47.7845 Q1375.94 44.7463 1375.94 39.4801 Q1375.94 33.0797 1380.47 29.5959 Q1385.01 26.1121 1393.36 26.1121 Q1397.49 26.1121 1401.13 26.7198 Q1404.78 27.3274 1407.86 28.5427 Z" fill="#000000" fill-rule="nonzero" fill-opacity="1" /><path clip-path="url(#clip340)" d="M1460.97 48.0275 L1460.97 51.6733 L1426.7 51.6733 Q1427.18 59.3701 1431.31 63.421 Q1435.49 67.4314 1442.9 67.4314 Q1447.19 67.4314 1451.2 66.3781 Q1455.25 65.3249 1459.22 63.2184 L1459.22 70.267 Q1455.21 71.9684 1451 72.8596 Q1446.79 73.7508 1442.45 73.7508 Q1431.6 73.7508 1425.24 67.4314 Q1418.92 61.1119 1418.92 50.3365 Q1418.92 39.1965 1424.91 32.6746 Q1430.95 26.1121 1441.16 26.1121 Q1450.31 26.1121 1455.62 32.0264 Q1460.97 37.9003 1460.97 48.0275 M1453.51 45.84 Q1453.43 39.7232 1450.07 36.0774 Q1446.75 32.4315 1441.24 32.4315 Q1435 32.4315 1431.23 35.9558 Q1427.51 39.4801 1426.94 45.8805 L1453.51 45.84 Z" fill="#000000" fill-rule="nonzero" fill-opacity="1" /><path clip-path="url(#clip340)" d="M1480.57 14.324 L1480.57 27.2059 L1495.93 27.2059 L1495.93 32.9987 L1480.57 32.9987 L1480.57 57.6282 Q1480.57 63.1779 1482.07 64.7578 Q1483.61 66.3376 1488.27 66.3376 L1495.93 66.3376 L1495.93 72.576 L1488.27 72.576 Q1479.64 72.576 1476.36 69.3758 Q1473.08 66.1351 1473.08 57.6282 L1473.08 32.9987 L1467.61 32.9987 L1467.61 27.2059 L1473.08 27.2059 L1473.08 14.324 L1480.57 14.324 Z" fill="#000000" fill-rule="nonzero" fill-opacity="1" /><path clip-path="url(#clip340)" d="M1539.15 12.096 L1539.15 34.5785 L1532.26 34.5785 L1532.26 12.096 L1539.15 12.096 Z" fill="#000000" fill-rule="nonzero" fill-opacity="1" /><path clip-path="url(#clip340)" d="M1562.12 65.7705 L1562.12 89.8329 L1554.62 89.8329 L1554.62 27.2059 L1562.12 27.2059 L1562.12 34.0924 Q1564.47 30.0415 1568.03 28.0971 Q1571.64 26.1121 1576.62 26.1121 Q1584.88 26.1121 1590.03 32.6746 Q1595.21 39.2371 1595.21 49.9314 Q1595.21 60.6258 1590.03 67.1883 Q1584.88 73.7508 1576.62 73.7508 Q1571.64 73.7508 1568.03 71.8063 Q1564.47 69.8214 1562.12 65.7705 M1587.48 49.9314 Q1587.48 41.7081 1584.07 37.0496 Q1580.71 32.3505 1574.8 32.3505 Q1568.88 32.3505 1565.48 37.0496 Q1562.12 41.7081 1562.12 49.9314 Q1562.12 58.1548 1565.48 62.8538 Q1568.88 67.5124 1574.8 67.5124 Q1580.71 67.5124 1584.07 62.8538 Q1587.48 58.1548 1587.48 49.9314 Z" fill="#000000" fill-rule="nonzero" fill-opacity="1" /><path clip-path="url(#clip340)" d="M1628.19 49.7694 Q1619.15 49.7694 1615.67 51.8354 Q1612.19 53.9013 1612.19 58.8839 Q1612.19 62.8538 1614.78 65.2034 Q1617.41 67.5124 1621.91 67.5124 Q1628.11 67.5124 1631.83 63.1374 Q1635.6 58.7219 1635.6 51.4303 L1635.6 49.7694 L1628.19 49.7694 M1643.05 46.6907 L1643.05 72.576 L1635.6 72.576 L1635.6 65.6895 Q1633.05 69.8214 1629.24 71.8063 Q1625.43 73.7508 1619.92 73.7508 Q1612.96 73.7508 1608.82 69.8619 Q1604.73 65.9325 1604.73 59.3701 Q1604.73 51.7138 1609.84 47.825 Q1614.98 43.9361 1625.15 43.9361 L1635.6 43.9361 L1635.6 43.2069 Q1635.6 38.0623 1632.2 35.2672 Q1628.84 32.4315 1622.72 32.4315 Q1618.83 32.4315 1615.14 33.3632 Q1611.46 34.295 1608.05 36.1584 L1608.05 29.2718 Q1612.15 27.692 1615.99 26.9223 Q1619.84 26.1121 1623.49 26.1121 Q1633.33 26.1121 1638.19 31.2163 Q1643.05 36.3204 1643.05 46.6907 Z" fill="#000000" fill-rule="nonzero" fill-opacity="1" /><path clip-path="url(#clip340)" d="M1665.62 65.7705 L1665.62 89.8329 L1658.12 89.8329 L1658.12 27.2059 L1665.62 27.2059 L1665.62 34.0924 Q1667.97 30.0415 1671.53 28.0971 Q1675.14 26.1121 1680.12 26.1121 Q1688.38 26.1121 1693.53 32.6746 Q1698.71 39.2371 1698.71 49.9314 Q1698.71 60.6258 1693.53 67.1883 Q1688.38 73.7508 1680.12 73.7508 Q1675.14 73.7508 1671.53 71.8063 Q1667.97 69.8214 1665.62 65.7705 M1690.98 49.9314 Q1690.98 41.7081 1687.57 37.0496 Q1684.21 32.3505 1678.3 32.3505 Q1672.38 32.3505 1668.98 37.0496 Q1665.62 41.7081 1665.62 49.9314 Q1665.62 58.1548 1668.98 62.8538 Q1672.38 67.5124 1678.3 67.5124 Q1684.21 67.5124 1687.57 62.8538 Q1690.98 58.1548 1690.98 49.9314 Z" fill="#000000" fill-rule="nonzero" fill-opacity="1" /><path clip-path="url(#clip340)" d="M1749.88 48.0275 L1749.88 51.6733 L1715.61 51.6733 Q1716.09 59.3701 1720.22 63.421 Q1724.4 67.4314 1731.81 67.4314 Q1736.1 67.4314 1740.11 66.3781 Q1744.16 65.3249 1748.13 63.2184 L1748.13 70.267 Q1744.12 71.9684 1739.91 72.8596 Q1735.7 73.7508 1731.36 73.7508 Q1720.51 73.7508 1714.15 67.4314 Q1707.83 61.1119 1707.83 50.3365 Q1707.83 39.1965 1713.82 32.6746 Q1719.86 26.1121 1730.07 26.1121 Q1739.22 26.1121 1744.53 32.0264 Q1749.88 37.9003 1749.88 48.0275 M1742.42 45.84 Q1742.34 39.7232 1738.98 36.0774 Q1735.66 32.4315 1730.15 32.4315 Q1723.91 32.4315 1720.14 35.9558 Q1716.42 39.4801 1715.85 45.8805 L1742.42 45.84 Z" fill="#000000" fill-rule="nonzero" fill-opacity="1" /><path clip-path="url(#clip340)" d="M1788.4 34.1734 Q1787.14 33.4443 1785.65 33.1202 Q1784.19 32.7556 1782.41 32.7556 Q1776.09 32.7556 1772.68 36.8875 Q1769.32 40.9789 1769.32 48.6757 L1769.32 72.576 L1761.83 72.576 L1761.83 27.2059 L1769.32 27.2059 L1769.32 34.2544 Q1771.67 30.1225 1775.44 28.1376 Q1779.2 26.1121 1784.59 26.1121 Q1785.36 26.1121 1786.29 26.2337 Q1787.23 26.3147 1788.36 26.5172 L1788.4 34.1734 Z" fill="#000000" fill-rule="nonzero" fill-opacity="1" /><path clip-path="url(#clip340)" d="M1803.27 12.096 L1803.27 34.5785 L1796.38 34.5785 L1796.38 12.096 L1803.27 12.096 Z" fill="#000000" fill-rule="nonzero" fill-opacity="1" /><path clip-path="url(#clip340)" d="M1820.93 62.2867 L1829.48 62.2867 L1829.48 69.2543 L1822.83 82.2172 L1817.61 82.2172 L1820.93 69.2543 L1820.93 62.2867 Z" fill="#000000" fill-rule="nonzero" fill-opacity="1" /><path clip-path="url(#clip340)" d="M1913.33 63.9476 L1913.33 47.7034 L1899.96 47.7034 L1899.96 40.9789 L1921.43 40.9789 L1921.43 66.9452 Q1916.69 70.3075 1910.98 72.0494 Q1905.27 73.7508 1898.79 73.7508 Q1884.61 73.7508 1876.59 65.4869 Q1868.61 57.1826 1868.61 42.3968 Q1868.61 27.5705 1876.59 19.3066 Q1884.61 11.0023 1898.79 11.0023 Q1904.7 11.0023 1910.01 12.4606 Q1915.36 13.9189 1919.85 16.7545 L1919.85 25.464 Q1915.32 21.6156 1910.21 19.6712 Q1905.11 17.7268 1899.48 17.7268 Q1888.38 17.7268 1882.79 23.9246 Q1877.24 30.1225 1877.24 42.3968 Q1877.24 54.6305 1882.79 60.8284 Q1888.38 67.0263 1899.48 67.0263 Q1903.81 67.0263 1907.21 66.2971 Q1910.62 65.5274 1913.33 63.9476 Z" fill="#000000" fill-rule="nonzero" fill-opacity="1" /><path clip-path="url(#clip340)" d="M1944.56 18.8205 L1944.56 41.5461 L1954.85 41.5461 Q1960.56 41.5461 1963.68 38.5889 Q1966.8 35.6318 1966.8 30.163 Q1966.8 24.7348 1963.68 21.7777 Q1960.56 18.8205 1954.85 18.8205 L1944.56 18.8205 M1936.38 12.096 L1954.85 12.096 Q1965.02 12.096 1970.2 16.714 Q1975.43 21.2916 1975.43 30.163 Q1975.43 39.1155 1970.2 43.6931 Q1965.02 48.2706 1954.85 48.2706 L1944.56 48.2706 L1944.56 72.576 L1936.38 72.576 L1936.38 12.096 Z" fill="#000000" fill-rule="nonzero" fill-opacity="1" /><path clip-path="url(#clip340)" d="M1985.48 12.096 L1993.7 12.096 L1993.7 48.8377 Q1993.7 58.5599 1997.22 62.8538 Q2000.75 67.1073 2008.65 67.1073 Q2016.51 67.1073 2020.03 62.8538 Q2023.56 58.5599 2023.56 48.8377 L2023.56 12.096 L2031.78 12.096 L2031.78 49.8504 Q2031.78 61.6791 2025.9 67.7149 Q2020.07 73.7508 2008.65 73.7508 Q1997.18 73.7508 1991.31 67.7149 Q1985.48 61.6791 1985.48 49.8504 L1985.48 12.096 Z" fill="#000000" fill-rule="nonzero" fill-opacity="1" /><path clip-path="url(#clip342)" d="M302.348 684.561 L302.348 1282.36 L612.39 1282.36 L612.39 684.561 L302.348 684.561 L302.348 684.561  Z" fill="#808080" fill-rule="evenodd" fill-opacity="1"/>
<polyline clip-path="url(#clip342)" style="stroke:#000000; stroke-linecap:round; stroke-linejoin:round; stroke-width:4; stroke-opacity:1; fill:none" points="302.348,684.561 302.348,1282.36 612.39,1282.36 612.39,684.561 302.348,684.561 "/>
<path clip-path="url(#clip342)" d="M745.265 725.931 L745.265 1282.36 L1055.31 1282.36 L1055.31 725.931 L745.265 725.931 L745.265 725.931  Z" fill="#808080" fill-rule="evenodd" fill-opacity="1"/>
<polyline clip-path="url(#clip342)" style="stroke:#000000; stroke-linecap:round; stroke-linejoin:round; stroke-width:4; stroke-opacity:1; fill:none" points="745.265,725.931 745.265,1282.36 1055.31,1282.36 1055.31,725.931 745.265,725.931 "/>
<circle clip-path="url(#clip342)" style="fill:#808080; stroke:none; fill-opacity:0" cx="457.369" cy="684.561" r="2"/>
<circle clip-path="url(#clip342)" style="fill:#808080; stroke:none; fill-opacity:0" cx="900.287" cy="725.931" r="2"/>
<polyline clip-path="url(#clip342)" style="stroke:#000000; stroke-linecap:round; stroke-linejoin:round; stroke-width:4; stroke-opacity:1; fill:none" points="457.369,713.684 457.369,614.28 "/>
<polyline clip-path="url(#clip342)" style="stroke:#000000; stroke-linecap:round; stroke-linejoin:round; stroke-width:4; stroke-opacity:1; fill:none" points="900.287,785.216 900.287,703.642 "/>
<line clip-path="url(#clip342)" x1="473.369" y1="713.684" x2="441.369" y2="713.684" style="stroke:#000000; stroke-width:4; stroke-opacity:1"/>
<line clip-path="url(#clip342)" x1="473.369" y1="614.28" x2="441.369" y2="614.28" style="stroke:#000000; stroke-width:4; stroke-opacity:1"/>
<line clip-path="url(#clip342)" x1="916.287" y1="785.216" x2="884.287" y2="785.216" style="stroke:#000000; stroke-width:4; stroke-opacity:1"/>
<line clip-path="url(#clip342)" x1="916.287" y1="703.642" x2="884.287" y2="703.642" style="stroke:#000000; stroke-width:4; stroke-opacity:1"/>
<path clip-path="url(#clip342)" d="M1365.79 870.312 L1365.79 1282.36 L1675.84 1282.36 L1675.84 870.312 L1365.79 870.312 L1365.79 870.312  Z" fill="#17913e" fill-rule="evenodd" fill-opacity="1"/>
<polyline clip-path="url(#clip342)" style="stroke:#000000; stroke-linecap:round; stroke-linejoin:round; stroke-width:4; stroke-opacity:1; fill:none" points="1365.79,870.312 1365.79,1282.36 1675.84,1282.36 1675.84,870.312 1365.79,870.312 "/>
<circle clip-path="url(#clip342)" style="fill:#17913e; stroke:none; fill-opacity:0" cx="1520.81" cy="870.312" r="2"/>
<polyline clip-path="url(#clip342)" style="stroke:#000000; stroke-linecap:round; stroke-linejoin:round; stroke-width:4; stroke-opacity:1; fill:none" points="1520.81,961.246 1520.81,471.917 "/>
<line clip-path="url(#clip342)" x1="1536.81" y1="961.246" x2="1504.81" y2="961.246" style="stroke:#000000; stroke-width:4; stroke-opacity:1"/>
<line clip-path="url(#clip342)" x1="1536.81" y1="471.917" x2="1504.81" y2="471.917" style="stroke:#000000; stroke-width:4; stroke-opacity:1"/>
<path clip-path="url(#clip342)" d="M1973.03 327.844 L1973.03 1282.36 L2283.08 1282.36 L2283.08 327.844 L1973.03 327.844 L1973.03 327.844  Z" fill="#3065a6" fill-rule="evenodd" fill-opacity="1"/>
<polyline clip-path="url(#clip342)" style="stroke:#000000; stroke-linecap:round; stroke-linejoin:round; stroke-width:4; stroke-opacity:1; fill:none" points="1973.03,327.844 1973.03,1282.36 2283.08,1282.36 2283.08,327.844 1973.03,327.844 "/>
<circle clip-path="url(#clip342)" style="fill:#3065a6; stroke:none; fill-opacity:0" cx="2128.05" cy="327.844" r="2"/>
<polyline clip-path="url(#clip342)" style="stroke:#000000; stroke-linecap:round; stroke-linejoin:round; stroke-width:4; stroke-opacity:1; fill:none" points="2128.05,375.08 2128.05,228.825 "/>
<line clip-path="url(#clip342)" x1="2144.05" y1="375.08" x2="2112.05" y2="375.08" style="stroke:#000000; stroke-width:4; stroke-opacity:1"/>
<line clip-path="url(#clip342)" x1="2144.05" y1="228.825" x2="2112.05" y2="228.825" style="stroke:#000000; stroke-width:4; stroke-opacity:1"/>
<path clip-path="url(#clip340)" d="M290.493 369.462 L661.329 369.462 L661.329 162.102 L290.493 162.102  Z" fill="#ffffff" fill-rule="evenodd" fill-opacity="1"/>
<polyline clip-path="url(#clip340)" style="stroke:#000000; stroke-linecap:round; stroke-linejoin:round; stroke-width:4; stroke-opacity:1; fill:none" points="290.493,369.462 661.329,369.462 661.329,162.102 290.493,162.102 290.493,369.462 "/>
<path clip-path="url(#clip340)" d="M314.197 234.678 L456.422 234.678 L456.422 193.206 L314.197 193.206 L314.197 234.678  Z" fill="#808080" fill-rule="evenodd" fill-opacity="1"/>
<polyline clip-path="url(#clip340)" style="stroke:#000000; stroke-linecap:round; stroke-linejoin:round; stroke-width:4; stroke-opacity:1; fill:none" points="314.197,234.678 456.422,234.678 456.422,193.206 314.197,193.206 314.197,234.678 "/>
<path clip-path="url(#clip340)" d="M507.996 199.324 L507.996 204.254 Q505.635 202.055 502.95 200.967 Q500.288 199.879 497.279 199.879 Q491.353 199.879 488.205 203.513 Q485.057 207.124 485.057 213.976 Q485.057 220.805 488.205 224.439 Q491.353 228.05 497.279 228.05 Q500.288 228.05 502.95 226.962 Q505.635 225.874 507.996 223.675 L507.996 228.56 Q505.543 230.226 502.788 231.06 Q500.057 231.893 497.001 231.893 Q489.154 231.893 484.64 227.101 Q480.126 222.286 480.126 213.976 Q480.126 205.643 484.64 200.851 Q489.154 196.037 497.001 196.037 Q500.103 196.037 502.834 196.87 Q505.589 197.68 507.996 199.324 Z" fill="#000000" fill-rule="nonzero" fill-opacity="1" /><path clip-path="url(#clip340)" d="M314.197 286.518 L456.422 286.518 L456.422 245.046 L314.197 245.046 L314.197 286.518  Z" fill="#17913e" fill-rule="evenodd" fill-opacity="1"/>
<polyline clip-path="url(#clip340)" style="stroke:#000000; stroke-linecap:round; stroke-linejoin:round; stroke-width:4; stroke-opacity:1; fill:none" points="314.197,286.518 456.422,286.518 456.422,245.046 314.197,245.046 314.197,286.518 "/>
<path clip-path="url(#clip340)" d="M485.45 257.136 L489.709 257.136 L489.709 283.525 Q489.709 288.478 487.811 290.7 Q485.936 292.923 481.746 292.923 L480.126 292.923 L480.126 289.312 L481.26 289.312 Q483.691 289.312 484.571 288.177 Q485.45 287.066 485.45 283.525 L485.45 257.136 M485.45 247.043 L489.709 247.043 L489.709 252.437 L485.45 252.437 L485.45 247.043 Z" fill="#000000" fill-rule="nonzero" fill-opacity="1" /><path clip-path="url(#clip340)" d="M498.182 272.83 L498.182 257.136 L502.441 257.136 L502.441 272.668 Q502.441 276.349 503.876 278.2 Q505.311 280.029 508.181 280.029 Q511.631 280.029 513.621 277.83 Q515.635 275.631 515.635 271.835 L515.635 257.136 L519.894 257.136 L519.894 283.062 L515.635 283.062 L515.635 279.08 Q514.084 281.441 512.024 282.599 Q509.987 283.733 507.279 283.733 Q502.811 283.733 500.496 280.955 Q498.182 278.177 498.182 272.83 M508.899 256.511 L508.899 256.511 Z" fill="#000000" fill-rule="nonzero" fill-opacity="1" /><path clip-path="url(#clip340)" d="M528.667 247.043 L532.927 247.043 L532.927 283.062 L528.667 283.062 L528.667 247.043 Z" fill="#000000" fill-rule="nonzero" fill-opacity="1" /><path clip-path="url(#clip340)" d="M541.839 257.136 L546.098 257.136 L546.098 283.062 L541.839 283.062 L541.839 257.136 M541.839 247.043 L546.098 247.043 L546.098 252.437 L541.839 252.437 L541.839 247.043 Z" fill="#000000" fill-rule="nonzero" fill-opacity="1" /><path clip-path="url(#clip340)" d="M566.792 270.029 Q561.63 270.029 559.64 271.21 Q557.649 272.39 557.649 275.238 Q557.649 277.506 559.13 278.849 Q560.635 280.168 563.204 280.168 Q566.746 280.168 568.876 277.668 Q571.028 275.145 571.028 270.978 L571.028 270.029 L566.792 270.029 M575.288 268.27 L575.288 283.062 L571.028 283.062 L571.028 279.126 Q569.57 281.488 567.394 282.622 Q565.218 283.733 562.07 283.733 Q558.089 283.733 555.728 281.511 Q553.39 279.265 553.39 275.515 Q553.39 271.14 556.306 268.918 Q559.246 266.696 565.056 266.696 L571.028 266.696 L571.028 266.279 Q571.028 263.339 569.084 261.742 Q567.163 260.122 563.667 260.122 Q561.445 260.122 559.339 260.654 Q557.232 261.187 555.288 262.251 L555.288 258.316 Q557.626 257.414 559.825 256.974 Q562.024 256.511 564.107 256.511 Q569.732 256.511 572.51 259.427 Q575.288 262.344 575.288 268.27 Z" fill="#000000" fill-rule="nonzero" fill-opacity="1" /><path clip-path="url(#clip340)" d="M314.197 338.358 L456.422 338.358 L456.422 296.886 L314.197 296.886 L314.197 338.358  Z" fill="#3065a6" fill-rule="evenodd" fill-opacity="1"/>
<polyline clip-path="url(#clip340)" style="stroke:#000000; stroke-linecap:round; stroke-linejoin:round; stroke-width:4; stroke-opacity:1; fill:none" points="314.197,338.358 456.422,338.358 456.422,296.886 314.197,296.886 314.197,338.358 "/>
<path clip-path="url(#clip340)" d="M484.408 331.013 L484.408 344.763 L480.126 344.763 L480.126 308.976 L484.408 308.976 L484.408 312.911 Q485.751 310.596 487.788 309.485 Q489.848 308.351 492.695 308.351 Q497.418 308.351 500.357 312.101 Q503.32 315.851 503.32 321.962 Q503.32 328.073 500.357 331.823 Q497.418 335.573 492.695 335.573 Q489.848 335.573 487.788 334.462 Q485.751 333.328 484.408 331.013 M498.899 321.962 Q498.899 317.263 496.955 314.601 Q495.033 311.916 491.654 311.916 Q488.274 311.916 486.33 314.601 Q484.408 317.263 484.408 321.962 Q484.408 326.661 486.33 329.346 Q488.274 332.008 491.654 332.008 Q495.033 332.008 496.955 329.346 Q498.899 326.661 498.899 321.962 Z" fill="#000000" fill-rule="nonzero" fill-opacity="1" /><path clip-path="url(#clip340)" d="M521.168 337.309 Q519.362 341.939 517.649 343.351 Q515.936 344.763 513.066 344.763 L509.663 344.763 L509.663 341.198 L512.163 341.198 Q513.922 341.198 514.894 340.365 Q515.867 339.531 517.047 336.429 L517.811 334.485 L507.325 308.976 L511.839 308.976 L519.941 329.253 L528.042 308.976 L532.556 308.976 L521.168 337.309 Z" fill="#000000" fill-rule="nonzero" fill-opacity="1" /><path clip-path="url(#clip340)" d="M542.649 301.615 L542.649 308.976 L551.422 308.976 L551.422 312.286 L542.649 312.286 L542.649 326.36 Q542.649 329.531 543.505 330.434 Q544.385 331.337 547.047 331.337 L551.422 331.337 L551.422 334.902 L547.047 334.902 Q542.116 334.902 540.242 333.073 Q538.367 331.221 538.367 326.36 L538.367 312.286 L535.242 312.286 L535.242 308.976 L538.367 308.976 L538.367 301.615 L542.649 301.615 Z" fill="#000000" fill-rule="nonzero" fill-opacity="1" /><path clip-path="url(#clip340)" d="M578.575 319.254 L578.575 334.902 L574.315 334.902 L574.315 319.392 Q574.315 315.712 572.88 313.883 Q571.445 312.054 568.575 312.054 Q565.126 312.054 563.135 314.254 Q561.144 316.453 561.144 320.249 L561.144 334.902 L556.862 334.902 L556.862 298.883 L561.144 298.883 L561.144 313.004 Q562.672 310.666 564.732 309.508 Q566.815 308.351 569.524 308.351 Q573.991 308.351 576.283 311.129 Q578.575 313.883 578.575 319.254 Z" fill="#000000" fill-rule="nonzero" fill-opacity="1" /><path clip-path="url(#clip340)" d="M597.116 311.962 Q593.69 311.962 591.7 314.647 Q589.709 317.309 589.709 321.962 Q589.709 326.615 591.676 329.3 Q593.667 331.962 597.116 331.962 Q600.519 331.962 602.51 329.277 Q604.5 326.591 604.5 321.962 Q604.5 317.355 602.51 314.67 Q600.519 311.962 597.116 311.962 M597.116 308.351 Q602.672 308.351 605.843 311.962 Q609.014 315.573 609.014 321.962 Q609.014 328.328 605.843 331.962 Q602.672 335.573 597.116 335.573 Q591.538 335.573 588.366 331.962 Q585.218 328.328 585.218 321.962 Q585.218 315.573 588.366 311.962 Q591.538 308.351 597.116 308.351 Z" fill="#000000" fill-rule="nonzero" fill-opacity="1" /><path clip-path="url(#clip340)" d="M637.625 319.254 L637.625 334.902 L633.366 334.902 L633.366 319.392 Q633.366 315.712 631.931 313.883 Q630.496 312.054 627.625 312.054 Q624.176 312.054 622.186 314.254 Q620.195 316.453 620.195 320.249 L620.195 334.902 L615.912 334.902 L615.912 308.976 L620.195 308.976 L620.195 313.004 Q621.723 310.666 623.783 309.508 Q625.866 308.351 628.574 308.351 Q633.042 308.351 635.334 311.129 Q637.625 313.883 637.625 319.254 Z" fill="#000000" fill-rule="nonzero" fill-opacity="1" /></svg>
