<?xml version="1.0" encoding="utf-8"?>
<svg xmlns="http://www.w3.org/2000/svg" xmlns:xlink="http://www.w3.org/1999/xlink" width="600" height="400" viewBox="0 0 2400 1600">
<defs>
  <clipPath id="clip100">
    <rect x="0" y="0" width="2400" height="1600"/>
  </clipPath>
</defs>
<path clip-path="url(#clip100)" d="M0 1600 L2400 1600 L2400 0 L0 0  Z" fill="#ffffff" fill-rule="evenodd" fill-opacity="1"/>
<defs>
  <clipPath id="clip101">
    <rect x="480" y="0" width="1681" height="1600"/>
  </clipPath>
</defs>
<path clip-path="url(#clip100)" d="M175.445 1236.4 L2352.76 1236.4 L2352.76 123.472 L175.445 123.472  Z" fill="#ffffff" fill-rule="evenodd" fill-opacity="1"/>
<defs>
  <clipPath id="clip102">
    <rect x="175" y="123" width="2178" height="1114"/>
  </clipPath>
</defs>
<polyline clip-path="url(#clip102)" style="stroke:#000000; stroke-linecap:round; stroke-linejoin:round; stroke-width:2; stroke-opacity:0.1; fill:none" points="332.137,1236.4 332.137,123.472 "/>
<polyline clip-path="url(#clip102)" style="stroke:#000000; stroke-linecap:round; stroke-linejoin:round; stroke-width:2; stroke-opacity:0.1; fill:none" points="569.217,1236.4 569.217,123.472 "/>
<polyline clip-path="url(#clip102)" style="stroke:#000000; stroke-linecap:round; stroke-linejoin:round; stroke-width:2; stroke-opacity:0.1; fill:none" points="901.367,1236.4 901.367,123.472 "/>
<polyline clip-path="url(#clip102)" style="stroke:#000000; stroke-linecap:round; stroke-linejoin:round; stroke-width:2; stroke-opacity:0.1; fill:none" points="1138.45,1236.4 1138.45,123.472 "/>
<polyline clip-path="url(#clip102)" style="stroke:#000000; stroke-linecap:round; stroke-linejoin:round; stroke-width:2; stroke-opacity:0.1; fill:none" points="1375.53,1236.4 1375.53,123.472 "/>
<polyline clip-path="url(#clip102)" style="stroke:#000000; stroke-linecap:round; stroke-linejoin:round; stroke-width:2; stroke-opacity:0.1; fill:none" points="1714.79,1236.4 1714.79,123.472 "/>
<polyline clip-path="url(#clip102)" style="stroke:#000000; stroke-linecap:round; stroke-linejoin:round; stroke-width:2; stroke-opacity:0.1; fill:none" points="1951.87,1236.4 1951.87,123.472 "/>
<polyline clip-path="url(#clip102)" style="stroke:#000000; stroke-linecap:round; stroke-linejoin:round; stroke-width:2; stroke-opacity:0.1; fill:none" points="2188.95,1236.4 2188.95,123.472 "/>
<polyline clip-path="url(#clip100)" style="stroke:#000000; stroke-linecap:round; stroke-linejoin:round; stroke-width:4; stroke-opacity:1; fill:none" points="175.445,1236.4 2352.76,1236.4 "/>
<polyline clip-path="url(#clip100)" style="stroke:#000000; stroke-linecap:round; stroke-linejoin:round; stroke-width:4; stroke-opacity:1; fill:none" points="332.137,1236.4 332.137,1217.51 "/>
<polyline clip-path="url(#clip100)" style="stroke:#000000; stroke-linecap:round; stroke-linejoin:round; stroke-width:4; stroke-opacity:1; fill:none" points="569.217,1236.4 569.217,1217.51 "/>
<polyline clip-path="url(#clip100)" style="stroke:#000000; stroke-linecap:round; stroke-linejoin:round; stroke-width:4; stroke-opacity:1; fill:none" points="901.367,1236.4 901.367,1217.51 "/>
<polyline clip-path="url(#clip100)" style="stroke:#000000; stroke-linecap:round; stroke-linejoin:round; stroke-width:4; stroke-opacity:1; fill:none" points="1138.45,1236.4 1138.45,1217.51 "/>
<polyline clip-path="url(#clip100)" style="stroke:#000000; stroke-linecap:round; stroke-linejoin:round; stroke-width:4; stroke-opacity:1; fill:none" points="1375.53,1236.4 1375.53,1217.51 "/>
<polyline clip-path="url(#clip100)" style="stroke:#000000; stroke-linecap:round; stroke-linejoin:round; stroke-width:4; stroke-opacity:1; fill:none" points="1714.79,1236.4 1714.79,1217.51 "/>
<polyline clip-path="url(#clip100)" style="stroke:#000000; stroke-linecap:round; stroke-linejoin:round; stroke-width:4; stroke-opacity:1; fill:none" points="1951.87,1236.4 1951.87,1217.51 "/>
<polyline clip-path="url(#clip100)" style="stroke:#000000; stroke-linecap:round; stroke-linejoin:round; stroke-width:4; stroke-opacity:1; fill:none" points="2188.95,1236.4 2188.95,1217.51 "/>
<path clip-path="url(#clip100)" d="M202.787 1405.59 L213.852 1416.65 L210.841 1419.67 L199.874 1408.7 Q197.271 1406.1 194.963 1405.82 Q192.656 1405.54 190.626 1407.57 Q188.187 1410.01 188.334 1412.97 Q188.482 1415.93 191.166 1418.62 L201.527 1428.98 L198.499 1432.01 L180.167 1413.68 L183.195 1410.65 L186.043 1413.5 Q185.47 1410.76 186.108 1408.49 Q186.763 1406.2 188.678 1404.28 Q191.837 1401.12 195.422 1401.47 Q198.99 1401.79 202.787 1405.59 Z" fill="#000000" fill-rule="nonzero" fill-opacity="1" /><path clip-path="url(#clip100)" d="M218.976 1393.1 Q215.325 1396.75 214.753 1398.99 Q214.18 1401.24 216.193 1403.25 Q217.797 1404.85 219.794 1404.76 Q221.791 1404.62 223.608 1402.81 Q226.112 1400.3 225.85 1397.03 Q225.588 1393.72 222.642 1390.78 L221.971 1390.11 L218.976 1393.1 M223.739 1385.85 L234.198 1396.31 L231.186 1399.32 L228.404 1396.54 Q229.042 1399.24 228.305 1401.58 Q227.552 1403.9 225.326 1406.13 Q222.511 1408.95 219.27 1409.04 Q216.029 1409.11 213.378 1406.46 Q210.284 1403.36 210.775 1399.73 Q211.282 1396.08 215.391 1391.97 L219.614 1387.75 L219.319 1387.45 Q217.24 1385.38 214.736 1385.62 Q212.232 1385.83 209.76 1388.31 Q208.189 1389.88 207.076 1391.74 Q205.963 1393.61 205.341 1395.74 L202.558 1392.95 Q203.573 1390.66 204.817 1388.8 Q206.045 1386.91 207.518 1385.44 Q211.495 1381.46 215.522 1381.56 Q219.548 1381.66 223.739 1385.85 Z" fill="#000000" fill-rule="nonzero" fill-opacity="1" /><path clip-path="url(#clip100)" d="M222.069 1371.77 L225.081 1368.76 L243.413 1387.09 L240.401 1390.11 L222.069 1371.77 M214.933 1364.64 L217.944 1361.63 L221.758 1365.44 L218.746 1368.45 L214.933 1364.64 Z" fill="#000000" fill-rule="nonzero" fill-opacity="1" /><path clip-path="url(#clip100)" d="M229.222 1364.62 L232.414 1361.43 L253.529 1371.09 L243.871 1349.97 L247.063 1346.78 L258.521 1371.99 L254.429 1376.08 L229.222 1364.62 Z" fill="#000000" fill-rule="nonzero" fill-opacity="1" /><path clip-path="url(#clip100)" d="M275.315 1335.35 L276.788 1336.83 L262.94 1350.67 Q266.247 1353.59 269.553 1353.56 Q272.859 1353.49 275.855 1350.49 Q277.59 1348.76 278.785 1346.71 Q279.996 1344.65 280.749 1342.2 L283.597 1345.04 Q282.664 1347.35 281.322 1349.41 Q279.98 1351.48 278.228 1353.23 Q273.841 1357.61 268.718 1357.63 Q263.611 1357.63 259.257 1353.28 Q254.756 1348.78 254.543 1343.72 Q254.331 1338.63 258.455 1334.5 Q262.155 1330.8 266.689 1331.05 Q271.223 1331.26 275.315 1335.35 M271.419 1337.48 Q268.915 1335.04 266.083 1334.93 Q263.268 1334.8 261.042 1337.02 Q258.521 1339.54 258.423 1342.49 Q258.341 1345.42 260.698 1348.24 L271.419 1337.48 Z" fill="#000000" fill-rule="nonzero" fill-opacity="1" /><path clip-path="url(#clip100)" d="M282.631 1297 Q284.202 1302.96 286.821 1307.71 Q289.44 1312.46 293.221 1316.24 Q297.002 1320.02 301.782 1322.67 Q306.561 1325.29 312.487 1326.86 L309.868 1329.48 Q303.566 1328.09 298.623 1325.6 Q293.696 1323.09 290.03 1319.43 Q286.379 1315.78 283.891 1310.87 Q281.404 1305.96 280.012 1299.62 L282.631 1297 Z" fill="#000000" fill-rule="nonzero" fill-opacity="1" /><path clip-path="url(#clip100)" d="M309.786 1275.61 L313.272 1279.1 Q310.048 1279.21 307.38 1280.34 Q304.728 1281.45 302.6 1283.58 Q298.41 1287.77 298.754 1292.57 Q299.081 1297.35 303.926 1302.19 Q308.755 1307.02 313.551 1307.36 Q318.33 1307.69 322.52 1303.5 Q324.648 1301.37 325.761 1298.72 Q326.891 1296.05 327.005 1292.83 L330.459 1296.28 Q329.902 1299.2 328.544 1301.73 Q327.202 1304.25 325.041 1306.42 Q319.492 1311.96 312.912 1311.77 Q306.316 1311.55 300.44 1305.68 Q294.547 1299.79 294.351 1293.21 Q294.138 1286.61 299.687 1281.06 Q301.88 1278.87 304.401 1277.53 Q306.921 1276.15 309.786 1275.61 Z" fill="#000000" fill-rule="nonzero" fill-opacity="1" /><path clip-path="url(#clip100)" d="M311.406 1268.23 L314.025 1265.61 Q320.343 1267.02 325.254 1269.51 Q330.181 1271.98 333.831 1275.63 Q337.497 1279.29 339.985 1284.24 Q342.489 1289.16 343.881 1295.47 L341.262 1298.08 Q339.69 1292.16 337.055 1287.4 Q334.42 1282.6 330.639 1278.82 Q326.858 1275.04 322.095 1272.44 Q317.348 1269.82 311.406 1268.23 Z" fill="#000000" fill-rule="nonzero" fill-opacity="1" /><path clip-path="url(#clip100)" d="M352.43 1482.72 Q350.007 1485.14 350.498 1488.45 Q350.973 1491.74 354.263 1495.03 Q357.553 1498.32 360.843 1498.82 Q364.133 1499.3 366.572 1496.86 Q368.978 1494.45 368.487 1491.15 Q367.996 1487.84 364.722 1484.57 Q361.465 1481.31 358.158 1480.82 Q354.836 1480.31 352.43 1482.72 M349.876 1480.16 Q353.804 1476.23 358.6 1476.55 Q363.396 1476.86 367.914 1481.37 Q372.415 1485.88 372.742 1490.69 Q373.053 1495.48 369.125 1499.41 Q365.18 1503.36 360.384 1503.05 Q355.589 1502.7 351.087 1498.2 Q346.57 1493.68 346.242 1488.9 Q345.931 1484.11 349.876 1480.16 Z" fill="#000000" fill-rule="nonzero" fill-opacity="1" /><path clip-path="url(#clip100)" d="M382.22 1479.87 L391.942 1489.59 L388.914 1492.62 L363.609 1467.31 L366.637 1464.29 L369.42 1467.07 Q368.732 1464.48 369.387 1462.26 Q370.042 1460 372.055 1457.98 Q375.394 1454.65 380.124 1455.22 Q384.871 1455.77 389.192 1460.1 Q393.514 1464.42 394.07 1469.16 Q394.643 1473.89 391.304 1477.23 Q389.291 1479.25 387.048 1479.92 Q384.806 1480.56 382.22 1479.87 M386.066 1463.22 Q382.743 1459.9 379.486 1459.39 Q376.229 1458.85 373.839 1461.24 Q371.449 1463.63 371.973 1466.9 Q372.497 1470.15 375.82 1473.47 Q379.142 1476.79 382.4 1477.33 Q385.657 1477.84 388.047 1475.45 Q390.436 1473.06 389.913 1469.82 Q389.389 1466.54 386.066 1463.22 Z" fill="#000000" fill-rule="nonzero" fill-opacity="1" /><path clip-path="url(#clip100)" d="M382.776 1437.74 L387.981 1442.94 L394.185 1436.74 L396.525 1439.08 L390.322 1445.28 L400.274 1455.23 Q402.516 1457.48 403.76 1457.51 Q405.02 1457.53 406.903 1455.64 L409.996 1452.55 L412.517 1455.07 L409.423 1458.16 Q405.937 1461.65 403.318 1461.68 Q400.683 1461.7 397.245 1458.26 L387.294 1448.31 L385.084 1450.52 L382.743 1448.18 L384.953 1445.97 L379.748 1440.76 L382.776 1437.74 Z" fill="#000000" fill-rule="nonzero" fill-opacity="1" /><path clip-path="url(#clip100)" d="M398.146 1432.78 L401.157 1429.77 L419.49 1448.1 L416.478 1451.11 L398.146 1432.78 M391.009 1425.64 L394.021 1422.63 L397.835 1426.44 L394.823 1429.45 L391.009 1425.64 Z" fill="#000000" fill-rule="nonzero" fill-opacity="1" /><path clip-path="url(#clip100)" d="M425.251 1412.71 Q424.351 1409.55 424.957 1407.01 Q425.562 1404.48 427.69 1402.35 Q430.555 1399.48 434.123 1399.94 Q437.675 1400.38 441.374 1404.08 L452.439 1415.15 L449.411 1418.18 L438.444 1407.21 Q435.809 1404.57 433.599 1404.23 Q431.389 1403.89 429.474 1405.8 Q427.134 1408.14 427.33 1411.06 Q427.527 1413.97 430.211 1416.65 L440.572 1427.02 L437.544 1430.04 L426.577 1419.08 Q423.926 1416.43 421.732 1416.1 Q419.523 1415.75 417.575 1417.7 Q415.267 1420.01 415.48 1422.94 Q415.676 1425.85 418.344 1428.52 L428.705 1438.88 L425.677 1441.91 L407.345 1423.58 L410.373 1420.55 L413.221 1423.4 Q412.566 1420.68 413.204 1418.44 Q413.843 1416.2 415.823 1414.22 Q417.82 1412.22 420.226 1411.84 Q422.649 1411.45 425.251 1412.71 Z" fill="#000000" fill-rule="nonzero" fill-opacity="1" /><path clip-path="url(#clip100)" d="M440.114 1390.81 L443.125 1387.8 L461.458 1406.13 L458.446 1409.14 L440.114 1390.81 M432.977 1383.67 L435.989 1380.66 L439.803 1384.47 L436.791 1387.49 L432.977 1383.67 Z" fill="#000000" fill-rule="nonzero" fill-opacity="1" /><path clip-path="url(#clip100)" d="M448.118 1382.81 L462.423 1368.5 L465.173 1371.25 L467.023 1395.75 L478.35 1384.43 L480.756 1386.83 L466.041 1401.55 L463.291 1398.8 L461.441 1374.29 L450.524 1385.21 L448.118 1382.81 Z" fill="#000000" fill-rule="nonzero" fill-opacity="1" /><path clip-path="url(#clip100)" d="M491.117 1356.63 L492.59 1358.11 L478.742 1371.95 Q482.049 1374.87 485.355 1374.83 Q488.661 1374.77 491.657 1371.77 Q493.392 1370.04 494.587 1367.99 Q495.798 1365.93 496.551 1363.47 L499.399 1366.32 Q498.466 1368.63 497.124 1370.69 Q495.782 1372.76 494.03 1374.51 Q489.644 1378.89 484.52 1378.91 Q479.413 1378.91 475.06 1374.56 Q470.558 1370.05 470.346 1365 Q470.133 1359.91 474.258 1355.78 Q477.957 1352.08 482.491 1352.33 Q487.025 1352.54 491.117 1356.63 M487.221 1358.76 Q484.717 1356.32 481.885 1356.21 Q479.07 1356.08 476.844 1358.3 Q474.323 1360.82 474.225 1363.77 Q474.143 1366.7 476.5 1369.51 L487.221 1358.76 Z" fill="#000000" fill-rule="nonzero" fill-opacity="1" /><path clip-path="url(#clip100)" d="M502.493 1334 L492.573 1324.08 L495.585 1321.06 L521.054 1346.53 L518.042 1349.55 L515.292 1346.8 Q515.98 1349.38 515.325 1351.64 Q514.67 1353.87 512.641 1355.9 Q509.318 1359.22 504.571 1358.66 Q499.841 1358.09 495.52 1353.77 Q491.199 1349.45 490.626 1344.72 Q490.069 1339.97 493.392 1336.65 Q495.421 1334.62 497.664 1333.98 Q499.906 1333.31 502.493 1334 M498.63 1350.66 Q501.952 1353.98 505.21 1354.52 Q508.467 1355.03 510.857 1352.64 Q513.246 1350.25 512.739 1346.99 Q512.215 1343.72 508.892 1340.4 Q505.57 1337.07 502.312 1336.57 Q499.039 1336.04 496.649 1338.43 Q494.259 1340.82 494.783 1344.09 Q495.307 1347.34 498.63 1350.66 Z" fill="#000000" fill-rule="nonzero" fill-opacity="1" /><path clip-path="url(#clip100)" d="M519.712 1297 Q521.283 1302.96 523.902 1307.71 Q526.521 1312.46 530.302 1316.24 Q534.083 1320.02 538.863 1322.67 Q543.642 1325.29 549.567 1326.86 L546.948 1329.48 Q540.647 1328.09 535.703 1325.6 Q530.777 1323.09 527.11 1319.43 Q523.46 1315.78 520.972 1310.87 Q518.484 1305.96 517.093 1299.62 L519.712 1297 Z" fill="#000000" fill-rule="nonzero" fill-opacity="1" /><path clip-path="url(#clip100)" d="M546.867 1275.61 L550.353 1279.1 Q547.128 1279.21 544.46 1280.34 Q541.809 1281.45 539.681 1283.58 Q535.491 1287.77 535.834 1292.57 Q536.162 1297.35 541.007 1302.19 Q545.835 1307.02 550.631 1307.36 Q555.411 1307.69 559.601 1303.5 Q561.729 1301.37 562.842 1298.72 Q563.971 1296.05 564.086 1292.83 L567.539 1296.28 Q566.983 1299.2 565.624 1301.73 Q564.282 1304.25 562.122 1306.42 Q556.573 1311.96 549.993 1311.77 Q543.396 1311.55 537.52 1305.68 Q531.628 1299.79 531.431 1293.21 Q531.219 1286.61 536.767 1281.06 Q538.961 1278.87 541.481 1277.53 Q544.002 1276.15 546.867 1275.61 Z" fill="#000000" fill-rule="nonzero" fill-opacity="1" /><path clip-path="url(#clip100)" d="M548.487 1268.23 L551.106 1265.61 Q557.424 1267.02 562.334 1269.51 Q567.261 1271.98 570.911 1275.63 Q574.578 1279.29 577.066 1284.24 Q579.57 1289.16 580.961 1295.47 L578.342 1298.08 Q576.771 1292.16 574.136 1287.4 Q571.501 1282.6 567.72 1278.82 Q563.938 1275.04 559.175 1272.44 Q554.429 1269.82 548.487 1268.23 Z" fill="#000000" fill-rule="nonzero" fill-opacity="1" /><path clip-path="url(#clip100)" d="M615.113 1549.37 L617.929 1552.18 Q615.948 1552.76 614.311 1553.7 Q612.674 1554.62 611.365 1555.93 Q608.435 1558.86 608.681 1562.35 Q608.91 1565.82 612.265 1569.17 Q615.621 1572.53 619.107 1572.77 Q622.577 1573 625.507 1570.07 Q626.816 1568.76 627.749 1567.14 Q628.682 1565.49 629.255 1563.51 L632.038 1566.29 Q631.367 1568.14 630.303 1569.79 Q629.255 1571.43 627.733 1572.95 Q623.592 1577.1 618.551 1576.93 Q613.509 1576.77 609.09 1572.35 Q604.605 1567.86 604.49 1562.84 Q604.392 1557.8 608.681 1553.51 Q610.072 1552.12 611.692 1551.09 Q613.296 1550.04 615.113 1549.37 Z" fill="#000000" fill-rule="nonzero" fill-opacity="1" /><path clip-path="url(#clip100)" d="M628.862 1538.43 Q626.44 1540.86 626.931 1544.16 Q627.406 1547.45 630.696 1550.74 Q633.986 1554.03 637.276 1554.54 Q640.566 1555.01 643.005 1552.58 Q645.411 1550.17 644.92 1546.86 Q644.429 1543.56 641.155 1540.28 Q637.898 1537.03 634.591 1536.53 Q631.269 1536.03 628.862 1538.43 M626.309 1535.88 Q630.237 1531.95 635.033 1532.26 Q639.829 1532.57 644.347 1537.09 Q648.848 1541.59 649.175 1546.4 Q649.486 1551.2 645.558 1555.13 Q641.613 1559.07 636.817 1558.76 Q632.021 1558.42 627.52 1553.92 Q623.003 1549.4 622.675 1544.62 Q622.364 1539.82 626.309 1535.88 Z" fill="#000000" fill-rule="nonzero" fill-opacity="1" /><path clip-path="url(#clip100)" d="M633.02 1515.78 L636.032 1512.77 L661.5 1538.24 L658.489 1541.25 L633.02 1515.78 Z" fill="#000000" fill-rule="nonzero" fill-opacity="1" /><path clip-path="url(#clip100)" d="M667.262 1502.85 Q666.362 1499.69 666.967 1497.15 Q667.573 1494.62 669.701 1492.49 Q672.565 1489.62 676.134 1490.08 Q679.685 1490.52 683.385 1494.22 L694.45 1505.29 L691.421 1508.32 L680.455 1497.35 Q677.82 1494.71 675.61 1494.37 Q673.4 1494.03 671.485 1495.94 Q669.144 1498.28 669.341 1501.2 Q669.537 1504.11 672.222 1506.79 L682.583 1517.15 L679.555 1520.18 L668.588 1509.22 Q665.936 1506.56 663.743 1506.24 Q661.533 1505.89 659.585 1507.84 Q657.278 1510.15 657.49 1513.08 Q657.687 1515.99 660.355 1518.66 L670.716 1529.02 L667.688 1532.05 L649.355 1513.72 L652.383 1510.69 L655.231 1513.54 Q654.577 1510.82 655.215 1508.58 Q655.853 1506.34 657.834 1504.36 Q659.831 1502.36 662.237 1501.98 Q664.66 1501.59 667.262 1502.85 Z" fill="#000000" fill-rule="nonzero" fill-opacity="1" /><path clip-path="url(#clip100)" d="M699.573 1481.73 Q695.923 1485.38 695.35 1487.63 Q694.777 1489.87 696.79 1491.88 Q698.394 1493.49 700.391 1493.39 Q702.388 1493.26 704.205 1491.44 Q706.709 1488.94 706.447 1485.66 Q706.185 1482.36 703.239 1479.41 L702.568 1478.74 L699.573 1481.73 M704.336 1474.48 L714.795 1484.94 L711.783 1487.95 L709.001 1485.17 Q709.639 1487.87 708.903 1490.21 Q708.15 1492.54 705.924 1494.76 Q703.108 1497.58 699.867 1497.68 Q696.626 1497.74 693.975 1495.09 Q690.881 1492 691.372 1488.36 Q691.88 1484.71 695.988 1480.6 L700.211 1476.38 L699.916 1476.09 Q697.838 1474.01 695.333 1474.25 Q692.829 1474.47 690.357 1476.94 Q688.786 1478.51 687.673 1480.38 Q686.56 1482.24 685.938 1484.37 L683.156 1481.59 Q684.17 1479.3 685.414 1477.43 Q686.642 1475.55 688.115 1474.07 Q692.093 1470.1 696.119 1470.19 Q700.146 1470.29 704.336 1474.48 Z" fill="#000000" fill-rule="nonzero" fill-opacity="1" /><path clip-path="url(#clip100)" d="M702.666 1460.41 L705.678 1457.39 L724.338 1476.05 Q727.84 1479.56 728.07 1482.47 Q728.315 1485.37 725.353 1488.33 L724.207 1489.48 L721.653 1486.92 L722.455 1486.12 Q724.174 1484.4 723.994 1482.98 Q723.83 1481.57 721.326 1479.07 L702.666 1460.41 M695.53 1453.27 L698.542 1450.26 L702.355 1454.07 L699.344 1457.08 L695.53 1453.27 Z" fill="#000000" fill-rule="nonzero" fill-opacity="1" /><path clip-path="url(#clip100)" d="M721.195 1446.1 Q718.773 1448.52 719.264 1451.83 Q719.738 1455.12 723.028 1458.41 Q726.318 1461.7 729.608 1462.21 Q732.898 1462.68 735.337 1460.24 Q737.743 1457.84 737.252 1454.53 Q736.761 1451.22 733.487 1447.95 Q730.23 1444.69 726.924 1444.2 Q723.601 1443.69 721.195 1446.1 M718.642 1443.55 Q722.57 1439.62 727.366 1439.93 Q732.162 1440.24 736.679 1444.76 Q741.181 1449.26 741.508 1454.07 Q741.819 1458.87 737.891 1462.8 Q733.946 1466.74 729.15 1466.43 Q724.354 1466.09 719.853 1461.59 Q715.335 1457.07 715.008 1452.29 Q714.697 1447.49 718.642 1443.55 Z" fill="#000000" fill-rule="nonzero" fill-opacity="1" /><path clip-path="url(#clip100)" d="M745.927 1422.78 Q745.125 1422.99 744.389 1423.46 Q743.652 1423.91 742.932 1424.63 Q740.378 1427.18 740.673 1430.22 Q740.968 1433.24 744.078 1436.35 L753.735 1446 L750.707 1449.03 L732.374 1430.7 L735.403 1427.67 L738.251 1430.52 Q737.53 1427.9 738.251 1425.58 Q738.954 1423.23 741.131 1421.06 Q741.442 1420.75 741.868 1420.42 Q742.277 1420.08 742.817 1419.7 L745.927 1422.78 Z" fill="#000000" fill-rule="nonzero" fill-opacity="1" /><path clip-path="url(#clip100)" d="M784.098 1426.77 L786.438 1429.11 L769.023 1446.53 L766.682 1444.19 L784.098 1426.77 Z" fill="#000000" fill-rule="nonzero" fill-opacity="1" /><path clip-path="url(#clip100)" d="M785.538 1392.07 L796.603 1403.13 L793.591 1406.15 L782.625 1395.18 Q780.022 1392.58 777.714 1392.3 Q775.406 1392.02 773.377 1394.05 Q770.938 1396.49 771.085 1399.45 Q771.232 1402.41 773.917 1405.1 L784.278 1415.46 L781.25 1418.49 L762.917 1400.16 L765.945 1397.13 L768.794 1399.98 Q768.221 1397.24 768.859 1394.97 Q769.514 1392.68 771.429 1390.76 Q774.588 1387.6 778.172 1387.94 Q781.741 1388.27 785.538 1392.07 Z" fill="#000000" fill-rule="nonzero" fill-opacity="1" /><path clip-path="url(#clip100)" d="M801.726 1379.58 Q798.076 1383.23 797.503 1385.47 Q796.93 1387.72 798.944 1389.73 Q800.548 1391.33 802.545 1391.23 Q804.542 1391.1 806.358 1389.29 Q808.863 1386.78 808.601 1383.51 Q808.339 1380.2 805.393 1377.26 L804.722 1376.59 L801.726 1379.58 M806.489 1372.33 L816.949 1382.79 L813.937 1385.8 L811.154 1383.02 Q811.793 1385.72 811.056 1388.06 Q810.303 1390.38 808.077 1392.61 Q805.262 1395.43 802.021 1395.52 Q798.78 1395.59 796.128 1392.94 Q793.035 1389.84 793.526 1386.21 Q794.033 1382.56 798.142 1378.45 L802.365 1374.23 L802.07 1373.93 Q799.991 1371.86 797.487 1372.1 Q794.983 1372.31 792.511 1374.79 Q790.94 1376.36 789.827 1378.22 Q788.714 1380.09 788.092 1382.22 L785.309 1379.43 Q786.324 1377.14 787.568 1375.28 Q788.795 1373.39 790.269 1371.92 Q794.246 1367.94 798.273 1368.04 Q802.299 1368.14 806.489 1372.33 Z" fill="#000000" fill-rule="nonzero" fill-opacity="1" /><path clip-path="url(#clip100)" d="M804.82 1358.25 L807.832 1355.24 L826.164 1373.57 L823.152 1376.59 L804.82 1358.25 M797.683 1351.12 L800.695 1348.1 L804.509 1351.92 L801.497 1354.93 L797.683 1351.12 Z" fill="#000000" fill-rule="nonzero" fill-opacity="1" /><path clip-path="url(#clip100)" d="M811.973 1351.1 L815.164 1347.91 L836.279 1357.57 L826.622 1336.45 L829.814 1333.26 L841.272 1358.47 L837.18 1362.56 L811.973 1351.1 Z" fill="#000000" fill-rule="nonzero" fill-opacity="1" /><path clip-path="url(#clip100)" d="M858.065 1321.83 L859.538 1323.31 L845.691 1337.15 Q848.997 1340.07 852.304 1340.04 Q855.61 1339.97 858.605 1336.97 Q860.34 1335.24 861.535 1333.19 Q862.747 1331.13 863.5 1328.68 L866.348 1331.52 Q865.415 1333.83 864.072 1335.89 Q862.73 1337.96 860.979 1339.71 Q856.592 1344.09 851.469 1344.11 Q846.362 1344.11 842.008 1339.76 Q837.507 1335.26 837.294 1330.2 Q837.081 1325.11 841.206 1320.98 Q844.905 1317.28 849.439 1317.53 Q853.973 1317.74 858.065 1321.83 M854.17 1323.96 Q851.665 1321.52 848.834 1321.41 Q846.018 1321.28 843.792 1323.5 Q841.272 1326.02 841.173 1328.97 Q841.092 1331.9 843.449 1334.72 L854.17 1323.96 Z" fill="#000000" fill-rule="nonzero" fill-opacity="1" /><path clip-path="url(#clip100)" d="M865.382 1283.48 Q866.953 1289.44 869.572 1294.19 Q872.191 1298.94 875.972 1302.72 Q879.753 1306.5 884.533 1309.15 Q889.312 1311.77 895.237 1313.34 L892.618 1315.96 Q886.317 1314.57 881.374 1312.08 Q876.447 1309.57 872.78 1305.91 Q869.13 1302.26 866.642 1297.35 Q864.154 1292.44 862.763 1286.1 L865.382 1283.48 Z" fill="#000000" fill-rule="nonzero" fill-opacity="1" /><path clip-path="url(#clip100)" d="M872.355 1278.51 L875.661 1275.2 L898.396 1297.94 Q902.816 1302.36 903.127 1306.04 Q903.454 1309.71 899.739 1313.42 L898.478 1314.68 L895.696 1311.9 L896.727 1310.87 Q898.92 1308.67 898.593 1306.55 Q898.265 1304.42 895.09 1301.24 L872.355 1278.51 Z" fill="#000000" fill-rule="nonzero" fill-opacity="1" /><path clip-path="url(#clip100)" d="M880.637 1268.23 L883.256 1265.61 Q889.574 1267.02 894.484 1269.51 Q899.411 1271.98 903.061 1275.63 Q906.728 1279.29 909.216 1284.24 Q911.72 1289.16 913.111 1295.47 L910.492 1298.08 Q908.921 1292.16 906.286 1287.4 Q903.651 1282.6 899.869 1278.82 Q896.088 1275.04 891.325 1272.44 Q886.579 1269.82 880.637 1268.23 Z" fill="#000000" fill-rule="nonzero" fill-opacity="1" /><path clip-path="url(#clip100)" d="M1022.62 1392.07 L1033.68 1403.13 L1030.67 1406.15 L1019.71 1395.18 Q1017.1 1392.58 1014.79 1392.3 Q1012.49 1392.02 1010.46 1394.05 Q1008.02 1396.49 1008.17 1399.45 Q1008.31 1402.41 1011 1405.1 L1021.36 1415.46 L1018.33 1418.49 L999.998 1400.16 L1003.03 1397.13 L1005.87 1399.98 Q1005.3 1397.24 1005.94 1394.97 Q1006.59 1392.68 1008.51 1390.76 Q1011.67 1387.6 1015.25 1387.94 Q1018.82 1388.27 1022.62 1392.07 Z" fill="#000000" fill-rule="nonzero" fill-opacity="1" /><path clip-path="url(#clip100)" d="M1038.81 1379.58 Q1035.16 1383.23 1034.58 1385.47 Q1034.01 1387.72 1036.02 1389.73 Q1037.63 1391.33 1039.63 1391.23 Q1041.62 1391.1 1043.44 1389.29 Q1045.94 1386.78 1045.68 1383.51 Q1045.42 1380.2 1042.47 1377.26 L1041.8 1376.59 L1038.81 1379.58 M1043.57 1372.33 L1054.03 1382.79 L1051.02 1385.8 L1048.23 1383.02 Q1048.87 1385.72 1048.14 1388.06 Q1047.38 1390.38 1045.16 1392.61 Q1042.34 1395.43 1039.1 1395.52 Q1035.86 1395.59 1033.21 1392.94 Q1030.12 1389.84 1030.61 1386.21 Q1031.11 1382.56 1035.22 1378.45 L1039.45 1374.23 L1039.15 1373.93 Q1037.07 1371.86 1034.57 1372.1 Q1032.06 1372.31 1029.59 1374.79 Q1028.02 1376.36 1026.91 1378.22 Q1025.79 1380.09 1025.17 1382.22 L1022.39 1379.43 Q1023.4 1377.14 1024.65 1375.28 Q1025.88 1373.39 1027.35 1371.92 Q1031.33 1367.94 1035.35 1368.04 Q1039.38 1368.14 1043.57 1372.33 Z" fill="#000000" fill-rule="nonzero" fill-opacity="1" /><path clip-path="url(#clip100)" d="M1041.9 1358.25 L1044.91 1355.24 L1063.24 1373.57 L1060.23 1376.59 L1041.9 1358.25 M1034.76 1351.12 L1037.78 1348.1 L1041.59 1351.92 L1038.58 1354.93 L1034.76 1351.12 Z" fill="#000000" fill-rule="nonzero" fill-opacity="1" /><path clip-path="url(#clip100)" d="M1049.05 1351.1 L1052.25 1347.91 L1073.36 1357.57 L1063.7 1336.45 L1066.89 1333.26 L1078.35 1358.47 L1074.26 1362.56 L1049.05 1351.1 Z" fill="#000000" fill-rule="nonzero" fill-opacity="1" /><path clip-path="url(#clip100)" d="M1095.15 1321.83 L1096.62 1323.31 L1082.77 1337.15 Q1086.08 1340.07 1089.38 1340.04 Q1092.69 1339.97 1095.69 1336.97 Q1097.42 1335.24 1098.62 1333.19 Q1099.83 1331.13 1100.58 1328.68 L1103.43 1331.52 Q1102.5 1333.83 1101.15 1335.89 Q1099.81 1337.96 1098.06 1339.71 Q1093.67 1344.09 1088.55 1344.11 Q1083.44 1344.11 1079.09 1339.76 Q1074.59 1335.26 1074.37 1330.2 Q1074.16 1325.11 1078.29 1320.98 Q1081.99 1317.28 1086.52 1317.53 Q1091.05 1317.74 1095.15 1321.83 M1091.25 1323.96 Q1088.75 1321.52 1085.91 1321.41 Q1083.1 1321.28 1080.87 1323.5 Q1078.35 1326.02 1078.25 1328.97 Q1078.17 1331.9 1080.53 1334.72 L1091.25 1323.96 Z" fill="#000000" fill-rule="nonzero" fill-opacity="1" /><path clip-path="url(#clip100)" d="M1102.46 1283.48 Q1104.03 1289.44 1106.65 1294.19 Q1109.27 1298.94 1113.05 1302.72 Q1116.83 1306.5 1121.61 1309.15 Q1126.39 1311.77 1132.32 1313.34 L1129.7 1315.96 Q1123.4 1314.57 1118.45 1312.08 Q1113.53 1309.57 1109.86 1305.91 Q1106.21 1302.26 1103.72 1297.35 Q1101.23 1292.44 1099.84 1286.1 L1102.46 1283.48 Z" fill="#000000" fill-rule="nonzero" fill-opacity="1" /><path clip-path="url(#clip100)" d="M1109.44 1278.51 L1112.74 1275.2 L1135.48 1297.94 Q1139.9 1302.36 1140.21 1306.04 Q1140.53 1309.71 1136.82 1313.42 L1135.56 1314.68 L1132.78 1311.9 L1133.81 1310.87 Q1136 1308.67 1135.67 1306.55 Q1135.35 1304.42 1132.17 1301.24 L1109.44 1278.51 Z" fill="#000000" fill-rule="nonzero" fill-opacity="1" /><path clip-path="url(#clip100)" d="M1117.72 1268.23 L1120.34 1265.61 Q1126.65 1267.02 1131.57 1269.51 Q1136.49 1271.98 1140.14 1275.63 Q1143.81 1279.29 1146.3 1284.24 Q1148.8 1289.16 1150.19 1295.47 L1147.57 1298.08 Q1146 1292.16 1143.37 1287.4 Q1140.73 1282.6 1136.95 1278.82 Q1133.17 1275.04 1128.41 1272.44 Q1123.66 1269.82 1117.72 1268.23 Z" fill="#000000" fill-rule="nonzero" fill-opacity="1" /><path clip-path="url(#clip100)" d="M1172.26 1469.2 Q1169.84 1471.62 1170.33 1474.93 Q1170.8 1478.22 1174.09 1481.51 Q1177.38 1484.8 1180.67 1485.3 Q1183.96 1485.78 1186.4 1483.34 Q1188.81 1480.93 1188.32 1477.63 Q1187.83 1474.32 1184.55 1471.05 Q1181.3 1467.79 1177.99 1467.3 Q1174.67 1466.79 1172.26 1469.2 M1169.71 1466.64 Q1173.64 1462.71 1178.43 1463.03 Q1183.23 1463.34 1187.75 1467.85 Q1192.25 1472.36 1192.57 1477.17 Q1192.88 1481.96 1188.96 1485.89 Q1185.01 1489.84 1180.22 1489.53 Q1175.42 1489.18 1170.92 1484.68 Q1166.4 1480.16 1166.07 1475.38 Q1165.76 1470.59 1169.71 1466.64 Z" fill="#000000" fill-rule="nonzero" fill-opacity="1" /><path clip-path="url(#clip100)" d="M1202.05 1466.35 L1211.77 1476.07 L1208.75 1479.1 L1183.44 1453.79 L1186.47 1450.77 L1189.25 1453.55 Q1188.56 1450.96 1189.22 1448.74 Q1189.87 1446.48 1191.89 1444.46 Q1195.23 1441.13 1199.96 1441.7 Q1204.7 1442.25 1209.02 1446.58 Q1213.34 1450.9 1213.9 1455.64 Q1214.47 1460.37 1211.14 1463.71 Q1209.12 1465.73 1206.88 1466.4 Q1204.64 1467.04 1202.05 1466.35 M1205.9 1449.7 Q1202.57 1446.38 1199.32 1445.87 Q1196.06 1445.33 1193.67 1447.72 Q1191.28 1450.11 1191.8 1453.38 Q1192.33 1456.63 1195.65 1459.95 Q1198.97 1463.27 1202.23 1463.81 Q1205.49 1464.32 1207.88 1461.93 Q1210.27 1459.54 1209.74 1456.3 Q1209.22 1453.02 1205.9 1449.7 Z" fill="#000000" fill-rule="nonzero" fill-opacity="1" /><path clip-path="url(#clip100)" d="M1202.61 1424.22 L1207.81 1429.42 L1214.02 1423.22 L1216.36 1425.56 L1210.15 1431.76 L1220.1 1441.71 Q1222.35 1443.96 1223.59 1443.99 Q1224.85 1444.01 1226.73 1442.12 L1229.83 1439.03 L1232.35 1441.55 L1229.25 1444.64 Q1225.77 1448.13 1223.15 1448.16 Q1220.51 1448.18 1217.08 1444.74 L1207.13 1434.79 L1204.92 1437 L1202.57 1434.66 L1204.78 1432.45 L1199.58 1427.24 L1202.61 1424.22 Z" fill="#000000" fill-rule="nonzero" fill-opacity="1" /><path clip-path="url(#clip100)" d="M1217.98 1419.26 L1220.99 1416.25 L1239.32 1434.58 L1236.31 1437.59 L1217.98 1419.26 M1210.84 1412.12 L1213.85 1409.11 L1217.67 1412.92 L1214.65 1415.93 L1210.84 1412.12 Z" fill="#000000" fill-rule="nonzero" fill-opacity="1" /><path clip-path="url(#clip100)" d="M1245.08 1399.19 Q1244.18 1396.03 1244.79 1393.49 Q1245.39 1390.96 1247.52 1388.83 Q1250.39 1385.96 1253.95 1386.42 Q1257.51 1386.86 1261.21 1390.56 L1272.27 1401.63 L1269.24 1404.66 L1258.28 1393.69 Q1255.64 1391.05 1253.43 1390.71 Q1251.22 1390.37 1249.31 1392.28 Q1246.97 1394.62 1247.16 1397.54 Q1247.36 1400.45 1250.04 1403.13 L1260.4 1413.5 L1257.38 1416.52 L1246.41 1405.56 Q1243.76 1402.91 1241.56 1402.58 Q1239.35 1402.23 1237.41 1404.18 Q1235.1 1406.49 1235.31 1409.42 Q1235.51 1412.33 1238.18 1415 L1248.54 1425.36 L1245.51 1428.39 L1227.18 1410.06 L1230.2 1407.03 L1233.05 1409.88 Q1232.4 1407.16 1233.04 1404.92 Q1233.67 1402.68 1235.65 1400.7 Q1237.65 1398.7 1240.06 1398.32 Q1242.48 1397.93 1245.08 1399.19 Z" fill="#000000" fill-rule="nonzero" fill-opacity="1" /><path clip-path="url(#clip100)" d="M1259.94 1377.29 L1262.96 1374.28 L1281.29 1392.61 L1278.28 1395.62 L1259.94 1377.29 M1252.81 1370.15 L1255.82 1367.14 L1259.63 1370.95 L1256.62 1373.97 L1252.81 1370.15 Z" fill="#000000" fill-rule="nonzero" fill-opacity="1" /><path clip-path="url(#clip100)" d="M1267.95 1369.29 L1282.25 1354.98 L1285 1357.73 L1286.85 1382.23 L1298.18 1370.91 L1300.59 1373.31 L1285.87 1388.03 L1283.12 1385.28 L1281.27 1360.77 L1270.36 1371.69 L1267.95 1369.29 Z" fill="#000000" fill-rule="nonzero" fill-opacity="1" /><path clip-path="url(#clip100)" d="M1310.95 1343.11 L1312.42 1344.59 L1298.57 1358.43 Q1301.88 1361.35 1305.19 1361.31 Q1308.49 1361.25 1311.49 1358.25 Q1313.22 1356.52 1314.42 1354.47 Q1315.63 1352.41 1316.38 1349.95 L1319.23 1352.8 Q1318.3 1355.11 1316.96 1357.17 Q1315.61 1359.24 1313.86 1360.99 Q1309.47 1365.37 1304.35 1365.39 Q1299.24 1365.39 1294.89 1361.04 Q1290.39 1356.53 1290.18 1351.48 Q1289.96 1346.39 1294.09 1342.26 Q1297.79 1338.56 1302.32 1338.81 Q1306.86 1339.02 1310.95 1343.11 M1307.05 1345.24 Q1304.55 1342.8 1301.72 1342.69 Q1298.9 1342.56 1296.68 1344.78 Q1294.15 1347.3 1294.06 1350.25 Q1293.97 1353.18 1296.33 1355.99 L1307.05 1345.24 Z" fill="#000000" fill-rule="nonzero" fill-opacity="1" /><path clip-path="url(#clip100)" d="M1322.32 1320.48 L1312.4 1310.56 L1315.42 1307.54 L1340.89 1333.01 L1337.87 1336.03 L1335.12 1333.28 Q1335.81 1335.86 1335.16 1338.12 Q1334.5 1340.35 1332.47 1342.38 Q1329.15 1345.7 1324.4 1345.14 Q1319.67 1344.57 1315.35 1340.25 Q1311.03 1335.93 1310.46 1331.2 Q1309.9 1326.45 1313.22 1323.13 Q1315.25 1321.1 1317.5 1320.46 Q1319.74 1319.79 1322.32 1320.48 M1318.46 1337.14 Q1321.78 1340.46 1325.04 1341 Q1328.3 1341.51 1330.69 1339.12 Q1333.08 1336.73 1332.57 1333.47 Q1332.05 1330.2 1328.72 1326.88 Q1325.4 1323.55 1322.14 1323.05 Q1318.87 1322.52 1316.48 1324.91 Q1314.09 1327.3 1314.61 1330.57 Q1315.14 1333.82 1318.46 1337.14 Z" fill="#000000" fill-rule="nonzero" fill-opacity="1" /><path clip-path="url(#clip100)" d="M1339.54 1283.48 Q1341.11 1289.44 1343.73 1294.19 Q1346.35 1298.94 1350.13 1302.72 Q1353.91 1306.5 1358.69 1309.15 Q1363.47 1311.77 1369.4 1313.34 L1366.78 1315.96 Q1360.48 1314.57 1355.53 1312.08 Q1350.61 1309.57 1346.94 1305.91 Q1343.29 1302.26 1340.8 1297.35 Q1338.32 1292.44 1336.92 1286.1 L1339.54 1283.48 Z" fill="#000000" fill-rule="nonzero" fill-opacity="1" /><path clip-path="url(#clip100)" d="M1346.52 1278.51 L1349.82 1275.2 L1372.56 1297.94 Q1376.98 1302.36 1377.29 1306.04 Q1377.62 1309.71 1373.9 1313.42 L1372.64 1314.68 L1369.86 1311.9 L1370.89 1310.87 Q1373.08 1308.67 1372.75 1306.55 Q1372.43 1304.42 1369.25 1301.24 L1346.52 1278.51 Z" fill="#000000" fill-rule="nonzero" fill-opacity="1" /><path clip-path="url(#clip100)" d="M1354.8 1268.23 L1357.42 1265.61 Q1363.74 1267.02 1368.65 1269.51 Q1373.57 1271.98 1377.22 1275.63 Q1380.89 1279.29 1383.38 1284.24 Q1385.88 1289.16 1387.27 1295.47 L1384.65 1298.08 Q1383.08 1292.16 1380.45 1287.4 Q1377.81 1282.6 1374.03 1278.82 Q1370.25 1275.04 1365.49 1272.44 Q1360.74 1269.82 1354.8 1268.23 Z" fill="#000000" fill-rule="nonzero" fill-opacity="1" /><path clip-path="url(#clip100)" d="M1513.95 1468.12 L1504.03 1458.2 L1507.04 1455.19 L1532.51 1480.65 L1529.5 1483.67 L1526.75 1480.92 Q1527.43 1483.5 1526.78 1485.76 Q1526.12 1487.99 1524.09 1490.02 Q1520.77 1493.34 1516.02 1492.78 Q1511.29 1492.21 1506.97 1487.89 Q1502.65 1483.57 1502.08 1478.84 Q1501.52 1474.09 1504.85 1470.77 Q1506.87 1468.74 1509.12 1468.1 Q1511.36 1467.43 1513.95 1468.12 M1510.08 1484.78 Q1513.41 1488.1 1516.66 1488.64 Q1519.92 1489.15 1522.31 1486.76 Q1524.7 1484.37 1524.19 1481.11 Q1523.67 1477.84 1520.35 1474.52 Q1517.02 1471.19 1513.77 1470.69 Q1510.49 1470.16 1508.1 1472.55 Q1505.71 1474.94 1506.24 1478.22 Q1506.76 1481.46 1510.08 1484.78 Z" fill="#000000" fill-rule="nonzero" fill-opacity="1" /><path clip-path="url(#clip100)" d="M1537.83 1456.9 Q1534.18 1460.55 1533.6 1462.8 Q1533.03 1465.04 1535.04 1467.05 Q1536.65 1468.66 1538.65 1468.56 Q1540.64 1468.43 1542.46 1466.61 Q1544.96 1464.11 1544.7 1460.83 Q1544.44 1457.53 1541.49 1454.58 L1540.82 1453.91 L1537.83 1456.9 M1542.59 1449.65 L1553.05 1460.11 L1550.04 1463.12 L1547.25 1460.34 Q1547.89 1463.04 1547.16 1465.38 Q1546.4 1467.71 1544.18 1469.93 Q1541.36 1472.75 1538.12 1472.85 Q1534.88 1472.91 1532.23 1470.26 Q1529.14 1467.17 1529.63 1463.53 Q1530.13 1459.88 1534.24 1455.77 L1538.47 1451.55 L1538.17 1451.26 Q1536.09 1449.18 1533.59 1449.42 Q1531.08 1449.64 1528.61 1452.11 Q1527.04 1453.68 1525.93 1455.55 Q1524.81 1457.41 1524.19 1459.54 L1521.41 1456.76 Q1522.42 1454.47 1523.67 1452.6 Q1524.9 1450.72 1526.37 1449.24 Q1530.35 1445.27 1534.37 1445.36 Q1538.4 1445.46 1542.59 1449.65 Z" fill="#000000" fill-rule="nonzero" fill-opacity="1" /><path clip-path="url(#clip100)" d="M1554.82 1423.09 L1557.63 1425.9 Q1555.65 1426.48 1554.01 1427.42 Q1552.38 1428.34 1551.07 1429.65 Q1548.14 1432.58 1548.38 1436.07 Q1548.61 1439.54 1551.97 1442.89 Q1555.32 1446.25 1558.81 1446.49 Q1562.28 1446.72 1565.21 1443.79 Q1566.52 1442.48 1567.45 1440.86 Q1568.39 1439.21 1568.96 1437.23 L1571.74 1440.01 Q1571.07 1441.86 1570.01 1443.51 Q1568.96 1445.15 1567.44 1446.67 Q1563.3 1450.81 1558.25 1450.65 Q1553.21 1450.49 1548.79 1446.07 Q1544.31 1441.58 1544.19 1436.56 Q1544.1 1431.52 1548.38 1427.23 Q1549.78 1425.84 1551.4 1424.81 Q1553 1423.76 1554.82 1423.09 Z" fill="#000000" fill-rule="nonzero" fill-opacity="1" /><path clip-path="url(#clip100)" d="M1583.44 1409.88 L1584.92 1411.35 L1571.07 1425.2 Q1574.38 1428.11 1577.68 1428.08 Q1580.99 1428.01 1583.98 1425.02 Q1585.72 1423.28 1586.91 1421.24 Q1588.13 1419.18 1588.88 1416.72 L1591.73 1419.57 Q1590.79 1421.88 1589.45 1423.94 Q1588.11 1426 1586.36 1427.75 Q1581.97 1432.14 1576.85 1432.16 Q1571.74 1432.16 1567.39 1427.8 Q1562.89 1423.3 1562.67 1418.24 Q1562.46 1413.15 1566.59 1409.03 Q1570.28 1405.33 1574.82 1405.57 Q1579.35 1405.79 1583.44 1409.88 M1579.55 1412.01 Q1577.04 1409.57 1574.21 1409.45 Q1571.4 1409.32 1569.17 1411.55 Q1566.65 1414.07 1566.55 1417.01 Q1566.47 1419.94 1568.83 1422.76 L1579.55 1412.01 Z" fill="#000000" fill-rule="nonzero" fill-opacity="1" /><path clip-path="url(#clip100)" d="M1617.8 1406.49 L1620.14 1408.83 L1602.73 1426.25 L1600.39 1423.91 L1617.8 1406.49 Z" fill="#000000" fill-rule="nonzero" fill-opacity="1" /><path clip-path="url(#clip100)" d="M1610.63 1367.27 L1613.45 1370.09 Q1611.47 1370.66 1609.83 1371.61 Q1608.19 1372.53 1606.88 1373.84 Q1603.95 1376.77 1604.2 1380.25 Q1604.43 1383.72 1607.78 1387.08 Q1611.14 1390.43 1614.63 1390.68 Q1618.1 1390.91 1621.03 1387.98 Q1622.34 1386.67 1623.27 1385.05 Q1624.2 1383.39 1624.77 1381.41 L1627.56 1384.2 Q1626.89 1386.05 1625.82 1387.7 Q1624.77 1389.34 1623.25 1390.86 Q1619.11 1395 1614.07 1394.84 Q1609.03 1394.67 1604.61 1390.25 Q1600.12 1385.77 1600.01 1380.74 Q1599.91 1375.7 1604.2 1371.41 Q1605.59 1370.02 1607.21 1368.99 Q1608.82 1367.94 1610.63 1367.27 Z" fill="#000000" fill-rule="nonzero" fill-opacity="1" /><path clip-path="url(#clip100)" d="M1633.66 1374 L1643.38 1383.72 L1640.36 1386.75 L1615.05 1361.44 L1618.08 1358.42 L1620.86 1361.2 Q1620.17 1358.61 1620.83 1356.39 Q1621.48 1354.13 1623.5 1352.12 Q1626.84 1348.78 1631.57 1349.35 Q1636.31 1349.91 1640.64 1354.23 Q1644.96 1358.55 1645.51 1363.29 Q1646.09 1368.02 1642.75 1371.36 Q1640.73 1373.38 1638.49 1374.05 Q1636.25 1374.69 1633.66 1374 M1637.51 1357.35 Q1634.19 1354.03 1630.93 1353.52 Q1627.67 1352.98 1625.28 1355.37 Q1622.89 1357.76 1623.42 1361.04 Q1623.94 1364.28 1627.26 1367.6 Q1630.59 1370.92 1633.84 1371.46 Q1637.1 1371.97 1639.49 1369.58 Q1641.88 1367.19 1641.36 1363.95 Q1640.83 1360.68 1637.51 1357.35 Z" fill="#000000" fill-rule="nonzero" fill-opacity="1" /><path clip-path="url(#clip100)" d="M1647.23 1351.46 L1636.13 1340.36 L1639.15 1337.35 L1650.13 1348.33 Q1652.73 1350.94 1655.06 1351.23 Q1657.36 1351.51 1659.39 1349.48 Q1661.83 1347.04 1661.68 1344.08 Q1661.55 1341.1 1658.87 1338.42 L1648.48 1328.02 L1651.49 1325.01 L1669.82 1343.34 L1666.81 1346.35 L1663.99 1343.54 Q1664.57 1346.3 1663.93 1348.58 Q1663.29 1350.82 1661.37 1352.74 Q1658.21 1355.9 1654.61 1355.57 Q1651.01 1355.24 1647.23 1351.46 M1643.27 1332.34 L1643.27 1332.34 Z" fill="#000000" fill-rule="nonzero" fill-opacity="1" /><path clip-path="url(#clip100)" d="M1668.48 1293.81 Q1670.05 1299.77 1672.67 1304.52 Q1675.29 1309.26 1679.07 1313.04 Q1682.85 1316.83 1687.63 1319.48 Q1692.41 1322.1 1698.33 1323.67 L1695.71 1326.29 Q1689.41 1324.89 1684.47 1322.41 Q1679.54 1319.9 1675.88 1316.24 Q1672.23 1312.59 1669.74 1307.68 Q1667.25 1302.77 1665.86 1296.43 L1668.48 1293.81 Z" fill="#000000" fill-rule="nonzero" fill-opacity="1" /><path clip-path="url(#clip100)" d="M1681.47 1288.25 L1690.66 1297.43 L1694.81 1293.27 Q1697.12 1290.96 1697.19 1288.51 Q1697.25 1286.05 1695.04 1283.84 Q1692.85 1281.65 1690.39 1281.72 Q1687.94 1281.78 1685.63 1284.09 L1681.47 1288.25 M1675.45 1288.84 L1682.91 1281.37 Q1687.02 1277.26 1690.98 1277.03 Q1694.94 1276.77 1698.53 1280.36 Q1702.15 1283.97 1701.88 1287.94 Q1701.64 1291.88 1697.53 1295.99 L1693.37 1300.15 L1703.19 1309.97 L1699.89 1313.27 L1675.45 1288.84 Z" fill="#000000" fill-rule="nonzero" fill-opacity="1" /><path clip-path="url(#clip100)" d="M1694.06 1268.23 L1696.68 1265.61 Q1703 1267.02 1707.91 1269.51 Q1712.83 1271.98 1716.48 1275.63 Q1720.15 1279.29 1722.64 1284.24 Q1725.14 1289.16 1726.53 1295.47 L1723.92 1298.08 Q1722.34 1292.16 1719.71 1287.4 Q1717.07 1282.6 1713.29 1278.82 Q1709.51 1275.04 1704.75 1272.44 Q1700 1269.82 1694.06 1268.23 Z" fill="#000000" fill-rule="nonzero" fill-opacity="1" /><path clip-path="url(#clip100)" d="M1800.31 1427.8 L1811.38 1438.87 L1808.36 1441.88 L1797.4 1430.91 Q1794.79 1428.31 1792.49 1428.03 Q1790.18 1427.75 1788.15 1429.78 Q1785.71 1432.22 1785.86 1435.18 Q1786.01 1438.15 1788.69 1440.83 L1799.05 1451.19 L1796.02 1454.22 L1777.69 1435.89 L1780.72 1432.86 L1783.57 1435.71 Q1782.99 1432.97 1783.63 1430.7 Q1784.29 1428.41 1786.2 1426.49 Q1789.36 1423.33 1792.95 1423.68 Q1796.51 1424 1800.31 1427.8 Z" fill="#000000" fill-rule="nonzero" fill-opacity="1" /><path clip-path="url(#clip100)" d="M1809.84 1425.94 L1798.74 1414.84 L1801.75 1411.83 L1812.73 1422.81 Q1815.34 1425.41 1817.66 1425.71 Q1819.97 1425.98 1822 1423.95 Q1824.44 1421.52 1824.29 1418.55 Q1824.16 1415.57 1821.47 1412.89 L1811.08 1402.5 L1814.09 1399.48 L1832.43 1417.82 L1829.41 1420.83 L1826.6 1418.01 Q1827.17 1420.78 1826.53 1423.05 Q1825.89 1425.3 1823.98 1427.21 Q1820.82 1430.37 1817.22 1430.04 Q1813.62 1429.72 1809.84 1425.94 M1805.88 1406.82 L1805.88 1406.82 Z" fill="#000000" fill-rule="nonzero" fill-opacity="1" /><path clip-path="url(#clip100)" d="M1838.09 1382.53 Q1837.19 1379.37 1837.79 1376.83 Q1838.4 1374.29 1840.53 1372.17 Q1843.39 1369.3 1846.96 1369.76 Q1850.51 1370.2 1854.21 1373.9 L1865.28 1384.97 L1862.25 1387.99 L1851.28 1377.03 Q1848.65 1374.39 1846.44 1374.05 Q1844.23 1373.7 1842.31 1375.62 Q1839.97 1377.96 1840.17 1380.87 Q1840.36 1383.79 1843.05 1386.47 L1853.41 1396.83 L1850.38 1399.86 L1839.41 1388.89 Q1836.76 1386.24 1834.57 1385.92 Q1832.36 1385.57 1830.41 1387.52 Q1828.1 1389.83 1828.32 1392.76 Q1828.51 1395.67 1831.18 1398.34 L1841.54 1408.7 L1838.51 1411.73 L1820.18 1393.4 L1823.21 1390.37 L1826.06 1393.22 Q1825.4 1390.5 1826.04 1388.26 Q1826.68 1386.01 1828.66 1384.03 Q1830.66 1382.04 1833.06 1381.66 Q1835.49 1381.27 1838.09 1382.53 Z" fill="#000000" fill-rule="nonzero" fill-opacity="1" /><path clip-path="url(#clip100)" d="M1875.29 1356.65 Q1871.97 1353.33 1868.71 1352.82 Q1865.46 1352.28 1863.07 1354.67 Q1860.68 1357.06 1861.2 1360.33 Q1861.72 1363.57 1865.05 1366.9 Q1868.37 1370.22 1871.63 1370.76 Q1874.88 1371.27 1877.27 1368.88 Q1879.66 1366.49 1879.14 1363.25 Q1878.62 1359.97 1875.29 1356.65 M1858.65 1360.5 Q1857.96 1357.91 1858.61 1355.68 Q1859.27 1353.42 1861.28 1351.41 Q1864.62 1348.07 1869.35 1348.65 Q1874.1 1349.2 1878.42 1353.52 Q1882.74 1357.84 1883.3 1362.59 Q1883.87 1367.32 1880.53 1370.66 Q1878.52 1372.67 1876.28 1373.34 Q1874.03 1373.98 1871.45 1373.3 L1874.2 1376.05 L1871.17 1379.07 L1845.7 1353.6 L1848.73 1350.58 L1858.65 1360.5 Z" fill="#000000" fill-rule="nonzero" fill-opacity="1" /><path clip-path="url(#clip100)" d="M1891.68 1340.13 Q1888.03 1343.78 1887.45 1346.03 Q1886.88 1348.27 1888.9 1350.28 Q1890.5 1351.89 1892.5 1351.79 Q1894.49 1351.66 1896.31 1349.84 Q1898.81 1347.34 1898.55 1344.06 Q1898.29 1340.76 1895.34 1337.81 L1894.67 1337.14 L1891.68 1340.13 M1896.44 1332.88 L1906.9 1343.34 L1903.89 1346.35 L1901.11 1343.57 Q1901.74 1346.27 1901.01 1348.61 Q1900.25 1350.94 1898.03 1353.16 Q1895.21 1355.98 1891.97 1356.08 Q1888.73 1356.14 1886.08 1353.49 Q1882.99 1350.4 1883.48 1346.76 Q1883.98 1343.11 1888.09 1339 L1892.32 1334.78 L1892.02 1334.49 Q1889.94 1332.41 1887.44 1332.65 Q1884.93 1332.87 1882.46 1335.34 Q1880.89 1336.91 1879.78 1338.78 Q1878.67 1340.64 1878.04 1342.77 L1875.26 1339.99 Q1876.28 1337.69 1877.52 1335.83 Q1878.75 1333.95 1880.22 1332.47 Q1884.2 1328.5 1888.22 1328.59 Q1892.25 1328.69 1896.44 1332.88 Z" fill="#000000" fill-rule="nonzero" fill-opacity="1" /><path clip-path="url(#clip100)" d="M1905.56 1293.81 Q1907.13 1299.77 1909.75 1304.52 Q1912.37 1309.26 1916.15 1313.04 Q1919.93 1316.83 1924.71 1319.48 Q1929.49 1322.1 1935.41 1323.67 L1932.79 1326.29 Q1926.49 1324.89 1921.55 1322.41 Q1916.62 1319.9 1912.96 1316.24 Q1909.31 1312.59 1906.82 1307.68 Q1904.33 1302.77 1902.94 1296.43 L1905.56 1293.81 Z" fill="#000000" fill-rule="nonzero" fill-opacity="1" /><path clip-path="url(#clip100)" d="M1918.55 1288.25 L1927.74 1297.43 L1931.89 1293.27 Q1934.2 1290.96 1934.27 1288.51 Q1934.33 1286.05 1932.12 1283.84 Q1929.93 1281.65 1927.47 1281.72 Q1925.02 1281.78 1922.71 1284.09 L1918.55 1288.25 M1912.53 1288.84 L1919.99 1281.37 Q1924.1 1277.26 1928.06 1277.03 Q1932.03 1276.77 1935.61 1280.36 Q1939.23 1283.97 1938.97 1287.94 Q1938.72 1291.88 1934.61 1295.99 L1930.45 1300.15 L1940.27 1309.97 L1936.97 1313.27 L1912.53 1288.84 Z" fill="#000000" fill-rule="nonzero" fill-opacity="1" /><path clip-path="url(#clip100)" d="M1931.14 1268.23 L1933.76 1265.61 Q1940.08 1267.02 1944.99 1269.51 Q1949.92 1271.98 1953.57 1275.63 Q1957.23 1279.29 1959.72 1284.24 Q1962.22 1289.16 1963.62 1295.47 L1961 1298.08 Q1959.43 1292.16 1956.79 1287.4 Q1954.15 1282.6 1950.37 1278.82 Q1946.59 1275.04 1941.83 1272.44 Q1937.08 1269.82 1931.14 1268.23 Z" fill="#000000" fill-rule="nonzero" fill-opacity="1" /><path clip-path="url(#clip100)" d="M2038.1 1427.1 L2049.16 1438.16 L2046.15 1441.17 L2035.18 1430.21 Q2032.58 1427.6 2030.27 1427.33 Q2027.96 1427.05 2025.93 1429.08 Q2023.49 1431.52 2023.64 1434.48 Q2023.79 1437.44 2026.47 1440.13 L2036.83 1450.49 L2033.81 1453.52 L2015.47 1435.18 L2018.5 1432.16 L2021.35 1435 Q2020.78 1432.27 2021.42 1429.99 Q2022.07 1427.7 2023.99 1425.79 Q2027.15 1422.63 2030.73 1422.97 Q2034.3 1423.3 2038.1 1427.1 Z" fill="#000000" fill-rule="nonzero" fill-opacity="1" /><path clip-path="url(#clip100)" d="M2047.62 1425.23 L2036.52 1414.13 L2039.54 1411.12 L2050.52 1422.11 Q2053.12 1424.71 2055.45 1425 Q2057.75 1425.28 2059.78 1423.25 Q2062.22 1420.81 2062.07 1417.85 Q2061.94 1414.87 2059.26 1412.19 L2048.87 1401.79 L2051.88 1398.78 L2070.21 1417.11 L2067.2 1420.12 L2064.38 1417.31 Q2064.96 1420.08 2064.32 1422.35 Q2063.68 1424.59 2061.76 1426.51 Q2058.6 1429.67 2055 1429.34 Q2051.4 1429.01 2047.62 1425.23 M2043.66 1406.11 L2043.66 1406.11 Z" fill="#000000" fill-rule="nonzero" fill-opacity="1" /><path clip-path="url(#clip100)" d="M2075.87 1381.82 Q2074.97 1378.66 2075.58 1376.13 Q2076.18 1373.59 2078.31 1371.46 Q2081.18 1368.6 2084.74 1369.06 Q2088.3 1369.5 2092 1373.2 L2103.06 1384.26 L2100.03 1387.29 L2089.07 1376.32 Q2086.43 1373.69 2084.22 1373.34 Q2082.01 1373 2080.1 1374.92 Q2077.76 1377.26 2077.95 1380.17 Q2078.15 1383.08 2080.83 1385.77 L2091.19 1396.13 L2088.17 1399.16 L2077.2 1388.19 Q2074.55 1385.54 2072.35 1385.21 Q2070.14 1384.87 2068.2 1386.82 Q2065.89 1389.12 2066.1 1392.05 Q2066.3 1394.97 2068.97 1397.63 L2079.33 1408 L2076.3 1411.02 L2057.97 1392.69 L2060.99 1389.66 L2063.84 1392.51 Q2063.19 1389.79 2063.83 1387.55 Q2064.46 1385.31 2066.44 1383.33 Q2068.44 1381.33 2070.85 1380.96 Q2073.27 1380.56 2075.87 1381.82 Z" fill="#000000" fill-rule="nonzero" fill-opacity="1" /><path clip-path="url(#clip100)" d="M2109.23 1372.59 L2118.95 1382.31 L2115.93 1385.34 L2090.62 1360.04 L2093.65 1357.01 L2096.43 1359.79 Q2095.74 1357.21 2096.4 1354.98 Q2097.05 1352.72 2099.07 1350.71 Q2102.41 1347.37 2107.14 1347.94 Q2111.88 1348.5 2116.2 1352.82 Q2120.53 1357.14 2121.08 1361.89 Q2121.65 1366.62 2118.32 1369.96 Q2116.3 1371.97 2114.06 1372.64 Q2111.82 1373.28 2109.23 1372.59 M2113.08 1355.95 Q2109.75 1352.62 2106.5 1352.12 Q2103.24 1351.58 2100.85 1353.96 Q2098.46 1356.35 2098.98 1359.63 Q2099.51 1362.87 2102.83 1366.19 Q2106.15 1369.51 2109.41 1370.05 Q2112.67 1370.56 2115.06 1368.17 Q2117.45 1365.78 2116.92 1362.54 Q2116.4 1359.27 2113.08 1355.95 Z" fill="#000000" fill-rule="nonzero" fill-opacity="1" /><path clip-path="url(#clip100)" d="M2139.68 1351.05 Q2141.67 1355.6 2141.46 1357.81 Q2141.25 1360.02 2139.22 1362.05 L2136.81 1364.46 L2134.29 1361.94 L2136.06 1360.17 Q2137.3 1358.92 2137.4 1357.65 Q2137.5 1356.37 2136.14 1353.34 L2135.31 1351.43 L2109.85 1340.8 L2113.04 1337.61 L2133.11 1346.22 L2124.5 1326.16 L2127.69 1322.96 L2139.68 1351.05 Z" fill="#000000" fill-rule="nonzero" fill-opacity="1" /><path clip-path="url(#clip100)" d="M2142.64 1293.81 Q2144.21 1299.77 2146.83 1304.52 Q2149.45 1309.26 2153.23 1313.04 Q2157.01 1316.83 2161.79 1319.48 Q2166.57 1322.1 2172.49 1323.67 L2169.88 1326.29 Q2163.57 1324.89 2158.63 1322.41 Q2153.7 1319.9 2150.04 1316.24 Q2146.39 1312.59 2143.9 1307.68 Q2141.41 1302.77 2140.02 1296.43 L2142.64 1293.81 Z" fill="#000000" fill-rule="nonzero" fill-opacity="1" /><path clip-path="url(#clip100)" d="M2155.63 1288.25 L2164.82 1297.43 L2168.97 1293.27 Q2171.28 1290.96 2171.35 1288.51 Q2171.41 1286.05 2169.2 1283.84 Q2167.01 1281.65 2164.56 1281.72 Q2162.1 1281.78 2159.79 1284.09 L2155.63 1288.25 M2149.61 1288.84 L2157.08 1281.37 Q2161.18 1277.26 2165.14 1277.03 Q2169.11 1276.77 2172.69 1280.36 Q2176.31 1283.97 2176.05 1287.94 Q2175.8 1291.88 2171.69 1295.99 L2167.53 1300.15 L2177.36 1309.97 L2174.05 1313.27 L2149.61 1288.84 Z" fill="#000000" fill-rule="nonzero" fill-opacity="1" /><path clip-path="url(#clip100)" d="M2168.22 1268.23 L2170.84 1265.61 Q2177.16 1267.02 2182.07 1269.51 Q2187 1271.98 2190.65 1275.63 Q2194.31 1279.29 2196.8 1284.24 Q2199.3 1289.16 2200.7 1295.47 L2198.08 1298.08 Q2196.51 1292.16 2193.87 1287.4 Q2191.24 1282.6 2187.45 1278.82 Q2183.67 1275.04 2178.91 1272.44 Q2174.16 1269.82 2168.22 1268.23 Z" fill="#000000" fill-rule="nonzero" fill-opacity="1" /><polyline clip-path="url(#clip102)" style="stroke:#000000; stroke-linecap:round; stroke-linejoin:round; stroke-width:2; stroke-opacity:0.1; fill:none" points="175.445,1236.4 2352.76,1236.4 "/>
<polyline clip-path="url(#clip102)" style="stroke:#000000; stroke-linecap:round; stroke-linejoin:round; stroke-width:2; stroke-opacity:0.1; fill:none" points="175.445,1020 2352.76,1020 "/>
<polyline clip-path="url(#clip102)" style="stroke:#000000; stroke-linecap:round; stroke-linejoin:round; stroke-width:2; stroke-opacity:0.1; fill:none" points="175.445,803.59 2352.76,803.59 "/>
<polyline clip-path="url(#clip102)" style="stroke:#000000; stroke-linecap:round; stroke-linejoin:round; stroke-width:2; stroke-opacity:0.1; fill:none" points="175.445,587.183 2352.76,587.183 "/>
<polyline clip-path="url(#clip102)" style="stroke:#000000; stroke-linecap:round; stroke-linejoin:round; stroke-width:2; stroke-opacity:0.1; fill:none" points="175.445,370.776 2352.76,370.776 "/>
<polyline clip-path="url(#clip102)" style="stroke:#000000; stroke-linecap:round; stroke-linejoin:round; stroke-width:2; stroke-opacity:0.1; fill:none" points="175.445,154.369 2352.76,154.369 "/>
<polyline clip-path="url(#clip100)" style="stroke:#000000; stroke-linecap:round; stroke-linejoin:round; stroke-width:4; stroke-opacity:1; fill:none" points="175.445,1236.4 175.445,123.472 "/>
<polyline clip-path="url(#clip100)" style="stroke:#000000; stroke-linecap:round; stroke-linejoin:round; stroke-width:4; stroke-opacity:1; fill:none" points="175.445,1236.4 194.343,1236.4 "/>
<polyline clip-path="url(#clip100)" style="stroke:#000000; stroke-linecap:round; stroke-linejoin:round; stroke-width:4; stroke-opacity:1; fill:none" points="175.445,1020 194.343,1020 "/>
<polyline clip-path="url(#clip100)" style="stroke:#000000; stroke-linecap:round; stroke-linejoin:round; stroke-width:4; stroke-opacity:1; fill:none" points="175.445,803.59 194.343,803.59 "/>
<polyline clip-path="url(#clip100)" style="stroke:#000000; stroke-linecap:round; stroke-linejoin:round; stroke-width:4; stroke-opacity:1; fill:none" points="175.445,587.183 194.343,587.183 "/>
<polyline clip-path="url(#clip100)" style="stroke:#000000; stroke-linecap:round; stroke-linejoin:round; stroke-width:4; stroke-opacity:1; fill:none" points="175.445,370.776 194.343,370.776 "/>
<polyline clip-path="url(#clip100)" style="stroke:#000000; stroke-linecap:round; stroke-linejoin:round; stroke-width:4; stroke-opacity:1; fill:none" points="175.445,154.369 194.343,154.369 "/>
<path clip-path="url(#clip100)" d="M127.501 1222.2 Q123.89 1222.2 122.061 1225.77 Q120.255 1229.31 120.255 1236.44 Q120.255 1243.55 122.061 1247.11 Q123.89 1250.65 127.501 1250.65 Q131.135 1250.65 132.941 1247.11 Q134.769 1243.55 134.769 1236.44 Q134.769 1229.31 132.941 1225.77 Q131.135 1222.2 127.501 1222.2 M127.501 1218.5 Q133.311 1218.5 136.367 1223.11 Q139.445 1227.69 139.445 1236.44 Q139.445 1245.17 136.367 1249.77 Q133.311 1254.36 127.501 1254.36 Q121.691 1254.36 118.612 1249.77 Q115.556 1245.17 115.556 1236.44 Q115.556 1227.69 118.612 1223.11 Q121.691 1218.5 127.501 1218.5 Z" fill="#000000" fill-rule="nonzero" fill-opacity="1" /><path clip-path="url(#clip100)" d="M119.538 1033.34 L127.177 1033.34 L127.177 1006.98 L118.867 1008.64 L118.867 1004.38 L127.13 1002.72 L131.806 1002.72 L131.806 1033.34 L139.445 1033.34 L139.445 1037.28 L119.538 1037.28 L119.538 1033.34 Z" fill="#000000" fill-rule="nonzero" fill-opacity="1" /><path clip-path="url(#clip100)" d="M123.126 816.935 L139.445 816.935 L139.445 820.87 L117.501 820.87 L117.501 816.935 Q120.163 814.18 124.746 809.551 Q129.353 804.898 130.533 803.555 Q132.779 801.032 133.658 799.296 Q134.561 797.537 134.561 795.847 Q134.561 793.093 132.617 791.356 Q130.695 789.62 127.593 789.62 Q125.394 789.62 122.941 790.384 Q120.51 791.148 117.732 792.699 L117.732 787.977 Q120.556 786.843 123.01 786.264 Q125.464 785.685 127.501 785.685 Q132.871 785.685 136.066 788.37 Q139.26 791.056 139.26 795.546 Q139.26 797.676 138.45 799.597 Q137.663 801.495 135.556 804.088 Q134.978 804.759 131.876 807.977 Q128.774 811.171 123.126 816.935 Z" fill="#000000" fill-rule="nonzero" fill-opacity="1" /><path clip-path="url(#clip100)" d="M132.316 585.829 Q135.672 586.546 137.547 588.815 Q139.445 591.083 139.445 594.417 Q139.445 599.532 135.927 602.333 Q132.408 605.134 125.927 605.134 Q123.751 605.134 121.436 604.694 Q119.144 604.278 116.691 603.421 L116.691 598.907 Q118.635 600.042 120.95 600.62 Q123.265 601.199 125.788 601.199 Q130.186 601.199 132.478 599.463 Q134.792 597.727 134.792 594.417 Q134.792 591.361 132.64 589.648 Q130.51 587.912 126.691 587.912 L122.663 587.912 L122.663 584.07 L126.876 584.07 Q130.325 584.07 132.154 582.704 Q133.982 581.315 133.982 578.722 Q133.982 576.06 132.084 574.648 Q130.209 573.213 126.691 573.213 Q124.769 573.213 122.57 573.63 Q120.371 574.046 117.732 574.926 L117.732 570.759 Q120.394 570.019 122.709 569.648 Q125.047 569.278 127.107 569.278 Q132.431 569.278 135.533 571.709 Q138.635 574.116 138.635 578.236 Q138.635 581.107 136.992 583.097 Q135.348 585.065 132.316 585.829 Z" fill="#000000" fill-rule="nonzero" fill-opacity="1" /><path clip-path="url(#clip100)" d="M129.862 357.57 L118.056 376.019 L129.862 376.019 L129.862 357.57 M128.635 353.496 L134.515 353.496 L134.515 376.019 L139.445 376.019 L139.445 379.908 L134.515 379.908 L134.515 388.056 L129.862 388.056 L129.862 379.908 L114.26 379.908 L114.26 375.394 L128.635 353.496 Z" fill="#000000" fill-rule="nonzero" fill-opacity="1" /><path clip-path="url(#clip100)" d="M118.543 137.089 L136.899 137.089 L136.899 141.024 L122.825 141.024 L122.825 149.496 Q123.843 149.149 124.862 148.987 Q125.88 148.801 126.899 148.801 Q132.686 148.801 136.066 151.973 Q139.445 155.144 139.445 160.561 Q139.445 166.139 135.973 169.241 Q132.501 172.32 126.181 172.32 Q124.005 172.32 121.737 171.949 Q119.492 171.579 117.084 170.838 L117.084 166.139 Q119.168 167.274 121.39 167.829 Q123.612 168.385 126.089 168.385 Q130.093 168.385 132.431 166.278 Q134.769 164.172 134.769 160.561 Q134.769 156.95 132.431 154.843 Q130.093 152.737 126.089 152.737 Q124.214 152.737 122.339 153.153 Q120.487 153.57 118.543 154.45 L118.543 137.089 Z" fill="#000000" fill-rule="nonzero" fill-opacity="1" /><path clip-path="url(#clip100)" d="M18.0438 788.935 L24.314 788.935 Q22.5634 792.595 21.704 795.842 Q20.8447 799.088 20.8447 802.112 Q20.8447 807.364 22.8817 810.228 Q24.9187 813.061 28.6745 813.061 Q31.8255 813.061 33.4488 811.183 Q35.0402 809.274 36.0269 803.99 L36.8226 800.107 Q38.1912 792.914 41.6605 789.508 Q45.098 786.071 50.8908 786.071 Q57.7976 786.071 61.3624 790.718 Q64.9272 795.333 64.9272 804.277 Q64.9272 807.65 64.1633 811.47 Q63.3994 815.257 61.9035 819.331 L55.2831 819.331 Q57.4793 815.417 58.5933 811.661 Q59.7073 807.905 59.7073 804.277 Q59.7073 798.77 57.543 795.778 Q55.3786 792.786 51.3682 792.786 Q47.8671 792.786 45.8937 794.951 Q43.9204 797.083 42.9337 801.985 L42.1698 805.9 Q40.7375 813.093 37.682 816.308 Q34.6264 819.522 29.1837 819.522 Q22.8817 819.522 19.2532 815.098 Q15.6248 810.642 15.6248 802.844 Q15.6248 799.502 16.2295 796.033 Q16.8343 792.564 18.0438 788.935 Z" fill="#000000" fill-rule="nonzero" fill-opacity="1" /><path clip-path="url(#clip100)" d="M58.657 770.634 L77.5631 770.634 L77.5631 776.522 L28.3562 776.522 L28.3562 770.634 L33.7671 770.634 Q30.5842 768.788 29.0564 765.987 Q27.4968 763.154 27.4968 759.239 Q27.4968 752.746 32.6531 748.704 Q37.8093 744.63 46.212 744.63 Q54.6147 744.63 59.771 748.704 Q64.9272 752.746 64.9272 759.239 Q64.9272 763.154 63.3994 765.987 Q61.8398 768.788 58.657 770.634 M46.212 750.709 Q39.7508 750.709 36.0905 753.383 Q32.3984 756.024 32.3984 760.671 Q32.3984 765.318 36.0905 767.992 Q39.7508 770.634 46.212 770.634 Q52.6732 770.634 56.3653 767.992 Q60.0256 765.318 60.0256 760.671 Q60.0256 756.024 56.3653 753.383 Q52.6732 750.709 46.212 750.709 Z" fill="#000000" fill-rule="nonzero" fill-opacity="1" /><path clip-path="url(#clip100)" d="M44.7161 704.43 L47.5806 704.43 L47.5806 731.357 Q53.6281 730.975 56.8109 727.729 Q59.9619 724.451 59.9619 718.626 Q59.9619 715.252 59.1344 712.101 Q58.3069 708.918 56.6518 705.799 L62.1899 705.799 Q63.5267 708.95 64.227 712.26 Q64.9272 715.57 64.9272 718.976 Q64.9272 727.506 59.9619 732.503 Q54.9967 737.468 46.5303 737.468 Q37.7774 737.468 32.6531 732.758 Q27.4968 728.015 27.4968 719.995 Q27.4968 712.801 32.1438 708.632 Q36.7589 704.43 44.7161 704.43 M42.9973 710.287 Q38.1912 710.351 35.3266 712.992 Q32.4621 715.602 32.4621 719.931 Q32.4621 724.833 35.2312 727.793 Q38.0002 730.721 43.0292 731.166 L42.9973 710.287 Z" fill="#000000" fill-rule="nonzero" fill-opacity="1" /><path clip-path="url(#clip100)" d="M44.7161 664.326 L47.5806 664.326 L47.5806 691.253 Q53.6281 690.871 56.8109 687.625 Q59.9619 684.347 59.9619 678.522 Q59.9619 675.148 59.1344 671.997 Q58.3069 668.814 56.6518 665.695 L62.1899 665.695 Q63.5267 668.846 64.227 672.156 Q64.9272 675.466 64.9272 678.872 Q64.9272 687.402 59.9619 692.399 Q54.9967 697.364 46.5303 697.364 Q37.7774 697.364 32.6531 692.654 Q27.4968 687.911 27.4968 679.891 Q27.4968 672.697 32.1438 668.528 Q36.7589 664.326 44.7161 664.326 M42.9973 670.183 Q38.1912 670.247 35.3266 672.888 Q32.4621 675.498 32.4621 679.827 Q32.4621 684.729 35.2312 687.689 Q38.0002 690.617 43.0292 691.062 L42.9973 670.183 Z" fill="#000000" fill-rule="nonzero" fill-opacity="1" /><path clip-path="url(#clip100)" d="M33.7671 631.257 L14.479 631.257 L14.479 625.4 L64.0042 625.4 L64.0042 631.257 L58.657 631.257 Q61.8398 633.103 63.3994 635.935 Q64.9272 638.736 64.9272 642.683 Q64.9272 649.144 59.771 653.218 Q54.6147 657.261 46.212 657.261 Q37.8093 657.261 32.6531 653.218 Q27.4968 649.144 27.4968 642.683 Q27.4968 638.736 29.0564 635.935 Q30.5842 633.103 33.7671 631.257 M46.212 651.213 Q52.6732 651.213 56.3653 648.571 Q60.0256 645.898 60.0256 641.251 Q60.0256 636.604 56.3653 633.93 Q52.6732 631.257 46.212 631.257 Q39.7508 631.257 36.0905 633.93 Q32.3984 636.604 32.3984 641.251 Q32.3984 645.898 36.0905 648.571 Q39.7508 651.213 46.212 651.213 Z" fill="#000000" fill-rule="nonzero" fill-opacity="1" /><path clip-path="url(#clip100)" d="M49.9359 613.942 L28.3562 613.942 L28.3562 608.085 L49.7131 608.085 Q54.7739 608.085 57.3202 606.112 Q59.8346 604.139 59.8346 600.192 Q59.8346 595.45 56.8109 592.712 Q53.7872 589.943 48.5673 589.943 L28.3562 589.943 L28.3562 584.087 L64.0042 584.087 L64.0042 589.943 L58.5296 589.943 Q61.7762 592.076 63.3676 594.908 Q64.9272 597.709 64.9272 601.433 Q64.9272 607.576 61.1078 610.759 Q57.2883 613.942 49.9359 613.942 M27.4968 599.205 L27.4968 599.205 Z" fill="#000000" fill-rule="nonzero" fill-opacity="1" /><path clip-path="url(#clip100)" d="M58.657 566.358 L77.5631 566.358 L77.5631 572.247 L28.3562 572.247 L28.3562 566.358 L33.7671 566.358 Q30.5842 564.512 29.0564 561.711 Q27.4968 558.879 27.4968 554.964 Q27.4968 548.471 32.6531 544.428 Q37.8093 540.354 46.212 540.354 Q54.6147 540.354 59.771 544.428 Q64.9272 548.471 64.9272 554.964 Q64.9272 558.879 63.3994 561.711 Q61.8398 564.512 58.657 566.358 M46.212 546.434 Q39.7508 546.434 36.0905 549.107 Q32.3984 551.749 32.3984 556.396 Q32.3984 561.043 36.0905 563.716 Q39.7508 566.358 46.212 566.358 Q52.6732 566.358 56.3653 563.716 Q60.0256 561.043 60.0256 556.396 Q60.0256 551.749 56.3653 549.107 Q52.6732 546.434 46.212 546.434 Z" fill="#000000" fill-rule="nonzero" fill-opacity="1" /><path clip-path="url(#clip100)" d="M601.17 14.0809 L601.17 22.0612 Q596.512 19.8332 592.38 18.7395 Q588.248 17.6457 584.399 17.6457 Q577.715 17.6457 574.07 20.2383 Q570.464 22.8309 570.464 27.611 Q570.464 31.6214 572.854 33.6873 Q575.285 35.7128 582.009 36.9686 L586.951 37.9813 Q596.106 39.7232 600.441 44.1387 Q604.816 48.5136 604.816 55.8863 Q604.816 64.6767 598.902 69.2137 Q593.028 73.7508 581.645 73.7508 Q577.351 73.7508 572.49 72.7785 Q567.669 71.8063 562.484 69.9024 L562.484 61.4765 Q567.467 64.2716 572.247 65.6895 Q577.027 67.1073 581.645 67.1073 Q588.653 67.1073 592.461 64.3527 Q596.268 61.598 596.268 56.4939 Q596.268 52.0379 593.514 49.5264 Q590.8 47.0148 584.561 45.759 L579.579 44.7868 Q570.424 42.9639 566.332 39.075 Q562.241 35.1862 562.241 28.2591 Q562.241 20.2383 567.872 15.6203 Q573.543 11.0023 583.468 11.0023 Q587.721 11.0023 592.137 11.7719 Q596.552 12.5416 601.17 14.0809 Z" fill="#000000" fill-rule="nonzero" fill-opacity="1" /><path clip-path="url(#clip100)" d="M624.463 65.7705 L624.463 89.8329 L616.969 89.8329 L616.969 27.2059 L624.463 27.2059 L624.463 34.0924 Q626.812 30.0415 630.377 28.0971 Q633.982 26.1121 638.965 26.1121 Q647.229 26.1121 652.374 32.6746 Q657.559 39.2371 657.559 49.9314 Q657.559 60.6258 652.374 67.1883 Q647.229 73.7508 638.965 73.7508 Q633.982 73.7508 630.377 71.8063 Q626.812 69.8214 624.463 65.7705 M649.821 49.9314 Q649.821 41.7081 646.419 37.0496 Q643.056 32.3505 637.142 32.3505 Q631.228 32.3505 627.825 37.0496 Q624.463 41.7081 624.463 49.9314 Q624.463 58.1548 627.825 62.8538 Q631.228 67.5124 637.142 67.5124 Q643.056 67.5124 646.419 62.8538 Q649.821 58.1548 649.821 49.9314 Z" fill="#000000" fill-rule="nonzero" fill-opacity="1" /><path clip-path="url(#clip100)" d="M708.722 48.0275 L708.722 51.6733 L674.451 51.6733 Q674.937 59.3701 679.069 63.421 Q683.241 67.4314 690.655 67.4314 Q694.949 67.4314 698.959 66.3781 Q703.01 65.3249 706.98 63.2184 L706.98 70.267 Q702.969 71.9684 698.756 72.8596 Q694.543 73.7508 690.209 73.7508 Q679.353 73.7508 672.993 67.4314 Q666.673 61.1119 666.673 50.3365 Q666.673 39.1965 672.669 32.6746 Q678.704 26.1121 688.913 26.1121 Q698.068 26.1121 703.374 32.0264 Q708.722 37.9003 708.722 48.0275 M701.268 45.84 Q701.187 39.7232 697.825 36.0774 Q694.503 32.4315 688.994 32.4315 Q682.755 32.4315 678.988 35.9558 Q675.261 39.4801 674.694 45.8805 L701.268 45.84 Z" fill="#000000" fill-rule="nonzero" fill-opacity="1" /><path clip-path="url(#clip100)" d="M759.763 48.0275 L759.763 51.6733 L725.492 51.6733 Q725.978 59.3701 730.11 63.421 Q734.283 67.4314 741.696 67.4314 Q745.99 67.4314 750 66.3781 Q754.051 65.3249 758.021 63.2184 L758.021 70.267 Q754.011 71.9684 749.798 72.8596 Q745.585 73.7508 741.25 73.7508 Q730.394 73.7508 724.034 67.4314 Q717.715 61.1119 717.715 50.3365 Q717.715 39.1965 723.71 32.6746 Q729.746 26.1121 739.954 26.1121 Q749.109 26.1121 754.416 32.0264 Q759.763 37.9003 759.763 48.0275 M752.309 45.84 Q752.228 39.7232 748.866 36.0774 Q745.544 32.4315 740.035 32.4315 Q733.797 32.4315 730.029 35.9558 Q726.303 39.4801 725.735 45.8805 L752.309 45.84 Z" fill="#000000" fill-rule="nonzero" fill-opacity="1" /><path clip-path="url(#clip100)" d="M801.852 34.0924 L801.852 9.54393 L809.306 9.54393 L809.306 72.576 L801.852 72.576 L801.852 65.7705 Q799.502 69.8214 795.897 71.8063 Q792.332 73.7508 787.309 73.7508 Q779.086 73.7508 773.901 67.1883 Q768.756 60.6258 768.756 49.9314 Q768.756 39.2371 773.901 32.6746 Q779.086 26.1121 787.309 26.1121 Q792.332 26.1121 795.897 28.0971 Q799.502 30.0415 801.852 34.0924 M776.453 49.9314 Q776.453 58.1548 779.815 62.8538 Q783.218 67.5124 789.132 67.5124 Q795.046 67.5124 798.449 62.8538 Q801.852 58.1548 801.852 49.9314 Q801.852 41.7081 798.449 37.0496 Q795.046 32.3505 789.132 32.3505 Q783.218 32.3505 779.815 37.0496 Q776.453 41.7081 776.453 49.9314 Z" fill="#000000" fill-rule="nonzero" fill-opacity="1" /><path clip-path="url(#clip100)" d="M823.889 54.671 L823.889 27.2059 L831.342 27.2059 L831.342 54.3874 Q831.342 60.8284 833.854 64.0691 Q836.366 67.2693 841.389 67.2693 Q847.425 67.2693 850.908 63.421 Q854.433 59.5726 854.433 52.9291 L854.433 27.2059 L861.886 27.2059 L861.886 72.576 L854.433 72.576 L854.433 65.6084 Q851.719 69.7404 848.113 71.7658 Q844.548 73.7508 839.809 73.7508 Q831.991 73.7508 827.94 68.8897 Q823.889 64.0286 823.889 54.671 M842.644 26.1121 L842.644 26.1121 Z" fill="#000000" fill-rule="nonzero" fill-opacity="1" /><path clip-path="url(#clip100)" d="M884.45 65.7705 L884.45 89.8329 L876.956 89.8329 L876.956 27.2059 L884.45 27.2059 L884.45 34.0924 Q886.799 30.0415 890.364 28.0971 Q893.969 26.1121 898.952 26.1121 Q907.216 26.1121 912.361 32.6746 Q917.546 39.2371 917.546 49.9314 Q917.546 60.6258 912.361 67.1883 Q907.216 73.7508 898.952 73.7508 Q893.969 73.7508 890.364 71.8063 Q886.799 69.8214 884.45 65.7705 M909.808 49.9314 Q909.808 41.7081 906.406 37.0496 Q903.043 32.3505 897.129 32.3505 Q891.215 32.3505 887.812 37.0496 Q884.45 41.7081 884.45 49.9314 Q884.45 58.1548 887.812 62.8538 Q891.215 67.5124 897.129 67.5124 Q903.043 67.5124 906.406 62.8538 Q909.808 58.1548 909.808 49.9314 Z" fill="#000000" fill-rule="nonzero" fill-opacity="1" /><path clip-path="url(#clip100)" d="M985.196 28.5427 L985.196 35.5912 Q982.036 33.9709 978.633 33.1607 Q975.231 32.3505 971.585 32.3505 Q966.035 32.3505 963.24 34.0519 Q960.485 35.7533 960.485 39.156 Q960.485 41.7486 962.47 43.2475 Q964.455 44.7058 970.451 46.0426 L973.003 46.6097 Q980.942 48.3111 984.264 51.4303 Q987.626 54.509 987.626 60.0587 Q987.626 66.3781 982.603 70.0644 Q977.621 73.7508 968.871 73.7508 Q965.225 73.7508 961.255 73.0216 Q957.326 72.3329 952.951 70.9151 L952.951 63.2184 Q957.083 65.3654 961.093 66.4591 Q965.103 67.5124 969.033 67.5124 Q974.299 67.5124 977.135 65.73 Q979.97 63.9071 979.97 60.6258 Q979.97 57.5877 977.904 55.9673 Q975.879 54.3469 968.952 52.8481 L966.359 52.2405 Q959.432 50.7821 956.353 47.7845 Q953.275 44.7463 953.275 39.4801 Q953.275 33.0797 957.812 29.5959 Q962.349 26.1121 970.694 26.1121 Q974.825 26.1121 978.471 26.7198 Q982.117 27.3274 985.196 28.5427 Z" fill="#000000" fill-rule="nonzero" fill-opacity="1" /><path clip-path="url(#clip100)" d="M1018.37 76.7889 Q1015.21 84.8907 1012.22 87.3618 Q1009.22 89.8329 1004.19 89.8329 L998.24 89.8329 L998.24 83.5945 L1002.61 83.5945 Q1005.69 83.5945 1007.39 82.1361 Q1009.1 80.6778 1011.16 75.2496 L1012.5 71.8468 L994.148 27.2059 L1002.05 27.2059 L1016.23 62.6918 L1030.4 27.2059 L1038.3 27.2059 L1018.37 76.7889 Z" fill="#000000" fill-rule="nonzero" fill-opacity="1" /><path clip-path="url(#clip100)" d="M1074.88 34.1734 Q1073.63 33.4443 1072.13 33.1202 Q1070.67 32.7556 1068.89 32.7556 Q1062.57 32.7556 1059.17 36.8875 Q1055.8 40.9789 1055.8 48.6757 L1055.8 72.576 L1048.31 72.576 L1048.31 27.2059 L1055.8 27.2059 L1055.8 34.2544 Q1058.15 30.1225 1061.92 28.1376 Q1065.69 26.1121 1071.07 26.1121 Q1071.84 26.1121 1072.78 26.2337 Q1073.71 26.3147 1074.84 26.5172 L1074.88 34.1734 Z" fill="#000000" fill-rule="nonzero" fill-opacity="1" /><path clip-path="url(#clip100)" d="M1082.42 9.54393 L1089.91 9.54393 L1089.91 46.7717 L1112.15 27.2059 L1121.67 27.2059 L1097.61 48.4326 L1122.68 72.576 L1112.96 72.576 L1089.91 50.4176 L1089.91 72.576 L1082.42 72.576 L1082.42 9.54393 Z" fill="#000000" fill-rule="nonzero" fill-opacity="1" /><path clip-path="url(#clip100)" d="M1132.65 62.2867 L1141.2 62.2867 L1141.2 69.2543 L1134.55 82.2172 L1129.33 82.2172 L1132.65 69.2543 L1132.65 62.2867 Z" fill="#000000" fill-rule="nonzero" fill-opacity="1" /><path clip-path="url(#clip100)" d="M1190.7 65.7705 L1190.7 89.8329 L1183.2 89.8329 L1183.2 27.2059 L1190.7 27.2059 L1190.7 34.0924 Q1193.05 30.0415 1196.61 28.0971 Q1200.22 26.1121 1205.2 26.1121 Q1213.46 26.1121 1218.61 32.6746 Q1223.79 39.2371 1223.79 49.9314 Q1223.79 60.6258 1218.61 67.1883 Q1213.46 73.7508 1205.2 73.7508 Q1200.22 73.7508 1196.61 71.8063 Q1193.05 69.8214 1190.7 65.7705 M1216.06 49.9314 Q1216.06 41.7081 1212.65 37.0496 Q1209.29 32.3505 1203.38 32.3505 Q1197.46 32.3505 1194.06 37.0496 Q1190.7 41.7081 1190.7 49.9314 Q1190.7 58.1548 1194.06 62.8538 Q1197.46 67.5124 1203.38 67.5124 Q1209.29 67.5124 1212.65 62.8538 Q1216.06 58.1548 1216.06 49.9314 Z" fill="#000000" fill-rule="nonzero" fill-opacity="1" /><path clip-path="url(#clip100)" d="M1262.44 34.1734 Q1261.18 33.4443 1259.69 33.1202 Q1258.23 32.7556 1256.44 32.7556 Q1250.12 32.7556 1246.72 36.8875 Q1243.36 40.9789 1243.36 48.6757 L1243.36 72.576 L1235.87 72.576 L1235.87 27.2059 L1243.36 27.2059 L1243.36 34.2544 Q1245.71 30.1225 1249.48 28.1376 Q1253.24 26.1121 1258.63 26.1121 Q1259.4 26.1121 1260.33 26.2337 Q1261.26 26.3147 1262.4 26.5172 L1262.44 34.1734 Z" fill="#000000" fill-rule="nonzero" fill-opacity="1" /><path clip-path="url(#clip100)" d="M1307.24 48.0275 L1307.24 51.6733 L1272.97 51.6733 Q1273.46 59.3701 1277.59 63.421 Q1281.76 67.4314 1289.18 67.4314 Q1293.47 67.4314 1297.48 66.3781 Q1301.53 65.3249 1305.5 63.2184 L1305.5 70.267 Q1301.49 71.9684 1297.28 72.8596 Q1293.06 73.7508 1288.73 73.7508 Q1277.87 73.7508 1271.51 67.4314 Q1265.19 61.1119 1265.19 50.3365 Q1265.19 39.1965 1271.19 32.6746 Q1277.23 26.1121 1287.43 26.1121 Q1296.59 26.1121 1301.9 32.0264 Q1307.24 37.9003 1307.24 48.0275 M1299.79 45.84 Q1299.71 39.7232 1296.35 36.0774 Q1293.02 32.4315 1287.51 32.4315 Q1281.28 32.4315 1277.51 35.9558 Q1273.78 39.4801 1273.22 45.8805 L1299.79 45.84 Z" fill="#000000" fill-rule="nonzero" fill-opacity="1" /><path clip-path="url(#clip100)" d="M1348.4 28.5427 L1348.4 35.5912 Q1345.24 33.9709 1341.84 33.1607 Q1338.43 32.3505 1334.79 32.3505 Q1329.24 32.3505 1326.44 34.0519 Q1323.69 35.7533 1323.69 39.156 Q1323.69 41.7486 1325.67 43.2475 Q1327.66 44.7058 1333.65 46.0426 L1336.21 46.6097 Q1344.15 48.3111 1347.47 51.4303 Q1350.83 54.509 1350.83 60.0587 Q1350.83 66.3781 1345.81 70.0644 Q1340.82 73.7508 1332.07 73.7508 Q1328.43 73.7508 1324.46 73.0216 Q1320.53 72.3329 1316.15 70.9151 L1316.15 63.2184 Q1320.29 65.3654 1324.3 66.4591 Q1328.31 67.5124 1332.24 67.5124 Q1337.5 67.5124 1340.34 65.73 Q1343.17 63.9071 1343.17 60.6258 Q1343.17 57.5877 1341.11 55.9673 Q1339.08 54.3469 1332.16 52.8481 L1329.56 52.2405 Q1322.64 50.7821 1319.56 47.7845 Q1316.48 44.7463 1316.48 39.4801 Q1316.48 33.0797 1321.02 29.5959 Q1325.55 26.1121 1333.9 26.1121 Q1338.03 26.1121 1341.68 26.7198 Q1345.32 27.3274 1348.4 28.5427 Z" fill="#000000" fill-rule="nonzero" fill-opacity="1" /><path clip-path="url(#clip100)" d="M1401.51 48.0275 L1401.51 51.6733 L1367.24 51.6733 Q1367.72 59.3701 1371.85 63.421 Q1376.03 67.4314 1383.44 67.4314 Q1387.73 67.4314 1391.74 66.3781 Q1395.8 65.3249 1399.77 63.2184 L1399.77 70.267 Q1395.75 71.9684 1391.54 72.8596 Q1387.33 73.7508 1382.99 73.7508 Q1372.14 73.7508 1365.78 67.4314 Q1359.46 61.1119 1359.46 50.3365 Q1359.46 39.1965 1365.45 32.6746 Q1371.49 26.1121 1381.7 26.1121 Q1390.85 26.1121 1396.16 32.0264 Q1401.51 37.9003 1401.51 48.0275 M1394.05 45.84 Q1393.97 39.7232 1390.61 36.0774 Q1387.29 32.4315 1381.78 32.4315 Q1375.54 32.4315 1371.77 35.9558 Q1368.05 39.4801 1367.48 45.8805 L1394.05 45.84 Z" fill="#000000" fill-rule="nonzero" fill-opacity="1" /><path clip-path="url(#clip100)" d="M1421.11 14.324 L1421.11 27.2059 L1436.47 27.2059 L1436.47 32.9987 L1421.11 32.9987 L1421.11 57.6282 Q1421.11 63.1779 1422.61 64.7578 Q1424.15 66.3376 1428.81 66.3376 L1436.47 66.3376 L1436.47 72.576 L1428.81 72.576 Q1420.18 72.576 1416.9 69.3758 Q1413.62 66.1351 1413.62 57.6282 L1413.62 32.9987 L1408.15 32.9987 L1408.15 27.2059 L1413.62 27.2059 L1413.62 14.324 L1421.11 14.324 Z" fill="#000000" fill-rule="nonzero" fill-opacity="1" /><path clip-path="url(#clip100)" d="M1479.69 12.096 L1479.69 34.5785 L1472.8 34.5785 L1472.8 12.096 L1479.69 12.096 Z" fill="#000000" fill-rule="nonzero" fill-opacity="1" /><path clip-path="url(#clip100)" d="M1502.66 65.7705 L1502.66 89.8329 L1495.16 89.8329 L1495.16 27.2059 L1502.66 27.2059 L1502.66 34.0924 Q1505.01 30.0415 1508.57 28.0971 Q1512.18 26.1121 1517.16 26.1121 Q1525.42 26.1121 1530.57 32.6746 Q1535.75 39.2371 1535.75 49.9314 Q1535.75 60.6258 1530.57 67.1883 Q1525.42 73.7508 1517.16 73.7508 Q1512.18 73.7508 1508.57 71.8063 Q1505.01 69.8214 1502.66 65.7705 M1528.02 49.9314 Q1528.02 41.7081 1524.61 37.0496 Q1521.25 32.3505 1515.34 32.3505 Q1509.42 32.3505 1506.02 37.0496 Q1502.66 41.7081 1502.66 49.9314 Q1502.66 58.1548 1506.02 62.8538 Q1509.42 67.5124 1515.34 67.5124 Q1521.25 67.5124 1524.61 62.8538 Q1528.02 58.1548 1528.02 49.9314 Z" fill="#000000" fill-rule="nonzero" fill-opacity="1" /><path clip-path="url(#clip100)" d="M1568.73 49.7694 Q1559.7 49.7694 1556.21 51.8354 Q1552.73 53.9013 1552.73 58.8839 Q1552.73 62.8538 1555.32 65.2034 Q1557.95 67.5124 1562.45 67.5124 Q1568.65 67.5124 1572.37 63.1374 Q1576.14 58.7219 1576.14 51.4303 L1576.14 49.7694 L1568.73 49.7694 M1583.6 46.6907 L1583.6 72.576 L1576.14 72.576 L1576.14 65.6895 Q1573.59 69.8214 1569.78 71.8063 Q1565.97 73.7508 1560.46 73.7508 Q1553.5 73.7508 1549.37 69.8619 Q1545.27 65.9325 1545.27 59.3701 Q1545.27 51.7138 1550.38 47.825 Q1555.52 43.9361 1565.69 43.9361 L1576.14 43.9361 L1576.14 43.2069 Q1576.14 38.0623 1572.74 35.2672 Q1569.38 32.4315 1563.26 32.4315 Q1559.37 32.4315 1555.68 33.3632 Q1552 34.295 1548.6 36.1584 L1548.6 29.2718 Q1552.69 27.692 1556.54 26.9223 Q1560.38 26.1121 1564.03 26.1121 Q1573.87 26.1121 1578.73 31.2163 Q1583.6 36.3204 1583.6 46.6907 Z" fill="#000000" fill-rule="nonzero" fill-opacity="1" /><path clip-path="url(#clip100)" d="M1606.16 65.7705 L1606.16 89.8329 L1598.66 89.8329 L1598.66 27.2059 L1606.16 27.2059 L1606.16 34.0924 Q1608.51 30.0415 1612.07 28.0971 Q1615.68 26.1121 1620.66 26.1121 Q1628.92 26.1121 1634.07 32.6746 Q1639.25 39.2371 1639.25 49.9314 Q1639.25 60.6258 1634.07 67.1883 Q1628.92 73.7508 1620.66 73.7508 Q1615.68 73.7508 1612.07 71.8063 Q1608.51 69.8214 1606.16 65.7705 M1631.52 49.9314 Q1631.52 41.7081 1628.11 37.0496 Q1624.75 32.3505 1618.84 32.3505 Q1612.92 32.3505 1609.52 37.0496 Q1606.16 41.7081 1606.16 49.9314 Q1606.16 58.1548 1609.52 62.8538 Q1612.92 67.5124 1618.84 67.5124 Q1624.75 67.5124 1628.11 62.8538 Q1631.52 58.1548 1631.52 49.9314 Z" fill="#000000" fill-rule="nonzero" fill-opacity="1" /><path clip-path="url(#clip100)" d="M1690.42 48.0275 L1690.42 51.6733 L1656.15 51.6733 Q1656.63 59.3701 1660.77 63.421 Q1664.94 67.4314 1672.35 67.4314 Q1676.64 67.4314 1680.66 66.3781 Q1684.71 65.3249 1688.68 63.2184 L1688.68 70.267 Q1684.67 71.9684 1680.45 72.8596 Q1676.24 73.7508 1671.91 73.7508 Q1661.05 73.7508 1654.69 67.4314 Q1648.37 61.1119 1648.37 50.3365 Q1648.37 39.1965 1654.36 32.6746 Q1660.4 26.1121 1670.61 26.1121 Q1679.76 26.1121 1685.07 32.0264 Q1690.42 37.9003 1690.42 48.0275 M1682.96 45.84 Q1682.88 39.7232 1679.52 36.0774 Q1676.2 32.4315 1670.69 32.4315 Q1664.45 32.4315 1660.68 35.9558 Q1656.96 39.4801 1656.39 45.8805 L1682.96 45.84 Z" fill="#000000" fill-rule="nonzero" fill-opacity="1" /><path clip-path="url(#clip100)" d="M1728.94 34.1734 Q1727.69 33.4443 1726.19 33.1202 Q1724.73 32.7556 1722.95 32.7556 Q1716.63 32.7556 1713.22 36.8875 Q1709.86 40.9789 1709.86 48.6757 L1709.86 72.576 L1702.37 72.576 L1702.37 27.2059 L1709.86 27.2059 L1709.86 34.2544 Q1712.21 30.1225 1715.98 28.1376 Q1719.75 26.1121 1725.13 26.1121 Q1725.9 26.1121 1726.84 26.2337 Q1727.77 26.3147 1728.9 26.5172 L1728.94 34.1734 Z" fill="#000000" fill-rule="nonzero" fill-opacity="1" /><path clip-path="url(#clip100)" d="M1743.81 12.096 L1743.81 34.5785 L1736.92 34.5785 L1736.92 12.096 L1743.81 12.096 Z" fill="#000000" fill-rule="nonzero" fill-opacity="1" /><path clip-path="url(#clip100)" d="M1761.47 62.2867 L1770.02 62.2867 L1770.02 69.2543 L1763.37 82.2172 L1758.15 82.2172 L1761.47 69.2543 L1761.47 62.2867 Z" fill="#000000" fill-rule="nonzero" fill-opacity="1" /><path clip-path="url(#clip100)" d="M1857.92 16.7545 L1857.92 25.383 Q1853.79 21.5346 1849.09 19.6307 Q1844.43 17.7268 1839.17 17.7268 Q1828.8 17.7268 1823.29 24.0867 Q1817.78 30.4061 1817.78 42.3968 Q1817.78 54.3469 1823.29 60.7069 Q1828.8 67.0263 1839.17 67.0263 Q1844.43 67.0263 1849.09 65.1223 Q1853.79 63.2184 1857.92 59.3701 L1857.92 67.9175 Q1853.63 70.8341 1848.81 72.2924 Q1844.03 73.7508 1838.68 73.7508 Q1824.95 73.7508 1817.05 65.3654 Q1809.15 56.9395 1809.15 42.3968 Q1809.15 27.8135 1817.05 19.4281 Q1824.95 11.0023 1838.68 11.0023 Q1844.11 11.0023 1848.89 12.4606 Q1853.71 13.8784 1857.92 16.7545 Z" fill="#000000" fill-rule="nonzero" fill-opacity="1" /><path clip-path="url(#clip100)" d="M1878.74 18.8205 L1878.74 41.5461 L1889.03 41.5461 Q1894.75 41.5461 1897.86 38.5889 Q1900.98 35.6318 1900.98 30.163 Q1900.98 24.7348 1897.86 21.7777 Q1894.75 18.8205 1889.03 18.8205 L1878.74 18.8205 M1870.56 12.096 L1889.03 12.096 Q1899.2 12.096 1904.39 16.714 Q1909.61 21.2916 1909.61 30.163 Q1909.61 39.1155 1904.39 43.6931 Q1899.2 48.2706 1889.03 48.2706 L1878.74 48.2706 L1878.74 72.576 L1870.56 72.576 L1870.56 12.096 Z" fill="#000000" fill-rule="nonzero" fill-opacity="1" /><path clip-path="url(#clip100)" d="M1919.66 12.096 L1927.88 12.096 L1927.88 48.8377 Q1927.88 58.5599 1931.41 62.8538 Q1934.93 67.1073 1942.83 67.1073 Q1950.69 67.1073 1954.21 62.8538 Q1957.74 58.5599 1957.74 48.8377 L1957.74 12.096 L1965.96 12.096 L1965.96 49.8504 Q1965.96 61.6791 1960.09 67.7149 Q1954.25 73.7508 1942.83 73.7508 Q1931.37 73.7508 1925.49 67.7149 Q1919.66 61.6791 1919.66 49.8504 L1919.66 12.096 Z" fill="#000000" fill-rule="nonzero" fill-opacity="1" /><path clip-path="url(#clip102)" d="M249.158 1020 L249.158 1236.4 L415.115 1236.4 L415.115 1020 L249.158 1020 L249.158 1020  Z" fill="#808080" fill-rule="evenodd" fill-opacity="1"/>
<polyline clip-path="url(#clip102)" style="stroke:#000000; stroke-linecap:round; stroke-linejoin:round; stroke-width:4; stroke-opacity:1; fill:none" points="249.158,1020 249.158,1236.4 415.115,1236.4 415.115,1020 249.158,1020 "/>
<path clip-path="url(#clip102)" d="M486.239 891.257 L486.239 1236.4 L652.195 1236.4 L652.195 891.257 L486.239 891.257 L486.239 891.257  Z" fill="#808080" fill-rule="evenodd" fill-opacity="1"/>
<polyline clip-path="url(#clip102)" style="stroke:#000000; stroke-linecap:round; stroke-linejoin:round; stroke-width:4; stroke-opacity:1; fill:none" points="486.239,891.257 486.239,1236.4 652.195,1236.4 652.195,891.257 486.239,891.257 "/>
<circle clip-path="url(#clip102)" style="fill:#808080; stroke:none; fill-opacity:0" cx="332.137" cy="1020" r="2"/>
<circle clip-path="url(#clip102)" style="fill:#808080; stroke:none; fill-opacity:0" cx="569.217" cy="891.257" r="2"/>
<polyline clip-path="url(#clip102)" style="stroke:#000000; stroke-linecap:round; stroke-linejoin:round; stroke-width:4; stroke-opacity:1; fill:none" points="332.137,1028.53 332.137,1017.37 "/>
<polyline clip-path="url(#clip102)" style="stroke:#000000; stroke-linecap:round; stroke-linejoin:round; stroke-width:4; stroke-opacity:1; fill:none" points="569.217,892.422 569.217,884.468 "/>
<line clip-path="url(#clip102)" x1="348.137" y1="1028.53" x2="316.137" y2="1028.53" style="stroke:#000000; stroke-width:4; stroke-opacity:1"/>
<line clip-path="url(#clip102)" x1="348.137" y1="1017.37" x2="316.137" y2="1017.37" style="stroke:#000000; stroke-width:4; stroke-opacity:1"/>
<line clip-path="url(#clip102)" x1="585.217" y1="892.422" x2="553.217" y2="892.422" style="stroke:#000000; stroke-width:4; stroke-opacity:1"/>
<line clip-path="url(#clip102)" x1="585.217" y1="884.468" x2="553.217" y2="884.468" style="stroke:#000000; stroke-width:4; stroke-opacity:1"/>
<path clip-path="url(#clip102)" d="M818.389 1193.57 L818.389 1236.4 L984.345 1236.4 L984.345 1193.57 L818.389 1193.57 L818.389 1193.57  Z" fill="#17913e" fill-rule="evenodd" fill-opacity="1"/>
<polyline clip-path="url(#clip102)" style="stroke:#000000; stroke-linecap:round; stroke-linejoin:round; stroke-width:4; stroke-opacity:1; fill:none" points="818.389,1193.57 818.389,1236.4 984.345,1236.4 984.345,1193.57 818.389,1193.57 "/>
<path clip-path="url(#clip102)" d="M1055.47 1029.59 L1055.47 1236.4 L1221.43 1236.4 L1221.43 1029.59 L1055.47 1029.59 L1055.47 1029.59  Z" fill="#17913e" fill-rule="evenodd" fill-opacity="1"/>
<polyline clip-path="url(#clip102)" style="stroke:#000000; stroke-linecap:round; stroke-linejoin:round; stroke-width:4; stroke-opacity:1; fill:none" points="1055.47,1029.59 1055.47,1236.4 1221.43,1236.4 1221.43,1029.59 1055.47,1029.59 "/>
<path clip-path="url(#clip102)" d="M1292.55 255.638 L1292.55 1236.4 L1458.51 1236.4 L1458.51 255.638 L1292.55 255.638 L1292.55 255.638  Z" fill="#17913e" fill-rule="evenodd" fill-opacity="1"/>
<polyline clip-path="url(#clip102)" style="stroke:#000000; stroke-linecap:round; stroke-linejoin:round; stroke-width:4; stroke-opacity:1; fill:none" points="1292.55,255.638 1292.55,1236.4 1458.51,1236.4 1458.51,255.638 1292.55,255.638 "/>
<circle clip-path="url(#clip102)" style="fill:#17913e; stroke:none; fill-opacity:0" cx="901.367" cy="1193.57" r="2"/>
<circle clip-path="url(#clip102)" style="fill:#17913e; stroke:none; fill-opacity:0" cx="1138.45" cy="1029.59" r="2"/>
<circle clip-path="url(#clip102)" style="fill:#17913e; stroke:none; fill-opacity:0" cx="1375.53" cy="255.638" r="2"/>
<polyline clip-path="url(#clip102)" style="stroke:#000000; stroke-linecap:round; stroke-linejoin:round; stroke-width:4; stroke-opacity:1; fill:none" points="901.367,1194.36 901.367,1189.21 "/>
<polyline clip-path="url(#clip102)" style="stroke:#000000; stroke-linecap:round; stroke-linejoin:round; stroke-width:4; stroke-opacity:1; fill:none" points="1138.45,1036.99 1138.45,1022.27 "/>
<polyline clip-path="url(#clip102)" style="stroke:#000000; stroke-linecap:round; stroke-linejoin:round; stroke-width:4; stroke-opacity:1; fill:none" points="1375.53,307.805 1375.53,224.648 "/>
<line clip-path="url(#clip102)" x1="917.367" y1="1194.36" x2="885.367" y2="1194.36" style="stroke:#000000; stroke-width:4; stroke-opacity:1"/>
<line clip-path="url(#clip102)" x1="917.367" y1="1189.21" x2="885.367" y2="1189.21" style="stroke:#000000; stroke-width:4; stroke-opacity:1"/>
<line clip-path="url(#clip102)" x1="1154.45" y1="1036.99" x2="1122.45" y2="1036.99" style="stroke:#000000; stroke-width:4; stroke-opacity:1"/>
<line clip-path="url(#clip102)" x1="1154.45" y1="1022.27" x2="1122.45" y2="1022.27" style="stroke:#000000; stroke-width:4; stroke-opacity:1"/>
<line clip-path="url(#clip102)" x1="1391.53" y1="307.805" x2="1359.53" y2="307.805" style="stroke:#000000; stroke-width:4; stroke-opacity:1"/>
<line clip-path="url(#clip102)" x1="1391.53" y1="224.648" x2="1359.53" y2="224.648" style="stroke:#000000; stroke-width:4; stroke-opacity:1"/>
<path clip-path="url(#clip102)" d="M1631.81 810.073 L1631.81 1236.4 L1797.77 1236.4 L1797.77 810.073 L1631.81 810.073 L1631.81 810.073  Z" fill="#3065a6" fill-rule="evenodd" fill-opacity="1"/>
<polyline clip-path="url(#clip102)" style="stroke:#000000; stroke-linecap:round; stroke-linejoin:round; stroke-width:4; stroke-opacity:1; fill:none" points="1631.81,810.073 1631.81,1236.4 1797.77,1236.4 1797.77,810.073 1631.81,810.073 "/>
<path clip-path="url(#clip102)" d="M1868.89 1111.48 L1868.89 1236.4 L2034.85 1236.4 L2034.85 1111.48 L1868.89 1111.48 L1868.89 1111.48  Z" fill="#3065a6" fill-rule="evenodd" fill-opacity="1"/>
<polyline clip-path="url(#clip102)" style="stroke:#000000; stroke-linecap:round; stroke-linejoin:round; stroke-width:4; stroke-opacity:1; fill:none" points="1868.89,1111.48 1868.89,1236.4 2034.85,1236.4 2034.85,1111.48 1868.89,1111.48 "/>
<path clip-path="url(#clip102)" d="M2105.97 1191.15 L2105.97 1236.4 L2271.93 1236.4 L2271.93 1191.15 L2105.97 1191.15 L2105.97 1191.15  Z" fill="#3065a6" fill-rule="evenodd" fill-opacity="1"/>
<polyline clip-path="url(#clip102)" style="stroke:#000000; stroke-linecap:round; stroke-linejoin:round; stroke-width:4; stroke-opacity:1; fill:none" points="2105.97,1191.15 2105.97,1236.4 2271.93,1236.4 2271.93,1191.15 2105.97,1191.15 "/>
<circle clip-path="url(#clip102)" style="fill:#3065a6; stroke:none; fill-opacity:0" cx="1714.79" cy="810.073" r="2"/>
<circle clip-path="url(#clip102)" style="fill:#3065a6; stroke:none; fill-opacity:0" cx="1951.87" cy="1111.48" r="2"/>
<circle clip-path="url(#clip102)" style="fill:#3065a6; stroke:none; fill-opacity:0" cx="2188.95" cy="1191.15" r="2"/>
<polyline clip-path="url(#clip102)" style="stroke:#000000; stroke-linecap:round; stroke-linejoin:round; stroke-width:4; stroke-opacity:1; fill:none" points="1714.79,831.952 1714.79,782.695 "/>
<polyline clip-path="url(#clip102)" style="stroke:#000000; stroke-linecap:round; stroke-linejoin:round; stroke-width:4; stroke-opacity:1; fill:none" points="1951.87,1113.06 1951.87,1110.73 "/>
<polyline clip-path="url(#clip102)" style="stroke:#000000; stroke-linecap:round; stroke-linejoin:round; stroke-width:4; stroke-opacity:1; fill:none" points="2188.95,1191.43 2188.95,1190.93 "/>
<line clip-path="url(#clip102)" x1="1730.79" y1="831.952" x2="1698.79" y2="831.952" style="stroke:#000000; stroke-width:4; stroke-opacity:1"/>
<line clip-path="url(#clip102)" x1="1730.79" y1="782.695" x2="1698.79" y2="782.695" style="stroke:#000000; stroke-width:4; stroke-opacity:1"/>
<line clip-path="url(#clip102)" x1="1967.87" y1="1113.06" x2="1935.87" y2="1113.06" style="stroke:#000000; stroke-width:4; stroke-opacity:1"/>
<line clip-path="url(#clip102)" x1="1967.87" y1="1110.73" x2="1935.87" y2="1110.73" style="stroke:#000000; stroke-width:4; stroke-opacity:1"/>
<line clip-path="url(#clip102)" x1="2204.95" y1="1191.43" x2="2172.95" y2="1191.43" style="stroke:#000000; stroke-width:4; stroke-opacity:1"/>
<line clip-path="url(#clip102)" x1="2204.95" y1="1190.93" x2="2172.95" y2="1190.93" style="stroke:#000000; stroke-width:4; stroke-opacity:1"/>
<path clip-path="url(#clip100)" d="M1904.95 367.93 L2280.18 367.93 L2280.18 160.57 L1904.95 160.57  Z" fill="#ffffff" fill-rule="evenodd" fill-opacity="1"/>
<polyline clip-path="url(#clip100)" style="stroke:#000000; stroke-linecap:round; stroke-linejoin:round; stroke-width:4; stroke-opacity:1; fill:none" points="1904.95,367.93 2280.18,367.93 2280.18,160.57 1904.95,160.57 1904.95,367.93 "/>
<path clip-path="url(#clip100)" d="M1929.14 233.146 L2074.3 233.146 L2074.3 191.674 L1929.14 191.674 L1929.14 233.146  Z" fill="#808080" fill-rule="evenodd" fill-opacity="1"/>
<polyline clip-path="url(#clip100)" style="stroke:#000000; stroke-linecap:round; stroke-linejoin:round; stroke-width:4; stroke-opacity:1; fill:none" points="1929.14,233.146 2074.3,233.146 2074.3,191.674 1929.14,191.674 1929.14,233.146 "/>
<path clip-path="url(#clip100)" d="M2126.36 197.792 L2126.36 202.722 Q2124 200.523 2121.31 199.435 Q2118.65 198.347 2115.64 198.347 Q2109.71 198.347 2106.57 201.982 Q2103.42 205.593 2103.42 212.445 Q2103.42 219.273 2106.57 222.908 Q2109.71 226.519 2115.64 226.519 Q2118.65 226.519 2121.31 225.431 Q2124 224.343 2126.36 222.144 L2126.36 227.028 Q2123.9 228.695 2121.15 229.528 Q2118.42 230.361 2115.36 230.361 Q2107.52 230.361 2103 225.57 Q2098.49 220.755 2098.49 212.445 Q2098.49 204.111 2103 199.32 Q2107.52 194.505 2115.36 194.505 Q2118.46 194.505 2121.2 195.338 Q2123.95 196.148 2126.36 197.792 Z" fill="#000000" fill-rule="nonzero" fill-opacity="1" /><path clip-path="url(#clip100)" d="M1929.14 284.986 L2074.3 284.986 L2074.3 243.514 L1929.14 243.514 L1929.14 284.986  Z" fill="#17913e" fill-rule="evenodd" fill-opacity="1"/>
<polyline clip-path="url(#clip100)" style="stroke:#000000; stroke-linecap:round; stroke-linejoin:round; stroke-width:4; stroke-opacity:1; fill:none" points="1929.14,284.986 2074.3,284.986 2074.3,243.514 1929.14,243.514 1929.14,284.986 "/>
<path clip-path="url(#clip100)" d="M2103.81 255.604 L2108.07 255.604 L2108.07 281.993 Q2108.07 286.947 2106.17 289.169 Q2104.3 291.391 2100.11 291.391 L2098.49 291.391 L2098.49 287.78 L2099.62 287.78 Q2102.05 287.78 2102.93 286.646 Q2103.81 285.534 2103.81 281.993 L2103.81 255.604 M2103.81 245.512 L2108.07 245.512 L2108.07 250.905 L2103.81 250.905 L2103.81 245.512 Z" fill="#000000" fill-rule="nonzero" fill-opacity="1" /><path clip-path="url(#clip100)" d="M2116.54 271.298 L2116.54 255.604 L2120.8 255.604 L2120.8 271.136 Q2120.8 274.817 2122.24 276.669 Q2123.67 278.497 2126.54 278.497 Q2129.99 278.497 2131.98 276.298 Q2134 274.099 2134 270.303 L2134 255.604 L2138.26 255.604 L2138.26 281.53 L2134 281.53 L2134 277.548 Q2132.45 279.91 2130.39 281.067 Q2128.35 282.201 2125.64 282.201 Q2121.17 282.201 2118.86 279.423 Q2116.54 276.646 2116.54 271.298 M2127.26 254.979 L2127.26 254.979 Z" fill="#000000" fill-rule="nonzero" fill-opacity="1" /><path clip-path="url(#clip100)" d="M2147.03 245.512 L2151.29 245.512 L2151.29 281.53 L2147.03 281.53 L2147.03 245.512 Z" fill="#000000" fill-rule="nonzero" fill-opacity="1" /><path clip-path="url(#clip100)" d="M2160.2 255.604 L2164.46 255.604 L2164.46 281.53 L2160.2 281.53 L2160.2 255.604 M2160.2 245.512 L2164.46 245.512 L2164.46 250.905 L2160.2 250.905 L2160.2 245.512 Z" fill="#000000" fill-rule="nonzero" fill-opacity="1" /><path clip-path="url(#clip100)" d="M2185.15 268.498 Q2179.99 268.498 2178 269.678 Q2176.01 270.859 2176.01 273.706 Q2176.01 275.974 2177.49 277.317 Q2179 278.636 2181.57 278.636 Q2185.11 278.636 2187.24 276.136 Q2189.39 273.613 2189.39 269.447 L2189.39 268.498 L2185.15 268.498 M2193.65 266.738 L2193.65 281.53 L2189.39 281.53 L2189.39 277.595 Q2187.93 279.956 2185.76 281.09 Q2183.58 282.201 2180.43 282.201 Q2176.45 282.201 2174.09 279.979 Q2171.75 277.734 2171.75 273.984 Q2171.75 269.609 2174.67 267.386 Q2177.61 265.164 2183.42 265.164 L2189.39 265.164 L2189.39 264.748 Q2189.39 261.808 2187.45 260.211 Q2185.52 258.59 2182.03 258.59 Q2179.81 258.59 2177.7 259.123 Q2175.59 259.655 2173.65 260.72 L2173.65 256.785 Q2175.99 255.882 2178.19 255.442 Q2180.39 254.979 2182.47 254.979 Q2188.09 254.979 2190.87 257.896 Q2193.65 260.812 2193.65 266.738 Z" fill="#000000" fill-rule="nonzero" fill-opacity="1" /><path clip-path="url(#clip100)" d="M1929.14 336.826 L2074.3 336.826 L2074.3 295.354 L1929.14 295.354 L1929.14 336.826  Z" fill="#3065a6" fill-rule="evenodd" fill-opacity="1"/>
<polyline clip-path="url(#clip100)" style="stroke:#000000; stroke-linecap:round; stroke-linejoin:round; stroke-width:4; stroke-opacity:1; fill:none" points="1929.14,336.826 2074.3,336.826 2074.3,295.354 1929.14,295.354 1929.14,336.826 "/>
<path clip-path="url(#clip100)" d="M2102.77 329.481 L2102.77 343.231 L2098.49 343.231 L2098.49 307.444 L2102.77 307.444 L2102.77 311.379 Q2104.11 309.064 2106.15 307.953 Q2108.21 306.819 2111.06 306.819 Q2115.78 306.819 2118.72 310.569 Q2121.68 314.319 2121.68 320.43 Q2121.68 326.541 2118.72 330.291 Q2115.78 334.041 2111.06 334.041 Q2108.21 334.041 2106.15 332.93 Q2104.11 331.796 2102.77 329.481 M2117.26 320.43 Q2117.26 315.731 2115.32 313.069 Q2113.39 310.384 2110.02 310.384 Q2106.64 310.384 2104.69 313.069 Q2102.77 315.731 2102.77 320.43 Q2102.77 325.129 2104.69 327.814 Q2106.64 330.476 2110.02 330.476 Q2113.39 330.476 2115.32 327.814 Q2117.26 325.129 2117.26 320.43 Z" fill="#000000" fill-rule="nonzero" fill-opacity="1" /><path clip-path="url(#clip100)" d="M2139.53 335.777 Q2137.72 340.407 2136.01 341.819 Q2134.3 343.231 2131.43 343.231 L2128.02 343.231 L2128.02 339.666 L2130.52 339.666 Q2132.28 339.666 2133.26 338.833 Q2134.23 337.999 2135.41 334.898 L2136.17 332.953 L2125.69 307.444 L2130.2 307.444 L2138.3 327.722 L2146.4 307.444 L2150.92 307.444 L2139.53 335.777 Z" fill="#000000" fill-rule="nonzero" fill-opacity="1" /><path clip-path="url(#clip100)" d="M2161.01 300.083 L2161.01 307.444 L2169.78 307.444 L2169.78 310.754 L2161.01 310.754 L2161.01 324.828 Q2161.01 328 2161.87 328.902 Q2162.75 329.805 2165.41 329.805 L2169.78 329.805 L2169.78 333.37 L2165.41 333.37 Q2160.48 333.37 2158.6 331.541 Q2156.73 329.689 2156.73 324.828 L2156.73 310.754 L2153.6 310.754 L2153.6 307.444 L2156.73 307.444 L2156.73 300.083 L2161.01 300.083 Z" fill="#000000" fill-rule="nonzero" fill-opacity="1" /><path clip-path="url(#clip100)" d="M2196.94 317.722 L2196.94 333.37 L2192.68 333.37 L2192.68 317.861 Q2192.68 314.18 2191.24 312.351 Q2189.81 310.523 2186.94 310.523 Q2183.49 310.523 2181.5 312.722 Q2179.51 314.921 2179.51 318.717 L2179.51 333.37 L2175.22 333.37 L2175.22 297.352 L2179.51 297.352 L2179.51 311.472 Q2181.03 309.134 2183.09 307.976 Q2185.18 306.819 2187.89 306.819 Q2192.35 306.819 2194.64 309.597 Q2196.94 312.351 2196.94 317.722 Z" fill="#000000" fill-rule="nonzero" fill-opacity="1" /><path clip-path="url(#clip100)" d="M2215.48 310.43 Q2212.05 310.43 2210.06 313.115 Q2208.07 315.777 2208.07 320.43 Q2208.07 325.083 2210.04 327.768 Q2212.03 330.43 2215.48 330.43 Q2218.88 330.43 2220.87 327.745 Q2222.86 325.06 2222.86 320.43 Q2222.86 315.824 2220.87 313.139 Q2218.88 310.43 2215.48 310.43 M2215.48 306.819 Q2221.03 306.819 2224.2 310.43 Q2227.38 314.041 2227.38 320.43 Q2227.38 326.796 2224.2 330.43 Q2221.03 334.041 2215.48 334.041 Q2209.9 334.041 2206.73 330.43 Q2203.58 326.796 2203.58 320.43 Q2203.58 314.041 2206.73 310.43 Q2209.9 306.819 2215.48 306.819 Z" fill="#000000" fill-rule="nonzero" fill-opacity="1" /><path clip-path="url(#clip100)" d="M2255.99 317.722 L2255.99 333.37 L2251.73 333.37 L2251.73 317.861 Q2251.73 314.18 2250.29 312.351 Q2248.86 310.523 2245.99 310.523 Q2242.54 310.523 2240.55 312.722 Q2238.56 314.921 2238.56 318.717 L2238.56 333.37 L2234.27 333.37 L2234.27 307.444 L2238.56 307.444 L2238.56 311.472 Q2240.08 309.134 2242.14 307.976 Q2244.23 306.819 2246.94 306.819 Q2251.4 306.819 2253.69 309.597 Q2255.99 312.351 2255.99 317.722 Z" fill="#000000" fill-rule="nonzero" fill-opacity="1" /></svg>
