<?xml version="1.0" encoding="utf-8"?>
<svg xmlns="http://www.w3.org/2000/svg" xmlns:xlink="http://www.w3.org/1999/xlink" width="600" height="400" viewBox="0 0 2400 1600">
<defs>
  <clipPath id="clip260">
    <rect x="0" y="0" width="2400" height="1600"/>
  </clipPath>
</defs>
<path clip-path="url(#clip260)" d="M0 1600 L2400 1600 L2400 0 L0 0  Z" fill="#ffffff" fill-rule="evenodd" fill-opacity="1"/>
<defs>
  <clipPath id="clip261">
    <rect x="480" y="0" width="1681" height="1600"/>
  </clipPath>
</defs>
<path clip-path="url(#clip260)" d="M175.445 1292.71 L2352.76 1292.71 L2352.76 123.472 L175.445 123.472  Z" fill="#ffffff" fill-rule="evenodd" fill-opacity="1"/>
<defs>
  <clipPath id="clip262">
    <rect x="175" y="123" width="2178" height="1170"/>
  </clipPath>
</defs>
<polyline clip-path="url(#clip262)" style="stroke:#000000; stroke-linecap:round; stroke-linejoin:round; stroke-width:2; stroke-opacity:0.1; fill:none" points="374.524,1292.71 374.524,123.472 "/>
<polyline clip-path="url(#clip262)" style="stroke:#000000; stroke-linecap:round; stroke-linejoin:round; stroke-width:2; stroke-opacity:0.1; fill:none" points="882.483,1292.71 882.483,123.472 "/>
<polyline clip-path="url(#clip262)" style="stroke:#000000; stroke-linecap:round; stroke-linejoin:round; stroke-width:2; stroke-opacity:0.1; fill:none" points="1390.44,1292.71 1390.44,123.472 "/>
<polyline clip-path="url(#clip262)" style="stroke:#000000; stroke-linecap:round; stroke-linejoin:round; stroke-width:2; stroke-opacity:0.1; fill:none" points="1760.94,1292.71 1760.94,123.472 "/>
<polyline clip-path="url(#clip262)" style="stroke:#000000; stroke-linecap:round; stroke-linejoin:round; stroke-width:2; stroke-opacity:0.1; fill:none" points="2131.45,1292.71 2131.45,123.472 "/>
<polyline clip-path="url(#clip260)" style="stroke:#000000; stroke-linecap:round; stroke-linejoin:round; stroke-width:4; stroke-opacity:1; fill:none" points="175.445,1292.71 2352.76,1292.71 "/>
<polyline clip-path="url(#clip260)" style="stroke:#000000; stroke-linecap:round; stroke-linejoin:round; stroke-width:4; stroke-opacity:1; fill:none" points="374.524,1292.71 374.524,1273.81 "/>
<polyline clip-path="url(#clip260)" style="stroke:#000000; stroke-linecap:round; stroke-linejoin:round; stroke-width:4; stroke-opacity:1; fill:none" points="882.483,1292.71 882.483,1273.81 "/>
<polyline clip-path="url(#clip260)" style="stroke:#000000; stroke-linecap:round; stroke-linejoin:round; stroke-width:4; stroke-opacity:1; fill:none" points="1390.44,1292.71 1390.44,1273.81 "/>
<polyline clip-path="url(#clip260)" style="stroke:#000000; stroke-linecap:round; stroke-linejoin:round; stroke-width:4; stroke-opacity:1; fill:none" points="1760.94,1292.71 1760.94,1273.81 "/>
<polyline clip-path="url(#clip260)" style="stroke:#000000; stroke-linecap:round; stroke-linejoin:round; stroke-width:4; stroke-opacity:1; fill:none" points="2131.45,1292.71 2131.45,1273.81 "/>
<path clip-path="url(#clip260)" d="M245.175 1461.9 L256.239 1472.96 L253.228 1475.97 L242.261 1465.01 Q239.659 1462.4 237.351 1462.13 Q235.043 1461.85 233.013 1463.88 Q230.574 1466.32 230.722 1469.28 Q230.869 1472.24 233.553 1474.93 L243.914 1485.29 L240.886 1488.31 L222.554 1469.98 L225.582 1466.95 L228.43 1469.8 Q227.857 1467.07 228.495 1464.79 Q229.15 1462.5 231.065 1460.59 Q234.224 1457.43 237.809 1457.77 Q241.377 1458.1 245.175 1461.9 Z" fill="#000000" fill-rule="nonzero" fill-opacity="1" /><path clip-path="url(#clip260)" d="M261.363 1449.41 Q257.713 1453.06 257.14 1455.3 Q256.567 1457.54 258.58 1459.56 Q260.184 1461.16 262.181 1461.06 Q264.178 1460.93 265.995 1459.11 Q268.499 1456.61 268.237 1453.34 Q267.975 1450.03 265.029 1447.08 L264.358 1446.41 L261.363 1449.41 M266.126 1442.16 L276.585 1452.62 L273.573 1455.63 L270.791 1452.84 Q271.429 1455.55 270.692 1457.89 Q269.94 1460.21 267.713 1462.44 Q264.898 1465.25 261.657 1465.35 Q258.416 1465.42 255.765 1462.76 Q252.671 1459.67 253.162 1456.04 Q253.67 1452.39 257.778 1448.28 L262.001 1444.05 L261.706 1443.76 Q259.628 1441.68 257.123 1441.93 Q254.619 1442.14 252.147 1444.61 Q250.576 1446.18 249.463 1448.05 Q248.35 1449.91 247.728 1452.04 L244.945 1449.26 Q245.96 1446.97 247.204 1445.1 Q248.432 1443.22 249.905 1441.75 Q253.882 1437.77 257.909 1437.87 Q261.936 1437.97 266.126 1442.16 Z" fill="#000000" fill-rule="nonzero" fill-opacity="1" /><path clip-path="url(#clip260)" d="M264.456 1428.08 L267.468 1425.07 L285.8 1443.4 L282.789 1446.41 L264.456 1428.08 M257.32 1420.94 L260.331 1417.93 L264.145 1421.75 L261.134 1424.76 L257.32 1420.94 Z" fill="#000000" fill-rule="nonzero" fill-opacity="1" /><path clip-path="url(#clip260)" d="M271.609 1420.93 L274.801 1417.73 L295.916 1427.39 L286.259 1406.28 L289.45 1403.09 L300.908 1428.29 L296.816 1432.38 L271.609 1420.93 Z" fill="#000000" fill-rule="nonzero" fill-opacity="1" /><path clip-path="url(#clip260)" d="M317.702 1391.66 L319.175 1393.13 L305.327 1406.98 Q308.634 1409.89 311.94 1409.86 Q315.247 1409.8 318.242 1406.8 Q319.977 1405.07 321.172 1403.02 Q322.383 1400.96 323.136 1398.5 L325.984 1401.35 Q325.051 1403.66 323.709 1405.72 Q322.367 1407.78 320.615 1409.53 Q316.229 1413.92 311.105 1413.94 Q305.999 1413.94 301.645 1409.58 Q297.143 1405.08 296.931 1400.02 Q296.718 1394.93 300.843 1390.81 Q304.542 1387.11 309.076 1387.36 Q313.61 1387.57 317.702 1391.66 M313.806 1393.79 Q311.302 1391.35 308.47 1391.23 Q305.655 1391.1 303.429 1393.33 Q300.908 1395.85 300.81 1398.8 Q300.728 1401.73 303.085 1404.54 L313.806 1393.79 Z" fill="#000000" fill-rule="nonzero" fill-opacity="1" /><path clip-path="url(#clip260)" d="M325.018 1353.31 Q326.59 1359.27 329.209 1364.01 Q331.827 1368.76 335.608 1372.54 Q339.39 1376.32 344.169 1378.98 Q348.948 1381.59 354.874 1383.17 L352.255 1385.78 Q345.953 1384.39 341.01 1381.91 Q336.083 1379.4 332.417 1375.73 Q328.767 1372.08 326.279 1367.17 Q323.791 1362.26 322.399 1355.93 L325.018 1353.31 Z" fill="#000000" fill-rule="nonzero" fill-opacity="1" /><path clip-path="url(#clip260)" d="M352.173 1331.92 L355.659 1335.4 Q352.435 1335.52 349.767 1336.65 Q347.115 1337.76 344.987 1339.89 Q340.797 1344.08 341.141 1348.87 Q341.468 1353.65 346.313 1358.5 Q351.142 1363.33 355.938 1363.67 Q360.717 1364 364.907 1359.81 Q367.035 1357.68 368.148 1355.03 Q369.278 1352.36 369.392 1349.14 L372.846 1352.59 Q372.289 1355.5 370.931 1358.04 Q369.589 1360.56 367.428 1362.72 Q361.879 1368.27 355.299 1368.07 Q348.703 1367.86 342.827 1361.99 Q336.934 1356.09 336.738 1349.51 Q336.525 1342.92 342.074 1337.37 Q344.267 1335.17 346.788 1333.83 Q349.309 1332.46 352.173 1331.92 Z" fill="#000000" fill-rule="nonzero" fill-opacity="1" /><path clip-path="url(#clip260)" d="M353.793 1324.53 L356.412 1321.92 Q362.73 1323.32 367.641 1325.81 Q372.568 1328.28 376.218 1331.93 Q379.884 1335.6 382.372 1340.54 Q384.877 1345.47 386.268 1351.77 L383.649 1354.39 Q382.078 1348.47 379.442 1343.7 Q376.807 1338.91 373.026 1335.13 Q369.245 1331.34 364.482 1328.74 Q359.735 1326.12 353.793 1324.53 Z" fill="#000000" fill-rule="nonzero" fill-opacity="1" /><path clip-path="url(#clip260)" d="M766.654 1448.38 L777.719 1459.44 L774.707 1462.45 L763.74 1451.49 Q761.138 1448.88 758.83 1448.61 Q756.522 1448.33 754.492 1450.36 Q752.053 1452.8 752.201 1455.76 Q752.348 1458.72 755.032 1461.41 L765.393 1471.77 L762.365 1474.79 L744.033 1456.46 L747.061 1453.43 L749.909 1456.28 Q749.336 1453.55 749.975 1451.27 Q750.629 1448.98 752.544 1447.07 Q755.704 1443.91 759.288 1444.25 Q762.856 1444.58 766.654 1448.38 Z" fill="#000000" fill-rule="nonzero" fill-opacity="1" /><path clip-path="url(#clip260)" d="M782.842 1435.89 Q779.192 1439.54 778.619 1441.78 Q778.046 1444.02 780.059 1446.04 Q781.663 1447.64 783.66 1447.54 Q785.657 1447.41 787.474 1445.59 Q789.978 1443.09 789.716 1439.82 Q789.455 1436.51 786.508 1433.56 L785.837 1432.89 L782.842 1435.89 M787.605 1428.64 L798.064 1439.1 L795.052 1442.11 L792.27 1439.32 Q792.908 1442.03 792.172 1444.37 Q791.419 1446.69 789.193 1448.92 Q786.377 1451.73 783.136 1451.83 Q779.896 1451.9 777.244 1449.24 Q774.15 1446.15 774.641 1442.52 Q775.149 1438.87 779.257 1434.76 L783.48 1430.53 L783.186 1430.24 Q781.107 1428.16 778.603 1428.41 Q776.098 1428.62 773.627 1431.09 Q772.055 1432.66 770.942 1434.53 Q769.829 1436.39 769.207 1438.52 L766.425 1435.74 Q767.439 1433.45 768.683 1431.58 Q769.911 1429.7 771.384 1428.23 Q775.362 1424.25 779.388 1424.35 Q783.415 1424.45 787.605 1428.64 Z" fill="#000000" fill-rule="nonzero" fill-opacity="1" /><path clip-path="url(#clip260)" d="M785.935 1414.56 L788.947 1411.55 L807.279 1429.88 L804.268 1432.89 L785.935 1414.56 M778.799 1407.42 L781.811 1404.41 L785.624 1408.23 L782.613 1411.24 L778.799 1407.42 Z" fill="#000000" fill-rule="nonzero" fill-opacity="1" /><path clip-path="url(#clip260)" d="M793.088 1407.41 L796.28 1404.21 L817.395 1413.87 L807.738 1392.76 L810.93 1389.57 L822.387 1414.77 L818.295 1418.86 L793.088 1407.41 Z" fill="#000000" fill-rule="nonzero" fill-opacity="1" /><path clip-path="url(#clip260)" d="M839.181 1378.14 L840.654 1379.61 L826.807 1393.46 Q830.113 1396.37 833.419 1396.34 Q836.726 1396.28 839.721 1393.28 Q841.456 1391.55 842.651 1389.5 Q843.862 1387.44 844.615 1384.98 L847.463 1387.83 Q846.53 1390.14 845.188 1392.2 Q843.846 1394.26 842.094 1396.01 Q837.708 1400.4 832.585 1400.42 Q827.478 1400.42 823.124 1396.06 Q818.623 1391.56 818.41 1386.5 Q818.197 1381.41 822.322 1377.29 Q826.021 1373.59 830.555 1373.84 Q835.089 1374.05 839.181 1378.14 M835.285 1380.27 Q832.781 1377.83 829.949 1377.71 Q827.134 1377.58 824.908 1379.81 Q822.387 1382.33 822.289 1385.28 Q822.207 1388.21 824.564 1391.02 L835.285 1380.27 Z" fill="#000000" fill-rule="nonzero" fill-opacity="1" /><path clip-path="url(#clip260)" d="M846.498 1339.79 Q848.069 1345.75 850.688 1350.49 Q853.307 1355.24 857.088 1359.02 Q860.869 1362.8 865.648 1365.46 Q870.428 1368.07 876.353 1369.65 L873.734 1372.26 Q867.432 1370.87 862.489 1368.39 Q857.562 1365.88 853.896 1362.21 Q850.246 1358.56 847.758 1353.65 Q845.27 1348.74 843.879 1342.41 L846.498 1339.79 Z" fill="#000000" fill-rule="nonzero" fill-opacity="1" /><path clip-path="url(#clip260)" d="M853.47 1334.81 L856.777 1331.51 L879.512 1354.24 Q883.931 1358.66 884.242 1362.35 Q884.57 1366.01 880.854 1369.73 L879.594 1370.99 L876.811 1368.21 L877.842 1367.17 Q880.036 1364.98 879.708 1362.85 Q879.381 1360.72 876.206 1357.55 L853.47 1334.81 Z" fill="#000000" fill-rule="nonzero" fill-opacity="1" /><path clip-path="url(#clip260)" d="M861.753 1324.53 L864.371 1321.92 Q870.69 1323.32 875.6 1325.81 Q880.527 1328.28 884.177 1331.93 Q887.843 1335.6 890.331 1340.54 Q892.836 1345.47 894.227 1351.77 L891.608 1354.39 Q890.037 1348.47 887.401 1343.7 Q884.766 1338.91 880.985 1335.13 Q877.204 1331.34 872.441 1328.74 Q867.694 1326.12 861.753 1324.53 Z" fill="#000000" fill-rule="nonzero" fill-opacity="1" /><path clip-path="url(#clip260)" d="M1189.6 1524.42 L1179.68 1514.5 L1182.69 1511.49 L1208.16 1536.96 L1205.15 1539.97 L1202.4 1537.22 Q1203.08 1539.81 1202.43 1542.07 Q1201.77 1544.29 1199.75 1546.32 Q1196.42 1549.65 1191.68 1549.09 Q1186.95 1548.52 1182.62 1544.2 Q1178.3 1539.87 1177.73 1535.14 Q1177.17 1530.4 1180.5 1527.07 Q1182.53 1525.04 1184.77 1524.41 Q1187.01 1523.73 1189.6 1524.42 M1185.73 1541.09 Q1189.06 1544.41 1192.31 1544.95 Q1195.57 1545.46 1197.96 1543.07 Q1200.35 1540.68 1199.84 1537.42 Q1199.32 1534.15 1196 1530.82 Q1192.67 1527.5 1189.42 1526.99 Q1186.14 1526.47 1183.75 1528.86 Q1181.36 1531.25 1181.89 1534.52 Q1182.41 1537.76 1185.73 1541.09 Z" fill="#000000" fill-rule="nonzero" fill-opacity="1" /><path clip-path="url(#clip260)" d="M1213.48 1513.21 Q1209.83 1516.86 1209.26 1519.1 Q1208.68 1521.35 1210.7 1523.36 Q1212.3 1524.96 1214.3 1524.86 Q1216.29 1524.73 1218.11 1522.92 Q1220.61 1520.41 1220.35 1517.14 Q1220.09 1513.83 1217.14 1510.89 L1216.47 1510.21 L1213.48 1513.21 M1218.24 1505.96 L1228.7 1516.42 L1225.69 1519.43 L1222.91 1516.65 Q1223.54 1519.35 1222.81 1521.69 Q1222.05 1524.01 1219.83 1526.24 Q1217.01 1529.05 1213.77 1529.15 Q1210.53 1529.22 1207.88 1526.57 Q1204.79 1523.47 1205.28 1519.84 Q1205.78 1516.19 1209.89 1512.08 L1214.12 1507.86 L1213.82 1507.56 Q1211.74 1505.48 1209.24 1505.73 Q1206.73 1505.94 1204.26 1508.41 Q1202.69 1509.99 1201.58 1511.85 Q1200.47 1513.72 1199.84 1515.85 L1197.06 1513.06 Q1198.08 1510.77 1199.32 1508.91 Q1200.55 1507.02 1202.02 1505.55 Q1206 1501.57 1210.02 1501.67 Q1214.05 1501.77 1218.24 1505.96 Z" fill="#000000" fill-rule="nonzero" fill-opacity="1" /><path clip-path="url(#clip260)" d="M1230.47 1479.39 L1233.28 1482.21 Q1231.3 1482.78 1229.67 1483.73 Q1228.03 1484.65 1226.72 1485.96 Q1223.79 1488.89 1224.04 1492.37 Q1224.26 1495.84 1227.62 1499.2 Q1230.98 1502.55 1234.46 1502.8 Q1237.93 1503.03 1240.86 1500.1 Q1242.17 1498.79 1243.1 1497.17 Q1244.04 1495.52 1244.61 1493.54 L1247.39 1496.32 Q1246.72 1498.17 1245.66 1499.82 Q1244.61 1501.46 1243.09 1502.98 Q1238.95 1507.12 1233.91 1506.96 Q1228.86 1506.79 1224.44 1502.37 Q1219.96 1497.89 1219.85 1492.86 Q1219.75 1487.82 1224.04 1483.53 Q1225.43 1482.14 1227.05 1481.11 Q1228.65 1480.06 1230.47 1479.39 Z" fill="#000000" fill-rule="nonzero" fill-opacity="1" /><path clip-path="url(#clip260)" d="M1259.1 1466.18 L1260.57 1467.66 L1246.72 1481.51 Q1250.03 1484.42 1253.33 1484.39 Q1256.64 1484.32 1259.64 1481.33 Q1261.37 1479.59 1262.57 1477.54 Q1263.78 1475.48 1264.53 1473.03 L1267.38 1475.87 Q1266.45 1478.18 1265.1 1480.24 Q1263.76 1482.31 1262.01 1484.06 Q1257.62 1488.45 1252.5 1488.46 Q1247.39 1488.46 1243.04 1484.11 Q1238.54 1479.61 1238.32 1474.55 Q1238.11 1469.46 1242.24 1465.33 Q1245.94 1461.63 1250.47 1461.88 Q1255 1462.09 1259.1 1466.18 M1255.2 1468.31 Q1252.7 1465.87 1249.86 1465.76 Q1247.05 1465.63 1244.82 1467.85 Q1242.3 1470.37 1242.2 1473.32 Q1242.12 1476.25 1244.48 1479.07 L1255.2 1468.31 Z" fill="#000000" fill-rule="nonzero" fill-opacity="1" /><path clip-path="url(#clip260)" d="M1293.45 1462.8 L1295.79 1465.14 L1278.38 1482.55 L1276.04 1480.21 L1293.45 1462.8 Z" fill="#000000" fill-rule="nonzero" fill-opacity="1" /><path clip-path="url(#clip260)" d="M1286.28 1423.58 L1289.1 1426.39 Q1287.12 1426.97 1285.48 1427.92 Q1283.84 1428.83 1282.54 1430.14 Q1279.61 1433.07 1279.85 1436.56 Q1280.08 1440.03 1283.44 1443.38 Q1286.79 1446.74 1290.28 1446.98 Q1293.75 1447.21 1296.68 1444.28 Q1297.99 1442.97 1298.92 1441.35 Q1299.85 1439.7 1300.43 1437.72 L1303.21 1440.5 Q1302.54 1442.35 1301.47 1444.01 Q1300.43 1445.64 1298.9 1447.16 Q1294.76 1451.31 1289.72 1451.14 Q1284.68 1450.98 1280.26 1446.56 Q1275.78 1442.07 1275.66 1437.05 Q1275.56 1432.01 1279.85 1427.72 Q1281.24 1426.33 1282.86 1425.3 Q1284.47 1424.25 1286.28 1423.58 Z" fill="#000000" fill-rule="nonzero" fill-opacity="1" /><path clip-path="url(#clip260)" d="M1309.31 1430.31 L1319.04 1440.03 L1316.01 1443.06 L1290.7 1417.75 L1293.73 1414.72 L1296.51 1417.51 Q1295.83 1414.92 1296.48 1412.69 Q1297.14 1410.43 1299.15 1408.42 Q1302.49 1405.08 1307.22 1405.66 Q1311.96 1406.21 1316.29 1410.53 Q1320.61 1414.85 1321.16 1419.6 Q1321.74 1424.33 1318.4 1427.67 Q1316.38 1429.68 1314.14 1430.35 Q1311.9 1430.99 1309.31 1430.31 M1313.16 1413.66 Q1309.84 1410.34 1306.58 1409.83 Q1303.32 1409.29 1300.93 1411.68 Q1298.54 1414.07 1299.07 1417.34 Q1299.59 1420.58 1302.91 1423.91 Q1306.24 1427.23 1309.49 1427.77 Q1312.75 1428.28 1315.14 1425.89 Q1317.53 1423.5 1317.01 1420.26 Q1316.48 1416.98 1313.16 1413.66 Z" fill="#000000" fill-rule="nonzero" fill-opacity="1" /><path clip-path="url(#clip260)" d="M1322.88 1407.77 L1311.78 1396.67 L1314.8 1393.66 L1325.78 1404.64 Q1328.38 1407.24 1330.71 1407.54 Q1333.01 1407.82 1335.04 1405.79 Q1337.48 1403.35 1337.34 1400.38 Q1337.2 1397.41 1334.52 1394.72 L1324.13 1384.33 L1327.14 1381.32 L1345.47 1399.65 L1342.46 1402.66 L1339.64 1399.84 Q1340.22 1402.61 1339.58 1404.89 Q1338.94 1407.13 1337.02 1409.04 Q1333.87 1412.2 1330.26 1411.88 Q1326.66 1411.55 1322.88 1407.77 M1318.92 1388.65 L1318.92 1388.65 Z" fill="#000000" fill-rule="nonzero" fill-opacity="1" /><path clip-path="url(#clip260)" d="M1344.13 1350.12 Q1345.7 1356.08 1348.32 1360.82 Q1350.94 1365.57 1354.72 1369.35 Q1358.5 1373.13 1363.28 1375.78 Q1368.06 1378.4 1373.98 1379.97 L1371.36 1382.59 Q1365.06 1381.2 1360.12 1378.71 Q1355.19 1376.21 1351.53 1372.54 Q1347.88 1368.89 1345.39 1363.98 Q1342.9 1359.07 1341.51 1352.74 L1344.13 1350.12 Z" fill="#000000" fill-rule="nonzero" fill-opacity="1" /><path clip-path="url(#clip260)" d="M1357.12 1344.55 L1366.31 1353.74 L1370.46 1349.58 Q1372.77 1347.27 1372.84 1344.81 Q1372.9 1342.36 1370.69 1340.15 Q1368.5 1337.96 1366.05 1338.02 Q1363.59 1338.09 1361.28 1340.4 L1357.12 1344.55 M1351.1 1345.14 L1358.57 1337.68 Q1362.67 1333.57 1366.63 1333.34 Q1370.6 1333.08 1374.18 1336.66 Q1377.8 1340.28 1377.54 1344.24 Q1377.29 1348.19 1373.18 1352.3 L1369.02 1356.45 L1378.85 1366.27 L1375.54 1369.58 L1351.1 1345.14 Z" fill="#000000" fill-rule="nonzero" fill-opacity="1" /><path clip-path="url(#clip260)" d="M1369.71 1324.53 L1372.33 1321.92 Q1378.65 1323.32 1383.56 1325.81 Q1388.49 1328.28 1392.14 1331.93 Q1395.8 1335.6 1398.29 1340.54 Q1400.79 1345.47 1402.19 1351.77 L1399.57 1354.39 Q1398 1348.47 1395.36 1343.7 Q1392.73 1338.91 1388.94 1335.13 Q1385.16 1331.34 1380.4 1328.74 Q1375.65 1326.12 1369.71 1324.53 Z" fill="#000000" fill-rule="nonzero" fill-opacity="1" /><path clip-path="url(#clip260)" d="M1609.38 1484.11 L1620.45 1495.17 L1617.44 1498.18 L1606.47 1487.22 Q1603.87 1484.62 1601.56 1484.34 Q1599.25 1484.06 1597.22 1486.09 Q1594.78 1488.53 1594.93 1491.49 Q1595.08 1494.45 1597.76 1497.14 L1608.12 1507.5 L1605.1 1510.53 L1586.76 1492.19 L1589.79 1489.17 L1592.64 1492.01 Q1592.07 1489.28 1592.7 1487 Q1593.36 1484.71 1595.27 1482.8 Q1598.43 1479.64 1602.02 1479.98 Q1605.59 1480.31 1609.38 1484.11 Z" fill="#000000" fill-rule="nonzero" fill-opacity="1" /><path clip-path="url(#clip260)" d="M1618.91 1482.24 L1607.81 1471.14 L1610.82 1468.13 L1621.81 1479.12 Q1624.41 1481.72 1626.73 1482.01 Q1629.04 1482.29 1631.07 1480.26 Q1633.51 1477.82 1633.36 1474.86 Q1633.23 1471.88 1630.55 1469.2 L1620.15 1458.8 L1623.17 1455.79 L1641.5 1474.12 L1638.49 1477.13 L1635.67 1474.32 Q1636.24 1477.09 1635.61 1479.36 Q1634.97 1481.6 1633.05 1483.52 Q1629.89 1486.68 1626.29 1486.35 Q1622.69 1486.02 1618.91 1482.24 M1614.95 1463.12 L1614.95 1463.12 Z" fill="#000000" fill-rule="nonzero" fill-opacity="1" /><path clip-path="url(#clip260)" d="M1647.16 1438.83 Q1646.26 1435.67 1646.87 1433.14 Q1647.47 1430.6 1649.6 1428.47 Q1652.46 1425.61 1656.03 1426.07 Q1659.58 1426.51 1663.28 1430.21 L1674.35 1441.27 L1671.32 1444.3 L1660.35 1433.33 Q1657.72 1430.7 1655.51 1430.35 Q1653.3 1430.01 1651.38 1431.93 Q1649.04 1434.27 1649.24 1437.18 Q1649.44 1440.09 1652.12 1442.78 L1662.48 1453.14 L1659.45 1456.17 L1648.49 1445.2 Q1645.84 1442.55 1643.64 1442.22 Q1641.43 1441.88 1639.48 1443.83 Q1637.18 1446.13 1637.39 1449.06 Q1637.59 1451.98 1640.25 1454.65 L1650.62 1465.01 L1647.59 1468.03 L1629.25 1449.7 L1632.28 1446.67 L1635.13 1449.52 Q1634.48 1446.8 1635.11 1444.56 Q1635.75 1442.32 1637.73 1440.34 Q1639.73 1438.34 1642.14 1437.97 Q1644.56 1437.57 1647.16 1438.83 Z" fill="#000000" fill-rule="nonzero" fill-opacity="1" /><path clip-path="url(#clip260)" d="M1684.37 1412.96 Q1681.04 1409.63 1677.79 1409.13 Q1674.53 1408.59 1672.14 1410.97 Q1669.75 1413.36 1670.27 1416.64 Q1670.8 1419.88 1674.12 1423.2 Q1677.44 1426.52 1680.7 1427.06 Q1683.96 1427.57 1686.35 1425.18 Q1688.74 1422.79 1688.21 1419.55 Q1687.69 1416.28 1684.37 1412.96 M1667.72 1416.8 Q1667.03 1414.22 1667.69 1411.99 Q1668.34 1409.73 1670.36 1407.72 Q1673.69 1404.38 1678.42 1404.95 Q1683.17 1405.51 1687.49 1409.83 Q1691.81 1414.15 1692.37 1418.9 Q1692.94 1423.63 1689.6 1426.97 Q1687.59 1428.98 1685.35 1429.65 Q1683.11 1430.29 1680.52 1429.6 L1683.27 1432.35 L1680.24 1435.38 L1654.77 1409.91 L1657.8 1406.88 L1667.72 1416.8 Z" fill="#000000" fill-rule="nonzero" fill-opacity="1" /><path clip-path="url(#clip260)" d="M1700.75 1396.44 Q1697.1 1400.09 1696.53 1402.33 Q1695.95 1404.57 1697.97 1406.59 Q1699.57 1408.19 1701.57 1408.09 Q1703.57 1407.96 1705.38 1406.15 Q1707.89 1403.64 1707.63 1400.37 Q1707.36 1397.06 1704.42 1394.12 L1703.75 1393.44 L1700.75 1396.44 M1705.51 1389.19 L1715.97 1399.65 L1712.96 1402.66 L1710.18 1399.88 Q1710.82 1402.58 1710.08 1404.92 Q1709.33 1407.24 1707.1 1409.47 Q1704.29 1412.28 1701.05 1412.38 Q1697.8 1412.45 1695.15 1409.8 Q1692.06 1406.7 1692.55 1403.07 Q1693.06 1399.42 1697.17 1395.31 L1701.39 1391.09 L1701.09 1390.79 Q1699.02 1388.71 1696.51 1388.96 Q1694.01 1389.17 1691.54 1391.64 Q1689.96 1393.22 1688.85 1395.08 Q1687.74 1396.95 1687.12 1399.08 L1684.33 1396.29 Q1685.35 1394 1686.59 1392.14 Q1687.82 1390.25 1689.29 1388.78 Q1693.27 1384.8 1697.3 1384.9 Q1701.32 1385 1705.51 1389.19 Z" fill="#000000" fill-rule="nonzero" fill-opacity="1" /><path clip-path="url(#clip260)" d="M1714.63 1350.12 Q1716.2 1356.08 1718.82 1360.82 Q1721.44 1365.57 1725.22 1369.35 Q1729 1373.13 1733.78 1375.78 Q1738.56 1378.4 1744.49 1379.97 L1741.87 1382.59 Q1735.57 1381.2 1730.62 1378.71 Q1725.7 1376.21 1722.03 1372.54 Q1718.38 1368.89 1715.89 1363.98 Q1713.4 1359.07 1712.01 1352.74 L1714.63 1350.12 Z" fill="#000000" fill-rule="nonzero" fill-opacity="1" /><path clip-path="url(#clip260)" d="M1727.63 1344.55 L1736.81 1353.74 L1740.97 1349.58 Q1743.28 1347.27 1743.34 1344.81 Q1743.41 1342.36 1741.2 1340.15 Q1739 1337.96 1736.55 1338.02 Q1734.09 1338.09 1731.78 1340.4 L1727.63 1344.55 M1721.6 1345.14 L1729.07 1337.68 Q1733.18 1333.57 1737.14 1333.34 Q1741.1 1333.08 1744.68 1336.66 Q1748.3 1340.28 1748.04 1344.24 Q1747.79 1348.19 1743.68 1352.3 L1739.53 1356.45 L1749.35 1366.27 L1746.04 1369.58 L1721.6 1345.14 Z" fill="#000000" fill-rule="nonzero" fill-opacity="1" /><path clip-path="url(#clip260)" d="M1740.21 1324.53 L1742.83 1321.92 Q1749.15 1323.32 1754.06 1325.81 Q1758.99 1328.28 1762.64 1331.93 Q1766.31 1335.6 1768.79 1340.54 Q1771.3 1345.47 1772.69 1351.77 L1770.07 1354.39 Q1768.5 1348.47 1765.86 1343.7 Q1763.23 1338.91 1759.45 1335.13 Q1755.67 1331.34 1750.9 1328.74 Q1746.16 1326.12 1740.21 1324.53 Z" fill="#000000" fill-rule="nonzero" fill-opacity="1" /><path clip-path="url(#clip260)" d="M1980.59 1483.4 L1991.66 1494.47 L1988.64 1497.48 L1977.68 1486.51 Q1975.07 1483.91 1972.77 1483.63 Q1970.46 1483.35 1968.43 1485.38 Q1965.99 1487.82 1966.14 1490.79 Q1966.28 1493.75 1968.97 1496.43 L1979.33 1506.79 L1976.3 1509.82 L1957.97 1491.49 L1961 1488.46 L1963.85 1491.31 Q1963.27 1488.58 1963.91 1486.3 Q1964.57 1484.01 1966.48 1482.09 Q1969.64 1478.94 1973.22 1479.28 Q1976.79 1479.61 1980.59 1483.4 Z" fill="#000000" fill-rule="nonzero" fill-opacity="1" /><path clip-path="url(#clip260)" d="M1990.12 1481.54 L1979.02 1470.44 L1982.03 1467.43 L1993.01 1478.41 Q1995.62 1481.01 1997.94 1481.31 Q2000.25 1481.59 2002.28 1479.56 Q2004.72 1477.12 2004.57 1474.16 Q2004.44 1471.18 2001.75 1468.49 L1991.36 1458.1 L1994.37 1455.09 L2012.7 1473.42 L2009.69 1476.43 L2006.88 1473.62 Q2007.45 1476.38 2006.81 1478.66 Q2006.17 1480.9 2004.26 1482.81 Q2001.1 1485.97 1997.5 1485.65 Q1993.9 1485.32 1990.12 1481.54 M1986.16 1462.42 L1986.16 1462.42 Z" fill="#000000" fill-rule="nonzero" fill-opacity="1" /><path clip-path="url(#clip260)" d="M2018.37 1438.13 Q2017.47 1434.97 2018.07 1432.43 Q2018.68 1429.9 2020.81 1427.77 Q2023.67 1424.9 2027.24 1425.36 Q2030.79 1425.8 2034.49 1429.5 L2045.56 1440.57 L2042.53 1443.6 L2031.56 1432.63 Q2028.93 1429.99 2026.72 1429.65 Q2024.51 1429.31 2022.59 1431.22 Q2020.25 1433.56 2020.45 1436.48 Q2020.64 1439.39 2023.33 1442.07 L2033.69 1452.44 L2030.66 1455.46 L2019.69 1444.5 Q2017.04 1441.85 2014.85 1441.52 Q2012.64 1441.17 2010.69 1443.12 Q2008.38 1445.43 2008.6 1448.36 Q2008.79 1451.27 2011.46 1453.94 L2021.82 1464.3 L2018.79 1467.33 L2000.46 1449 L2003.49 1445.97 L2006.34 1448.82 Q2005.68 1446.1 2006.32 1443.86 Q2006.96 1441.62 2008.94 1439.64 Q2010.94 1437.64 2013.34 1437.26 Q2015.77 1436.87 2018.37 1438.13 Z" fill="#000000" fill-rule="nonzero" fill-opacity="1" /><path clip-path="url(#clip260)" d="M2051.73 1428.9 L2061.45 1438.62 L2058.42 1441.65 L2033.12 1416.34 L2036.14 1413.32 L2038.93 1416.1 Q2038.24 1413.51 2038.89 1411.29 Q2039.55 1409.03 2041.56 1407.01 Q2044.9 1403.67 2049.63 1404.25 Q2054.38 1404.8 2058.7 1409.13 Q2063.02 1413.45 2063.58 1418.19 Q2064.15 1422.92 2060.81 1426.26 Q2058.8 1428.28 2056.55 1428.95 Q2054.31 1429.59 2051.73 1428.9 M2055.57 1412.25 Q2052.25 1408.93 2048.99 1408.42 Q2045.74 1407.88 2043.35 1410.27 Q2040.96 1412.66 2041.48 1415.93 Q2042 1419.18 2045.33 1422.5 Q2048.65 1425.82 2051.91 1426.36 Q2055.16 1426.87 2057.55 1424.48 Q2059.94 1422.09 2059.42 1418.85 Q2058.9 1415.57 2055.57 1412.25 Z" fill="#000000" fill-rule="nonzero" fill-opacity="1" /><path clip-path="url(#clip260)" d="M2082.17 1407.36 Q2084.17 1411.91 2083.96 1414.12 Q2083.74 1416.33 2081.71 1418.36 L2079.31 1420.76 L2076.79 1418.24 L2078.55 1416.47 Q2079.8 1415.23 2079.9 1413.95 Q2079.99 1412.68 2078.64 1409.65 L2077.8 1407.73 L2052.35 1397.11 L2055.54 1393.92 L2075.61 1402.53 L2067 1382.46 L2070.19 1379.27 L2082.17 1407.36 Z" fill="#000000" fill-rule="nonzero" fill-opacity="1" /><path clip-path="url(#clip260)" d="M2085.13 1350.12 Q2086.7 1356.08 2089.32 1360.82 Q2091.94 1365.57 2095.72 1369.35 Q2099.5 1373.13 2104.28 1375.78 Q2109.06 1378.4 2114.99 1379.97 L2112.37 1382.59 Q2106.07 1381.2 2101.13 1378.71 Q2096.2 1376.21 2092.53 1372.54 Q2088.88 1368.89 2086.39 1363.98 Q2083.91 1359.07 2082.51 1352.74 L2085.13 1350.12 Z" fill="#000000" fill-rule="nonzero" fill-opacity="1" /><path clip-path="url(#clip260)" d="M2098.13 1344.55 L2107.31 1353.74 L2111.47 1349.58 Q2113.78 1347.27 2113.84 1344.81 Q2113.91 1342.36 2111.7 1340.15 Q2109.51 1337.96 2107.05 1338.02 Q2104.6 1338.09 2102.29 1340.4 L2098.13 1344.55 M2092.11 1345.14 L2099.57 1337.68 Q2103.68 1333.57 2107.64 1333.34 Q2111.6 1333.08 2115.19 1336.66 Q2118.8 1340.28 2118.54 1344.24 Q2118.3 1348.19 2114.19 1352.3 L2110.03 1356.45 L2119.85 1366.27 L2116.54 1369.58 L2092.11 1345.14 Z" fill="#000000" fill-rule="nonzero" fill-opacity="1" /><path clip-path="url(#clip260)" d="M2110.72 1324.53 L2113.34 1321.92 Q2119.65 1323.32 2124.56 1325.81 Q2129.49 1328.28 2133.14 1331.93 Q2136.81 1335.6 2139.3 1340.54 Q2141.8 1345.47 2143.19 1351.77 L2140.57 1354.39 Q2139 1348.47 2136.37 1343.7 Q2133.73 1338.91 2129.95 1335.13 Q2126.17 1331.34 2121.41 1328.74 Q2116.66 1326.12 2110.72 1324.53 Z" fill="#000000" fill-rule="nonzero" fill-opacity="1" /><polyline clip-path="url(#clip262)" style="stroke:#000000; stroke-linecap:round; stroke-linejoin:round; stroke-width:2; stroke-opacity:0.1; fill:none" points="175.445,1292.71 2352.76,1292.71 "/>
<polyline clip-path="url(#clip262)" style="stroke:#000000; stroke-linecap:round; stroke-linejoin:round; stroke-width:2; stroke-opacity:0.1; fill:none" points="175.445,1123.45 2352.76,1123.45 "/>
<polyline clip-path="url(#clip262)" style="stroke:#000000; stroke-linecap:round; stroke-linejoin:round; stroke-width:2; stroke-opacity:0.1; fill:none" points="175.445,954.181 2352.76,954.181 "/>
<polyline clip-path="url(#clip262)" style="stroke:#000000; stroke-linecap:round; stroke-linejoin:round; stroke-width:2; stroke-opacity:0.1; fill:none" points="175.445,784.917 2352.76,784.917 "/>
<polyline clip-path="url(#clip262)" style="stroke:#000000; stroke-linecap:round; stroke-linejoin:round; stroke-width:2; stroke-opacity:0.1; fill:none" points="175.445,615.652 2352.76,615.652 "/>
<polyline clip-path="url(#clip262)" style="stroke:#000000; stroke-linecap:round; stroke-linejoin:round; stroke-width:2; stroke-opacity:0.1; fill:none" points="175.445,446.387 2352.76,446.387 "/>
<polyline clip-path="url(#clip262)" style="stroke:#000000; stroke-linecap:round; stroke-linejoin:round; stroke-width:2; stroke-opacity:0.1; fill:none" points="175.445,277.122 2352.76,277.122 "/>
<polyline clip-path="url(#clip260)" style="stroke:#000000; stroke-linecap:round; stroke-linejoin:round; stroke-width:4; stroke-opacity:1; fill:none" points="175.445,1292.71 175.445,123.472 "/>
<polyline clip-path="url(#clip260)" style="stroke:#000000; stroke-linecap:round; stroke-linejoin:round; stroke-width:4; stroke-opacity:1; fill:none" points="175.445,1292.71 194.343,1292.71 "/>
<polyline clip-path="url(#clip260)" style="stroke:#000000; stroke-linecap:round; stroke-linejoin:round; stroke-width:4; stroke-opacity:1; fill:none" points="175.445,1123.45 194.343,1123.45 "/>
<polyline clip-path="url(#clip260)" style="stroke:#000000; stroke-linecap:round; stroke-linejoin:round; stroke-width:4; stroke-opacity:1; fill:none" points="175.445,954.181 194.343,954.181 "/>
<polyline clip-path="url(#clip260)" style="stroke:#000000; stroke-linecap:round; stroke-linejoin:round; stroke-width:4; stroke-opacity:1; fill:none" points="175.445,784.917 194.343,784.917 "/>
<polyline clip-path="url(#clip260)" style="stroke:#000000; stroke-linecap:round; stroke-linejoin:round; stroke-width:4; stroke-opacity:1; fill:none" points="175.445,615.652 194.343,615.652 "/>
<polyline clip-path="url(#clip260)" style="stroke:#000000; stroke-linecap:round; stroke-linejoin:round; stroke-width:4; stroke-opacity:1; fill:none" points="175.445,446.387 194.343,446.387 "/>
<polyline clip-path="url(#clip260)" style="stroke:#000000; stroke-linecap:round; stroke-linejoin:round; stroke-width:4; stroke-opacity:1; fill:none" points="175.445,277.122 194.343,277.122 "/>
<path clip-path="url(#clip260)" d="M127.501 1278.51 Q123.89 1278.51 122.061 1282.07 Q120.255 1285.62 120.255 1292.75 Q120.255 1299.85 122.061 1303.42 Q123.89 1306.96 127.501 1306.96 Q131.135 1306.96 132.941 1303.42 Q134.769 1299.85 134.769 1292.75 Q134.769 1285.62 132.941 1282.07 Q131.135 1278.51 127.501 1278.51 M127.501 1274.81 Q133.311 1274.81 136.367 1279.41 Q139.445 1284 139.445 1292.75 Q139.445 1301.47 136.367 1306.08 Q133.311 1310.66 127.501 1310.66 Q121.691 1310.66 118.612 1306.08 Q115.556 1301.47 115.556 1292.75 Q115.556 1284 118.612 1279.41 Q121.691 1274.81 127.501 1274.81 Z" fill="#000000" fill-rule="nonzero" fill-opacity="1" /><path clip-path="url(#clip260)" d="M119.538 1136.79 L127.177 1136.79 L127.177 1110.43 L118.867 1112.09 L118.867 1107.83 L127.13 1106.17 L131.806 1106.17 L131.806 1136.79 L139.445 1136.79 L139.445 1140.73 L119.538 1140.73 L119.538 1136.79 Z" fill="#000000" fill-rule="nonzero" fill-opacity="1" /><path clip-path="url(#clip260)" d="M123.126 967.526 L139.445 967.526 L139.445 971.461 L117.501 971.461 L117.501 967.526 Q120.163 964.772 124.746 960.142 Q129.353 955.489 130.533 954.147 Q132.779 951.624 133.658 949.887 Q134.561 948.128 134.561 946.438 Q134.561 943.684 132.617 941.948 Q130.695 940.212 127.593 940.212 Q125.394 940.212 122.941 940.975 Q120.51 941.739 117.732 943.29 L117.732 938.568 Q120.556 937.434 123.01 936.855 Q125.464 936.276 127.501 936.276 Q132.871 936.276 136.066 938.962 Q139.26 941.647 139.26 946.137 Q139.26 948.267 138.45 950.188 Q137.663 952.087 135.556 954.679 Q134.978 955.35 131.876 958.568 Q128.774 961.762 123.126 967.526 Z" fill="#000000" fill-rule="nonzero" fill-opacity="1" /><path clip-path="url(#clip260)" d="M132.316 783.563 Q135.672 784.28 137.547 786.549 Q139.445 788.817 139.445 792.15 Q139.445 797.266 135.927 800.067 Q132.408 802.868 125.927 802.868 Q123.751 802.868 121.436 802.428 Q119.144 802.011 116.691 801.155 L116.691 796.641 Q118.635 797.775 120.95 798.354 Q123.265 798.933 125.788 798.933 Q130.186 798.933 132.478 797.197 Q134.792 795.461 134.792 792.15 Q134.792 789.095 132.64 787.382 Q130.51 785.646 126.691 785.646 L122.663 785.646 L122.663 781.803 L126.876 781.803 Q130.325 781.803 132.154 780.438 Q133.982 779.049 133.982 776.456 Q133.982 773.794 132.084 772.382 Q130.209 770.947 126.691 770.947 Q124.769 770.947 122.57 771.363 Q120.371 771.78 117.732 772.66 L117.732 768.493 Q120.394 767.752 122.709 767.382 Q125.047 767.012 127.107 767.012 Q132.431 767.012 135.533 769.442 Q138.635 771.85 138.635 775.97 Q138.635 778.84 136.992 780.831 Q135.348 782.799 132.316 783.563 Z" fill="#000000" fill-rule="nonzero" fill-opacity="1" /><path clip-path="url(#clip260)" d="M129.862 602.446 L118.056 620.895 L129.862 620.895 L129.862 602.446 M128.635 598.372 L134.515 598.372 L134.515 620.895 L139.445 620.895 L139.445 624.784 L134.515 624.784 L134.515 632.932 L129.862 632.932 L129.862 624.784 L114.26 624.784 L114.26 620.27 L128.635 598.372 Z" fill="#000000" fill-rule="nonzero" fill-opacity="1" /><path clip-path="url(#clip260)" d="M118.543 429.107 L136.899 429.107 L136.899 433.042 L122.825 433.042 L122.825 441.514 Q123.843 441.167 124.862 441.005 Q125.88 440.82 126.899 440.82 Q132.686 440.82 136.066 443.991 Q139.445 447.163 139.445 452.579 Q139.445 458.158 135.973 461.26 Q132.501 464.338 126.181 464.338 Q124.005 464.338 121.737 463.968 Q119.492 463.598 117.084 462.857 L117.084 458.158 Q119.168 459.292 121.39 459.848 Q123.612 460.403 126.089 460.403 Q130.093 460.403 132.431 458.297 Q134.769 456.19 134.769 452.579 Q134.769 448.968 132.431 446.862 Q130.093 444.755 126.089 444.755 Q124.214 444.755 122.339 445.172 Q120.487 445.589 118.543 446.468 L118.543 429.107 Z" fill="#000000" fill-rule="nonzero" fill-opacity="1" /><path clip-path="url(#clip260)" d="M127.917 275.259 Q124.769 275.259 122.918 277.412 Q121.089 279.564 121.089 283.314 Q121.089 287.041 122.918 289.217 Q124.769 291.37 127.917 291.37 Q131.066 291.37 132.894 289.217 Q134.746 287.041 134.746 283.314 Q134.746 279.564 132.894 277.412 Q131.066 275.259 127.917 275.259 M137.2 260.606 L137.2 264.866 Q135.441 264.032 133.635 263.592 Q131.853 263.153 130.093 263.153 Q125.464 263.153 123.01 266.278 Q120.58 269.403 120.232 275.722 Q121.598 273.708 123.658 272.643 Q125.718 271.555 128.195 271.555 Q133.404 271.555 136.413 274.727 Q139.445 277.875 139.445 283.314 Q139.445 288.639 136.297 291.856 Q133.149 295.074 127.917 295.074 Q121.922 295.074 118.751 290.49 Q115.58 285.884 115.58 277.157 Q115.58 268.963 119.468 264.102 Q123.357 259.217 129.908 259.217 Q131.667 259.217 133.45 259.565 Q135.255 259.912 137.2 260.606 Z" fill="#000000" fill-rule="nonzero" fill-opacity="1" /><path clip-path="url(#clip260)" d="M18.0438 817.088 L24.314 817.088 Q22.5634 820.749 21.704 823.995 Q20.8447 827.242 20.8447 830.265 Q20.8447 835.517 22.8817 838.382 Q24.9187 841.214 28.6745 841.214 Q31.8255 841.214 33.4488 839.336 Q35.0402 837.427 36.0269 832.143 L36.8226 828.26 Q38.1912 821.067 41.6605 817.661 Q45.098 814.224 50.8908 814.224 Q57.7976 814.224 61.3624 818.871 Q64.9272 823.486 64.9272 832.43 Q64.9272 835.804 64.1633 839.623 Q63.3994 843.411 61.9035 847.485 L55.2831 847.485 Q57.4793 843.57 58.5933 839.814 Q59.7073 836.058 59.7073 832.43 Q59.7073 826.923 57.543 823.931 Q55.3786 820.94 51.3682 820.94 Q47.8671 820.94 45.8937 823.104 Q43.9204 825.236 42.9337 830.138 L42.1698 834.053 Q40.7375 841.246 37.682 844.461 Q34.6264 847.676 29.1837 847.676 Q22.8817 847.676 19.2532 843.251 Q15.6248 838.795 15.6248 830.997 Q15.6248 827.655 16.2295 824.186 Q16.8343 820.717 18.0438 817.088 Z" fill="#000000" fill-rule="nonzero" fill-opacity="1" /><path clip-path="url(#clip260)" d="M58.657 798.787 L77.5631 798.787 L77.5631 804.675 L28.3562 804.675 L28.3562 798.787 L33.7671 798.787 Q30.5842 796.941 29.0564 794.14 Q27.4968 791.307 27.4968 787.392 Q27.4968 780.899 32.6531 776.857 Q37.8093 772.783 46.212 772.783 Q54.6147 772.783 59.771 776.857 Q64.9272 780.899 64.9272 787.392 Q64.9272 791.307 63.3994 794.14 Q61.8398 796.941 58.657 798.787 M46.212 778.862 Q39.7508 778.862 36.0905 781.536 Q32.3984 784.178 32.3984 788.825 Q32.3984 793.472 36.0905 796.145 Q39.7508 798.787 46.212 798.787 Q52.6732 798.787 56.3653 796.145 Q60.0256 793.472 60.0256 788.825 Q60.0256 784.178 56.3653 781.536 Q52.6732 778.862 46.212 778.862 Z" fill="#000000" fill-rule="nonzero" fill-opacity="1" /><path clip-path="url(#clip260)" d="M44.7161 732.584 L47.5806 732.584 L47.5806 759.511 Q53.6281 759.129 56.8109 755.882 Q59.9619 752.604 59.9619 746.779 Q59.9619 743.405 59.1344 740.254 Q58.3069 737.071 56.6518 733.952 L62.1899 733.952 Q63.5267 737.103 64.227 740.413 Q64.9272 743.724 64.9272 747.129 Q64.9272 755.659 59.9619 760.656 Q54.9967 765.622 46.5303 765.622 Q37.7774 765.622 32.6531 760.911 Q27.4968 756.169 27.4968 748.148 Q27.4968 740.954 32.1438 736.785 Q36.7589 732.584 44.7161 732.584 M42.9973 738.44 Q38.1912 738.504 35.3266 741.145 Q32.4621 743.755 32.4621 748.084 Q32.4621 752.986 35.2312 755.946 Q38.0002 758.874 43.0292 759.32 L42.9973 738.44 Z" fill="#000000" fill-rule="nonzero" fill-opacity="1" /><path clip-path="url(#clip260)" d="M44.7161 692.48 L47.5806 692.48 L47.5806 719.407 Q53.6281 719.025 56.8109 715.778 Q59.9619 712.5 59.9619 706.675 Q59.9619 703.301 59.1344 700.15 Q58.3069 696.967 56.6518 693.848 L62.1899 693.848 Q63.5267 696.999 64.227 700.309 Q64.9272 703.62 64.9272 707.025 Q64.9272 715.555 59.9619 720.552 Q54.9967 725.518 46.5303 725.518 Q37.7774 725.518 32.6531 720.807 Q27.4968 716.065 27.4968 708.044 Q27.4968 700.851 32.1438 696.681 Q36.7589 692.48 44.7161 692.48 M42.9973 698.336 Q38.1912 698.4 35.3266 701.042 Q32.4621 703.651 32.4621 707.98 Q32.4621 712.882 35.2312 715.842 Q38.0002 718.77 43.0292 719.216 L42.9973 698.336 Z" fill="#000000" fill-rule="nonzero" fill-opacity="1" /><path clip-path="url(#clip260)" d="M33.7671 659.41 L14.479 659.41 L14.479 653.553 L64.0042 653.553 L64.0042 659.41 L58.657 659.41 Q61.8398 661.256 63.3994 664.089 Q64.9272 666.89 64.9272 670.836 Q64.9272 677.297 59.771 681.371 Q54.6147 685.414 46.212 685.414 Q37.8093 685.414 32.6531 681.371 Q27.4968 677.297 27.4968 670.836 Q27.4968 666.89 29.0564 664.089 Q30.5842 661.256 33.7671 659.41 M46.212 679.366 Q52.6732 679.366 56.3653 676.725 Q60.0256 674.051 60.0256 669.404 Q60.0256 664.757 56.3653 662.083 Q52.6732 659.41 46.212 659.41 Q39.7508 659.41 36.0905 662.083 Q32.3984 664.757 32.3984 669.404 Q32.3984 674.051 36.0905 676.725 Q39.7508 679.366 46.212 679.366 Z" fill="#000000" fill-rule="nonzero" fill-opacity="1" /><path clip-path="url(#clip260)" d="M49.9359 642.095 L28.3562 642.095 L28.3562 636.239 L49.7131 636.239 Q54.7739 636.239 57.3202 634.265 Q59.8346 632.292 59.8346 628.345 Q59.8346 623.603 56.8109 620.865 Q53.7872 618.096 48.5673 618.096 L28.3562 618.096 L28.3562 612.24 L64.0042 612.24 L64.0042 618.096 L58.5296 618.096 Q61.7762 620.229 63.3676 623.062 Q64.9272 625.863 64.9272 629.586 Q64.9272 635.729 61.1078 638.912 Q57.2883 642.095 49.9359 642.095 M27.4968 627.358 L27.4968 627.358 Z" fill="#000000" fill-rule="nonzero" fill-opacity="1" /><path clip-path="url(#clip260)" d="M58.657 594.511 L77.5631 594.511 L77.5631 600.4 L28.3562 600.4 L28.3562 594.511 L33.7671 594.511 Q30.5842 592.665 29.0564 589.864 Q27.4968 587.032 27.4968 583.117 Q27.4968 576.624 32.6531 572.582 Q37.8093 568.508 46.212 568.508 Q54.6147 568.508 59.771 572.582 Q64.9272 576.624 64.9272 583.117 Q64.9272 587.032 63.3994 589.864 Q61.8398 592.665 58.657 594.511 M46.212 574.587 Q39.7508 574.587 36.0905 577.26 Q32.3984 579.902 32.3984 584.549 Q32.3984 589.196 36.0905 591.87 Q39.7508 594.511 46.212 594.511 Q52.6732 594.511 56.3653 591.87 Q60.0256 589.196 60.0256 584.549 Q60.0256 579.902 56.3653 577.26 Q52.6732 574.587 46.212 574.587 Z" fill="#000000" fill-rule="nonzero" fill-opacity="1" /><path clip-path="url(#clip260)" d="M560.499 14.0809 L560.499 22.0612 Q555.84 19.8332 551.709 18.7395 Q547.577 17.6457 543.728 17.6457 Q537.044 17.6457 533.398 20.2383 Q529.793 22.8309 529.793 27.611 Q529.793 31.6214 532.183 33.6873 Q534.614 35.7128 541.338 36.9686 L546.28 37.9813 Q555.435 39.7232 559.77 44.1387 Q564.145 48.5136 564.145 55.8863 Q564.145 64.6767 558.23 69.2137 Q552.357 73.7508 540.974 73.7508 Q536.68 73.7508 531.819 72.7785 Q526.998 71.8063 521.813 69.9024 L521.813 61.4765 Q526.795 64.2716 531.576 65.6895 Q536.356 67.1073 540.974 67.1073 Q547.982 67.1073 551.79 64.3527 Q555.597 61.598 555.597 56.4939 Q555.597 52.0379 552.843 49.5264 Q550.129 47.0148 543.89 45.759 L538.908 44.7868 Q529.753 42.9639 525.661 39.075 Q521.57 35.1862 521.57 28.2591 Q521.57 20.2383 527.201 15.6203 Q532.872 11.0023 542.797 11.0023 Q547.05 11.0023 551.465 11.7719 Q555.881 12.5416 560.499 14.0809 Z" fill="#000000" fill-rule="nonzero" fill-opacity="1" /><path clip-path="url(#clip260)" d="M583.792 65.7705 L583.792 89.8329 L576.298 89.8329 L576.298 27.2059 L583.792 27.2059 L583.792 34.0924 Q586.141 30.0415 589.706 28.0971 Q593.311 26.1121 598.294 26.1121 Q606.558 26.1121 611.702 32.6746 Q616.888 39.2371 616.888 49.9314 Q616.888 60.6258 611.702 67.1883 Q606.558 73.7508 598.294 73.7508 Q593.311 73.7508 589.706 71.8063 Q586.141 69.8214 583.792 65.7705 M609.15 49.9314 Q609.15 41.7081 605.748 37.0496 Q602.385 32.3505 596.471 32.3505 Q590.557 32.3505 587.154 37.0496 Q583.792 41.7081 583.792 49.9314 Q583.792 58.1548 587.154 62.8538 Q590.557 67.5124 596.471 67.5124 Q602.385 67.5124 605.748 62.8538 Q609.15 58.1548 609.15 49.9314 Z" fill="#000000" fill-rule="nonzero" fill-opacity="1" /><path clip-path="url(#clip260)" d="M668.051 48.0275 L668.051 51.6733 L633.78 51.6733 Q634.266 59.3701 638.398 63.421 Q642.57 67.4314 649.983 67.4314 Q654.277 67.4314 658.288 66.3781 Q662.339 65.3249 666.309 63.2184 L666.309 70.267 Q662.298 71.9684 658.085 72.8596 Q653.872 73.7508 649.538 73.7508 Q638.681 73.7508 632.322 67.4314 Q626.002 61.1119 626.002 50.3365 Q626.002 39.1965 631.997 32.6746 Q638.033 26.1121 648.242 26.1121 Q657.397 26.1121 662.703 32.0264 Q668.051 37.9003 668.051 48.0275 M660.597 45.84 Q660.516 39.7232 657.154 36.0774 Q653.832 32.4315 648.323 32.4315 Q642.084 32.4315 638.317 35.9558 Q634.59 39.4801 634.023 45.8805 L660.597 45.84 Z" fill="#000000" fill-rule="nonzero" fill-opacity="1" /><path clip-path="url(#clip260)" d="M719.092 48.0275 L719.092 51.6733 L684.821 51.6733 Q685.307 59.3701 689.439 63.421 Q693.612 67.4314 701.025 67.4314 Q705.319 67.4314 709.329 66.3781 Q713.38 65.3249 717.35 63.2184 L717.35 70.267 Q713.34 71.9684 709.127 72.8596 Q704.914 73.7508 700.579 73.7508 Q689.723 73.7508 683.363 67.4314 Q677.044 61.1119 677.044 50.3365 Q677.044 39.1965 683.039 32.6746 Q689.075 26.1121 699.283 26.1121 Q708.438 26.1121 713.745 32.0264 Q719.092 37.9003 719.092 48.0275 M711.638 45.84 Q711.557 39.7232 708.195 36.0774 Q704.873 32.4315 699.364 32.4315 Q693.126 32.4315 689.358 35.9558 Q685.631 39.4801 685.064 45.8805 L711.638 45.84 Z" fill="#000000" fill-rule="nonzero" fill-opacity="1" /><path clip-path="url(#clip260)" d="M761.181 34.0924 L761.181 9.54393 L768.634 9.54393 L768.634 72.576 L761.181 72.576 L761.181 65.7705 Q758.831 69.8214 755.226 71.8063 Q751.661 73.7508 746.638 73.7508 Q738.415 73.7508 733.23 67.1883 Q728.085 60.6258 728.085 49.9314 Q728.085 39.2371 733.23 32.6746 Q738.415 26.1121 746.638 26.1121 Q751.661 26.1121 755.226 28.0971 Q758.831 30.0415 761.181 34.0924 M735.782 49.9314 Q735.782 58.1548 739.144 62.8538 Q742.547 67.5124 748.461 67.5124 Q754.375 67.5124 757.778 62.8538 Q761.181 58.1548 761.181 49.9314 Q761.181 41.7081 757.778 37.0496 Q754.375 32.3505 748.461 32.3505 Q742.547 32.3505 739.144 37.0496 Q735.782 41.7081 735.782 49.9314 Z" fill="#000000" fill-rule="nonzero" fill-opacity="1" /><path clip-path="url(#clip260)" d="M783.218 54.671 L783.218 27.2059 L790.671 27.2059 L790.671 54.3874 Q790.671 60.8284 793.183 64.0691 Q795.695 67.2693 800.718 67.2693 Q806.753 67.2693 810.237 63.421 Q813.762 59.5726 813.762 52.9291 L813.762 27.2059 L821.215 27.2059 L821.215 72.576 L813.762 72.576 L813.762 65.6084 Q811.047 69.7404 807.442 71.7658 Q803.877 73.7508 799.138 73.7508 Q791.32 73.7508 787.269 68.8897 Q783.218 64.0286 783.218 54.671 M801.973 26.1121 L801.973 26.1121 Z" fill="#000000" fill-rule="nonzero" fill-opacity="1" /><path clip-path="url(#clip260)" d="M843.779 65.7705 L843.779 89.8329 L836.285 89.8329 L836.285 27.2059 L843.779 27.2059 L843.779 34.0924 Q846.128 30.0415 849.693 28.0971 Q853.298 26.1121 858.281 26.1121 Q866.545 26.1121 871.689 32.6746 Q876.875 39.2371 876.875 49.9314 Q876.875 60.6258 871.689 67.1883 Q866.545 73.7508 858.281 73.7508 Q853.298 73.7508 849.693 71.8063 Q846.128 69.8214 843.779 65.7705 M869.137 49.9314 Q869.137 41.7081 865.735 37.0496 Q862.372 32.3505 856.458 32.3505 Q850.544 32.3505 847.141 37.0496 Q843.779 41.7081 843.779 49.9314 Q843.779 58.1548 847.141 62.8538 Q850.544 67.5124 856.458 67.5124 Q862.372 67.5124 865.735 62.8538 Q869.137 58.1548 869.137 49.9314 Z" fill="#000000" fill-rule="nonzero" fill-opacity="1" /><path clip-path="url(#clip260)" d="M922.974 14.324 L922.974 27.2059 L938.327 27.2059 L938.327 32.9987 L922.974 32.9987 L922.974 57.6282 Q922.974 63.1779 924.473 64.7578 Q926.012 66.3376 930.671 66.3376 L938.327 66.3376 L938.327 72.576 L930.671 72.576 Q922.042 72.576 918.761 69.3758 Q915.48 66.1351 915.48 57.6282 L915.48 32.9987 L910.011 32.9987 L910.011 27.2059 L915.48 27.2059 L915.48 14.324 L922.974 14.324 Z" fill="#000000" fill-rule="nonzero" fill-opacity="1" /><path clip-path="url(#clip260)" d="M974.42 34.1734 Q973.165 33.4443 971.666 33.1202 Q970.207 32.7556 968.425 32.7556 Q962.106 32.7556 958.703 36.8875 Q955.341 40.9789 955.341 48.6757 L955.341 72.576 L947.846 72.576 L947.846 27.2059 L955.341 27.2059 L955.341 34.2544 Q957.69 30.1225 961.458 28.1376 Q965.225 26.1121 970.613 26.1121 Q971.382 26.1121 972.314 26.2337 Q973.246 26.3147 974.38 26.5172 L974.42 34.1734 Z" fill="#000000" fill-rule="nonzero" fill-opacity="1" /><path clip-path="url(#clip260)" d="M982.239 27.2059 L989.692 27.2059 L989.692 72.576 L982.239 72.576 L982.239 27.2059 M982.239 9.54393 L989.692 9.54393 L989.692 18.9825 L982.239 18.9825 L982.239 9.54393 Z" fill="#000000" fill-rule="nonzero" fill-opacity="1" /><path clip-path="url(#clip260)" d="M1034.21 28.5427 L1034.21 35.5912 Q1031.05 33.9709 1027.65 33.1607 Q1024.25 32.3505 1020.6 32.3505 Q1015.05 32.3505 1012.26 34.0519 Q1009.5 35.7533 1009.5 39.156 Q1009.5 41.7486 1011.49 43.2475 Q1013.47 44.7058 1019.47 46.0426 L1022.02 46.6097 Q1029.96 48.3111 1033.28 51.4303 Q1036.64 54.509 1036.64 60.0587 Q1036.64 66.3781 1031.62 70.0644 Q1026.64 73.7508 1017.89 73.7508 Q1014.24 73.7508 1010.27 73.0216 Q1006.34 72.3329 1001.97 70.9151 L1001.97 63.2184 Q1006.1 65.3654 1010.11 66.4591 Q1014.12 67.5124 1018.05 67.5124 Q1023.31 67.5124 1026.15 65.73 Q1028.99 63.9071 1028.99 60.6258 Q1028.99 57.5877 1026.92 55.9673 Q1024.89 54.3469 1017.97 52.8481 L1015.38 52.2405 Q1008.45 50.7821 1005.37 47.7845 Q1002.29 44.7463 1002.29 39.4801 Q1002.29 33.0797 1006.83 29.5959 Q1011.36 26.1121 1019.71 26.1121 Q1023.84 26.1121 1027.49 26.7198 Q1031.13 27.3274 1034.21 28.5427 Z" fill="#000000" fill-rule="nonzero" fill-opacity="1" /><path clip-path="url(#clip260)" d="M1066.09 32.4315 Q1060.1 32.4315 1056.61 37.1306 Q1053.13 41.7891 1053.13 49.9314 Q1053.13 58.0738 1056.57 62.7728 Q1060.06 67.4314 1066.09 67.4314 Q1072.05 67.4314 1075.53 62.7323 Q1079.01 58.0333 1079.01 49.9314 Q1079.01 41.8701 1075.53 37.1711 Q1072.05 32.4315 1066.09 32.4315 M1066.09 26.1121 Q1075.81 26.1121 1081.36 32.4315 Q1086.91 38.7509 1086.91 49.9314 Q1086.91 61.0714 1081.36 67.4314 Q1075.81 73.7508 1066.09 73.7508 Q1056.33 73.7508 1050.78 67.4314 Q1045.27 61.0714 1045.27 49.9314 Q1045.27 38.7509 1050.78 32.4315 Q1056.33 26.1121 1066.09 26.1121 Z" fill="#000000" fill-rule="nonzero" fill-opacity="1" /><path clip-path="url(#clip260)" d="M1099.27 9.54393 L1106.72 9.54393 L1106.72 72.576 L1099.27 72.576 L1099.27 9.54393 Z" fill="#000000" fill-rule="nonzero" fill-opacity="1" /><path clip-path="url(#clip260)" d="M1116.97 27.2059 L1124.87 27.2059 L1139.05 65.2844 L1153.23 27.2059 L1161.13 27.2059 L1144.11 72.576 L1133.99 72.576 L1116.97 27.2059 Z" fill="#000000" fill-rule="nonzero" fill-opacity="1" /><path clip-path="url(#clip260)" d="M1173.32 62.2867 L1181.87 62.2867 L1181.87 69.2543 L1175.22 82.2172 L1170 82.2172 L1173.32 69.2543 L1173.32 62.2867 Z" fill="#000000" fill-rule="nonzero" fill-opacity="1" /><path clip-path="url(#clip260)" d="M1231.37 65.7705 L1231.37 89.8329 L1223.88 89.8329 L1223.88 27.2059 L1231.37 27.2059 L1231.37 34.0924 Q1233.72 30.0415 1237.28 28.0971 Q1240.89 26.1121 1245.87 26.1121 Q1254.14 26.1121 1259.28 32.6746 Q1264.47 39.2371 1264.47 49.9314 Q1264.47 60.6258 1259.28 67.1883 Q1254.14 73.7508 1245.87 73.7508 Q1240.89 73.7508 1237.28 71.8063 Q1233.72 69.8214 1231.37 65.7705 M1256.73 49.9314 Q1256.73 41.7081 1253.33 37.0496 Q1249.96 32.3505 1244.05 32.3505 Q1238.13 32.3505 1234.73 37.0496 Q1231.37 41.7081 1231.37 49.9314 Q1231.37 58.1548 1234.73 62.8538 Q1238.13 67.5124 1244.05 67.5124 Q1249.96 67.5124 1253.33 62.8538 Q1256.73 58.1548 1256.73 49.9314 Z" fill="#000000" fill-rule="nonzero" fill-opacity="1" /><path clip-path="url(#clip260)" d="M1303.11 34.1734 Q1301.85 33.4443 1300.36 33.1202 Q1298.9 32.7556 1297.12 32.7556 Q1290.8 32.7556 1287.39 36.8875 Q1284.03 40.9789 1284.03 48.6757 L1284.03 72.576 L1276.54 72.576 L1276.54 27.2059 L1284.03 27.2059 L1284.03 34.2544 Q1286.38 30.1225 1290.15 28.1376 Q1293.92 26.1121 1299.3 26.1121 Q1300.07 26.1121 1301 26.2337 Q1301.94 26.3147 1303.07 26.5172 L1303.11 34.1734 Z" fill="#000000" fill-rule="nonzero" fill-opacity="1" /><path clip-path="url(#clip260)" d="M1347.91 48.0275 L1347.91 51.6733 L1313.64 51.6733 Q1314.13 59.3701 1318.26 63.421 Q1322.43 67.4314 1329.85 67.4314 Q1334.14 67.4314 1338.15 66.3781 Q1342.2 65.3249 1346.17 63.2184 L1346.17 70.267 Q1342.16 71.9684 1337.95 72.8596 Q1333.74 73.7508 1329.4 73.7508 Q1318.54 73.7508 1312.18 67.4314 Q1305.87 61.1119 1305.87 50.3365 Q1305.87 39.1965 1311.86 32.6746 Q1317.9 26.1121 1328.1 26.1121 Q1337.26 26.1121 1342.57 32.0264 Q1347.91 37.9003 1347.91 48.0275 M1340.46 45.84 Q1340.38 39.7232 1337.02 36.0774 Q1333.7 32.4315 1328.19 32.4315 Q1321.95 32.4315 1318.18 35.9558 Q1314.45 39.4801 1313.89 45.8805 L1340.46 45.84 Z" fill="#000000" fill-rule="nonzero" fill-opacity="1" /><path clip-path="url(#clip260)" d="M1389.07 28.5427 L1389.07 35.5912 Q1385.91 33.9709 1382.51 33.1607 Q1379.11 32.3505 1375.46 32.3505 Q1369.91 32.3505 1367.12 34.0519 Q1364.36 35.7533 1364.36 39.156 Q1364.36 41.7486 1366.35 43.2475 Q1368.33 44.7058 1374.33 46.0426 L1376.88 46.6097 Q1384.82 48.3111 1388.14 51.4303 Q1391.5 54.509 1391.5 60.0587 Q1391.5 66.3781 1386.48 70.0644 Q1381.5 73.7508 1372.75 73.7508 Q1369.1 73.7508 1365.13 73.0216 Q1361.2 72.3329 1356.83 70.9151 L1356.83 63.2184 Q1360.96 65.3654 1364.97 66.4591 Q1368.98 67.5124 1372.91 67.5124 Q1378.17 67.5124 1381.01 65.73 Q1383.85 63.9071 1383.85 60.6258 Q1383.85 57.5877 1381.78 55.9673 Q1379.75 54.3469 1372.83 52.8481 L1370.23 52.2405 Q1363.31 50.7821 1360.23 47.7845 Q1357.15 44.7463 1357.15 39.4801 Q1357.15 33.0797 1361.69 29.5959 Q1366.22 26.1121 1374.57 26.1121 Q1378.7 26.1121 1382.35 26.7198 Q1385.99 27.3274 1389.07 28.5427 Z" fill="#000000" fill-rule="nonzero" fill-opacity="1" /><path clip-path="url(#clip260)" d="M1442.18 48.0275 L1442.18 51.6733 L1407.91 51.6733 Q1408.39 59.3701 1412.53 63.421 Q1416.7 67.4314 1424.11 67.4314 Q1428.41 67.4314 1432.42 66.3781 Q1436.47 65.3249 1440.44 63.2184 L1440.44 70.267 Q1436.43 71.9684 1432.21 72.8596 Q1428 73.7508 1423.67 73.7508 Q1412.81 73.7508 1406.45 67.4314 Q1400.13 61.1119 1400.13 50.3365 Q1400.13 39.1965 1406.13 32.6746 Q1412.16 26.1121 1422.37 26.1121 Q1431.52 26.1121 1436.83 32.0264 Q1442.18 37.9003 1442.18 48.0275 M1434.72 45.84 Q1434.64 39.7232 1431.28 36.0774 Q1427.96 32.4315 1422.45 32.4315 Q1416.21 32.4315 1412.44 35.9558 Q1408.72 39.4801 1408.15 45.8805 L1434.72 45.84 Z" fill="#000000" fill-rule="nonzero" fill-opacity="1" /><path clip-path="url(#clip260)" d="M1461.78 14.324 L1461.78 27.2059 L1477.14 27.2059 L1477.14 32.9987 L1461.78 32.9987 L1461.78 57.6282 Q1461.78 63.1779 1463.28 64.7578 Q1464.82 66.3376 1469.48 66.3376 L1477.14 66.3376 L1477.14 72.576 L1469.48 72.576 Q1460.85 72.576 1457.57 69.3758 Q1454.29 66.1351 1454.29 57.6282 L1454.29 32.9987 L1448.82 32.9987 L1448.82 27.2059 L1454.29 27.2059 L1454.29 14.324 L1461.78 14.324 Z" fill="#000000" fill-rule="nonzero" fill-opacity="1" /><path clip-path="url(#clip260)" d="M1520.36 12.096 L1520.36 34.5785 L1513.47 34.5785 L1513.47 12.096 L1520.36 12.096 Z" fill="#000000" fill-rule="nonzero" fill-opacity="1" /><path clip-path="url(#clip260)" d="M1543.33 65.7705 L1543.33 89.8329 L1535.84 89.8329 L1535.84 27.2059 L1543.33 27.2059 L1543.33 34.0924 Q1545.68 30.0415 1549.24 28.0971 Q1552.85 26.1121 1557.83 26.1121 Q1566.1 26.1121 1571.24 32.6746 Q1576.43 39.2371 1576.43 49.9314 Q1576.43 60.6258 1571.24 67.1883 Q1566.1 73.7508 1557.83 73.7508 Q1552.85 73.7508 1549.24 71.8063 Q1545.68 69.8214 1543.33 65.7705 M1568.69 49.9314 Q1568.69 41.7081 1565.29 37.0496 Q1561.92 32.3505 1556.01 32.3505 Q1550.09 32.3505 1546.69 37.0496 Q1543.33 41.7081 1543.33 49.9314 Q1543.33 58.1548 1546.69 62.8538 Q1550.09 67.5124 1556.01 67.5124 Q1561.92 67.5124 1565.29 62.8538 Q1568.69 58.1548 1568.69 49.9314 Z" fill="#000000" fill-rule="nonzero" fill-opacity="1" /><path clip-path="url(#clip260)" d="M1609.4 49.7694 Q1600.37 49.7694 1596.88 51.8354 Q1593.4 53.9013 1593.4 58.8839 Q1593.4 62.8538 1595.99 65.2034 Q1598.62 67.5124 1603.12 67.5124 Q1609.32 67.5124 1613.05 63.1374 Q1616.81 58.7219 1616.81 51.4303 L1616.81 49.7694 L1609.4 49.7694 M1624.27 46.6907 L1624.27 72.576 L1616.81 72.576 L1616.81 65.6895 Q1614.26 69.8214 1610.45 71.8063 Q1606.65 73.7508 1601.14 73.7508 Q1594.17 73.7508 1590.04 69.8619 Q1585.94 65.9325 1585.94 59.3701 Q1585.94 51.7138 1591.05 47.825 Q1596.19 43.9361 1606.36 43.9361 L1616.81 43.9361 L1616.81 43.2069 Q1616.81 38.0623 1613.41 35.2672 Q1610.05 32.4315 1603.93 32.4315 Q1600.04 32.4315 1596.36 33.3632 Q1592.67 34.295 1589.27 36.1584 L1589.27 29.2718 Q1593.36 27.692 1597.21 26.9223 Q1601.05 26.1121 1604.7 26.1121 Q1614.54 26.1121 1619.41 31.2163 Q1624.27 36.3204 1624.27 46.6907 Z" fill="#000000" fill-rule="nonzero" fill-opacity="1" /><path clip-path="url(#clip260)" d="M1646.83 65.7705 L1646.83 89.8329 L1639.34 89.8329 L1639.34 27.2059 L1646.83 27.2059 L1646.83 34.0924 Q1649.18 30.0415 1652.74 28.0971 Q1656.35 26.1121 1661.33 26.1121 Q1669.6 26.1121 1674.74 32.6746 Q1679.93 39.2371 1679.93 49.9314 Q1679.93 60.6258 1674.74 67.1883 Q1669.6 73.7508 1661.33 73.7508 Q1656.35 73.7508 1652.74 71.8063 Q1649.18 69.8214 1646.83 65.7705 M1672.19 49.9314 Q1672.19 41.7081 1668.79 37.0496 Q1665.42 32.3505 1659.51 32.3505 Q1653.59 32.3505 1650.19 37.0496 Q1646.83 41.7081 1646.83 49.9314 Q1646.83 58.1548 1650.19 62.8538 Q1653.59 67.5124 1659.51 67.5124 Q1665.42 67.5124 1668.79 62.8538 Q1672.19 58.1548 1672.19 49.9314 Z" fill="#000000" fill-rule="nonzero" fill-opacity="1" /><path clip-path="url(#clip260)" d="M1731.09 48.0275 L1731.09 51.6733 L1696.82 51.6733 Q1697.3 59.3701 1701.44 63.421 Q1705.61 67.4314 1713.02 67.4314 Q1717.32 67.4314 1721.33 66.3781 Q1725.38 65.3249 1729.35 63.2184 L1729.35 70.267 Q1725.34 71.9684 1721.12 72.8596 Q1716.91 73.7508 1712.58 73.7508 Q1701.72 73.7508 1695.36 67.4314 Q1689.04 61.1119 1689.04 50.3365 Q1689.04 39.1965 1695.04 32.6746 Q1701.07 26.1121 1711.28 26.1121 Q1720.43 26.1121 1725.74 32.0264 Q1731.09 37.9003 1731.09 48.0275 M1723.64 45.84 Q1723.55 39.7232 1720.19 36.0774 Q1716.87 32.4315 1711.36 32.4315 Q1705.12 32.4315 1701.36 35.9558 Q1697.63 39.4801 1697.06 45.8805 L1723.64 45.84 Z" fill="#000000" fill-rule="nonzero" fill-opacity="1" /><path clip-path="url(#clip260)" d="M1769.61 34.1734 Q1768.36 33.4443 1766.86 33.1202 Q1765.4 32.7556 1763.62 32.7556 Q1757.3 32.7556 1753.9 36.8875 Q1750.53 40.9789 1750.53 48.6757 L1750.53 72.576 L1743.04 72.576 L1743.04 27.2059 L1750.53 27.2059 L1750.53 34.2544 Q1752.88 30.1225 1756.65 28.1376 Q1760.42 26.1121 1765.81 26.1121 Q1766.57 26.1121 1767.51 26.2337 Q1768.44 26.3147 1769.57 26.5172 L1769.61 34.1734 Z" fill="#000000" fill-rule="nonzero" fill-opacity="1" /><path clip-path="url(#clip260)" d="M1784.48 12.096 L1784.48 34.5785 L1777.59 34.5785 L1777.59 12.096 L1784.48 12.096 Z" fill="#000000" fill-rule="nonzero" fill-opacity="1" /><path clip-path="url(#clip260)" d="M1802.14 62.2867 L1810.69 62.2867 L1810.69 69.2543 L1804.05 82.2172 L1798.82 82.2172 L1802.14 69.2543 L1802.14 62.2867 Z" fill="#000000" fill-rule="nonzero" fill-opacity="1" /><path clip-path="url(#clip260)" d="M1898.59 16.7545 L1898.59 25.383 Q1894.46 21.5346 1889.76 19.6307 Q1885.1 17.7268 1879.84 17.7268 Q1869.47 17.7268 1863.96 24.0867 Q1858.45 30.4061 1858.45 42.3968 Q1858.45 54.3469 1863.96 60.7069 Q1869.47 67.0263 1879.84 67.0263 Q1885.1 67.0263 1889.76 65.1223 Q1894.46 63.2184 1898.59 59.3701 L1898.59 67.9175 Q1894.3 70.8341 1889.48 72.2924 Q1884.7 73.7508 1879.35 73.7508 Q1865.62 73.7508 1857.72 65.3654 Q1849.82 56.9395 1849.82 42.3968 Q1849.82 27.8135 1857.72 19.4281 Q1865.62 11.0023 1879.35 11.0023 Q1884.78 11.0023 1889.56 12.4606 Q1894.38 13.8784 1898.59 16.7545 Z" fill="#000000" fill-rule="nonzero" fill-opacity="1" /><path clip-path="url(#clip260)" d="M1919.42 18.8205 L1919.42 41.5461 L1929.7 41.5461 Q1935.42 41.5461 1938.54 38.5889 Q1941.65 35.6318 1941.65 30.163 Q1941.65 24.7348 1938.54 21.7777 Q1935.42 18.8205 1929.7 18.8205 L1919.42 18.8205 M1911.23 12.096 L1929.7 12.096 Q1939.87 12.096 1945.06 16.714 Q1950.28 21.2916 1950.28 30.163 Q1950.28 39.1155 1945.06 43.6931 Q1939.87 48.2706 1929.7 48.2706 L1919.42 48.2706 L1919.42 72.576 L1911.23 72.576 L1911.23 12.096 Z" fill="#000000" fill-rule="nonzero" fill-opacity="1" /><path clip-path="url(#clip260)" d="M1960.33 12.096 L1968.55 12.096 L1968.55 48.8377 Q1968.55 58.5599 1972.08 62.8538 Q1975.6 67.1073 1983.5 67.1073 Q1991.36 67.1073 1994.88 62.8538 Q1998.41 58.5599 1998.41 48.8377 L1998.41 12.096 L2006.63 12.096 L2006.63 49.8504 Q2006.63 61.6791 2000.76 67.7149 Q1994.92 73.7508 1983.5 73.7508 Q1972.04 73.7508 1966.16 67.7149 Q1960.33 61.6791 1960.33 49.8504 L1960.33 12.096 Z" fill="#000000" fill-rule="nonzero" fill-opacity="1" /><path clip-path="url(#clip262)" d="M244.848 1123.45 L244.848 1292.71 L504.2 1292.71 L504.2 1123.45 L244.848 1123.45 L244.848 1123.45  Z" fill="#808080" fill-rule="evenodd" fill-opacity="1"/>
<polyline clip-path="url(#clip262)" style="stroke:#000000; stroke-linecap:round; stroke-linejoin:round; stroke-width:4; stroke-opacity:1; fill:none" points="244.848,1123.45 244.848,1292.71 504.2,1292.71 504.2,1123.45 244.848,1123.45 "/>
<circle clip-path="url(#clip262)" style="fill:#808080; stroke:none; fill-opacity:0" cx="374.524" cy="1123.45" r="2"/>
<polyline clip-path="url(#clip262)" style="stroke:#000000; stroke-linecap:round; stroke-linejoin:round; stroke-width:4; stroke-opacity:1; fill:none" points="374.524,1124.31 374.524,1122.66 "/>
<line clip-path="url(#clip262)" x1="390.524" y1="1124.31" x2="358.524" y2="1124.31" style="stroke:#000000; stroke-width:4; stroke-opacity:1"/>
<line clip-path="url(#clip262)" x1="390.524" y1="1122.66" x2="358.524" y2="1122.66" style="stroke:#000000; stroke-width:4; stroke-opacity:1"/>
<path clip-path="url(#clip262)" d="M752.807 1268 L752.807 1292.71 L1012.16 1292.71 L1012.16 1268 L752.807 1268 L752.807 1268  Z" fill="#17913e" fill-rule="evenodd" fill-opacity="1"/>
<polyline clip-path="url(#clip262)" style="stroke:#000000; stroke-linecap:round; stroke-linejoin:round; stroke-width:4; stroke-opacity:1; fill:none" points="752.807,1268 752.807,1292.71 1012.16,1292.71 1012.16,1268 752.807,1268 "/>
<circle clip-path="url(#clip262)" style="fill:#17913e; stroke:none; fill-opacity:0" cx="882.483" cy="1268" r="2"/>
<polyline clip-path="url(#clip262)" style="stroke:#000000; stroke-linecap:round; stroke-linejoin:round; stroke-width:4; stroke-opacity:1; fill:none" points="882.483,1279.6 882.483,1265.25 "/>
<line clip-path="url(#clip262)" x1="898.483" y1="1279.6" x2="866.483" y2="1279.6" style="stroke:#000000; stroke-width:4; stroke-opacity:1"/>
<line clip-path="url(#clip262)" x1="898.483" y1="1265.25" x2="866.483" y2="1265.25" style="stroke:#000000; stroke-width:4; stroke-opacity:1"/>
<path clip-path="url(#clip262)" d="M1260.77 1287.98 L1260.77 1292.71 L1520.12 1292.71 L1520.12 1287.98 L1260.77 1287.98 L1260.77 1287.98  Z" fill="#3065a6" fill-rule="evenodd" fill-opacity="1"/>
<polyline clip-path="url(#clip262)" style="stroke:#000000; stroke-linecap:round; stroke-linejoin:round; stroke-width:4; stroke-opacity:1; fill:none" points="1260.77,1287.98 1260.77,1292.71 1520.12,1292.71 1520.12,1287.98 1260.77,1287.98 "/>
<path clip-path="url(#clip262)" d="M1631.27 246.336 L1631.27 1292.71 L1890.62 1292.71 L1890.62 246.336 L1631.27 246.336 L1631.27 246.336  Z" fill="#3065a6" fill-rule="evenodd" fill-opacity="1"/>
<polyline clip-path="url(#clip262)" style="stroke:#000000; stroke-linecap:round; stroke-linejoin:round; stroke-width:4; stroke-opacity:1; fill:none" points="1631.27,246.336 1631.27,1292.71 1890.62,1292.71 1890.62,246.336 1631.27,246.336 "/>
<path clip-path="url(#clip262)" d="M2001.77 769.487 L2001.77 1292.71 L2261.12 1292.71 L2261.12 769.487 L2001.77 769.487 L2001.77 769.487  Z" fill="#3065a6" fill-rule="evenodd" fill-opacity="1"/>
<polyline clip-path="url(#clip262)" style="stroke:#000000; stroke-linecap:round; stroke-linejoin:round; stroke-width:4; stroke-opacity:1; fill:none" points="2001.77,769.487 2001.77,1292.71 2261.12,1292.71 2261.12,769.487 2001.77,769.487 "/>
<circle clip-path="url(#clip262)" style="fill:#3065a6; stroke:none; fill-opacity:0" cx="1390.44" cy="1287.98" r="2"/>
<circle clip-path="url(#clip262)" style="fill:#3065a6; stroke:none; fill-opacity:0" cx="1760.94" cy="246.336" r="2"/>
<circle clip-path="url(#clip262)" style="fill:#3065a6; stroke:none; fill-opacity:0" cx="2131.45" cy="769.487" r="2"/>
<polyline clip-path="url(#clip262)" style="stroke:#000000; stroke-linecap:round; stroke-linejoin:round; stroke-width:4; stroke-opacity:1; fill:none" points="1390.44,1288.13 1390.44,1287.88 "/>
<polyline clip-path="url(#clip262)" style="stroke:#000000; stroke-linecap:round; stroke-linejoin:round; stroke-width:4; stroke-opacity:1; fill:none" points="1760.94,263.578 1760.94,229.767 "/>
<polyline clip-path="url(#clip262)" style="stroke:#000000; stroke-linecap:round; stroke-linejoin:round; stroke-width:4; stroke-opacity:1; fill:none" points="2131.45,1243.82 2131.45,751.054 "/>
<line clip-path="url(#clip262)" x1="1406.44" y1="1288.13" x2="1374.44" y2="1288.13" style="stroke:#000000; stroke-width:4; stroke-opacity:1"/>
<line clip-path="url(#clip262)" x1="1406.44" y1="1287.88" x2="1374.44" y2="1287.88" style="stroke:#000000; stroke-width:4; stroke-opacity:1"/>
<line clip-path="url(#clip262)" x1="1776.94" y1="263.578" x2="1744.94" y2="263.578" style="stroke:#000000; stroke-width:4; stroke-opacity:1"/>
<line clip-path="url(#clip262)" x1="1776.94" y1="229.767" x2="1744.94" y2="229.767" style="stroke:#000000; stroke-width:4; stroke-opacity:1"/>
<line clip-path="url(#clip262)" x1="2147.45" y1="1243.82" x2="2115.45" y2="1243.82" style="stroke:#000000; stroke-width:4; stroke-opacity:1"/>
<line clip-path="url(#clip262)" x1="2147.45" y1="751.054" x2="2115.45" y2="751.054" style="stroke:#000000; stroke-width:4; stroke-opacity:1"/>
<path clip-path="url(#clip260)" d="M248.022 369.807 L623.252 369.807 L623.252 162.447 L248.022 162.447  Z" fill="#ffffff" fill-rule="evenodd" fill-opacity="1"/>
<polyline clip-path="url(#clip260)" style="stroke:#000000; stroke-linecap:round; stroke-linejoin:round; stroke-width:4; stroke-opacity:1; fill:none" points="248.022,369.807 623.252,369.807 623.252,162.447 248.022,162.447 248.022,369.807 "/>
<path clip-path="url(#clip260)" d="M272.215 235.023 L417.369 235.023 L417.369 193.551 L272.215 193.551 L272.215 235.023  Z" fill="#808080" fill-rule="evenodd" fill-opacity="1"/>
<polyline clip-path="url(#clip260)" style="stroke:#000000; stroke-linecap:round; stroke-linejoin:round; stroke-width:4; stroke-opacity:1; fill:none" points="272.215,235.023 417.369,235.023 417.369,193.551 272.215,193.551 272.215,235.023 "/>
<path clip-path="url(#clip260)" d="M469.431 199.669 L469.431 204.599 Q467.07 202.4 464.385 201.312 Q461.723 200.224 458.714 200.224 Q452.788 200.224 449.64 203.859 Q446.491 207.47 446.491 214.321 Q446.491 221.15 449.64 224.784 Q452.788 228.395 458.714 228.395 Q461.723 228.395 464.385 227.308 Q467.07 226.22 469.431 224.02 L469.431 228.905 Q466.977 230.571 464.223 231.405 Q461.491 232.238 458.436 232.238 Q450.589 232.238 446.075 227.446 Q441.561 222.632 441.561 214.321 Q441.561 205.988 446.075 201.197 Q450.589 196.382 458.436 196.382 Q461.538 196.382 464.269 197.215 Q467.024 198.025 469.431 199.669 Z" fill="#000000" fill-rule="nonzero" fill-opacity="1" /><path clip-path="url(#clip260)" d="M272.215 286.863 L417.369 286.863 L417.369 245.391 L272.215 245.391 L272.215 286.863  Z" fill="#17913e" fill-rule="evenodd" fill-opacity="1"/>
<polyline clip-path="url(#clip260)" style="stroke:#000000; stroke-linecap:round; stroke-linejoin:round; stroke-width:4; stroke-opacity:1; fill:none" points="272.215,286.863 417.369,286.863 417.369,245.391 272.215,245.391 272.215,286.863 "/>
<path clip-path="url(#clip260)" d="M446.885 257.481 L451.144 257.481 L451.144 283.87 Q451.144 288.823 449.246 291.046 Q447.371 293.268 443.181 293.268 L441.561 293.268 L441.561 289.657 L442.695 289.657 Q445.126 289.657 446.005 288.522 Q446.885 287.411 446.885 283.87 L446.885 257.481 M446.885 247.388 L451.144 247.388 L451.144 252.782 L446.885 252.782 L446.885 247.388 Z" fill="#000000" fill-rule="nonzero" fill-opacity="1" /><path clip-path="url(#clip260)" d="M459.616 273.175 L459.616 257.481 L463.876 257.481 L463.876 273.013 Q463.876 276.694 465.311 278.546 Q466.746 280.374 469.616 280.374 Q473.065 280.374 475.056 278.175 Q477.07 275.976 477.07 272.18 L477.07 257.481 L481.329 257.481 L481.329 283.407 L477.07 283.407 L477.07 279.425 Q475.519 281.786 473.459 282.944 Q471.422 284.078 468.714 284.078 Q464.246 284.078 461.931 281.3 Q459.616 278.523 459.616 273.175 M470.334 256.856 L470.334 256.856 Z" fill="#000000" fill-rule="nonzero" fill-opacity="1" /><path clip-path="url(#clip260)" d="M490.102 247.388 L494.362 247.388 L494.362 283.407 L490.102 283.407 L490.102 247.388 Z" fill="#000000" fill-rule="nonzero" fill-opacity="1" /><path clip-path="url(#clip260)" d="M503.274 257.481 L507.533 257.481 L507.533 283.407 L503.274 283.407 L503.274 257.481 M503.274 247.388 L507.533 247.388 L507.533 252.782 L503.274 252.782 L503.274 247.388 Z" fill="#000000" fill-rule="nonzero" fill-opacity="1" /><path clip-path="url(#clip260)" d="M528.227 270.374 Q523.065 270.374 521.074 271.555 Q519.084 272.736 519.084 275.583 Q519.084 277.851 520.565 279.194 Q522.07 280.513 524.639 280.513 Q528.181 280.513 530.31 278.013 Q532.463 275.49 532.463 271.323 L532.463 270.374 L528.227 270.374 M536.722 268.615 L536.722 283.407 L532.463 283.407 L532.463 279.472 Q531.005 281.833 528.829 282.967 Q526.653 284.078 523.505 284.078 Q519.524 284.078 517.162 281.856 Q514.824 279.61 514.824 275.86 Q514.824 271.486 517.741 269.263 Q520.681 267.041 526.491 267.041 L532.463 267.041 L532.463 266.624 Q532.463 263.685 530.519 262.087 Q528.598 260.467 525.102 260.467 Q522.88 260.467 520.773 260.999 Q518.667 261.532 516.723 262.597 L516.723 258.662 Q519.061 257.759 521.26 257.319 Q523.459 256.856 525.542 256.856 Q531.167 256.856 533.945 259.773 Q536.722 262.689 536.722 268.615 Z" fill="#000000" fill-rule="nonzero" fill-opacity="1" /><path clip-path="url(#clip260)" d="M272.215 338.703 L417.369 338.703 L417.369 297.231 L272.215 297.231 L272.215 338.703  Z" fill="#3065a6" fill-rule="evenodd" fill-opacity="1"/>
<polyline clip-path="url(#clip260)" style="stroke:#000000; stroke-linecap:round; stroke-linejoin:round; stroke-width:4; stroke-opacity:1; fill:none" points="272.215,338.703 417.369,338.703 417.369,297.231 272.215,297.231 272.215,338.703 "/>
<path clip-path="url(#clip260)" d="M445.843 331.358 L445.843 345.108 L441.561 345.108 L441.561 309.321 L445.843 309.321 L445.843 313.256 Q447.186 310.941 449.223 309.83 Q451.283 308.696 454.13 308.696 Q458.853 308.696 461.792 312.446 Q464.755 316.196 464.755 322.307 Q464.755 328.418 461.792 332.168 Q458.853 335.918 454.13 335.918 Q451.283 335.918 449.223 334.807 Q447.186 333.673 445.843 331.358 M460.334 322.307 Q460.334 317.608 458.39 314.946 Q456.468 312.261 453.089 312.261 Q449.709 312.261 447.765 314.946 Q445.843 317.608 445.843 322.307 Q445.843 327.006 447.765 329.691 Q449.709 332.353 453.089 332.353 Q456.468 332.353 458.39 329.691 Q460.334 327.006 460.334 322.307 Z" fill="#000000" fill-rule="nonzero" fill-opacity="1" /><path clip-path="url(#clip260)" d="M482.602 337.654 Q480.797 342.284 479.084 343.696 Q477.371 345.108 474.501 345.108 L471.098 345.108 L471.098 341.543 L473.598 341.543 Q475.357 341.543 476.329 340.71 Q477.302 339.876 478.482 336.775 L479.246 334.83 L468.76 309.321 L473.274 309.321 L481.376 329.599 L489.477 309.321 L493.991 309.321 L482.602 337.654 Z" fill="#000000" fill-rule="nonzero" fill-opacity="1" /><path clip-path="url(#clip260)" d="M504.084 301.96 L504.084 309.321 L512.857 309.321 L512.857 312.631 L504.084 312.631 L504.084 326.705 Q504.084 329.876 504.94 330.779 Q505.82 331.682 508.482 331.682 L512.857 331.682 L512.857 335.247 L508.482 335.247 Q503.551 335.247 501.676 333.418 Q499.801 331.566 499.801 326.705 L499.801 312.631 L496.676 312.631 L496.676 309.321 L499.801 309.321 L499.801 301.96 L504.084 301.96 Z" fill="#000000" fill-rule="nonzero" fill-opacity="1" /><path clip-path="url(#clip260)" d="M540.01 319.599 L540.01 335.247 L535.75 335.247 L535.75 319.738 Q535.75 316.057 534.315 314.228 Q532.88 312.4 530.01 312.4 Q526.561 312.4 524.57 314.599 Q522.579 316.798 522.579 320.594 L522.579 335.247 L518.297 335.247 L518.297 299.228 L522.579 299.228 L522.579 313.349 Q524.107 311.011 526.167 309.853 Q528.25 308.696 530.959 308.696 Q535.426 308.696 537.718 311.474 Q540.01 314.228 540.01 319.599 Z" fill="#000000" fill-rule="nonzero" fill-opacity="1" /><path clip-path="url(#clip260)" d="M558.551 312.307 Q555.125 312.307 553.134 314.992 Q551.144 317.654 551.144 322.307 Q551.144 326.96 553.111 329.645 Q555.102 332.307 558.551 332.307 Q561.954 332.307 563.945 329.622 Q565.935 326.937 565.935 322.307 Q565.935 317.701 563.945 315.015 Q561.954 312.307 558.551 312.307 M558.551 308.696 Q564.107 308.696 567.278 312.307 Q570.449 315.918 570.449 322.307 Q570.449 328.673 567.278 332.307 Q564.107 335.918 558.551 335.918 Q552.972 335.918 549.801 332.307 Q546.653 328.673 546.653 322.307 Q546.653 315.918 549.801 312.307 Q552.972 308.696 558.551 308.696 Z" fill="#000000" fill-rule="nonzero" fill-opacity="1" /><path clip-path="url(#clip260)" d="M599.06 319.599 L599.06 335.247 L594.801 335.247 L594.801 319.738 Q594.801 316.057 593.366 314.228 Q591.931 312.4 589.06 312.4 Q585.611 312.4 583.62 314.599 Q581.63 316.798 581.63 320.594 L581.63 335.247 L577.347 335.247 L577.347 309.321 L581.63 309.321 L581.63 313.349 Q583.157 311.011 585.218 309.853 Q587.301 308.696 590.009 308.696 Q594.477 308.696 596.768 311.474 Q599.06 314.228 599.06 319.599 Z" fill="#000000" fill-rule="nonzero" fill-opacity="1" /></svg>
