<?xml version="1.0" encoding="utf-8"?>
<svg xmlns="http://www.w3.org/2000/svg" xmlns:xlink="http://www.w3.org/1999/xlink" width="600" height="400" viewBox="0 0 2400 1600">
<defs>
  <clipPath id="clip620">
    <rect x="0" y="0" width="2400" height="1600"/>
  </clipPath>
</defs>
<path clip-path="url(#clip620)" d="M0 1600 L2400 1600 L2400 0 L0 0  Z" fill="#ffffff" fill-rule="evenodd" fill-opacity="1"/>
<defs>
  <clipPath id="clip621">
    <rect x="480" y="0" width="1681" height="1600"/>
  </clipPath>
</defs>
<path clip-path="url(#clip620)" d="M219.866 1234.03 L2352.76 1234.03 L2352.76 123.472 L219.866 123.472  Z" fill="#ffffff" fill-rule="evenodd" fill-opacity="1"/>
<defs>
  <clipPath id="clip622">
    <rect x="219" y="123" width="2134" height="1112"/>
  </clipPath>
</defs>
<polyline clip-path="url(#clip622)" style="stroke:#000000; stroke-linecap:round; stroke-linejoin:round; stroke-width:2; stroke-opacity:0.1; fill:none" points="472.207,1234.03 472.207,123.472 "/>
<polyline clip-path="url(#clip622)" style="stroke:#000000; stroke-linecap:round; stroke-linejoin:round; stroke-width:2; stroke-opacity:0.1; fill:none" points="950.951,1234.03 950.951,123.472 "/>
<polyline clip-path="url(#clip622)" style="stroke:#000000; stroke-linecap:round; stroke-linejoin:round; stroke-width:2; stroke-opacity:0.1; fill:none" points="1621.67,1234.03 1621.67,123.472 "/>
<polyline clip-path="url(#clip622)" style="stroke:#000000; stroke-linecap:round; stroke-linejoin:round; stroke-width:2; stroke-opacity:0.1; fill:none" points="2100.41,1234.03 2100.41,123.472 "/>
<polyline clip-path="url(#clip620)" style="stroke:#000000; stroke-linecap:round; stroke-linejoin:round; stroke-width:4; stroke-opacity:1; fill:none" points="219.866,1234.03 2352.76,1234.03 "/>
<polyline clip-path="url(#clip620)" style="stroke:#000000; stroke-linecap:round; stroke-linejoin:round; stroke-width:4; stroke-opacity:1; fill:none" points="472.207,1234.03 472.207,1215.13 "/>
<polyline clip-path="url(#clip620)" style="stroke:#000000; stroke-linecap:round; stroke-linejoin:round; stroke-width:4; stroke-opacity:1; fill:none" points="950.951,1234.03 950.951,1215.13 "/>
<polyline clip-path="url(#clip620)" style="stroke:#000000; stroke-linecap:round; stroke-linejoin:round; stroke-width:4; stroke-opacity:1; fill:none" points="1621.67,1234.03 1621.67,1215.13 "/>
<polyline clip-path="url(#clip620)" style="stroke:#000000; stroke-linecap:round; stroke-linejoin:round; stroke-width:4; stroke-opacity:1; fill:none" points="2100.41,1234.03 2100.41,1215.13 "/>
<path clip-path="url(#clip620)" d="M342.858 1403.21 L353.923 1414.28 L350.911 1417.29 L339.945 1406.32 Q337.342 1403.72 335.034 1403.44 Q332.726 1403.16 330.697 1405.19 Q328.258 1407.63 328.405 1410.59 Q328.552 1413.56 331.237 1416.24 L341.598 1426.6 L338.57 1429.63 L320.237 1411.3 L323.266 1408.27 L326.114 1411.12 Q325.541 1408.38 326.179 1406.11 Q326.834 1403.82 328.749 1401.9 Q331.908 1398.74 335.493 1399.09 Q339.061 1399.41 342.858 1403.21 Z" fill="#000000" fill-rule="nonzero" fill-opacity="1" /><path clip-path="url(#clip620)" d="M359.046 1390.72 Q355.396 1394.37 354.823 1396.61 Q354.25 1398.86 356.264 1400.87 Q357.868 1402.47 359.865 1402.38 Q361.862 1402.25 363.678 1400.43 Q366.183 1397.92 365.921 1394.65 Q365.659 1391.34 362.713 1388.4 L362.042 1387.73 L359.046 1390.72 M363.809 1383.47 L374.269 1393.93 L371.257 1396.94 L368.474 1394.16 Q369.113 1396.86 368.376 1399.2 Q367.623 1401.53 365.397 1403.75 Q362.582 1406.57 359.341 1406.66 Q356.1 1406.73 353.448 1404.08 Q350.355 1400.98 350.846 1397.35 Q351.353 1393.7 355.462 1389.59 L359.685 1385.37 L359.39 1385.08 Q357.311 1383 354.807 1383.24 Q352.303 1383.45 349.831 1385.93 Q348.26 1387.5 347.147 1389.36 Q346.034 1391.23 345.412 1393.36 L342.629 1390.57 Q343.644 1388.28 344.888 1386.42 Q346.115 1384.53 347.589 1383.06 Q351.566 1379.08 355.593 1379.18 Q359.619 1379.28 363.809 1383.47 Z" fill="#000000" fill-rule="nonzero" fill-opacity="1" /><path clip-path="url(#clip620)" d="M362.14 1369.39 L365.152 1366.38 L383.484 1384.72 L380.472 1387.73 L362.14 1369.39 M355.003 1362.26 L358.015 1359.25 L361.829 1363.06 L358.817 1366.07 L355.003 1362.26 Z" fill="#000000" fill-rule="nonzero" fill-opacity="1" /><path clip-path="url(#clip620)" d="M369.293 1362.24 L372.485 1359.05 L393.599 1368.71 L383.942 1347.59 L387.134 1344.4 L398.592 1369.61 L394.5 1373.7 L369.293 1362.24 Z" fill="#000000" fill-rule="nonzero" fill-opacity="1" /><path clip-path="url(#clip620)" d="M415.385 1332.98 L416.859 1334.45 L403.011 1348.3 Q406.317 1351.21 409.624 1351.18 Q412.93 1351.11 415.926 1348.12 Q417.661 1346.38 418.855 1344.33 Q420.067 1342.27 420.82 1339.82 L423.668 1342.67 Q422.735 1344.97 421.392 1347.04 Q420.05 1349.1 418.299 1350.85 Q413.912 1355.24 408.789 1355.25 Q403.682 1355.25 399.328 1350.9 Q394.827 1346.4 394.614 1341.34 Q394.401 1336.25 398.526 1332.12 Q402.225 1328.43 406.759 1328.67 Q411.293 1328.88 415.385 1332.98 M411.49 1335.1 Q408.985 1332.66 406.154 1332.55 Q403.338 1332.42 401.112 1334.64 Q398.592 1337.17 398.493 1340.11 Q398.412 1343.04 400.769 1345.86 L411.49 1335.1 Z" fill="#000000" fill-rule="nonzero" fill-opacity="1" /><path clip-path="url(#clip620)" d="M422.702 1294.62 Q424.273 1300.58 426.892 1305.33 Q429.511 1310.08 433.292 1313.86 Q437.073 1317.64 441.853 1320.29 Q446.632 1322.91 452.557 1324.48 L449.938 1327.1 Q443.637 1325.71 438.694 1323.22 Q433.767 1320.72 430.1 1317.05 Q426.45 1313.4 423.962 1308.49 Q421.474 1303.58 420.083 1297.24 L422.702 1294.62 Z" fill="#000000" fill-rule="nonzero" fill-opacity="1" /><path clip-path="url(#clip620)" d="M449.857 1273.23 L453.343 1276.72 Q450.119 1276.83 447.451 1277.96 Q444.799 1279.08 442.671 1281.2 Q438.481 1285.39 438.825 1290.19 Q439.152 1294.97 443.997 1299.81 Q448.825 1304.64 453.621 1304.99 Q458.401 1305.31 462.591 1301.12 Q464.719 1299 465.832 1296.34 Q466.961 1293.68 467.076 1290.45 L470.53 1293.9 Q469.973 1296.82 468.615 1299.36 Q467.272 1301.88 465.112 1304.04 Q459.563 1309.59 452.983 1309.39 Q446.387 1309.18 440.51 1303.3 Q434.618 1297.41 434.422 1290.83 Q434.209 1284.23 439.758 1278.68 Q441.951 1276.49 444.472 1275.15 Q446.992 1273.77 449.857 1273.23 Z" fill="#000000" fill-rule="nonzero" fill-opacity="1" /><path clip-path="url(#clip620)" d="M451.477 1265.85 L454.096 1263.23 Q460.414 1264.64 465.325 1267.13 Q470.251 1269.6 473.901 1273.25 Q477.568 1276.91 480.056 1281.86 Q482.56 1286.78 483.951 1293.09 L481.333 1295.71 Q479.761 1289.78 477.126 1285.02 Q474.491 1280.22 470.71 1276.44 Q466.929 1272.66 462.165 1270.06 Q457.419 1267.44 451.477 1265.85 Z" fill="#000000" fill-rule="nonzero" fill-opacity="1" /><path clip-path="url(#clip620)" d="M661.129 1550.56 L663.944 1553.37 Q661.964 1553.95 660.327 1554.89 Q658.69 1555.81 657.381 1557.12 Q654.451 1560.05 654.696 1563.54 Q654.925 1567.01 658.281 1570.36 Q661.636 1573.72 665.123 1573.96 Q668.593 1574.19 671.523 1571.26 Q672.832 1569.95 673.765 1568.33 Q674.698 1566.68 675.271 1564.7 L678.054 1567.48 Q677.382 1569.33 676.318 1570.98 Q675.271 1572.62 673.749 1574.14 Q669.608 1578.28 664.566 1578.12 Q659.525 1577.96 655.105 1573.54 Q650.621 1569.05 650.506 1564.03 Q650.408 1558.99 654.696 1554.7 Q656.087 1553.31 657.708 1552.28 Q659.312 1551.23 661.129 1550.56 Z" fill="#000000" fill-rule="nonzero" fill-opacity="1" /><path clip-path="url(#clip620)" d="M684.159 1557.28 L693.881 1567.01 L690.853 1570.03 L665.548 1544.73 L668.576 1541.7 L671.359 1544.48 Q670.671 1541.9 671.326 1539.67 Q671.981 1537.41 673.994 1535.4 Q677.333 1532.06 682.064 1532.63 Q686.81 1533.19 691.132 1537.51 Q695.453 1541.83 696.009 1546.58 Q696.582 1551.31 693.243 1554.65 Q691.23 1556.66 688.987 1557.33 Q686.745 1557.97 684.159 1557.28 M688.005 1540.64 Q684.683 1537.32 681.425 1536.81 Q678.168 1536.27 675.778 1538.66 Q673.389 1541.05 673.912 1544.32 Q674.436 1547.56 677.759 1550.88 Q681.082 1554.21 684.339 1554.75 Q687.596 1555.25 689.986 1552.86 Q692.376 1550.48 691.852 1547.23 Q691.328 1543.96 688.005 1540.64 Z" fill="#000000" fill-rule="nonzero" fill-opacity="1" /><path clip-path="url(#clip620)" d="M697.728 1534.75 L686.63 1523.65 L689.642 1520.64 L700.625 1531.62 Q703.228 1534.22 705.552 1534.52 Q707.86 1534.79 709.89 1532.76 Q712.328 1530.33 712.181 1527.36 Q712.05 1524.38 709.366 1521.7 L698.972 1511.31 L701.984 1508.29 L720.316 1526.63 L717.304 1529.64 L714.489 1526.82 Q715.062 1529.59 714.423 1531.86 Q713.785 1534.11 711.87 1536.02 Q708.711 1539.18 705.11 1538.85 Q701.509 1538.53 697.728 1534.75 M693.767 1515.63 L693.767 1515.63 Z" fill="#000000" fill-rule="nonzero" fill-opacity="1" /><path clip-path="url(#clip620)" d="M746.014 1512.06 L748.355 1514.4 L730.939 1531.82 L728.598 1529.47 L746.014 1512.06 Z" fill="#000000" fill-rule="nonzero" fill-opacity="1" /><path clip-path="url(#clip620)" d="M734.163 1480.34 Q731.741 1482.76 732.232 1486.07 Q732.707 1489.36 735.997 1492.65 Q739.287 1495.94 742.577 1496.44 Q745.867 1496.92 748.306 1494.48 Q750.712 1492.07 750.221 1488.77 Q749.73 1485.46 746.456 1482.19 Q743.199 1478.93 739.892 1478.44 Q736.57 1477.93 734.163 1480.34 M731.61 1477.78 Q735.538 1473.86 740.334 1474.17 Q745.13 1474.48 749.648 1479 Q754.149 1483.5 754.476 1488.31 Q754.787 1493.1 750.859 1497.03 Q746.914 1500.98 742.118 1500.67 Q737.322 1500.32 732.821 1495.82 Q728.304 1491.3 727.976 1486.52 Q727.665 1481.73 731.61 1477.78 Z" fill="#000000" fill-rule="nonzero" fill-opacity="1" /><path clip-path="url(#clip620)" d="M763.953 1477.49 L773.676 1487.21 L770.648 1490.24 L745.343 1464.94 L748.371 1461.91 L751.154 1464.69 Q750.466 1462.1 751.121 1459.88 Q751.776 1457.62 753.789 1455.61 Q757.128 1452.27 761.858 1452.84 Q766.605 1453.4 770.926 1457.72 Q775.247 1462.04 775.804 1466.78 Q776.377 1471.52 773.038 1474.85 Q771.024 1476.87 768.782 1477.54 Q766.54 1478.18 763.953 1477.49 M767.8 1460.84 Q764.477 1457.52 761.22 1457.01 Q757.963 1456.47 755.573 1458.86 Q753.183 1461.25 753.707 1464.53 Q754.231 1467.77 757.554 1471.09 Q760.876 1474.41 764.133 1474.95 Q767.391 1475.46 769.78 1473.07 Q772.17 1470.68 771.646 1467.44 Q771.123 1464.17 767.8 1460.84 Z" fill="#000000" fill-rule="nonzero" fill-opacity="1" /><path clip-path="url(#clip620)" d="M764.51 1435.36 L769.715 1440.56 L775.919 1434.36 L778.259 1436.7 L772.056 1442.9 L782.007 1452.86 Q784.25 1455.1 785.494 1455.13 Q786.754 1455.15 788.637 1453.26 L791.73 1450.17 L794.251 1452.69 L791.157 1455.79 Q787.671 1459.27 785.052 1459.3 Q782.417 1459.32 778.979 1455.88 L769.028 1445.93 L766.818 1448.14 L764.477 1445.8 L766.687 1443.59 L761.482 1438.39 L764.51 1435.36 Z" fill="#000000" fill-rule="nonzero" fill-opacity="1" /><path clip-path="url(#clip620)" d="M779.88 1430.4 L782.891 1427.39 L801.224 1445.72 L798.212 1448.73 L779.88 1430.4 M772.743 1423.26 L775.755 1420.25 L779.569 1424.06 L776.557 1427.08 L772.743 1423.26 Z" fill="#000000" fill-rule="nonzero" fill-opacity="1" /><path clip-path="url(#clip620)" d="M806.985 1410.33 Q806.085 1407.17 806.691 1404.64 Q807.296 1402.1 809.424 1399.97 Q812.289 1397.11 815.857 1397.56 Q819.409 1398.01 823.108 1401.71 L834.173 1412.77 L831.145 1415.8 L820.178 1404.83 Q817.543 1402.2 815.333 1401.85 Q813.123 1401.51 811.208 1403.42 Q808.868 1405.76 809.064 1408.68 Q809.26 1411.59 811.945 1414.28 L822.306 1424.64 L819.278 1427.66 L808.311 1416.7 Q805.659 1414.05 803.466 1413.72 Q801.256 1413.38 799.309 1415.32 Q797.001 1417.63 797.213 1420.56 Q797.41 1423.47 800.078 1426.14 L810.439 1436.5 L807.411 1439.53 L789.079 1421.2 L792.107 1418.17 L794.955 1421.02 Q794.3 1418.3 794.938 1416.06 Q795.577 1413.82 797.557 1411.84 Q799.554 1409.84 801.96 1409.46 Q804.383 1409.07 806.985 1410.33 Z" fill="#000000" fill-rule="nonzero" fill-opacity="1" /><path clip-path="url(#clip620)" d="M821.847 1388.43 L824.859 1385.42 L843.192 1403.75 L840.18 1406.76 L821.847 1388.43 M814.711 1381.29 L817.723 1378.28 L821.537 1382.1 L818.525 1385.11 L814.711 1381.29 Z" fill="#000000" fill-rule="nonzero" fill-opacity="1" /><path clip-path="url(#clip620)" d="M829.852 1380.43 L844.157 1366.12 L846.907 1368.87 L848.757 1393.37 L860.083 1382.05 L862.49 1384.45 L847.775 1399.17 L845.025 1396.42 L843.175 1371.92 L832.258 1382.83 L829.852 1380.43 Z" fill="#000000" fill-rule="nonzero" fill-opacity="1" /><path clip-path="url(#clip620)" d="M872.851 1354.25 L874.324 1355.73 L860.476 1369.57 Q863.783 1372.49 867.089 1372.46 Q870.395 1372.39 873.391 1369.39 Q875.126 1367.66 876.321 1365.61 Q877.532 1363.55 878.285 1361.1 L881.133 1363.94 Q880.2 1366.25 878.858 1368.31 Q877.515 1370.38 875.764 1372.13 Q871.377 1376.51 866.254 1376.53 Q861.147 1376.53 856.793 1372.18 Q852.292 1367.68 852.079 1362.62 Q851.867 1357.53 855.991 1353.4 Q859.691 1349.7 864.225 1349.95 Q868.759 1350.16 872.851 1354.25 M868.955 1356.38 Q866.451 1353.94 863.619 1353.83 Q860.804 1353.7 858.578 1355.92 Q856.057 1358.44 855.959 1361.39 Q855.877 1364.32 858.234 1367.14 L868.955 1356.38 Z" fill="#000000" fill-rule="nonzero" fill-opacity="1" /><path clip-path="url(#clip620)" d="M884.226 1331.62 L874.307 1321.7 L877.319 1318.69 L902.788 1344.15 L899.776 1347.17 L897.026 1344.42 Q897.714 1347 897.059 1349.26 Q896.404 1351.49 894.375 1353.52 Q891.052 1356.84 886.305 1356.28 Q881.575 1355.71 877.254 1351.39 Q872.932 1347.07 872.36 1342.34 Q871.803 1337.59 875.126 1334.27 Q877.155 1332.24 879.398 1331.6 Q881.64 1330.93 884.226 1331.62 M880.364 1348.28 Q883.686 1351.6 886.944 1352.14 Q890.201 1352.65 892.591 1350.26 Q894.98 1347.87 894.473 1344.61 Q893.949 1341.34 890.626 1338.02 Q887.304 1334.69 884.046 1334.19 Q880.773 1333.66 878.383 1336.05 Q875.993 1338.44 876.517 1341.72 Q877.041 1344.96 880.364 1348.28 Z" fill="#000000" fill-rule="nonzero" fill-opacity="1" /><path clip-path="url(#clip620)" d="M901.446 1294.62 Q903.017 1300.58 905.636 1305.33 Q908.255 1310.08 912.036 1313.86 Q915.817 1317.64 920.596 1320.29 Q925.376 1322.91 931.301 1324.48 L928.682 1327.1 Q922.381 1325.71 917.437 1323.22 Q912.511 1320.72 908.844 1317.05 Q905.194 1313.4 902.706 1308.49 Q900.218 1303.58 898.827 1297.24 L901.446 1294.62 Z" fill="#000000" fill-rule="nonzero" fill-opacity="1" /><path clip-path="url(#clip620)" d="M928.6 1273.23 L932.087 1276.72 Q928.862 1276.83 926.194 1277.96 Q923.543 1279.08 921.415 1281.2 Q917.225 1285.39 917.568 1290.19 Q917.896 1294.97 922.741 1299.81 Q927.569 1304.64 932.365 1304.99 Q937.145 1305.31 941.335 1301.12 Q943.463 1299 944.576 1296.34 Q945.705 1293.68 945.82 1290.45 L949.273 1293.9 Q948.717 1296.82 947.358 1299.36 Q946.016 1301.88 943.855 1304.04 Q938.307 1309.59 931.727 1309.39 Q925.13 1309.18 919.254 1303.3 Q913.362 1297.41 913.165 1290.83 Q912.952 1284.23 918.501 1278.68 Q920.695 1276.49 923.215 1275.15 Q925.736 1273.77 928.6 1273.23 Z" fill="#000000" fill-rule="nonzero" fill-opacity="1" /><path clip-path="url(#clip620)" d="M930.221 1265.85 L932.84 1263.23 Q939.158 1264.64 944.068 1267.13 Q948.995 1269.6 952.645 1273.25 Q956.312 1276.91 958.8 1281.86 Q961.304 1286.78 962.695 1293.09 L960.076 1295.71 Q958.505 1289.78 955.87 1285.02 Q953.234 1280.22 949.453 1276.44 Q945.672 1272.66 940.909 1270.06 Q936.162 1267.44 930.221 1265.85 Z" fill="#000000" fill-rule="nonzero" fill-opacity="1" /><path clip-path="url(#clip620)" d="M1505.84 1389.69 L1516.91 1400.76 L1513.9 1403.77 L1502.93 1392.8 Q1500.33 1390.2 1498.02 1389.92 Q1495.71 1389.64 1493.68 1391.67 Q1491.24 1394.11 1491.39 1397.07 Q1491.54 1400.04 1494.22 1402.72 L1504.58 1413.08 L1501.55 1416.11 L1483.22 1397.78 L1486.25 1394.75 L1489.1 1397.6 Q1488.52 1394.86 1489.16 1392.59 Q1489.82 1390.3 1491.73 1388.38 Q1494.89 1385.22 1498.48 1385.57 Q1502.04 1385.89 1505.84 1389.69 Z" fill="#000000" fill-rule="nonzero" fill-opacity="1" /><path clip-path="url(#clip620)" d="M1522.03 1377.2 Q1518.38 1380.85 1517.81 1383.09 Q1517.23 1385.34 1519.25 1387.35 Q1520.85 1388.95 1522.85 1388.86 Q1524.85 1388.73 1526.66 1386.91 Q1529.17 1384.4 1528.9 1381.13 Q1528.64 1377.82 1525.7 1374.88 L1525.03 1374.21 L1522.03 1377.2 M1526.79 1369.95 L1537.25 1380.41 L1534.24 1383.42 L1531.46 1380.64 Q1532.1 1383.34 1531.36 1385.68 Q1530.61 1388.01 1528.38 1390.23 Q1525.57 1393.05 1522.32 1393.14 Q1519.08 1393.21 1516.43 1390.56 Q1513.34 1387.46 1513.83 1383.83 Q1514.34 1380.18 1518.45 1376.07 L1522.67 1371.85 L1522.37 1371.56 Q1520.3 1369.48 1517.79 1369.72 Q1515.29 1369.93 1512.81 1372.41 Q1511.24 1373.98 1510.13 1375.84 Q1509.02 1377.71 1508.4 1379.84 L1505.61 1377.05 Q1506.63 1374.76 1507.87 1372.9 Q1509.1 1371.01 1510.57 1369.54 Q1514.55 1365.56 1518.58 1365.66 Q1522.6 1365.76 1526.79 1369.95 Z" fill="#000000" fill-rule="nonzero" fill-opacity="1" /><path clip-path="url(#clip620)" d="M1525.12 1355.87 L1528.14 1352.86 L1546.47 1371.19 L1543.46 1374.21 L1525.12 1355.87 M1517.99 1348.74 L1521 1345.73 L1524.81 1349.54 L1521.8 1352.55 L1517.99 1348.74 Z" fill="#000000" fill-rule="nonzero" fill-opacity="1" /><path clip-path="url(#clip620)" d="M1532.28 1348.72 L1535.47 1345.53 L1556.58 1355.19 L1546.93 1334.07 L1550.12 1330.88 L1561.58 1356.09 L1557.48 1360.18 L1532.28 1348.72 Z" fill="#000000" fill-rule="nonzero" fill-opacity="1" /><path clip-path="url(#clip620)" d="M1578.37 1319.46 L1579.84 1320.93 L1565.99 1334.78 Q1569.3 1337.69 1572.61 1337.66 Q1575.91 1337.59 1578.91 1334.6 Q1580.64 1332.86 1581.84 1330.81 Q1583.05 1328.75 1583.8 1326.3 L1586.65 1329.15 Q1585.72 1331.45 1584.38 1333.52 Q1583.03 1335.58 1581.28 1337.33 Q1576.9 1341.72 1571.77 1341.73 Q1566.67 1341.73 1562.31 1337.38 Q1557.81 1332.88 1557.6 1327.82 Q1557.39 1322.73 1561.51 1318.6 Q1565.21 1314.9 1569.74 1315.15 Q1574.28 1315.36 1578.37 1319.46 M1574.47 1321.58 Q1571.97 1319.14 1569.14 1319.03 Q1566.32 1318.9 1564.1 1321.12 Q1561.58 1323.65 1561.48 1326.59 Q1561.4 1329.52 1563.75 1332.34 L1574.47 1321.58 Z" fill="#000000" fill-rule="nonzero" fill-opacity="1" /><path clip-path="url(#clip620)" d="M1585.69 1281.1 Q1587.26 1287.06 1589.88 1291.81 Q1592.49 1296.56 1596.28 1300.34 Q1600.06 1304.12 1604.84 1306.77 Q1609.62 1309.39 1615.54 1310.96 L1612.92 1313.58 Q1606.62 1312.19 1601.68 1309.7 Q1596.75 1307.2 1593.08 1303.53 Q1589.43 1299.88 1586.95 1294.97 Q1584.46 1290.06 1583.07 1283.72 L1585.69 1281.1 Z" fill="#000000" fill-rule="nonzero" fill-opacity="1" /><path clip-path="url(#clip620)" d="M1592.66 1276.13 L1595.96 1272.82 L1618.7 1295.56 Q1623.12 1299.98 1623.43 1303.66 Q1623.76 1307.33 1620.04 1311.04 L1618.78 1312.3 L1616 1309.52 L1617.03 1308.49 Q1619.22 1306.3 1618.9 1304.17 Q1618.57 1302.04 1615.39 1298.86 L1592.66 1276.13 Z" fill="#000000" fill-rule="nonzero" fill-opacity="1" /><path clip-path="url(#clip620)" d="M1600.94 1265.85 L1603.56 1263.23 Q1609.88 1264.64 1614.79 1267.13 Q1619.72 1269.6 1623.37 1273.25 Q1627.03 1276.91 1629.52 1281.86 Q1632.02 1286.78 1633.42 1293.09 L1630.8 1295.71 Q1629.22 1289.78 1626.59 1285.02 Q1623.95 1280.22 1620.17 1276.44 Q1616.39 1272.66 1611.63 1270.06 Q1606.88 1267.44 1600.94 1265.85 Z" fill="#000000" fill-rule="nonzero" fill-opacity="1" /><path clip-path="url(#clip620)" d="M1939.98 1423.98 Q1937.56 1426.4 1938.05 1429.71 Q1938.53 1433 1941.82 1436.29 Q1945.11 1439.58 1948.4 1440.09 Q1951.69 1440.56 1954.12 1438.12 Q1956.53 1435.72 1956.04 1432.41 Q1955.55 1429.11 1952.28 1425.83 Q1949.02 1422.57 1945.71 1422.08 Q1942.39 1421.58 1939.98 1423.98 M1937.43 1421.43 Q1941.36 1417.5 1946.15 1417.81 Q1950.95 1418.12 1955.47 1422.64 Q1959.97 1427.14 1960.3 1431.95 Q1960.61 1436.75 1956.68 1440.68 Q1952.73 1444.62 1947.94 1444.31 Q1943.14 1443.97 1938.64 1439.47 Q1934.12 1434.95 1933.8 1430.17 Q1933.48 1425.37 1937.43 1421.43 Z" fill="#000000" fill-rule="nonzero" fill-opacity="1" /><path clip-path="url(#clip620)" d="M1973.78 1400.49 L1984.85 1411.56 L1981.84 1414.57 L1970.87 1403.6 Q1968.27 1401 1965.96 1400.72 Q1963.65 1400.44 1961.62 1402.47 Q1959.18 1404.91 1959.33 1407.88 Q1959.48 1410.84 1962.16 1413.52 L1972.52 1423.88 L1969.49 1426.91 L1951.16 1408.58 L1954.19 1405.55 L1957.04 1408.4 Q1956.47 1405.67 1957.1 1403.39 Q1957.76 1401.1 1959.67 1399.18 Q1962.83 1396.03 1966.42 1396.37 Q1969.99 1396.7 1973.78 1400.49 Z" fill="#000000" fill-rule="nonzero" fill-opacity="1" /><path clip-path="url(#clip620)" d="M1996.62 1379.95 L1998.09 1381.43 L1984.24 1395.27 Q1987.55 1398.19 1990.85 1398.15 Q1994.16 1398.09 1997.16 1395.09 Q1998.89 1393.36 2000.09 1391.31 Q2001.3 1389.25 2002.05 1386.79 L2004.9 1389.64 Q2003.97 1391.95 2002.62 1394.01 Q2001.28 1396.07 1999.53 1397.83 Q1995.14 1402.21 1990.02 1402.23 Q1984.91 1402.23 1980.56 1397.87 Q1976.06 1393.37 1975.85 1388.32 Q1975.63 1383.23 1979.76 1379.1 Q1983.46 1375.4 1987.99 1375.65 Q1992.52 1375.86 1996.62 1379.95 M1992.72 1382.08 Q1990.22 1379.64 1987.38 1379.53 Q1984.57 1379.4 1982.34 1381.62 Q1979.82 1384.14 1979.72 1387.09 Q1979.64 1390.02 1982 1392.83 L1992.72 1382.08 Z" fill="#000000" fill-rule="nonzero" fill-opacity="1" /><path clip-path="url(#clip620)" d="M1986.01 1359.46 L1989.02 1356.45 L2014.49 1381.92 L2011.48 1384.93 L1986.01 1359.46 Z" fill="#000000" fill-rule="nonzero" fill-opacity="1" /><path clip-path="url(#clip620)" d="M2002.46 1357.28 L2005.47 1354.27 L2023.8 1372.6 L2020.79 1375.61 L2002.46 1357.28 M1995.32 1350.15 L1998.34 1347.13 L2002.15 1350.95 L1999.14 1353.96 L1995.32 1350.15 Z" fill="#000000" fill-rule="nonzero" fill-opacity="1" /><path clip-path="url(#clip620)" d="M2034.28 1340 L2045.34 1351.06 L2042.33 1354.07 L2031.37 1343.11 Q2028.76 1340.5 2026.46 1340.23 Q2024.15 1339.95 2022.12 1341.98 Q2019.68 1344.42 2019.83 1347.38 Q2019.97 1350.34 2022.66 1353.03 L2033.02 1363.39 L2029.99 1366.42 L2011.66 1348.08 L2014.69 1345.06 L2017.53 1347.9 Q2016.96 1345.17 2017.6 1342.89 Q2018.26 1340.6 2020.17 1338.69 Q2023.33 1335.53 2026.91 1335.87 Q2030.48 1336.2 2034.28 1340 Z" fill="#000000" fill-rule="nonzero" fill-opacity="1" /><path clip-path="url(#clip620)" d="M2057.11 1319.46 L2058.59 1320.93 L2044.74 1334.78 Q2048.05 1337.69 2051.35 1337.66 Q2054.66 1337.59 2057.65 1334.6 Q2059.39 1332.86 2060.58 1330.81 Q2061.79 1328.75 2062.55 1326.3 L2065.4 1329.15 Q2064.46 1331.45 2063.12 1333.52 Q2061.78 1335.58 2060.03 1337.33 Q2055.64 1341.72 2050.52 1341.73 Q2045.41 1341.73 2041.06 1337.38 Q2036.55 1332.88 2036.34 1327.82 Q2036.13 1322.73 2040.25 1318.6 Q2043.95 1314.9 2048.49 1315.15 Q2053.02 1315.36 2057.11 1319.46 M2053.22 1321.58 Q2050.71 1319.14 2047.88 1319.03 Q2045.07 1318.9 2042.84 1321.12 Q2040.32 1323.65 2040.22 1326.59 Q2040.14 1329.52 2042.5 1332.34 L2053.22 1321.58 Z" fill="#000000" fill-rule="nonzero" fill-opacity="1" /><path clip-path="url(#clip620)" d="M2064.43 1281.1 Q2066 1287.06 2068.62 1291.81 Q2071.24 1296.56 2075.02 1300.34 Q2078.8 1304.12 2083.58 1306.77 Q2088.36 1309.39 2094.28 1310.96 L2091.67 1313.58 Q2085.36 1312.19 2080.42 1309.7 Q2075.49 1307.2 2071.83 1303.53 Q2068.18 1299.88 2065.69 1294.97 Q2063.2 1290.06 2061.81 1283.72 L2064.43 1281.1 Z" fill="#000000" fill-rule="nonzero" fill-opacity="1" /><path clip-path="url(#clip620)" d="M2071.4 1276.13 L2074.71 1272.82 L2097.44 1295.56 Q2101.86 1299.98 2102.17 1303.66 Q2102.5 1307.33 2098.79 1311.04 L2097.53 1312.3 L2094.74 1309.52 L2095.77 1308.49 Q2097.97 1306.3 2097.64 1304.17 Q2097.31 1302.04 2094.14 1298.86 L2071.4 1276.13 Z" fill="#000000" fill-rule="nonzero" fill-opacity="1" /><path clip-path="url(#clip620)" d="M2079.68 1265.85 L2082.3 1263.23 Q2088.62 1264.64 2093.53 1267.13 Q2098.46 1269.6 2102.11 1273.25 Q2105.78 1276.91 2108.26 1281.86 Q2110.77 1286.78 2112.16 1293.09 L2109.54 1295.71 Q2107.97 1289.78 2105.33 1285.02 Q2102.7 1280.22 2098.92 1276.44 Q2095.14 1272.66 2090.37 1270.06 Q2085.63 1267.44 2079.68 1265.85 Z" fill="#000000" fill-rule="nonzero" fill-opacity="1" /><polyline clip-path="url(#clip622)" style="stroke:#000000; stroke-linecap:round; stroke-linejoin:round; stroke-width:2; stroke-opacity:0.1; fill:none" points="219.866,1234.03 2352.76,1234.03 "/>
<polyline clip-path="url(#clip622)" style="stroke:#000000; stroke-linecap:round; stroke-linejoin:round; stroke-width:2; stroke-opacity:0.1; fill:none" points="219.866,1062.86 2352.76,1062.86 "/>
<polyline clip-path="url(#clip622)" style="stroke:#000000; stroke-linecap:round; stroke-linejoin:round; stroke-width:2; stroke-opacity:0.1; fill:none" points="219.866,891.689 2352.76,891.689 "/>
<polyline clip-path="url(#clip622)" style="stroke:#000000; stroke-linecap:round; stroke-linejoin:round; stroke-width:2; stroke-opacity:0.1; fill:none" points="219.866,720.521 2352.76,720.521 "/>
<polyline clip-path="url(#clip622)" style="stroke:#000000; stroke-linecap:round; stroke-linejoin:round; stroke-width:2; stroke-opacity:0.1; fill:none" points="219.866,549.352 2352.76,549.352 "/>
<polyline clip-path="url(#clip622)" style="stroke:#000000; stroke-linecap:round; stroke-linejoin:round; stroke-width:2; stroke-opacity:0.1; fill:none" points="219.866,378.184 2352.76,378.184 "/>
<polyline clip-path="url(#clip622)" style="stroke:#000000; stroke-linecap:round; stroke-linejoin:round; stroke-width:2; stroke-opacity:0.1; fill:none" points="219.866,207.015 2352.76,207.015 "/>
<polyline clip-path="url(#clip620)" style="stroke:#000000; stroke-linecap:round; stroke-linejoin:round; stroke-width:4; stroke-opacity:1; fill:none" points="219.866,1234.03 219.866,123.472 "/>
<polyline clip-path="url(#clip620)" style="stroke:#000000; stroke-linecap:round; stroke-linejoin:round; stroke-width:4; stroke-opacity:1; fill:none" points="219.866,1234.03 238.764,1234.03 "/>
<polyline clip-path="url(#clip620)" style="stroke:#000000; stroke-linecap:round; stroke-linejoin:round; stroke-width:4; stroke-opacity:1; fill:none" points="219.866,1062.86 238.764,1062.86 "/>
<polyline clip-path="url(#clip620)" style="stroke:#000000; stroke-linecap:round; stroke-linejoin:round; stroke-width:4; stroke-opacity:1; fill:none" points="219.866,891.689 238.764,891.689 "/>
<polyline clip-path="url(#clip620)" style="stroke:#000000; stroke-linecap:round; stroke-linejoin:round; stroke-width:4; stroke-opacity:1; fill:none" points="219.866,720.521 238.764,720.521 "/>
<polyline clip-path="url(#clip620)" style="stroke:#000000; stroke-linecap:round; stroke-linejoin:round; stroke-width:4; stroke-opacity:1; fill:none" points="219.866,549.352 238.764,549.352 "/>
<polyline clip-path="url(#clip620)" style="stroke:#000000; stroke-linecap:round; stroke-linejoin:round; stroke-width:4; stroke-opacity:1; fill:none" points="219.866,378.184 238.764,378.184 "/>
<polyline clip-path="url(#clip620)" style="stroke:#000000; stroke-linecap:round; stroke-linejoin:round; stroke-width:4; stroke-opacity:1; fill:none" points="219.866,207.015 238.764,207.015 "/>
<path clip-path="url(#clip620)" d="M126.691 1219.82 Q123.08 1219.82 121.251 1223.39 Q119.445 1226.93 119.445 1234.06 Q119.445 1241.17 121.251 1244.73 Q123.08 1248.27 126.691 1248.27 Q130.325 1248.27 132.13 1244.73 Q133.959 1241.17 133.959 1234.06 Q133.959 1226.93 132.13 1223.39 Q130.325 1219.82 126.691 1219.82 M126.691 1216.12 Q132.501 1216.12 135.556 1220.73 Q138.635 1225.31 138.635 1234.06 Q138.635 1242.79 135.556 1247.39 Q132.501 1251.98 126.691 1251.98 Q120.88 1251.98 117.802 1247.39 Q114.746 1242.79 114.746 1234.06 Q114.746 1225.31 117.802 1220.73 Q120.88 1216.12 126.691 1216.12 Z" fill="#000000" fill-rule="nonzero" fill-opacity="1" /><path clip-path="url(#clip620)" d="M146.853 1245.43 L151.737 1245.43 L151.737 1251.31 L146.853 1251.31 L146.853 1245.43 Z" fill="#000000" fill-rule="nonzero" fill-opacity="1" /><path clip-path="url(#clip620)" d="M171.922 1219.82 Q168.311 1219.82 166.482 1223.39 Q164.677 1226.93 164.677 1234.06 Q164.677 1241.17 166.482 1244.73 Q168.311 1248.27 171.922 1248.27 Q175.556 1248.27 177.362 1244.73 Q179.19 1241.17 179.19 1234.06 Q179.19 1226.93 177.362 1223.39 Q175.556 1219.82 171.922 1219.82 M171.922 1216.12 Q177.732 1216.12 180.788 1220.73 Q183.866 1225.31 183.866 1234.06 Q183.866 1242.79 180.788 1247.39 Q177.732 1251.98 171.922 1251.98 Q166.112 1251.98 163.033 1247.39 Q159.978 1242.79 159.978 1234.06 Q159.978 1225.31 163.033 1220.73 Q166.112 1216.12 171.922 1216.12 Z" fill="#000000" fill-rule="nonzero" fill-opacity="1" /><path clip-path="url(#clip620)" d="M128.288 1048.66 Q124.677 1048.66 122.848 1052.22 Q121.043 1055.76 121.043 1062.89 Q121.043 1070 122.848 1073.56 Q124.677 1077.1 128.288 1077.1 Q131.922 1077.1 133.728 1073.56 Q135.556 1070 135.556 1062.89 Q135.556 1055.76 133.728 1052.22 Q131.922 1048.66 128.288 1048.66 M128.288 1044.95 Q134.098 1044.95 137.154 1049.56 Q140.232 1054.14 140.232 1062.89 Q140.232 1071.62 137.154 1076.23 Q134.098 1080.81 128.288 1080.81 Q122.478 1080.81 119.399 1076.23 Q116.343 1071.62 116.343 1062.89 Q116.343 1054.14 119.399 1049.56 Q122.478 1044.95 128.288 1044.95 Z" fill="#000000" fill-rule="nonzero" fill-opacity="1" /><path clip-path="url(#clip620)" d="M148.45 1074.26 L153.334 1074.26 L153.334 1080.14 L148.45 1080.14 L148.45 1074.26 Z" fill="#000000" fill-rule="nonzero" fill-opacity="1" /><path clip-path="url(#clip620)" d="M167.547 1076.2 L183.866 1076.2 L183.866 1080.14 L161.922 1080.14 L161.922 1076.2 Q164.584 1073.45 169.167 1068.82 Q173.774 1064.17 174.954 1062.82 Q177.2 1060.3 178.079 1058.56 Q178.982 1056.8 178.982 1055.11 Q178.982 1052.36 177.038 1050.62 Q175.116 1048.89 172.014 1048.89 Q169.815 1048.89 167.362 1049.65 Q164.931 1050.42 162.153 1051.97 L162.153 1047.24 Q164.977 1046.11 167.431 1045.53 Q169.885 1044.95 171.922 1044.95 Q177.292 1044.95 180.487 1047.64 Q183.681 1050.32 183.681 1054.81 Q183.681 1056.94 182.871 1058.86 Q182.084 1060.76 179.977 1063.36 Q179.399 1064.03 176.297 1067.24 Q173.195 1070.44 167.547 1076.2 Z" fill="#000000" fill-rule="nonzero" fill-opacity="1" /><path clip-path="url(#clip620)" d="M126.205 877.488 Q122.593 877.488 120.765 881.052 Q118.959 884.594 118.959 891.724 Q118.959 898.83 120.765 902.395 Q122.593 905.937 126.205 905.937 Q129.839 905.937 131.644 902.395 Q133.473 898.83 133.473 891.724 Q133.473 884.594 131.644 881.052 Q129.839 877.488 126.205 877.488 M126.205 873.784 Q132.015 873.784 135.07 878.39 Q138.149 882.974 138.149 891.724 Q138.149 900.45 135.07 905.057 Q132.015 909.64 126.205 909.64 Q120.394 909.64 117.316 905.057 Q114.26 900.45 114.26 891.724 Q114.26 882.974 117.316 878.39 Q120.394 873.784 126.205 873.784 Z" fill="#000000" fill-rule="nonzero" fill-opacity="1" /><path clip-path="url(#clip620)" d="M146.366 903.089 L151.251 903.089 L151.251 908.969 L146.366 908.969 L146.366 903.089 Z" fill="#000000" fill-rule="nonzero" fill-opacity="1" /><path clip-path="url(#clip620)" d="M174.283 878.483 L162.477 896.932 L174.283 896.932 L174.283 878.483 M173.056 874.409 L178.936 874.409 L178.936 896.932 L183.866 896.932 L183.866 900.821 L178.936 900.821 L178.936 908.969 L174.283 908.969 L174.283 900.821 L158.681 900.821 L158.681 896.307 L173.056 874.409 Z" fill="#000000" fill-rule="nonzero" fill-opacity="1" /><path clip-path="url(#clip620)" d="M126.529 706.319 Q122.918 706.319 121.089 709.884 Q119.283 713.426 119.283 720.555 Q119.283 727.662 121.089 731.227 Q122.918 734.768 126.529 734.768 Q130.163 734.768 131.968 731.227 Q133.797 727.662 133.797 720.555 Q133.797 713.426 131.968 709.884 Q130.163 706.319 126.529 706.319 M126.529 702.616 Q132.339 702.616 135.394 707.222 Q138.473 711.805 138.473 720.555 Q138.473 729.282 135.394 733.889 Q132.339 738.472 126.529 738.472 Q120.718 738.472 117.64 733.889 Q114.584 729.282 114.584 720.555 Q114.584 711.805 117.64 707.222 Q120.718 702.616 126.529 702.616 Z" fill="#000000" fill-rule="nonzero" fill-opacity="1" /><path clip-path="url(#clip620)" d="M146.691 731.921 L151.575 731.921 L151.575 737.801 L146.691 737.801 L146.691 731.921 Z" fill="#000000" fill-rule="nonzero" fill-opacity="1" /><path clip-path="url(#clip620)" d="M172.339 718.657 Q169.19 718.657 167.339 720.81 Q165.51 722.963 165.51 726.713 Q165.51 730.439 167.339 732.615 Q169.19 734.768 172.339 734.768 Q175.487 734.768 177.315 732.615 Q179.167 730.439 179.167 726.713 Q179.167 722.963 177.315 720.81 Q175.487 718.657 172.339 718.657 M181.621 704.004 L181.621 708.264 Q179.862 707.43 178.056 706.991 Q176.274 706.551 174.514 706.551 Q169.885 706.551 167.431 709.676 Q165.001 712.801 164.653 719.12 Q166.019 717.106 168.079 716.041 Q170.139 714.953 172.616 714.953 Q177.825 714.953 180.834 718.125 Q183.866 721.273 183.866 726.713 Q183.866 732.037 180.718 735.254 Q177.57 738.472 172.339 738.472 Q166.343 738.472 163.172 733.889 Q160.001 729.282 160.001 720.555 Q160.001 712.361 163.89 707.5 Q167.778 702.616 174.329 702.616 Q176.089 702.616 177.871 702.963 Q179.676 703.31 181.621 704.004 Z" fill="#000000" fill-rule="nonzero" fill-opacity="1" /><path clip-path="url(#clip620)" d="M126.783 535.151 Q123.172 535.151 121.343 538.716 Q119.538 542.257 119.538 549.387 Q119.538 556.493 121.343 560.058 Q123.172 563.6 126.783 563.6 Q130.417 563.6 132.223 560.058 Q134.052 556.493 134.052 549.387 Q134.052 542.257 132.223 538.716 Q130.417 535.151 126.783 535.151 M126.783 531.447 Q132.593 531.447 135.649 536.054 Q138.728 540.637 138.728 549.387 Q138.728 558.114 135.649 562.72 Q132.593 567.303 126.783 567.303 Q120.973 567.303 117.894 562.72 Q114.839 558.114 114.839 549.387 Q114.839 540.637 117.894 536.054 Q120.973 531.447 126.783 531.447 Z" fill="#000000" fill-rule="nonzero" fill-opacity="1" /><path clip-path="url(#clip620)" d="M146.945 560.753 L151.829 560.753 L151.829 566.632 L146.945 566.632 L146.945 560.753 Z" fill="#000000" fill-rule="nonzero" fill-opacity="1" /><path clip-path="url(#clip620)" d="M172.014 550.22 Q168.681 550.22 166.76 552.003 Q164.862 553.785 164.862 556.91 Q164.862 560.035 166.76 561.817 Q168.681 563.6 172.014 563.6 Q175.348 563.6 177.269 561.817 Q179.19 560.012 179.19 556.91 Q179.19 553.785 177.269 552.003 Q175.371 550.22 172.014 550.22 M167.339 548.229 Q164.329 547.489 162.64 545.429 Q160.973 543.368 160.973 540.405 Q160.973 536.262 163.913 533.855 Q166.876 531.447 172.014 531.447 Q177.176 531.447 180.116 533.855 Q183.056 536.262 183.056 540.405 Q183.056 543.368 181.366 545.429 Q179.7 547.489 176.714 548.229 Q180.093 549.017 181.968 551.308 Q183.866 553.6 183.866 556.91 Q183.866 561.933 180.788 564.618 Q177.732 567.303 172.014 567.303 Q166.297 567.303 163.218 564.618 Q160.163 561.933 160.163 556.91 Q160.163 553.6 162.061 551.308 Q163.959 549.017 167.339 548.229 M165.626 540.845 Q165.626 543.53 167.292 545.035 Q168.982 546.54 172.014 546.54 Q175.024 546.54 176.714 545.035 Q178.426 543.53 178.426 540.845 Q178.426 538.16 176.714 536.655 Q175.024 535.151 172.014 535.151 Q168.982 535.151 167.292 536.655 Q165.626 538.16 165.626 540.845 Z" fill="#000000" fill-rule="nonzero" fill-opacity="1" /><path clip-path="url(#clip620)" d="M117.501 391.529 L125.14 391.529 L125.14 365.163 L116.83 366.83 L116.83 362.57 L125.093 360.904 L129.769 360.904 L129.769 391.529 L137.408 391.529 L137.408 395.464 L117.501 395.464 L117.501 391.529 Z" fill="#000000" fill-rule="nonzero" fill-opacity="1" /><path clip-path="url(#clip620)" d="M146.853 389.584 L151.737 389.584 L151.737 395.464 L146.853 395.464 L146.853 389.584 Z" fill="#000000" fill-rule="nonzero" fill-opacity="1" /><path clip-path="url(#clip620)" d="M171.922 363.982 Q168.311 363.982 166.482 367.547 Q164.677 371.089 164.677 378.218 Q164.677 385.325 166.482 388.89 Q168.311 392.431 171.922 392.431 Q175.556 392.431 177.362 388.89 Q179.19 385.325 179.19 378.218 Q179.19 371.089 177.362 367.547 Q175.556 363.982 171.922 363.982 M171.922 360.279 Q177.732 360.279 180.788 364.885 Q183.866 369.469 183.866 378.218 Q183.866 386.945 180.788 391.552 Q177.732 396.135 171.922 396.135 Q166.112 396.135 163.033 391.552 Q159.978 386.945 159.978 378.218 Q159.978 369.469 163.033 364.885 Q166.112 360.279 171.922 360.279 Z" fill="#000000" fill-rule="nonzero" fill-opacity="1" /><path clip-path="url(#clip620)" d="M119.098 220.36 L126.737 220.36 L126.737 193.995 L118.427 195.661 L118.427 191.402 L126.691 189.735 L131.367 189.735 L131.367 220.36 L139.005 220.36 L139.005 224.295 L119.098 224.295 L119.098 220.36 Z" fill="#000000" fill-rule="nonzero" fill-opacity="1" /><path clip-path="url(#clip620)" d="M148.45 218.416 L153.334 218.416 L153.334 224.295 L148.45 224.295 L148.45 218.416 Z" fill="#000000" fill-rule="nonzero" fill-opacity="1" /><path clip-path="url(#clip620)" d="M167.547 220.36 L183.866 220.36 L183.866 224.295 L161.922 224.295 L161.922 220.36 Q164.584 217.606 169.167 212.976 Q173.774 208.323 174.954 206.981 Q177.2 204.457 178.079 202.721 Q178.982 200.962 178.982 199.272 Q178.982 196.518 177.038 194.782 Q175.116 193.046 172.014 193.046 Q169.815 193.046 167.362 193.809 Q164.931 194.573 162.153 196.124 L162.153 191.402 Q164.977 190.268 167.431 189.689 Q169.885 189.11 171.922 189.11 Q177.292 189.11 180.487 191.796 Q183.681 194.481 183.681 198.971 Q183.681 201.101 182.871 203.022 Q182.084 204.92 179.977 207.513 Q179.399 208.184 176.297 211.402 Q173.195 214.596 167.547 220.36 Z" fill="#000000" fill-rule="nonzero" fill-opacity="1" /><path clip-path="url(#clip620)" d="M18.0438 787.746 L24.314 787.746 Q22.5634 791.406 21.704 794.653 Q20.8447 797.899 20.8447 800.923 Q20.8447 806.174 22.8817 809.039 Q24.9187 811.872 28.6745 811.872 Q31.8255 811.872 33.4488 809.994 Q35.0402 808.084 36.0269 802.801 L36.8226 798.918 Q38.1912 791.724 41.6605 788.319 Q45.098 784.881 50.8908 784.881 Q57.7976 784.881 61.3624 789.528 Q64.9272 794.143 64.9272 803.087 Q64.9272 806.461 64.1633 810.28 Q63.3994 814.068 61.9035 818.142 L55.2831 818.142 Q57.4793 814.227 58.5933 810.471 Q59.7073 806.716 59.7073 803.087 Q59.7073 797.581 57.543 794.589 Q55.3786 791.597 51.3682 791.597 Q47.8671 791.597 45.8937 793.761 Q43.9204 795.894 42.9337 800.795 L42.1698 804.71 Q40.7375 811.904 37.682 815.118 Q34.6264 818.333 29.1837 818.333 Q22.8817 818.333 19.2532 813.909 Q15.6248 809.453 15.6248 801.655 Q15.6248 798.313 16.2295 794.844 Q16.8343 791.374 18.0438 787.746 Z" fill="#000000" fill-rule="nonzero" fill-opacity="1" /><path clip-path="url(#clip620)" d="M58.657 769.444 L77.5631 769.444 L77.5631 775.333 L28.3562 775.333 L28.3562 769.444 L33.7671 769.444 Q30.5842 767.598 29.0564 764.797 Q27.4968 761.965 27.4968 758.05 Q27.4968 751.557 32.6531 747.514 Q37.8093 743.44 46.212 743.44 Q54.6147 743.44 59.771 747.514 Q64.9272 751.557 64.9272 758.05 Q64.9272 761.965 63.3994 764.797 Q61.8398 767.598 58.657 769.444 M46.212 749.52 Q39.7508 749.52 36.0905 752.193 Q32.3984 754.835 32.3984 759.482 Q32.3984 764.129 36.0905 766.803 Q39.7508 769.444 46.212 769.444 Q52.6732 769.444 56.3653 766.803 Q60.0256 764.129 60.0256 759.482 Q60.0256 754.835 56.3653 752.193 Q52.6732 749.52 46.212 749.52 Z" fill="#000000" fill-rule="nonzero" fill-opacity="1" /><path clip-path="url(#clip620)" d="M44.7161 703.241 L47.5806 703.241 L47.5806 730.168 Q53.6281 729.786 56.8109 726.539 Q59.9619 723.261 59.9619 717.437 Q59.9619 714.063 59.1344 710.912 Q58.3069 707.729 56.6518 704.61 L62.1899 704.61 Q63.5267 707.761 64.227 711.071 Q64.9272 714.381 64.9272 717.787 Q64.9272 726.317 59.9619 731.314 Q54.9967 736.279 46.5303 736.279 Q37.7774 736.279 32.6531 731.568 Q27.4968 726.826 27.4968 718.805 Q27.4968 711.612 32.1438 707.442 Q36.7589 703.241 44.7161 703.241 M42.9973 709.097 Q38.1912 709.161 35.3266 711.803 Q32.4621 714.413 32.4621 718.741 Q32.4621 723.643 35.2312 726.603 Q38.0002 729.531 43.0292 729.977 L42.9973 709.097 Z" fill="#000000" fill-rule="nonzero" fill-opacity="1" /><path clip-path="url(#clip620)" d="M44.7161 663.137 L47.5806 663.137 L47.5806 690.064 Q53.6281 689.682 56.8109 686.436 Q59.9619 683.157 59.9619 677.333 Q59.9619 673.959 59.1344 670.808 Q58.3069 667.625 56.6518 664.506 L62.1899 664.506 Q63.5267 667.657 64.227 670.967 Q64.9272 674.277 64.9272 677.683 Q64.9272 686.213 59.9619 691.21 Q54.9967 696.175 46.5303 696.175 Q37.7774 696.175 32.6531 691.464 Q27.4968 686.722 27.4968 678.701 Q27.4968 671.508 32.1438 667.338 Q36.7589 663.137 44.7161 663.137 M42.9973 668.994 Q38.1912 669.057 35.3266 671.699 Q32.4621 674.309 32.4621 678.638 Q32.4621 683.539 35.2312 686.499 Q38.0002 689.427 43.0292 689.873 L42.9973 668.994 Z" fill="#000000" fill-rule="nonzero" fill-opacity="1" /><path clip-path="url(#clip620)" d="M33.7671 630.067 L14.479 630.067 L14.479 624.211 L64.0042 624.211 L64.0042 630.067 L58.657 630.067 Q61.8398 631.913 63.3994 634.746 Q64.9272 637.547 64.9272 641.494 Q64.9272 647.955 59.771 652.029 Q54.6147 656.071 46.212 656.071 Q37.8093 656.071 32.6531 652.029 Q27.4968 647.955 27.4968 641.494 Q27.4968 637.547 29.0564 634.746 Q30.5842 631.913 33.7671 630.067 M46.212 650.024 Q52.6732 650.024 56.3653 647.382 Q60.0256 644.708 60.0256 640.061 Q60.0256 635.414 56.3653 632.741 Q52.6732 630.067 46.212 630.067 Q39.7508 630.067 36.0905 632.741 Q32.3984 635.414 32.3984 640.061 Q32.3984 644.708 36.0905 647.382 Q39.7508 650.024 46.212 650.024 Z" fill="#000000" fill-rule="nonzero" fill-opacity="1" /><path clip-path="url(#clip620)" d="M49.9359 612.752 L28.3562 612.752 L28.3562 606.896 L49.7131 606.896 Q54.7739 606.896 57.3202 604.923 Q59.8346 602.949 59.8346 599.003 Q59.8346 594.26 56.8109 591.523 Q53.7872 588.754 48.5673 588.754 L28.3562 588.754 L28.3562 582.897 L64.0042 582.897 L64.0042 588.754 L58.5296 588.754 Q61.7762 590.886 63.3676 593.719 Q64.9272 596.52 64.9272 600.244 Q64.9272 606.387 61.1078 609.57 Q57.2883 612.752 49.9359 612.752 M27.4968 598.016 L27.4968 598.016 Z" fill="#000000" fill-rule="nonzero" fill-opacity="1" /><path clip-path="url(#clip620)" d="M58.657 565.169 L77.5631 565.169 L77.5631 571.057 L28.3562 571.057 L28.3562 565.169 L33.7671 565.169 Q30.5842 563.323 29.0564 560.522 Q27.4968 557.689 27.4968 553.774 Q27.4968 547.281 32.6531 543.239 Q37.8093 539.165 46.212 539.165 Q54.6147 539.165 59.771 543.239 Q64.9272 547.281 64.9272 553.774 Q64.9272 557.689 63.3994 560.522 Q61.8398 563.323 58.657 565.169 M46.212 545.244 Q39.7508 545.244 36.0905 547.918 Q32.3984 550.56 32.3984 555.206 Q32.3984 559.853 36.0905 562.527 Q39.7508 565.169 46.212 565.169 Q52.6732 565.169 56.3653 562.527 Q60.0256 559.853 60.0256 555.206 Q60.0256 550.56 56.3653 547.918 Q52.6732 545.244 46.212 545.244 Z" fill="#000000" fill-rule="nonzero" fill-opacity="1" /><path clip-path="url(#clip620)" d="M420.491 14.0809 L420.491 22.0612 Q415.833 19.8332 411.701 18.7395 Q407.569 17.6457 403.72 17.6457 Q397.036 17.6457 393.391 20.2383 Q389.785 22.8309 389.785 27.611 Q389.785 31.6214 392.175 33.6873 Q394.606 35.7128 401.33 36.9686 L406.272 37.9813 Q415.427 39.7232 419.762 44.1387 Q424.137 48.5136 424.137 55.8863 Q424.137 64.6767 418.223 69.2137 Q412.349 73.7508 400.966 73.7508 Q396.672 73.7508 391.811 72.7785 Q386.99 71.8063 381.805 69.9024 L381.805 61.4765 Q386.788 64.2716 391.568 65.6895 Q396.348 67.1073 400.966 67.1073 Q407.974 67.1073 411.782 64.3527 Q415.589 61.598 415.589 56.4939 Q415.589 52.0379 412.835 49.5264 Q410.121 47.0148 403.882 45.759 L398.9 44.7868 Q389.745 42.9639 385.653 39.075 Q381.562 35.1862 381.562 28.2591 Q381.562 20.2383 387.193 15.6203 Q392.864 11.0023 402.789 11.0023 Q407.042 11.0023 411.458 11.7719 Q415.873 12.5416 420.491 14.0809 Z" fill="#000000" fill-rule="nonzero" fill-opacity="1" /><path clip-path="url(#clip620)" d="M443.784 65.7705 L443.784 89.8329 L436.29 89.8329 L436.29 27.2059 L443.784 27.2059 L443.784 34.0924 Q446.133 30.0415 449.698 28.0971 Q453.303 26.1121 458.286 26.1121 Q466.55 26.1121 471.695 32.6746 Q476.88 39.2371 476.88 49.9314 Q476.88 60.6258 471.695 67.1883 Q466.55 73.7508 458.286 73.7508 Q453.303 73.7508 449.698 71.8063 Q446.133 69.8214 443.784 65.7705 M469.142 49.9314 Q469.142 41.7081 465.74 37.0496 Q462.377 32.3505 456.463 32.3505 Q450.549 32.3505 447.146 37.0496 Q443.784 41.7081 443.784 49.9314 Q443.784 58.1548 447.146 62.8538 Q450.549 67.5124 456.463 67.5124 Q462.377 67.5124 465.74 62.8538 Q469.142 58.1548 469.142 49.9314 Z" fill="#000000" fill-rule="nonzero" fill-opacity="1" /><path clip-path="url(#clip620)" d="M528.043 48.0275 L528.043 51.6733 L493.772 51.6733 Q494.258 59.3701 498.39 63.421 Q502.562 67.4314 509.976 67.4314 Q514.27 67.4314 518.28 66.3781 Q522.331 65.3249 526.301 63.2184 L526.301 70.267 Q522.29 71.9684 518.077 72.8596 Q513.864 73.7508 509.53 73.7508 Q498.674 73.7508 492.314 67.4314 Q485.994 61.1119 485.994 50.3365 Q485.994 39.1965 491.99 32.6746 Q498.025 26.1121 508.234 26.1121 Q517.389 26.1121 522.695 32.0264 Q528.043 37.9003 528.043 48.0275 M520.589 45.84 Q520.508 39.7232 517.146 36.0774 Q513.824 32.4315 508.315 32.4315 Q502.076 32.4315 498.309 35.9558 Q494.582 39.4801 494.015 45.8805 L520.589 45.84 Z" fill="#000000" fill-rule="nonzero" fill-opacity="1" /><path clip-path="url(#clip620)" d="M579.084 48.0275 L579.084 51.6733 L544.813 51.6733 Q545.299 59.3701 549.431 63.421 Q553.604 67.4314 561.017 67.4314 Q565.311 67.4314 569.321 66.3781 Q573.372 65.3249 577.342 63.2184 L577.342 70.267 Q573.332 71.9684 569.119 72.8596 Q564.906 73.7508 560.571 73.7508 Q549.715 73.7508 543.355 67.4314 Q537.036 61.1119 537.036 50.3365 Q537.036 39.1965 543.031 32.6746 Q549.067 26.1121 559.275 26.1121 Q568.43 26.1121 573.737 32.0264 Q579.084 37.9003 579.084 48.0275 M571.63 45.84 Q571.549 39.7232 568.187 36.0774 Q564.865 32.4315 559.356 32.4315 Q553.118 32.4315 549.35 35.9558 Q545.624 39.4801 545.056 45.8805 L571.63 45.84 Z" fill="#000000" fill-rule="nonzero" fill-opacity="1" /><path clip-path="url(#clip620)" d="M621.173 34.0924 L621.173 9.54393 L628.627 9.54393 L628.627 72.576 L621.173 72.576 L621.173 65.7705 Q618.823 69.8214 615.218 71.8063 Q611.653 73.7508 606.63 73.7508 Q598.407 73.7508 593.222 67.1883 Q588.077 60.6258 588.077 49.9314 Q588.077 39.2371 593.222 32.6746 Q598.407 26.1121 606.63 26.1121 Q611.653 26.1121 615.218 28.0971 Q618.823 30.0415 621.173 34.0924 M595.774 49.9314 Q595.774 58.1548 599.136 62.8538 Q602.539 67.5124 608.453 67.5124 Q614.367 67.5124 617.77 62.8538 Q621.173 58.1548 621.173 49.9314 Q621.173 41.7081 617.77 37.0496 Q614.367 32.3505 608.453 32.3505 Q602.539 32.3505 599.136 37.0496 Q595.774 41.7081 595.774 49.9314 Z" fill="#000000" fill-rule="nonzero" fill-opacity="1" /><path clip-path="url(#clip620)" d="M643.21 54.671 L643.21 27.2059 L650.663 27.2059 L650.663 54.3874 Q650.663 60.8284 653.175 64.0691 Q655.687 67.2693 660.71 67.2693 Q666.746 67.2693 670.229 63.421 Q673.754 59.5726 673.754 52.9291 L673.754 27.2059 L681.207 27.2059 L681.207 72.576 L673.754 72.576 L673.754 65.6084 Q671.039 69.7404 667.434 71.7658 Q663.869 73.7508 659.13 73.7508 Q651.312 73.7508 647.261 68.8897 Q643.21 64.0286 643.21 54.671 M661.965 26.1121 L661.965 26.1121 Z" fill="#000000" fill-rule="nonzero" fill-opacity="1" /><path clip-path="url(#clip620)" d="M703.771 65.7705 L703.771 89.8329 L696.277 89.8329 L696.277 27.2059 L703.771 27.2059 L703.771 34.0924 Q706.12 30.0415 709.685 28.0971 Q713.29 26.1121 718.273 26.1121 Q726.537 26.1121 731.682 32.6746 Q736.867 39.2371 736.867 49.9314 Q736.867 60.6258 731.682 67.1883 Q726.537 73.7508 718.273 73.7508 Q713.29 73.7508 709.685 71.8063 Q706.12 69.8214 703.771 65.7705 M729.129 49.9314 Q729.129 41.7081 725.727 37.0496 Q722.364 32.3505 716.45 32.3505 Q710.536 32.3505 707.133 37.0496 Q703.771 41.7081 703.771 49.9314 Q703.771 58.1548 707.133 62.8538 Q710.536 67.5124 716.45 67.5124 Q722.364 67.5124 725.727 62.8538 Q729.129 58.1548 729.129 49.9314 Z" fill="#000000" fill-rule="nonzero" fill-opacity="1" /><path clip-path="url(#clip620)" d="M798.562 9.54393 L798.562 15.7418 L791.432 15.7418 Q787.422 15.7418 785.842 17.3622 Q784.303 18.9825 784.303 23.1955 L784.303 27.2059 L796.577 27.2059 L796.577 32.9987 L784.303 32.9987 L784.303 72.576 L776.809 72.576 L776.809 32.9987 L769.679 32.9987 L769.679 27.2059 L776.809 27.2059 L776.809 24.0462 Q776.809 16.471 780.333 13.0277 Q783.857 9.54393 791.513 9.54393 L798.562 9.54393 Z" fill="#000000" fill-rule="nonzero" fill-opacity="1" /><path clip-path="url(#clip620)" d="M804.8 9.54393 L812.254 9.54393 L812.254 72.576 L804.8 72.576 L804.8 9.54393 Z" fill="#000000" fill-rule="nonzero" fill-opacity="1" /><path clip-path="url(#clip620)" d="M845.431 32.4315 Q839.436 32.4315 835.952 37.1306 Q832.468 41.7891 832.468 49.9314 Q832.468 58.0738 835.911 62.7728 Q839.395 67.4314 845.431 67.4314 Q851.386 67.4314 854.87 62.7323 Q858.353 58.0333 858.353 49.9314 Q858.353 41.8701 854.87 37.1711 Q851.386 32.4315 845.431 32.4315 M845.431 26.1121 Q855.153 26.1121 860.703 32.4315 Q866.253 38.7509 866.253 49.9314 Q866.253 61.0714 860.703 67.4314 Q855.153 73.7508 845.431 73.7508 Q835.668 73.7508 830.119 67.4314 Q824.609 61.0714 824.609 49.9314 Q824.609 38.7509 830.119 32.4315 Q835.668 26.1121 845.431 26.1121 Z" fill="#000000" fill-rule="nonzero" fill-opacity="1" /><path clip-path="url(#clip620)" d="M897.485 76.7889 Q894.325 84.8907 891.328 87.3618 Q888.33 89.8329 883.307 89.8329 L877.352 89.8329 L877.352 83.5945 L881.727 83.5945 Q884.806 83.5945 886.507 82.1361 Q888.208 80.6778 890.274 75.2496 L891.611 71.8468 L873.261 27.2059 L881.16 27.2059 L895.338 62.6918 L909.516 27.2059 L917.415 27.2059 L897.485 76.7889 Z" fill="#000000" fill-rule="nonzero" fill-opacity="1" /><path clip-path="url(#clip620)" d="M957.56 34.0924 L957.56 9.54393 L965.014 9.54393 L965.014 72.576 L957.56 72.576 L957.56 65.7705 Q955.21 69.8214 951.605 71.8063 Q948.04 73.7508 943.017 73.7508 Q934.794 73.7508 929.609 67.1883 Q924.464 60.6258 924.464 49.9314 Q924.464 39.2371 929.609 32.6746 Q934.794 26.1121 943.017 26.1121 Q948.04 26.1121 951.605 28.0971 Q955.21 30.0415 957.56 34.0924 M932.161 49.9314 Q932.161 58.1548 935.523 62.8538 Q938.926 67.5124 944.84 67.5124 Q950.754 67.5124 954.157 62.8538 Q957.56 58.1548 957.56 49.9314 Q957.56 41.7081 954.157 37.0496 Q950.754 32.3505 944.84 32.3505 Q938.926 32.3505 935.523 37.0496 Q932.161 41.7081 932.161 49.9314 Z" fill="#000000" fill-rule="nonzero" fill-opacity="1" /><path clip-path="url(#clip620)" d="M976.599 46.5287 L998.434 46.5287 L998.434 53.1722 L976.599 53.1722 L976.599 46.5287 Z" fill="#000000" fill-rule="nonzero" fill-opacity="1" /><path clip-path="url(#clip620)" d="M1005.97 27.2059 L1013.42 27.2059 L1022.74 62.6108 L1032.02 27.2059 L1040.81 27.2059 L1050.12 62.6108 L1059.4 27.2059 L1066.85 27.2059 L1054.98 72.576 L1046.19 72.576 L1036.43 35.3887 L1026.63 72.576 L1017.84 72.576 L1005.97 27.2059 Z" fill="#000000" fill-rule="nonzero" fill-opacity="1" /><path clip-path="url(#clip620)" d="M1098.77 49.7694 Q1089.74 49.7694 1086.26 51.8354 Q1082.77 53.9013 1082.77 58.8839 Q1082.77 62.8538 1085.37 65.2034 Q1088 67.5124 1092.5 67.5124 Q1098.69 67.5124 1102.42 63.1374 Q1106.19 58.7219 1106.19 51.4303 L1106.19 49.7694 L1098.77 49.7694 M1113.64 46.6907 L1113.64 72.576 L1106.19 72.576 L1106.19 65.6895 Q1103.64 69.8214 1099.83 71.8063 Q1096.02 73.7508 1090.51 73.7508 Q1083.54 73.7508 1079.41 69.8619 Q1075.32 65.9325 1075.32 59.3701 Q1075.32 51.7138 1080.42 47.825 Q1085.57 43.9361 1095.74 43.9361 L1106.19 43.9361 L1106.19 43.2069 Q1106.19 38.0623 1102.78 35.2672 Q1099.42 32.4315 1093.31 32.4315 Q1089.42 32.4315 1085.73 33.3632 Q1082.04 34.295 1078.64 36.1584 L1078.64 29.2718 Q1082.73 27.692 1086.58 26.9223 Q1090.43 26.1121 1094.08 26.1121 Q1103.92 26.1121 1108.78 31.2163 Q1113.64 36.3204 1113.64 46.6907 Z" fill="#000000" fill-rule="nonzero" fill-opacity="1" /><path clip-path="url(#clip620)" d="M1155.28 34.1734 Q1154.03 33.4443 1152.53 33.1202 Q1151.07 32.7556 1149.29 32.7556 Q1142.97 32.7556 1139.57 36.8875 Q1136.2 40.9789 1136.2 48.6757 L1136.2 72.576 L1128.71 72.576 L1128.71 27.2059 L1136.2 27.2059 L1136.2 34.2544 Q1138.55 30.1225 1142.32 28.1376 Q1146.09 26.1121 1151.48 26.1121 Q1152.25 26.1121 1153.18 26.2337 Q1154.11 26.3147 1155.24 26.5172 L1155.28 34.1734 Z" fill="#000000" fill-rule="nonzero" fill-opacity="1" /><path clip-path="url(#clip620)" d="M1192.03 28.5427 L1192.03 35.5912 Q1188.87 33.9709 1185.46 33.1607 Q1182.06 32.3505 1178.42 32.3505 Q1172.87 32.3505 1170.07 34.0519 Q1167.32 35.7533 1167.32 39.156 Q1167.32 41.7486 1169.3 43.2475 Q1171.29 44.7058 1177.28 46.0426 L1179.83 46.6097 Q1187.77 48.3111 1191.09 51.4303 Q1194.46 54.509 1194.46 60.0587 Q1194.46 66.3781 1189.43 70.0644 Q1184.45 73.7508 1175.7 73.7508 Q1172.06 73.7508 1168.09 73.0216 Q1164.16 72.3329 1159.78 70.9151 L1159.78 63.2184 Q1163.91 65.3654 1167.92 66.4591 Q1171.93 67.5124 1175.86 67.5124 Q1181.13 67.5124 1183.96 65.73 Q1186.8 63.9071 1186.8 60.6258 Q1186.8 57.5877 1184.73 55.9673 Q1182.71 54.3469 1175.78 52.8481 L1173.19 52.2405 Q1166.26 50.7821 1163.18 47.7845 Q1160.11 44.7463 1160.11 39.4801 Q1160.11 33.0797 1164.64 29.5959 Q1169.18 26.1121 1177.52 26.1121 Q1181.66 26.1121 1185.3 26.7198 Q1188.95 27.3274 1192.03 28.5427 Z" fill="#000000" fill-rule="nonzero" fill-opacity="1" /><path clip-path="url(#clip620)" d="M1244.04 45.1919 L1244.04 72.576 L1236.59 72.576 L1236.59 45.4349 Q1236.59 38.994 1234.07 35.7938 Q1231.56 32.5936 1226.54 32.5936 Q1220.5 32.5936 1217.02 36.4419 Q1213.54 40.2903 1213.54 46.9338 L1213.54 72.576 L1206.04 72.576 L1206.04 9.54393 L1213.54 9.54393 L1213.54 34.2544 Q1216.21 30.163 1219.82 28.1376 Q1223.46 26.1121 1228.2 26.1121 Q1236.02 26.1121 1240.03 30.9732 Q1244.04 35.7938 1244.04 45.1919 Z" fill="#000000" fill-rule="nonzero" fill-opacity="1" /><path clip-path="url(#clip620)" d="M1279.53 49.7694 Q1270.49 49.7694 1267.01 51.8354 Q1263.52 53.9013 1263.52 58.8839 Q1263.52 62.8538 1266.12 65.2034 Q1268.75 67.5124 1273.25 67.5124 Q1279.44 67.5124 1283.17 63.1374 Q1286.94 58.7219 1286.94 51.4303 L1286.94 49.7694 L1279.53 49.7694 M1294.39 46.6907 L1294.39 72.576 L1286.94 72.576 L1286.94 65.6895 Q1284.39 69.8214 1280.58 71.8063 Q1276.77 73.7508 1271.26 73.7508 Q1264.29 73.7508 1260.16 69.8619 Q1256.07 65.9325 1256.07 59.3701 Q1256.07 51.7138 1261.18 47.825 Q1266.32 43.9361 1276.49 43.9361 L1286.94 43.9361 L1286.94 43.2069 Q1286.94 38.0623 1283.54 35.2672 Q1280.17 32.4315 1274.06 32.4315 Q1270.17 32.4315 1266.48 33.3632 Q1262.8 34.295 1259.39 36.1584 L1259.39 29.2718 Q1263.48 27.692 1267.33 26.9223 Q1271.18 26.1121 1274.83 26.1121 Q1284.67 26.1121 1289.53 31.2163 Q1294.39 36.3204 1294.39 46.6907 Z" fill="#000000" fill-rule="nonzero" fill-opacity="1" /><path clip-path="url(#clip620)" d="M1309.75 9.54393 L1317.2 9.54393 L1317.2 72.576 L1309.75 72.576 L1309.75 9.54393 Z" fill="#000000" fill-rule="nonzero" fill-opacity="1" /><path clip-path="url(#clip620)" d="M1332.8 9.54393 L1340.25 9.54393 L1340.25 72.576 L1332.8 72.576 L1332.8 9.54393 Z" fill="#000000" fill-rule="nonzero" fill-opacity="1" /><path clip-path="url(#clip620)" d="M1357.75 62.2867 L1366.3 62.2867 L1366.3 69.2543 L1359.65 82.2172 L1354.43 82.2172 L1357.75 69.2543 L1357.75 62.2867 Z" fill="#000000" fill-rule="nonzero" fill-opacity="1" /><path clip-path="url(#clip620)" d="M1415.8 65.7705 L1415.8 89.8329 L1408.3 89.8329 L1408.3 27.2059 L1415.8 27.2059 L1415.8 34.0924 Q1418.15 30.0415 1421.71 28.0971 Q1425.32 26.1121 1430.3 26.1121 Q1438.56 26.1121 1443.71 32.6746 Q1448.89 39.2371 1448.89 49.9314 Q1448.89 60.6258 1443.71 67.1883 Q1438.56 73.7508 1430.3 73.7508 Q1425.32 73.7508 1421.71 71.8063 Q1418.15 69.8214 1415.8 65.7705 M1441.16 49.9314 Q1441.16 41.7081 1437.75 37.0496 Q1434.39 32.3505 1428.48 32.3505 Q1422.56 32.3505 1419.16 37.0496 Q1415.8 41.7081 1415.8 49.9314 Q1415.8 58.1548 1419.16 62.8538 Q1422.56 67.5124 1428.48 67.5124 Q1434.39 67.5124 1437.75 62.8538 Q1441.16 58.1548 1441.16 49.9314 Z" fill="#000000" fill-rule="nonzero" fill-opacity="1" /><path clip-path="url(#clip620)" d="M1487.54 34.1734 Q1486.28 33.4443 1484.79 33.1202 Q1483.33 32.7556 1481.54 32.7556 Q1475.23 32.7556 1471.82 36.8875 Q1468.46 40.9789 1468.46 48.6757 L1468.46 72.576 L1460.97 72.576 L1460.97 27.2059 L1468.46 27.2059 L1468.46 34.2544 Q1470.81 30.1225 1474.58 28.1376 Q1478.34 26.1121 1483.73 26.1121 Q1484.5 26.1121 1485.43 26.2337 Q1486.36 26.3147 1487.5 26.5172 L1487.54 34.1734 Z" fill="#000000" fill-rule="nonzero" fill-opacity="1" /><path clip-path="url(#clip620)" d="M1532.34 48.0275 L1532.34 51.6733 L1498.07 51.6733 Q1498.56 59.3701 1502.69 63.421 Q1506.86 67.4314 1514.28 67.4314 Q1518.57 67.4314 1522.58 66.3781 Q1526.63 65.3249 1530.6 63.2184 L1530.6 70.267 Q1526.59 71.9684 1522.38 72.8596 Q1518.16 73.7508 1513.83 73.7508 Q1502.97 73.7508 1496.61 67.4314 Q1490.29 61.1119 1490.29 50.3365 Q1490.29 39.1965 1496.29 32.6746 Q1502.33 26.1121 1512.53 26.1121 Q1521.69 26.1121 1527 32.0264 Q1532.34 37.9003 1532.34 48.0275 M1524.89 45.84 Q1524.81 39.7232 1521.45 36.0774 Q1518.12 32.4315 1512.61 32.4315 Q1506.38 32.4315 1502.61 35.9558 Q1498.88 39.4801 1498.32 45.8805 L1524.89 45.84 Z" fill="#000000" fill-rule="nonzero" fill-opacity="1" /><path clip-path="url(#clip620)" d="M1573.5 28.5427 L1573.5 35.5912 Q1570.34 33.9709 1566.94 33.1607 Q1563.53 32.3505 1559.89 32.3505 Q1554.34 32.3505 1551.54 34.0519 Q1548.79 35.7533 1548.79 39.156 Q1548.79 41.7486 1550.77 43.2475 Q1552.76 44.7058 1558.75 46.0426 L1561.31 46.6097 Q1569.25 48.3111 1572.57 51.4303 Q1575.93 54.509 1575.93 60.0587 Q1575.93 66.3781 1570.91 70.0644 Q1565.92 73.7508 1557.17 73.7508 Q1553.53 73.7508 1549.56 73.0216 Q1545.63 72.3329 1541.25 70.9151 L1541.25 63.2184 Q1545.39 65.3654 1549.4 66.4591 Q1553.41 67.5124 1557.34 67.5124 Q1562.6 67.5124 1565.44 65.73 Q1568.27 63.9071 1568.27 60.6258 Q1568.27 57.5877 1566.21 55.9673 Q1564.18 54.3469 1557.26 52.8481 L1554.66 52.2405 Q1547.74 50.7821 1544.66 47.7845 Q1541.58 44.7463 1541.58 39.4801 Q1541.58 33.0797 1546.12 29.5959 Q1550.65 26.1121 1559 26.1121 Q1563.13 26.1121 1566.78 26.7198 Q1570.42 27.3274 1573.5 28.5427 Z" fill="#000000" fill-rule="nonzero" fill-opacity="1" /><path clip-path="url(#clip620)" d="M1626.61 48.0275 L1626.61 51.6733 L1592.34 51.6733 Q1592.82 59.3701 1596.95 63.421 Q1601.13 67.4314 1608.54 67.4314 Q1612.83 67.4314 1616.84 66.3781 Q1620.9 65.3249 1624.87 63.2184 L1624.87 70.267 Q1620.86 71.9684 1616.64 72.8596 Q1612.43 73.7508 1608.09 73.7508 Q1597.24 73.7508 1590.88 67.4314 Q1584.56 61.1119 1584.56 50.3365 Q1584.56 39.1965 1590.55 32.6746 Q1596.59 26.1121 1606.8 26.1121 Q1615.95 26.1121 1621.26 32.0264 Q1626.61 37.9003 1626.61 48.0275 M1619.15 45.84 Q1619.07 39.7232 1615.71 36.0774 Q1612.39 32.4315 1606.88 32.4315 Q1600.64 32.4315 1596.87 35.9558 Q1593.15 39.4801 1592.58 45.8805 L1619.15 45.84 Z" fill="#000000" fill-rule="nonzero" fill-opacity="1" /><path clip-path="url(#clip620)" d="M1646.21 14.324 L1646.21 27.2059 L1661.57 27.2059 L1661.57 32.9987 L1646.21 32.9987 L1646.21 57.6282 Q1646.21 63.1779 1647.71 64.7578 Q1649.25 66.3376 1653.91 66.3376 L1661.57 66.3376 L1661.57 72.576 L1653.91 72.576 Q1645.28 72.576 1642 69.3758 Q1638.72 66.1351 1638.72 57.6282 L1638.72 32.9987 L1633.25 32.9987 L1633.25 27.2059 L1638.72 27.2059 L1638.72 14.324 L1646.21 14.324 Z" fill="#000000" fill-rule="nonzero" fill-opacity="1" /><path clip-path="url(#clip620)" d="M1704.79 12.096 L1704.79 34.5785 L1697.9 34.5785 L1697.9 12.096 L1704.79 12.096 Z" fill="#000000" fill-rule="nonzero" fill-opacity="1" /><path clip-path="url(#clip620)" d="M1727.76 65.7705 L1727.76 89.8329 L1720.26 89.8329 L1720.26 27.2059 L1727.76 27.2059 L1727.76 34.0924 Q1730.11 30.0415 1733.67 28.0971 Q1737.28 26.1121 1742.26 26.1121 Q1750.52 26.1121 1755.67 32.6746 Q1760.85 39.2371 1760.85 49.9314 Q1760.85 60.6258 1755.67 67.1883 Q1750.52 73.7508 1742.26 73.7508 Q1737.28 73.7508 1733.67 71.8063 Q1730.11 69.8214 1727.76 65.7705 M1753.12 49.9314 Q1753.12 41.7081 1749.71 37.0496 Q1746.35 32.3505 1740.44 32.3505 Q1734.52 32.3505 1731.12 37.0496 Q1727.76 41.7081 1727.76 49.9314 Q1727.76 58.1548 1731.12 62.8538 Q1734.52 67.5124 1740.44 67.5124 Q1746.35 67.5124 1749.71 62.8538 Q1753.12 58.1548 1753.12 49.9314 Z" fill="#000000" fill-rule="nonzero" fill-opacity="1" /><path clip-path="url(#clip620)" d="M1793.83 49.7694 Q1784.8 49.7694 1781.31 51.8354 Q1777.83 53.9013 1777.83 58.8839 Q1777.83 62.8538 1780.42 65.2034 Q1783.05 67.5124 1787.55 67.5124 Q1793.75 67.5124 1797.47 63.1374 Q1801.24 58.7219 1801.24 51.4303 L1801.24 49.7694 L1793.83 49.7694 M1808.7 46.6907 L1808.7 72.576 L1801.24 72.576 L1801.24 65.6895 Q1798.69 69.8214 1794.88 71.8063 Q1791.07 73.7508 1785.56 73.7508 Q1778.6 73.7508 1774.47 69.8619 Q1770.37 65.9325 1770.37 59.3701 Q1770.37 51.7138 1775.48 47.825 Q1780.62 43.9361 1790.79 43.9361 L1801.24 43.9361 L1801.24 43.2069 Q1801.24 38.0623 1797.84 35.2672 Q1794.48 32.4315 1788.36 32.4315 Q1784.47 32.4315 1780.78 33.3632 Q1777.1 34.295 1773.7 36.1584 L1773.7 29.2718 Q1777.79 27.692 1781.64 26.9223 Q1785.48 26.1121 1789.13 26.1121 Q1798.97 26.1121 1803.83 31.2163 Q1808.7 36.3204 1808.7 46.6907 Z" fill="#000000" fill-rule="nonzero" fill-opacity="1" /><path clip-path="url(#clip620)" d="M1831.26 65.7705 L1831.26 89.8329 L1823.76 89.8329 L1823.76 27.2059 L1831.26 27.2059 L1831.26 34.0924 Q1833.61 30.0415 1837.17 28.0971 Q1840.78 26.1121 1845.76 26.1121 Q1854.03 26.1121 1859.17 32.6746 Q1864.35 39.2371 1864.35 49.9314 Q1864.35 60.6258 1859.17 67.1883 Q1854.03 73.7508 1845.76 73.7508 Q1840.78 73.7508 1837.17 71.8063 Q1833.61 69.8214 1831.26 65.7705 M1856.62 49.9314 Q1856.62 41.7081 1853.21 37.0496 Q1849.85 32.3505 1843.94 32.3505 Q1838.02 32.3505 1834.62 37.0496 Q1831.26 41.7081 1831.26 49.9314 Q1831.26 58.1548 1834.62 62.8538 Q1838.02 67.5124 1843.94 67.5124 Q1849.85 67.5124 1853.21 62.8538 Q1856.62 58.1548 1856.62 49.9314 Z" fill="#000000" fill-rule="nonzero" fill-opacity="1" /><path clip-path="url(#clip620)" d="M1915.52 48.0275 L1915.52 51.6733 L1881.25 51.6733 Q1881.73 59.3701 1885.87 63.421 Q1890.04 67.4314 1897.45 67.4314 Q1901.74 67.4314 1905.76 66.3781 Q1909.81 65.3249 1913.78 63.2184 L1913.78 70.267 Q1909.77 71.9684 1905.55 72.8596 Q1901.34 73.7508 1897.01 73.7508 Q1886.15 73.7508 1879.79 67.4314 Q1873.47 61.1119 1873.47 50.3365 Q1873.47 39.1965 1879.46 32.6746 Q1885.5 26.1121 1895.71 26.1121 Q1904.86 26.1121 1910.17 32.0264 Q1915.52 37.9003 1915.52 48.0275 M1908.06 45.84 Q1907.98 39.7232 1904.62 36.0774 Q1901.3 32.4315 1895.79 32.4315 Q1889.55 32.4315 1885.78 35.9558 Q1882.06 39.4801 1881.49 45.8805 L1908.06 45.84 Z" fill="#000000" fill-rule="nonzero" fill-opacity="1" /><path clip-path="url(#clip620)" d="M1954.04 34.1734 Q1952.79 33.4443 1951.29 33.1202 Q1949.83 32.7556 1948.05 32.7556 Q1941.73 32.7556 1938.32 36.8875 Q1934.96 40.9789 1934.96 48.6757 L1934.96 72.576 L1927.47 72.576 L1927.47 27.2059 L1934.96 27.2059 L1934.96 34.2544 Q1937.31 30.1225 1941.08 28.1376 Q1944.85 26.1121 1950.23 26.1121 Q1951 26.1121 1951.94 26.2337 Q1952.87 26.3147 1954 26.5172 L1954.04 34.1734 Z" fill="#000000" fill-rule="nonzero" fill-opacity="1" /><path clip-path="url(#clip620)" d="M1968.91 12.096 L1968.91 34.5785 L1962.02 34.5785 L1962.02 12.096 L1968.91 12.096 Z" fill="#000000" fill-rule="nonzero" fill-opacity="1" /><path clip-path="url(#clip620)" d="M1986.57 62.2867 L1995.12 62.2867 L1995.12 69.2543 L1988.47 82.2172 L1983.25 82.2172 L1986.57 69.2543 L1986.57 62.2867 Z" fill="#000000" fill-rule="nonzero" fill-opacity="1" /><path clip-path="url(#clip620)" d="M2083.02 16.7545 L2083.02 25.383 Q2078.89 21.5346 2074.19 19.6307 Q2069.53 17.7268 2064.27 17.7268 Q2053.9 17.7268 2048.39 24.0867 Q2042.88 30.4061 2042.88 42.3968 Q2042.88 54.3469 2048.39 60.7069 Q2053.9 67.0263 2064.27 67.0263 Q2069.53 67.0263 2074.19 65.1223 Q2078.89 63.2184 2083.02 59.3701 L2083.02 67.9175 Q2078.73 70.8341 2073.91 72.2924 Q2069.13 73.7508 2063.78 73.7508 Q2050.05 73.7508 2042.15 65.3654 Q2034.25 56.9395 2034.25 42.3968 Q2034.25 27.8135 2042.15 19.4281 Q2050.05 11.0023 2063.78 11.0023 Q2069.21 11.0023 2073.99 12.4606 Q2078.81 13.8784 2083.02 16.7545 Z" fill="#000000" fill-rule="nonzero" fill-opacity="1" /><path clip-path="url(#clip620)" d="M2103.84 18.8205 L2103.84 41.5461 L2114.13 41.5461 Q2119.85 41.5461 2122.96 38.5889 Q2126.08 35.6318 2126.08 30.163 Q2126.08 24.7348 2122.96 21.7777 Q2119.85 18.8205 2114.13 18.8205 L2103.84 18.8205 M2095.66 12.096 L2114.13 12.096 Q2124.3 12.096 2129.49 16.714 Q2134.71 21.2916 2134.71 30.163 Q2134.71 39.1155 2129.49 43.6931 Q2124.3 48.2706 2114.13 48.2706 L2103.84 48.2706 L2103.84 72.576 L2095.66 72.576 L2095.66 12.096 Z" fill="#000000" fill-rule="nonzero" fill-opacity="1" /><path clip-path="url(#clip620)" d="M2144.76 12.096 L2152.98 12.096 L2152.98 48.8377 Q2152.98 58.5599 2156.51 62.8538 Q2160.03 67.1073 2167.93 67.1073 Q2175.79 67.1073 2179.31 62.8538 Q2182.84 58.5599 2182.84 48.8377 L2182.84 12.096 L2191.06 12.096 L2191.06 49.8504 Q2191.06 61.6791 2185.19 67.7149 Q2179.35 73.7508 2167.93 73.7508 Q2156.47 73.7508 2150.59 67.7149 Q2144.76 61.6791 2144.76 49.8504 L2144.76 12.096 Z" fill="#000000" fill-rule="nonzero" fill-opacity="1" /><path clip-path="url(#clip622)" d="M304.647 378.184 L304.647 1234.03 L639.768 1234.03 L639.768 378.184 L304.647 378.184 L304.647 378.184  Z" fill="#808080" fill-rule="evenodd" fill-opacity="1"/>
<polyline clip-path="url(#clip622)" style="stroke:#000000; stroke-linecap:round; stroke-linejoin:round; stroke-width:4; stroke-opacity:1; fill:none" points="304.647,378.184 304.647,1234.03 639.768,1234.03 639.768,378.184 304.647,378.184 "/>
<path clip-path="url(#clip622)" d="M783.391 374.456 L783.391 1234.03 L1118.51 1234.03 L1118.51 374.456 L783.391 374.456 L783.391 374.456  Z" fill="#808080" fill-rule="evenodd" fill-opacity="1"/>
<polyline clip-path="url(#clip622)" style="stroke:#000000; stroke-linecap:round; stroke-linejoin:round; stroke-width:4; stroke-opacity:1; fill:none" points="783.391,374.456 783.391,1234.03 1118.51,1234.03 1118.51,374.456 783.391,374.456 "/>
<circle clip-path="url(#clip622)" style="fill:#808080; stroke:none; fill-opacity:0" cx="472.207" cy="378.184" r="2"/>
<circle clip-path="url(#clip622)" style="fill:#808080; stroke:none; fill-opacity:0" cx="950.951" cy="374.456" r="2"/>
<polyline clip-path="url(#clip622)" style="stroke:#000000; stroke-linecap:round; stroke-linejoin:round; stroke-width:4; stroke-opacity:1; fill:none" points="472.207,378.184 472.207,378.184 "/>
<polyline clip-path="url(#clip622)" style="stroke:#000000; stroke-linecap:round; stroke-linejoin:round; stroke-width:4; stroke-opacity:1; fill:none" points="950.951,374.456 950.951,374.456 "/>
<line clip-path="url(#clip622)" x1="488.207" y1="378.184" x2="456.207" y2="378.184" style="stroke:#000000; stroke-width:4; stroke-opacity:1"/>
<line clip-path="url(#clip622)" x1="488.207" y1="378.184" x2="456.207" y2="378.184" style="stroke:#000000; stroke-width:4; stroke-opacity:1"/>
<line clip-path="url(#clip622)" x1="966.951" y1="374.456" x2="934.951" y2="374.456" style="stroke:#000000; stroke-width:4; stroke-opacity:1"/>
<line clip-path="url(#clip622)" x1="966.951" y1="374.456" x2="934.951" y2="374.456" style="stroke:#000000; stroke-width:4; stroke-opacity:1"/>
<path clip-path="url(#clip622)" d="M1454.11 1167.4 L1454.11 1234.03 L1789.23 1234.03 L1789.23 1167.4 L1454.11 1167.4 L1454.11 1167.4  Z" fill="#17913e" fill-rule="evenodd" fill-opacity="1"/>
<polyline clip-path="url(#clip622)" style="stroke:#000000; stroke-linecap:round; stroke-linejoin:round; stroke-width:4; stroke-opacity:1; fill:none" points="1454.11,1167.4 1454.11,1234.03 1789.23,1234.03 1789.23,1167.4 1454.11,1167.4 "/>
<path clip-path="url(#clip622)" d="M1932.85 224.432 L1932.85 1234.03 L2267.98 1234.03 L2267.98 224.432 L1932.85 224.432 L1932.85 224.432  Z" fill="#17913e" fill-rule="evenodd" fill-opacity="1"/>
<polyline clip-path="url(#clip622)" style="stroke:#000000; stroke-linecap:round; stroke-linejoin:round; stroke-width:4; stroke-opacity:1; fill:none" points="1932.85,224.432 1932.85,1234.03 2267.98,1234.03 2267.98,224.432 1932.85,224.432 "/>
<circle clip-path="url(#clip622)" style="fill:#17913e; stroke:none; fill-opacity:0" cx="1621.67" cy="1167.4" r="2"/>
<circle clip-path="url(#clip622)" style="fill:#17913e; stroke:none; fill-opacity:0" cx="2100.41" cy="224.432" r="2"/>
<polyline clip-path="url(#clip622)" style="stroke:#000000; stroke-linecap:round; stroke-linejoin:round; stroke-width:4; stroke-opacity:1; fill:none" points="1621.67,1167.4 1621.67,1167.4 "/>
<polyline clip-path="url(#clip622)" style="stroke:#000000; stroke-linecap:round; stroke-linejoin:round; stroke-width:4; stroke-opacity:1; fill:none" points="2100.41,224.432 2100.41,224.432 "/>
<line clip-path="url(#clip622)" x1="1637.67" y1="1167.4" x2="1605.67" y2="1167.4" style="stroke:#000000; stroke-width:4; stroke-opacity:1"/>
<line clip-path="url(#clip622)" x1="1637.67" y1="1167.4" x2="1605.67" y2="1167.4" style="stroke:#000000; stroke-width:4; stroke-opacity:1"/>
<line clip-path="url(#clip622)" x1="2116.41" y1="224.432" x2="2084.41" y2="224.432" style="stroke:#000000; stroke-width:4; stroke-opacity:1"/>
<line clip-path="url(#clip622)" x1="2116.41" y1="224.432" x2="2084.41" y2="224.432" style="stroke:#000000; stroke-width:4; stroke-opacity:1"/>
<path clip-path="url(#clip620)" d="M290.963 367.851 L661.751 367.851 L661.751 160.491 L290.963 160.491  Z" fill="#ffffff" fill-rule="evenodd" fill-opacity="1"/>
<polyline clip-path="url(#clip620)" style="stroke:#000000; stroke-linecap:round; stroke-linejoin:round; stroke-width:4; stroke-opacity:1; fill:none" points="290.963,367.851 661.751,367.851 661.751,160.491 290.963,160.491 290.963,367.851 "/>
<path clip-path="url(#clip620)" d="M314.661 233.067 L456.854 233.067 L456.854 191.595 L314.661 191.595 L314.661 233.067  Z" fill="#808080" fill-rule="evenodd" fill-opacity="1"/>
<polyline clip-path="url(#clip620)" style="stroke:#000000; stroke-linecap:round; stroke-linejoin:round; stroke-width:4; stroke-opacity:1; fill:none" points="314.661,233.067 456.854,233.067 456.854,191.595 314.661,191.595 314.661,233.067 "/>
<path clip-path="url(#clip620)" d="M508.423 197.713 L508.423 202.643 Q506.062 200.444 503.377 199.356 Q500.715 198.268 497.705 198.268 Q491.78 198.268 488.631 201.902 Q485.483 205.513 485.483 212.365 Q485.483 219.194 488.631 222.828 Q491.78 226.439 497.705 226.439 Q500.715 226.439 503.377 225.351 Q506.062 224.263 508.423 222.064 L508.423 226.949 Q505.969 228.615 503.215 229.449 Q500.483 230.282 497.428 230.282 Q489.581 230.282 485.067 225.49 Q480.553 220.675 480.553 212.365 Q480.553 204.032 485.067 199.24 Q489.581 194.426 497.428 194.426 Q500.53 194.426 503.261 195.259 Q506.016 196.069 508.423 197.713 Z" fill="#000000" fill-rule="nonzero" fill-opacity="1" /><path clip-path="url(#clip620)" d="M314.661 284.907 L456.854 284.907 L456.854 243.435 L314.661 243.435 L314.661 284.907  Z" fill="#17913e" fill-rule="evenodd" fill-opacity="1"/>
<polyline clip-path="url(#clip620)" style="stroke:#000000; stroke-linecap:round; stroke-linejoin:round; stroke-width:4; stroke-opacity:1; fill:none" points="314.661,284.907 456.854,284.907 456.854,243.435 314.661,243.435 314.661,284.907 "/>
<path clip-path="url(#clip620)" d="M485.877 255.525 L490.136 255.525 L490.136 281.914 Q490.136 286.867 488.238 289.089 Q486.363 291.312 482.173 291.312 L480.553 291.312 L480.553 287.701 L481.687 287.701 Q484.118 287.701 484.997 286.566 Q485.877 285.455 485.877 281.914 L485.877 255.525 M485.877 245.432 L490.136 245.432 L490.136 250.826 L485.877 250.826 L485.877 245.432 Z" fill="#000000" fill-rule="nonzero" fill-opacity="1" /><path clip-path="url(#clip620)" d="M498.608 271.219 L498.608 255.525 L502.867 255.525 L502.867 271.057 Q502.867 274.738 504.303 276.589 Q505.738 278.418 508.608 278.418 Q512.057 278.418 514.048 276.219 Q516.062 274.02 516.062 270.224 L516.062 255.525 L520.321 255.525 L520.321 281.451 L516.062 281.451 L516.062 277.469 Q514.511 279.83 512.451 280.988 Q510.414 282.122 507.705 282.122 Q503.238 282.122 500.923 279.344 Q498.608 276.566 498.608 271.219 M509.326 254.9 L509.326 254.9 Z" fill="#000000" fill-rule="nonzero" fill-opacity="1" /><path clip-path="url(#clip620)" d="M529.094 245.432 L533.353 245.432 L533.353 281.451 L529.094 281.451 L529.094 245.432 Z" fill="#000000" fill-rule="nonzero" fill-opacity="1" /><path clip-path="url(#clip620)" d="M542.265 255.525 L546.525 255.525 L546.525 281.451 L542.265 281.451 L542.265 255.525 M542.265 245.432 L546.525 245.432 L546.525 250.826 L542.265 250.826 L542.265 245.432 Z" fill="#000000" fill-rule="nonzero" fill-opacity="1" /><path clip-path="url(#clip620)" d="M567.219 268.418 Q562.057 268.418 560.066 269.599 Q558.076 270.779 558.076 273.627 Q558.076 275.895 559.557 277.238 Q561.062 278.557 563.631 278.557 Q567.173 278.557 569.302 276.057 Q571.455 273.534 571.455 269.367 L571.455 268.418 L567.219 268.418 M575.714 266.659 L575.714 281.451 L571.455 281.451 L571.455 277.515 Q569.997 279.877 567.821 281.011 Q565.645 282.122 562.497 282.122 Q558.515 282.122 556.154 279.9 Q553.816 277.654 553.816 273.904 Q553.816 269.529 556.733 267.307 Q559.673 265.085 565.483 265.085 L571.455 265.085 L571.455 264.668 Q571.455 261.728 569.511 260.131 Q567.589 258.511 564.094 258.511 Q561.872 258.511 559.765 259.043 Q557.659 259.576 555.714 260.641 L555.714 256.705 Q558.052 255.803 560.251 255.363 Q562.45 254.9 564.534 254.9 Q570.159 254.9 572.937 257.816 Q575.714 260.733 575.714 266.659 Z" fill="#000000" fill-rule="nonzero" fill-opacity="1" /><path clip-path="url(#clip620)" d="M314.661 336.747 L456.854 336.747 L456.854 295.275 L314.661 295.275 L314.661 336.747  Z" fill="#3065a6" fill-rule="evenodd" fill-opacity="1"/>
<polyline clip-path="url(#clip620)" style="stroke:#000000; stroke-linecap:round; stroke-linejoin:round; stroke-width:4; stroke-opacity:1; fill:none" points="314.661,336.747 456.854,336.747 456.854,295.275 314.661,295.275 314.661,336.747 "/>
<path clip-path="url(#clip620)" d="M484.835 329.402 L484.835 343.152 L480.553 343.152 L480.553 307.365 L484.835 307.365 L484.835 311.3 Q486.178 308.985 488.215 307.874 Q490.275 306.74 493.122 306.74 Q497.844 306.74 500.784 310.49 Q503.747 314.24 503.747 320.351 Q503.747 326.462 500.784 330.212 Q497.844 333.962 493.122 333.962 Q490.275 333.962 488.215 332.851 Q486.178 331.717 484.835 329.402 M499.326 320.351 Q499.326 315.652 497.381 312.99 Q495.46 310.305 492.08 310.305 Q488.701 310.305 486.756 312.99 Q484.835 315.652 484.835 320.351 Q484.835 325.05 486.756 327.735 Q488.701 330.397 492.08 330.397 Q495.46 330.397 497.381 327.735 Q499.326 325.05 499.326 320.351 Z" fill="#000000" fill-rule="nonzero" fill-opacity="1" /><path clip-path="url(#clip620)" d="M521.594 335.698 Q519.789 340.328 518.076 341.74 Q516.363 343.152 513.492 343.152 L510.09 343.152 L510.09 339.587 L512.59 339.587 Q514.349 339.587 515.321 338.754 Q516.293 337.92 517.474 334.818 L518.238 332.874 L507.752 307.365 L512.266 307.365 L520.367 327.642 L528.469 307.365 L532.983 307.365 L521.594 335.698 Z" fill="#000000" fill-rule="nonzero" fill-opacity="1" /><path clip-path="url(#clip620)" d="M543.076 300.004 L543.076 307.365 L551.849 307.365 L551.849 310.675 L543.076 310.675 L543.076 324.749 Q543.076 327.92 543.932 328.823 Q544.812 329.726 547.474 329.726 L551.849 329.726 L551.849 333.291 L547.474 333.291 Q542.543 333.291 540.668 331.462 Q538.793 329.61 538.793 324.749 L538.793 310.675 L535.668 310.675 L535.668 307.365 L538.793 307.365 L538.793 300.004 L543.076 300.004 Z" fill="#000000" fill-rule="nonzero" fill-opacity="1" /><path clip-path="url(#clip620)" d="M579.001 317.643 L579.001 333.291 L574.742 333.291 L574.742 317.781 Q574.742 314.101 573.307 312.272 Q571.872 310.443 569.001 310.443 Q565.552 310.443 563.562 312.643 Q561.571 314.842 561.571 318.638 L561.571 333.291 L557.288 333.291 L557.288 297.272 L561.571 297.272 L561.571 311.393 Q563.099 309.055 565.159 307.897 Q567.242 306.74 569.95 306.74 Q574.418 306.74 576.71 309.518 Q579.001 312.272 579.001 317.643 Z" fill="#000000" fill-rule="nonzero" fill-opacity="1" /><path clip-path="url(#clip620)" d="M597.543 310.351 Q594.117 310.351 592.126 313.036 Q590.136 315.698 590.136 320.351 Q590.136 325.004 592.103 327.689 Q594.094 330.351 597.543 330.351 Q600.946 330.351 602.936 327.666 Q604.927 324.98 604.927 320.351 Q604.927 315.744 602.936 313.059 Q600.946 310.351 597.543 310.351 M597.543 306.74 Q603.098 306.74 606.27 310.351 Q609.441 313.962 609.441 320.351 Q609.441 326.717 606.27 330.351 Q603.098 333.962 597.543 333.962 Q591.964 333.962 588.793 330.351 Q585.645 326.717 585.645 320.351 Q585.645 313.962 588.793 310.351 Q591.964 306.74 597.543 306.74 Z" fill="#000000" fill-rule="nonzero" fill-opacity="1" /><path clip-path="url(#clip620)" d="M638.052 317.643 L638.052 333.291 L633.793 333.291 L633.793 317.781 Q633.793 314.101 632.358 312.272 Q630.922 310.443 628.052 310.443 Q624.603 310.443 622.612 312.643 Q620.621 314.842 620.621 318.638 L620.621 333.291 L616.339 333.291 L616.339 307.365 L620.621 307.365 L620.621 311.393 Q622.149 309.055 624.209 307.897 Q626.293 306.74 629.001 306.74 Q633.469 306.74 635.76 309.518 Q638.052 312.272 638.052 317.643 Z" fill="#000000" fill-rule="nonzero" fill-opacity="1" /></svg>
