<?xml version="1.0" encoding="utf-8"?>
<svg xmlns="http://www.w3.org/2000/svg" xmlns:xlink="http://www.w3.org/1999/xlink" width="600" height="400" viewBox="0 0 2400 1600">
<defs>
  <clipPath id="clip780">
    <rect x="0" y="0" width="2400" height="1600"/>
  </clipPath>
</defs>
<path clip-path="url(#clip780)" d="M0 1600 L2400 1600 L2400 0 L0 0  Z" fill="#ffffff" fill-rule="evenodd" fill-opacity="1"/>
<defs>
  <clipPath id="clip781">
    <rect x="480" y="0" width="1681" height="1600"/>
  </clipPath>
</defs>
<path clip-path="url(#clip780)" d="M235.283 1285.84 L2352.76 1285.84 L2352.76 123.472 L235.283 123.472  Z" fill="#ffffff" fill-rule="evenodd" fill-opacity="1"/>
<defs>
  <clipPath id="clip782">
    <rect x="235" y="123" width="2118" height="1163"/>
  </clipPath>
</defs>
<polyline clip-path="url(#clip782)" style="stroke:#000000; stroke-linecap:round; stroke-linejoin:round; stroke-width:2; stroke-opacity:0.1; fill:none" points="400.142,1285.84 400.142,123.472 "/>
<polyline clip-path="url(#clip782)" style="stroke:#000000; stroke-linecap:round; stroke-linejoin:round; stroke-width:2; stroke-opacity:0.1; fill:none" points="661.816,1285.84 661.816,123.472 "/>
<polyline clip-path="url(#clip782)" style="stroke:#000000; stroke-linecap:round; stroke-linejoin:round; stroke-width:2; stroke-opacity:0.1; fill:none" points="1028.42,1285.84 1028.42,123.472 "/>
<polyline clip-path="url(#clip782)" style="stroke:#000000; stroke-linecap:round; stroke-linejoin:round; stroke-width:2; stroke-opacity:0.1; fill:none" points="1290.09,1285.84 1290.09,123.472 "/>
<polyline clip-path="url(#clip782)" style="stroke:#000000; stroke-linecap:round; stroke-linejoin:round; stroke-width:2; stroke-opacity:0.1; fill:none" points="1656.7,1285.84 1656.7,123.472 "/>
<polyline clip-path="url(#clip782)" style="stroke:#000000; stroke-linecap:round; stroke-linejoin:round; stroke-width:2; stroke-opacity:0.1; fill:none" points="1918.37,1285.84 1918.37,123.472 "/>
<polyline clip-path="url(#clip782)" style="stroke:#000000; stroke-linecap:round; stroke-linejoin:round; stroke-width:2; stroke-opacity:0.1; fill:none" points="2180.05,1285.84 2180.05,123.472 "/>
<polyline clip-path="url(#clip780)" style="stroke:#000000; stroke-linecap:round; stroke-linejoin:round; stroke-width:4; stroke-opacity:1; fill:none" points="235.283,1285.84 2352.76,1285.84 "/>
<polyline clip-path="url(#clip780)" style="stroke:#000000; stroke-linecap:round; stroke-linejoin:round; stroke-width:4; stroke-opacity:1; fill:none" points="400.142,1285.84 400.142,1266.94 "/>
<polyline clip-path="url(#clip780)" style="stroke:#000000; stroke-linecap:round; stroke-linejoin:round; stroke-width:4; stroke-opacity:1; fill:none" points="661.816,1285.84 661.816,1266.94 "/>
<polyline clip-path="url(#clip780)" style="stroke:#000000; stroke-linecap:round; stroke-linejoin:round; stroke-width:4; stroke-opacity:1; fill:none" points="1028.42,1285.84 1028.42,1266.94 "/>
<polyline clip-path="url(#clip780)" style="stroke:#000000; stroke-linecap:round; stroke-linejoin:round; stroke-width:4; stroke-opacity:1; fill:none" points="1290.09,1285.84 1290.09,1266.94 "/>
<polyline clip-path="url(#clip780)" style="stroke:#000000; stroke-linecap:round; stroke-linejoin:round; stroke-width:4; stroke-opacity:1; fill:none" points="1656.7,1285.84 1656.7,1266.94 "/>
<polyline clip-path="url(#clip780)" style="stroke:#000000; stroke-linecap:round; stroke-linejoin:round; stroke-width:4; stroke-opacity:1; fill:none" points="1918.37,1285.84 1918.37,1266.94 "/>
<polyline clip-path="url(#clip780)" style="stroke:#000000; stroke-linecap:round; stroke-linejoin:round; stroke-width:4; stroke-opacity:1; fill:none" points="2180.05,1285.84 2180.05,1266.94 "/>
<path clip-path="url(#clip780)" d="M270.793 1455.02 L281.858 1466.09 L278.846 1469.1 L267.88 1458.13 Q265.277 1455.53 262.969 1455.25 Q260.661 1454.97 258.632 1457 Q256.193 1459.44 256.34 1462.4 Q256.488 1465.37 259.172 1468.05 L269.533 1478.41 L266.505 1481.44 L248.173 1463.11 L251.201 1460.08 L254.049 1462.93 Q253.476 1460.19 254.114 1457.92 Q254.769 1455.63 256.684 1453.71 Q259.843 1450.55 263.428 1450.9 Q266.996 1451.22 270.793 1455.02 Z" fill="#000000" fill-rule="nonzero" fill-opacity="1" /><path clip-path="url(#clip780)" d="M286.981 1442.53 Q283.331 1446.18 282.758 1448.43 Q282.186 1450.67 284.199 1452.68 Q285.803 1454.28 287.8 1454.19 Q289.797 1454.06 291.614 1452.24 Q294.118 1449.73 293.856 1446.46 Q293.594 1443.15 290.648 1440.21 L289.977 1439.54 L286.981 1442.53 M291.745 1435.28 L302.204 1445.74 L299.192 1448.75 L296.409 1445.97 Q297.048 1448.67 296.311 1451.01 Q295.558 1453.34 293.332 1455.56 Q290.517 1458.38 287.276 1458.48 Q284.035 1458.54 281.384 1455.89 Q278.29 1452.8 278.781 1449.16 Q279.288 1445.51 283.397 1441.4 L287.62 1437.18 L287.325 1436.89 Q285.246 1434.81 282.742 1435.05 Q280.238 1435.27 277.766 1437.74 Q276.195 1439.31 275.082 1441.17 Q273.969 1443.04 273.347 1445.17 L270.564 1442.39 Q271.579 1440.09 272.823 1438.23 Q274.051 1436.35 275.524 1434.87 Q279.501 1430.89 283.528 1430.99 Q287.554 1431.09 291.745 1435.28 Z" fill="#000000" fill-rule="nonzero" fill-opacity="1" /><path clip-path="url(#clip780)" d="M290.075 1421.21 L293.087 1418.19 L311.419 1436.53 L308.407 1439.54 L290.075 1421.21 M282.938 1414.07 L285.95 1411.06 L289.764 1414.87 L286.752 1417.88 L282.938 1414.07 Z" fill="#000000" fill-rule="nonzero" fill-opacity="1" /><path clip-path="url(#clip780)" d="M297.228 1414.05 L300.42 1410.86 L321.535 1420.52 L311.877 1399.4 L315.069 1396.21 L326.527 1421.42 L322.435 1425.51 L297.228 1414.05 Z" fill="#000000" fill-rule="nonzero" fill-opacity="1" /><path clip-path="url(#clip780)" d="M343.32 1384.79 L344.794 1386.26 L330.946 1400.11 Q334.253 1403.02 337.559 1402.99 Q340.865 1402.92 343.861 1399.93 Q345.596 1398.19 346.791 1396.15 Q348.002 1394.08 348.755 1391.63 L351.603 1394.48 Q350.67 1396.78 349.328 1398.85 Q347.985 1400.91 346.234 1402.66 Q341.847 1407.05 336.724 1407.06 Q331.617 1407.06 327.263 1402.71 Q322.762 1398.21 322.549 1393.15 Q322.337 1388.06 326.461 1383.93 Q330.161 1380.24 334.694 1380.48 Q339.228 1380.69 343.32 1384.79 M339.425 1386.91 Q336.921 1384.47 334.089 1384.36 Q331.274 1384.23 329.047 1386.46 Q326.527 1388.98 326.429 1391.92 Q326.347 1394.85 328.704 1397.67 L339.425 1386.91 Z" fill="#000000" fill-rule="nonzero" fill-opacity="1" /><path clip-path="url(#clip780)" d="M350.637 1346.44 Q352.208 1352.39 354.827 1357.14 Q357.446 1361.89 361.227 1365.67 Q365.008 1369.45 369.788 1372.1 Q374.567 1374.72 380.493 1376.29 L377.874 1378.91 Q371.572 1377.52 366.629 1375.03 Q361.702 1372.53 358.035 1368.86 Q354.385 1365.21 351.897 1360.3 Q349.409 1355.39 348.018 1349.05 L350.637 1346.44 Z" fill="#000000" fill-rule="nonzero" fill-opacity="1" /><path clip-path="url(#clip780)" d="M377.792 1325.04 L381.278 1328.53 Q378.054 1328.64 375.386 1329.77 Q372.734 1330.89 370.606 1333.01 Q366.416 1337.2 366.76 1342 Q367.087 1346.78 371.932 1351.62 Q376.761 1356.45 381.556 1356.8 Q386.336 1357.12 390.526 1352.93 Q392.654 1350.81 393.767 1348.15 Q394.896 1345.49 395.011 1342.26 L398.465 1345.72 Q397.908 1348.63 396.55 1351.17 Q395.207 1353.69 393.047 1355.85 Q387.498 1361.4 380.918 1361.2 Q374.322 1360.99 368.446 1355.11 Q362.553 1349.22 362.357 1342.64 Q362.144 1336.04 367.693 1330.49 Q369.886 1328.3 372.407 1326.96 Q374.927 1325.58 377.792 1325.04 Z" fill="#000000" fill-rule="nonzero" fill-opacity="1" /><path clip-path="url(#clip780)" d="M379.412 1317.66 L382.031 1315.04 Q388.349 1316.45 393.26 1318.94 Q398.186 1321.41 401.837 1325.06 Q405.503 1328.73 407.991 1333.67 Q410.495 1338.6 411.887 1344.9 L409.268 1347.52 Q407.696 1341.59 405.061 1336.83 Q402.426 1332.03 398.645 1328.25 Q394.864 1324.47 390.101 1321.87 Q385.354 1319.25 379.412 1317.66 Z" fill="#000000" fill-rule="nonzero" fill-opacity="1" /><path clip-path="url(#clip780)" d="M445.028 1532.15 Q442.606 1534.57 443.097 1537.88 Q443.572 1541.17 446.862 1544.46 Q450.152 1547.75 453.442 1548.25 Q456.732 1548.73 459.17 1546.29 Q461.577 1543.88 461.086 1540.58 Q460.594 1537.27 457.321 1534 Q454.064 1530.74 450.757 1530.25 Q447.434 1529.74 445.028 1532.15 M442.475 1529.59 Q446.403 1525.67 451.199 1525.98 Q455.995 1526.29 460.513 1530.81 Q465.014 1535.31 465.341 1540.12 Q465.652 1544.92 461.724 1548.84 Q457.779 1552.79 452.983 1552.48 Q448.187 1552.13 443.686 1547.63 Q439.169 1543.11 438.841 1538.34 Q438.53 1533.54 442.475 1529.59 Z" fill="#000000" fill-rule="nonzero" fill-opacity="1" /><path clip-path="url(#clip780)" d="M474.818 1529.3 L484.541 1539.02 L481.513 1542.05 L456.208 1516.75 L459.236 1513.72 L462.018 1516.5 Q461.331 1513.91 461.986 1511.69 Q462.64 1509.43 464.654 1507.42 Q467.993 1504.08 472.723 1504.65 Q477.47 1505.21 481.791 1509.53 Q486.112 1513.85 486.669 1518.6 Q487.242 1523.33 483.903 1526.66 Q481.889 1528.68 479.647 1529.35 Q477.405 1529.99 474.818 1529.3 M478.665 1512.65 Q475.342 1509.33 472.085 1508.82 Q468.828 1508.28 466.438 1510.67 Q464.048 1513.06 464.572 1516.34 Q465.096 1519.58 468.418 1522.9 Q471.741 1526.22 474.998 1526.76 Q478.256 1527.27 480.645 1524.88 Q483.035 1522.49 482.511 1519.25 Q481.988 1515.98 478.665 1512.65 Z" fill="#000000" fill-rule="nonzero" fill-opacity="1" /><path clip-path="url(#clip780)" d="M475.375 1487.17 L480.58 1492.37 L486.783 1486.17 L489.124 1488.51 L482.921 1494.71 L492.872 1504.67 Q495.115 1506.91 496.359 1506.94 Q497.619 1506.96 499.502 1505.08 L502.595 1501.98 L505.116 1504.5 L502.022 1507.6 Q498.536 1511.08 495.917 1511.12 Q493.282 1511.13 489.844 1507.69 L479.892 1497.74 L477.683 1499.95 L475.342 1497.61 L477.552 1495.4 L472.347 1490.2 L475.375 1487.17 Z" fill="#000000" fill-rule="nonzero" fill-opacity="1" /><path clip-path="url(#clip780)" d="M490.745 1482.21 L493.756 1479.2 L512.089 1497.53 L509.077 1500.54 L490.745 1482.21 M483.608 1475.07 L486.62 1472.06 L490.434 1475.87 L487.422 1478.89 L483.608 1475.07 Z" fill="#000000" fill-rule="nonzero" fill-opacity="1" /><path clip-path="url(#clip780)" d="M517.85 1462.14 Q516.95 1458.98 517.556 1456.45 Q518.161 1453.91 520.289 1451.78 Q523.153 1448.92 526.722 1449.37 Q530.274 1449.82 533.973 1453.52 L545.038 1464.58 L542.01 1467.61 L531.043 1456.64 Q528.408 1454.01 526.198 1453.66 Q523.988 1453.32 522.073 1455.23 Q519.733 1457.57 519.929 1460.49 Q520.125 1463.4 522.81 1466.09 L533.171 1476.45 L530.143 1479.48 L519.176 1468.51 Q516.524 1465.86 514.331 1465.53 Q512.121 1465.19 510.174 1467.13 Q507.866 1469.44 508.078 1472.37 Q508.275 1475.29 510.943 1477.95 L521.304 1488.31 L518.276 1491.34 L499.943 1473.01 L502.972 1469.98 L505.82 1472.83 Q505.165 1470.11 505.803 1467.87 Q506.442 1465.63 508.422 1463.65 Q510.419 1461.65 512.825 1461.27 Q515.248 1460.88 517.85 1462.14 Z" fill="#000000" fill-rule="nonzero" fill-opacity="1" /><path clip-path="url(#clip780)" d="M532.712 1440.24 L535.724 1437.23 L554.056 1455.56 L551.045 1458.57 L532.712 1440.24 M525.576 1433.1 L528.588 1430.09 L532.401 1433.91 L529.39 1436.92 L525.576 1433.1 Z" fill="#000000" fill-rule="nonzero" fill-opacity="1" /><path clip-path="url(#clip780)" d="M540.716 1432.24 L555.022 1417.93 L557.772 1420.68 L559.622 1445.18 L570.948 1433.86 L573.354 1436.26 L558.64 1450.98 L555.89 1448.23 L554.04 1423.73 L543.123 1434.64 L540.716 1432.24 Z" fill="#000000" fill-rule="nonzero" fill-opacity="1" /><path clip-path="url(#clip780)" d="M583.716 1406.06 L585.189 1407.54 L571.341 1421.39 Q574.648 1424.3 577.954 1424.27 Q581.26 1424.2 584.256 1421.21 Q585.991 1419.47 587.186 1417.42 Q588.397 1415.36 589.15 1412.91 L591.998 1415.75 Q591.065 1418.06 589.723 1420.12 Q588.38 1422.19 586.629 1423.94 Q582.242 1428.33 577.119 1428.34 Q572.012 1428.34 567.658 1423.99 Q563.157 1419.49 562.944 1414.43 Q562.732 1409.34 566.856 1405.21 Q570.556 1401.51 575.09 1401.76 Q579.623 1401.97 583.716 1406.06 M579.82 1408.19 Q577.316 1405.75 574.484 1405.64 Q571.669 1405.51 569.443 1407.73 Q566.922 1410.25 566.824 1413.2 Q566.742 1416.13 569.099 1418.95 L579.82 1408.19 Z" fill="#000000" fill-rule="nonzero" fill-opacity="1" /><path clip-path="url(#clip780)" d="M595.091 1383.43 L585.172 1373.51 L588.184 1370.5 L613.653 1395.97 L610.641 1398.98 L607.891 1396.23 Q608.579 1398.81 607.924 1401.07 Q607.269 1403.3 605.24 1405.33 Q601.917 1408.65 597.17 1408.09 Q592.44 1407.52 588.119 1403.2 Q583.797 1398.88 583.224 1394.15 Q582.668 1389.4 585.991 1386.08 Q588.02 1384.05 590.263 1383.41 Q592.505 1382.74 595.091 1383.43 M591.228 1400.09 Q594.551 1403.41 597.808 1403.95 Q601.066 1404.46 603.455 1402.07 Q605.845 1399.68 605.338 1396.42 Q604.814 1393.15 601.491 1389.83 Q598.169 1386.5 594.911 1386 Q591.638 1385.47 589.248 1387.86 Q586.858 1390.25 587.382 1393.53 Q587.906 1396.77 591.228 1400.09 Z" fill="#000000" fill-rule="nonzero" fill-opacity="1" /><path clip-path="url(#clip780)" d="M612.311 1346.44 Q613.882 1352.39 616.501 1357.14 Q619.12 1361.89 622.901 1365.67 Q626.682 1369.45 631.461 1372.1 Q636.241 1374.72 642.166 1376.29 L639.547 1378.91 Q633.245 1377.52 628.302 1375.03 Q623.375 1372.53 619.709 1368.86 Q616.059 1365.21 613.571 1360.3 Q611.083 1355.39 609.692 1349.05 L612.311 1346.44 Z" fill="#000000" fill-rule="nonzero" fill-opacity="1" /><path clip-path="url(#clip780)" d="M639.465 1325.04 L642.952 1328.53 Q639.727 1328.64 637.059 1329.77 Q634.408 1330.89 632.28 1333.01 Q628.089 1337.2 628.433 1342 Q628.761 1346.78 633.606 1351.62 Q638.434 1356.45 643.23 1356.8 Q648.01 1357.12 652.2 1352.93 Q654.328 1350.81 655.441 1348.15 Q656.57 1345.49 656.685 1342.26 L660.138 1345.72 Q659.582 1348.63 658.223 1351.17 Q656.881 1353.69 654.72 1355.85 Q649.172 1361.4 642.592 1361.2 Q635.995 1360.99 630.119 1355.11 Q624.227 1349.22 624.03 1342.64 Q623.817 1336.04 629.366 1330.49 Q631.56 1328.3 634.08 1326.96 Q636.601 1325.58 639.465 1325.04 Z" fill="#000000" fill-rule="nonzero" fill-opacity="1" /><path clip-path="url(#clip780)" d="M641.086 1317.66 L643.705 1315.04 Q650.023 1316.45 654.933 1318.94 Q659.86 1321.41 663.51 1325.06 Q667.177 1328.73 669.665 1333.67 Q672.169 1338.6 673.56 1344.9 L670.941 1347.52 Q669.37 1341.59 666.735 1336.83 Q664.099 1332.03 660.318 1328.25 Q656.537 1324.47 651.774 1321.87 Q647.027 1319.25 641.086 1317.66 Z" fill="#000000" fill-rule="nonzero" fill-opacity="1" /><path clip-path="url(#clip780)" d="M912.592 1441.5 L923.657 1452.57 L920.645 1455.58 L909.678 1444.61 Q907.076 1442.01 904.768 1441.73 Q902.46 1441.45 900.43 1443.48 Q897.991 1445.92 898.139 1448.88 Q898.286 1451.85 900.97 1454.53 L911.331 1464.89 L908.303 1467.92 L889.971 1449.59 L892.999 1446.56 L895.847 1449.41 Q895.274 1446.67 895.913 1444.4 Q896.567 1442.11 898.482 1440.19 Q901.641 1437.03 905.226 1437.38 Q908.794 1437.7 912.592 1441.5 Z" fill="#000000" fill-rule="nonzero" fill-opacity="1" /><path clip-path="url(#clip780)" d="M928.78 1429.01 Q925.13 1432.66 924.557 1434.91 Q923.984 1437.15 925.997 1439.16 Q927.601 1440.76 929.598 1440.67 Q931.595 1440.54 933.412 1438.72 Q935.916 1436.21 935.654 1432.94 Q935.392 1429.63 932.446 1426.69 L931.775 1426.02 L928.78 1429.01 M933.543 1421.76 L944.002 1432.22 L940.99 1435.23 L938.208 1432.45 Q938.846 1435.15 938.11 1437.49 Q937.357 1439.82 935.131 1442.04 Q932.315 1444.86 929.074 1444.96 Q925.833 1445.02 923.182 1442.37 Q920.088 1439.28 920.579 1435.64 Q921.087 1431.99 925.195 1427.88 L929.418 1423.66 L929.123 1423.37 Q927.045 1421.29 924.54 1421.53 Q922.036 1421.75 919.564 1424.22 Q917.993 1425.79 916.88 1427.65 Q915.767 1429.52 915.145 1431.65 L912.363 1428.87 Q913.377 1426.57 914.621 1424.71 Q915.849 1422.83 917.322 1421.35 Q921.3 1417.37 925.326 1417.47 Q929.353 1417.57 933.543 1421.76 Z" fill="#000000" fill-rule="nonzero" fill-opacity="1" /><path clip-path="url(#clip780)" d="M931.873 1407.68 L934.885 1404.67 L953.217 1423.01 L950.206 1426.02 L931.873 1407.68 M924.737 1400.55 L927.749 1397.54 L931.562 1401.35 L928.551 1404.36 L924.737 1400.55 Z" fill="#000000" fill-rule="nonzero" fill-opacity="1" /><path clip-path="url(#clip780)" d="M939.026 1400.53 L942.218 1397.34 L963.333 1407 L953.676 1385.88 L956.867 1382.69 L968.325 1407.9 L964.233 1411.99 L939.026 1400.53 Z" fill="#000000" fill-rule="nonzero" fill-opacity="1" /><path clip-path="url(#clip780)" d="M985.119 1371.27 L986.592 1372.74 L972.745 1386.59 Q976.051 1389.5 979.357 1389.47 Q982.664 1389.4 985.659 1386.41 Q987.394 1384.67 988.589 1382.63 Q989.8 1380.56 990.553 1378.11 L993.401 1380.96 Q992.468 1383.26 991.126 1385.33 Q989.784 1387.39 988.032 1389.14 Q983.646 1393.53 978.522 1393.54 Q973.416 1393.54 969.062 1389.19 Q964.56 1384.69 964.348 1379.63 Q964.135 1374.54 968.26 1370.41 Q971.959 1366.72 976.493 1366.96 Q981.027 1367.17 985.119 1371.27 M981.223 1373.39 Q978.719 1370.95 975.887 1370.84 Q973.072 1370.71 970.846 1372.94 Q968.325 1375.46 968.227 1378.4 Q968.145 1381.33 970.502 1384.15 L981.223 1373.39 Z" fill="#000000" fill-rule="nonzero" fill-opacity="1" /><path clip-path="url(#clip780)" d="M992.435 1332.92 Q994.007 1338.87 996.626 1343.62 Q999.245 1348.37 1003.03 1352.15 Q1006.81 1355.93 1011.59 1358.58 Q1016.37 1361.2 1022.29 1362.77 L1019.67 1365.39 Q1013.37 1364 1008.43 1361.51 Q1003.5 1359.01 999.834 1355.34 Q996.184 1351.69 993.696 1346.78 Q991.208 1341.87 989.816 1335.53 L992.435 1332.92 Z" fill="#000000" fill-rule="nonzero" fill-opacity="1" /><path clip-path="url(#clip780)" d="M999.408 1327.94 L1002.71 1324.63 L1025.45 1347.37 Q1029.87 1351.79 1030.18 1355.47 Q1030.51 1359.14 1026.79 1362.85 L1025.53 1364.11 L1022.75 1361.33 L1023.78 1360.3 Q1025.97 1358.11 1025.65 1355.98 Q1025.32 1353.85 1022.14 1350.67 L999.408 1327.94 Z" fill="#000000" fill-rule="nonzero" fill-opacity="1" /><path clip-path="url(#clip780)" d="M1007.69 1317.66 L1010.31 1315.04 Q1016.63 1316.45 1021.54 1318.94 Q1026.46 1321.41 1030.11 1325.06 Q1033.78 1328.73 1036.27 1333.67 Q1038.77 1338.6 1040.16 1344.9 L1037.55 1347.52 Q1035.97 1341.59 1033.34 1336.83 Q1030.7 1332.03 1026.92 1328.25 Q1023.14 1324.47 1018.38 1321.87 Q1013.63 1319.25 1007.69 1317.66 Z" fill="#000000" fill-rule="nonzero" fill-opacity="1" /><path clip-path="url(#clip780)" d="M1129.66 1475.79 Q1127.24 1478.22 1127.73 1481.52 Q1128.21 1484.81 1131.5 1488.1 Q1134.79 1491.39 1138.08 1491.9 Q1141.37 1492.37 1143.8 1489.93 Q1146.21 1487.53 1145.72 1484.22 Q1145.23 1480.92 1141.95 1477.64 Q1138.7 1474.39 1135.39 1473.89 Q1132.07 1473.39 1129.66 1475.79 M1127.11 1473.24 Q1131.04 1469.31 1135.83 1469.62 Q1140.63 1469.93 1145.15 1474.45 Q1149.65 1478.95 1149.97 1483.76 Q1150.29 1488.56 1146.36 1492.49 Q1142.41 1496.43 1137.62 1496.12 Q1132.82 1495.78 1128.32 1491.28 Q1123.8 1486.76 1123.47 1481.98 Q1123.16 1477.18 1127.11 1473.24 Z" fill="#000000" fill-rule="nonzero" fill-opacity="1" /><path clip-path="url(#clip780)" d="M1163.46 1452.3 L1174.53 1463.37 L1171.52 1466.38 L1160.55 1455.41 Q1157.95 1452.81 1155.64 1452.53 Q1153.33 1452.26 1151.3 1454.28 Q1148.86 1456.72 1149.01 1459.69 Q1149.16 1462.65 1151.84 1465.33 L1162.2 1475.69 L1159.17 1478.72 L1140.84 1460.39 L1143.87 1457.36 L1146.72 1460.21 Q1146.14 1457.48 1146.78 1455.2 Q1147.44 1452.91 1149.35 1451 Q1152.51 1447.84 1156.1 1448.18 Q1159.66 1448.51 1163.46 1452.3 Z" fill="#000000" fill-rule="nonzero" fill-opacity="1" /><path clip-path="url(#clip780)" d="M1186.3 1431.76 L1187.77 1433.24 L1173.92 1447.08 Q1177.23 1450 1180.53 1449.96 Q1183.84 1449.9 1186.84 1446.9 Q1188.57 1445.17 1189.77 1443.12 Q1190.98 1441.06 1191.73 1438.6 L1194.58 1441.45 Q1193.65 1443.76 1192.3 1445.82 Q1190.96 1447.89 1189.21 1449.64 Q1184.82 1454.02 1179.7 1454.04 Q1174.59 1454.04 1170.24 1449.69 Q1165.74 1445.18 1165.52 1440.13 Q1165.31 1435.04 1169.44 1430.91 Q1173.14 1427.21 1177.67 1427.46 Q1182.2 1427.67 1186.3 1431.76 M1182.4 1433.89 Q1179.9 1431.45 1177.06 1431.34 Q1174.25 1431.21 1172.02 1433.43 Q1169.5 1435.95 1169.4 1438.9 Q1169.32 1441.83 1171.68 1444.64 L1182.4 1433.89 Z" fill="#000000" fill-rule="nonzero" fill-opacity="1" /><path clip-path="url(#clip780)" d="M1175.69 1411.27 L1178.7 1408.26 L1204.17 1433.73 L1201.16 1436.74 L1175.69 1411.27 Z" fill="#000000" fill-rule="nonzero" fill-opacity="1" /><path clip-path="url(#clip780)" d="M1192.14 1409.09 L1195.15 1406.08 L1213.48 1424.41 L1210.47 1427.42 L1192.14 1409.09 M1185 1401.96 L1188.01 1398.94 L1191.83 1402.76 L1188.82 1405.77 L1185 1401.96 Z" fill="#000000" fill-rule="nonzero" fill-opacity="1" /><path clip-path="url(#clip780)" d="M1223.96 1391.81 L1235.02 1402.87 L1232.01 1405.88 L1221.05 1394.92 Q1218.44 1392.32 1216.13 1392.04 Q1213.83 1391.76 1211.8 1393.79 Q1209.36 1396.23 1209.51 1399.19 Q1209.65 1402.15 1212.34 1404.84 L1222.7 1415.2 L1219.67 1418.23 L1201.34 1399.89 L1204.37 1396.87 L1207.21 1399.71 Q1206.64 1396.98 1207.28 1394.71 Q1207.93 1392.41 1209.85 1390.5 Q1213.01 1387.34 1216.59 1387.68 Q1220.16 1388.01 1223.96 1391.81 Z" fill="#000000" fill-rule="nonzero" fill-opacity="1" /><path clip-path="url(#clip780)" d="M1246.79 1371.27 L1248.27 1372.74 L1234.42 1386.59 Q1237.72 1389.5 1241.03 1389.47 Q1244.34 1389.4 1247.33 1386.41 Q1249.07 1384.67 1250.26 1382.63 Q1251.47 1380.56 1252.23 1378.11 L1255.07 1380.96 Q1254.14 1383.26 1252.8 1385.33 Q1251.46 1387.39 1249.71 1389.14 Q1245.32 1393.53 1240.2 1393.54 Q1235.09 1393.54 1230.74 1389.19 Q1226.23 1384.69 1226.02 1379.63 Q1225.81 1374.54 1229.93 1370.41 Q1233.63 1366.72 1238.17 1366.96 Q1242.7 1367.17 1246.79 1371.27 M1242.9 1373.39 Q1240.39 1370.95 1237.56 1370.84 Q1234.75 1370.71 1232.52 1372.94 Q1230 1375.46 1229.9 1378.4 Q1229.82 1381.33 1232.18 1384.15 L1242.9 1373.39 Z" fill="#000000" fill-rule="nonzero" fill-opacity="1" /><path clip-path="url(#clip780)" d="M1254.11 1332.92 Q1255.68 1338.87 1258.3 1343.62 Q1260.92 1348.37 1264.7 1352.15 Q1268.48 1355.93 1273.26 1358.58 Q1278.04 1361.2 1283.96 1362.77 L1281.35 1365.39 Q1275.04 1364 1270.1 1361.51 Q1265.17 1359.01 1261.51 1355.34 Q1257.86 1351.69 1255.37 1346.78 Q1252.88 1341.87 1251.49 1335.53 L1254.11 1332.92 Z" fill="#000000" fill-rule="nonzero" fill-opacity="1" /><path clip-path="url(#clip780)" d="M1261.08 1327.94 L1264.39 1324.63 L1287.12 1347.37 Q1291.54 1351.79 1291.85 1355.47 Q1292.18 1359.14 1288.47 1362.85 L1287.21 1364.11 L1284.42 1361.33 L1285.45 1360.3 Q1287.65 1358.11 1287.32 1355.98 Q1286.99 1353.85 1283.82 1350.67 L1261.08 1327.94 Z" fill="#000000" fill-rule="nonzero" fill-opacity="1" /><path clip-path="url(#clip780)" d="M1269.36 1317.66 L1271.98 1315.04 Q1278.3 1316.45 1283.21 1318.94 Q1288.14 1321.41 1291.79 1325.06 Q1295.45 1328.73 1297.94 1333.67 Q1300.45 1338.6 1301.84 1344.9 L1299.22 1347.52 Q1297.65 1341.59 1295.01 1336.83 Q1292.38 1332.03 1288.6 1328.25 Q1284.82 1324.47 1280.05 1321.87 Q1275.31 1319.25 1269.36 1317.66 Z" fill="#000000" fill-rule="nonzero" fill-opacity="1" /><path clip-path="url(#clip780)" d="M1455.85 1517.55 L1445.93 1507.63 L1448.95 1504.62 L1474.42 1530.09 L1471.4 1533.1 L1468.65 1530.35 Q1469.34 1532.93 1468.69 1535.19 Q1468.03 1537.42 1466 1539.45 Q1462.68 1542.77 1457.93 1542.21 Q1453.2 1541.64 1448.88 1537.32 Q1444.56 1533 1443.99 1528.27 Q1443.43 1523.52 1446.75 1520.2 Q1448.78 1518.17 1451.03 1517.53 Q1453.27 1516.86 1455.85 1517.55 M1451.99 1534.21 Q1455.31 1537.53 1458.57 1538.07 Q1461.83 1538.58 1464.22 1536.19 Q1466.61 1533.8 1466.1 1530.54 Q1465.58 1527.27 1462.25 1523.95 Q1458.93 1520.63 1455.67 1520.12 Q1452.4 1519.59 1450.01 1521.98 Q1447.62 1524.37 1448.14 1527.65 Q1448.67 1530.89 1451.99 1534.21 Z" fill="#000000" fill-rule="nonzero" fill-opacity="1" /><path clip-path="url(#clip780)" d="M1479.73 1506.34 Q1476.08 1509.99 1475.51 1512.23 Q1474.94 1514.47 1476.95 1516.48 Q1478.56 1518.09 1480.55 1517.99 Q1482.55 1517.86 1484.37 1516.04 Q1486.87 1513.54 1486.61 1510.26 Q1486.35 1506.96 1483.4 1504.01 L1482.73 1503.34 L1479.73 1506.34 M1484.5 1499.08 L1494.96 1509.54 L1491.95 1512.56 L1489.16 1509.77 Q1489.8 1512.47 1489.06 1514.81 Q1488.31 1517.14 1486.09 1519.36 Q1483.27 1522.18 1480.03 1522.28 Q1476.79 1522.34 1474.14 1519.69 Q1471.04 1516.6 1471.53 1512.96 Q1472.04 1509.31 1476.15 1505.21 L1480.37 1500.98 L1480.08 1500.69 Q1478 1498.61 1475.5 1498.86 Q1472.99 1499.07 1470.52 1501.54 Q1468.95 1503.11 1467.84 1504.98 Q1466.72 1506.84 1466.1 1508.97 L1463.32 1506.19 Q1464.33 1503.9 1465.58 1502.03 Q1466.8 1500.15 1468.28 1498.68 Q1472.25 1494.7 1476.28 1494.8 Q1480.31 1494.89 1484.5 1499.08 Z" fill="#000000" fill-rule="nonzero" fill-opacity="1" /><path clip-path="url(#clip780)" d="M1496.73 1472.52 L1499.54 1475.33 Q1497.56 1475.91 1495.92 1476.86 Q1494.29 1477.77 1492.98 1479.08 Q1490.05 1482.01 1490.29 1485.5 Q1490.52 1488.97 1493.88 1492.32 Q1497.23 1495.68 1500.72 1495.93 Q1504.19 1496.15 1507.12 1493.22 Q1508.43 1491.92 1509.36 1490.29 Q1510.29 1488.64 1510.87 1486.66 L1513.65 1489.44 Q1512.98 1491.29 1511.91 1492.95 Q1510.87 1494.58 1509.34 1496.11 Q1505.2 1500.25 1500.16 1500.08 Q1495.12 1499.92 1490.7 1495.5 Q1486.22 1491.02 1486.1 1485.99 Q1486 1480.95 1490.29 1476.66 Q1491.68 1475.27 1493.3 1474.24 Q1494.91 1473.19 1496.73 1472.52 Z" fill="#000000" fill-rule="nonzero" fill-opacity="1" /><path clip-path="url(#clip780)" d="M1525.35 1459.31 L1526.83 1460.78 L1512.98 1474.63 Q1516.28 1477.54 1519.59 1477.51 Q1522.9 1477.45 1525.89 1474.45 Q1527.63 1472.72 1528.82 1470.67 Q1530.03 1468.61 1530.79 1466.15 L1533.64 1469 Q1532.7 1471.31 1531.36 1473.37 Q1530.02 1475.43 1528.27 1477.18 Q1523.88 1481.57 1518.76 1481.59 Q1513.65 1481.59 1509.3 1477.23 Q1504.79 1472.73 1504.58 1467.67 Q1504.37 1462.58 1508.49 1458.46 Q1512.19 1454.76 1516.73 1455.01 Q1521.26 1455.22 1525.35 1459.31 M1521.46 1461.44 Q1518.95 1459 1516.12 1458.88 Q1513.31 1458.75 1511.08 1460.98 Q1508.56 1463.5 1508.46 1466.45 Q1508.38 1469.38 1510.74 1472.19 L1521.46 1461.44 Z" fill="#000000" fill-rule="nonzero" fill-opacity="1" /><path clip-path="url(#clip780)" d="M1559.71 1455.92 L1562.05 1458.26 L1544.63 1475.68 L1542.29 1473.34 L1559.71 1455.92 Z" fill="#000000" fill-rule="nonzero" fill-opacity="1" /><path clip-path="url(#clip780)" d="M1552.54 1416.7 L1555.36 1419.52 Q1553.38 1420.09 1551.74 1421.04 Q1550.1 1421.96 1548.79 1423.27 Q1545.86 1426.2 1546.11 1429.68 Q1546.34 1433.15 1549.69 1436.51 Q1553.05 1439.86 1556.53 1440.11 Q1560 1440.34 1562.93 1437.41 Q1564.24 1436.1 1565.18 1434.48 Q1566.11 1432.83 1566.68 1430.85 L1569.47 1433.63 Q1568.79 1435.48 1567.73 1437.13 Q1566.68 1438.77 1565.16 1440.29 Q1561.02 1444.43 1555.98 1444.27 Q1550.94 1444.1 1546.52 1439.68 Q1542.03 1435.2 1541.92 1430.17 Q1541.82 1425.13 1546.11 1420.84 Q1547.5 1419.45 1549.12 1418.42 Q1550.72 1417.37 1552.54 1416.7 Z" fill="#000000" fill-rule="nonzero" fill-opacity="1" /><path clip-path="url(#clip780)" d="M1575.57 1423.43 L1585.29 1433.15 L1582.26 1436.18 L1556.96 1410.88 L1559.99 1407.85 L1562.77 1410.63 Q1562.08 1408.05 1562.74 1405.82 Q1563.39 1403.56 1565.41 1401.55 Q1568.74 1398.21 1573.48 1398.78 Q1578.22 1399.34 1582.54 1403.66 Q1586.86 1407.98 1587.42 1412.73 Q1587.99 1417.46 1584.65 1420.8 Q1582.64 1422.81 1580.4 1423.48 Q1578.16 1424.12 1575.57 1423.43 M1579.42 1406.78 Q1576.09 1403.46 1572.84 1402.95 Q1569.58 1402.41 1567.19 1404.8 Q1564.8 1407.19 1565.32 1410.47 Q1565.85 1413.71 1569.17 1417.03 Q1572.49 1420.35 1575.75 1420.89 Q1579.01 1421.4 1581.4 1419.01 Q1583.79 1416.62 1583.26 1413.38 Q1582.74 1410.11 1579.42 1406.78 Z" fill="#000000" fill-rule="nonzero" fill-opacity="1" /><path clip-path="url(#clip780)" d="M1589.14 1400.89 L1578.04 1389.79 L1581.05 1386.78 L1592.04 1397.77 Q1594.64 1400.37 1596.96 1400.66 Q1599.27 1400.94 1601.3 1398.91 Q1603.74 1396.47 1603.59 1393.51 Q1603.46 1390.53 1600.78 1387.85 L1590.38 1377.45 L1593.4 1374.44 L1611.73 1392.77 L1608.72 1395.79 L1605.9 1392.97 Q1606.47 1395.74 1605.84 1398.01 Q1605.2 1400.25 1603.28 1402.17 Q1600.12 1405.33 1596.52 1405 Q1592.92 1404.67 1589.14 1400.89 M1585.18 1381.77 L1585.18 1381.77 Z" fill="#000000" fill-rule="nonzero" fill-opacity="1" /><path clip-path="url(#clip780)" d="M1610.39 1343.24 Q1611.96 1349.2 1614.58 1353.95 Q1617.19 1358.7 1620.98 1362.48 Q1624.76 1366.26 1629.54 1368.91 Q1634.32 1371.53 1640.24 1373.1 L1637.62 1375.72 Q1631.32 1374.33 1626.38 1371.84 Q1621.45 1369.33 1617.78 1365.67 Q1614.13 1362.02 1611.65 1357.11 Q1609.16 1352.2 1607.77 1345.86 L1610.39 1343.24 Z" fill="#000000" fill-rule="nonzero" fill-opacity="1" /><path clip-path="url(#clip780)" d="M1623.38 1337.68 L1632.56 1346.86 L1636.72 1342.7 Q1639.03 1340.4 1639.1 1337.94 Q1639.16 1335.49 1636.95 1333.28 Q1634.76 1331.08 1632.3 1331.15 Q1629.85 1331.21 1627.54 1333.52 L1623.38 1337.68 M1617.36 1338.27 L1624.82 1330.8 Q1628.93 1326.7 1632.89 1326.47 Q1636.85 1326.2 1640.44 1329.79 Q1644.05 1333.41 1643.79 1337.37 Q1643.55 1341.31 1639.44 1345.42 L1635.28 1349.58 L1645.1 1359.4 L1641.8 1362.71 L1617.36 1338.27 Z" fill="#000000" fill-rule="nonzero" fill-opacity="1" /><path clip-path="url(#clip780)" d="M1635.97 1317.66 L1638.59 1315.04 Q1644.91 1316.45 1649.82 1318.94 Q1654.74 1321.41 1658.39 1325.06 Q1662.06 1328.73 1664.55 1333.67 Q1667.05 1338.6 1668.44 1344.9 L1665.82 1347.52 Q1664.25 1341.59 1661.62 1336.83 Q1658.98 1332.03 1655.2 1328.25 Q1651.42 1324.47 1646.66 1321.87 Q1641.91 1319.25 1635.97 1317.66 Z" fill="#000000" fill-rule="nonzero" fill-opacity="1" /><path clip-path="url(#clip780)" d="M1766.81 1477.23 L1777.88 1488.3 L1774.86 1491.31 L1763.9 1480.34 Q1761.3 1477.74 1758.99 1477.46 Q1756.68 1477.18 1754.65 1479.21 Q1752.21 1481.65 1752.36 1484.62 Q1752.51 1487.58 1755.19 1490.26 L1765.55 1500.62 L1762.52 1503.65 L1744.19 1485.32 L1747.22 1482.29 L1750.07 1485.14 Q1749.49 1482.41 1750.13 1480.13 Q1750.79 1477.84 1752.7 1475.92 Q1755.86 1472.76 1759.45 1473.11 Q1763.01 1473.44 1766.81 1477.23 Z" fill="#000000" fill-rule="nonzero" fill-opacity="1" /><path clip-path="url(#clip780)" d="M1776.34 1475.37 L1765.24 1464.27 L1768.25 1461.26 L1779.24 1472.24 Q1781.84 1474.84 1784.16 1475.14 Q1786.47 1475.42 1788.5 1473.39 Q1790.94 1470.95 1790.79 1467.99 Q1790.66 1465.01 1787.98 1462.32 L1777.58 1451.93 L1780.59 1448.92 L1798.93 1467.25 L1795.91 1470.26 L1793.1 1467.44 Q1793.67 1470.21 1793.03 1472.49 Q1792.4 1474.73 1790.48 1476.64 Q1787.32 1479.8 1783.72 1479.48 Q1780.12 1479.15 1776.34 1475.37 M1772.38 1456.25 L1772.38 1456.25 Z" fill="#000000" fill-rule="nonzero" fill-opacity="1" /><path clip-path="url(#clip780)" d="M1804.59 1431.96 Q1803.69 1428.8 1804.29 1426.26 Q1804.9 1423.73 1807.03 1421.6 Q1809.89 1418.73 1813.46 1419.19 Q1817.01 1419.63 1820.71 1423.33 L1831.78 1434.4 L1828.75 1437.43 L1817.78 1426.46 Q1815.15 1423.82 1812.94 1423.48 Q1810.73 1423.14 1808.81 1425.05 Q1806.47 1427.39 1806.67 1430.31 Q1806.86 1433.22 1809.55 1435.9 L1819.91 1446.26 L1816.88 1449.29 L1805.92 1438.33 Q1803.26 1435.67 1801.07 1435.35 Q1798.86 1435 1796.91 1436.95 Q1794.6 1439.26 1794.82 1442.19 Q1795.01 1445.1 1797.68 1447.77 L1808.04 1458.13 L1805.02 1461.16 L1786.68 1442.83 L1789.71 1439.8 L1792.56 1442.65 Q1791.9 1439.93 1792.54 1437.69 Q1793.18 1435.45 1795.16 1433.46 Q1797.16 1431.47 1799.56 1431.09 Q1801.99 1430.7 1804.59 1431.96 Z" fill="#000000" fill-rule="nonzero" fill-opacity="1" /><path clip-path="url(#clip780)" d="M1841.79 1406.08 Q1838.47 1402.76 1835.21 1402.25 Q1831.96 1401.71 1829.57 1404.1 Q1827.18 1406.49 1827.7 1409.76 Q1828.23 1413 1831.55 1416.33 Q1834.87 1419.65 1838.13 1420.19 Q1841.39 1420.7 1843.77 1418.31 Q1846.16 1415.92 1845.64 1412.68 Q1845.12 1409.4 1841.79 1406.08 M1825.15 1409.93 Q1824.46 1407.34 1825.12 1405.12 Q1825.77 1402.86 1827.78 1400.84 Q1831.12 1397.5 1835.85 1398.08 Q1840.6 1398.63 1844.92 1402.95 Q1849.24 1407.28 1849.8 1412.02 Q1850.37 1416.75 1847.03 1420.09 Q1845.02 1422.11 1842.78 1422.78 Q1840.53 1423.41 1837.95 1422.73 L1840.7 1425.48 L1837.67 1428.51 L1812.2 1403.04 L1815.23 1400.01 L1825.15 1409.93 Z" fill="#000000" fill-rule="nonzero" fill-opacity="1" /><path clip-path="url(#clip780)" d="M1858.18 1389.57 Q1854.53 1393.22 1853.96 1395.46 Q1853.38 1397.7 1855.4 1399.71 Q1857 1401.32 1859 1401.22 Q1860.99 1401.09 1862.81 1399.27 Q1865.32 1396.77 1865.05 1393.49 Q1864.79 1390.19 1861.85 1387.24 L1861.17 1386.57 L1858.18 1389.57 M1862.94 1382.31 L1873.4 1392.77 L1870.39 1395.79 L1867.61 1393 Q1868.25 1395.7 1867.51 1398.04 Q1866.76 1400.37 1864.53 1402.59 Q1861.71 1405.41 1858.47 1405.51 Q1855.23 1405.57 1852.58 1402.92 Q1849.49 1399.83 1849.98 1396.19 Q1850.49 1392.54 1854.59 1388.44 L1858.82 1384.21 L1858.52 1383.92 Q1856.44 1381.84 1853.94 1382.09 Q1851.44 1382.3 1848.96 1384.77 Q1847.39 1386.34 1846.28 1388.21 Q1845.17 1390.07 1844.54 1392.2 L1841.76 1389.42 Q1842.78 1387.13 1844.02 1385.26 Q1845.25 1383.38 1846.72 1381.91 Q1850.7 1377.93 1854.73 1378.03 Q1858.75 1378.12 1862.94 1382.31 Z" fill="#000000" fill-rule="nonzero" fill-opacity="1" /><path clip-path="url(#clip780)" d="M1872.06 1343.24 Q1873.63 1349.2 1876.25 1353.95 Q1878.87 1358.7 1882.65 1362.48 Q1886.43 1366.26 1891.21 1368.91 Q1895.99 1371.53 1901.91 1373.1 L1899.3 1375.72 Q1892.99 1374.33 1888.05 1371.84 Q1883.12 1369.33 1879.46 1365.67 Q1875.81 1362.02 1873.32 1357.11 Q1870.83 1352.2 1869.44 1345.86 L1872.06 1343.24 Z" fill="#000000" fill-rule="nonzero" fill-opacity="1" /><path clip-path="url(#clip780)" d="M1885.06 1337.68 L1894.24 1346.86 L1898.4 1342.7 Q1900.7 1340.4 1900.77 1337.94 Q1900.83 1335.49 1898.62 1333.28 Q1896.43 1331.08 1893.98 1331.15 Q1891.52 1331.21 1889.21 1333.52 L1885.06 1337.68 M1879.03 1338.27 L1886.5 1330.8 Q1890.6 1326.7 1894.57 1326.47 Q1898.53 1326.2 1902.11 1329.79 Q1905.73 1333.41 1905.47 1337.37 Q1905.22 1341.31 1901.11 1345.42 L1896.95 1349.58 L1906.78 1359.4 L1903.47 1362.71 L1879.03 1338.27 Z" fill="#000000" fill-rule="nonzero" fill-opacity="1" /><path clip-path="url(#clip780)" d="M1897.64 1317.66 L1900.26 1315.04 Q1906.58 1316.45 1911.49 1318.94 Q1916.42 1321.41 1920.07 1325.06 Q1923.73 1328.73 1926.22 1333.67 Q1928.73 1338.6 1930.12 1344.9 L1927.5 1347.52 Q1925.93 1341.59 1923.29 1336.83 Q1920.66 1332.03 1916.87 1328.25 Q1913.09 1324.47 1908.33 1321.87 Q1903.58 1319.25 1897.64 1317.66 Z" fill="#000000" fill-rule="nonzero" fill-opacity="1" /><path clip-path="url(#clip780)" d="M2029.19 1476.53 L2040.25 1487.59 L2037.24 1490.61 L2026.28 1479.64 Q2023.67 1477.04 2021.37 1476.76 Q2019.06 1476.48 2017.03 1478.51 Q2014.59 1480.95 2014.74 1483.91 Q2014.88 1486.87 2017.57 1489.56 L2027.93 1499.92 L2024.9 1502.95 L2006.57 1484.62 L2009.6 1481.59 L2012.44 1484.44 Q2011.87 1481.7 2012.51 1479.43 Q2013.16 1477.13 2015.08 1475.22 Q2018.24 1472.06 2021.82 1472.4 Q2025.39 1472.73 2029.19 1476.53 Z" fill="#000000" fill-rule="nonzero" fill-opacity="1" /><path clip-path="url(#clip780)" d="M2038.72 1474.66 L2027.62 1463.57 L2030.63 1460.55 L2041.61 1471.54 Q2044.22 1474.14 2046.54 1474.43 Q2048.85 1474.71 2050.88 1472.68 Q2053.32 1470.24 2053.17 1467.28 Q2053.04 1464.3 2050.35 1461.62 L2039.96 1451.22 L2042.97 1448.21 L2061.3 1466.54 L2058.29 1469.56 L2055.48 1466.74 Q2056.05 1469.51 2055.41 1471.78 Q2054.77 1474.02 2052.86 1475.94 Q2049.7 1479.1 2046.1 1478.77 Q2042.5 1478.44 2038.72 1474.66 M2034.75 1455.55 L2034.75 1455.55 Z" fill="#000000" fill-rule="nonzero" fill-opacity="1" /><path clip-path="url(#clip780)" d="M2066.97 1431.26 Q2066.07 1428.1 2066.67 1425.56 Q2067.28 1423.02 2069.41 1420.89 Q2072.27 1418.03 2075.84 1418.49 Q2079.39 1418.93 2083.09 1422.63 L2094.15 1433.69 L2091.13 1436.72 L2080.16 1425.76 Q2077.52 1423.12 2075.31 1422.78 Q2073.1 1422.43 2071.19 1424.35 Q2068.85 1426.69 2069.05 1429.6 Q2069.24 1432.52 2071.93 1435.2 L2082.29 1445.56 L2079.26 1448.59 L2068.29 1437.62 Q2065.64 1434.97 2063.45 1434.64 Q2061.24 1434.3 2059.29 1436.25 Q2056.98 1438.56 2057.2 1441.49 Q2057.39 1444.4 2060.06 1447.07 L2070.42 1457.43 L2067.39 1460.46 L2049.06 1442.12 L2052.09 1439.1 L2054.94 1441.94 Q2054.28 1439.23 2054.92 1436.98 Q2055.56 1434.74 2057.54 1432.76 Q2059.54 1430.76 2061.94 1430.39 Q2064.36 1429.99 2066.97 1431.26 Z" fill="#000000" fill-rule="nonzero" fill-opacity="1" /><path clip-path="url(#clip780)" d="M2100.33 1422.02 L2110.05 1431.75 L2107.02 1434.77 L2081.71 1409.47 L2084.74 1406.44 L2087.53 1409.22 Q2086.84 1406.64 2087.49 1404.41 Q2088.15 1402.15 2090.16 1400.14 Q2093.5 1396.8 2098.23 1397.37 Q2102.98 1397.93 2107.3 1402.25 Q2111.62 1406.57 2112.18 1411.32 Q2112.75 1416.05 2109.41 1419.39 Q2107.4 1421.4 2105.15 1422.07 Q2102.91 1422.71 2100.33 1422.02 M2104.17 1405.38 Q2100.85 1402.05 2097.59 1401.55 Q2094.33 1401.01 2091.94 1403.4 Q2089.55 1405.79 2090.08 1409.06 Q2090.6 1412.3 2093.93 1415.62 Q2097.25 1418.95 2100.51 1419.49 Q2103.76 1419.99 2106.15 1417.6 Q2108.54 1415.21 2108.02 1411.97 Q2107.49 1408.7 2104.17 1405.38 Z" fill="#000000" fill-rule="nonzero" fill-opacity="1" /><path clip-path="url(#clip780)" d="M2130.77 1400.48 Q2132.77 1405.03 2132.55 1407.24 Q2132.34 1409.45 2130.31 1411.48 L2127.91 1413.89 L2125.38 1411.37 L2127.15 1409.6 Q2128.4 1408.36 2128.49 1407.08 Q2128.59 1405.8 2127.23 1402.77 L2126.4 1400.86 L2100.95 1390.24 L2104.14 1387.04 L2124.21 1395.65 L2115.6 1375.59 L2118.79 1372.4 L2130.77 1400.48 Z" fill="#000000" fill-rule="nonzero" fill-opacity="1" /><path clip-path="url(#clip780)" d="M2133.73 1343.24 Q2135.3 1349.2 2137.92 1353.95 Q2140.54 1358.7 2144.32 1362.48 Q2148.1 1366.26 2152.88 1368.91 Q2157.66 1371.53 2163.59 1373.1 L2160.97 1375.72 Q2154.67 1374.33 2149.72 1371.84 Q2144.8 1369.33 2141.13 1365.67 Q2137.48 1362.02 2134.99 1357.11 Q2132.5 1352.2 2131.11 1345.86 L2133.73 1343.24 Z" fill="#000000" fill-rule="nonzero" fill-opacity="1" /><path clip-path="url(#clip780)" d="M2146.73 1337.68 L2155.91 1346.86 L2160.07 1342.7 Q2162.38 1340.4 2162.44 1337.94 Q2162.51 1335.49 2160.3 1333.28 Q2158.1 1331.08 2155.65 1331.15 Q2153.19 1331.21 2150.89 1333.52 L2146.73 1337.68 M2140.71 1338.27 L2148.17 1330.8 Q2152.28 1326.7 2156.24 1326.47 Q2160.2 1326.2 2163.78 1329.79 Q2167.4 1333.41 2167.14 1337.37 Q2166.89 1341.31 2162.79 1345.42 L2158.63 1349.58 L2168.45 1359.4 L2165.14 1362.71 L2140.71 1338.27 Z" fill="#000000" fill-rule="nonzero" fill-opacity="1" /><path clip-path="url(#clip780)" d="M2159.32 1317.66 L2161.93 1315.04 Q2168.25 1316.45 2173.16 1318.94 Q2178.09 1321.41 2181.74 1325.06 Q2185.41 1328.73 2187.89 1333.67 Q2190.4 1338.6 2191.79 1344.9 L2189.17 1347.52 Q2187.6 1341.59 2184.96 1336.83 Q2182.33 1332.03 2178.55 1328.25 Q2174.77 1324.47 2170 1321.87 Q2165.26 1319.25 2159.32 1317.66 Z" fill="#000000" fill-rule="nonzero" fill-opacity="1" /><polyline clip-path="url(#clip782)" style="stroke:#000000; stroke-linecap:round; stroke-linejoin:round; stroke-width:2; stroke-opacity:0.1; fill:none" points="235.283,1285.84 2352.76,1285.84 "/>
<polyline clip-path="url(#clip782)" style="stroke:#000000; stroke-linecap:round; stroke-linejoin:round; stroke-width:2; stroke-opacity:0.1; fill:none" points="235.283,1080.53 2352.76,1080.53 "/>
<polyline clip-path="url(#clip782)" style="stroke:#000000; stroke-linecap:round; stroke-linejoin:round; stroke-width:2; stroke-opacity:0.1; fill:none" points="235.283,875.219 2352.76,875.219 "/>
<polyline clip-path="url(#clip782)" style="stroke:#000000; stroke-linecap:round; stroke-linejoin:round; stroke-width:2; stroke-opacity:0.1; fill:none" points="235.283,669.911 2352.76,669.911 "/>
<polyline clip-path="url(#clip782)" style="stroke:#000000; stroke-linecap:round; stroke-linejoin:round; stroke-width:2; stroke-opacity:0.1; fill:none" points="235.283,464.602 2352.76,464.602 "/>
<polyline clip-path="url(#clip782)" style="stroke:#000000; stroke-linecap:round; stroke-linejoin:round; stroke-width:2; stroke-opacity:0.1; fill:none" points="235.283,259.294 2352.76,259.294 "/>
<polyline clip-path="url(#clip780)" style="stroke:#000000; stroke-linecap:round; stroke-linejoin:round; stroke-width:4; stroke-opacity:1; fill:none" points="235.283,1285.84 235.283,123.472 "/>
<polyline clip-path="url(#clip780)" style="stroke:#000000; stroke-linecap:round; stroke-linejoin:round; stroke-width:4; stroke-opacity:1; fill:none" points="235.283,1285.84 254.18,1285.84 "/>
<polyline clip-path="url(#clip780)" style="stroke:#000000; stroke-linecap:round; stroke-linejoin:round; stroke-width:4; stroke-opacity:1; fill:none" points="235.283,1080.53 254.18,1080.53 "/>
<polyline clip-path="url(#clip780)" style="stroke:#000000; stroke-linecap:round; stroke-linejoin:round; stroke-width:4; stroke-opacity:1; fill:none" points="235.283,875.219 254.18,875.219 "/>
<polyline clip-path="url(#clip780)" style="stroke:#000000; stroke-linecap:round; stroke-linejoin:round; stroke-width:4; stroke-opacity:1; fill:none" points="235.283,669.911 254.18,669.911 "/>
<polyline clip-path="url(#clip780)" style="stroke:#000000; stroke-linecap:round; stroke-linejoin:round; stroke-width:4; stroke-opacity:1; fill:none" points="235.283,464.602 254.18,464.602 "/>
<polyline clip-path="url(#clip780)" style="stroke:#000000; stroke-linecap:round; stroke-linejoin:round; stroke-width:4; stroke-opacity:1; fill:none" points="235.283,259.294 254.18,259.294 "/>
<path clip-path="url(#clip780)" d="M187.338 1271.64 Q183.727 1271.64 181.899 1275.2 Q180.093 1278.74 180.093 1285.87 Q180.093 1292.98 181.899 1296.54 Q183.727 1300.08 187.338 1300.08 Q190.973 1300.08 192.778 1296.54 Q194.607 1292.98 194.607 1285.87 Q194.607 1278.74 192.778 1275.2 Q190.973 1271.64 187.338 1271.64 M187.338 1267.93 Q193.149 1267.93 196.204 1272.54 Q199.283 1277.12 199.283 1285.87 Q199.283 1294.6 196.204 1299.2 Q193.149 1303.79 187.338 1303.79 Q181.528 1303.79 178.45 1299.2 Q175.394 1294.6 175.394 1285.87 Q175.394 1277.12 178.45 1272.54 Q181.528 1267.93 187.338 1267.93 Z" fill="#000000" fill-rule="nonzero" fill-opacity="1" /><path clip-path="url(#clip780)" d="M117.825 1093.87 L125.464 1093.87 L125.464 1067.51 L117.154 1069.17 L117.154 1064.91 L125.418 1063.25 L130.093 1063.25 L130.093 1093.87 L137.732 1093.87 L137.732 1097.81 L117.825 1097.81 L117.825 1093.87 Z" fill="#000000" fill-rule="nonzero" fill-opacity="1" /><path clip-path="url(#clip780)" d="M157.177 1066.33 Q153.566 1066.33 151.737 1069.89 Q149.931 1073.43 149.931 1080.56 Q149.931 1087.67 151.737 1091.23 Q153.566 1094.78 157.177 1094.78 Q160.811 1094.78 162.616 1091.23 Q164.445 1087.67 164.445 1080.56 Q164.445 1073.43 162.616 1069.89 Q160.811 1066.33 157.177 1066.33 M157.177 1062.62 Q162.987 1062.62 166.042 1067.23 Q169.121 1071.81 169.121 1080.56 Q169.121 1089.29 166.042 1093.9 Q162.987 1098.48 157.177 1098.48 Q151.366 1098.48 148.288 1093.9 Q145.232 1089.29 145.232 1080.56 Q145.232 1071.81 148.288 1067.23 Q151.366 1062.62 157.177 1062.62 Z" fill="#000000" fill-rule="nonzero" fill-opacity="1" /><path clip-path="url(#clip780)" d="M187.338 1066.33 Q183.727 1066.33 181.899 1069.89 Q180.093 1073.43 180.093 1080.56 Q180.093 1087.67 181.899 1091.23 Q183.727 1094.78 187.338 1094.78 Q190.973 1094.78 192.778 1091.23 Q194.607 1087.67 194.607 1080.56 Q194.607 1073.43 192.778 1069.89 Q190.973 1066.33 187.338 1066.33 M187.338 1062.62 Q193.149 1062.62 196.204 1067.23 Q199.283 1071.81 199.283 1080.56 Q199.283 1089.29 196.204 1093.9 Q193.149 1098.48 187.338 1098.48 Q181.528 1098.48 178.45 1093.9 Q175.394 1089.29 175.394 1080.56 Q175.394 1071.81 178.45 1067.23 Q181.528 1062.62 187.338 1062.62 Z" fill="#000000" fill-rule="nonzero" fill-opacity="1" /><path clip-path="url(#clip780)" d="M121.043 888.564 L137.362 888.564 L137.362 892.499 L115.418 892.499 L115.418 888.564 Q118.08 885.81 122.663 881.18 Q127.269 876.527 128.45 875.185 Q130.695 872.661 131.575 870.925 Q132.478 869.166 132.478 867.476 Q132.478 864.722 130.533 862.986 Q128.612 861.249 125.51 861.249 Q123.311 861.249 120.857 862.013 Q118.427 862.777 115.649 864.328 L115.649 859.606 Q118.473 858.472 120.927 857.893 Q123.38 857.314 125.418 857.314 Q130.788 857.314 133.982 859.999 Q137.177 862.685 137.177 867.175 Q137.177 869.305 136.367 871.226 Q135.579 873.124 133.473 875.717 Q132.894 876.388 129.792 879.606 Q126.691 882.8 121.043 888.564 Z" fill="#000000" fill-rule="nonzero" fill-opacity="1" /><path clip-path="url(#clip780)" d="M157.177 861.018 Q153.566 861.018 151.737 864.583 Q149.931 868.124 149.931 875.254 Q149.931 882.36 151.737 885.925 Q153.566 889.467 157.177 889.467 Q160.811 889.467 162.616 885.925 Q164.445 882.36 164.445 875.254 Q164.445 868.124 162.616 864.583 Q160.811 861.018 157.177 861.018 M157.177 857.314 Q162.987 857.314 166.042 861.921 Q169.121 866.504 169.121 875.254 Q169.121 883.981 166.042 888.587 Q162.987 893.171 157.177 893.171 Q151.366 893.171 148.288 888.587 Q145.232 883.981 145.232 875.254 Q145.232 866.504 148.288 861.921 Q151.366 857.314 157.177 857.314 Z" fill="#000000" fill-rule="nonzero" fill-opacity="1" /><path clip-path="url(#clip780)" d="M187.338 861.018 Q183.727 861.018 181.899 864.583 Q180.093 868.124 180.093 875.254 Q180.093 882.36 181.899 885.925 Q183.727 889.467 187.338 889.467 Q190.973 889.467 192.778 885.925 Q194.607 882.36 194.607 875.254 Q194.607 868.124 192.778 864.583 Q190.973 861.018 187.338 861.018 M187.338 857.314 Q193.149 857.314 196.204 861.921 Q199.283 866.504 199.283 875.254 Q199.283 883.981 196.204 888.587 Q193.149 893.171 187.338 893.171 Q181.528 893.171 178.45 888.587 Q175.394 883.981 175.394 875.254 Q175.394 866.504 178.45 861.921 Q181.528 857.314 187.338 857.314 Z" fill="#000000" fill-rule="nonzero" fill-opacity="1" /><path clip-path="url(#clip780)" d="M131.181 668.557 Q134.538 669.274 136.413 671.543 Q138.311 673.811 138.311 677.145 Q138.311 682.26 134.792 685.061 Q131.274 687.862 124.793 687.862 Q122.617 687.862 120.302 687.422 Q118.01 687.006 115.556 686.149 L115.556 681.635 Q117.501 682.77 119.816 683.348 Q122.13 683.927 124.654 683.927 Q129.052 683.927 131.343 682.191 Q133.658 680.455 133.658 677.145 Q133.658 674.089 131.505 672.376 Q129.376 670.64 125.556 670.64 L121.529 670.64 L121.529 666.797 L125.742 666.797 Q129.191 666.797 131.019 665.432 Q132.848 664.043 132.848 661.45 Q132.848 658.788 130.95 657.376 Q129.075 655.941 125.556 655.941 Q123.635 655.941 121.436 656.358 Q119.237 656.774 116.598 657.654 L116.598 653.487 Q119.26 652.747 121.575 652.376 Q123.913 652.006 125.973 652.006 Q131.297 652.006 134.399 654.436 Q137.501 656.844 137.501 660.964 Q137.501 663.834 135.857 665.825 Q134.214 667.793 131.181 668.557 Z" fill="#000000" fill-rule="nonzero" fill-opacity="1" /><path clip-path="url(#clip780)" d="M157.177 655.709 Q153.566 655.709 151.737 659.274 Q149.931 662.816 149.931 669.946 Q149.931 677.052 151.737 680.617 Q153.566 684.158 157.177 684.158 Q160.811 684.158 162.616 680.617 Q164.445 677.052 164.445 669.946 Q164.445 662.816 162.616 659.274 Q160.811 655.709 157.177 655.709 M157.177 652.006 Q162.987 652.006 166.042 656.612 Q169.121 661.196 169.121 669.946 Q169.121 678.672 166.042 683.279 Q162.987 687.862 157.177 687.862 Q151.366 687.862 148.288 683.279 Q145.232 678.672 145.232 669.946 Q145.232 661.196 148.288 656.612 Q151.366 652.006 157.177 652.006 Z" fill="#000000" fill-rule="nonzero" fill-opacity="1" /><path clip-path="url(#clip780)" d="M187.338 655.709 Q183.727 655.709 181.899 659.274 Q180.093 662.816 180.093 669.946 Q180.093 677.052 181.899 680.617 Q183.727 684.158 187.338 684.158 Q190.973 684.158 192.778 680.617 Q194.607 677.052 194.607 669.946 Q194.607 662.816 192.778 659.274 Q190.973 655.709 187.338 655.709 M187.338 652.006 Q193.149 652.006 196.204 656.612 Q199.283 661.196 199.283 669.946 Q199.283 678.672 196.204 683.279 Q193.149 687.862 187.338 687.862 Q181.528 687.862 178.45 683.279 Q175.394 678.672 175.394 669.946 Q175.394 661.196 178.45 656.612 Q181.528 652.006 187.338 652.006 Z" fill="#000000" fill-rule="nonzero" fill-opacity="1" /><path clip-path="url(#clip780)" d="M129.862 451.396 L118.056 469.845 L129.862 469.845 L129.862 451.396 M128.635 447.322 L134.515 447.322 L134.515 469.845 L139.445 469.845 L139.445 473.734 L134.515 473.734 L134.515 481.882 L129.862 481.882 L129.862 473.734 L114.26 473.734 L114.26 469.22 L128.635 447.322 Z" fill="#000000" fill-rule="nonzero" fill-opacity="1" /><path clip-path="url(#clip780)" d="M157.177 450.401 Q153.566 450.401 151.737 453.966 Q149.931 457.507 149.931 464.637 Q149.931 471.743 151.737 475.308 Q153.566 478.85 157.177 478.85 Q160.811 478.85 162.616 475.308 Q164.445 471.743 164.445 464.637 Q164.445 457.507 162.616 453.966 Q160.811 450.401 157.177 450.401 M157.177 446.697 Q162.987 446.697 166.042 451.304 Q169.121 455.887 169.121 464.637 Q169.121 473.364 166.042 477.97 Q162.987 482.554 157.177 482.554 Q151.366 482.554 148.288 477.97 Q145.232 473.364 145.232 464.637 Q145.232 455.887 148.288 451.304 Q151.366 446.697 157.177 446.697 Z" fill="#000000" fill-rule="nonzero" fill-opacity="1" /><path clip-path="url(#clip780)" d="M187.338 450.401 Q183.727 450.401 181.899 453.966 Q180.093 457.507 180.093 464.637 Q180.093 471.743 181.899 475.308 Q183.727 478.85 187.338 478.85 Q190.973 478.85 192.778 475.308 Q194.607 471.743 194.607 464.637 Q194.607 457.507 192.778 453.966 Q190.973 450.401 187.338 450.401 M187.338 446.697 Q193.149 446.697 196.204 451.304 Q199.283 455.887 199.283 464.637 Q199.283 473.364 196.204 477.97 Q193.149 482.554 187.338 482.554 Q181.528 482.554 178.45 477.97 Q175.394 473.364 175.394 464.637 Q175.394 455.887 178.45 451.304 Q181.528 446.697 187.338 446.697 Z" fill="#000000" fill-rule="nonzero" fill-opacity="1" /><path clip-path="url(#clip780)" d="M117.061 242.014 L135.417 242.014 L135.417 245.949 L121.343 245.949 L121.343 254.421 Q122.362 254.074 123.38 253.912 Q124.399 253.727 125.418 253.727 Q131.205 253.727 134.584 256.898 Q137.964 260.069 137.964 265.486 Q137.964 271.065 134.492 274.166 Q131.019 277.245 124.7 277.245 Q122.524 277.245 120.255 276.875 Q118.01 276.504 115.603 275.764 L115.603 271.065 Q117.686 272.199 119.908 272.754 Q122.13 273.31 124.607 273.31 Q128.612 273.31 130.95 271.203 Q133.288 269.097 133.288 265.486 Q133.288 261.875 130.95 259.768 Q128.612 257.662 124.607 257.662 Q122.732 257.662 120.857 258.079 Q119.006 258.495 117.061 259.375 L117.061 242.014 Z" fill="#000000" fill-rule="nonzero" fill-opacity="1" /><path clip-path="url(#clip780)" d="M157.177 245.092 Q153.566 245.092 151.737 248.657 Q149.931 252.199 149.931 259.329 Q149.931 266.435 151.737 270 Q153.566 273.541 157.177 273.541 Q160.811 273.541 162.616 270 Q164.445 266.435 164.445 259.329 Q164.445 252.199 162.616 248.657 Q160.811 245.092 157.177 245.092 M157.177 241.389 Q162.987 241.389 166.042 245.995 Q169.121 250.579 169.121 259.329 Q169.121 268.055 166.042 272.662 Q162.987 277.245 157.177 277.245 Q151.366 277.245 148.288 272.662 Q145.232 268.055 145.232 259.329 Q145.232 250.579 148.288 245.995 Q151.366 241.389 157.177 241.389 Z" fill="#000000" fill-rule="nonzero" fill-opacity="1" /><path clip-path="url(#clip780)" d="M187.338 245.092 Q183.727 245.092 181.899 248.657 Q180.093 252.199 180.093 259.329 Q180.093 266.435 181.899 270 Q183.727 273.541 187.338 273.541 Q190.973 273.541 192.778 270 Q194.607 266.435 194.607 259.329 Q194.607 252.199 192.778 248.657 Q190.973 245.092 187.338 245.092 M187.338 241.389 Q193.149 241.389 196.204 245.995 Q199.283 250.579 199.283 259.329 Q199.283 268.055 196.204 272.662 Q193.149 277.245 187.338 277.245 Q181.528 277.245 178.45 272.662 Q175.394 268.055 175.394 259.329 Q175.394 250.579 178.45 245.995 Q181.528 241.389 187.338 241.389 Z" fill="#000000" fill-rule="nonzero" fill-opacity="1" /><path clip-path="url(#clip780)" d="M18.0438 813.651 L24.314 813.651 Q22.5634 817.311 21.704 820.558 Q20.8447 823.804 20.8447 826.828 Q20.8447 832.08 22.8817 834.944 Q24.9187 837.777 28.6745 837.777 Q31.8255 837.777 33.4488 835.899 Q35.0402 833.989 36.0269 828.706 L36.8226 824.823 Q38.1912 817.63 41.6605 814.224 Q45.098 810.786 50.8908 810.786 Q57.7976 810.786 61.3624 815.433 Q64.9272 820.049 64.9272 828.992 Q64.9272 832.366 64.1633 836.186 Q63.3994 839.973 61.9035 844.047 L55.2831 844.047 Q57.4793 840.132 58.5933 836.377 Q59.7073 832.621 59.7073 828.992 Q59.7073 823.486 57.543 820.494 Q55.3786 817.502 51.3682 817.502 Q47.8671 817.502 45.8937 819.667 Q43.9204 821.799 42.9337 826.701 L42.1698 830.616 Q40.7375 837.809 37.682 841.024 Q34.6264 844.238 29.1837 844.238 Q22.8817 844.238 19.2532 839.814 Q15.6248 835.358 15.6248 827.56 Q15.6248 824.218 16.2295 820.749 Q16.8343 817.279 18.0438 813.651 Z" fill="#000000" fill-rule="nonzero" fill-opacity="1" /><path clip-path="url(#clip780)" d="M58.657 795.35 L77.5631 795.35 L77.5631 801.238 L28.3562 801.238 L28.3562 795.35 L33.7671 795.35 Q30.5842 793.504 29.0564 790.703 Q27.4968 787.87 27.4968 783.955 Q27.4968 777.462 32.6531 773.42 Q37.8093 769.346 46.212 769.346 Q54.6147 769.346 59.771 773.42 Q64.9272 777.462 64.9272 783.955 Q64.9272 787.87 63.3994 790.703 Q61.8398 793.504 58.657 795.35 M46.212 775.425 Q39.7508 775.425 36.0905 778.099 Q32.3984 780.74 32.3984 785.387 Q32.3984 790.034 36.0905 792.708 Q39.7508 795.35 46.212 795.35 Q52.6732 795.35 56.3653 792.708 Q60.0256 790.034 60.0256 785.387 Q60.0256 780.74 56.3653 778.099 Q52.6732 775.425 46.212 775.425 Z" fill="#000000" fill-rule="nonzero" fill-opacity="1" /><path clip-path="url(#clip780)" d="M44.7161 729.146 L47.5806 729.146 L47.5806 756.073 Q53.6281 755.691 56.8109 752.445 Q59.9619 749.166 59.9619 743.342 Q59.9619 739.968 59.1344 736.817 Q58.3069 733.634 56.6518 730.515 L62.1899 730.515 Q63.5267 733.666 64.227 736.976 Q64.9272 740.286 64.9272 743.692 Q64.9272 752.222 59.9619 757.219 Q54.9967 762.184 46.5303 762.184 Q37.7774 762.184 32.6531 757.474 Q27.4968 752.731 27.4968 744.71 Q27.4968 737.517 32.1438 733.348 Q36.7589 729.146 44.7161 729.146 M42.9973 735.003 Q38.1912 735.066 35.3266 737.708 Q32.4621 740.318 32.4621 744.647 Q32.4621 749.548 35.2312 752.508 Q38.0002 755.437 43.0292 755.882 L42.9973 735.003 Z" fill="#000000" fill-rule="nonzero" fill-opacity="1" /><path clip-path="url(#clip780)" d="M44.7161 689.042 L47.5806 689.042 L47.5806 715.969 Q53.6281 715.587 56.8109 712.341 Q59.9619 709.062 59.9619 703.238 Q59.9619 699.864 59.1344 696.713 Q58.3069 693.53 56.6518 690.411 L62.1899 690.411 Q63.5267 693.562 64.227 696.872 Q64.9272 700.182 64.9272 703.588 Q64.9272 712.118 59.9619 717.115 Q54.9967 722.08 46.5303 722.08 Q37.7774 722.08 32.6531 717.37 Q27.4968 712.627 27.4968 704.606 Q27.4968 697.413 32.1438 693.244 Q36.7589 689.042 44.7161 689.042 M42.9973 694.899 Q38.1912 694.962 35.3266 697.604 Q32.4621 700.214 32.4621 704.543 Q32.4621 709.444 35.2312 712.404 Q38.0002 715.333 43.0292 715.778 L42.9973 694.899 Z" fill="#000000" fill-rule="nonzero" fill-opacity="1" /><path clip-path="url(#clip780)" d="M33.7671 655.972 L14.479 655.972 L14.479 650.116 L64.0042 650.116 L64.0042 655.972 L58.657 655.972 Q61.8398 657.819 63.3994 660.651 Q64.9272 663.452 64.9272 667.399 Q64.9272 673.86 59.771 677.934 Q54.6147 681.976 46.212 681.976 Q37.8093 681.976 32.6531 677.934 Q27.4968 673.86 27.4968 667.399 Q27.4968 663.452 29.0564 660.651 Q30.5842 657.819 33.7671 655.972 M46.212 675.929 Q52.6732 675.929 56.3653 673.287 Q60.0256 670.614 60.0256 665.967 Q60.0256 661.32 56.3653 658.646 Q52.6732 655.972 46.212 655.972 Q39.7508 655.972 36.0905 658.646 Q32.3984 661.32 32.3984 665.967 Q32.3984 670.614 36.0905 673.287 Q39.7508 675.929 46.212 675.929 Z" fill="#000000" fill-rule="nonzero" fill-opacity="1" /><path clip-path="url(#clip780)" d="M49.9359 638.658 L28.3562 638.658 L28.3562 632.801 L49.7131 632.801 Q54.7739 632.801 57.3202 630.828 Q59.8346 628.855 59.8346 624.908 Q59.8346 620.165 56.8109 617.428 Q53.7872 614.659 48.5673 614.659 L28.3562 614.659 L28.3562 608.803 L64.0042 608.803 L64.0042 614.659 L58.5296 614.659 Q61.7762 616.792 63.3676 619.624 Q64.9272 622.425 64.9272 626.149 Q64.9272 632.292 61.1078 635.475 Q57.2883 638.658 49.9359 638.658 M27.4968 623.921 L27.4968 623.921 Z" fill="#000000" fill-rule="nonzero" fill-opacity="1" /><path clip-path="url(#clip780)" d="M58.657 591.074 L77.5631 591.074 L77.5631 596.962 L28.3562 596.962 L28.3562 591.074 L33.7671 591.074 Q30.5842 589.228 29.0564 586.427 Q27.4968 583.594 27.4968 579.679 Q27.4968 573.186 32.6531 569.144 Q37.8093 565.07 46.212 565.07 Q54.6147 565.07 59.771 569.144 Q64.9272 573.186 64.9272 579.679 Q64.9272 583.594 63.3994 586.427 Q61.8398 589.228 58.657 591.074 M46.212 571.149 Q39.7508 571.149 36.0905 573.823 Q32.3984 576.465 32.3984 581.112 Q32.3984 585.759 36.0905 588.432 Q39.7508 591.074 46.212 591.074 Q52.6732 591.074 56.3653 588.432 Q60.0256 585.759 60.0256 581.112 Q60.0256 576.465 56.3653 573.823 Q52.6732 571.149 46.212 571.149 Z" fill="#000000" fill-rule="nonzero" fill-opacity="1" /><path clip-path="url(#clip780)" d="M585.658 14.0809 L585.658 22.0612 Q580.999 19.8332 576.868 18.7395 Q572.736 17.6457 568.887 17.6457 Q562.203 17.6457 558.557 20.2383 Q554.952 22.8309 554.952 27.611 Q554.952 31.6214 557.342 33.6873 Q559.773 35.7128 566.497 36.9686 L571.439 37.9813 Q580.594 39.7232 584.929 44.1387 Q589.304 48.5136 589.304 55.8863 Q589.304 64.6767 583.39 69.2137 Q577.516 73.7508 566.133 73.7508 Q561.839 73.7508 556.978 72.7785 Q552.157 71.8063 546.972 69.9024 L546.972 61.4765 Q551.954 64.2716 556.735 65.6895 Q561.515 67.1073 566.133 67.1073 Q573.141 67.1073 576.949 64.3527 Q580.756 61.598 580.756 56.4939 Q580.756 52.0379 578.002 49.5264 Q575.288 47.0148 569.049 45.759 L564.067 44.7868 Q554.912 42.9639 550.82 39.075 Q546.729 35.1862 546.729 28.2591 Q546.729 20.2383 552.36 15.6203 Q558.031 11.0023 567.956 11.0023 Q572.209 11.0023 576.624 11.7719 Q581.04 12.5416 585.658 14.0809 Z" fill="#000000" fill-rule="nonzero" fill-opacity="1" /><path clip-path="url(#clip780)" d="M608.951 65.7705 L608.951 89.8329 L601.457 89.8329 L601.457 27.2059 L608.951 27.2059 L608.951 34.0924 Q611.3 30.0415 614.865 28.0971 Q618.47 26.1121 623.453 26.1121 Q631.717 26.1121 636.861 32.6746 Q642.047 39.2371 642.047 49.9314 Q642.047 60.6258 636.861 67.1883 Q631.717 73.7508 623.453 73.7508 Q618.47 73.7508 614.865 71.8063 Q611.3 69.8214 608.951 65.7705 M634.309 49.9314 Q634.309 41.7081 630.907 37.0496 Q627.544 32.3505 621.63 32.3505 Q615.716 32.3505 612.313 37.0496 Q608.951 41.7081 608.951 49.9314 Q608.951 58.1548 612.313 62.8538 Q615.716 67.5124 621.63 67.5124 Q627.544 67.5124 630.907 62.8538 Q634.309 58.1548 634.309 49.9314 Z" fill="#000000" fill-rule="nonzero" fill-opacity="1" /><path clip-path="url(#clip780)" d="M693.21 48.0275 L693.21 51.6733 L658.939 51.6733 Q659.425 59.3701 663.557 63.421 Q667.729 67.4314 675.142 67.4314 Q679.436 67.4314 683.447 66.3781 Q687.498 65.3249 691.468 63.2184 L691.468 70.267 Q687.457 71.9684 683.244 72.8596 Q679.031 73.7508 674.697 73.7508 Q663.84 73.7508 657.481 67.4314 Q651.161 61.1119 651.161 50.3365 Q651.161 39.1965 657.156 32.6746 Q663.192 26.1121 673.401 26.1121 Q682.556 26.1121 687.862 32.0264 Q693.21 37.9003 693.21 48.0275 M685.756 45.84 Q685.675 39.7232 682.313 36.0774 Q678.991 32.4315 673.482 32.4315 Q667.243 32.4315 663.476 35.9558 Q659.749 39.4801 659.182 45.8805 L685.756 45.84 Z" fill="#000000" fill-rule="nonzero" fill-opacity="1" /><path clip-path="url(#clip780)" d="M744.251 48.0275 L744.251 51.6733 L709.98 51.6733 Q710.466 59.3701 714.598 63.421 Q718.771 67.4314 726.184 67.4314 Q730.478 67.4314 734.488 66.3781 Q738.539 65.3249 742.509 63.2184 L742.509 70.267 Q738.499 71.9684 734.286 72.8596 Q730.073 73.7508 725.738 73.7508 Q714.882 73.7508 708.522 67.4314 Q702.203 61.1119 702.203 50.3365 Q702.203 39.1965 708.198 32.6746 Q714.234 26.1121 724.442 26.1121 Q733.597 26.1121 738.904 32.0264 Q744.251 37.9003 744.251 48.0275 M736.797 45.84 Q736.716 39.7232 733.354 36.0774 Q730.032 32.4315 724.523 32.4315 Q718.285 32.4315 714.517 35.9558 Q710.79 39.4801 710.223 45.8805 L736.797 45.84 Z" fill="#000000" fill-rule="nonzero" fill-opacity="1" /><path clip-path="url(#clip780)" d="M786.34 34.0924 L786.34 9.54393 L793.793 9.54393 L793.793 72.576 L786.34 72.576 L786.34 65.7705 Q783.99 69.8214 780.385 71.8063 Q776.82 73.7508 771.797 73.7508 Q763.574 73.7508 758.389 67.1883 Q753.244 60.6258 753.244 49.9314 Q753.244 39.2371 758.389 32.6746 Q763.574 26.1121 771.797 26.1121 Q776.82 26.1121 780.385 28.0971 Q783.99 30.0415 786.34 34.0924 M760.941 49.9314 Q760.941 58.1548 764.303 62.8538 Q767.706 67.5124 773.62 67.5124 Q779.534 67.5124 782.937 62.8538 Q786.34 58.1548 786.34 49.9314 Q786.34 41.7081 782.937 37.0496 Q779.534 32.3505 773.62 32.3505 Q767.706 32.3505 764.303 37.0496 Q760.941 41.7081 760.941 49.9314 Z" fill="#000000" fill-rule="nonzero" fill-opacity="1" /><path clip-path="url(#clip780)" d="M808.377 54.671 L808.377 27.2059 L815.83 27.2059 L815.83 54.3874 Q815.83 60.8284 818.342 64.0691 Q820.854 67.2693 825.877 67.2693 Q831.912 67.2693 835.396 63.421 Q838.921 59.5726 838.921 52.9291 L838.921 27.2059 L846.374 27.2059 L846.374 72.576 L838.921 72.576 L838.921 65.6084 Q836.206 69.7404 832.601 71.7658 Q829.036 73.7508 824.297 73.7508 Q816.479 73.7508 812.428 68.8897 Q808.377 64.0286 808.377 54.671 M827.132 26.1121 L827.132 26.1121 Z" fill="#000000" fill-rule="nonzero" fill-opacity="1" /><path clip-path="url(#clip780)" d="M868.938 65.7705 L868.938 89.8329 L861.444 89.8329 L861.444 27.2059 L868.938 27.2059 L868.938 34.0924 Q871.287 30.0415 874.852 28.0971 Q878.457 26.1121 883.44 26.1121 Q891.704 26.1121 896.848 32.6746 Q902.034 39.2371 902.034 49.9314 Q902.034 60.6258 896.848 67.1883 Q891.704 73.7508 883.44 73.7508 Q878.457 73.7508 874.852 71.8063 Q871.287 69.8214 868.938 65.7705 M894.296 49.9314 Q894.296 41.7081 890.894 37.0496 Q887.531 32.3505 881.617 32.3505 Q875.703 32.3505 872.3 37.0496 Q868.938 41.7081 868.938 49.9314 Q868.938 58.1548 872.3 62.8538 Q875.703 67.5124 881.617 67.5124 Q887.531 67.5124 890.894 62.8538 Q894.296 58.1548 894.296 49.9314 Z" fill="#000000" fill-rule="nonzero" fill-opacity="1" /><path clip-path="url(#clip780)" d="M970.615 49.3643 Q970.615 41.2625 967.253 36.8065 Q963.931 32.3505 957.896 32.3505 Q951.9 32.3505 948.538 36.8065 Q945.216 41.2625 945.216 49.3643 Q945.216 57.4256 948.538 61.8816 Q951.9 66.3376 957.896 66.3376 Q963.931 66.3376 967.253 61.8816 Q970.615 57.4256 970.615 49.3643 M978.069 66.9452 Q978.069 78.5308 972.924 84.1616 Q967.78 89.8329 957.166 89.8329 Q953.237 89.8329 949.753 89.2252 Q946.27 88.6581 942.988 87.4428 L942.988 80.1917 Q946.27 81.9741 949.47 82.8248 Q952.67 83.6755 955.992 83.6755 Q963.324 83.6755 966.97 79.8271 Q970.615 76.0193 970.615 68.282 L970.615 64.5957 Q968.306 68.6061 964.701 70.5911 Q961.096 72.576 956.073 72.576 Q947.728 72.576 942.624 66.2161 Q937.52 59.8562 937.52 49.3643 Q937.52 38.832 942.624 32.472 Q947.728 26.1121 956.073 26.1121 Q961.096 26.1121 964.701 28.0971 Q968.306 30.082 970.615 34.0924 L970.615 27.2059 L978.069 27.2059 L978.069 66.9452 Z" fill="#000000" fill-rule="nonzero" fill-opacity="1" /><path clip-path="url(#clip780)" d="M1032.23 48.0275 L1032.23 51.6733 L997.959 51.6733 Q998.445 59.3701 1002.58 63.421 Q1006.75 67.4314 1014.16 67.4314 Q1018.46 67.4314 1022.47 66.3781 Q1026.52 65.3249 1030.49 63.2184 L1030.49 70.267 Q1026.48 71.9684 1022.26 72.8596 Q1018.05 73.7508 1013.72 73.7508 Q1002.86 73.7508 996.501 67.4314 Q990.181 61.1119 990.181 50.3365 Q990.181 39.1965 996.177 32.6746 Q1002.21 26.1121 1012.42 26.1121 Q1021.58 26.1121 1026.88 32.0264 Q1032.23 37.9003 1032.23 48.0275 M1024.78 45.84 Q1024.7 39.7232 1021.33 36.0774 Q1018.01 32.4315 1012.5 32.4315 Q1006.26 32.4315 1002.5 35.9558 Q998.769 39.4801 998.202 45.8805 L1024.78 45.84 Z" fill="#000000" fill-rule="nonzero" fill-opacity="1" /><path clip-path="url(#clip780)" d="M1079.79 35.9153 Q1082.58 30.8922 1086.47 28.5022 Q1090.36 26.1121 1095.63 26.1121 Q1102.72 26.1121 1106.56 31.0947 Q1110.41 36.0368 1110.41 45.1919 L1110.41 72.576 L1102.92 72.576 L1102.92 45.4349 Q1102.92 38.913 1100.61 35.7533 Q1098.3 32.5936 1093.56 32.5936 Q1087.77 32.5936 1084.41 36.4419 Q1081.04 40.2903 1081.04 46.9338 L1081.04 72.576 L1073.55 72.576 L1073.55 45.4349 Q1073.55 38.8725 1071.24 35.7533 Q1068.93 32.5936 1064.11 32.5936 Q1058.4 32.5936 1055.04 36.4824 Q1051.67 40.3308 1051.67 46.9338 L1051.67 72.576 L1044.18 72.576 L1044.18 27.2059 L1051.67 27.2059 L1051.67 34.2544 Q1054.23 30.082 1057.79 28.0971 Q1061.36 26.1121 1066.26 26.1121 Q1071.2 26.1121 1074.64 28.6237 Q1078.13 31.1352 1079.79 35.9153 Z" fill="#000000" fill-rule="nonzero" fill-opacity="1" /><path clip-path="url(#clip780)" d="M1160.6 35.9153 Q1163.4 30.8922 1167.29 28.5022 Q1171.18 26.1121 1176.44 26.1121 Q1183.53 26.1121 1187.38 31.0947 Q1191.23 36.0368 1191.23 45.1919 L1191.23 72.576 L1183.73 72.576 L1183.73 45.4349 Q1183.73 38.913 1181.42 35.7533 Q1179.12 32.5936 1174.38 32.5936 Q1168.58 32.5936 1165.22 36.4419 Q1161.86 40.2903 1161.86 46.9338 L1161.86 72.576 L1154.36 72.576 L1154.36 45.4349 Q1154.36 38.8725 1152.06 35.7533 Q1149.75 32.5936 1144.93 32.5936 Q1139.21 32.5936 1135.85 36.4824 Q1132.49 40.3308 1132.49 46.9338 L1132.49 72.576 L1125 72.576 L1125 27.2059 L1132.49 27.2059 L1132.49 34.2544 Q1135.04 30.082 1138.61 28.0971 Q1142.17 26.1121 1147.07 26.1121 Q1152.01 26.1121 1155.46 28.6237 Q1158.94 31.1352 1160.6 35.9153 Z" fill="#000000" fill-rule="nonzero" fill-opacity="1" /><path clip-path="url(#clip780)" d="M1208 62.2867 L1216.55 62.2867 L1216.55 69.2543 L1209.9 82.2172 L1204.68 82.2172 L1208 69.2543 L1208 62.2867 Z" fill="#000000" fill-rule="nonzero" fill-opacity="1" /><path clip-path="url(#clip780)" d="M1266.05 65.7705 L1266.05 89.8329 L1258.55 89.8329 L1258.55 27.2059 L1266.05 27.2059 L1266.05 34.0924 Q1268.4 30.0415 1271.96 28.0971 Q1275.57 26.1121 1280.55 26.1121 Q1288.81 26.1121 1293.96 32.6746 Q1299.14 39.2371 1299.14 49.9314 Q1299.14 60.6258 1293.96 67.1883 Q1288.81 73.7508 1280.55 73.7508 Q1275.57 73.7508 1271.96 71.8063 Q1268.4 69.8214 1266.05 65.7705 M1291.41 49.9314 Q1291.41 41.7081 1288 37.0496 Q1284.64 32.3505 1278.73 32.3505 Q1272.81 32.3505 1269.41 37.0496 Q1266.05 41.7081 1266.05 49.9314 Q1266.05 58.1548 1269.41 62.8538 Q1272.81 67.5124 1278.73 67.5124 Q1284.64 67.5124 1288 62.8538 Q1291.41 58.1548 1291.41 49.9314 Z" fill="#000000" fill-rule="nonzero" fill-opacity="1" /><path clip-path="url(#clip780)" d="M1337.79 34.1734 Q1336.53 33.4443 1335.03 33.1202 Q1333.58 32.7556 1331.79 32.7556 Q1325.47 32.7556 1322.07 36.8875 Q1318.71 40.9789 1318.71 48.6757 L1318.71 72.576 L1311.22 72.576 L1311.22 27.2059 L1318.71 27.2059 L1318.71 34.2544 Q1321.06 30.1225 1324.83 28.1376 Q1328.59 26.1121 1333.98 26.1121 Q1334.75 26.1121 1335.68 26.2337 Q1336.61 26.3147 1337.75 26.5172 L1337.79 34.1734 Z" fill="#000000" fill-rule="nonzero" fill-opacity="1" /><path clip-path="url(#clip780)" d="M1382.59 48.0275 L1382.59 51.6733 L1348.32 51.6733 Q1348.81 59.3701 1352.94 63.421 Q1357.11 67.4314 1364.53 67.4314 Q1368.82 67.4314 1372.83 66.3781 Q1376.88 65.3249 1380.85 63.2184 L1380.85 70.267 Q1376.84 71.9684 1372.63 72.8596 Q1368.41 73.7508 1364.08 73.7508 Q1353.22 73.7508 1346.86 67.4314 Q1340.54 61.1119 1340.54 50.3365 Q1340.54 39.1965 1346.54 32.6746 Q1352.58 26.1121 1362.78 26.1121 Q1371.94 26.1121 1377.25 32.0264 Q1382.59 37.9003 1382.59 48.0275 M1375.14 45.84 Q1375.06 39.7232 1371.7 36.0774 Q1368.37 32.4315 1362.86 32.4315 Q1356.63 32.4315 1352.86 35.9558 Q1349.13 39.4801 1348.56 45.8805 L1375.14 45.84 Z" fill="#000000" fill-rule="nonzero" fill-opacity="1" /><path clip-path="url(#clip780)" d="M1423.75 28.5427 L1423.75 35.5912 Q1420.59 33.9709 1417.19 33.1607 Q1413.78 32.3505 1410.14 32.3505 Q1404.59 32.3505 1401.79 34.0519 Q1399.04 35.7533 1399.04 39.156 Q1399.04 41.7486 1401.02 43.2475 Q1403.01 44.7058 1409 46.0426 L1411.56 46.6097 Q1419.5 48.3111 1422.82 51.4303 Q1426.18 54.509 1426.18 60.0587 Q1426.18 66.3781 1421.16 70.0644 Q1416.17 73.7508 1407.42 73.7508 Q1403.78 73.7508 1399.81 73.0216 Q1395.88 72.3329 1391.5 70.9151 L1391.5 63.2184 Q1395.64 65.3654 1399.65 66.4591 Q1403.66 67.5124 1407.59 67.5124 Q1412.85 67.5124 1415.69 65.73 Q1418.52 63.9071 1418.52 60.6258 Q1418.52 57.5877 1416.46 55.9673 Q1414.43 54.3469 1407.51 52.8481 L1404.91 52.2405 Q1397.99 50.7821 1394.91 47.7845 Q1391.83 44.7463 1391.83 39.4801 Q1391.83 33.0797 1396.37 29.5959 Q1400.9 26.1121 1409.25 26.1121 Q1413.38 26.1121 1417.03 26.7198 Q1420.67 27.3274 1423.75 28.5427 Z" fill="#000000" fill-rule="nonzero" fill-opacity="1" /><path clip-path="url(#clip780)" d="M1476.86 48.0275 L1476.86 51.6733 L1442.59 51.6733 Q1443.07 59.3701 1447.2 63.421 Q1451.38 67.4314 1458.79 67.4314 Q1463.08 67.4314 1467.09 66.3781 Q1471.15 65.3249 1475.12 63.2184 L1475.12 70.267 Q1471.1 71.9684 1466.89 72.8596 Q1462.68 73.7508 1458.34 73.7508 Q1447.49 73.7508 1441.13 67.4314 Q1434.81 61.1119 1434.81 50.3365 Q1434.81 39.1965 1440.8 32.6746 Q1446.84 26.1121 1457.05 26.1121 Q1466.2 26.1121 1471.51 32.0264 Q1476.86 37.9003 1476.86 48.0275 M1469.4 45.84 Q1469.32 39.7232 1465.96 36.0774 Q1462.64 32.4315 1457.13 32.4315 Q1450.89 32.4315 1447.12 35.9558 Q1443.4 39.4801 1442.83 45.8805 L1469.4 45.84 Z" fill="#000000" fill-rule="nonzero" fill-opacity="1" /><path clip-path="url(#clip780)" d="M1496.46 14.324 L1496.46 27.2059 L1511.82 27.2059 L1511.82 32.9987 L1496.46 32.9987 L1496.46 57.6282 Q1496.46 63.1779 1497.96 64.7578 Q1499.5 66.3376 1504.16 66.3376 L1511.82 66.3376 L1511.82 72.576 L1504.16 72.576 Q1495.53 72.576 1492.25 69.3758 Q1488.97 66.1351 1488.97 57.6282 L1488.97 32.9987 L1483.5 32.9987 L1483.5 27.2059 L1488.97 27.2059 L1488.97 14.324 L1496.46 14.324 Z" fill="#000000" fill-rule="nonzero" fill-opacity="1" /><path clip-path="url(#clip780)" d="M1555.04 12.096 L1555.04 34.5785 L1548.15 34.5785 L1548.15 12.096 L1555.04 12.096 Z" fill="#000000" fill-rule="nonzero" fill-opacity="1" /><path clip-path="url(#clip780)" d="M1578.01 65.7705 L1578.01 89.8329 L1570.51 89.8329 L1570.51 27.2059 L1578.01 27.2059 L1578.01 34.0924 Q1580.36 30.0415 1583.92 28.0971 Q1587.53 26.1121 1592.51 26.1121 Q1600.77 26.1121 1605.92 32.6746 Q1611.1 39.2371 1611.1 49.9314 Q1611.1 60.6258 1605.92 67.1883 Q1600.77 73.7508 1592.51 73.7508 Q1587.53 73.7508 1583.92 71.8063 Q1580.36 69.8214 1578.01 65.7705 M1603.37 49.9314 Q1603.37 41.7081 1599.96 37.0496 Q1596.6 32.3505 1590.69 32.3505 Q1584.77 32.3505 1581.37 37.0496 Q1578.01 41.7081 1578.01 49.9314 Q1578.01 58.1548 1581.37 62.8538 Q1584.77 67.5124 1590.69 67.5124 Q1596.6 67.5124 1599.96 62.8538 Q1603.37 58.1548 1603.37 49.9314 Z" fill="#000000" fill-rule="nonzero" fill-opacity="1" /><path clip-path="url(#clip780)" d="M1644.08 49.7694 Q1635.04 49.7694 1631.56 51.8354 Q1628.08 53.9013 1628.08 58.8839 Q1628.08 62.8538 1630.67 65.2034 Q1633.3 67.5124 1637.8 67.5124 Q1644 67.5124 1647.72 63.1374 Q1651.49 58.7219 1651.49 51.4303 L1651.49 49.7694 L1644.08 49.7694 M1658.95 46.6907 L1658.95 72.576 L1651.49 72.576 L1651.49 65.6895 Q1648.94 69.8214 1645.13 71.8063 Q1641.32 73.7508 1635.81 73.7508 Q1628.85 73.7508 1624.71 69.8619 Q1620.62 65.9325 1620.62 59.3701 Q1620.62 51.7138 1625.73 47.825 Q1630.87 43.9361 1641.04 43.9361 L1651.49 43.9361 L1651.49 43.2069 Q1651.49 38.0623 1648.09 35.2672 Q1644.73 32.4315 1638.61 32.4315 Q1634.72 32.4315 1631.03 33.3632 Q1627.35 34.295 1623.95 36.1584 L1623.95 29.2718 Q1628.04 27.692 1631.89 26.9223 Q1635.73 26.1121 1639.38 26.1121 Q1649.22 26.1121 1654.08 31.2163 Q1658.95 36.3204 1658.95 46.6907 Z" fill="#000000" fill-rule="nonzero" fill-opacity="1" /><path clip-path="url(#clip780)" d="M1681.51 65.7705 L1681.51 89.8329 L1674.01 89.8329 L1674.01 27.2059 L1681.51 27.2059 L1681.51 34.0924 Q1683.86 30.0415 1687.42 28.0971 Q1691.03 26.1121 1696.01 26.1121 Q1704.27 26.1121 1709.42 32.6746 Q1714.6 39.2371 1714.6 49.9314 Q1714.6 60.6258 1709.42 67.1883 Q1704.27 73.7508 1696.01 73.7508 Q1691.03 73.7508 1687.42 71.8063 Q1683.86 69.8214 1681.51 65.7705 M1706.87 49.9314 Q1706.87 41.7081 1703.46 37.0496 Q1700.1 32.3505 1694.19 32.3505 Q1688.27 32.3505 1684.87 37.0496 Q1681.51 41.7081 1681.51 49.9314 Q1681.51 58.1548 1684.87 62.8538 Q1688.27 67.5124 1694.19 67.5124 Q1700.1 67.5124 1703.46 62.8538 Q1706.87 58.1548 1706.87 49.9314 Z" fill="#000000" fill-rule="nonzero" fill-opacity="1" /><path clip-path="url(#clip780)" d="M1765.77 48.0275 L1765.77 51.6733 L1731.5 51.6733 Q1731.98 59.3701 1736.11 63.421 Q1740.29 67.4314 1747.7 67.4314 Q1751.99 67.4314 1756 66.3781 Q1760.06 65.3249 1764.03 63.2184 L1764.03 70.267 Q1760.02 71.9684 1755.8 72.8596 Q1751.59 73.7508 1747.25 73.7508 Q1736.4 73.7508 1730.04 67.4314 Q1723.72 61.1119 1723.72 50.3365 Q1723.72 39.1965 1729.71 32.6746 Q1735.75 26.1121 1745.96 26.1121 Q1755.11 26.1121 1760.42 32.0264 Q1765.77 37.9003 1765.77 48.0275 M1758.31 45.84 Q1758.23 39.7232 1754.87 36.0774 Q1751.55 32.4315 1746.04 32.4315 Q1739.8 32.4315 1736.03 35.9558 Q1732.31 39.4801 1731.74 45.8805 L1758.31 45.84 Z" fill="#000000" fill-rule="nonzero" fill-opacity="1" /><path clip-path="url(#clip780)" d="M1804.29 34.1734 Q1803.04 33.4443 1801.54 33.1202 Q1800.08 32.7556 1798.3 32.7556 Q1791.98 32.7556 1788.57 36.8875 Q1785.21 40.9789 1785.21 48.6757 L1785.21 72.576 L1777.72 72.576 L1777.72 27.2059 L1785.21 27.2059 L1785.21 34.2544 Q1787.56 30.1225 1791.33 28.1376 Q1795.1 26.1121 1800.48 26.1121 Q1801.25 26.1121 1802.19 26.2337 Q1803.12 26.3147 1804.25 26.5172 L1804.29 34.1734 Z" fill="#000000" fill-rule="nonzero" fill-opacity="1" /><path clip-path="url(#clip780)" d="M1819.16 12.096 L1819.16 34.5785 L1812.27 34.5785 L1812.27 12.096 L1819.16 12.096 Z" fill="#000000" fill-rule="nonzero" fill-opacity="1" /><path clip-path="url(#clip780)" d="M1836.82 62.2867 L1845.37 62.2867 L1845.37 69.2543 L1838.72 82.2172 L1833.5 82.2172 L1836.82 69.2543 L1836.82 62.2867 Z" fill="#000000" fill-rule="nonzero" fill-opacity="1" /><path clip-path="url(#clip780)" d="M1933.27 16.7545 L1933.27 25.383 Q1929.14 21.5346 1924.44 19.6307 Q1919.78 17.7268 1914.52 17.7268 Q1904.15 17.7268 1898.64 24.0867 Q1893.13 30.4061 1893.13 42.3968 Q1893.13 54.3469 1898.64 60.7069 Q1904.15 67.0263 1914.52 67.0263 Q1919.78 67.0263 1924.44 65.1223 Q1929.14 63.2184 1933.27 59.3701 L1933.27 67.9175 Q1928.98 70.8341 1924.16 72.2924 Q1919.38 73.7508 1914.03 73.7508 Q1900.3 73.7508 1892.4 65.3654 Q1884.5 56.9395 1884.5 42.3968 Q1884.5 27.8135 1892.4 19.4281 Q1900.3 11.0023 1914.03 11.0023 Q1919.46 11.0023 1924.24 12.4606 Q1929.06 13.8784 1933.27 16.7545 Z" fill="#000000" fill-rule="nonzero" fill-opacity="1" /><path clip-path="url(#clip780)" d="M1954.09 18.8205 L1954.09 41.5461 L1964.38 41.5461 Q1970.1 41.5461 1973.21 38.5889 Q1976.33 35.6318 1976.33 30.163 Q1976.33 24.7348 1973.21 21.7777 Q1970.1 18.8205 1964.38 18.8205 L1954.09 18.8205 M1945.91 12.096 L1964.38 12.096 Q1974.55 12.096 1979.74 16.714 Q1984.96 21.2916 1984.96 30.163 Q1984.96 39.1155 1979.74 43.6931 Q1974.55 48.2706 1964.38 48.2706 L1954.09 48.2706 L1954.09 72.576 L1945.91 72.576 L1945.91 12.096 Z" fill="#000000" fill-rule="nonzero" fill-opacity="1" /><path clip-path="url(#clip780)" d="M1995.01 12.096 L2003.23 12.096 L2003.23 48.8377 Q2003.23 58.5599 2006.76 62.8538 Q2010.28 67.1073 2018.18 67.1073 Q2026.04 67.1073 2029.56 62.8538 Q2033.09 58.5599 2033.09 48.8377 L2033.09 12.096 L2041.31 12.096 L2041.31 49.8504 Q2041.31 61.6791 2035.44 67.7149 Q2029.6 73.7508 2018.18 73.7508 Q2006.72 73.7508 2000.84 67.7149 Q1995.01 61.6791 1995.01 49.8504 L1995.01 12.096 Z" fill="#000000" fill-rule="nonzero" fill-opacity="1" /><path clip-path="url(#clip782)" d="M308.557 1283.78 L308.557 1285.84 L491.728 1285.84 L491.728 1283.78 L308.557 1283.78 L308.557 1283.78  Z" fill="#808080" fill-rule="evenodd" fill-opacity="1"/>
<polyline clip-path="url(#clip782)" style="stroke:#000000; stroke-linecap:round; stroke-linejoin:round; stroke-width:4; stroke-opacity:1; fill:none" points="308.557,1283.78 308.557,1285.84 491.728,1285.84 491.728,1283.78 308.557,1283.78 "/>
<path clip-path="url(#clip782)" d="M570.23 1283.8 L570.23 1285.84 L753.402 1285.84 L753.402 1283.8 L570.23 1283.8 L570.23 1283.8  Z" fill="#808080" fill-rule="evenodd" fill-opacity="1"/>
<polyline clip-path="url(#clip782)" style="stroke:#000000; stroke-linecap:round; stroke-linejoin:round; stroke-width:4; stroke-opacity:1; fill:none" points="570.23,1283.8 570.23,1285.84 753.402,1285.84 753.402,1283.8 570.23,1283.8 "/>
<circle clip-path="url(#clip782)" style="fill:#808080; stroke:none; fill-opacity:0" cx="400.142" cy="1283.78" r="2"/>
<circle clip-path="url(#clip782)" style="fill:#808080; stroke:none; fill-opacity:0" cx="661.816" cy="1283.8" r="2"/>
<polyline clip-path="url(#clip782)" style="stroke:#000000; stroke-linecap:round; stroke-linejoin:round; stroke-width:4; stroke-opacity:1; fill:none" points="400.142,1283.78 400.142,1283.78 "/>
<polyline clip-path="url(#clip782)" style="stroke:#000000; stroke-linecap:round; stroke-linejoin:round; stroke-width:4; stroke-opacity:1; fill:none" points="661.816,1283.8 661.816,1283.8 "/>
<line clip-path="url(#clip782)" x1="416.142" y1="1283.78" x2="384.142" y2="1283.78" style="stroke:#000000; stroke-width:4; stroke-opacity:1"/>
<line clip-path="url(#clip782)" x1="416.142" y1="1283.78" x2="384.142" y2="1283.78" style="stroke:#000000; stroke-width:4; stroke-opacity:1"/>
<line clip-path="url(#clip782)" x1="677.816" y1="1283.8" x2="645.816" y2="1283.8" style="stroke:#000000; stroke-width:4; stroke-opacity:1"/>
<line clip-path="url(#clip782)" x1="677.816" y1="1283.8" x2="645.816" y2="1283.8" style="stroke:#000000; stroke-width:4; stroke-opacity:1"/>
<path clip-path="url(#clip782)" d="M936.835 1283.53 L936.835 1285.84 L1120.01 1285.84 L1120.01 1283.53 L936.835 1283.53 L936.835 1283.53  Z" fill="#17913e" fill-rule="evenodd" fill-opacity="1"/>
<polyline clip-path="url(#clip782)" style="stroke:#000000; stroke-linecap:round; stroke-linejoin:round; stroke-width:4; stroke-opacity:1; fill:none" points="936.835,1283.53 936.835,1285.84 1120.01,1285.84 1120.01,1283.53 936.835,1283.53 "/>
<path clip-path="url(#clip782)" d="M1198.51 414.853 L1198.51 1285.84 L1381.68 1285.84 L1381.68 414.853 L1198.51 414.853 L1198.51 414.853  Z" fill="#17913e" fill-rule="evenodd" fill-opacity="1"/>
<polyline clip-path="url(#clip782)" style="stroke:#000000; stroke-linecap:round; stroke-linejoin:round; stroke-width:4; stroke-opacity:1; fill:none" points="1198.51,414.853 1198.51,1285.84 1381.68,1285.84 1381.68,414.853 1198.51,414.853 "/>
<circle clip-path="url(#clip782)" style="fill:#17913e; stroke:none; fill-opacity:0" cx="1028.42" cy="1283.53" r="2"/>
<circle clip-path="url(#clip782)" style="fill:#17913e; stroke:none; fill-opacity:0" cx="1290.09" cy="414.853" r="2"/>
<polyline clip-path="url(#clip782)" style="stroke:#000000; stroke-linecap:round; stroke-linejoin:round; stroke-width:4; stroke-opacity:1; fill:none" points="1028.42,1283.53 1028.42,1283.53 "/>
<polyline clip-path="url(#clip782)" style="stroke:#000000; stroke-linecap:round; stroke-linejoin:round; stroke-width:4; stroke-opacity:1; fill:none" points="1290.09,453.694 1290.09,379.701 "/>
<line clip-path="url(#clip782)" x1="1044.42" y1="1283.53" x2="1012.42" y2="1283.53" style="stroke:#000000; stroke-width:4; stroke-opacity:1"/>
<line clip-path="url(#clip782)" x1="1044.42" y1="1283.53" x2="1012.42" y2="1283.53" style="stroke:#000000; stroke-width:4; stroke-opacity:1"/>
<line clip-path="url(#clip782)" x1="1306.09" y1="453.694" x2="1274.09" y2="453.694" style="stroke:#000000; stroke-width:4; stroke-opacity:1"/>
<line clip-path="url(#clip782)" x1="1306.09" y1="379.701" x2="1274.09" y2="379.701" style="stroke:#000000; stroke-width:4; stroke-opacity:1"/>
<path clip-path="url(#clip782)" d="M1565.11 1278.11 L1565.11 1285.84 L1748.28 1285.84 L1748.28 1278.11 L1565.11 1278.11 L1565.11 1278.11  Z" fill="#3065a6" fill-rule="evenodd" fill-opacity="1"/>
<polyline clip-path="url(#clip782)" style="stroke:#000000; stroke-linecap:round; stroke-linejoin:round; stroke-width:4; stroke-opacity:1; fill:none" points="1565.11,1278.11 1565.11,1285.84 1748.28,1285.84 1748.28,1278.11 1565.11,1278.11 "/>
<path clip-path="url(#clip782)" d="M1826.79 904.974 L1826.79 1285.84 L2009.96 1285.84 L2009.96 904.974 L1826.79 904.974 L1826.79 904.974  Z" fill="#3065a6" fill-rule="evenodd" fill-opacity="1"/>
<polyline clip-path="url(#clip782)" style="stroke:#000000; stroke-linecap:round; stroke-linejoin:round; stroke-width:4; stroke-opacity:1; fill:none" points="1826.79,904.974 1826.79,1285.84 2009.96,1285.84 2009.96,904.974 1826.79,904.974 "/>
<path clip-path="url(#clip782)" d="M2088.46 273.564 L2088.46 1285.84 L2271.63 1285.84 L2271.63 273.564 L2088.46 273.564 L2088.46 273.564  Z" fill="#3065a6" fill-rule="evenodd" fill-opacity="1"/>
<polyline clip-path="url(#clip782)" style="stroke:#000000; stroke-linecap:round; stroke-linejoin:round; stroke-width:4; stroke-opacity:1; fill:none" points="2088.46,273.564 2088.46,1285.84 2271.63,1285.84 2271.63,273.564 2088.46,273.564 "/>
<circle clip-path="url(#clip782)" style="fill:#3065a6; stroke:none; fill-opacity:0" cx="1656.7" cy="1278.11" r="2"/>
<circle clip-path="url(#clip782)" style="fill:#3065a6; stroke:none; fill-opacity:0" cx="1918.37" cy="904.974" r="2"/>
<circle clip-path="url(#clip782)" style="fill:#3065a6; stroke:none; fill-opacity:0" cx="2180.05" cy="273.564" r="2"/>
<polyline clip-path="url(#clip782)" style="stroke:#000000; stroke-linecap:round; stroke-linejoin:round; stroke-width:4; stroke-opacity:1; fill:none" points="1656.7,1278.12 1656.7,1278.08 "/>
<polyline clip-path="url(#clip782)" style="stroke:#000000; stroke-linecap:round; stroke-linejoin:round; stroke-width:4; stroke-opacity:1; fill:none" points="1918.37,905.578 1918.37,901.568 "/>
<polyline clip-path="url(#clip782)" style="stroke:#000000; stroke-linecap:round; stroke-linejoin:round; stroke-width:4; stroke-opacity:1; fill:none" points="2180.05,338.237 2180.05,229.142 "/>
<line clip-path="url(#clip782)" x1="1672.7" y1="1278.12" x2="1640.7" y2="1278.12" style="stroke:#000000; stroke-width:4; stroke-opacity:1"/>
<line clip-path="url(#clip782)" x1="1672.7" y1="1278.08" x2="1640.7" y2="1278.08" style="stroke:#000000; stroke-width:4; stroke-opacity:1"/>
<line clip-path="url(#clip782)" x1="1934.37" y1="905.578" x2="1902.37" y2="905.578" style="stroke:#000000; stroke-width:4; stroke-opacity:1"/>
<line clip-path="url(#clip782)" x1="1934.37" y1="901.568" x2="1902.37" y2="901.568" style="stroke:#000000; stroke-width:4; stroke-opacity:1"/>
<line clip-path="url(#clip782)" x1="2196.05" y1="338.237" x2="2164.05" y2="338.237" style="stroke:#000000; stroke-width:4; stroke-opacity:1"/>
<line clip-path="url(#clip782)" x1="2196.05" y1="229.142" x2="2164.05" y2="229.142" style="stroke:#000000; stroke-width:4; stroke-opacity:1"/>
<path clip-path="url(#clip780)" d="M305.865 369.578 L675.112 369.578 L675.112 162.218 L305.865 162.218  Z" fill="#ffffff" fill-rule="evenodd" fill-opacity="1"/>
<polyline clip-path="url(#clip780)" style="stroke:#000000; stroke-linecap:round; stroke-linejoin:round; stroke-width:4; stroke-opacity:1; fill:none" points="305.865,369.578 675.112,369.578 675.112,162.218 305.865,162.218 305.865,369.578 "/>
<path clip-path="url(#clip780)" d="M329.393 234.794 L470.558 234.794 L470.558 193.322 L329.393 193.322 L329.393 234.794  Z" fill="#808080" fill-rule="evenodd" fill-opacity="1"/>
<polyline clip-path="url(#clip780)" style="stroke:#000000; stroke-linecap:round; stroke-linejoin:round; stroke-width:4; stroke-opacity:1; fill:none" points="329.393,234.794 470.558,234.794 470.558,193.322 329.393,193.322 329.393,234.794 "/>
<path clip-path="url(#clip780)" d="M521.955 199.44 L521.955 204.37 Q519.594 202.171 516.909 201.083 Q514.247 199.995 511.238 199.995 Q505.312 199.995 502.164 203.629 Q499.016 207.241 499.016 214.092 Q499.016 220.921 502.164 224.555 Q505.312 228.166 511.238 228.166 Q514.247 228.166 516.909 227.078 Q519.594 225.99 521.955 223.791 L521.955 228.676 Q519.502 230.342 516.747 231.176 Q514.016 232.009 510.96 232.009 Q503.113 232.009 498.599 227.217 Q494.085 222.402 494.085 214.092 Q494.085 205.759 498.599 200.967 Q503.113 196.153 510.96 196.153 Q514.062 196.153 516.793 196.986 Q519.548 197.796 521.955 199.44 Z" fill="#000000" fill-rule="nonzero" fill-opacity="1" /><path clip-path="url(#clip780)" d="M329.393 286.634 L470.558 286.634 L470.558 245.162 L329.393 245.162 L329.393 286.634  Z" fill="#17913e" fill-rule="evenodd" fill-opacity="1"/>
<polyline clip-path="url(#clip780)" style="stroke:#000000; stroke-linecap:round; stroke-linejoin:round; stroke-width:4; stroke-opacity:1; fill:none" points="329.393,286.634 470.558,286.634 470.558,245.162 329.393,245.162 329.393,286.634 "/>
<path clip-path="url(#clip780)" d="M499.409 257.252 L503.668 257.252 L503.668 283.641 Q503.668 288.594 501.77 290.816 Q499.895 293.039 495.705 293.039 L494.085 293.039 L494.085 289.428 L495.219 289.428 Q497.65 289.428 498.53 288.293 Q499.409 287.182 499.409 283.641 L499.409 257.252 M499.409 247.159 L503.668 247.159 L503.668 252.553 L499.409 252.553 L499.409 247.159 Z" fill="#000000" fill-rule="nonzero" fill-opacity="1" /><path clip-path="url(#clip780)" d="M512.141 272.946 L512.141 257.252 L516.4 257.252 L516.4 272.784 Q516.4 276.465 517.835 278.317 Q519.27 280.145 522.141 280.145 Q525.59 280.145 527.58 277.946 Q529.594 275.747 529.594 271.951 L529.594 257.252 L533.853 257.252 L533.853 283.178 L529.594 283.178 L529.594 279.196 Q528.043 281.557 525.983 282.715 Q523.946 283.849 521.238 283.849 Q516.77 283.849 514.455 281.071 Q512.141 278.293 512.141 272.946 M522.858 256.627 L522.858 256.627 Z" fill="#000000" fill-rule="nonzero" fill-opacity="1" /><path clip-path="url(#clip780)" d="M542.627 247.159 L546.886 247.159 L546.886 283.178 L542.627 283.178 L542.627 247.159 Z" fill="#000000" fill-rule="nonzero" fill-opacity="1" /><path clip-path="url(#clip780)" d="M555.798 257.252 L560.057 257.252 L560.057 283.178 L555.798 283.178 L555.798 257.252 M555.798 247.159 L560.057 247.159 L560.057 252.553 L555.798 252.553 L555.798 247.159 Z" fill="#000000" fill-rule="nonzero" fill-opacity="1" /><path clip-path="url(#clip780)" d="M580.751 270.145 Q575.589 270.145 573.599 271.326 Q571.608 272.506 571.608 275.354 Q571.608 277.622 573.089 278.965 Q574.594 280.284 577.163 280.284 Q580.705 280.284 582.835 277.784 Q584.987 275.261 584.987 271.094 L584.987 270.145 L580.751 270.145 M589.247 268.386 L589.247 283.178 L584.987 283.178 L584.987 279.242 Q583.529 281.604 581.353 282.738 Q579.177 283.849 576.029 283.849 Q572.048 283.849 569.687 281.627 Q567.349 279.381 567.349 275.631 Q567.349 271.256 570.265 269.034 Q573.205 266.812 579.015 266.812 L584.987 266.812 L584.987 266.395 Q584.987 263.455 583.043 261.858 Q581.122 260.238 577.626 260.238 Q575.404 260.238 573.298 260.77 Q571.191 261.303 569.247 262.368 L569.247 258.432 Q571.585 257.53 573.784 257.09 Q575.983 256.627 578.066 256.627 Q583.691 256.627 586.469 259.543 Q589.247 262.46 589.247 268.386 Z" fill="#000000" fill-rule="nonzero" fill-opacity="1" /><path clip-path="url(#clip780)" d="M329.393 338.474 L470.558 338.474 L470.558 297.002 L329.393 297.002 L329.393 338.474  Z" fill="#3065a6" fill-rule="evenodd" fill-opacity="1"/>
<polyline clip-path="url(#clip780)" style="stroke:#000000; stroke-linecap:round; stroke-linejoin:round; stroke-width:4; stroke-opacity:1; fill:none" points="329.393,338.474 470.558,338.474 470.558,297.002 329.393,297.002 329.393,338.474 "/>
<path clip-path="url(#clip780)" d="M498.367 331.129 L498.367 344.879 L494.085 344.879 L494.085 309.092 L498.367 309.092 L498.367 313.027 Q499.71 310.712 501.747 309.601 Q503.807 308.467 506.654 308.467 Q511.377 308.467 514.316 312.217 Q517.279 315.967 517.279 322.078 Q517.279 328.189 514.316 331.939 Q511.377 335.689 506.654 335.689 Q503.807 335.689 501.747 334.578 Q499.71 333.444 498.367 331.129 M512.858 322.078 Q512.858 317.379 510.914 314.717 Q508.992 312.032 505.613 312.032 Q502.233 312.032 500.289 314.717 Q498.367 317.379 498.367 322.078 Q498.367 326.777 500.289 329.462 Q502.233 332.124 505.613 332.124 Q508.992 332.124 510.914 329.462 Q512.858 326.777 512.858 322.078 Z" fill="#000000" fill-rule="nonzero" fill-opacity="1" /><path clip-path="url(#clip780)" d="M535.127 337.425 Q533.321 342.055 531.608 343.467 Q529.895 344.879 527.025 344.879 L523.622 344.879 L523.622 341.314 L526.122 341.314 Q527.881 341.314 528.853 340.481 Q529.826 339.647 531.006 336.545 L531.77 334.601 L521.284 309.092 L525.798 309.092 L533.9 329.369 L542.002 309.092 L546.515 309.092 L535.127 337.425 Z" fill="#000000" fill-rule="nonzero" fill-opacity="1" /><path clip-path="url(#clip780)" d="M556.608 301.731 L556.608 309.092 L565.381 309.092 L565.381 312.402 L556.608 312.402 L556.608 326.476 Q556.608 329.647 557.464 330.55 Q558.344 331.453 561.006 331.453 L565.381 331.453 L565.381 335.018 L561.006 335.018 Q556.076 335.018 554.201 333.189 Q552.326 331.337 552.326 326.476 L552.326 312.402 L549.201 312.402 L549.201 309.092 L552.326 309.092 L552.326 301.731 L556.608 301.731 Z" fill="#000000" fill-rule="nonzero" fill-opacity="1" /><path clip-path="url(#clip780)" d="M592.534 319.37 L592.534 335.018 L588.274 335.018 L588.274 319.508 Q588.274 315.828 586.839 313.999 Q585.404 312.17 582.534 312.17 Q579.085 312.17 577.094 314.37 Q575.103 316.569 575.103 320.365 L575.103 335.018 L570.821 335.018 L570.821 298.999 L575.103 298.999 L575.103 313.12 Q576.631 310.782 578.691 309.624 Q580.774 308.467 583.483 308.467 Q587.95 308.467 590.242 311.245 Q592.534 313.999 592.534 319.37 Z" fill="#000000" fill-rule="nonzero" fill-opacity="1" /><path clip-path="url(#clip780)" d="M611.075 312.078 Q607.649 312.078 605.659 314.763 Q603.668 317.425 603.668 322.078 Q603.668 326.731 605.635 329.416 Q607.626 332.078 611.075 332.078 Q614.478 332.078 616.469 329.393 Q618.459 326.707 618.459 322.078 Q618.459 317.471 616.469 314.786 Q614.478 312.078 611.075 312.078 M611.075 308.467 Q616.631 308.467 619.802 312.078 Q622.973 315.689 622.973 322.078 Q622.973 328.444 619.802 332.078 Q616.631 335.689 611.075 335.689 Q605.497 335.689 602.325 332.078 Q599.177 328.444 599.177 322.078 Q599.177 315.689 602.325 312.078 Q605.497 308.467 611.075 308.467 Z" fill="#000000" fill-rule="nonzero" fill-opacity="1" /><path clip-path="url(#clip780)" d="M651.584 319.37 L651.584 335.018 L647.325 335.018 L647.325 319.508 Q647.325 315.828 645.89 313.999 Q644.455 312.17 641.584 312.17 Q638.135 312.17 636.145 314.37 Q634.154 316.569 634.154 320.365 L634.154 335.018 L629.871 335.018 L629.871 309.092 L634.154 309.092 L634.154 313.12 Q635.682 310.782 637.742 309.624 Q639.825 308.467 642.533 308.467 Q647.001 308.467 649.293 311.245 Q651.584 313.999 651.584 319.37 Z" fill="#000000" fill-rule="nonzero" fill-opacity="1" /></svg>
