<?xml version="1.0" encoding="utf-8"?>
<svg xmlns="http://www.w3.org/2000/svg" xmlns:xlink="http://www.w3.org/1999/xlink" width="600" height="400" viewBox="0 0 2400 1600">
<defs>
  <clipPath id="clip460">
    <rect x="0" y="0" width="2400" height="1600"/>
  </clipPath>
</defs>
<path clip-path="url(#clip460)" d="M0 1600 L2400 1600 L2400 0 L0 0  Z" fill="#ffffff" fill-rule="evenodd" fill-opacity="1"/>
<defs>
  <clipPath id="clip461">
    <rect x="480" y="0" width="1681" height="1600"/>
  </clipPath>
</defs>
<path clip-path="url(#clip460)" d="M175.445 1234.03 L2352.76 1234.03 L2352.76 123.472 L175.445 123.472  Z" fill="#ffffff" fill-rule="evenodd" fill-opacity="1"/>
<defs>
  <clipPath id="clip462">
    <rect x="175" y="123" width="2178" height="1112"/>
  </clipPath>
</defs>
<polyline clip-path="url(#clip462)" style="stroke:#000000; stroke-linecap:round; stroke-linejoin:round; stroke-width:2; stroke-opacity:0.1; fill:none" points="332.137,1234.03 332.137,123.472 "/>
<polyline clip-path="url(#clip462)" style="stroke:#000000; stroke-linecap:round; stroke-linejoin:round; stroke-width:2; stroke-opacity:0.1; fill:none" points="569.217,1234.03 569.217,123.472 "/>
<polyline clip-path="url(#clip462)" style="stroke:#000000; stroke-linecap:round; stroke-linejoin:round; stroke-width:2; stroke-opacity:0.1; fill:none" points="901.367,1234.03 901.367,123.472 "/>
<polyline clip-path="url(#clip462)" style="stroke:#000000; stroke-linecap:round; stroke-linejoin:round; stroke-width:2; stroke-opacity:0.1; fill:none" points="1138.45,1234.03 1138.45,123.472 "/>
<polyline clip-path="url(#clip462)" style="stroke:#000000; stroke-linecap:round; stroke-linejoin:round; stroke-width:2; stroke-opacity:0.1; fill:none" points="1375.53,1234.03 1375.53,123.472 "/>
<polyline clip-path="url(#clip462)" style="stroke:#000000; stroke-linecap:round; stroke-linejoin:round; stroke-width:2; stroke-opacity:0.1; fill:none" points="1714.79,1234.03 1714.79,123.472 "/>
<polyline clip-path="url(#clip462)" style="stroke:#000000; stroke-linecap:round; stroke-linejoin:round; stroke-width:2; stroke-opacity:0.1; fill:none" points="1951.87,1234.03 1951.87,123.472 "/>
<polyline clip-path="url(#clip462)" style="stroke:#000000; stroke-linecap:round; stroke-linejoin:round; stroke-width:2; stroke-opacity:0.1; fill:none" points="2188.95,1234.03 2188.95,123.472 "/>
<polyline clip-path="url(#clip460)" style="stroke:#000000; stroke-linecap:round; stroke-linejoin:round; stroke-width:4; stroke-opacity:1; fill:none" points="175.445,1234.03 2352.76,1234.03 "/>
<polyline clip-path="url(#clip460)" style="stroke:#000000; stroke-linecap:round; stroke-linejoin:round; stroke-width:4; stroke-opacity:1; fill:none" points="332.137,1234.03 332.137,1215.13 "/>
<polyline clip-path="url(#clip460)" style="stroke:#000000; stroke-linecap:round; stroke-linejoin:round; stroke-width:4; stroke-opacity:1; fill:none" points="569.217,1234.03 569.217,1215.13 "/>
<polyline clip-path="url(#clip460)" style="stroke:#000000; stroke-linecap:round; stroke-linejoin:round; stroke-width:4; stroke-opacity:1; fill:none" points="901.367,1234.03 901.367,1215.13 "/>
<polyline clip-path="url(#clip460)" style="stroke:#000000; stroke-linecap:round; stroke-linejoin:round; stroke-width:4; stroke-opacity:1; fill:none" points="1138.45,1234.03 1138.45,1215.13 "/>
<polyline clip-path="url(#clip460)" style="stroke:#000000; stroke-linecap:round; stroke-linejoin:round; stroke-width:4; stroke-opacity:1; fill:none" points="1375.53,1234.03 1375.53,1215.13 "/>
<polyline clip-path="url(#clip460)" style="stroke:#000000; stroke-linecap:round; stroke-linejoin:round; stroke-width:4; stroke-opacity:1; fill:none" points="1714.79,1234.03 1714.79,1215.13 "/>
<polyline clip-path="url(#clip460)" style="stroke:#000000; stroke-linecap:round; stroke-linejoin:round; stroke-width:4; stroke-opacity:1; fill:none" points="1951.87,1234.03 1951.87,1215.13 "/>
<polyline clip-path="url(#clip460)" style="stroke:#000000; stroke-linecap:round; stroke-linejoin:round; stroke-width:4; stroke-opacity:1; fill:none" points="2188.95,1234.03 2188.95,1215.13 "/>
<path clip-path="url(#clip460)" d="M202.787 1403.21 L213.852 1414.28 L210.841 1417.29 L199.874 1406.32 Q197.271 1403.72 194.963 1403.44 Q192.656 1403.16 190.626 1405.19 Q188.187 1407.63 188.334 1410.59 Q188.482 1413.56 191.166 1416.24 L201.527 1426.6 L198.499 1429.63 L180.167 1411.3 L183.195 1408.27 L186.043 1411.12 Q185.47 1408.38 186.108 1406.11 Q186.763 1403.82 188.678 1401.9 Q191.837 1398.74 195.422 1399.09 Q198.99 1399.41 202.787 1403.21 Z" fill="#000000" fill-rule="nonzero" fill-opacity="1" /><path clip-path="url(#clip460)" d="M218.976 1390.72 Q215.325 1394.37 214.753 1396.61 Q214.18 1398.86 216.193 1400.87 Q217.797 1402.47 219.794 1402.38 Q221.791 1402.25 223.608 1400.43 Q226.112 1397.92 225.85 1394.65 Q225.588 1391.34 222.642 1388.4 L221.971 1387.73 L218.976 1390.72 M223.739 1383.47 L234.198 1393.93 L231.186 1396.94 L228.404 1394.16 Q229.042 1396.86 228.305 1399.2 Q227.552 1401.53 225.326 1403.75 Q222.511 1406.57 219.27 1406.66 Q216.029 1406.73 213.378 1404.08 Q210.284 1400.98 210.775 1397.35 Q211.282 1393.7 215.391 1389.59 L219.614 1385.37 L219.319 1385.08 Q217.24 1383 214.736 1383.24 Q212.232 1383.45 209.76 1385.93 Q208.189 1387.5 207.076 1389.36 Q205.963 1391.23 205.341 1393.36 L202.558 1390.57 Q203.573 1388.28 204.817 1386.42 Q206.045 1384.53 207.518 1383.06 Q211.495 1379.08 215.522 1379.18 Q219.548 1379.28 223.739 1383.47 Z" fill="#000000" fill-rule="nonzero" fill-opacity="1" /><path clip-path="url(#clip460)" d="M222.069 1369.39 L225.081 1366.38 L243.413 1384.72 L240.401 1387.73 L222.069 1369.39 M214.933 1362.26 L217.944 1359.25 L221.758 1363.06 L218.746 1366.07 L214.933 1362.26 Z" fill="#000000" fill-rule="nonzero" fill-opacity="1" /><path clip-path="url(#clip460)" d="M229.222 1362.24 L232.414 1359.05 L253.529 1368.71 L243.871 1347.59 L247.063 1344.4 L258.521 1369.61 L254.429 1373.7 L229.222 1362.24 Z" fill="#000000" fill-rule="nonzero" fill-opacity="1" /><path clip-path="url(#clip460)" d="M275.315 1332.98 L276.788 1334.45 L262.94 1348.3 Q266.247 1351.21 269.553 1351.18 Q272.859 1351.11 275.855 1348.12 Q277.59 1346.38 278.785 1344.33 Q279.996 1342.27 280.749 1339.82 L283.597 1342.67 Q282.664 1344.97 281.322 1347.04 Q279.98 1349.1 278.228 1350.85 Q273.841 1355.24 268.718 1355.25 Q263.611 1355.25 259.257 1350.9 Q254.756 1346.4 254.543 1341.34 Q254.331 1336.25 258.455 1332.12 Q262.155 1328.43 266.689 1328.67 Q271.223 1328.88 275.315 1332.98 M271.419 1335.1 Q268.915 1332.66 266.083 1332.55 Q263.268 1332.42 261.042 1334.64 Q258.521 1337.17 258.423 1340.11 Q258.341 1343.04 260.698 1345.86 L271.419 1335.1 Z" fill="#000000" fill-rule="nonzero" fill-opacity="1" /><path clip-path="url(#clip460)" d="M282.631 1294.62 Q284.202 1300.58 286.821 1305.33 Q289.44 1310.08 293.221 1313.86 Q297.002 1317.64 301.782 1320.29 Q306.561 1322.91 312.487 1324.48 L309.868 1327.1 Q303.566 1325.71 298.623 1323.22 Q293.696 1320.72 290.03 1317.05 Q286.379 1313.4 283.891 1308.49 Q281.404 1303.58 280.012 1297.24 L282.631 1294.62 Z" fill="#000000" fill-rule="nonzero" fill-opacity="1" /><path clip-path="url(#clip460)" d="M309.786 1273.23 L313.272 1276.72 Q310.048 1276.83 307.38 1277.96 Q304.728 1279.08 302.6 1281.2 Q298.41 1285.39 298.754 1290.19 Q299.081 1294.97 303.926 1299.81 Q308.755 1304.64 313.551 1304.99 Q318.33 1305.31 322.52 1301.12 Q324.648 1299 325.761 1296.34 Q326.891 1293.68 327.005 1290.45 L330.459 1293.9 Q329.902 1296.82 328.544 1299.36 Q327.202 1301.88 325.041 1304.04 Q319.492 1309.59 312.912 1309.39 Q306.316 1309.18 300.44 1303.3 Q294.547 1297.41 294.351 1290.83 Q294.138 1284.23 299.687 1278.68 Q301.88 1276.49 304.401 1275.15 Q306.921 1273.77 309.786 1273.23 Z" fill="#000000" fill-rule="nonzero" fill-opacity="1" /><path clip-path="url(#clip460)" d="M311.406 1265.85 L314.025 1263.23 Q320.343 1264.64 325.254 1267.13 Q330.181 1269.6 333.831 1273.25 Q337.497 1276.91 339.985 1281.86 Q342.489 1286.78 343.881 1293.09 L341.262 1295.71 Q339.69 1289.78 337.055 1285.02 Q334.42 1280.22 330.639 1276.44 Q326.858 1272.66 322.095 1270.06 Q317.348 1267.44 311.406 1265.85 Z" fill="#000000" fill-rule="nonzero" fill-opacity="1" /><path clip-path="url(#clip460)" d="M279.395 1550.56 L282.21 1553.37 Q280.23 1553.95 278.593 1554.89 Q276.956 1555.81 275.647 1557.12 Q272.717 1560.05 272.962 1563.54 Q273.191 1567.01 276.547 1570.36 Q279.902 1573.72 283.389 1573.96 Q286.859 1574.19 289.789 1571.26 Q291.098 1569.95 292.031 1568.33 Q292.964 1566.68 293.537 1564.7 L296.32 1567.48 Q295.649 1569.33 294.585 1570.98 Q293.537 1572.62 292.015 1574.14 Q287.874 1578.28 282.832 1578.12 Q277.791 1577.96 273.372 1573.54 Q268.887 1569.05 268.772 1564.03 Q268.674 1558.99 272.962 1554.7 Q274.354 1553.31 275.974 1552.28 Q277.578 1551.23 279.395 1550.56 Z" fill="#000000" fill-rule="nonzero" fill-opacity="1" /><path clip-path="url(#clip460)" d="M302.425 1557.28 L312.148 1567.01 L309.12 1570.03 L283.814 1544.73 L286.842 1541.7 L289.625 1544.48 Q288.938 1541.9 289.592 1539.67 Q290.247 1537.41 292.26 1535.4 Q295.599 1532.06 300.33 1532.63 Q305.077 1533.19 309.398 1537.51 Q313.719 1541.83 314.275 1546.58 Q314.848 1551.31 311.509 1554.65 Q309.496 1556.66 307.254 1557.33 Q305.011 1557.97 302.425 1557.28 M306.271 1540.64 Q302.949 1537.32 299.691 1536.81 Q296.434 1536.27 294.044 1538.66 Q291.655 1541.05 292.178 1544.32 Q292.702 1547.56 296.025 1550.88 Q299.348 1554.21 302.605 1554.75 Q305.862 1555.25 308.252 1552.86 Q310.642 1550.48 310.118 1547.23 Q309.594 1543.96 306.271 1540.64 Z" fill="#000000" fill-rule="nonzero" fill-opacity="1" /><path clip-path="url(#clip460)" d="M315.994 1534.75 L304.897 1523.65 L307.908 1520.64 L318.891 1531.62 Q321.494 1534.22 323.818 1534.52 Q326.126 1534.79 328.156 1532.76 Q330.594 1530.33 330.447 1527.36 Q330.316 1524.38 327.632 1521.7 L317.238 1511.31 L320.25 1508.29 L338.582 1526.63 L335.57 1529.64 L332.755 1526.82 Q333.328 1529.59 332.69 1531.86 Q332.051 1534.11 330.136 1536.02 Q326.977 1539.18 323.376 1538.85 Q319.775 1538.53 315.994 1534.75 M312.033 1515.63 L312.033 1515.63 Z" fill="#000000" fill-rule="nonzero" fill-opacity="1" /><path clip-path="url(#clip460)" d="M364.28 1512.06 L366.621 1514.4 L349.205 1531.82 L346.864 1529.47 L364.28 1512.06 Z" fill="#000000" fill-rule="nonzero" fill-opacity="1" /><path clip-path="url(#clip460)" d="M352.43 1480.34 Q350.007 1482.76 350.498 1486.07 Q350.973 1489.36 354.263 1492.65 Q357.553 1495.94 360.843 1496.44 Q364.133 1496.92 366.572 1494.48 Q368.978 1492.07 368.487 1488.77 Q367.996 1485.46 364.722 1482.19 Q361.465 1478.93 358.158 1478.44 Q354.836 1477.93 352.43 1480.34 M349.876 1477.78 Q353.804 1473.86 358.6 1474.17 Q363.396 1474.48 367.914 1479 Q372.415 1483.5 372.742 1488.31 Q373.053 1493.1 369.125 1497.03 Q365.18 1500.98 360.384 1500.67 Q355.589 1500.32 351.087 1495.82 Q346.57 1491.3 346.242 1486.52 Q345.931 1481.73 349.876 1477.78 Z" fill="#000000" fill-rule="nonzero" fill-opacity="1" /><path clip-path="url(#clip460)" d="M382.22 1477.49 L391.942 1487.21 L388.914 1490.24 L363.609 1464.94 L366.637 1461.91 L369.42 1464.69 Q368.732 1462.1 369.387 1459.88 Q370.042 1457.62 372.055 1455.61 Q375.394 1452.27 380.124 1452.84 Q384.871 1453.4 389.192 1457.72 Q393.514 1462.04 394.07 1466.78 Q394.643 1471.52 391.304 1474.85 Q389.291 1476.87 387.048 1477.54 Q384.806 1478.18 382.22 1477.49 M386.066 1460.84 Q382.743 1457.52 379.486 1457.01 Q376.229 1456.47 373.839 1458.86 Q371.449 1461.25 371.973 1464.53 Q372.497 1467.77 375.82 1471.09 Q379.142 1474.41 382.4 1474.95 Q385.657 1475.46 388.047 1473.07 Q390.436 1470.68 389.913 1467.44 Q389.389 1464.17 386.066 1460.84 Z" fill="#000000" fill-rule="nonzero" fill-opacity="1" /><path clip-path="url(#clip460)" d="M382.776 1435.36 L387.981 1440.56 L394.185 1434.36 L396.525 1436.7 L390.322 1442.9 L400.274 1452.86 Q402.516 1455.1 403.76 1455.13 Q405.02 1455.15 406.903 1453.26 L409.996 1450.17 L412.517 1452.69 L409.423 1455.79 Q405.937 1459.27 403.318 1459.3 Q400.683 1459.32 397.245 1455.88 L387.294 1445.93 L385.084 1448.14 L382.743 1445.8 L384.953 1443.59 L379.748 1438.39 L382.776 1435.36 Z" fill="#000000" fill-rule="nonzero" fill-opacity="1" /><path clip-path="url(#clip460)" d="M398.146 1430.4 L401.157 1427.39 L419.49 1445.72 L416.478 1448.73 L398.146 1430.4 M391.009 1423.26 L394.021 1420.25 L397.835 1424.06 L394.823 1427.08 L391.009 1423.26 Z" fill="#000000" fill-rule="nonzero" fill-opacity="1" /><path clip-path="url(#clip460)" d="M425.251 1410.33 Q424.351 1407.17 424.957 1404.64 Q425.562 1402.1 427.69 1399.97 Q430.555 1397.11 434.123 1397.56 Q437.675 1398.01 441.374 1401.71 L452.439 1412.77 L449.411 1415.8 L438.444 1404.83 Q435.809 1402.2 433.599 1401.85 Q431.389 1401.51 429.474 1403.42 Q427.134 1405.76 427.33 1408.68 Q427.527 1411.59 430.211 1414.28 L440.572 1424.64 L437.544 1427.66 L426.577 1416.7 Q423.926 1414.05 421.732 1413.72 Q419.523 1413.38 417.575 1415.32 Q415.267 1417.63 415.48 1420.56 Q415.676 1423.47 418.344 1426.14 L428.705 1436.5 L425.677 1439.53 L407.345 1421.2 L410.373 1418.17 L413.221 1421.02 Q412.566 1418.3 413.204 1416.06 Q413.843 1413.82 415.823 1411.84 Q417.82 1409.84 420.226 1409.46 Q422.649 1409.07 425.251 1410.33 Z" fill="#000000" fill-rule="nonzero" fill-opacity="1" /><path clip-path="url(#clip460)" d="M440.114 1388.43 L443.125 1385.42 L461.458 1403.75 L458.446 1406.76 L440.114 1388.43 M432.977 1381.29 L435.989 1378.28 L439.803 1382.1 L436.791 1385.11 L432.977 1381.29 Z" fill="#000000" fill-rule="nonzero" fill-opacity="1" /><path clip-path="url(#clip460)" d="M448.118 1380.43 L462.423 1366.12 L465.173 1368.87 L467.023 1393.37 L478.35 1382.05 L480.756 1384.45 L466.041 1399.17 L463.291 1396.42 L461.441 1371.92 L450.524 1382.83 L448.118 1380.43 Z" fill="#000000" fill-rule="nonzero" fill-opacity="1" /><path clip-path="url(#clip460)" d="M491.117 1354.25 L492.59 1355.73 L478.742 1369.57 Q482.049 1372.49 485.355 1372.46 Q488.661 1372.39 491.657 1369.39 Q493.392 1367.66 494.587 1365.61 Q495.798 1363.55 496.551 1361.1 L499.399 1363.94 Q498.466 1366.25 497.124 1368.31 Q495.782 1370.38 494.03 1372.13 Q489.644 1376.51 484.52 1376.53 Q479.413 1376.53 475.06 1372.18 Q470.558 1367.68 470.346 1362.62 Q470.133 1357.53 474.258 1353.4 Q477.957 1349.7 482.491 1349.95 Q487.025 1350.16 491.117 1354.25 M487.221 1356.38 Q484.717 1353.94 481.885 1353.83 Q479.07 1353.7 476.844 1355.92 Q474.323 1358.44 474.225 1361.39 Q474.143 1364.32 476.5 1367.14 L487.221 1356.38 Z" fill="#000000" fill-rule="nonzero" fill-opacity="1" /><path clip-path="url(#clip460)" d="M502.493 1331.62 L492.573 1321.7 L495.585 1318.69 L521.054 1344.15 L518.042 1347.17 L515.292 1344.42 Q515.98 1347 515.325 1349.26 Q514.67 1351.49 512.641 1353.52 Q509.318 1356.84 504.571 1356.28 Q499.841 1355.71 495.52 1351.39 Q491.199 1347.07 490.626 1342.34 Q490.069 1337.59 493.392 1334.27 Q495.421 1332.24 497.664 1331.6 Q499.906 1330.93 502.493 1331.62 M498.63 1348.28 Q501.952 1351.6 505.21 1352.14 Q508.467 1352.65 510.857 1350.26 Q513.246 1347.87 512.739 1344.61 Q512.215 1341.34 508.892 1338.02 Q505.57 1334.69 502.312 1334.19 Q499.039 1333.66 496.649 1336.05 Q494.259 1338.44 494.783 1341.72 Q495.307 1344.96 498.63 1348.28 Z" fill="#000000" fill-rule="nonzero" fill-opacity="1" /><path clip-path="url(#clip460)" d="M519.712 1294.62 Q521.283 1300.58 523.902 1305.33 Q526.521 1310.08 530.302 1313.86 Q534.083 1317.64 538.863 1320.29 Q543.642 1322.91 549.567 1324.48 L546.948 1327.1 Q540.647 1325.71 535.703 1323.22 Q530.777 1320.72 527.11 1317.05 Q523.46 1313.4 520.972 1308.49 Q518.484 1303.58 517.093 1297.24 L519.712 1294.62 Z" fill="#000000" fill-rule="nonzero" fill-opacity="1" /><path clip-path="url(#clip460)" d="M546.867 1273.23 L550.353 1276.72 Q547.128 1276.83 544.46 1277.96 Q541.809 1279.08 539.681 1281.2 Q535.491 1285.39 535.834 1290.19 Q536.162 1294.97 541.007 1299.81 Q545.835 1304.64 550.631 1304.99 Q555.411 1305.31 559.601 1301.12 Q561.729 1299 562.842 1296.34 Q563.971 1293.68 564.086 1290.45 L567.539 1293.9 Q566.983 1296.82 565.624 1299.36 Q564.282 1301.88 562.122 1304.04 Q556.573 1309.59 549.993 1309.39 Q543.396 1309.18 537.52 1303.3 Q531.628 1297.41 531.431 1290.83 Q531.219 1284.23 536.767 1278.68 Q538.961 1276.49 541.481 1275.15 Q544.002 1273.77 546.867 1273.23 Z" fill="#000000" fill-rule="nonzero" fill-opacity="1" /><path clip-path="url(#clip460)" d="M548.487 1265.85 L551.106 1263.23 Q557.424 1264.64 562.334 1267.13 Q567.261 1269.6 570.911 1273.25 Q574.578 1276.91 577.066 1281.86 Q579.57 1286.78 580.961 1293.09 L578.342 1295.71 Q576.771 1289.78 574.136 1285.02 Q571.501 1280.22 567.72 1276.44 Q563.938 1272.66 559.175 1270.06 Q554.429 1267.44 548.487 1265.85 Z" fill="#000000" fill-rule="nonzero" fill-opacity="1" /><path clip-path="url(#clip460)" d="M625.065 1537.04 L627.88 1539.85 Q625.9 1540.42 624.263 1541.37 Q622.626 1542.29 621.317 1543.6 Q618.387 1546.53 618.632 1550.02 Q618.862 1553.49 622.217 1556.84 Q625.572 1560.2 629.059 1560.44 Q632.529 1560.67 635.459 1557.74 Q636.768 1556.43 637.701 1554.81 Q638.634 1553.16 639.207 1551.18 L641.99 1553.96 Q641.319 1555.81 640.255 1557.46 Q639.207 1559.1 637.685 1560.62 Q633.544 1564.76 628.502 1564.6 Q623.461 1564.44 619.042 1560.02 Q614.557 1555.53 614.442 1550.51 Q614.344 1545.47 618.632 1541.18 Q620.024 1539.79 621.644 1538.76 Q623.248 1537.71 625.065 1537.04 Z" fill="#000000" fill-rule="nonzero" fill-opacity="1" /><path clip-path="url(#clip460)" d="M648.095 1543.76 L657.818 1553.49 L654.79 1556.51 L629.484 1531.21 L632.513 1528.18 L635.295 1530.96 Q634.608 1528.38 635.262 1526.15 Q635.917 1523.89 637.93 1521.88 Q641.269 1518.54 646 1519.11 Q650.747 1519.67 655.068 1523.99 Q659.389 1528.31 659.946 1533.06 Q660.518 1537.79 657.179 1541.13 Q655.166 1543.14 652.924 1543.81 Q650.681 1544.45 648.095 1543.76 M651.942 1527.12 Q648.619 1523.79 645.362 1523.29 Q642.104 1522.75 639.715 1525.14 Q637.325 1527.53 637.849 1530.8 Q638.372 1534.04 641.695 1537.36 Q645.018 1540.69 648.275 1541.23 Q651.532 1541.73 653.922 1539.34 Q656.312 1536.95 655.788 1533.71 Q655.264 1530.44 651.942 1527.12 Z" fill="#000000" fill-rule="nonzero" fill-opacity="1" /><path clip-path="url(#clip460)" d="M661.664 1521.23 L650.567 1510.13 L653.578 1507.12 L664.561 1518.1 Q667.164 1520.7 669.488 1521 Q671.796 1521.27 673.826 1519.24 Q676.265 1516.81 676.117 1513.84 Q675.986 1510.86 673.302 1508.18 L662.908 1497.79 L665.92 1494.77 L684.252 1513.11 L681.24 1516.12 L678.425 1513.3 Q678.998 1516.07 678.36 1518.34 Q677.721 1520.59 675.806 1522.5 Q672.647 1525.66 669.046 1525.33 Q665.445 1525.01 661.664 1521.23 M657.703 1502.11 L657.703 1502.11 Z" fill="#000000" fill-rule="nonzero" fill-opacity="1" /><path clip-path="url(#clip460)" d="M709.95 1498.54 L712.291 1500.88 L694.875 1518.3 L692.534 1515.95 L709.95 1498.54 Z" fill="#000000" fill-rule="nonzero" fill-opacity="1" /><path clip-path="url(#clip460)" d="M698.1 1466.82 Q695.677 1469.24 696.168 1472.55 Q696.643 1475.84 699.933 1479.13 Q703.223 1482.42 706.513 1482.92 Q709.803 1483.4 712.242 1480.96 Q714.648 1478.55 714.157 1475.25 Q713.666 1471.94 710.392 1468.67 Q707.135 1465.41 703.828 1464.92 Q700.506 1464.41 698.1 1466.82 M695.546 1464.26 Q699.475 1460.34 704.27 1460.65 Q709.066 1460.96 713.584 1465.48 Q718.085 1469.98 718.412 1474.79 Q718.723 1479.58 714.795 1483.51 Q710.85 1487.46 706.055 1487.15 Q701.259 1486.8 696.757 1482.3 Q692.24 1477.78 691.912 1473 Q691.601 1468.21 695.546 1464.26 Z" fill="#000000" fill-rule="nonzero" fill-opacity="1" /><path clip-path="url(#clip460)" d="M727.89 1463.97 L737.612 1473.69 L734.584 1476.72 L709.279 1451.42 L712.307 1448.39 L715.09 1451.17 Q714.402 1448.58 715.057 1446.36 Q715.712 1444.1 717.725 1442.09 Q721.064 1438.75 725.794 1439.32 Q730.541 1439.88 734.862 1444.2 Q739.184 1448.52 739.74 1453.26 Q740.313 1458 736.974 1461.33 Q734.961 1463.35 732.718 1464.02 Q730.476 1464.66 727.89 1463.97 M731.736 1447.32 Q728.413 1444 725.156 1443.49 Q721.899 1442.95 719.509 1445.34 Q717.119 1447.73 717.643 1451.01 Q718.167 1454.25 721.49 1457.57 Q724.812 1460.89 728.07 1461.43 Q731.327 1461.94 733.717 1459.55 Q736.106 1457.16 735.583 1453.92 Q735.059 1450.65 731.736 1447.32 Z" fill="#000000" fill-rule="nonzero" fill-opacity="1" /><path clip-path="url(#clip460)" d="M728.446 1421.84 L733.651 1427.04 L739.855 1420.84 L742.195 1423.18 L735.992 1429.38 L745.944 1439.34 Q748.186 1441.58 749.43 1441.61 Q750.69 1441.63 752.573 1439.74 L755.666 1436.65 L758.187 1439.17 L755.093 1442.27 Q751.607 1445.75 748.988 1445.78 Q746.353 1445.8 742.916 1442.36 L732.964 1432.41 L730.754 1434.62 L728.413 1432.28 L730.623 1430.07 L725.418 1424.87 L728.446 1421.84 Z" fill="#000000" fill-rule="nonzero" fill-opacity="1" /><path clip-path="url(#clip460)" d="M743.816 1416.88 L746.828 1413.87 L765.16 1432.2 L762.148 1435.21 L743.816 1416.88 M736.679 1409.74 L739.691 1406.73 L743.505 1410.54 L740.493 1413.56 L736.679 1409.74 Z" fill="#000000" fill-rule="nonzero" fill-opacity="1" /><path clip-path="url(#clip460)" d="M770.921 1396.81 Q770.021 1393.65 770.627 1391.11 Q771.232 1388.58 773.36 1386.45 Q776.225 1383.59 779.793 1384.04 Q783.345 1384.49 787.044 1388.19 L798.109 1399.25 L795.081 1402.28 L784.114 1391.31 Q781.479 1388.68 779.269 1388.33 Q777.059 1387.99 775.144 1389.9 Q772.804 1392.24 773 1395.16 Q773.197 1398.07 775.881 1400.76 L786.242 1411.12 L783.214 1414.14 L772.247 1403.18 Q769.596 1400.53 767.402 1400.2 Q765.193 1399.86 763.245 1401.8 Q760.937 1404.11 761.15 1407.04 Q761.346 1409.95 764.014 1412.62 L774.375 1422.98 L771.347 1426.01 L753.015 1407.68 L756.043 1404.65 L758.891 1407.5 Q758.236 1404.78 758.874 1402.54 Q759.513 1400.3 761.493 1398.32 Q763.49 1396.32 765.896 1395.94 Q768.319 1395.55 770.921 1396.81 Z" fill="#000000" fill-rule="nonzero" fill-opacity="1" /><path clip-path="url(#clip460)" d="M785.784 1374.91 L788.795 1371.9 L807.128 1390.23 L804.116 1393.24 L785.784 1374.91 M778.647 1367.77 L781.659 1364.76 L785.473 1368.58 L782.461 1371.59 L778.647 1367.77 Z" fill="#000000" fill-rule="nonzero" fill-opacity="1" /><path clip-path="url(#clip460)" d="M793.788 1366.91 L808.093 1352.6 L810.843 1355.35 L812.693 1379.85 L824.02 1368.53 L826.426 1370.93 L811.711 1385.65 L808.961 1382.9 L807.111 1358.4 L796.194 1369.31 L793.788 1366.91 Z" fill="#000000" fill-rule="nonzero" fill-opacity="1" /><path clip-path="url(#clip460)" d="M836.787 1340.73 L838.26 1342.21 L824.412 1356.05 Q827.719 1358.97 831.025 1358.94 Q834.332 1358.87 837.327 1355.87 Q839.062 1354.14 840.257 1352.09 Q841.468 1350.03 842.221 1347.58 L845.069 1350.42 Q844.136 1352.73 842.794 1354.79 Q841.452 1356.86 839.7 1358.61 Q835.314 1362.99 830.19 1363.01 Q825.084 1363.01 820.73 1358.66 Q816.228 1354.16 816.016 1349.1 Q815.803 1344.01 819.928 1339.88 Q823.627 1336.18 828.161 1336.43 Q832.695 1336.64 836.787 1340.73 M832.891 1342.86 Q830.387 1340.42 827.555 1340.31 Q824.74 1340.18 822.514 1342.4 Q819.993 1344.92 819.895 1347.87 Q819.813 1350.8 822.17 1353.62 L832.891 1342.86 Z" fill="#000000" fill-rule="nonzero" fill-opacity="1" /><path clip-path="url(#clip460)" d="M848.163 1318.1 L838.243 1308.18 L841.255 1305.17 L866.724 1330.63 L863.712 1333.65 L860.962 1330.9 Q861.65 1333.48 860.995 1335.74 Q860.34 1337.97 858.311 1340 Q854.988 1343.32 850.241 1342.76 Q845.511 1342.19 841.19 1337.87 Q836.869 1333.55 836.296 1328.82 Q835.739 1324.07 839.062 1320.75 Q841.092 1318.72 843.334 1318.08 Q845.576 1317.41 848.163 1318.1 M844.3 1334.76 Q847.622 1338.08 850.88 1338.62 Q854.137 1339.13 856.527 1336.74 Q858.916 1334.35 858.409 1331.09 Q857.885 1327.82 854.563 1324.5 Q851.24 1321.17 847.983 1320.67 Q844.709 1320.14 842.319 1322.53 Q839.929 1324.92 840.453 1328.2 Q840.977 1331.44 844.3 1334.76 Z" fill="#000000" fill-rule="nonzero" fill-opacity="1" /><path clip-path="url(#clip460)" d="M865.382 1281.1 Q866.953 1287.06 869.572 1291.81 Q872.191 1296.56 875.972 1300.34 Q879.753 1304.12 884.533 1306.77 Q889.312 1309.39 895.237 1310.96 L892.618 1313.58 Q886.317 1312.19 881.374 1309.7 Q876.447 1307.2 872.78 1303.53 Q869.13 1299.88 866.642 1294.97 Q864.154 1290.06 862.763 1283.72 L865.382 1281.1 Z" fill="#000000" fill-rule="nonzero" fill-opacity="1" /><path clip-path="url(#clip460)" d="M872.355 1276.13 L875.661 1272.82 L898.396 1295.56 Q902.816 1299.98 903.127 1303.66 Q903.454 1307.33 899.739 1311.04 L898.478 1312.3 L895.696 1309.52 L896.727 1308.49 Q898.92 1306.3 898.593 1304.17 Q898.265 1302.04 895.09 1298.86 L872.355 1276.13 Z" fill="#000000" fill-rule="nonzero" fill-opacity="1" /><path clip-path="url(#clip460)" d="M880.637 1265.85 L883.256 1263.23 Q889.574 1264.64 894.484 1267.13 Q899.411 1269.6 903.061 1273.25 Q906.728 1276.91 909.216 1281.86 Q911.72 1286.78 913.111 1293.09 L910.492 1295.71 Q908.921 1289.78 906.286 1285.02 Q903.651 1280.22 899.869 1276.44 Q896.088 1272.66 891.325 1270.06 Q886.579 1267.44 880.637 1265.85 Z" fill="#000000" fill-rule="nonzero" fill-opacity="1" /><path clip-path="url(#clip460)" d="M852.718 1546.46 L855.533 1549.28 Q853.552 1549.85 851.916 1550.8 Q850.279 1551.72 848.969 1553.03 Q846.039 1555.96 846.285 1559.44 Q846.514 1562.91 849.87 1566.27 Q853.225 1569.63 856.711 1569.87 Q860.182 1570.1 863.111 1567.17 Q864.421 1565.86 865.354 1564.24 Q866.287 1562.59 866.86 1560.61 L869.642 1563.39 Q868.971 1565.24 867.907 1566.89 Q866.86 1568.53 865.337 1570.05 Q861.196 1574.19 856.155 1574.03 Q851.114 1573.87 846.694 1569.45 Q842.209 1564.96 842.095 1559.94 Q841.997 1554.89 846.285 1550.61 Q847.676 1549.21 849.297 1548.18 Q850.901 1547.14 852.718 1546.46 Z" fill="#000000" fill-rule="nonzero" fill-opacity="1" /><path clip-path="url(#clip460)" d="M875.748 1553.19 L885.47 1562.91 L882.442 1565.94 L857.137 1540.64 L860.165 1537.61 L862.948 1540.39 Q862.26 1537.81 862.915 1535.58 Q863.57 1533.32 865.583 1531.31 Q868.922 1527.97 873.652 1528.54 Q878.399 1529.1 882.72 1533.42 Q887.042 1537.74 887.598 1542.49 Q888.171 1547.22 884.832 1550.56 Q882.819 1552.57 880.576 1553.24 Q878.334 1553.88 875.748 1553.19 M879.594 1536.55 Q876.271 1533.22 873.014 1532.72 Q869.757 1532.18 867.367 1534.57 Q864.977 1536.95 865.501 1540.23 Q866.025 1543.47 869.348 1546.79 Q872.67 1550.11 875.928 1550.66 Q879.185 1551.16 881.575 1548.77 Q883.964 1546.38 883.441 1543.14 Q882.917 1539.87 879.594 1536.55 Z" fill="#000000" fill-rule="nonzero" fill-opacity="1" /><path clip-path="url(#clip460)" d="M889.317 1530.65 L878.219 1519.56 L881.231 1516.54 L892.214 1527.53 Q894.816 1530.13 897.141 1530.42 Q899.449 1530.7 901.478 1528.67 Q903.917 1526.23 903.77 1523.27 Q903.639 1520.29 900.955 1517.61 L890.561 1507.21 L893.572 1504.2 L911.905 1522.53 L908.893 1525.55 L906.078 1522.73 Q906.651 1525.5 906.012 1527.77 Q905.374 1530.01 903.459 1531.93 Q900.3 1535.09 896.699 1534.76 Q893.098 1534.43 889.317 1530.65 M885.356 1511.54 L885.356 1511.54 Z" fill="#000000" fill-rule="nonzero" fill-opacity="1" /><path clip-path="url(#clip460)" d="M937.603 1507.97 L939.943 1510.31 L922.528 1527.72 L920.187 1525.38 L937.603 1507.97 Z" fill="#000000" fill-rule="nonzero" fill-opacity="1" /><path clip-path="url(#clip460)" d="M914.376 1483.4 L917.568 1480.21 L938.683 1489.86 L929.026 1468.75 L932.218 1465.56 L943.675 1490.76 L939.583 1494.86 L914.376 1483.4 Z" fill="#000000" fill-rule="nonzero" fill-opacity="1" /><path clip-path="url(#clip460)" d="M960.469 1454.13 L961.942 1455.61 L948.095 1469.45 Q951.401 1472.37 954.707 1472.33 Q958.014 1472.27 961.009 1469.27 Q962.744 1467.54 963.939 1465.49 Q965.15 1463.43 965.903 1460.97 L968.751 1463.82 Q967.818 1466.13 966.476 1468.19 Q965.134 1470.25 963.383 1472.01 Q958.996 1476.39 953.873 1476.41 Q948.766 1476.41 944.412 1472.06 Q939.911 1467.55 939.698 1462.5 Q939.485 1457.41 943.61 1453.28 Q947.309 1449.58 951.843 1449.83 Q956.377 1450.04 960.469 1454.13 M956.573 1456.26 Q954.069 1453.82 951.237 1453.71 Q948.422 1453.58 946.196 1455.8 Q943.675 1458.32 943.577 1461.27 Q943.495 1464.2 945.852 1467.01 L956.573 1456.26 Z" fill="#000000" fill-rule="nonzero" fill-opacity="1" /><path clip-path="url(#clip460)" d="M970.896 1428.29 L973.711 1431.1 Q971.73 1431.68 970.093 1432.62 Q968.457 1433.54 967.147 1434.85 Q964.217 1437.78 964.463 1441.27 Q964.692 1444.74 968.047 1448.09 Q971.403 1451.45 974.889 1451.69 Q978.359 1451.92 981.289 1448.99 Q982.599 1447.68 983.532 1446.06 Q984.465 1444.41 985.038 1442.43 L987.82 1445.21 Q987.149 1447.06 986.085 1448.71 Q985.038 1450.35 983.515 1451.87 Q979.374 1456.01 974.333 1455.85 Q969.291 1455.69 964.872 1451.27 Q960.387 1446.78 960.273 1441.76 Q960.174 1436.72 964.463 1432.43 Q965.854 1431.04 967.475 1430.01 Q969.079 1428.96 970.896 1428.29 Z" fill="#000000" fill-rule="nonzero" fill-opacity="1" /><path clip-path="url(#clip460)" d="M973.203 1414.16 L978.408 1419.37 L984.612 1413.16 L986.953 1415.5 L980.749 1421.71 L990.701 1431.66 Q992.943 1433.9 994.187 1433.93 Q995.448 1433.95 997.33 1432.07 L1000.42 1428.97 L1002.94 1431.5 L999.851 1434.59 Q996.364 1438.08 993.745 1438.11 Q991.11 1438.12 987.673 1434.69 L977.721 1424.74 L975.511 1426.94 L973.171 1424.6 L975.38 1422.39 L970.175 1417.19 L973.203 1414.16 Z" fill="#000000" fill-rule="nonzero" fill-opacity="1" /><path clip-path="url(#clip460)" d="M997.788 1404.21 Q995.366 1406.63 995.857 1409.94 Q996.332 1413.23 999.622 1416.52 Q1002.91 1419.81 1006.2 1420.32 Q1009.49 1420.79 1011.93 1418.35 Q1014.34 1415.95 1013.85 1412.64 Q1013.35 1409.33 1010.08 1406.06 Q1006.82 1402.8 1003.52 1402.31 Q1000.19 1401.8 997.788 1404.21 M995.235 1401.66 Q999.163 1397.73 1003.96 1398.04 Q1008.75 1398.35 1013.27 1402.87 Q1017.77 1407.37 1018.1 1412.18 Q1018.41 1416.98 1014.48 1420.9 Q1010.54 1424.85 1005.74 1424.54 Q1000.95 1424.19 996.446 1419.69 Q991.929 1415.18 991.601 1410.4 Q991.29 1405.6 995.235 1401.66 Z" fill="#000000" fill-rule="nonzero" fill-opacity="1" /><path clip-path="url(#clip460)" d="M1022.52 1380.88 Q1021.72 1381.1 1020.98 1381.57 Q1020.25 1382.01 1019.53 1382.73 Q1016.97 1385.29 1017.27 1388.33 Q1017.56 1391.34 1020.67 1394.45 L1030.33 1404.11 L1027.3 1407.14 L1008.97 1388.81 L1012 1385.78 L1014.84 1388.63 Q1014.12 1386.01 1014.84 1383.68 Q1015.55 1381.34 1017.72 1379.17 Q1018.04 1378.86 1018.46 1378.53 Q1018.87 1378.18 1019.41 1377.81 L1022.52 1380.88 Z" fill="#000000" fill-rule="nonzero" fill-opacity="1" /><path clip-path="url(#clip460)" d="M1022.86 1374.91 L1025.88 1371.9 L1044.21 1390.23 L1041.2 1393.24 L1022.86 1374.91 M1015.73 1367.77 L1018.74 1364.76 L1022.55 1368.58 L1019.54 1371.59 L1015.73 1367.77 Z" fill="#000000" fill-rule="nonzero" fill-opacity="1" /><path clip-path="url(#clip460)" d="M1030.87 1366.91 L1045.17 1352.6 L1047.92 1355.35 L1049.77 1379.85 L1061.1 1368.53 L1063.51 1370.93 L1048.79 1385.65 L1046.04 1382.9 L1044.19 1358.4 L1033.27 1369.31 L1030.87 1366.91 Z" fill="#000000" fill-rule="nonzero" fill-opacity="1" /><path clip-path="url(#clip460)" d="M1073.87 1340.73 L1075.34 1342.21 L1061.49 1356.05 Q1064.8 1358.97 1068.11 1358.94 Q1071.41 1358.87 1074.41 1355.87 Q1076.14 1354.14 1077.34 1352.09 Q1078.55 1350.03 1079.3 1347.58 L1082.15 1350.42 Q1081.22 1352.73 1079.87 1354.79 Q1078.53 1356.86 1076.78 1358.61 Q1072.39 1362.99 1067.27 1363.01 Q1062.16 1363.01 1057.81 1358.66 Q1053.31 1354.16 1053.1 1349.1 Q1052.88 1344.01 1057.01 1339.88 Q1060.71 1336.18 1065.24 1336.43 Q1069.78 1336.64 1073.87 1340.73 M1069.97 1342.86 Q1067.47 1340.42 1064.64 1340.31 Q1061.82 1340.18 1059.59 1342.4 Q1057.07 1344.92 1056.98 1347.87 Q1056.89 1350.8 1059.25 1353.62 L1069.97 1342.86 Z" fill="#000000" fill-rule="nonzero" fill-opacity="1" /><path clip-path="url(#clip460)" d="M1085.24 1318.1 L1075.32 1308.18 L1078.34 1305.17 L1103.8 1330.63 L1100.79 1333.65 L1098.04 1330.9 Q1098.73 1333.48 1098.08 1335.74 Q1097.42 1337.97 1095.39 1340 Q1092.07 1343.32 1087.32 1342.76 Q1082.59 1342.19 1078.27 1337.87 Q1073.95 1333.55 1073.38 1328.82 Q1072.82 1324.07 1076.14 1320.75 Q1078.17 1318.72 1080.41 1318.08 Q1082.66 1317.41 1085.24 1318.1 M1081.38 1334.76 Q1084.7 1338.08 1087.96 1338.62 Q1091.22 1339.13 1093.61 1336.74 Q1096 1334.35 1095.49 1331.09 Q1094.97 1327.82 1091.64 1324.5 Q1088.32 1321.17 1085.06 1320.67 Q1081.79 1320.14 1079.4 1322.53 Q1077.01 1324.92 1077.53 1328.2 Q1078.06 1331.44 1081.38 1334.76 Z" fill="#000000" fill-rule="nonzero" fill-opacity="1" /><path clip-path="url(#clip460)" d="M1102.46 1281.1 Q1104.03 1287.06 1106.65 1291.81 Q1109.27 1296.56 1113.05 1300.34 Q1116.83 1304.12 1121.61 1306.77 Q1126.39 1309.39 1132.32 1310.96 L1129.7 1313.58 Q1123.4 1312.19 1118.45 1309.7 Q1113.53 1307.2 1109.86 1303.53 Q1106.21 1299.88 1103.72 1294.97 Q1101.23 1290.06 1099.84 1283.72 L1102.46 1281.1 Z" fill="#000000" fill-rule="nonzero" fill-opacity="1" /><path clip-path="url(#clip460)" d="M1109.44 1276.13 L1112.74 1272.82 L1135.48 1295.56 Q1139.9 1299.98 1140.21 1303.66 Q1140.53 1307.33 1136.82 1311.04 L1135.56 1312.3 L1132.78 1309.52 L1133.81 1308.49 Q1136 1306.3 1135.67 1304.17 Q1135.35 1302.04 1132.17 1298.86 L1109.44 1276.13 Z" fill="#000000" fill-rule="nonzero" fill-opacity="1" /><path clip-path="url(#clip460)" d="M1117.72 1265.85 L1120.34 1263.23 Q1126.65 1264.64 1131.57 1267.13 Q1136.49 1269.6 1140.14 1273.25 Q1143.81 1276.91 1146.3 1281.86 Q1148.8 1286.78 1150.19 1293.09 L1147.57 1295.71 Q1146 1289.78 1143.37 1285.02 Q1140.73 1280.22 1136.95 1276.44 Q1133.17 1272.66 1128.41 1270.06 Q1123.66 1267.44 1117.72 1265.85 Z" fill="#000000" fill-rule="nonzero" fill-opacity="1" /><path clip-path="url(#clip460)" d="M1259.7 1389.69 L1270.76 1400.76 L1267.75 1403.77 L1256.79 1392.8 Q1254.18 1390.2 1251.88 1389.92 Q1249.57 1389.64 1247.54 1391.67 Q1245.1 1394.11 1245.25 1397.07 Q1245.39 1400.04 1248.08 1402.72 L1258.44 1413.08 L1255.41 1416.11 L1237.08 1397.78 L1240.11 1394.75 L1242.95 1397.6 Q1242.38 1394.86 1243.02 1392.59 Q1243.68 1390.3 1245.59 1388.38 Q1248.75 1385.22 1252.33 1385.57 Q1255.9 1385.89 1259.7 1389.69 Z" fill="#000000" fill-rule="nonzero" fill-opacity="1" /><path clip-path="url(#clip460)" d="M1275.89 1377.2 Q1272.24 1380.85 1271.66 1383.09 Q1271.09 1385.34 1273.1 1387.35 Q1274.71 1388.95 1276.71 1388.86 Q1278.7 1388.73 1280.52 1386.91 Q1283.02 1384.4 1282.76 1381.13 Q1282.5 1377.82 1279.55 1374.88 L1278.88 1374.21 L1275.89 1377.2 M1280.65 1369.95 L1291.11 1380.41 L1288.1 1383.42 L1285.32 1380.64 Q1285.95 1383.34 1285.22 1385.68 Q1284.46 1388.01 1282.24 1390.23 Q1279.42 1393.05 1276.18 1393.14 Q1272.94 1393.21 1270.29 1390.56 Q1267.2 1387.46 1267.69 1383.83 Q1268.19 1380.18 1272.3 1376.07 L1276.53 1371.85 L1276.23 1371.56 Q1274.15 1369.48 1271.65 1369.72 Q1269.14 1369.93 1266.67 1372.41 Q1265.1 1373.98 1263.99 1375.84 Q1262.87 1377.71 1262.25 1379.84 L1259.47 1377.05 Q1260.49 1374.76 1261.73 1372.9 Q1262.96 1371.01 1264.43 1369.54 Q1268.41 1365.56 1272.43 1365.66 Q1276.46 1365.76 1280.65 1369.95 Z" fill="#000000" fill-rule="nonzero" fill-opacity="1" /><path clip-path="url(#clip460)" d="M1278.98 1355.87 L1281.99 1352.86 L1300.33 1371.19 L1297.31 1374.21 L1278.98 1355.87 M1271.84 1348.74 L1274.86 1345.73 L1278.67 1349.54 L1275.66 1352.55 L1271.84 1348.74 Z" fill="#000000" fill-rule="nonzero" fill-opacity="1" /><path clip-path="url(#clip460)" d="M1286.13 1348.72 L1289.33 1345.53 L1310.44 1355.19 L1300.78 1334.07 L1303.98 1330.88 L1315.43 1356.09 L1311.34 1360.18 L1286.13 1348.72 Z" fill="#000000" fill-rule="nonzero" fill-opacity="1" /><path clip-path="url(#clip460)" d="M1332.23 1319.46 L1333.7 1320.93 L1319.85 1334.78 Q1323.16 1337.69 1326.47 1337.66 Q1329.77 1337.59 1332.77 1334.6 Q1334.5 1332.86 1335.7 1330.81 Q1336.91 1328.75 1337.66 1326.3 L1340.51 1329.15 Q1339.58 1331.45 1338.23 1333.52 Q1336.89 1335.58 1335.14 1337.33 Q1330.75 1341.72 1325.63 1341.73 Q1320.52 1341.73 1316.17 1337.38 Q1311.67 1332.88 1311.46 1327.82 Q1311.24 1322.73 1315.37 1318.6 Q1319.07 1314.9 1323.6 1315.15 Q1328.13 1315.36 1332.23 1319.46 M1328.33 1321.58 Q1325.83 1319.14 1322.99 1319.03 Q1320.18 1318.9 1317.95 1321.12 Q1315.43 1323.65 1315.33 1326.59 Q1315.25 1329.52 1317.61 1332.34 L1328.33 1321.58 Z" fill="#000000" fill-rule="nonzero" fill-opacity="1" /><path clip-path="url(#clip460)" d="M1339.54 1281.1 Q1341.11 1287.06 1343.73 1291.81 Q1346.35 1296.56 1350.13 1300.34 Q1353.91 1304.12 1358.69 1306.77 Q1363.47 1309.39 1369.4 1310.96 L1366.78 1313.58 Q1360.48 1312.19 1355.53 1309.7 Q1350.61 1307.2 1346.94 1303.53 Q1343.29 1299.88 1340.8 1294.97 Q1338.32 1290.06 1336.92 1283.72 L1339.54 1281.1 Z" fill="#000000" fill-rule="nonzero" fill-opacity="1" /><path clip-path="url(#clip460)" d="M1346.52 1276.13 L1349.82 1272.82 L1372.56 1295.56 Q1376.98 1299.98 1377.29 1303.66 Q1377.62 1307.33 1373.9 1311.04 L1372.64 1312.3 L1369.86 1309.52 L1370.89 1308.49 Q1373.08 1306.3 1372.75 1304.17 Q1372.43 1302.04 1369.25 1298.86 L1346.52 1276.13 Z" fill="#000000" fill-rule="nonzero" fill-opacity="1" /><path clip-path="url(#clip460)" d="M1354.8 1265.85 L1357.42 1263.23 Q1363.74 1264.64 1368.65 1267.13 Q1373.57 1269.6 1377.22 1273.25 Q1380.89 1276.91 1383.38 1281.86 Q1385.88 1286.78 1387.27 1293.09 L1384.65 1295.71 Q1383.08 1289.78 1380.45 1285.02 Q1377.81 1280.22 1374.03 1276.44 Q1370.25 1272.66 1365.49 1270.06 Q1360.74 1267.44 1354.8 1265.85 Z" fill="#000000" fill-rule="nonzero" fill-opacity="1" /><path clip-path="url(#clip460)" d="M1513.95 1465.74 L1504.03 1455.82 L1507.04 1452.81 L1532.51 1478.28 L1529.5 1481.29 L1526.75 1478.54 Q1527.43 1481.12 1526.78 1483.38 Q1526.12 1485.61 1524.09 1487.64 Q1520.77 1490.96 1516.02 1490.4 Q1511.29 1489.83 1506.97 1485.51 Q1502.65 1481.19 1502.08 1476.46 Q1501.52 1471.71 1504.85 1468.39 Q1506.87 1466.36 1509.12 1465.72 Q1511.36 1465.05 1513.95 1465.74 M1510.08 1482.4 Q1513.41 1485.72 1516.66 1486.26 Q1519.92 1486.77 1522.31 1484.38 Q1524.7 1481.99 1524.19 1478.73 Q1523.67 1475.46 1520.35 1472.14 Q1517.02 1468.81 1513.77 1468.31 Q1510.49 1467.78 1508.1 1470.17 Q1505.71 1472.56 1506.24 1475.84 Q1506.76 1479.08 1510.08 1482.4 Z" fill="#000000" fill-rule="nonzero" fill-opacity="1" /><path clip-path="url(#clip460)" d="M1537.83 1454.53 Q1534.18 1458.18 1533.6 1460.42 Q1533.03 1462.66 1535.04 1464.67 Q1536.65 1466.28 1538.65 1466.18 Q1540.64 1466.05 1542.46 1464.23 Q1544.96 1461.73 1544.7 1458.45 Q1544.44 1455.15 1541.49 1452.2 L1540.82 1451.53 L1537.83 1454.53 M1542.59 1447.27 L1553.05 1457.73 L1550.04 1460.74 L1547.25 1457.96 Q1547.89 1460.66 1547.16 1463 Q1546.4 1465.33 1544.18 1467.55 Q1541.36 1470.37 1538.12 1470.47 Q1534.88 1470.53 1532.23 1467.88 Q1529.14 1464.79 1529.63 1461.15 Q1530.13 1457.5 1534.24 1453.4 L1538.47 1449.17 L1538.17 1448.88 Q1536.09 1446.8 1533.59 1447.04 Q1531.08 1447.26 1528.61 1449.73 Q1527.04 1451.3 1525.93 1453.17 Q1524.81 1455.03 1524.19 1457.16 L1521.41 1454.38 Q1522.42 1452.09 1523.67 1450.22 Q1524.9 1448.34 1526.37 1446.86 Q1530.35 1442.89 1534.37 1442.99 Q1538.4 1443.08 1542.59 1447.27 Z" fill="#000000" fill-rule="nonzero" fill-opacity="1" /><path clip-path="url(#clip460)" d="M1554.82 1420.71 L1557.63 1423.52 Q1555.65 1424.1 1554.01 1425.05 Q1552.38 1425.96 1551.07 1427.27 Q1548.14 1430.2 1548.38 1433.69 Q1548.61 1437.16 1551.97 1440.51 Q1555.32 1443.87 1558.81 1444.11 Q1562.28 1444.34 1565.21 1441.41 Q1566.52 1440.1 1567.45 1438.48 Q1568.39 1436.83 1568.96 1434.85 L1571.74 1437.63 Q1571.07 1439.48 1570.01 1441.14 Q1568.96 1442.77 1567.44 1444.29 Q1563.3 1448.44 1558.25 1448.27 Q1553.21 1448.11 1548.79 1443.69 Q1544.31 1439.2 1544.19 1434.18 Q1544.1 1429.14 1548.38 1424.85 Q1549.78 1423.46 1551.4 1422.43 Q1553 1421.38 1554.82 1420.71 Z" fill="#000000" fill-rule="nonzero" fill-opacity="1" /><path clip-path="url(#clip460)" d="M1583.44 1407.5 L1584.92 1408.97 L1571.07 1422.82 Q1574.38 1425.73 1577.68 1425.7 Q1580.99 1425.64 1583.98 1422.64 Q1585.72 1420.9 1586.91 1418.86 Q1588.13 1416.8 1588.88 1414.34 L1591.73 1417.19 Q1590.79 1419.5 1589.45 1421.56 Q1588.11 1423.62 1586.36 1425.37 Q1581.97 1429.76 1576.85 1429.78 Q1571.74 1429.78 1567.39 1425.42 Q1562.89 1420.92 1562.67 1415.86 Q1562.46 1410.77 1566.59 1406.65 Q1570.28 1402.95 1574.82 1403.19 Q1579.35 1403.41 1583.44 1407.5 M1579.55 1409.63 Q1577.04 1407.19 1574.21 1407.07 Q1571.4 1406.94 1569.17 1409.17 Q1566.65 1411.69 1566.55 1414.64 Q1566.47 1417.57 1568.83 1420.38 L1579.55 1409.63 Z" fill="#000000" fill-rule="nonzero" fill-opacity="1" /><path clip-path="url(#clip460)" d="M1617.8 1404.11 L1620.14 1406.45 L1602.73 1423.87 L1600.39 1421.53 L1617.8 1404.11 Z" fill="#000000" fill-rule="nonzero" fill-opacity="1" /><path clip-path="url(#clip460)" d="M1610.63 1364.89 L1613.45 1367.71 Q1611.47 1368.28 1609.83 1369.23 Q1608.19 1370.15 1606.88 1371.46 Q1603.95 1374.39 1604.2 1377.87 Q1604.43 1381.34 1607.78 1384.7 Q1611.14 1388.05 1614.63 1388.3 Q1618.1 1388.53 1621.03 1385.6 Q1622.34 1384.29 1623.27 1382.67 Q1624.2 1381.02 1624.77 1379.04 L1627.56 1381.82 Q1626.89 1383.67 1625.82 1385.32 Q1624.77 1386.96 1623.25 1388.48 Q1619.11 1392.62 1614.07 1392.46 Q1609.03 1392.29 1604.61 1387.87 Q1600.12 1383.39 1600.01 1378.36 Q1599.91 1373.32 1604.2 1369.03 Q1605.59 1367.64 1607.21 1366.61 Q1608.82 1365.56 1610.63 1364.89 Z" fill="#000000" fill-rule="nonzero" fill-opacity="1" /><path clip-path="url(#clip460)" d="M1633.66 1371.62 L1643.38 1381.34 L1640.36 1384.37 L1615.05 1359.07 L1618.08 1356.04 L1620.86 1358.82 Q1620.17 1356.23 1620.83 1354.01 Q1621.48 1351.75 1623.5 1349.74 Q1626.84 1346.4 1631.57 1346.97 Q1636.31 1347.53 1640.64 1351.85 Q1644.96 1356.17 1645.51 1360.92 Q1646.09 1365.65 1642.75 1368.99 Q1640.73 1371 1638.49 1371.67 Q1636.25 1372.31 1633.66 1371.62 M1637.51 1354.97 Q1634.19 1351.65 1630.93 1351.14 Q1627.67 1350.6 1625.28 1352.99 Q1622.89 1355.38 1623.42 1358.66 Q1623.94 1361.9 1627.26 1365.22 Q1630.59 1368.54 1633.84 1369.08 Q1637.1 1369.59 1639.49 1367.2 Q1641.88 1364.81 1641.36 1361.57 Q1640.83 1358.3 1637.51 1354.97 Z" fill="#000000" fill-rule="nonzero" fill-opacity="1" /><path clip-path="url(#clip460)" d="M1647.23 1349.08 L1636.13 1337.98 L1639.15 1334.97 L1650.13 1345.96 Q1652.73 1348.56 1655.06 1348.85 Q1657.36 1349.13 1659.39 1347.1 Q1661.83 1344.66 1661.68 1341.7 Q1661.55 1338.72 1658.87 1336.04 L1648.48 1325.64 L1651.49 1322.63 L1669.82 1340.96 L1666.81 1343.97 L1663.99 1341.16 Q1664.57 1343.93 1663.93 1346.2 Q1663.29 1348.44 1661.37 1350.36 Q1658.21 1353.52 1654.61 1353.19 Q1651.01 1352.86 1647.23 1349.08 M1643.27 1329.96 L1643.27 1329.96 Z" fill="#000000" fill-rule="nonzero" fill-opacity="1" /><path clip-path="url(#clip460)" d="M1668.48 1291.43 Q1670.05 1297.39 1672.67 1302.14 Q1675.29 1306.88 1679.07 1310.67 Q1682.85 1314.45 1687.63 1317.1 Q1692.41 1319.72 1698.33 1321.29 L1695.71 1323.91 Q1689.41 1322.52 1684.47 1320.03 Q1679.54 1317.52 1675.88 1313.86 Q1672.23 1310.21 1669.74 1305.3 Q1667.25 1300.39 1665.86 1294.05 L1668.48 1291.43 Z" fill="#000000" fill-rule="nonzero" fill-opacity="1" /><path clip-path="url(#clip460)" d="M1681.47 1285.87 L1690.66 1295.05 L1694.81 1290.89 Q1697.12 1288.59 1697.19 1286.13 Q1697.25 1283.67 1695.04 1281.46 Q1692.85 1279.27 1690.39 1279.34 Q1687.94 1279.4 1685.63 1281.71 L1681.47 1285.87 M1675.45 1286.46 L1682.91 1278.99 Q1687.02 1274.88 1690.98 1274.66 Q1694.94 1274.39 1698.53 1277.98 Q1702.15 1281.6 1701.88 1285.56 Q1701.64 1289.5 1697.53 1293.61 L1693.37 1297.77 L1703.19 1307.59 L1699.89 1310.89 L1675.45 1286.46 Z" fill="#000000" fill-rule="nonzero" fill-opacity="1" /><path clip-path="url(#clip460)" d="M1694.06 1265.85 L1696.68 1263.23 Q1703 1264.64 1707.91 1267.13 Q1712.83 1269.6 1716.48 1273.25 Q1720.15 1276.91 1722.64 1281.86 Q1725.14 1286.78 1726.53 1293.09 L1723.92 1295.71 Q1722.34 1289.78 1719.71 1285.02 Q1717.07 1280.22 1713.29 1276.44 Q1709.51 1272.66 1704.75 1270.06 Q1700 1267.44 1694.06 1265.85 Z" fill="#000000" fill-rule="nonzero" fill-opacity="1" /><path clip-path="url(#clip460)" d="M1800.31 1425.42 L1811.38 1436.49 L1808.36 1439.5 L1797.4 1428.53 Q1794.79 1425.93 1792.49 1425.65 Q1790.18 1425.37 1788.15 1427.4 Q1785.71 1429.84 1785.86 1432.8 Q1786.01 1435.77 1788.69 1438.45 L1799.05 1448.81 L1796.02 1451.84 L1777.69 1433.51 L1780.72 1430.48 L1783.57 1433.33 Q1782.99 1430.59 1783.63 1428.32 Q1784.29 1426.03 1786.2 1424.11 Q1789.36 1420.95 1792.95 1421.3 Q1796.51 1421.63 1800.31 1425.42 Z" fill="#000000" fill-rule="nonzero" fill-opacity="1" /><path clip-path="url(#clip460)" d="M1809.84 1423.56 L1798.74 1412.46 L1801.75 1409.45 L1812.73 1420.43 Q1815.34 1423.03 1817.66 1423.33 Q1819.97 1423.61 1822 1421.58 Q1824.44 1419.14 1824.29 1416.17 Q1824.16 1413.2 1821.47 1410.51 L1811.08 1400.12 L1814.09 1397.11 L1832.43 1415.44 L1829.41 1418.45 L1826.6 1415.63 Q1827.17 1418.4 1826.53 1420.68 Q1825.89 1422.92 1823.98 1424.83 Q1820.82 1427.99 1817.22 1427.66 Q1813.62 1427.34 1809.84 1423.56 M1805.88 1404.44 L1805.88 1404.44 Z" fill="#000000" fill-rule="nonzero" fill-opacity="1" /><path clip-path="url(#clip460)" d="M1838.09 1380.15 Q1837.19 1376.99 1837.79 1374.45 Q1838.4 1371.92 1840.53 1369.79 Q1843.39 1366.92 1846.96 1367.38 Q1850.51 1367.82 1854.21 1371.52 L1865.28 1382.59 L1862.25 1385.62 L1851.28 1374.65 Q1848.65 1372.01 1846.44 1371.67 Q1844.23 1371.33 1842.31 1373.24 Q1839.97 1375.58 1840.17 1378.5 Q1840.36 1381.41 1843.05 1384.09 L1853.41 1394.45 L1850.38 1397.48 L1839.41 1386.52 Q1836.76 1383.86 1834.57 1383.54 Q1832.36 1383.19 1830.41 1385.14 Q1828.1 1387.45 1828.32 1390.38 Q1828.51 1393.29 1831.18 1395.96 L1841.54 1406.32 L1838.51 1409.35 L1820.18 1391.02 L1823.21 1387.99 L1826.06 1390.84 Q1825.4 1388.12 1826.04 1385.88 Q1826.68 1383.63 1828.66 1381.65 Q1830.66 1379.66 1833.06 1379.28 Q1835.49 1378.89 1838.09 1380.15 Z" fill="#000000" fill-rule="nonzero" fill-opacity="1" /><path clip-path="url(#clip460)" d="M1875.29 1354.27 Q1871.97 1350.95 1868.71 1350.44 Q1865.46 1349.9 1863.07 1352.29 Q1860.68 1354.68 1861.2 1357.95 Q1861.72 1361.19 1865.05 1364.52 Q1868.37 1367.84 1871.63 1368.38 Q1874.88 1368.89 1877.27 1366.5 Q1879.66 1364.11 1879.14 1360.87 Q1878.62 1357.59 1875.29 1354.27 M1858.65 1358.12 Q1857.96 1355.53 1858.61 1353.3 Q1859.27 1351.05 1861.28 1349.03 Q1864.62 1345.69 1869.35 1346.27 Q1874.1 1346.82 1878.42 1351.14 Q1882.74 1355.47 1883.3 1360.21 Q1883.87 1364.94 1880.53 1368.28 Q1878.52 1370.29 1876.28 1370.97 Q1874.03 1371.6 1871.45 1370.92 L1874.2 1373.67 L1871.17 1376.69 L1845.7 1351.23 L1848.73 1348.2 L1858.65 1358.12 Z" fill="#000000" fill-rule="nonzero" fill-opacity="1" /><path clip-path="url(#clip460)" d="M1891.68 1337.75 Q1888.03 1341.4 1887.45 1343.65 Q1886.88 1345.89 1888.9 1347.9 Q1890.5 1349.51 1892.5 1349.41 Q1894.49 1349.28 1896.31 1347.46 Q1898.81 1344.96 1898.55 1341.68 Q1898.29 1338.38 1895.34 1335.43 L1894.67 1334.76 L1891.68 1337.75 M1896.44 1330.5 L1906.9 1340.96 L1903.89 1343.97 L1901.11 1341.19 Q1901.74 1343.89 1901.01 1346.23 Q1900.25 1348.56 1898.03 1350.78 Q1895.21 1353.6 1891.97 1353.7 Q1888.73 1353.76 1886.08 1351.11 Q1882.99 1348.02 1883.48 1344.38 Q1883.98 1340.73 1888.09 1336.63 L1892.32 1332.4 L1892.02 1332.11 Q1889.94 1330.03 1887.44 1330.27 Q1884.93 1330.49 1882.46 1332.96 Q1880.89 1334.53 1879.78 1336.4 Q1878.67 1338.26 1878.04 1340.39 L1875.26 1337.61 Q1876.28 1335.32 1877.52 1333.45 Q1878.75 1331.57 1880.22 1330.09 Q1884.2 1326.12 1888.22 1326.22 Q1892.25 1326.31 1896.44 1330.5 Z" fill="#000000" fill-rule="nonzero" fill-opacity="1" /><path clip-path="url(#clip460)" d="M1905.56 1291.43 Q1907.13 1297.39 1909.75 1302.14 Q1912.37 1306.88 1916.15 1310.67 Q1919.93 1314.45 1924.71 1317.1 Q1929.49 1319.72 1935.41 1321.29 L1932.79 1323.91 Q1926.49 1322.52 1921.55 1320.03 Q1916.62 1317.52 1912.96 1313.86 Q1909.31 1310.21 1906.82 1305.3 Q1904.33 1300.39 1902.94 1294.05 L1905.56 1291.43 Z" fill="#000000" fill-rule="nonzero" fill-opacity="1" /><path clip-path="url(#clip460)" d="M1918.55 1285.87 L1927.74 1295.05 L1931.89 1290.89 Q1934.2 1288.59 1934.27 1286.13 Q1934.33 1283.67 1932.12 1281.46 Q1929.93 1279.27 1927.47 1279.34 Q1925.02 1279.4 1922.71 1281.71 L1918.55 1285.87 M1912.53 1286.46 L1919.99 1278.99 Q1924.1 1274.88 1928.06 1274.66 Q1932.03 1274.39 1935.61 1277.98 Q1939.23 1281.6 1938.97 1285.56 Q1938.72 1289.5 1934.61 1293.61 L1930.45 1297.77 L1940.27 1307.59 L1936.97 1310.89 L1912.53 1286.46 Z" fill="#000000" fill-rule="nonzero" fill-opacity="1" /><path clip-path="url(#clip460)" d="M1931.14 1265.85 L1933.76 1263.23 Q1940.08 1264.64 1944.99 1267.13 Q1949.92 1269.6 1953.57 1273.25 Q1957.23 1276.91 1959.72 1281.86 Q1962.22 1286.78 1963.62 1293.09 L1961 1295.71 Q1959.43 1289.78 1956.79 1285.02 Q1954.15 1280.22 1950.37 1276.44 Q1946.59 1272.66 1941.83 1270.06 Q1937.08 1267.44 1931.14 1265.85 Z" fill="#000000" fill-rule="nonzero" fill-opacity="1" /><path clip-path="url(#clip460)" d="M2038.1 1424.72 L2049.16 1435.78 L2046.15 1438.8 L2035.18 1427.83 Q2032.58 1425.23 2030.27 1424.95 Q2027.96 1424.67 2025.93 1426.7 Q2023.49 1429.14 2023.64 1432.1 Q2023.79 1435.06 2026.47 1437.75 L2036.83 1448.11 L2033.81 1451.14 L2015.47 1432.8 L2018.5 1429.78 L2021.35 1432.62 Q2020.78 1429.89 2021.42 1427.62 Q2022.07 1425.32 2023.99 1423.41 Q2027.15 1420.25 2030.73 1420.59 Q2034.3 1420.92 2038.1 1424.72 Z" fill="#000000" fill-rule="nonzero" fill-opacity="1" /><path clip-path="url(#clip460)" d="M2047.62 1422.85 L2036.52 1411.76 L2039.54 1408.74 L2050.52 1419.73 Q2053.12 1422.33 2055.45 1422.62 Q2057.75 1422.9 2059.78 1420.87 Q2062.22 1418.43 2062.07 1415.47 Q2061.94 1412.49 2059.26 1409.81 L2048.87 1399.41 L2051.88 1396.4 L2070.21 1414.73 L2067.2 1417.75 L2064.38 1414.93 Q2064.96 1417.7 2064.32 1419.97 Q2063.68 1422.21 2061.76 1424.13 Q2058.6 1427.29 2055 1426.96 Q2051.4 1426.63 2047.62 1422.85 M2043.66 1403.73 L2043.66 1403.73 Z" fill="#000000" fill-rule="nonzero" fill-opacity="1" /><path clip-path="url(#clip460)" d="M2075.87 1379.44 Q2074.97 1376.29 2075.58 1373.75 Q2076.18 1371.21 2078.31 1369.08 Q2081.18 1366.22 2084.74 1366.68 Q2088.3 1367.12 2092 1370.82 L2103.06 1381.88 L2100.03 1384.91 L2089.07 1373.94 Q2086.43 1371.31 2084.22 1370.97 Q2082.01 1370.62 2080.1 1372.54 Q2077.76 1374.88 2077.95 1377.79 Q2078.15 1380.7 2080.83 1383.39 L2091.19 1393.75 L2088.17 1396.78 L2077.2 1385.81 Q2074.55 1383.16 2072.35 1382.83 Q2070.14 1382.49 2068.2 1384.44 Q2065.89 1386.74 2066.1 1389.67 Q2066.3 1392.59 2068.97 1395.26 L2079.33 1405.62 L2076.3 1408.65 L2057.97 1390.31 L2060.99 1387.28 L2063.84 1390.13 Q2063.19 1387.42 2063.83 1385.17 Q2064.46 1382.93 2066.44 1380.95 Q2068.44 1378.95 2070.85 1378.58 Q2073.27 1378.18 2075.87 1379.44 Z" fill="#000000" fill-rule="nonzero" fill-opacity="1" /><path clip-path="url(#clip460)" d="M2109.23 1370.21 L2118.95 1379.94 L2115.93 1382.96 L2090.62 1357.66 L2093.65 1354.63 L2096.43 1357.41 Q2095.74 1354.83 2096.4 1352.6 Q2097.05 1350.34 2099.07 1348.33 Q2102.41 1344.99 2107.14 1345.56 Q2111.88 1346.12 2116.2 1350.44 Q2120.53 1354.76 2121.08 1359.51 Q2121.65 1364.24 2118.32 1367.58 Q2116.3 1369.59 2114.06 1370.26 Q2111.82 1370.9 2109.23 1370.21 M2113.08 1353.57 Q2109.75 1350.24 2106.5 1349.74 Q2103.24 1349.2 2100.85 1351.59 Q2098.46 1353.98 2098.98 1357.25 Q2099.51 1360.49 2102.83 1363.81 Q2106.15 1367.14 2109.41 1367.68 Q2112.67 1368.18 2115.06 1365.79 Q2117.45 1363.4 2116.92 1360.16 Q2116.4 1356.89 2113.08 1353.57 Z" fill="#000000" fill-rule="nonzero" fill-opacity="1" /><path clip-path="url(#clip460)" d="M2139.68 1348.67 Q2141.67 1353.22 2141.46 1355.43 Q2141.25 1357.64 2139.22 1359.67 L2136.81 1362.08 L2134.29 1359.56 L2136.06 1357.79 Q2137.3 1356.55 2137.4 1355.27 Q2137.5 1353.99 2136.14 1350.96 L2135.31 1349.05 L2109.85 1338.43 L2113.04 1335.23 L2133.11 1343.84 L2124.5 1323.78 L2127.69 1320.58 L2139.68 1348.67 Z" fill="#000000" fill-rule="nonzero" fill-opacity="1" /><path clip-path="url(#clip460)" d="M2142.64 1291.43 Q2144.21 1297.39 2146.83 1302.14 Q2149.45 1306.88 2153.23 1310.67 Q2157.01 1314.45 2161.79 1317.1 Q2166.57 1319.72 2172.49 1321.29 L2169.88 1323.91 Q2163.57 1322.52 2158.63 1320.03 Q2153.7 1317.52 2150.04 1313.86 Q2146.39 1310.21 2143.9 1305.3 Q2141.41 1300.39 2140.02 1294.05 L2142.64 1291.43 Z" fill="#000000" fill-rule="nonzero" fill-opacity="1" /><path clip-path="url(#clip460)" d="M2155.63 1285.87 L2164.82 1295.05 L2168.97 1290.89 Q2171.28 1288.59 2171.35 1286.13 Q2171.41 1283.67 2169.2 1281.46 Q2167.01 1279.27 2164.56 1279.34 Q2162.1 1279.4 2159.79 1281.71 L2155.63 1285.87 M2149.61 1286.46 L2157.08 1278.99 Q2161.18 1274.88 2165.14 1274.66 Q2169.11 1274.39 2172.69 1277.98 Q2176.31 1281.6 2176.05 1285.56 Q2175.8 1289.5 2171.69 1293.61 L2167.53 1297.77 L2177.36 1307.59 L2174.05 1310.89 L2149.61 1286.46 Z" fill="#000000" fill-rule="nonzero" fill-opacity="1" /><path clip-path="url(#clip460)" d="M2168.22 1265.85 L2170.84 1263.23 Q2177.16 1264.64 2182.07 1267.13 Q2187 1269.6 2190.65 1273.25 Q2194.31 1276.91 2196.8 1281.86 Q2199.3 1286.78 2200.7 1293.09 L2198.08 1295.71 Q2196.51 1289.78 2193.87 1285.02 Q2191.24 1280.22 2187.45 1276.44 Q2183.67 1272.66 2178.91 1270.06 Q2174.16 1267.44 2168.22 1265.85 Z" fill="#000000" fill-rule="nonzero" fill-opacity="1" /><polyline clip-path="url(#clip462)" style="stroke:#000000; stroke-linecap:round; stroke-linejoin:round; stroke-width:2; stroke-opacity:0.1; fill:none" points="175.445,1234.03 2352.76,1234.03 "/>
<polyline clip-path="url(#clip462)" style="stroke:#000000; stroke-linecap:round; stroke-linejoin:round; stroke-width:2; stroke-opacity:0.1; fill:none" points="175.445,996.933 2352.76,996.933 "/>
<polyline clip-path="url(#clip462)" style="stroke:#000000; stroke-linecap:round; stroke-linejoin:round; stroke-width:2; stroke-opacity:0.1; fill:none" points="175.445,759.84 2352.76,759.84 "/>
<polyline clip-path="url(#clip462)" style="stroke:#000000; stroke-linecap:round; stroke-linejoin:round; stroke-width:2; stroke-opacity:0.1; fill:none" points="175.445,522.747 2352.76,522.747 "/>
<polyline clip-path="url(#clip462)" style="stroke:#000000; stroke-linecap:round; stroke-linejoin:round; stroke-width:2; stroke-opacity:0.1; fill:none" points="175.445,285.654 2352.76,285.654 "/>
<polyline clip-path="url(#clip460)" style="stroke:#000000; stroke-linecap:round; stroke-linejoin:round; stroke-width:4; stroke-opacity:1; fill:none" points="175.445,1234.03 175.445,123.472 "/>
<polyline clip-path="url(#clip460)" style="stroke:#000000; stroke-linecap:round; stroke-linejoin:round; stroke-width:4; stroke-opacity:1; fill:none" points="175.445,1234.03 194.343,1234.03 "/>
<polyline clip-path="url(#clip460)" style="stroke:#000000; stroke-linecap:round; stroke-linejoin:round; stroke-width:4; stroke-opacity:1; fill:none" points="175.445,996.933 194.343,996.933 "/>
<polyline clip-path="url(#clip460)" style="stroke:#000000; stroke-linecap:round; stroke-linejoin:round; stroke-width:4; stroke-opacity:1; fill:none" points="175.445,759.84 194.343,759.84 "/>
<polyline clip-path="url(#clip460)" style="stroke:#000000; stroke-linecap:round; stroke-linejoin:round; stroke-width:4; stroke-opacity:1; fill:none" points="175.445,522.747 194.343,522.747 "/>
<polyline clip-path="url(#clip460)" style="stroke:#000000; stroke-linecap:round; stroke-linejoin:round; stroke-width:4; stroke-opacity:1; fill:none" points="175.445,285.654 194.343,285.654 "/>
<path clip-path="url(#clip460)" d="M127.501 1219.82 Q123.89 1219.82 122.061 1223.39 Q120.255 1226.93 120.255 1234.06 Q120.255 1241.17 122.061 1244.73 Q123.89 1248.27 127.501 1248.27 Q131.135 1248.27 132.941 1244.73 Q134.769 1241.17 134.769 1234.06 Q134.769 1226.93 132.941 1223.39 Q131.135 1219.82 127.501 1219.82 M127.501 1216.12 Q133.311 1216.12 136.367 1220.73 Q139.445 1225.31 139.445 1234.06 Q139.445 1242.79 136.367 1247.39 Q133.311 1251.98 127.501 1251.98 Q121.691 1251.98 118.612 1247.39 Q115.556 1242.79 115.556 1234.06 Q115.556 1225.31 118.612 1220.73 Q121.691 1216.12 127.501 1216.12 Z" fill="#000000" fill-rule="nonzero" fill-opacity="1" /><path clip-path="url(#clip460)" d="M123.126 1010.28 L139.445 1010.28 L139.445 1014.21 L117.501 1014.21 L117.501 1010.28 Q120.163 1007.52 124.746 1002.89 Q129.353 998.241 130.533 996.898 Q132.779 994.375 133.658 992.639 Q134.561 990.88 134.561 989.19 Q134.561 986.435 132.617 984.699 Q130.695 982.963 127.593 982.963 Q125.394 982.963 122.941 983.727 Q120.51 984.491 117.732 986.042 L117.732 981.32 Q120.556 980.185 123.01 979.607 Q125.464 979.028 127.501 979.028 Q132.871 979.028 136.066 981.713 Q139.26 984.398 139.26 988.889 Q139.26 991.019 138.45 992.94 Q137.663 994.838 135.556 997.431 Q134.978 998.102 131.876 1001.32 Q128.774 1004.51 123.126 1010.28 Z" fill="#000000" fill-rule="nonzero" fill-opacity="1" /><path clip-path="url(#clip460)" d="M129.862 746.634 L118.056 765.083 L129.862 765.083 L129.862 746.634 M128.635 742.56 L134.515 742.56 L134.515 765.083 L139.445 765.083 L139.445 768.972 L134.515 768.972 L134.515 777.12 L129.862 777.12 L129.862 768.972 L114.26 768.972 L114.26 764.458 L128.635 742.56 Z" fill="#000000" fill-rule="nonzero" fill-opacity="1" /><path clip-path="url(#clip460)" d="M127.917 520.884 Q124.769 520.884 122.918 523.037 Q121.089 525.189 121.089 528.939 Q121.089 532.666 122.918 534.842 Q124.769 536.995 127.917 536.995 Q131.066 536.995 132.894 534.842 Q134.746 532.666 134.746 528.939 Q134.746 525.189 132.894 523.037 Q131.066 520.884 127.917 520.884 M137.2 506.231 L137.2 510.49 Q135.441 509.657 133.635 509.217 Q131.853 508.777 130.093 508.777 Q125.464 508.777 123.01 511.902 Q120.58 515.027 120.232 521.347 Q121.598 519.333 123.658 518.268 Q125.718 517.18 128.195 517.18 Q133.404 517.18 136.413 520.351 Q139.445 523.499 139.445 528.939 Q139.445 534.263 136.297 537.481 Q133.149 540.698 127.917 540.698 Q121.922 540.698 118.751 536.115 Q115.58 531.509 115.58 522.782 Q115.58 514.587 119.468 509.726 Q123.357 504.842 129.908 504.842 Q131.667 504.842 133.45 505.189 Q135.255 505.537 137.2 506.231 Z" fill="#000000" fill-rule="nonzero" fill-opacity="1" /><path clip-path="url(#clip460)" d="M127.593 286.522 Q124.26 286.522 122.339 288.305 Q120.441 290.087 120.441 293.212 Q120.441 296.337 122.339 298.12 Q124.26 299.902 127.593 299.902 Q130.927 299.902 132.848 298.12 Q134.769 296.314 134.769 293.212 Q134.769 290.087 132.848 288.305 Q130.95 286.522 127.593 286.522 M122.918 284.532 Q119.908 283.791 118.218 281.731 Q116.552 279.671 116.552 276.708 Q116.552 272.564 119.492 270.157 Q122.455 267.749 127.593 267.749 Q132.755 267.749 135.695 270.157 Q138.635 272.564 138.635 276.708 Q138.635 279.671 136.945 281.731 Q135.279 283.791 132.292 284.532 Q135.672 285.319 137.547 287.61 Q139.445 289.902 139.445 293.212 Q139.445 298.235 136.367 300.92 Q133.311 303.606 127.593 303.606 Q121.876 303.606 118.797 300.92 Q115.742 298.235 115.742 293.212 Q115.742 289.902 117.64 287.61 Q119.538 285.319 122.918 284.532 M121.205 277.147 Q121.205 279.833 122.871 281.337 Q124.561 282.842 127.593 282.842 Q130.603 282.842 132.292 281.337 Q134.005 279.833 134.005 277.147 Q134.005 274.462 132.292 272.958 Q130.603 271.453 127.593 271.453 Q124.561 271.453 122.871 272.958 Q121.205 274.462 121.205 277.147 Z" fill="#000000" fill-rule="nonzero" fill-opacity="1" /><path clip-path="url(#clip460)" d="M18.0438 787.746 L24.314 787.746 Q22.5634 791.406 21.704 794.653 Q20.8447 797.899 20.8447 800.923 Q20.8447 806.174 22.8817 809.039 Q24.9187 811.872 28.6745 811.872 Q31.8255 811.872 33.4488 809.994 Q35.0402 808.084 36.0269 802.801 L36.8226 798.918 Q38.1912 791.724 41.6605 788.319 Q45.098 784.881 50.8908 784.881 Q57.7976 784.881 61.3624 789.528 Q64.9272 794.143 64.9272 803.087 Q64.9272 806.461 64.1633 810.28 Q63.3994 814.068 61.9035 818.142 L55.2831 818.142 Q57.4793 814.227 58.5933 810.471 Q59.7073 806.716 59.7073 803.087 Q59.7073 797.581 57.543 794.589 Q55.3786 791.597 51.3682 791.597 Q47.8671 791.597 45.8937 793.761 Q43.9204 795.894 42.9337 800.795 L42.1698 804.71 Q40.7375 811.904 37.682 815.118 Q34.6264 818.333 29.1837 818.333 Q22.8817 818.333 19.2532 813.909 Q15.6248 809.453 15.6248 801.655 Q15.6248 798.313 16.2295 794.844 Q16.8343 791.374 18.0438 787.746 Z" fill="#000000" fill-rule="nonzero" fill-opacity="1" /><path clip-path="url(#clip460)" d="M58.657 769.444 L77.5631 769.444 L77.5631 775.333 L28.3562 775.333 L28.3562 769.444 L33.7671 769.444 Q30.5842 767.598 29.0564 764.797 Q27.4968 761.965 27.4968 758.05 Q27.4968 751.557 32.6531 747.514 Q37.8093 743.44 46.212 743.44 Q54.6147 743.44 59.771 747.514 Q64.9272 751.557 64.9272 758.05 Q64.9272 761.965 63.3994 764.797 Q61.8398 767.598 58.657 769.444 M46.212 749.52 Q39.7508 749.52 36.0905 752.193 Q32.3984 754.835 32.3984 759.482 Q32.3984 764.129 36.0905 766.803 Q39.7508 769.444 46.212 769.444 Q52.6732 769.444 56.3653 766.803 Q60.0256 764.129 60.0256 759.482 Q60.0256 754.835 56.3653 752.193 Q52.6732 749.52 46.212 749.52 Z" fill="#000000" fill-rule="nonzero" fill-opacity="1" /><path clip-path="url(#clip460)" d="M44.7161 703.241 L47.5806 703.241 L47.5806 730.168 Q53.6281 729.786 56.8109 726.539 Q59.9619 723.261 59.9619 717.437 Q59.9619 714.063 59.1344 710.912 Q58.3069 707.729 56.6518 704.61 L62.1899 704.61 Q63.5267 707.761 64.227 711.071 Q64.9272 714.381 64.9272 717.787 Q64.9272 726.317 59.9619 731.314 Q54.9967 736.279 46.5303 736.279 Q37.7774 736.279 32.6531 731.568 Q27.4968 726.826 27.4968 718.805 Q27.4968 711.612 32.1438 707.442 Q36.7589 703.241 44.7161 703.241 M42.9973 709.097 Q38.1912 709.161 35.3266 711.803 Q32.4621 714.413 32.4621 718.741 Q32.4621 723.643 35.2312 726.603 Q38.0002 729.531 43.0292 729.977 L42.9973 709.097 Z" fill="#000000" fill-rule="nonzero" fill-opacity="1" /><path clip-path="url(#clip460)" d="M44.7161 663.137 L47.5806 663.137 L47.5806 690.064 Q53.6281 689.682 56.8109 686.436 Q59.9619 683.157 59.9619 677.333 Q59.9619 673.959 59.1344 670.808 Q58.3069 667.625 56.6518 664.506 L62.1899 664.506 Q63.5267 667.657 64.227 670.967 Q64.9272 674.277 64.9272 677.683 Q64.9272 686.213 59.9619 691.21 Q54.9967 696.175 46.5303 696.175 Q37.7774 696.175 32.6531 691.464 Q27.4968 686.722 27.4968 678.701 Q27.4968 671.508 32.1438 667.338 Q36.7589 663.137 44.7161 663.137 M42.9973 668.994 Q38.1912 669.057 35.3266 671.699 Q32.4621 674.309 32.4621 678.638 Q32.4621 683.539 35.2312 686.499 Q38.0002 689.427 43.0292 689.873 L42.9973 668.994 Z" fill="#000000" fill-rule="nonzero" fill-opacity="1" /><path clip-path="url(#clip460)" d="M33.7671 630.067 L14.479 630.067 L14.479 624.211 L64.0042 624.211 L64.0042 630.067 L58.657 630.067 Q61.8398 631.913 63.3994 634.746 Q64.9272 637.547 64.9272 641.494 Q64.9272 647.955 59.771 652.029 Q54.6147 656.071 46.212 656.071 Q37.8093 656.071 32.6531 652.029 Q27.4968 647.955 27.4968 641.494 Q27.4968 637.547 29.0564 634.746 Q30.5842 631.913 33.7671 630.067 M46.212 650.024 Q52.6732 650.024 56.3653 647.382 Q60.0256 644.708 60.0256 640.061 Q60.0256 635.414 56.3653 632.741 Q52.6732 630.067 46.212 630.067 Q39.7508 630.067 36.0905 632.741 Q32.3984 635.414 32.3984 640.061 Q32.3984 644.708 36.0905 647.382 Q39.7508 650.024 46.212 650.024 Z" fill="#000000" fill-rule="nonzero" fill-opacity="1" /><path clip-path="url(#clip460)" d="M49.9359 612.752 L28.3562 612.752 L28.3562 606.896 L49.7131 606.896 Q54.7739 606.896 57.3202 604.923 Q59.8346 602.949 59.8346 599.003 Q59.8346 594.26 56.8109 591.523 Q53.7872 588.754 48.5673 588.754 L28.3562 588.754 L28.3562 582.897 L64.0042 582.897 L64.0042 588.754 L58.5296 588.754 Q61.7762 590.886 63.3676 593.719 Q64.9272 596.52 64.9272 600.244 Q64.9272 606.387 61.1078 609.57 Q57.2883 612.752 49.9359 612.752 M27.4968 598.016 L27.4968 598.016 Z" fill="#000000" fill-rule="nonzero" fill-opacity="1" /><path clip-path="url(#clip460)" d="M58.657 565.169 L77.5631 565.169 L77.5631 571.057 L28.3562 571.057 L28.3562 565.169 L33.7671 565.169 Q30.5842 563.323 29.0564 560.522 Q27.4968 557.689 27.4968 553.774 Q27.4968 547.281 32.6531 543.239 Q37.8093 539.165 46.212 539.165 Q54.6147 539.165 59.771 543.239 Q64.9272 547.281 64.9272 553.774 Q64.9272 557.689 63.3994 560.522 Q61.8398 563.323 58.657 565.169 M46.212 545.244 Q39.7508 545.244 36.0905 547.918 Q32.3984 550.56 32.3984 555.206 Q32.3984 559.853 36.0905 562.527 Q39.7508 565.169 46.212 565.169 Q52.6732 565.169 56.3653 562.527 Q60.0256 559.853 60.0256 555.206 Q60.0256 550.56 56.3653 547.918 Q52.6732 545.244 46.212 545.244 Z" fill="#000000" fill-rule="nonzero" fill-opacity="1" /><path clip-path="url(#clip460)" d="M530.765 14.0809 L530.765 22.0612 Q526.107 19.8332 521.975 18.7395 Q517.843 17.6457 513.995 17.6457 Q507.311 17.6457 503.665 20.2383 Q500.06 22.8309 500.06 27.611 Q500.06 31.6214 502.45 33.6873 Q504.88 35.7128 511.605 36.9686 L516.547 37.9813 Q525.702 39.7232 530.036 44.1387 Q534.411 48.5136 534.411 55.8863 Q534.411 64.6767 528.497 69.2137 Q522.623 73.7508 511.24 73.7508 Q506.946 73.7508 502.085 72.7785 Q497.264 71.8063 492.079 69.9024 L492.079 61.4765 Q497.062 64.2716 501.842 65.6895 Q506.622 67.1073 511.24 67.1073 Q518.248 67.1073 522.056 64.3527 Q525.864 61.598 525.864 56.4939 Q525.864 52.0379 523.109 49.5264 Q520.395 47.0148 514.157 45.759 L509.174 44.7868 Q500.019 42.9639 495.928 39.075 Q491.836 35.1862 491.836 28.2591 Q491.836 20.2383 497.467 15.6203 Q503.138 11.0023 513.063 11.0023 Q517.316 11.0023 521.732 11.7719 Q526.147 12.5416 530.765 14.0809 Z" fill="#000000" fill-rule="nonzero" fill-opacity="1" /><path clip-path="url(#clip460)" d="M554.058 65.7705 L554.058 89.8329 L546.564 89.8329 L546.564 27.2059 L554.058 27.2059 L554.058 34.0924 Q556.408 30.0415 559.972 28.0971 Q563.578 26.1121 568.56 26.1121 Q576.824 26.1121 581.969 32.6746 Q587.154 39.2371 587.154 49.9314 Q587.154 60.6258 581.969 67.1883 Q576.824 73.7508 568.56 73.7508 Q563.578 73.7508 559.972 71.8063 Q556.408 69.8214 554.058 65.7705 M579.417 49.9314 Q579.417 41.7081 576.014 37.0496 Q572.652 32.3505 566.737 32.3505 Q560.823 32.3505 557.42 37.0496 Q554.058 41.7081 554.058 49.9314 Q554.058 58.1548 557.42 62.8538 Q560.823 67.5124 566.737 67.5124 Q572.652 67.5124 576.014 62.8538 Q579.417 58.1548 579.417 49.9314 Z" fill="#000000" fill-rule="nonzero" fill-opacity="1" /><path clip-path="url(#clip460)" d="M638.317 48.0275 L638.317 51.6733 L604.046 51.6733 Q604.532 59.3701 608.664 63.421 Q612.837 67.4314 620.25 67.4314 Q624.544 67.4314 628.554 66.3781 Q632.605 65.3249 636.575 63.2184 L636.575 70.267 Q632.565 71.9684 628.352 72.8596 Q624.139 73.7508 619.804 73.7508 Q608.948 73.7508 602.588 67.4314 Q596.268 61.1119 596.268 50.3365 Q596.268 39.1965 602.264 32.6746 Q608.3 26.1121 618.508 26.1121 Q627.663 26.1121 632.97 32.0264 Q638.317 37.9003 638.317 48.0275 M630.863 45.84 Q630.782 39.7232 627.42 36.0774 Q624.098 32.4315 618.589 32.4315 Q612.351 32.4315 608.583 35.9558 Q604.856 39.4801 604.289 45.8805 L630.863 45.84 Z" fill="#000000" fill-rule="nonzero" fill-opacity="1" /><path clip-path="url(#clip460)" d="M689.358 48.0275 L689.358 51.6733 L655.088 51.6733 Q655.574 59.3701 659.706 63.421 Q663.878 67.4314 671.291 67.4314 Q675.585 67.4314 679.596 66.3781 Q683.646 65.3249 687.616 63.2184 L687.616 70.267 Q683.606 71.9684 679.393 72.8596 Q675.18 73.7508 670.846 73.7508 Q659.989 73.7508 653.629 67.4314 Q647.31 61.1119 647.31 50.3365 Q647.31 39.1965 653.305 32.6746 Q659.341 26.1121 669.549 26.1121 Q678.704 26.1121 684.011 32.0264 Q689.358 37.9003 689.358 48.0275 M681.905 45.84 Q681.824 39.7232 678.461 36.0774 Q675.14 32.4315 669.63 32.4315 Q663.392 32.4315 659.625 35.9558 Q655.898 39.4801 655.331 45.8805 L681.905 45.84 Z" fill="#000000" fill-rule="nonzero" fill-opacity="1" /><path clip-path="url(#clip460)" d="M731.447 34.0924 L731.447 9.54393 L738.901 9.54393 L738.901 72.576 L731.447 72.576 L731.447 65.7705 Q729.098 69.8214 725.492 71.8063 Q721.928 73.7508 716.904 73.7508 Q708.681 73.7508 703.496 67.1883 Q698.351 60.6258 698.351 49.9314 Q698.351 39.2371 703.496 32.6746 Q708.681 26.1121 716.904 26.1121 Q721.928 26.1121 725.492 28.0971 Q729.098 30.0415 731.447 34.0924 M706.048 49.9314 Q706.048 58.1548 709.41 62.8538 Q712.813 67.5124 718.727 67.5124 Q724.642 67.5124 728.044 62.8538 Q731.447 58.1548 731.447 49.9314 Q731.447 41.7081 728.044 37.0496 Q724.642 32.3505 718.727 32.3505 Q712.813 32.3505 709.41 37.0496 Q706.048 41.7081 706.048 49.9314 Z" fill="#000000" fill-rule="nonzero" fill-opacity="1" /><path clip-path="url(#clip460)" d="M753.484 54.671 L753.484 27.2059 L760.938 27.2059 L760.938 54.3874 Q760.938 60.8284 763.449 64.0691 Q765.961 67.2693 770.984 67.2693 Q777.02 67.2693 780.504 63.421 Q784.028 59.5726 784.028 52.9291 L784.028 27.2059 L791.482 27.2059 L791.482 72.576 L784.028 72.576 L784.028 65.6084 Q781.314 69.7404 777.708 71.7658 Q774.144 73.7508 769.404 73.7508 Q761.586 73.7508 757.535 68.8897 Q753.484 64.0286 753.484 54.671 M772.24 26.1121 L772.24 26.1121 Z" fill="#000000" fill-rule="nonzero" fill-opacity="1" /><path clip-path="url(#clip460)" d="M814.045 65.7705 L814.045 89.8329 L806.551 89.8329 L806.551 27.2059 L814.045 27.2059 L814.045 34.0924 Q816.395 30.0415 819.959 28.0971 Q823.565 26.1121 828.547 26.1121 Q836.811 26.1121 841.956 32.6746 Q847.141 39.2371 847.141 49.9314 Q847.141 60.6258 841.956 67.1883 Q836.811 73.7508 828.547 73.7508 Q823.565 73.7508 819.959 71.8063 Q816.395 69.8214 814.045 65.7705 M839.404 49.9314 Q839.404 41.7081 836.001 37.0496 Q832.639 32.3505 826.724 32.3505 Q820.81 32.3505 817.407 37.0496 Q814.045 41.7081 814.045 49.9314 Q814.045 58.1548 817.407 62.8538 Q820.81 67.5124 826.724 67.5124 Q832.639 67.5124 836.001 62.8538 Q839.404 58.1548 839.404 49.9314 Z" fill="#000000" fill-rule="nonzero" fill-opacity="1" /><path clip-path="url(#clip460)" d="M915.723 34.0924 L915.723 9.54393 L923.176 9.54393 L923.176 72.576 L915.723 72.576 L915.723 65.7705 Q913.373 69.8214 909.768 71.8063 Q906.203 73.7508 901.18 73.7508 Q892.957 73.7508 887.772 67.1883 Q882.627 60.6258 882.627 49.9314 Q882.627 39.2371 887.772 32.6746 Q892.957 26.1121 901.18 26.1121 Q906.203 26.1121 909.768 28.0971 Q913.373 30.0415 915.723 34.0924 M890.324 49.9314 Q890.324 58.1548 893.686 62.8538 Q897.089 67.5124 903.003 67.5124 Q908.917 67.5124 912.32 62.8538 Q915.723 58.1548 915.723 49.9314 Q915.723 41.7081 912.32 37.0496 Q908.917 32.3505 903.003 32.3505 Q897.089 32.3505 893.686 37.0496 Q890.324 41.7081 890.324 49.9314 Z" fill="#000000" fill-rule="nonzero" fill-opacity="1" /><path clip-path="url(#clip460)" d="M956.11 32.4315 Q950.115 32.4315 946.631 37.1306 Q943.147 41.7891 943.147 49.9314 Q943.147 58.0738 946.591 62.7728 Q950.074 67.4314 956.11 67.4314 Q962.065 67.4314 965.549 62.7323 Q969.033 58.0333 969.033 49.9314 Q969.033 41.8701 965.549 37.1711 Q962.065 32.4315 956.11 32.4315 M956.11 26.1121 Q965.832 26.1121 971.382 32.4315 Q976.932 38.7509 976.932 49.9314 Q976.932 61.0714 971.382 67.4314 Q965.832 73.7508 956.11 73.7508 Q946.348 73.7508 940.798 67.4314 Q935.289 61.0714 935.289 49.9314 Q935.289 38.7509 940.798 32.4315 Q946.348 26.1121 956.11 26.1121 Z" fill="#000000" fill-rule="nonzero" fill-opacity="1" /><path clip-path="url(#clip460)" d="M989.287 27.2059 L996.741 27.2059 L996.741 72.576 L989.287 72.576 L989.287 27.2059 M989.287 9.54393 L996.741 9.54393 L996.741 18.9825 L989.287 18.9825 L989.287 9.54393 Z" fill="#000000" fill-rule="nonzero" fill-opacity="1" /><path clip-path="url(#clip460)" d="M1019.71 14.324 L1019.71 27.2059 L1035.06 27.2059 L1035.06 32.9987 L1019.71 32.9987 L1019.71 57.6282 Q1019.71 63.1779 1021.21 64.7578 Q1022.75 66.3376 1027.41 66.3376 L1035.06 66.3376 L1035.06 72.576 L1027.41 72.576 Q1018.78 72.576 1015.5 69.3758 Q1012.22 66.1351 1012.22 57.6282 L1012.22 32.9987 L1006.75 32.9987 L1006.75 27.2059 L1012.22 27.2059 L1012.22 14.324 L1019.71 14.324 Z" fill="#000000" fill-rule="nonzero" fill-opacity="1" /><path clip-path="url(#clip460)" d="M1074.72 49.3643 Q1074.72 41.2625 1071.36 36.8065 Q1068.04 32.3505 1062 32.3505 Q1056.01 32.3505 1052.64 36.8065 Q1049.32 41.2625 1049.32 49.3643 Q1049.32 57.4256 1052.64 61.8816 Q1056.01 66.3376 1062 66.3376 Q1068.04 66.3376 1071.36 61.8816 Q1074.72 57.4256 1074.72 49.3643 M1082.17 66.9452 Q1082.17 78.5308 1077.03 84.1616 Q1071.89 89.8329 1061.27 89.8329 Q1057.34 89.8329 1053.86 89.2252 Q1050.37 88.6581 1047.09 87.4428 L1047.09 80.1917 Q1050.37 81.9741 1053.58 82.8248 Q1056.78 83.6755 1060.1 83.6755 Q1067.43 83.6755 1071.07 79.8271 Q1074.72 76.0193 1074.72 68.282 L1074.72 64.5957 Q1072.41 68.6061 1068.81 70.5911 Q1065.2 72.576 1060.18 72.576 Q1051.83 72.576 1046.73 66.2161 Q1041.62 59.8562 1041.62 49.3643 Q1041.62 38.832 1046.73 32.472 Q1051.83 26.1121 1060.18 26.1121 Q1065.2 26.1121 1068.81 28.0971 Q1072.41 30.082 1074.72 34.0924 L1074.72 27.2059 L1082.17 27.2059 L1082.17 66.9452 Z" fill="#000000" fill-rule="nonzero" fill-opacity="1" /><path clip-path="url(#clip460)" d="M1136.34 48.0275 L1136.34 51.6733 L1102.06 51.6733 Q1102.55 59.3701 1106.68 63.421 Q1110.85 67.4314 1118.27 67.4314 Q1122.56 67.4314 1126.57 66.3781 Q1130.62 65.3249 1134.59 63.2184 L1134.59 70.267 Q1130.58 71.9684 1126.37 72.8596 Q1122.16 73.7508 1117.82 73.7508 Q1106.97 73.7508 1100.61 67.4314 Q1094.29 61.1119 1094.29 50.3365 Q1094.29 39.1965 1100.28 32.6746 Q1106.32 26.1121 1116.53 26.1121 Q1125.68 26.1121 1130.99 32.0264 Q1136.34 37.9003 1136.34 48.0275 M1128.88 45.84 Q1128.8 39.7232 1125.44 36.0774 Q1122.12 32.4315 1116.61 32.4315 Q1110.37 32.4315 1106.6 35.9558 Q1102.87 39.4801 1102.31 45.8805 L1128.88 45.84 Z" fill="#000000" fill-rule="nonzero" fill-opacity="1" /><path clip-path="url(#clip460)" d="M1186.28 45.1919 L1186.28 72.576 L1178.83 72.576 L1178.83 45.4349 Q1178.83 38.994 1176.32 35.7938 Q1173.81 32.5936 1168.78 32.5936 Q1162.75 32.5936 1159.26 36.4419 Q1155.78 40.2903 1155.78 46.9338 L1155.78 72.576 L1148.29 72.576 L1148.29 27.2059 L1155.78 27.2059 L1155.78 34.2544 Q1158.45 30.163 1162.06 28.1376 Q1165.7 26.1121 1170.44 26.1121 Q1178.26 26.1121 1182.27 30.9732 Q1186.28 35.7938 1186.28 45.1919 Z" fill="#000000" fill-rule="nonzero" fill-opacity="1" /><path clip-path="url(#clip460)" d="M1203.05 62.2867 L1211.6 62.2867 L1211.6 69.2543 L1204.96 82.2172 L1199.73 82.2172 L1203.05 69.2543 L1203.05 62.2867 Z" fill="#000000" fill-rule="nonzero" fill-opacity="1" /><path clip-path="url(#clip460)" d="M1261.1 65.7705 L1261.1 89.8329 L1253.61 89.8329 L1253.61 27.2059 L1261.1 27.2059 L1261.1 34.0924 Q1263.45 30.0415 1267.02 28.0971 Q1270.62 26.1121 1275.61 26.1121 Q1283.87 26.1121 1289.01 32.6746 Q1294.2 39.2371 1294.2 49.9314 Q1294.2 60.6258 1289.01 67.1883 Q1283.87 73.7508 1275.61 73.7508 Q1270.62 73.7508 1267.02 71.8063 Q1263.45 69.8214 1261.1 65.7705 M1286.46 49.9314 Q1286.46 41.7081 1283.06 37.0496 Q1279.7 32.3505 1273.78 32.3505 Q1267.87 32.3505 1264.47 37.0496 Q1261.1 41.7081 1261.1 49.9314 Q1261.1 58.1548 1264.47 62.8538 Q1267.87 67.5124 1273.78 67.5124 Q1279.7 67.5124 1283.06 62.8538 Q1286.46 58.1548 1286.46 49.9314 Z" fill="#000000" fill-rule="nonzero" fill-opacity="1" /><path clip-path="url(#clip460)" d="M1332.84 34.1734 Q1331.59 33.4443 1330.09 33.1202 Q1328.63 32.7556 1326.85 32.7556 Q1320.53 32.7556 1317.13 36.8875 Q1313.76 40.9789 1313.76 48.6757 L1313.76 72.576 L1306.27 72.576 L1306.27 27.2059 L1313.76 27.2059 L1313.76 34.2544 Q1316.11 30.1225 1319.88 28.1376 Q1323.65 26.1121 1329.04 26.1121 Q1329.81 26.1121 1330.74 26.2337 Q1331.67 26.3147 1332.8 26.5172 L1332.84 34.1734 Z" fill="#000000" fill-rule="nonzero" fill-opacity="1" /><path clip-path="url(#clip460)" d="M1377.65 48.0275 L1377.65 51.6733 L1343.38 51.6733 Q1343.86 59.3701 1347.99 63.421 Q1352.17 67.4314 1359.58 67.4314 Q1363.87 67.4314 1367.88 66.3781 Q1371.94 65.3249 1375.91 63.2184 L1375.91 70.267 Q1371.9 71.9684 1367.68 72.8596 Q1363.47 73.7508 1359.13 73.7508 Q1348.28 73.7508 1341.92 67.4314 Q1335.6 61.1119 1335.6 50.3365 Q1335.6 39.1965 1341.59 32.6746 Q1347.63 26.1121 1357.84 26.1121 Q1366.99 26.1121 1372.3 32.0264 Q1377.65 37.9003 1377.65 48.0275 M1370.19 45.84 Q1370.11 39.7232 1366.75 36.0774 Q1363.43 32.4315 1357.92 32.4315 Q1351.68 32.4315 1347.91 35.9558 Q1344.19 39.4801 1343.62 45.8805 L1370.19 45.84 Z" fill="#000000" fill-rule="nonzero" fill-opacity="1" /><path clip-path="url(#clip460)" d="M1418.8 28.5427 L1418.8 35.5912 Q1415.64 33.9709 1412.24 33.1607 Q1408.84 32.3505 1405.19 32.3505 Q1399.64 32.3505 1396.85 34.0519 Q1394.09 35.7533 1394.09 39.156 Q1394.09 41.7486 1396.08 43.2475 Q1398.06 44.7058 1404.06 46.0426 L1406.61 46.6097 Q1414.55 48.3111 1417.87 51.4303 Q1421.24 54.509 1421.24 60.0587 Q1421.24 66.3781 1416.21 70.0644 Q1411.23 73.7508 1402.48 73.7508 Q1398.83 73.7508 1394.86 73.0216 Q1390.93 72.3329 1386.56 70.9151 L1386.56 63.2184 Q1390.69 65.3654 1394.7 66.4591 Q1398.71 67.5124 1402.64 67.5124 Q1407.91 67.5124 1410.74 65.73 Q1413.58 63.9071 1413.58 60.6258 Q1413.58 57.5877 1411.51 55.9673 Q1409.49 54.3469 1402.56 52.8481 L1399.97 52.2405 Q1393.04 50.7821 1389.96 47.7845 Q1386.88 44.7463 1386.88 39.4801 Q1386.88 33.0797 1391.42 29.5959 Q1395.96 26.1121 1404.3 26.1121 Q1408.43 26.1121 1412.08 26.7198 Q1415.73 27.3274 1418.8 28.5427 Z" fill="#000000" fill-rule="nonzero" fill-opacity="1" /><path clip-path="url(#clip460)" d="M1471.91 48.0275 L1471.91 51.6733 L1437.64 51.6733 Q1438.13 59.3701 1442.26 63.421 Q1446.43 67.4314 1453.84 67.4314 Q1458.14 67.4314 1462.15 66.3781 Q1466.2 65.3249 1470.17 63.2184 L1470.17 70.267 Q1466.16 71.9684 1461.95 72.8596 Q1457.73 73.7508 1453.4 73.7508 Q1442.54 73.7508 1436.18 67.4314 Q1429.86 61.1119 1429.86 50.3365 Q1429.86 39.1965 1435.86 32.6746 Q1441.89 26.1121 1452.1 26.1121 Q1461.26 26.1121 1466.56 32.0264 Q1471.91 37.9003 1471.91 48.0275 M1464.46 45.84 Q1464.38 39.7232 1461.02 36.0774 Q1457.69 32.4315 1452.18 32.4315 Q1445.95 32.4315 1442.18 35.9558 Q1438.45 39.4801 1437.88 45.8805 L1464.46 45.84 Z" fill="#000000" fill-rule="nonzero" fill-opacity="1" /><path clip-path="url(#clip460)" d="M1491.52 14.324 L1491.52 27.2059 L1506.87 27.2059 L1506.87 32.9987 L1491.52 32.9987 L1491.52 57.6282 Q1491.52 63.1779 1493.02 64.7578 Q1494.56 66.3376 1499.22 66.3376 L1506.87 66.3376 L1506.87 72.576 L1499.22 72.576 Q1490.59 72.576 1487.31 69.3758 Q1484.02 66.1351 1484.02 57.6282 L1484.02 32.9987 L1478.56 32.9987 L1478.56 27.2059 L1484.02 27.2059 L1484.02 14.324 L1491.52 14.324 Z" fill="#000000" fill-rule="nonzero" fill-opacity="1" /><path clip-path="url(#clip460)" d="M1550.09 12.096 L1550.09 34.5785 L1543.21 34.5785 L1543.21 12.096 L1550.09 12.096 Z" fill="#000000" fill-rule="nonzero" fill-opacity="1" /><path clip-path="url(#clip460)" d="M1573.06 65.7705 L1573.06 89.8329 L1565.57 89.8329 L1565.57 27.2059 L1573.06 27.2059 L1573.06 34.0924 Q1575.41 30.0415 1578.98 28.0971 Q1582.58 26.1121 1587.57 26.1121 Q1595.83 26.1121 1600.97 32.6746 Q1606.16 39.2371 1606.16 49.9314 Q1606.16 60.6258 1600.97 67.1883 Q1595.83 73.7508 1587.57 73.7508 Q1582.58 73.7508 1578.98 71.8063 Q1575.41 69.8214 1573.06 65.7705 M1598.42 49.9314 Q1598.42 41.7081 1595.02 37.0496 Q1591.66 32.3505 1585.74 32.3505 Q1579.83 32.3505 1576.43 37.0496 Q1573.06 41.7081 1573.06 49.9314 Q1573.06 58.1548 1576.43 62.8538 Q1579.83 67.5124 1585.74 67.5124 Q1591.66 67.5124 1595.02 62.8538 Q1598.42 58.1548 1598.42 49.9314 Z" fill="#000000" fill-rule="nonzero" fill-opacity="1" /><path clip-path="url(#clip460)" d="M1639.13 49.7694 Q1630.1 49.7694 1626.62 51.8354 Q1623.13 53.9013 1623.13 58.8839 Q1623.13 62.8538 1625.72 65.2034 Q1628.36 67.5124 1632.85 67.5124 Q1639.05 67.5124 1642.78 63.1374 Q1646.55 58.7219 1646.55 51.4303 L1646.55 49.7694 L1639.13 49.7694 M1654 46.6907 L1654 72.576 L1646.55 72.576 L1646.55 65.6895 Q1643.99 69.8214 1640.19 71.8063 Q1636.38 73.7508 1630.87 73.7508 Q1623.9 73.7508 1619.77 69.8619 Q1615.68 65.9325 1615.68 59.3701 Q1615.68 51.7138 1620.78 47.825 Q1625.93 43.9361 1636.1 43.9361 L1646.55 43.9361 L1646.55 43.2069 Q1646.55 38.0623 1643.14 35.2672 Q1639.78 32.4315 1633.66 32.4315 Q1629.78 32.4315 1626.09 33.3632 Q1622.4 34.295 1619 36.1584 L1619 29.2718 Q1623.09 27.692 1626.94 26.9223 Q1630.79 26.1121 1634.43 26.1121 Q1644.28 26.1121 1649.14 31.2163 Q1654 36.3204 1654 46.6907 Z" fill="#000000" fill-rule="nonzero" fill-opacity="1" /><path clip-path="url(#clip460)" d="M1676.56 65.7705 L1676.56 89.8329 L1669.07 89.8329 L1669.07 27.2059 L1676.56 27.2059 L1676.56 34.0924 Q1678.91 30.0415 1682.48 28.0971 Q1686.08 26.1121 1691.07 26.1121 Q1699.33 26.1121 1704.47 32.6746 Q1709.66 39.2371 1709.66 49.9314 Q1709.66 60.6258 1704.47 67.1883 Q1699.33 73.7508 1691.07 73.7508 Q1686.08 73.7508 1682.48 71.8063 Q1678.91 69.8214 1676.56 65.7705 M1701.92 49.9314 Q1701.92 41.7081 1698.52 37.0496 Q1695.16 32.3505 1689.24 32.3505 Q1683.33 32.3505 1679.93 37.0496 Q1676.56 41.7081 1676.56 49.9314 Q1676.56 58.1548 1679.93 62.8538 Q1683.33 67.5124 1689.24 67.5124 Q1695.16 67.5124 1698.52 62.8538 Q1701.92 58.1548 1701.92 49.9314 Z" fill="#000000" fill-rule="nonzero" fill-opacity="1" /><path clip-path="url(#clip460)" d="M1760.82 48.0275 L1760.82 51.6733 L1726.55 51.6733 Q1727.04 59.3701 1731.17 63.421 Q1735.34 67.4314 1742.76 67.4314 Q1747.05 67.4314 1751.06 66.3781 Q1755.11 65.3249 1759.08 63.2184 L1759.08 70.267 Q1755.07 71.9684 1750.86 72.8596 Q1746.64 73.7508 1742.31 73.7508 Q1731.45 73.7508 1725.09 67.4314 Q1718.77 61.1119 1718.77 50.3365 Q1718.77 39.1965 1724.77 32.6746 Q1730.81 26.1121 1741.01 26.1121 Q1750.17 26.1121 1755.48 32.0264 Q1760.82 37.9003 1760.82 48.0275 M1753.37 45.84 Q1753.29 39.7232 1749.93 36.0774 Q1746.6 32.4315 1741.09 32.4315 Q1734.86 32.4315 1731.09 35.9558 Q1727.36 39.4801 1726.79 45.8805 L1753.37 45.84 Z" fill="#000000" fill-rule="nonzero" fill-opacity="1" /><path clip-path="url(#clip460)" d="M1799.35 34.1734 Q1798.09 33.4443 1796.59 33.1202 Q1795.13 32.7556 1793.35 32.7556 Q1787.03 32.7556 1783.63 36.8875 Q1780.27 40.9789 1780.27 48.6757 L1780.27 72.576 L1772.77 72.576 L1772.77 27.2059 L1780.27 27.2059 L1780.27 34.2544 Q1782.62 30.1225 1786.38 28.1376 Q1790.15 26.1121 1795.54 26.1121 Q1796.31 26.1121 1797.24 26.2337 Q1798.17 26.3147 1799.31 26.5172 L1799.35 34.1734 Z" fill="#000000" fill-rule="nonzero" fill-opacity="1" /><path clip-path="url(#clip460)" d="M1814.21 12.096 L1814.21 34.5785 L1807.33 34.5785 L1807.33 12.096 L1814.21 12.096 Z" fill="#000000" fill-rule="nonzero" fill-opacity="1" /><path clip-path="url(#clip460)" d="M1831.88 62.2867 L1840.42 62.2867 L1840.42 69.2543 L1833.78 82.2172 L1828.55 82.2172 L1831.88 69.2543 L1831.88 62.2867 Z" fill="#000000" fill-rule="nonzero" fill-opacity="1" /><path clip-path="url(#clip460)" d="M1928.33 16.7545 L1928.33 25.383 Q1924.2 21.5346 1919.5 19.6307 Q1914.84 17.7268 1909.57 17.7268 Q1899.2 17.7268 1893.69 24.0867 Q1888.18 30.4061 1888.18 42.3968 Q1888.18 54.3469 1893.69 60.7069 Q1899.2 67.0263 1909.57 67.0263 Q1914.84 67.0263 1919.5 65.1223 Q1924.2 63.2184 1928.33 59.3701 L1928.33 67.9175 Q1924.03 70.8341 1919.21 72.2924 Q1914.43 73.7508 1909.09 73.7508 Q1895.35 73.7508 1887.45 65.3654 Q1879.55 56.9395 1879.55 42.3968 Q1879.55 27.8135 1887.45 19.4281 Q1895.35 11.0023 1909.09 11.0023 Q1914.51 11.0023 1919.29 12.4606 Q1924.11 13.8784 1928.33 16.7545 Z" fill="#000000" fill-rule="nonzero" fill-opacity="1" /><path clip-path="url(#clip460)" d="M1949.15 18.8205 L1949.15 41.5461 L1959.44 41.5461 Q1965.15 41.5461 1968.27 38.5889 Q1971.39 35.6318 1971.39 30.163 Q1971.39 24.7348 1968.27 21.7777 Q1965.15 18.8205 1959.44 18.8205 L1949.15 18.8205 M1940.97 12.096 L1959.44 12.096 Q1969.61 12.096 1974.79 16.714 Q1980.02 21.2916 1980.02 30.163 Q1980.02 39.1155 1974.79 43.6931 Q1969.61 48.2706 1959.44 48.2706 L1949.15 48.2706 L1949.15 72.576 L1940.97 72.576 L1940.97 12.096 Z" fill="#000000" fill-rule="nonzero" fill-opacity="1" /><path clip-path="url(#clip460)" d="M1990.06 12.096 L1998.29 12.096 L1998.29 48.8377 Q1998.29 58.5599 2001.81 62.8538 Q2005.34 67.1073 2013.23 67.1073 Q2021.09 67.1073 2024.62 62.8538 Q2028.14 58.5599 2028.14 48.8377 L2028.14 12.096 L2036.36 12.096 L2036.36 49.8504 Q2036.36 61.6791 2030.49 67.7149 Q2024.66 73.7508 2013.23 73.7508 Q2001.77 73.7508 1995.9 67.7149 Q1990.06 61.6791 1990.06 49.8504 L1990.06 12.096 Z" fill="#000000" fill-rule="nonzero" fill-opacity="1" /><path clip-path="url(#clip462)" d="M249.158 1115.48 L249.158 1234.03 L415.115 1234.03 L415.115 1115.48 L249.158 1115.48 L249.158 1115.48  Z" fill="#808080" fill-rule="evenodd" fill-opacity="1"/>
<polyline clip-path="url(#clip462)" style="stroke:#000000; stroke-linecap:round; stroke-linejoin:round; stroke-width:4; stroke-opacity:1; fill:none" points="249.158,1115.48 249.158,1234.03 415.115,1234.03 415.115,1115.48 249.158,1115.48 "/>
<path clip-path="url(#clip462)" d="M486.239 1110.89 L486.239 1234.03 L652.195 1234.03 L652.195 1110.89 L486.239 1110.89 L486.239 1110.89  Z" fill="#808080" fill-rule="evenodd" fill-opacity="1"/>
<polyline clip-path="url(#clip462)" style="stroke:#000000; stroke-linecap:round; stroke-linejoin:round; stroke-width:4; stroke-opacity:1; fill:none" points="486.239,1110.89 486.239,1234.03 652.195,1234.03 652.195,1110.89 486.239,1110.89 "/>
<circle clip-path="url(#clip462)" style="fill:#808080; stroke:none; fill-opacity:0" cx="332.137" cy="1115.48" r="2"/>
<circle clip-path="url(#clip462)" style="fill:#808080; stroke:none; fill-opacity:0" cx="569.217" cy="1110.89" r="2"/>
<polyline clip-path="url(#clip462)" style="stroke:#000000; stroke-linecap:round; stroke-linejoin:round; stroke-width:4; stroke-opacity:1; fill:none" points="332.137,1118.25 332.137,1114.69 "/>
<polyline clip-path="url(#clip462)" style="stroke:#000000; stroke-linecap:round; stroke-linejoin:round; stroke-width:4; stroke-opacity:1; fill:none" points="569.217,1112.94 569.217,1109.89 "/>
<line clip-path="url(#clip462)" x1="348.137" y1="1118.25" x2="316.137" y2="1118.25" style="stroke:#000000; stroke-width:4; stroke-opacity:1"/>
<line clip-path="url(#clip462)" x1="348.137" y1="1114.69" x2="316.137" y2="1114.69" style="stroke:#000000; stroke-width:4; stroke-opacity:1"/>
<line clip-path="url(#clip462)" x1="585.217" y1="1112.94" x2="553.217" y2="1112.94" style="stroke:#000000; stroke-width:4; stroke-opacity:1"/>
<line clip-path="url(#clip462)" x1="585.217" y1="1109.89" x2="553.217" y2="1109.89" style="stroke:#000000; stroke-width:4; stroke-opacity:1"/>
<path clip-path="url(#clip462)" d="M818.389 1115.38 L818.389 1234.03 L984.345 1234.03 L984.345 1115.38 L818.389 1115.38 L818.389 1115.38  Z" fill="#17913e" fill-rule="evenodd" fill-opacity="1"/>
<polyline clip-path="url(#clip462)" style="stroke:#000000; stroke-linecap:round; stroke-linejoin:round; stroke-width:4; stroke-opacity:1; fill:none" points="818.389,1115.38 818.389,1234.03 984.345,1234.03 984.345,1115.38 818.389,1115.38 "/>
<path clip-path="url(#clip462)" d="M1055.47 273.058 L1055.47 1234.03 L1221.43 1234.03 L1221.43 273.058 L1055.47 273.058 L1055.47 273.058  Z" fill="#17913e" fill-rule="evenodd" fill-opacity="1"/>
<polyline clip-path="url(#clip462)" style="stroke:#000000; stroke-linecap:round; stroke-linejoin:round; stroke-width:4; stroke-opacity:1; fill:none" points="1055.47,273.058 1055.47,1234.03 1221.43,1234.03 1221.43,273.058 1055.47,273.058 "/>
<path clip-path="url(#clip462)" d="M1292.55 1126.19 L1292.55 1234.03 L1458.51 1234.03 L1458.51 1126.19 L1292.55 1126.19 L1292.55 1126.19  Z" fill="#17913e" fill-rule="evenodd" fill-opacity="1"/>
<polyline clip-path="url(#clip462)" style="stroke:#000000; stroke-linecap:round; stroke-linejoin:round; stroke-width:4; stroke-opacity:1; fill:none" points="1292.55,1126.19 1292.55,1234.03 1458.51,1234.03 1458.51,1126.19 1292.55,1126.19 "/>
<circle clip-path="url(#clip462)" style="fill:#17913e; stroke:none; fill-opacity:0" cx="901.367" cy="1115.38" r="2"/>
<circle clip-path="url(#clip462)" style="fill:#17913e; stroke:none; fill-opacity:0" cx="1138.45" cy="273.058" r="2"/>
<circle clip-path="url(#clip462)" style="fill:#17913e; stroke:none; fill-opacity:0" cx="1375.53" cy="1126.19" r="2"/>
<polyline clip-path="url(#clip462)" style="stroke:#000000; stroke-linecap:round; stroke-linejoin:round; stroke-width:4; stroke-opacity:1; fill:none" points="901.367,1117.16 901.367,1114.96 "/>
<polyline clip-path="url(#clip462)" style="stroke:#000000; stroke-linecap:round; stroke-linejoin:round; stroke-width:4; stroke-opacity:1; fill:none" points="1138.45,305.207 1138.45,224.432 "/>
<polyline clip-path="url(#clip462)" style="stroke:#000000; stroke-linecap:round; stroke-linejoin:round; stroke-width:4; stroke-opacity:1; fill:none" points="1375.53,1127.58 1375.53,1125.87 "/>
<line clip-path="url(#clip462)" x1="917.367" y1="1117.16" x2="885.367" y2="1117.16" style="stroke:#000000; stroke-width:4; stroke-opacity:1"/>
<line clip-path="url(#clip462)" x1="917.367" y1="1114.96" x2="885.367" y2="1114.96" style="stroke:#000000; stroke-width:4; stroke-opacity:1"/>
<line clip-path="url(#clip462)" x1="1154.45" y1="305.207" x2="1122.45" y2="305.207" style="stroke:#000000; stroke-width:4; stroke-opacity:1"/>
<line clip-path="url(#clip462)" x1="1154.45" y1="224.432" x2="1122.45" y2="224.432" style="stroke:#000000; stroke-width:4; stroke-opacity:1"/>
<line clip-path="url(#clip462)" x1="1391.53" y1="1127.58" x2="1359.53" y2="1127.58" style="stroke:#000000; stroke-width:4; stroke-opacity:1"/>
<line clip-path="url(#clip462)" x1="1391.53" y1="1125.87" x2="1359.53" y2="1125.87" style="stroke:#000000; stroke-width:4; stroke-opacity:1"/>
<path clip-path="url(#clip462)" d="M1631.81 461.252 L1631.81 1234.03 L1797.77 1234.03 L1797.77 461.252 L1631.81 461.252 L1631.81 461.252  Z" fill="#3065a6" fill-rule="evenodd" fill-opacity="1"/>
<polyline clip-path="url(#clip462)" style="stroke:#000000; stroke-linecap:round; stroke-linejoin:round; stroke-width:4; stroke-opacity:1; fill:none" points="1631.81,461.252 1631.81,1234.03 1797.77,1234.03 1797.77,461.252 1631.81,461.252 "/>
<path clip-path="url(#clip462)" d="M1868.89 387.181 L1868.89 1234.03 L2034.85 1234.03 L2034.85 387.181 L1868.89 387.181 L1868.89 387.181  Z" fill="#3065a6" fill-rule="evenodd" fill-opacity="1"/>
<polyline clip-path="url(#clip462)" style="stroke:#000000; stroke-linecap:round; stroke-linejoin:round; stroke-width:4; stroke-opacity:1; fill:none" points="1868.89,387.181 1868.89,1234.03 2034.85,1234.03 2034.85,387.181 1868.89,387.181 "/>
<path clip-path="url(#clip462)" d="M2105.97 795.646 L2105.97 1234.03 L2271.93 1234.03 L2271.93 795.646 L2105.97 795.646 L2105.97 795.646  Z" fill="#3065a6" fill-rule="evenodd" fill-opacity="1"/>
<polyline clip-path="url(#clip462)" style="stroke:#000000; stroke-linecap:round; stroke-linejoin:round; stroke-width:4; stroke-opacity:1; fill:none" points="2105.97,795.646 2105.97,1234.03 2271.93,1234.03 2271.93,795.646 2105.97,795.646 "/>
<circle clip-path="url(#clip462)" style="fill:#3065a6; stroke:none; fill-opacity:0" cx="1714.79" cy="461.252" r="2"/>
<circle clip-path="url(#clip462)" style="fill:#3065a6; stroke:none; fill-opacity:0" cx="1951.87" cy="387.181" r="2"/>
<circle clip-path="url(#clip462)" style="fill:#3065a6; stroke:none; fill-opacity:0" cx="2188.95" cy="795.646" r="2"/>
<polyline clip-path="url(#clip462)" style="stroke:#000000; stroke-linecap:round; stroke-linejoin:round; stroke-width:4; stroke-opacity:1; fill:none" points="1714.79,481.367 1714.79,454.069 "/>
<polyline clip-path="url(#clip462)" style="stroke:#000000; stroke-linecap:round; stroke-linejoin:round; stroke-width:4; stroke-opacity:1; fill:none" points="1951.87,405.714 1951.87,374.841 "/>
<polyline clip-path="url(#clip462)" style="stroke:#000000; stroke-linecap:round; stroke-linejoin:round; stroke-width:4; stroke-opacity:1; fill:none" points="2188.95,852.529 2188.95,704.023 "/>
<line clip-path="url(#clip462)" x1="1730.79" y1="481.367" x2="1698.79" y2="481.367" style="stroke:#000000; stroke-width:4; stroke-opacity:1"/>
<line clip-path="url(#clip462)" x1="1730.79" y1="454.069" x2="1698.79" y2="454.069" style="stroke:#000000; stroke-width:4; stroke-opacity:1"/>
<line clip-path="url(#clip462)" x1="1967.87" y1="405.714" x2="1935.87" y2="405.714" style="stroke:#000000; stroke-width:4; stroke-opacity:1"/>
<line clip-path="url(#clip462)" x1="1967.87" y1="374.841" x2="1935.87" y2="374.841" style="stroke:#000000; stroke-width:4; stroke-opacity:1"/>
<line clip-path="url(#clip462)" x1="2204.95" y1="852.529" x2="2172.95" y2="852.529" style="stroke:#000000; stroke-width:4; stroke-opacity:1"/>
<line clip-path="url(#clip462)" x1="2204.95" y1="704.023" x2="2172.95" y2="704.023" style="stroke:#000000; stroke-width:4; stroke-opacity:1"/>
<path clip-path="url(#clip460)" d="M248.022 367.851 L623.252 367.851 L623.252 160.491 L248.022 160.491  Z" fill="#ffffff" fill-rule="evenodd" fill-opacity="1"/>
<polyline clip-path="url(#clip460)" style="stroke:#000000; stroke-linecap:round; stroke-linejoin:round; stroke-width:4; stroke-opacity:1; fill:none" points="248.022,367.851 623.252,367.851 623.252,160.491 248.022,160.491 248.022,367.851 "/>
<path clip-path="url(#clip460)" d="M272.215 233.067 L417.369 233.067 L417.369 191.595 L272.215 191.595 L272.215 233.067  Z" fill="#808080" fill-rule="evenodd" fill-opacity="1"/>
<polyline clip-path="url(#clip460)" style="stroke:#000000; stroke-linecap:round; stroke-linejoin:round; stroke-width:4; stroke-opacity:1; fill:none" points="272.215,233.067 417.369,233.067 417.369,191.595 272.215,191.595 272.215,233.067 "/>
<path clip-path="url(#clip460)" d="M469.431 197.713 L469.431 202.643 Q467.07 200.444 464.385 199.356 Q461.723 198.268 458.714 198.268 Q452.788 198.268 449.64 201.902 Q446.491 205.513 446.491 212.365 Q446.491 219.194 449.64 222.828 Q452.788 226.439 458.714 226.439 Q461.723 226.439 464.385 225.351 Q467.07 224.263 469.431 222.064 L469.431 226.949 Q466.977 228.615 464.223 229.449 Q461.491 230.282 458.436 230.282 Q450.589 230.282 446.075 225.49 Q441.561 220.675 441.561 212.365 Q441.561 204.032 446.075 199.24 Q450.589 194.426 458.436 194.426 Q461.538 194.426 464.269 195.259 Q467.024 196.069 469.431 197.713 Z" fill="#000000" fill-rule="nonzero" fill-opacity="1" /><path clip-path="url(#clip460)" d="M272.215 284.907 L417.369 284.907 L417.369 243.435 L272.215 243.435 L272.215 284.907  Z" fill="#17913e" fill-rule="evenodd" fill-opacity="1"/>
<polyline clip-path="url(#clip460)" style="stroke:#000000; stroke-linecap:round; stroke-linejoin:round; stroke-width:4; stroke-opacity:1; fill:none" points="272.215,284.907 417.369,284.907 417.369,243.435 272.215,243.435 272.215,284.907 "/>
<path clip-path="url(#clip460)" d="M446.885 255.525 L451.144 255.525 L451.144 281.914 Q451.144 286.867 449.246 289.089 Q447.371 291.312 443.181 291.312 L441.561 291.312 L441.561 287.701 L442.695 287.701 Q445.126 287.701 446.005 286.566 Q446.885 285.455 446.885 281.914 L446.885 255.525 M446.885 245.432 L451.144 245.432 L451.144 250.826 L446.885 250.826 L446.885 245.432 Z" fill="#000000" fill-rule="nonzero" fill-opacity="1" /><path clip-path="url(#clip460)" d="M459.616 271.219 L459.616 255.525 L463.876 255.525 L463.876 271.057 Q463.876 274.738 465.311 276.589 Q466.746 278.418 469.616 278.418 Q473.065 278.418 475.056 276.219 Q477.07 274.02 477.07 270.224 L477.07 255.525 L481.329 255.525 L481.329 281.451 L477.07 281.451 L477.07 277.469 Q475.519 279.83 473.459 280.988 Q471.422 282.122 468.714 282.122 Q464.246 282.122 461.931 279.344 Q459.616 276.566 459.616 271.219 M470.334 254.9 L470.334 254.9 Z" fill="#000000" fill-rule="nonzero" fill-opacity="1" /><path clip-path="url(#clip460)" d="M490.102 245.432 L494.362 245.432 L494.362 281.451 L490.102 281.451 L490.102 245.432 Z" fill="#000000" fill-rule="nonzero" fill-opacity="1" /><path clip-path="url(#clip460)" d="M503.274 255.525 L507.533 255.525 L507.533 281.451 L503.274 281.451 L503.274 255.525 M503.274 245.432 L507.533 245.432 L507.533 250.826 L503.274 250.826 L503.274 245.432 Z" fill="#000000" fill-rule="nonzero" fill-opacity="1" /><path clip-path="url(#clip460)" d="M528.227 268.418 Q523.065 268.418 521.074 269.599 Q519.084 270.779 519.084 273.627 Q519.084 275.895 520.565 277.238 Q522.07 278.557 524.639 278.557 Q528.181 278.557 530.31 276.057 Q532.463 273.534 532.463 269.367 L532.463 268.418 L528.227 268.418 M536.722 266.659 L536.722 281.451 L532.463 281.451 L532.463 277.515 Q531.005 279.877 528.829 281.011 Q526.653 282.122 523.505 282.122 Q519.524 282.122 517.162 279.9 Q514.824 277.654 514.824 273.904 Q514.824 269.529 517.741 267.307 Q520.681 265.085 526.491 265.085 L532.463 265.085 L532.463 264.668 Q532.463 261.728 530.519 260.131 Q528.598 258.511 525.102 258.511 Q522.88 258.511 520.773 259.043 Q518.667 259.576 516.723 260.641 L516.723 256.705 Q519.061 255.803 521.26 255.363 Q523.459 254.9 525.542 254.9 Q531.167 254.9 533.945 257.816 Q536.722 260.733 536.722 266.659 Z" fill="#000000" fill-rule="nonzero" fill-opacity="1" /><path clip-path="url(#clip460)" d="M272.215 336.747 L417.369 336.747 L417.369 295.275 L272.215 295.275 L272.215 336.747  Z" fill="#3065a6" fill-rule="evenodd" fill-opacity="1"/>
<polyline clip-path="url(#clip460)" style="stroke:#000000; stroke-linecap:round; stroke-linejoin:round; stroke-width:4; stroke-opacity:1; fill:none" points="272.215,336.747 417.369,336.747 417.369,295.275 272.215,295.275 272.215,336.747 "/>
<path clip-path="url(#clip460)" d="M445.843 329.402 L445.843 343.152 L441.561 343.152 L441.561 307.365 L445.843 307.365 L445.843 311.3 Q447.186 308.985 449.223 307.874 Q451.283 306.74 454.13 306.74 Q458.853 306.74 461.792 310.49 Q464.755 314.24 464.755 320.351 Q464.755 326.462 461.792 330.212 Q458.853 333.962 454.13 333.962 Q451.283 333.962 449.223 332.851 Q447.186 331.717 445.843 329.402 M460.334 320.351 Q460.334 315.652 458.39 312.99 Q456.468 310.305 453.089 310.305 Q449.709 310.305 447.765 312.99 Q445.843 315.652 445.843 320.351 Q445.843 325.05 447.765 327.735 Q449.709 330.397 453.089 330.397 Q456.468 330.397 458.39 327.735 Q460.334 325.05 460.334 320.351 Z" fill="#000000" fill-rule="nonzero" fill-opacity="1" /><path clip-path="url(#clip460)" d="M482.602 335.698 Q480.797 340.328 479.084 341.74 Q477.371 343.152 474.501 343.152 L471.098 343.152 L471.098 339.587 L473.598 339.587 Q475.357 339.587 476.329 338.754 Q477.302 337.92 478.482 334.818 L479.246 332.874 L468.76 307.365 L473.274 307.365 L481.376 327.642 L489.477 307.365 L493.991 307.365 L482.602 335.698 Z" fill="#000000" fill-rule="nonzero" fill-opacity="1" /><path clip-path="url(#clip460)" d="M504.084 300.004 L504.084 307.365 L512.857 307.365 L512.857 310.675 L504.084 310.675 L504.084 324.749 Q504.084 327.92 504.94 328.823 Q505.82 329.726 508.482 329.726 L512.857 329.726 L512.857 333.291 L508.482 333.291 Q503.551 333.291 501.676 331.462 Q499.801 329.61 499.801 324.749 L499.801 310.675 L496.676 310.675 L496.676 307.365 L499.801 307.365 L499.801 300.004 L504.084 300.004 Z" fill="#000000" fill-rule="nonzero" fill-opacity="1" /><path clip-path="url(#clip460)" d="M540.01 317.643 L540.01 333.291 L535.75 333.291 L535.75 317.781 Q535.75 314.101 534.315 312.272 Q532.88 310.443 530.01 310.443 Q526.561 310.443 524.57 312.643 Q522.579 314.842 522.579 318.638 L522.579 333.291 L518.297 333.291 L518.297 297.272 L522.579 297.272 L522.579 311.393 Q524.107 309.055 526.167 307.897 Q528.25 306.74 530.959 306.74 Q535.426 306.74 537.718 309.518 Q540.01 312.272 540.01 317.643 Z" fill="#000000" fill-rule="nonzero" fill-opacity="1" /><path clip-path="url(#clip460)" d="M558.551 310.351 Q555.125 310.351 553.134 313.036 Q551.144 315.698 551.144 320.351 Q551.144 325.004 553.111 327.689 Q555.102 330.351 558.551 330.351 Q561.954 330.351 563.945 327.666 Q565.935 324.98 565.935 320.351 Q565.935 315.744 563.945 313.059 Q561.954 310.351 558.551 310.351 M558.551 306.74 Q564.107 306.74 567.278 310.351 Q570.449 313.962 570.449 320.351 Q570.449 326.717 567.278 330.351 Q564.107 333.962 558.551 333.962 Q552.972 333.962 549.801 330.351 Q546.653 326.717 546.653 320.351 Q546.653 313.962 549.801 310.351 Q552.972 306.74 558.551 306.74 Z" fill="#000000" fill-rule="nonzero" fill-opacity="1" /><path clip-path="url(#clip460)" d="M599.06 317.643 L599.06 333.291 L594.801 333.291 L594.801 317.781 Q594.801 314.101 593.366 312.272 Q591.931 310.443 589.06 310.443 Q585.611 310.443 583.62 312.643 Q581.63 314.842 581.63 318.638 L581.63 333.291 L577.347 333.291 L577.347 307.365 L581.63 307.365 L581.63 311.393 Q583.157 309.055 585.218 307.897 Q587.301 306.74 590.009 306.74 Q594.477 306.74 596.768 309.518 Q599.06 312.272 599.06 317.643 Z" fill="#000000" fill-rule="nonzero" fill-opacity="1" /></svg>
